<svg xmlns="http://www.w3.org/2000/svg" xmlns:xlink="http://www.w3.org/1999/xlink" width="240.524" height="690.375" viewBox="0 0 240.524 690.375">
  <defs>
    <clipPath id="clip-path">
      <rect id="Rectangle_203" data-name="Rectangle 203" width="240.524" height="690.375" transform="translate(286.486)" fill="#C97A1F"/>
    </clipPath>
  </defs>
  <g id="Group_127" data-name="Group 127" transform="translate(-286.486)">
    <g id="Group_126" data-name="Group 126" transform="translate(0 0)" clip-path="url(#clip-path)">
      <path id="Path_7702" data-name="Path 7702" d="M21.731,46.271c-1.116,1.786-3.09,3.159-4.361,1.219-2.335-3.606-4.275-2.181-6.73-.584a2.323,2.323,0,0,1-2.3-.206,2.719,2.719,0,0,1-.326-2.438C12.94,33.84,21.989,27.059,30.144,19.5a2.2,2.2,0,0,1,3.537.532c1.665,3.194,4.241,6.25,2.867,10.284a5.161,5.161,0,0,0,.858,5.288c7.383,8.293,10.8,19.813,21.049,25.771.721.412,1.1,1.494,1.545,2.318.172.326.292,1.082.155,1.15-.773.429-1.906,1.219-2.4.944a30.291,30.291,0,0,1-6.919-4.584c-7.469-7.434-17.684-9.821-26.509-14.731-.721-.395-1.837-.034-2.764-.034a3.534,3.534,0,0,0-.326-1.185c-.155-.206-.618-.172-.927-.24.481.412.944.841,1.425,1.253" transform="translate(127.04 304.514)" fill="#C97A1F"/>
      <path id="Path_7703" data-name="Path 7703" d="M22.6,37.956a21.291,21.291,0,0,1,.412-2.781c1.511-5.305,8.482-5.357,10.164-9.752,2.163-5.649,7.314-6.833,11.3-9.769,1.339-.979,4.052.378,4.5,2.112.67,2.678,1.2,5.391,1.734,8.1a29.019,29.019,0,0,0,6.61,13.77c4.842,5.614,7.692,12.843,13.941,17.392,1.339.979,1,3.4-.258,3.365-.876-.017-2.129.069-2.593-.446-5.1-5.683-10.645-10.336-18.714-11.366-1.923-.24-4.086-2.558-5.168-4.464-3.09-5.477-8.173-6.318-13.014-4.807-3.863,1.219-6.215-.549-9.151-1.6Z" transform="translate(361.561 247.791)" fill="#C97A1F"/>
      <path id="Path_7704" data-name="Path 7704" d="M28.7,26.779c1.751-4.516,1.854-9.821,6.267-13.031,1.253-.927,2.936-1.047,3.64.223a30.233,30.233,0,0,1,3.022,7.743c.189.824-1.408,2.077-2.232,3.09-1.047,1.288-1.185,3.382.137,3.52,5,.549,4.1,5.374,6.267,7.9C51.582,42.97,57.145,49.889,64.545,55.04c1.219.858,1.047,3.554-.069,3.554a4.511,4.511,0,0,1-2.49-.326c-4.138-2.953-8.276-5.923-12.242-9.1a6.226,6.226,0,0,0-6.37-1.2c-3.949,1.133-4.035.841-6.026-3.846-1.58-3.709-3.863.137-5.7-.549l.189.206c-2.026-4.258-5.2-6.4-10.061-5.322-3.142.7-6.25,1.545-9.409,2.112-.687.12-1.6-.635-2.283-1.133-.137-.1.069-.927.326-1.288,3.142-4.481,8.98-6.061,11.881-11.057.635-1.1,4.344-.412,6.627-.532.24.24.481.481.721.738l-.944-.515" transform="translate(162.346 210.758)" fill="#C97A1F"/>
      <path id="Path_7705" data-name="Path 7705" d="M56.427,55.771a9.639,9.639,0,0,1-1.408-.034c-5.408-.876-8.1-7.76-15.16-5.906-5.151,1.356-10.714-1.974-16.4-.137-2.953.944-6.49.137-9.752-.1a2.839,2.839,0,0,1-1.923-1.683,2.761,2.761,0,0,1,.412-2.558c4.739-3.4,6.919-10.01,13.787-10.765,2.575-.292,3.76-2.369,4.567-4.773a18.674,18.674,0,0,1,2.593-4.859c1.2-1.683,5.2-1.288,6.181.515.652,1.219,1.1,2.558,1.648,3.846,3.159,7.366,6.645,14.474,13.169,19.607a7.093,7.093,0,0,1,2.953,6.1Z" transform="translate(188.424 386.131)" fill="#C97A1F"/>
      <path id="Path_7706" data-name="Path 7706" d="M55.722,54.4c-4.052-1.957-7.177-6.181-12.482-5.065-4.962-7.606-12.894-5.889-20.122-6.49-.841-.086-2.369-.944-2.318-1.2.24-1.253.584-2.833,1.477-3.571,1.957-1.631,5.443-1.923,4.309-5.82,2.49-1.271,5.322-2.129,7.366-3.915,2.4-2.077,4.069-4.979,6.181-7.434,2.8-3.279,7.142-2.455,8.31,1.837,1,3.743-1.3,8.241,3.571,11.04,3.674,2.112,1.854,6.748,3.3,10.1,1.219,2.867.91,6.4,1.271,9.649Z" transform="translate(336.303 305.486)" fill="#C97A1F"/>
      <path id="Path_7707" data-name="Path 7707" d="M34.818,3.788a9.985,9.985,0,0,1,2.335,1.339c2.85,3,2.2,7.091,1.906,10.4-.446,5.116,1.751,6.73,6.044,7.194a5.811,5.811,0,0,1,5.134,5.855c-.343,8.173,2.987,14.13,9.186,18.938.275.223.446,1.168.275,1.3-.6.5-1.511,1.253-2.026,1.082a19.877,19.877,0,0,1-9.22-6.318c-.549-.687-1.288-1.751-1.1-2.4,1.013-3.451-1.631-4.1-3.709-4.516-4.516-.876-8.876-1-12.431-5.134-2.2-2.558-6.627-2.781-10.37-2.9-1.786-.034-3.863.395-4.31-2.232-.275-1.717,2.043-4.79,4.121-4.5,3.468.481,5.425-.773,6.627-3.743,1.768-4.344,3.434-8.722,5.305-13.014.275-.652,1.459-.91,2.232-1.356" transform="translate(266.966 61.249)" fill="#C97A1F"/>
      <path id="Path_7708" data-name="Path 7708" d="M61.877,49.409c-.258.292-.515.807-.91.961a1.587,1.587,0,0,1-1.253-.223c-6.833-4.138-13.89-7.967-20.346-12.619-4.327-3.142-8.413-3.966-13.1-1.906a17.46,17.46,0,0,1-8.31,1.082c-1.236-.086-1.94-.944-1.391-1.562C19.383,32,22.2,28.858,25.255,25.99a30.215,30.215,0,0,1,5.855-3.9c2.009-1.15,4.344-1.786,6.232-3.09,1.408-.979-.343-4.018,1.992-4.6,2.232-.549,3-4.224,5.408-2.97,1.013.515,1.339,3.52,1.03,5.237-1.442,7.864,2.146,14.044,7.263,18.938,3.863,3.726,5.941,8.293,8.808,12.482.206.292.034.841.034,1.322" transform="translate(264.82 180.641)" fill="#C97A1F"/>
      <path id="Path_7709" data-name="Path 7709" d="M43.328,57.32c-6.37-6.044-13.615-6.936-21.582-3.794a9.827,9.827,0,0,1-6.73.532,2.4,2.4,0,0,1-1.288-1.889c.876-3.159,2.18-6.129,5.031-8.07,3.434-2.318,6.9-4.618,10.353-6.919.12.91.206,1.837.378,2.747.069.446.309,1.236.446,1.236.961-.017,1.408-.824.876-1.871a8.537,8.537,0,0,0-1.94-1.906c1.047-3.331,3.88-5.151,6.284-7.3,1.236-1.1,4.206-.378,4.756,1.15a64.382,64.382,0,0,1,2.129,6.61,42.747,42.747,0,0,0,9.924,18.165c3.726,4.138,7.245,8.155,12.345,10.611.652.292.927,1.477,1.288,2.284.446.979-1.82,1.854-3.073,1.047-4.258-2.713-9.357-3.983-12.482-8.6a10.374,10.374,0,0,0-6.988-4.292Z" transform="translate(221.782 477.965)" fill="#C97A1F"/>
      <path id="Path_7710" data-name="Path 7710" d="M31.486,38.867c.292-1.339.12-3.279.961-3.915a28.483,28.483,0,0,0,7.211-8.224c1.013-1.648,3.022-2.73,4.7-1.854,1.459.755,3.331,2.7,3.3,4.069C47.488,38.2,52.707,44.4,58.734,50.371c2.541,2.507,4.584,5.529,6.851,8.31l.206-.189a7.7,7.7,0,0,1-6.73-.618c-3.451-2.2-6.318-5.168-11.383-4.069-2.438.532-2.266-3.245-2.593-5.511-.67-4.361-1.6-1.116-2.49,0-1.271,1.58-3.279,2.644-4.876,1.665-5.151-3.159-10.954-1.631-16.328-2.8a16.952,16.952,0,0,1-2.4-.927c.6-.652,1.1-1.528,1.837-1.906,3.657-1.871,6.026-6.215,10.9-5.7a7.241,7.241,0,0,0,.464,1.116c.137.206.446.275.67.412-.464-.429-.91-.858-1.374-1.288" transform="translate(307.006 397.163)" fill="#C97A1F"/>
      <path id="Path_7711" data-name="Path 7711" d="M64.074,52.989c-1.854.189-3.709.635-5.408-.618a12.235,12.235,0,0,0-12.173-1.236c-6.851,3.09-13.89,2.095-20.826,2.575-2.781.206-7.348,1.58-8.1-2.507-.532-2.867,3.674-3.691,5.958-5.2,2.335-1.562,4.464-3.915,7.039-4.619,6.73-1.854,11.229-6.215,15.281-11.452.738-.961,2.541-2.284,3.348-.361,3.657,8.671,9.821,15.71,14.663,23.608Z" transform="translate(283.226 462.209)" fill="#C97A1F"/>
      <path id="Path_7712" data-name="Path 7712" d="M16.094,41.158a19.659,19.659,0,0,1,1.185-3.743c1.185-2.2,3.382-3.056,5.649-3.812,6.73-2.3,11.486-6.456,15.83-13.564.446-.721,1.391-1.906,1.7-1.8,1.219.446,3,1.133,3.262,2.077C45.745,27.663,51.1,33.174,54.4,39.836c2.713,5.46,8.859,9.2,13.444,13.753.24.24.326,1.116.189,1.185a8.72,8.72,0,0,1-2.4,1.013,1.594,1.594,0,0,1-1.15-.6c-3.606-4.344-9.786-5.511-12.894-10.439-2.095-3.348-6.833.326-8.619-3.211-2.867-5.666-6.833-4.979-11.692-2.884A112.247,112.247,0,0,1,18.1,42.926c-.412.12-1.185-1.013-2.009-1.768" transform="translate(260.228 294.776)" fill="#C97A1F"/>
      <path id="Path_7713" data-name="Path 7713" d="M58.37,44.246C54.782,42,50.438,40.4,47.76,37.344c-5.2-5.975-11.709-7.228-18.9-7.4-.927-.017-2.472-.1-2.644-.549-.532-1.477,1.064-1.889,1.871-2.781,3.108-3.348,5.992-6.9,8.945-10.37,2.266-2.644,6.627-1.219,8.585-5.528,1.974-4.344,5.271-5.219,6.2-3.674C53.2,9.358,52.5,11.5,51.5,13.7c-.395.841-1.047,1.94-.79,2.627.893,2.472,2.112,4.825,3.211,7.211-4.189,3.279.017,4.275,1.7,5.735,1.459,1.271,2.85,2.438,3.228,4.43.67,3.657,1.923,7.348-.7,10.8Z" transform="translate(422.111 102.379)" fill="#C97A1F"/>
      <path id="Path_7714" data-name="Path 7714" d="M52.441,43.769c-2.369-.137-4.722-.189-7.074-.412-3.022-.292-5.906-1.751-6.627-4.55C36.869,31.6,31.769,32.729,26.5,33.021c-2.266.12-2.558,5.838-6.318,1.8-1-1.082-4.378.155-6.679.137a7.612,7.612,0,0,1-2.455-.893c.635-.652,1.511-1.2,1.837-1.992,1.648-3.932,7.984-2.713,8.55-7.812.034-.395.532-1.1.773-1.082,10.267.755,12.74-7.228,16.053-14.268.189-.395.67-.652,1.013-.979.584.635,1.494,1.185,1.717,1.94a16.6,16.6,0,0,1,1,5.357c-.275,8.241.584,15.813,8.43,20.878,2.73,1.751,1.751,5.1,1.786,7.881Z" transform="translate(178.606 128.335)" fill="#C97A1F"/>
      <path id="Path_7715" data-name="Path 7715" d="M64.545,53.87a4.614,4.614,0,0,1-.395,1.219c-.223.309-.79.755-.961.67A14.97,14.97,0,0,1,60.853,54.2c-5.134-4.086-10.439-8-15.332-12.379a73.968,73.968,0,0,1-8.155-9.289c-1.957-2.472-3.674-3.434-7.125-2.146-2.284.841-5.374-.618-8.1.481-.206.086-1.013-.979-1.339-1.631-.1-.172.481-.738.79-1.1a3.362,3.362,0,0,1,1.013-.962c3.812-1.7,8.31-2.575,11.263-5.2,2.987-2.661,4.344-7.091,6.679-10.559.652-.944,2.266-1.339,3.52-1.648.258-.051,1.253,1.459,1.288,2.284.343,6.147,4.67,11.349,4.172,17.684,3.52,3.348,4.773,7.417,5.82,12.207.755,3.571,5.219,6.318,7.949,9.495a11.253,11.253,0,0,1,1.253,2.438" transform="translate(336.083 157.827)" fill="#C97A1F"/>
      <path id="Path_7716" data-name="Path 7716" d="M54.171,49.542c-.515.738-.893,1.717-1.6,2.163-1.665,1.082-3.915,1.477-5.151-.051-5.752-7.16-13.323-7.984-21.582-6.73a18.62,18.62,0,0,1-9.649-.67,1.446,1.446,0,0,1-.91-2.232c1.768-3.4,4.79-5.632,7.846-7.709,2.593-1.768,7.64.961,8.43-3.022.893-4.516,5.34-3.022,7.074-5.786,1.562-2.472,2.627-1.082,3.451,1.082,2.936,7.743,4.344,16.328,11.641,21.771.275.206.292.79.446,1.185" transform="translate(243.097 391.141)" fill="#C97A1F"/>
      <path id="Path_7717" data-name="Path 7717" d="M47.1,55.849c-4.224.429-8.808-4.172-12.705.876-.515-.549-1.425-1.065-1.494-1.683-.395-3.726-2.764-4.533-5.855-3.932-3.674.721-7.263,2.06-9.907,4.687-3.932,3.9-3.915-1.545-5.889-2.163a13.5,13.5,0,0,1-1.271-.549l.223.258c-.755-4.035,1.614-6.026,4.928-7.16,1.58-.532,4.018.12,4.859-.841,1.064-1.185.773-3.5,1.236-5.271.584-2.163,1.408-4.275,2.043-6.421.6-2.06,3.262-3.571,4.5-2.352,6.9,6.782,13.856,13.529,18.714,22.028.412.738.223,1.82.326,2.747Z" transform="translate(161.337 498.992)" fill="#C97A1F"/>
      <path id="Path_7718" data-name="Path 7718" d="M13.989,19.489c1.236-2.438,3.606-2.678,5.906-3.056a3.338,3.338,0,0,0,.412,1.047c.137.172.515.137.79.189-.464-.343-.927-.687-1.408-1.03a49.887,49.887,0,0,0,8.5-14.233c.258-.67,1.288-1.03,1.94-1.545a11.017,11.017,0,0,1,1.047,2.472c.412,2.249.223,4.67,1.03,6.73,1.15,2.9-.378,4.224-2.284,5.666a12.88,12.88,0,0,0-2.095,1.751c-.5.618.206.824,1.356,1.3C38.592,22.716,44.224,30.219,48.1,39.3l.12-.137c-1.322-.155-3.022.155-3.915-.549-3.88-3.039-7.348-6.473-12.1-8.413-1.751-.721-2.678-3.434-4-5.237a3.818,3.818,0,0,0,1.288-.258c.206-.12.309-.876.292-.876-.858-.343-1.322.12-1.374,1.322-4.979.172-9.941.429-14.9.412-1.15-.017-2.284-1-3.434-1.528a20.887,20.887,0,0,1,1.854-3.4,7.7,7.7,0,0,1,2.283-1.374c.515,1.322.91,1.58.944.755.017-.172-.755-.361-1.168-.532" transform="translate(162.889 13.905)" fill="#C97A1F"/>
      <path id="Path_7719" data-name="Path 7719" d="M21.974,19.3c.687-1.751-.824-5.6,3.228-4.206,3.709,1.288,5.906.532,8.31-2.593A49.923,49.923,0,0,0,40.276.361c.069-.206.927-.24,1.322-.12a1.874,1.874,0,0,1,.944.944A2.1,2.1,0,0,1,42.56,2.4C39.95,13.17,43.023,22.492,49.7,30.94a3.257,3.257,0,0,1,.412,2.593c-.532,1.717-1.992,1.442-3.4,1.2-1.768-.292-4.224.223-5.219-.773-5.237-5.185-12.242-6.7-18.508-9.718-.584-.292-.7-1.545-1.065-2.369l-.189.258a16.934,16.934,0,0,0,2.455-.549A17.092,17.092,0,0,0,26.283,20.4a11.633,11.633,0,0,0-2.095-1.185,10.848,10.848,0,0,0-2.49-.172ZM34.73,20.569c-.292-.309-.618-.91-.824-.876a13.741,13.741,0,0,0-2.318.67c.292.309.618.876.876.841a12.832,12.832,0,0,0,2.266-.635" transform="translate(350.857 2.781)" fill="#C97A1F"/>
      <path id="Path_7720" data-name="Path 7720" d="M26.061,35.32c-1.786-6.232,2.541-9.512,6.421-12.911.309-.292,1.957.206,2.2.7a32.009,32.009,0,0,1,2.369,6.61A66.058,66.058,0,0,0,48.793,55.082l-.137.137c-3.262.172-6.25-.79-9.392-1.58-5.082-1.271-8.43-2.987-8.19-8.894.172-4-2.558-6.73-5.048-9.46Z" transform="translate(414.69 360.929)" fill="#C97A1F"/>
      <path id="Path_7721" data-name="Path 7721" d="M46.709,56.4c-2.284.481-4.43.584-6.576-.755A30.856,30.856,0,0,0,35.1,53.6l.24.24c-1.064-1.889-2.129-3.193-3.159.017l.24-.258c-2.095-1.047-4.378-1.82-6.25-3.176-2.73-1.957-5.013-1.253-7.743-.017-1.545.687-3.657.275-5.477.034-.549-.086-1.03-1.2-1.339-1.94a1.336,1.336,0,0,1,.446-1.236,23.4,23.4,0,0,1,4.756-2.61c1.7-.584,4.1.017,5.288-.979,3.794-3.193,6.748-7.537,12.431-7.589a61.9,61.9,0,0,1,7.778,13.22,63.925,63.925,0,0,0,4.121,7.3Z" transform="translate(187.222 583.5)" fill="#C97A1F"/>
      <path id="Path_7722" data-name="Path 7722" d="M15.3,49.843c.584-3.211,3.142-4.447,5.717-5.632,3.777-1.734,7.915-2.97,11.263-5.34,3.125-2.215,6.7-5.666,9.769-4.052,3.966,2.06,5.494,7.228,6.971,11.658.172.515-1.219,2.129-1.3,2.078-4.447-2.163-9,3.588-13.426-.24-1.631-1.408-3.691-.6-5.357.189-4.5,2.146-9.117,2.009-13.838,1.15Z" transform="translate(244.075 556.283)" fill="#C97A1F"/>
      <path id="Path_7723" data-name="Path 7723" d="M18.448,22.464c-2.163.567-4.464.841-6.438,1.8C9.452,25.5,6.979,26.172,4.2,25.348l.1.1a3.605,3.605,0,0,1,.137-1.374A7.664,7.664,0,0,1,6,21.9c4.5-3.794,9.014-7.589,13.615-11.263,1.374-1.082,3.743-2.249,4.1.464.464,3.623,2.661,5.717,4.825,8.155C34,25.4,39.309,31.683,44.649,37.95a1.083,1.083,0,0,1-.206,1.013c-.79.378-1.871,1.082-2.472.807a23.156,23.156,0,0,1-4.67-2.884c-2.541-1.957-4.138-5.116-7.572-5.906l.223.258c-.395-3.76-2.644-6.3-5.58-8.4l-.549-.464c-1.992-2.575-3.812-1.8-5.563.292Z" transform="translate(67.879 152.491)" fill="#C97A1F"/>
      <path id="Path_7724" data-name="Path 7724" d="M52.1,2.061c-.069.927.206,2.18-.292,2.747-3.829,4.309-1.288,7.692.876,11.744,2.575,4.893,7.743,8.361,8.07,14.422.034.7-.721,1.494-1.236,2.146-.069.1-.858-.258-1.236-.5a3.024,3.024,0,0,1-.961-.961c-1.442-2.318-4-3.623-4.91-6.61-1.871-6.061-8.619-6.576-12.963-9.821-1.477-1.116-5.2.841-7.915,1.236-1.3.206-3.142-.069-3.142-1.459,0-1.013,1.562-2.095,2.507-3.056a2.621,2.621,0,0,1,1.288-.515,7.477,7.477,0,0,1,1.391-.1c3.193-.155,5.8-3.142,9.289-1.871C44.543,6.714,46.14,3.9,47.977,1.237A2.769,2.769,0,0,1,50.329.344c.67.12,1.185,1.1,1.768,1.717" transform="translate(458.996 5.15)" fill="#C97A1F"/>
      <path id="Path_7725" data-name="Path 7725" d="M17.132,25.5c.223.343.635.67.67,1.013a46.259,46.259,0,0,1,.24,5.546,25.243,25.243,0,0,0,6.215,18.1c3.571,4.275,6.593,8.98,9.872,13.478.584.79.309,1.494-.893,1.906a1.61,1.61,0,0,1-1.322-.309c-1.683-1.545-3.365-3.125-4.962-4.756-3.571-3.657-6.559-8.276-10.782-10.834-5.134-3.108-6.181-7.9-8-12.585-.5-1.3-.464-3.279,1.047-3.314,5.168-.086,5.614-3.983,6.765-7.469.12-.343.755-.515,1.15-.773" transform="translate(127.467 412.348)" fill="#C97A1F"/>
      <path id="Path_7726" data-name="Path 7726" d="M.406,40.184c.275-3.3,3-4.172,5.391-5.219,2.85-1.219,5.838-2.163,8.756-3.228l-.275-.24c5.031,3.691,5.031,3.691,8.842,0l-.24.206c5.134,2.9,9.975,5.769,10.164,12.911.069,2.318,2.593,4.584,4,6.868l.24-.206a7.161,7.161,0,0,1-6.318-2.387C24.2,41.231,15.463,39.5,5.814,40.3a38.155,38.155,0,0,1-5.58-.326Z" transform="translate(3.784 509.267)" fill="#C97A1F"/>
      <path id="Path_7727" data-name="Path 7727" d="M28.5,32.411c-.034-1.8-.824-4.5,1.442-4.876,7.108-1.167,11.315-6.026,15.607-11.005a1.268,1.268,0,0,1,2.232.361c2.026,7.108,4,14.268,5.941,21.41.086.309-.395.773-.635,1.133-.567.876-1.322.893-2.3.137-2.146-1.683-4.876-2.644-5.322-6.061-.446-3.52-3.348-3.863-6.353-4.086-3.983-.292-7.228,1.768-10.8,2.781Z" transform="translate(457.735 259.002)" fill="#C97A1F"/>
      <path id="Path_7728" data-name="Path 7728" d="M23.054,56.151c-7.28-2.867-12.585-9.289-20.328-11.332-1.3-.343-1.391-1.2-.5-2.095,4.945-4.91,5.941-11.3,6.713-17.787.155-1.253.927-1.8,1.889-1.236.721.429,1.734,1.3,1.7,1.906a110.412,110.412,0,0,1-1.494,12.362c-.464,2.283.549,2.8,2.077,4.1a78.1,78.1,0,0,1,9.409,10.216c.721.893.223,2.713.292,4.121Z" transform="translate(26.48 379.622)" fill="#C97A1F"/>
      <path id="Path_7729" data-name="Path 7729" d="M2.049,29.358C1.757,26.1,1.62,22.834,3.7,20.053c.961-1.3,1.236-4.018,3.777-2.867,1.047.464,2.352,2.129,2.249,3.108-.343,3.417,1.236,5.58,3.125,8.241,2.558,3.606,6.61,6.679,6.37,11.881l-.481.464c-6.353-2.816-12.4-6.1-16.843-11.675Z" transform="translate(30.453 273.387)" fill="#C97A1F"/>
      <path id="Path_7730" data-name="Path 7730" d="M44.118,28.194a49.9,49.9,0,0,1,8.018,16c.206.687-.549,1.631-.858,2.472a16.6,16.6,0,0,1-2.318-1.562c-1.683-1.545-2.936-3-3.211-5.769-.446-4.292-1.253-4.361-5.34-3.829-3.726.464-7.451.927-11.194,1.253-1.2.12-2.7.017-2.764-1.648-.017-.343,1.6-1.2,2.3-1.065,6.37,1.253,10.113-4.653,15.624-5.632Z" transform="translate(427.693 455.876)" fill="#C97A1F"/>
      <path id="Path_7731" data-name="Path 7731" d="M47.472,38.451c.137,3.451-.687,4.43-4.636,4.876C37.1,43.962,31.66,47,26.045,48.873c-.67.223-1.631-.464-2.455-.721a6.941,6.941,0,0,1,1.082-2.266,10.792,10.792,0,0,1,3.451-2.249,36.754,36.754,0,0,0,15.195-9.563c1.408-1.511,3.554-.446,3.9,1.768.155.91.189,1.854.258,2.61" transform="translate(381.433 539.517)" fill="#C97A1F"/>
      <path id="Path_7732" data-name="Path 7732" d="M39.6,35.891c-2.833-.944-5.666-1.871-8.5-2.816-.429-.7.12-2.85-1.837-1.219.687.326,1.391.652,2.095.979-.7,2.18-2.524,3-3.966,1.528-1.425-1.494-2.747-3.966-2.575-5.872.155-1.683,2.919-1.459,4.739-1.6,1.8-.12,3.434-.481,4.481-2.421,1.717-3.245,3.777-.155,5.7-.034L39.7,24.4q.1,5.563.223,11.16Z" transform="translate(401.016 371.81)" fill="#C97A1F"/>
      <path id="Path_7733" data-name="Path 7733" d="M16.084,31.2c-.721,2.558-3.022,3.176-5.1,3.829-1.648.532-4.052-4.138-3.657-7.383.069-.567,1.236-1.374,1.906-1.391,3.588-.069,7.177,2.627,6.851,4.945" transform="translate(117.785 424.49)" fill="#C97A1F"/>
      <path id="Path_7734" data-name="Path 7734" d="M13.873,37.476c4.1,3.571,8.241,7.108,12.276,10.765a2.333,2.333,0,0,1,.429,2.2,2.628,2.628,0,0,1-2.352.67,61,61,0,0,1-8.018-5.116c-2.9-2.249-3.056-5.425-2.06-8.722Z" transform="translate(219.8 602.628)" fill="#C97A1F"/>
      <path id="Path_7735" data-name="Path 7735" d="M32.133,44.164c-.532.858-.824,1.923-1.494,2.3a2.209,2.209,0,0,1-3.228-1.3A77.183,77.183,0,0,1,24.9,35.923c-.1-.446.944-1.236,1.58-1.683a1.371,1.371,0,0,1,1.3.258,15.992,15.992,0,0,1,4.344,9.666" transform="translate(402.575 552.347)" fill="#C97A1F"/>
      <path id="Path_7736" data-name="Path 7736" d="M13.059,32.539c4.67,1.631,7.228,5.906,10.834,8.859.532.446.481,1.665.584,2.541.137,1.133-2.146,1.614-3.348.67-2.61-2.009-5.134-4.1-7.761-6.078-2.833-2.129-.189-4.155-.017-6.215Z" transform="translate(195.084 522.525)" fill="#C97A1F"/>
      <path id="Path_7737" data-name="Path 7737" d="M1.344,43.448c.481-3.434.858-6.885,1.477-10.284a3.452,3.452,0,0,1,1.648-2.095c1.871-.979,2.232.67,2.558,1.906.927,3.468,1.768,6.954,2.627,10.439l.24-.206c-2.936-.79-5.889-1.889-8.842,0Z" transform="translate(17.01 497.555)" fill="#C97A1F"/>
      <path id="Path_7738" data-name="Path 7738" d="M12.588,18.009c.481,3.485-1.58,5.1-4.55,5.563a43.016,43.016,0,0,1-6.816.017l.24.258c2.2-5,5.7-7.434,11.28-5.683Z" transform="translate(19.759 284.564)" fill="#C97A1F"/>
      <path id="Path_7739" data-name="Path 7739" d="M14.931,25.694c3.554.584,7.383.67,8.945,4.842a3.543,3.543,0,0,1,.24,2.438c-.841,1.528-2.335,1.356-3.4.326-2.249-2.18-4.309-4.55-6.456-6.85Z" transform="translate(230.59 415.453)" fill="#C97A1F"/>
      <path id="Path_7740" data-name="Path 7740" d="M28.98,32.859c-.343.309-.841.927-1.013.858-3.606-1.614-8.1-1.665-10.3-5.752a1.508,1.508,0,0,1-.1-1.15c.189-.378.67-.944.961-.91,4.258.481,7.417,3,10.336,5.872.206.189.086.7.12,1.082" transform="translate(282.796 418.847)" fill="#C97A1F"/>
      <path id="Path_7741" data-name="Path 7741" d="M27.2,24.319c3.142-.515,5.254,1.133,6.919,3.485a3.415,3.415,0,0,1,.6,2.455c-.292,1.133-1.185,1.1-2.181.755-3.193-1.1-6.147-2.284-5.46-6.576Z" transform="translate(436.281 391.692)" fill="#C97A1F"/>
      <path id="Path_7742" data-name="Path 7742" d="M32.642,4.1c-2.816,1.562-5.529,3.451-9.014,2.764-.876-.172-1.734-.481-2.593-.738.395-.5.7-1.271,1.2-1.442,3.468-1.133,6.971-2.129,10.456-3.176l-.275-.24c.017,1.03.017,2.06.034,3.09Z" transform="translate(340.136 20.551)" fill="#C97A1F"/>
      <path id="Path_7743" data-name="Path 7743" d="M28.92,38.506c-8.19-.206-8.791-.79-8.482-8.5l-.223.189c3.709,1.992,5.7,5.649,8.447,8.585Z" transform="translate(326.861 485.191)" fill="#C97A1F"/>
      <path id="Path_7744" data-name="Path 7744" d="M23.574,41.317a16.154,16.154,0,0,1-2.9-.378,8.318,8.318,0,0,1-1.82-1.236c.378-.258.738-.7,1.116-.721,2.644-.12,5.288-.189,7.949-.189.343.017.7.515,1.065.79-.549.464-1.047,1.185-1.665,1.322a25.927,25.927,0,0,1-3.743.412" transform="translate(304.823 627.254)" fill="#C97A1F"/>
      <path id="Path_7745" data-name="Path 7745" d="M28.48,4.994C28.1,6.316,26.866,6.643,25.6,6.4c-1.356-.258-2.661-1.047-1.923-2.713a2.688,2.688,0,0,1,2.095-1.322A2.823,2.823,0,0,1,28.48,4.994" transform="translate(379.307 38.238)" fill="#C97A1F"/>
      <path id="Path_7746" data-name="Path 7746" d="M19.144,15.9c-5.185-.738-5.185-.738-5.477-5.872l-.223.223c5.013.618,5.013.618,5.889,5.425Z" transform="translate(217.379 162.08)" fill="#C97A1F"/>
      <path id="Path_7747" data-name="Path 7747" d="M3.2,18.871c2.2.206,4.619-1.064,6.524.841a3.381,3.381,0,0,1,.927,2.266c-.086,1.219-.927,1.339-2.077.858-2.18-.876-4.1-1.974-5.134-4.224Z" transform="translate(51.822 300.958)" fill="#C97A1F"/>
      <path id="Path_7748" data-name="Path 7748" d="M5.318,25.263c.893,2.284.549,2.97-.5,3.451-1.374.652-2.713.687-3.451-.687A2.321,2.321,0,0,1,2.691,24.8a2.4,2.4,0,0,1,2.627.464" transform="translate(17.741 397.976)" fill="#C97A1F"/>
      <path id="Path_7749" data-name="Path 7749" d="M3.04,25.79c2.335.1,4.807-.069,6.49,1.992.464.584.876,1.94.584,2.215a2.694,2.694,0,0,1-2.387.7A8.084,8.084,0,0,1,3.28,25.55Z" transform="translate(49.155 413.124)" fill="#C97A1F"/>
      <path id="Path_7750" data-name="Path 7750" d="M21.7,26.728c2.146.858,4.309,1.786,5.288,4.035a2.513,2.513,0,0,1-.652,2.318c-.361.326-1.665.086-2.2-.326-1.974-1.58-2.266-3.863-2.232-6.215Z" transform="translate(350.889 429.116)" fill="#C97A1F"/>
      <path id="Path_7751" data-name="Path 7751" d="M27.738,35.446c.206-2.284.292-4.584.687-6.833.086-.429,1.442-.944,2.112-.841,1.167.172,1.374,1.1.876,2.2-.927,2.043-1.15,4.6-3.932,5.254Z" transform="translate(444.331 448.829)" fill="#C97A1F"/>
      <path id="Path_7752" data-name="Path 7752" d="M20.707,30.777c.876.017,1.768,0,2.644.052,2.2.137,2.919,1.528,2.8,3.485-.017.326-.532.755-.91.893-2.095.824-3.194-.361-3.829-2.112a14.1,14.1,0,0,1-.446-2.593Z" transform="translate(334.817 493.194)" fill="#C97A1F"/>
      <path id="Path_7753" data-name="Path 7753" d="M18.046,32.283c-3.262,4.859-3.262,4.859-8.567,2.764l.258.258c1.974-3.623,5.168-3.451,8.533-2.764Z" transform="translate(153.268 519.794)" fill="#C97A1F"/>
      <path id="Path_7754" data-name="Path 7754" d="M2.378,32.854A6.732,6.732,0,0,1,7.2,36.94c.258.6-.258,1.511-.412,2.266a8.237,8.237,0,0,1-2.232-.652c-2.2-1.425-1.992-3.709-1.94-5.906Z" transform="translate(38.45 527.893)" fill="#C97A1F"/>
      <path id="Path_7755" data-name="Path 7755" d="M28.921,39.251c-1-.7-2.077-1.425-3.09-2.232-.292-.24-.378-.755-.549-1.133.79-.24,1.906-.927,2.3-.618a15.644,15.644,0,0,1,2.627,2.97c-.343.275-.687.549-1.288,1.013" transform="translate(408.775 568.986)" fill="#C97A1F"/>
      <path id="Path_7756" data-name="Path 7756" d="M7.5,37.019c3.657,1.631,3.451,5.872,5.683,8.464l.24-.24c-5.632-.893-5.632-.893-5.683-8.464Z" transform="translate(121.205 594.689)" fill="#C97A1F"/>
      <path id="Path_7757" data-name="Path 7757" d="M6.772,14.14c-.326-.12-.79-.137-.961-.361-1-1.3-.721-4.825.395-4.945.429-.034,1.219.893,1.391,1.511.532,1.957.12,3.4-.824,3.794" transform="translate(84.019 142.838)" fill="#C97A1F"/>
      <path id="Path_7758" data-name="Path 7758" d="M13.965,10.354a12.712,12.712,0,0,1,3.829.309,2.18,2.18,0,0,1,1.15,3.142c-.979,1.957-2.284.7-3.108-.052a15.53,15.53,0,0,1-2.06-3.176Z" transform="translate(222.748 167.416)" fill="#C97A1F"/>
      <path id="Path_7759" data-name="Path 7759" d="M21.473,18.106a2.171,2.171,0,0,1-2.215-2.49,2.742,2.742,0,0,1,1.185-2.026c.979-.429,3.691,2.524,3.193,3.451-.326.584-1.425.738-2.163,1.064" transform="translate(311.147 219.069)" fill="#C97A1F"/>
      <path id="Path_7760" data-name="Path 7760" d="M32.957,18.488c-2.026-.12-3.125-1.477-4.121-3.022-.549-.893-.309-1.58.876-1.906a1.62,1.62,0,0,1,1.253.395,4.926,4.926,0,0,1,1.786,4.756Z" transform="translate(461.724 218.843)" fill="#C97A1F"/>
      <path id="Path_7761" data-name="Path 7761" d="M34.116,22.3c-1.15-.79-2.352-1.528-3.451-2.387-1-.79-1.047-1.768-.086-2.009a2.481,2.481,0,0,1,2.215.67,18.762,18.762,0,0,1,1.082,3.966Z" transform="translate(483.245 288.724)" fill="#C97A1F"/>
      <path id="Path_7762" data-name="Path 7762" d="M23.691,20.909c5.271.91,5.219,1,5.2,6.164l.189-.206c-3.159-.378-5.34-1.94-6.25-5.082Z" transform="translate(369.192 338.083)" fill="#C97A1F"/>
      <path id="Path_7763" data-name="Path 7763" d="M23.186,21.478c1.82-.034,3.726-.086,4.893,1.6a3.229,3.229,0,0,1,.223,2.387,1.115,1.115,0,0,1-2.077.378,40.179,40.179,0,0,1-2.85-4.584Z" transform="translate(374.9 343.677)" fill="#C97A1F"/>
      <path id="Path_7764" data-name="Path 7764" d="M21.312,39.277c-.79.206-1.751.773-2.335.515a2.382,2.382,0,0,1-1.391-3.108c.12-.395.481-.944.807-1,1.116-.206,3.228,2.472,2.919,3.588" transform="translate(281.897 576.876)" fill="#C97A1F"/>
      <path id="Path_7765" data-name="Path 7765" d="M19.081,39.8c-.412-.687-1.253-1.459-1.133-2.06.275-1.408,1.339-1.974,2.816-1.356,1.082.464,1.391,1.253.549,2.112a9.19,9.19,0,0,1-2.232,1.3" transform="translate(290.017 584.333)" fill="#C97A1F"/>
      <path id="Path_7766" data-name="Path 7766" d="M7.571,43.062c.052-1.871.069-3.726.189-5.6A2.19,2.19,0,0,1,8.5,36.4c.6.309,1.58.7,1.631,1.15.172,1.854.052,3.726.052,5.6l.223-.24-3.073-.051Z" transform="translate(118.537 588.56)" fill="#C97A1F"/>
      <path id="Path_7767" data-name="Path 7767" d="M29.573.722A13.13,13.13,0,0,1,31.668,0c.189-.034.5.567.755.858a10.311,10.311,0,0,1-2.095.687c-.189.034-.5-.532-.755-.824" transform="translate(478.173 -0.001)" fill="#C97A1F"/>
      <path id="Path_7768" data-name="Path 7768" d="M11.646,3.085c-.326.172-.652.481-.979.464-1.116-.069-1.391-.515-.687-1.064a1.459,1.459,0,0,1,1.082-.12c.24.069.395.464.584.721" transform="translate(155.136 37.417)" fill="#C97A1F"/>
      <path id="Path_7769" data-name="Path 7769" d="M13.061,3.337a14.212,14.212,0,0,1-2.112.773c-.172.034-.481-.584-.738-.91a10.492,10.492,0,0,1,2.095-.738c.189-.034.5.567.755.876" transform="translate(165.104 39.775)" fill="#C97A1F"/>
      <path id="Path_7770" data-name="Path 7770" d="M14.952,4.268c-.343.172-.7.515-1.047.5-1.185-.034-1.494-.532-.807-1.116a1.5,1.5,0,0,1,1.168-.12c.275.069.464.481.687.738" transform="translate(205.948 56.081)" fill="#C97A1F"/>
      <path id="Path_7771" data-name="Path 7771" d="M19.083,6.058A12.682,12.682,0,0,1,16.9,6.83c-.24.034-.584-.584-.876-.893a13.613,13.613,0,0,1,2.249-.824c.189-.034.532.6.807.944" transform="translate(259.145 82.656)" fill="#C97A1F"/>
      <path id="Path_7772" data-name="Path 7772" d="M27.972,8.8a8.462,8.462,0,0,1,2.472.069c.515.155.858.893,1.271,1.391-.721.1-1.631.532-2.146.24-.635-.343-.944-1.271-1.374-1.957Z" transform="translate(452.286 138.085)" fill="#C97A1F"/>
      <path id="Path_7773" data-name="Path 7773" d="M13.466,10.181c-.12.24-.258.687-.395.687a3.97,3.97,0,0,1-1.15-.258c.12-.24.24-.687.378-.687a4.209,4.209,0,0,1,1.167.258" transform="translate(192.754 160.43)" fill="#C97A1F"/>
      <path id="Path_7774" data-name="Path 7774" d="M11.129,10.65c-3.142,2.833-3.142,2.833-5.923-.378l-.189.206c1.854-.1,3.709-.189,5.563-.292Z" transform="translate(81.121 164.7)" fill="#C97A1F"/>
      <path id="Path_7775" data-name="Path 7775" d="M7.692,10.358a9.425,9.425,0,0,1-1.82,1.871c-1.013.584-1.8.189-1.889-.807-.017-.172.721-.5,1.133-.584.876-.189,1.786-.258,2.678-.361Z" transform="translate(64.402 167.481)" fill="#C97A1F"/>
      <path id="Path_7776" data-name="Path 7776" d="M8.97,10.686a9.637,9.637,0,0,1-1.8,1.837c-1.013.584-1.734.172-1.683-.807.017-.206.7-.446,1.116-.515.858-.137,1.734-.172,2.593-.24Z" transform="translate(88.637 172.784)" fill="#C97A1F"/>
      <path id="Path_7777" data-name="Path 7777" d="M27.809,12.085c2.644,2.49,2.644,2.49.034,5.322l.258.24c0-1.94-.017-3.863-.017-5.8Z" transform="translate(449.651 191.525)" fill="#C97A1F"/>
      <path id="Path_7778" data-name="Path 7778" d="M28.309,13.206a5.176,5.176,0,0,1-1.219.206c-.12-.017-.326-.7-.309-.721,1.116-.532,1.631-.343,1.528.515" transform="translate(433.012 200.396)" fill="#C97A1F"/>
      <path id="Path_7779" data-name="Path 7779" d="M27.978,12.71a2.952,2.952,0,0,1,2.541,2.678c.034.635-.738,1.356-1.15,2.026-.292-.326-.79-.618-.841-.979-.206-1.3-.24-2.627-.343-3.932Z" transform="translate(452.383 202.18)" fill="#C97A1F"/>
      <path id="Path_7780" data-name="Path 7780" d="M4.018,31.99c-.584.652-1.047,1.528-1.768,1.871-.6.292-1.494-.052-2.249-.12a5.879,5.879,0,0,1,1.562-1.185A13.265,13.265,0,0,1,4.189,32.2Z" transform="translate(0 517.254)" fill="#C97A1F"/>
      <path id="Path_7781" data-name="Path 7781" d="M19.055,36.184c-.412.155-.858.481-1.253.429-.395-.034-.738-.429-1.116-.67a3.483,3.483,0,0,1,1.271-.429c.378.034.738.429,1.1.67" transform="translate(269.8 574.2)" fill="#C97A1F"/>
      <path id="Path_7782" data-name="Path 7782" d="M7.31,37.014c-.361-.12-.927-.12-1.064-.361-.378-.7.12-1.116,1.219-.944.326.051.6.481.91.738l-1.064.567" transform="translate(98.967 576.769)" fill="#C97A1F"/>
      <path id="Path_7783" data-name="Path 7783" d="M8.956,36.776a11.227,11.227,0,0,1-.1,2.644c-.155.584-.79,1.03-1.219,1.528-.137-.755-.584-1.648-.326-2.232.326-.721,1.236-1.167,1.889-1.734Z" transform="translate(116.894 594.64)" fill="#C97A1F"/>
      <path id="Path_7784" data-name="Path 7784" d="M15.7,37.123c-.155.79-.292,1.6-.481,2.386a6.525,6.525,0,0,1-.446,1.082c-.412-.378-.979-.67-1.168-1.116a12.221,12.221,0,0,1-.567-2.369l-.258.275c1.047,0,2.112-.017,3.176-.017Z" transform="translate(206.627 599.976)" fill="#C97A1F"/>
      <path id="Path_7785" data-name="Path 7785" d="M12.948,40.1c-1.271-.086-2.541-.12-3.794-.309-.343-.052-.618-.549-.927-.841.687-.412,1.391-1.185,2.06-1.15a2.566,2.566,0,0,1,2.455,2.49Z" transform="translate(133.008 611.18)" fill="#C97A1F"/>
      <path id="Path_7786" data-name="Path 7786" d="M21.335,40.565c-.12.378-.12.944-.378,1.082-.7.395-1.15-.1-1-1.236.052-.326.5-.6.773-.893.189.343.395.7.6,1.047" transform="translate(322.273 638.976)" fill="#C97A1F"/>
      <path id="Path_7787" data-name="Path 7787" d="M31.826,3.642c-.429-.378-.841-.755-1.271-1.116.223.1.532.172.652.343a4.9,4.9,0,0,1,.378,1.03Z" transform="translate(494.051 40.843)" fill="#C97A1F"/>
      <path id="Path_7788" data-name="Path 7788" d="M30.615,2.849c.464.361.927.7,1.391,1.064-.223-.1-.532-.155-.652-.326a4.908,4.908,0,0,1-.5-1Z" transform="translate(495.022 41.894)" fill="#C97A1F"/>
      <path id="Path_7789" data-name="Path 7789" d="M12.289,3.212c.532.412,1.064.824,1.6,1.219-.326-.034-.79.034-.961-.155a4.345,4.345,0,0,1-.515-1.185Z" transform="translate(198.704 49.995)" fill="#C97A1F"/>
      <path id="Path_7790" data-name="Path 7790" d="M21.424,11.405l.275.79-.755-.12Z" transform="translate(338.631 184.412)" fill="#C97A1F"/>
      <path id="Path_7791" data-name="Path 7791" d="M28.084,13.093,29.32,11.6c-.1.292-.137.7-.326.841a4.612,4.612,0,0,1-1.185.412Z" transform="translate(449.651 187.547)" fill="#C97A1F"/>
      <path id="Path_7792" data-name="Path 7792" d="M28.764,14.642a10.469,10.469,0,0,1-1-1.889c-.052-.172.652-.567,1-.841l-.275-.24v3.211Z" transform="translate(448.953 188.727)" fill="#C97A1F"/>
      <path id="Path_7793" data-name="Path 7793" d="M28.853,12.168c-.017,1.03-.017,2.06-.034,3.073l.24-.223c-1.185-.395-1.614-1.064-1.1-1.854.223-.361.755-.515,1.15-.755Z" transform="translate(448.624 196.747)" fill="#C97A1F"/>
      <path id="Path_7794" data-name="Path 7794" d="M27.808,12.574c.979.961,1.94,1.923,2.919,2.884l.206-.206c-.961-.961-1.923-1.94-2.884-2.919Z" transform="translate(449.634 199.431)" fill="#C97A1F"/>
      <path id="Path_7795" data-name="Path 7795" d="M29.74,14.438l-1.511-1.356c.292.086.738.1.858.309a4.357,4.357,0,0,1,.412,1.288Z" transform="translate(456.442 211.526)" fill="#C97A1F"/>
      <path id="Path_7796" data-name="Path 7796" d="M18.9,13.739l-.927.326.1-.841Z" transform="translate(290.641 213.814)" fill="#C97A1F"/>
      <path id="Path_7797" data-name="Path 7797" d="M28.3,13.4c.429.378.858.755,1.3,1.133-.223-.12-.532-.172-.652-.361a4.048,4.048,0,0,1-.412-1.013Z" transform="translate(457.654 212.787)" fill="#C97A1F"/>
      <path id="Path_7798" data-name="Path 7798" d="M28.8,14.045c.481.378.944.773,1.425,1.15-.258-.1-.6-.12-.738-.292a5.6,5.6,0,0,1-.481-1.082Z" transform="translate(465.674 223.491)" fill="#C97A1F"/>
      <path id="Path_7799" data-name="Path 7799" d="M11.389,17.886,14.2,15.019,14,14.813l-2.867,2.816Z" transform="translate(179.98 239.515)" fill="#C97A1F"/>
      <path id="Path_7800" data-name="Path 7800" d="M12.744,14.976l-1.133,2.112c-1.717-2.249.876-1.271,1.391-1.854Z" transform="translate(178.367 242.151)" fill="#C97A1F"/>
      <path id="Path_7801" data-name="Path 7801" d="M3.7,17.4l-.824.738c-.206-.292-.687-.721-.6-.876.515-1.064,1.047-1,1.425.137" transform="translate(36.581 266.823)" fill="#C97A1F"/>
      <path id="Path_7802" data-name="Path 7802" d="M24.049,16.629c-.395.721-.773,1.459-1.168,2.181-1.82-2.318.858-1.356,1.408-1.94Z" transform="translate(359.872 268.878)" fill="#C97A1F"/>
      <path id="Path_7803" data-name="Path 7803" d="M29.7,16.961c-.5.481-.979.961-1.477,1.442.1-.326.137-.807.361-.944a4.4,4.4,0,0,1,1.3-.292Z" transform="translate(456.329 274.247)" fill="#C97A1F"/>
      <path id="Path_7804" data-name="Path 7804" d="M2.354,17.949c-.395.5-.807,1-1.2,1.494.1-.258.12-.618.309-.755a5.162,5.162,0,0,1,1.133-.5Z" transform="translate(18.627 290.222)" fill="#C97A1F"/>
      <path id="Path_7805" data-name="Path 7805" d="M30.119,18.355l1.374,1.065c-.206-.12-.464-.189-.584-.361a7.493,7.493,0,0,1-.549-.944Z" transform="translate(487.002 292.906)" fill="#C97A1F"/>
      <path id="Path_7806" data-name="Path 7806" d="M3.33,18.276A2.567,2.567,0,0,1,5.836,21.4l.172-.189c-1.768.1-2.9-.618-3.142-2.472Z" transform="translate(46.341 295.509)" fill="#C97A1F"/>
      <path id="Path_7807" data-name="Path 7807" d="M6.147,21.3c-.979-.944-1.957-1.906-2.936-2.85l-.172.189c1.6.326,2.352,1.494,2.867,2.919Z" transform="translate(49.138 298.29)" fill="#C97A1F"/>
      <path id="Path_7808" data-name="Path 7808" d="M25.989,23.727l1.974.979c-.361.395-.721.807-1.082,1.2-.412-.618-.807-1.236-1.219-1.854Z" transform="translate(414.951 383.648)" fill="#C97A1F"/>
      <path id="Path_7809" data-name="Path 7809" d="M6.029,28.283l-2.9-2.9-.258.258a3.732,3.732,0,0,1,2.919,2.884Z" transform="translate(46.406 410.392)" fill="#C97A1F"/>
      <path id="Path_7810" data-name="Path 7810" d="M13.819,26.5l-.309-.876.824.12Z" transform="translate(218.438 414.276)" fill="#C97A1F"/>
      <path id="Path_7811" data-name="Path 7811" d="M26.406,28.742l.309.841-.824-.1Z" transform="translate(418.641 464.733)" fill="#C97A1F"/>
      <path id="Path_7812" data-name="Path 7812" d="M30.017,30.5c-.378.326-.807.893-.961.824-1.2-.532-1.185-1.168.069-1.6.189-.069.584.5.893.773" transform="translate(455.477 480.625)" fill="#C97A1F"/>
      <path id="Path_7813" data-name="Path 7813" d="M20.122,31.159l-.343-.91.876.1Z" transform="translate(319.805 489.105)" fill="#C97A1F"/>
      <path id="Path_7814" data-name="Path 7814" d="M16.918,31.162c-.361.67-.721,1.339-1.064,1.992-1.511-2.06.687-1.3,1.322-1.734Z" transform="translate(247.934 503.866)" fill="#C97A1F"/>
      <path id="Path_7815" data-name="Path 7815" d="M10.595,32.316c-.412.515-.807,1.047-1.185,1.562.086-.275.086-.652.292-.79a4.014,4.014,0,0,1,1.133-.515Z" transform="translate(152.153 522.525)" fill="#C97A1F"/>
      <path id="Path_7816" data-name="Path 7816" d="M16.308,35.292c-.429.515-.858,1.047-1.288,1.562.069-.309.052-.755.258-.893a4.636,4.636,0,0,1,1.236-.481Z" transform="translate(242.862 570.645)" fill="#C97A1F"/>
      <path id="Path_7817" data-name="Path 7817" d="M18.026,36.873c-.258-.292-.5-.6-.755-.893.309-.24.635-.67.927-.635.275.017.515.532.755.824l-.927.7" transform="translate(279.259 571.468)" fill="#C97A1F"/>
      <path id="Path_7818" data-name="Path 7818" d="M7.546,36.329,8.4,36.02l-.086.79Z" transform="translate(122.008 582.41)" fill="#C97A1F"/>
      <path id="Path_7819" data-name="Path 7819" d="M10.437,40.62a3.138,3.138,0,0,1-2.369-3.348l-.24.24a3.257,3.257,0,0,1,3.348,2.369Z" transform="translate(126.557 602.66)" fill="#C97A1F"/>
      <path id="Path_7820" data-name="Path 7820" d="M8.717,37.424c1.047.378,2.507,1.03,1.425,2.129-1.1,1.116-1.786-.326-2.163-1.391Z" transform="translate(129.014 605.118)" fill="#C97A1F"/>
      <path id="Path_7821" data-name="Path 7821" d="M8.489,38.123l1.2,1.15c-.24-.1-.567-.155-.687-.343a3.743,3.743,0,0,1-.309-1Z" transform="translate(137.261 613.364)" fill="#C97A1F"/>
      <path id="Path_7822" data-name="Path 7822" d="M20.12,38l.258.876-.755-.12Z" transform="translate(317.271 614.375)" fill="#C97A1F"/>
      <path id="Path_7823" data-name="Path 7823" d="M20.263,40.887c-.24-.292-.687-.6-.67-.858.034-.275.515-.5.807-.738.24.292.481.584.721.858-.275.258-.567.5-.858.738" transform="translate(316.804 635.29)" fill="#C97A1F"/>
      <path id="Path_7824" data-name="Path 7824" d="M20.876,41.067l-.429-.91,1.013.086Z" transform="translate(330.609 649.309)" fill="#C97A1F"/>
    </g>
  </g>
</svg>
