<svg xmlns="http://www.w3.org/2000/svg" xmlns:xlink="http://www.w3.org/1999/xlink" width="467" height="753" viewBox="0 0 467 753">
  <defs>
    <clipPath id="clip-path">
      <rect id="Rectangle_230" data-name="Rectangle 230" width="467" height="753" transform="translate(1453 1350)" fill="#fff" stroke="#707070" stroke-width="1"/>
    </clipPath>
    <clipPath id="clip-path-2">
      <path id="Path_1046" data-name="Path 1046" d="M0,0H791.366V329.852l-215.7.194L0,329.852Z" fill="#55c0c2"/>
    </clipPath>
  </defs>
  <g id="Mask_Group_62" data-name="Mask Group 62" transform="translate(-1453 -1350)" clip-path="url(#clip-path)">
    <g id="Group_69" data-name="Group 69" transform="translate(1216.558 1809.556) rotate(-37)">
      <g id="Mask_Group_1" data-name="Mask Group 1" transform="translate(0 218.13) rotate(-16)" clip-path="url(#clip-path-2)">
        <path id="Path_590" data-name="Path 590" d="M.67,139.788A33.457,33.457,0,0,1,4.5,137.532c1.823-.779,3.886-2.781,5.386.574,4.156-.139,8.26,1.132,12.483.09C32.208,135.76,42.08,133.431,52,131.43c3.233-.656,5.9-4.692,9.693-2.034,3.466-1.255,7.059-1.493,10.668-1.895,5.739-.64,11.448-1.7,17.119-2.879a10.015,10.015,0,0,0,4.734-2.658c2.086-2.059,4.164-3.043,6.872-1.895,7.81-2.8,16.437-1.419,24-5.668,1.523-.853,3.5-.878,5.281-1.017,1.583-.115,2.671.943,3.286,2.535-.308.517-2.333-.074-.855,1.591.233-.591.458-1.173.69-1.764,5.124,2.207,5.079,2.174,7.134-.976,1.058-1.624.93-2.69-.735-3.642-.465-.262-.645-1.132-.96-1.714a5.541,5.541,0,0,1,.945-.541,3.832,3.832,0,0,1,1.05-.189c2.888-.2,5.206,3.133,8.185,1.854,4.561-1.96,9.062-4.118,13.511-6.365,1.906-.968,3.458-2.83,5.822-2.526l-.143-.139c.8,1.124,1.613,1.837,2.408-.008l-.143.156a70.167,70.167,0,0,1,6.017-4.183c2.551-1.419,4.261.115,5.049,4.241-.705.074-1.4.156-2.108.213-1.125.082-1.38.5-.638,1.107a1,1,0,0,0,.99-.041,15.754,15.754,0,0,0,1.583-1.5c6.429-.123,11.343-4.774,17.112-6.833,2.5-.894,4.6-1.641,4.929-5.184.233-2.461,2.318-3.831,4.239-5.02,4.666-2.9,9.362-5.75,13.984-8.736,6.2-3.995,12.5-7.817,18.455-12.206,10.968-8.088,21.3-17.037,29.543-28.553,1.328-1.846,3.076-3.084,1.868-6.013-.3-.714,1.23-2.625,2.236-3.617,4.254-4.233,8.162-8.834,12.9-12.558,4.351-3.412,8-7.9,12.063-11.771a3.476,3.476,0,0,1,2.956-.919c1.553.525,1.5,2.428,1.763,3.945a2.869,2.869,0,0,0-.833.4c-.135.123-.1.459-.143.705l.825-1.271C305,3.329,306.629,2.7,308.31,2.32c.39-.09,1.4.861,1.35,1.05-1.35,4.585-1.2,10.13-6.369,12.345l.2.189a39.092,39.092,0,0,0-.968-4.544,2.381,2.381,0,0,0-1.59-1.4c-2.206-.287-4.119.894-5.829,2.157a3.822,3.822,0,0,0-1.185,4.159c.293,1.255.923,3.585-1.665,2.28-1.658-.828-2.678-2.313-4.014.763-5.656,13.091-9.5,19.243-16.947,28.143-1.215,1.444-2.431,3.355-3.976,3.9-6.8,2.4-10.923,8.875-16.812,12.632-2.116,1.345-3.849,3.519-5.574,5.5-1.463,1.682-2.333,4.446-4.059,5.332-7.584,3.863-12.588,11.385-19.648,15.921-4.336,2.8-8.552,5.832-13,8.383-2.176,1.247-4.764,1.616-7.164,2.387l.135.148c-.765-1.165-1.553-1.05-2.356-.041l.09-.082c-1.193.582-2.393,1.157-3.586,1.739-.488.451-.96.919-1.41,1.4a3.63,3.63,0,0,0-3.788,1.7l.068-.066c-1.605.6-3.5.6-4.5,2.494l.225-.18c-1.665.558-3.563.632-4.591,2.567l.218-.18c-4.1-.139-7.832,1.542-11.47,3.2a391.057,391.057,0,0,1-51,19.416c-11.1,3.289-22.266,6.324-33.429,9.392a1.885,1.885,0,0,1-1.748-.771,2.559,2.559,0,0,1,.368-2.141c3.5-3.937,6.722-8.014,12.476-8.506,3.031-.254,5.919-2.51,8.852-3.921.27-.131.383-.648.57-.984a3.094,3.094,0,0,0-.953-.484c-3.691-.492-6.969,1.394-10.428,2.256-4.539,1.132-9.047,3.593-13.519,3.462a41.8,41.8,0,0,0-9.445.509c-4.959.976-10.023,1.476-14.914,2.748-8.777,2.3-17.825,2.879-26.572,4.971-9.2,2.2-18.65,1.386-27.765,3.8-.78.213-2.483-.492-2.566-.993-.158-1.034.488-2.223.8-3.338Zm115.583-16.619c-.638.082-1.275.18-1.913.246-1.035.09-1.26.476-.578,1.042a.922.922,0,0,0,.915-.066,13.8,13.8,0,0,0,1.38-1.419,5.419,5.419,0,0,0,.728-.476,1.626,1.626,0,0,0,.24-.509c-.255.394-.518.787-.773,1.181m6.407-.845c.758-.5,1.62-1.05,2.461-1.624s.938-1.157.263-1.567c-.27-.164-.713-.345-.938-.213a21.773,21.773,0,0,0-2.528,1.731,1.084,1.084,0,0,0-.293.9c.135.279.533.418,1.035.771" transform="translate(414.661 153.059)" fill="#55c0c2"/>
        <path id="Path_591" data-name="Path 591" d="M53.343,66.646c-2.978.509-5.656.2-7.87-2.5-2.393-2.92-5.724-5.192-7.389-8.506-3.158-6.291-8.6-9.294-13.481-13.223-4.021-3.256-8-6.578-11.973-9.9-.128-.107-.1-.64.038-.837.2-.3.653-.73.84-.648,2.656,1.132,5.266,2.387,7.922,3.511.968.41,2.236.91,2.873-.386a12,12,0,0,0,.578-3.363c.2-.238.39-.476.585-.722-.135.3-.263.607-.4.919Q13.162,17.369,1.272,3.757A8.514,8.514,0,0,1,.131,1.772C0,1.493-.049.853.064.787.671.451,1.489-.164,1.962.041,7.873,2.658,16.793,9.679,19.981,15.56c2.288,4.224,5.7,7.071,8.372,10.729,7.029,9.63,16.114,16.766,24.749,24.362,6.377,5.611,9.04,12.968,10.983,21.007.375,1.542-.12,3.486-1.575,3.954a5.359,5.359,0,0,1-4.1-.566c-2.978-1.846-4.539-4.971-5.236-8.6a2.8,2.8,0,0,0,.84-.287c.143-.115.143-.451.21-.681-.293.386-.585.771-.878,1.165m.45-5.52c-.053-.254-.03-.64-.173-.746-.248-.172-.69-.336-.9-.213-.8.459-.705.993.218,1.271.24.066.57-.2.855-.312" transform="translate(181.371 -0.003)" fill="#55c0c2"/>
        <path id="Path_592" data-name="Path 592" d="M52.6,5.127C56.514,1.928,60.67-.5,65.809.328L65.674.173c1.493,2.165,3,2.346,4.524.033l-.075.074a11.23,11.23,0,0,1,6.354,1.009c1.305.607,2.611,1.189,4.1.246,1.778-1.124,4.509-2.9,5.169.213.443,2.133-2.776,2.8-4.959,3.388C76.32,6.349,71.661,7.26,68.78,12.058c-1.26,2.1-3.6,2.485-5.844,2.477-2.213-.008-4.366.115-5.746,2.436-.165.648-2.363-.164-.968,1.6.255-.6.51-1.206.765-1.813.713.074,1.44.1,2.146.23a2.506,2.506,0,0,1,.915.509,1.1,1.1,0,0,1-.008,1.919,26.021,26.021,0,0,1-18.192,5.143,63.507,63.507,0,0,0-14.681.787c-4.839.738-10.038.886-14.539,3.929a16.761,16.761,0,0,1-6.144,1.993C2.53,32.056-.756,30.924.152,29.9,1.57,28.316,3.22,26.5,5.7,27.471c8.815-4.331,17.772-8.342,26.354-13.165A34.462,34.462,0,0,1,40.985,10.5c4.449-.976,7.847-3.757,11.771-5.57a6.7,6.7,0,0,0,1.38,1.485c.78.451,1.343.1,1.32-.673,0-.156-.555-.361-.87-.41-.66-.115-1.328-.139-1.988-.205M51.18,20.917c.09-.828-.338-1-1.26-.492-.022.016.15.664.255.681a3.673,3.673,0,0,0,1.005-.189" transform="translate(549.944 113.923)" fill="#55c0c2"/>
        <path id="Path_593" data-name="Path 593" d="M62.859,2.687C59,9.306,55.357,16.09,51.208,22.48c-3.046,4.7-5.334,10.36-11.11,12.353-1.163.4-1.928,2.248-2.828,3.462-1.808,2.453-3.173,5.578-5.439,7.292C22.3,52.8,14.951,62.738,5.581,70.1a24.03,24.03,0,0,1-3.616,2.526c-.405.205-1.208-.345-1.748-.705-.2-.131-.278-.779-.165-1.091A4.779,4.779,0,0,1,1.035,68.8c5.671-5.012,9.37-11.8,13.774-17.964C18.77,45.3,22.543,39.41,27.33,34.849,31.7,30.69,33.984,25.7,35.747,20.117c.323-1.017,0-2.379,1.4-2.338,1.268.033,1.7,1.28,1.935,2.453.158.763.09,1.583.248,2.346a19.214,19.214,0,0,0,.728,2.165c.188-.336.525-.681.51-1.009-.308-8.227,6.527-9.753,10.87-13.321C54.682,7.756,57.893,5.558,58.935.94c.315-1.386.548-1.3,2.371.656a11.868,11.868,0,0,0,1.748,1.288Z" transform="translate(707.397 16.192)" fill="#55c0c2"/>
        <path id="Path_594" data-name="Path 594" d="M75.652,65.3c-.038,3.133-.008,6.275-.158,9.408-.06,1.222-2.461,2.658-3.428,2.051C66.777,73.449,61.1,70.849,56.394,66.477c-3.008-2.8-5.371-6.447-9.28-8.047-1.133-.459-1.238-1.714-.968-2.953.308-1.4-.713-2.034-1.41-2.863-1.65-1.969-4.629,1.009-5.761-1.509-1.118-2.477-1.838-5.045-4.014-6.808a24.144,24.144,0,0,1-4.734-4.774c-1.808-2.576-3.316-5.143-6.879-3.388-.42.205-1.545-.4-1.86-.951-3.428-6.078-9.482-9.335-13.143-15.429A114.315,114.315,0,0,1,.054,2.029,2.226,2.226,0,0,1,.64.085C1.022-.178,1.9.224,2.455.536A6.968,6.968,0,0,1,5.111,2.472C7.324,6.138,10.677,8.747,13,12.135c9.182,13.37,22.491,22.2,31.876,35.288a10.974,10.974,0,0,0,2.281,2.526c8.65,6.324,16.212,14.084,23.909,21.663a.942.942,0,0,0,.975-.033c.383-.574.953-1.362.833-1.911-.248-1.107-1.043-2.067-1.335-3.174a3.166,3.166,0,0,1,1.59-3.872c.308.271.6.558.885.861.608.673,1.223,1.337,1.83,2.01Z" transform="translate(150.225 34.519)" fill="#55c0c2"/>
        <path id="Path_595" data-name="Path 595" d="M.173,56.56c.1-2.133,1.373-3.568,2.506-5.1,4.284-5.848,9.1-11.221,12.5-17.849a18.275,18.275,0,0,1,5.176-5.955,20.11,20.11,0,0,0,8.072-13.469c.15-1.132.39-2.264,1.928-2.026,3.721.591,5.184-2.165,5.574-5.356C36.3,3.727,37.472,1.677,39.873.249A2.273,2.273,0,0,1,43.144,2c.008,1.952.255,4.118-.413,5.807-1.973,4.987-3.106,10.639-7.509,14.035C32.6,23.865,33.046,27.556,31.088,30c-4.516,5.635-8.762,11.525-13.181,17.258a15.038,15.038,0,0,1-2.536,2.157c-2.341,1.944-5.747-.213-7.96,2.608-1.643,2.108-3.623,3.9-6.324,4.265-.36.049-.728.066-1.088.1Z" transform="translate(680.983 181.493)" fill="#55c0c2"/>
        <path id="Path_596" data-name="Path 596" d="M37.864,20.528a2.805,2.805,0,0,1-1.065.189c-11.013-2.321-11.013-2.321-21.621,1.69a20.285,20.285,0,0,1-2.093.558c-1.313.336-2.476-1.042-2.251-2.707.2-1.542.443-3.068.668-4.6,4.231,2.19,5.274,2.059,7.945-1.1a1.41,1.41,0,0,0,.2-1.05c-.068-.3-.458-.771-.638-.738-2.641.517-5.386.763-7.359,3.133-3.008-.312-5.626,1.009-8.335,2.174a3.06,3.06,0,0,1-2.978-.451c-1.013-1.239.5-1.575,1.208-2.207,5.124-4.552,11.681-5.84,17.427-8.982C23.1,4.18,27.872,3.327,31.885.521,33.663-.717,35.336.546,37,1.268c1.56.681,2.386,1.55,1.35,3.4a5.164,5.164,0,0,0-.465,1.075c-1.38,4.626-1.38,4.626,3.016,5.684,2.423.574,2.626.943,1.41,2.69-1.53,2.2-3.076,4.388-4.614,6.579Zm-6.677-7.161c1.388-.763,1.785-1.5-.038-2.2a3.447,3.447,0,0,0-.315-.869c-.1-.139-.375-.131-.57-.2.36.3.72.582,1.08.878.008.861.015,1.731.03,2.592-1.043.287-1.275.591-.653.746.082.016.308-.623.465-.952" transform="translate(604.093 76.867)" fill="#55c0c2"/>
        <path id="Path_597" data-name="Path 597" d="M45.3,41.647a9.079,9.079,0,0,1-1.455,1.206c-.225.115-.72-.131-.975-.369-3.548-3.322-7.082-6.529-11.493-8.637-2.528-1.2-4.5-3.847-6.632-5.955-7.187-7.128-14.374-14.264-21.478-21.5A29.043,29.043,0,0,1,.048,1.79C-.079,1.585.071,1.06.221.765.378.445.686.027.956,0c.293-.033.638.312.938.525C4.624,2.447,7.4,4.292,10.063,6.318a36.448,36.448,0,0,0,9.655,5.192c3.578,1.321,4.314,5.931,7.735,7.891a23.443,23.443,0,0,1,9.82,10.565c1.38,2.953,4.6,4.84,6.879,7.325A4.75,4.75,0,0,1,45.3,41.647" transform="translate(73.816 186.522)" fill="#55c0c2"/>
        <path id="Path_598" data-name="Path 598" d="M27.5,35.042C21.921,25.461,13.437,19.457,5.012,13.461.811,10.475.984,5.619,0,1.231-.044,1.042,1.854-.189,2.626.025A7.808,7.808,0,0,1,7.8,4.019a13.764,13.764,0,0,0,4.081,5.406c1.425,1.05,2.416,1.353,3.2-.853a.751.751,0,0,1,1.478.09c.007,6.185,6.1,7.358,8.155,11.968,1.973,4.429,5.957,6.677,10,8.6a8.8,8.8,0,0,1,2.536,2.19c.728.82,1.208,2.444-.083,2.551-2.933.254-3.773,4.9-7.157,3.749l.2.2c-.615-.664-1.23-1.337-1.838-2.01-.285-.3-.578-.591-.885-.861" transform="translate(195.853 62.09)" fill="#55c0c2"/>
        <path id="Path_599" data-name="Path 599" d="M63.8,0c-.21.705-.225,1.739-.675,2.075-4.7,3.494-9.49,7.03-14.936,8.744-7.795,2.444-15.769,4.249-23.714,6.054-2.018.459-4.239-.115-6.362-.213l.15.18c-.885-.632-1.748-1.78-2.648-1.821a30.287,30.287,0,0,0-7.509.468c-2.738.566-5.364,2.42-8.1.107,2.288-1.05,4.5-2.666,6.887-3.051,13.549-2.215,26.6-7.169,40.338-8.5C52.859,3.494,58.373,1.5,63.939.164Z" transform="translate(514.829 171.235)" fill="#55c0c2"/>
        <path id="Path_600" data-name="Path 600" d="M0,.18C1.043.279,2.281.016,3.083.55A25.263,25.263,0,0,1,7.172,4.241c8.972,9.31,18.072,18.456,28.087,26.445a12.164,12.164,0,0,1,1.921,2.773c-.69.2-2.056-.139-.953,1.46.278-.533.548-1.066.825-1.6,3.008.2,5.146,2.19,7.172,4.315a2.367,2.367,0,0,1,.6,1.887c-.2.591-.945,1.05-1.538,1.378-1.62.869-3.218.64-5.026.345-3.488-.574-6.227-3.675-9.933-3.232l.18.189c-1.463-3.74-4.621-5.9-7.2-8.408a12.882,12.882,0,0,1-4.051-6.4c-1.11-4.274-4.329-7.021-7.112-9.966C6.317,9.376,2.386,5.463.165,0Z" transform="translate(82.154 206.965)" fill="#55c0c2"/>
        <path id="Path_601" data-name="Path 601" d="M23.894,21.5c-1.125-2.321-3.413-2.74-5.3-3.765a18.631,18.631,0,0,1-6.767-5.529C10.045,9.72,8,6.021,3.954,8.621c-.623.4-1.17-.008-1.47-.984Q1.313,3.822.135,0L0,.213C4.7-.2,7.187,5,11.8,5.537c3.991.459,6.459,4.758,9.52,7.505A71.1,71.1,0,0,0,39.01,24.2c7.6,3.568,15.131,7.276,22.146,12.115.248.172.555.738.48.853-.188.3-.63.689-.87.623-4.824-1.452-10.023-1.206-14.569-3.978-4.389-2.674-9.16-4.462-13.3-7.768C30.345,24,27.037,23.107,24.074,21.7Z" transform="translate(138.824 242.589)" fill="#55c0c2"/>
        <path id="Path_602" data-name="Path 602" d="M.173,17.383c1.838-3.9,5.687-4.552,8.785-6.291C17.937,6.031,27.975,4.324,37.465.863c2.453-.894,5.146,1.05,7.224.443C46.64.74,48.155-.974,50.241.748l-.18-.164c-.105,1.55-.007,3.626-1.523,4.069C32.476,9.361,16.924,16.489,0,17.194Z" transform="translate(537.29 158.773)" fill="#55c0c2"/>
        <path id="Path_603" data-name="Path 603" d="M33.542.164c1.1.4,2.07,1.321,1.83,2.469-.788,3.831-2.153,7.473-5.416,9.6-2.821,1.846-5.2,3.732-5.671,7.76-.218,1.813-2.356,1.239-3.683,1.567-.007-.878-.015-1.764-.015-2.641.255-.271.51-.533.765-.8-.188.336-.375.673-.555,1.009-1.185.746-1.973,1.5,0,2.248-1.478,2.8-3.248,4.634-6.579,5.127-4.419.656-9.01-.287-13.286,1.649-.188.082-.63-.312-.825-.582a1.031,1.031,0,0,1-.03-.845,1.861,1.861,0,0,1,.683-.869c4.434-2.362,9.2-4.282,11.118-9.983,5.581-4.192,11-8.7,17.427-11.32C31.411,3.691,33.159,2.551,33.774,0Z" transform="translate(638.604 180.815)" fill="#55c0c2"/>
        <path id="Path_604" data-name="Path 604" d="M46.523,44.709c-3.893-.541-7.187-2.649-10.383-4.913a5.575,5.575,0,0,1-2.693-4.536l-.128.164c1.118-.878,1.988-1.764-.023-2.617l.18.205c-.75-1.846-1.7-3.634-3.668-3.945-5.311-.845-8.875-4.544-12.5-8.424a110.1,110.1,0,0,0-10.638-9.95C3.657,8.24,2.029,4.787.049,1.555A1.041,1.041,0,0,1,.206.637C.8.341,1.692-.192,2.037.071,3.515,1.161,4.828,2.523,6.223,3.754c3.623,3.2,6.954,6.98,10.968,9.425,6.047,3.675,10.488,9.359,15.957,13.7,3.038,2.4,3.653,7.03,6.579,9.1,3.263,2.3,5.109,5.348,6.6,8.949Z" transform="translate(109.832 166.948)" fill="#55c0c2"/>
        <path id="Path_605" data-name="Path 605" d="M8.04,1.847C8.858,1.2,9.706-.048,10.486,0,16.067.362,21.2,3.34,27.23,2.077,32.407,1,37.951,2,43.33,2.077c1.125.016,1.365.509.69,1.493a2.133,2.133,0,0,1-.728.705c-.66.312-1.433.886-2.018.73-4.306-1.148-8.192,1.649-12.438,1.411A116.8,116.8,0,0,0,17,6.867c-4.261.2-8.53.418-12.791.6a4.177,4.177,0,0,1-2.056-.139A3.564,3.564,0,0,1,.036,3.619,2.923,2.923,0,0,1,2.969.822,38.618,38.618,0,0,1,8.22,1.65c.323,1.14.615,1.378.72.673.015-.107-.585-.312-.9-.476" transform="translate(344.101 290.95)" fill="#55c0c2"/>
        <path id="Path_606" data-name="Path 606" d="M0,.139C5.942-.5,11.028,2.871,16.489,4.454c3.443.993,3.361,1.3,9.955.664a3.762,3.762,0,0,1,2.108.312,3.842,3.842,0,0,1,1.388,1.6,1.131,1.131,0,0,1-.8,1.8c-1.725.369-3.5.566-5.2,1.034-1.215.328-1.981,2.649-1.32,3.863.893,1.657,1.966,3.2,2.821,4.872.105.205-.825,1.435-1.043,1.362-3.383-1.14-7.037-1.837-9.01-5.66l-.173.172c1.838-.878,1.643-1.747,0-2.625l.15.156c-2.011-3.74-5.882-4.946-9.017-5.693C2.573,5.422,1.178,3.306.12,0Z" transform="translate(199.77 266.475)" fill="#55c0c2"/>
        <path id="Path_607" data-name="Path 607" d="M23.633,27.159q-6.56-3.605-13.128-7.21l.18.221C9.634,15.88,7.2,12.648,4.278,9.663c-1.77-1.821-4-3.511-4.269-6.48A10.289,10.289,0,0,1,.782,0,6.87,6.87,0,0,1,2.77.722c.863.664,1.463,1.772,2.363,2.313,3.638,2.165,3.278,9.113,8.9,8.851C16.394,15.962,20.31,18.07,23.58,21c1.005.9,1.448,2.543,2.138,3.839l.165-.148c-.773.853-1.553,1.706-2.326,2.559Z" transform="translate(134.846 148.874)" fill="#55c0c2"/>
        <path id="Path_608" data-name="Path 608" d="M39.9,7.048c-.6,3.338-3.458,3.6-5.6,4.766-.435.238-1.41-.262-1.868-.738-.2-.205.21-1.263.51-1.829.36-.664.945-1.189,1.343-1.837.188-.3.345-1.009.233-1.1-.525-.41-1.283-1.1-1.733-.935-7.142,2.576-14.3,5.143-21.358,7.981a16.467,16.467,0,0,1-9.58.681A10.369,10.369,0,0,1,0,13.266a17.019,17.019,0,0,1,1.793-1.157c1.643-.8,3.256-1.9,4.981-2.248C17.089,7.819,26.962,4.227,36.737.207c1.74-.714,2.528.427,1.89,3.224-.42,1.854-.053,2.969,1.418,3.79Z" transform="translate(590.982 99.886)" fill="#55c0c2"/>
        <path id="Path_609" data-name="Path 609" d="M2.812,26.779a2.621,2.621,0,0,1-.93-.238c-.278-.189-.645-.566-.638-.837.06-1.55.69-3.281.248-4.6C.487,18.109-.9,15.14.8,12.146,2.812,8.594,4.072,4.214,8.664,3.115,9.841,2.828,10.712,1.081,11.784.08a.974.974,0,0,1,.99.156C13.24.769,14,1.548,13.885,2.024c-.435,1.846-.78,3.97-1.853,5.356A44.882,44.882,0,0,0,4.1,25.164c-.143.615-.84,1.083-1.283,1.616" transform="translate(737.676 120.175)" fill="#55c0c2"/>
        <path id="Path_610" data-name="Path 610" d="M44.569,0C40.09,5.66,33.654,7.464,27.63,9.819c-8.462,3.314-17.127,6-25.732,8.859-.518.172-1.26-.484-1.9-.763.263-.632.368-1.616.81-1.846A56.3,56.3,0,0,1,6.744,13.4c10.533-4.085,21.1-8.039,31.591-12.247A13.974,13.974,0,0,1,44.674.139Z" transform="translate(540.621 237.897)" fill="#55c0c2"/>
        <path id="Path_611" data-name="Path 611" d="M26.437,18.071c-.615.18-1.365.7-1.906.5-3.368-1.214-5.8-4.675-9.64-4.823C10.93,9.253,4.373,8.843,1.117,3.249a19.809,19.809,0,0,1-1.11-1.96C-.053,1.141.277.706.5.5c.255-.23.705-.582.878-.484C10.15,5,19.145,9.6,26.422,17.177c.135.139.015.582.015.894" transform="translate(193.836 109.411)" fill="#55c0c2"/>
        <path id="Path_612" data-name="Path 612" d="M24.418,21.031a5.14,5.14,0,0,1-.413.96c-.21.3-.518.746-.78.746a3.259,3.259,0,0,1-2.041-.369Q11.53,13.854,2.017,5.159C1.245,4.454.975,3.117.367,2.149-.181,1.279-.151.631.7.172a1.22,1.22,0,0,1,.99-.107A6.119,6.119,0,0,1,3.48,1.3C9.534,8.03,16.624,13.362,23.451,19.038c.5.41.653,1.312.968,1.993" transform="translate(74.795 162.499)" fill="#55c0c2"/>
        <path id="Path_613" data-name="Path 613" d="M22.033,16.783c-1.748-.189-3.931.287-5.169-.681C10.848,11.418,4.029,7.694,0,.435L.435,0C2.168.254,4.561-.2,5.514.886,10.638,6.669,18,9.745,21.846,17.012Z" transform="translate(177.856 125.825)" fill="#55c0c2"/>
        <path id="Path_614" data-name="Path 614" d="M24.126,24.764c-4.974-.738-7.922-5.061-11.238-8.285C8.155,11.886,4.254,6.283,0,1.107L1.035,0C6.579,3.4,11.673,7.366,15.619,13c2.761,3.945,6.909,6.57,9.085,11.123Z" transform="translate(33.834 232.639)" fill="#55c0c2"/>
        <path id="Path_615" data-name="Path 615" d="M13.919,15.961c.158.73-1.493,1.993-2.3,1.862C8.6,17.306,6.6,15.173,4.736,12.786,5.727,7.848,1.8,5.429.085,1.877A1.5,1.5,0,0,1,.123.794C.475-.092,1.076-.2,1.893.286c5.521,3.322,8.747,8.892,11.9,14.527a3.3,3.3,0,0,1,.128,1.148" transform="translate(98.25 60.673)" fill="#55c0c2"/>
        <path id="Path_616" data-name="Path 616" d="M6.9,11.877c-2.2,1.608-2.6,4.487-3.923,6.71-.563.943-1.088,1.96-2.176,1.575-.428-.148-.78-1.288-.8-1.993C-.172,10.229,2.649,4.06,9.175.213c.54-.32,1.38-.041,2.086-.041L11.1,0c1.56,5.315-2.033,8.4-4.351,12.041Z" transform="translate(763.518 42.675)" fill="#55c0c2"/>
        <path id="Path_617" data-name="Path 617" d="M.015.156C5.386.386,8.155,4.257,10.24,9c.518,1.181-.968,4.167-2.288,4.905a2.3,2.3,0,0,1-2.911-.468A14.774,14.774,0,0,1,.157,0Z" transform="translate(182.335 52.206)" fill="#55c0c2"/>
        <path id="Path_618" data-name="Path 618" d="M15.387.1c-.743,1.616-1.493,3.232-2.236,4.84l.18-.18c-1.74.878-1.973,1.764,0,2.641l-.18-.18c-.593,1.6-1.906,1.887-3.241,2.28a14.985,14.985,0,0,0-7.757,5.069l.233-.156C.676,13.4-.885,11.438.586,9.888,4.577,5.688,8.47,1.029,14.419.012a3.46,3.46,0,0,1,1.05.172Z" transform="translate(669.992 166.408)" fill="#55c0c2"/>
        <path id="Path_619" data-name="Path 619" d="M0,.189a9.019,9.019,0,0,1,7.735,3.5c2.6,3.371,5.777,5.84,8.672,8.744.848.845.69,2.887.99,4.38l.15-.18c-1.035-.09-2.431.254-3.053-.353C9.332,11.279,3.683,6.751.173,0Z" transform="translate(53.857 226.012)" fill="#55c0c2"/>
        <path id="Path_620" data-name="Path 620" d="M10.494,13.169C4.425,12.677,2.43,7.354.051,2.539-.159,2.112.314.989.764.562A1.983,1.983,0,0,1,2.655.1C5.2,1.6,8.071,3.072,8.094,6.8c.015,2.6,1.568,4.347,2.221,6.562Z" transform="translate(158.953 29.448)" fill="#55c0c2"/>
        <path id="Path_621" data-name="Path 621" d="M.09,6.828c.563-.943.915-2.33,1.71-2.764A39.976,39.976,0,0,1,15.049,0c.27-.041.84.345.855.566.045.656.113,1.624-.24,1.96C11.118,6.844,6.039,8.977,0,6.729Z" transform="translate(541.656 221.669)" fill="#55c0c2"/>
        <path id="Path_622" data-name="Path 622" d="M9.16,10.065c-1.65-1.4-3.286-2.83-4.966-4.192C2.5,4.5.668,3.289,0,.886.278.6.548.3.8,0A30.118,30.118,0,0,1,17.78,14.8l.083-.057c-1.5-.041-2.993-.074-4.494-.107l.2.2c-.713-2.494-2.633-3.667-4.509-4.881Z" transform="translate(110.159 206.53)" fill="#55c0c2"/>
        <path id="Path_623" data-name="Path 623" d="M4.314.526C5.994,1.535,7.307.238,8.56.386a6.186,6.186,0,0,1,3.473,2.149,4.483,4.483,0,0,1,.48,3.06c-.053.443-1.065.9-1.7,1.075C6.339,7.859,3.706,4.373.675,1.863-.142,1.19-.247.673.525.238a1.7,1.7,0,0,1,.983-.23C2.543.156,3.564.378,4.314.526" transform="translate(177.466 197.769)" fill="#55c0c2"/>
        <path id="Path_624" data-name="Path 624" d="M13.376,1.323C15.214,1.036,18.717.429,22.228,0c.42-.057.938.8,1.41,1.239-.465.574-.848,1.485-1.418,1.665C15.2,5.154,8.035,4.211.908,3.874.593,3.866.3,3.481,0,3.267c.323-.41.623-1.157.975-1.189,3.571-.287,7.149-.459,12.4-.755" transform="translate(373.372 283.837)" fill="#55c0c2"/>
        <path id="Path_625" data-name="Path 625" d="M.812,0c3.631,1.312,7.569,1.8,10.6,4.684a2.616,2.616,0,0,1,.555,2.01c-.12.632-.72,1.526-1.238,1.632C5.156,9.515,2.057,7.653.024,1.887-.133,1.452.512.681.812,0" transform="translate(265.687 117.368)" fill="#55c0c2"/>
        <path id="Path_626" data-name="Path 626" d="M13.516,10.547c-.33.238-.66.664-.915.623A16.371,16.371,0,0,1,.125,1.7C-.01,1.442-.048.827.072.761c.54-.328,1.4-.935,1.7-.714,3.751,2.822,7.442,5.742,11.1,8.719.4.328.443,1.181.653,1.78" transform="translate(176.449 224.11)" fill="#55c0c2"/>
        <path id="Path_627" data-name="Path 627" d="M17.457,0c-2,4.922-7.1,5.922-10.023,9.392C5,12.271,2.7,11.877,0,11.779l.2.2C4,6.013,10.09,3.609,15.552.238c.54-.328,1.4-.041,2.116-.049Z" transform="translate(691.845 42.708)" fill="#55c0c2"/>
        <path id="Path_628" data-name="Path 628" d="M.832.026c.33.016.75-.107.968.074A16.352,16.352,0,0,1,7.914,11.592c.023.32-.21.91-.428.976-.548.164-1.4.4-1.7.1A22.151,22.151,0,0,1,.015,1.929C-.105,1.4.54.666.832.026" transform="translate(0 143.254)" fill="#55c0c2"/>
        <path id="Path_629" data-name="Path 629" d="M12.113,0C9.12,2.69,6.194,5.471,3.1,8.014c-.908.755-2.3.1-2.768-.976a4.013,4.013,0,0,1,0-3.174A7.817,7.817,0,0,1,5.774.32C7.927.107,10.11.213,12.278.18Z" transform="translate(638.381 180.75)" fill="#55c0c2"/>
        <path id="Path_630" data-name="Path 630" d="M3.2,6.422c-1-1.641-2-3.281-2.978-4.938A3.843,3.843,0,0,1,0,.475C.653.319,1.665-.2,1.9.081c3.916,4.593,9.43,7.481,12,13.485l.2-.205a6.988,6.988,0,0,1-6.422-2.748A46.126,46.126,0,0,0,3.031,6.258Z" transform="translate(57.345 203.045)" fill="#55c0c2"/>
        <path id="Path_631" data-name="Path 631" d="M9.663,6.648C7.682,8.813,5.027,7.69,2.739,8.346c-2.453.7-3.173.008-2.5-2.8.338-1.394-.218-3.019-.1-4.5C.173.635,1.561-.1,1.666.012c2.348,2.682,6.654,2.559,8,6.628Z" transform="translate(122.657 228.944)" fill="#55c0c2"/>
        <path id="Path_632" data-name="Path 632" d="M2.161.148C5.169,2.01,8.755,2.74,11.238,5.6a2.122,2.122,0,0,1,.188,1.837c-.323.55-1.32,1.271-1.628,1.091C6.512,6.6,2.513,6,.075,2.469L0,2.559,2.318,0Z" transform="translate(158.404 173.564)" fill="#55c0c2"/>
        <path id="Path_633" data-name="Path 633" d="M12.521,11.168C6.819,10.725,4.058,5.689.488,1.94-.263,1.153-.135.488.788.152A1.29,1.29,0,0,1,1.763.07C6.137,2.875,10.2,6.058,12.371,11.348Z" transform="translate(143.828 112.434)" fill="#55c0c2"/>
        <path id="Path_634" data-name="Path 634" d="M4.329,0C5.626,7.079,5.724,13.83,0,19l.18.2C1.065,13.255,1.913,7.317,2.9,1.4,2.978.9,3.931.574,4.479.164Z" transform="translate(757.217 116.474)" fill="#55c0c2"/>
        <path id="Path_635" data-name="Path 635" d="M7.481,7C5.756,8.252,4.053,9.531,2.3,10.737,1.712,11.131.039,9.728,0,8.949-.081,7.177,2.987,6.907,1.66,4.388c-.653-1.222-.57-2.9-.825-4.38L.842,0A4.524,4.524,0,0,1,5.561,3.265C6.033,4.634,6.738,5.9,7.339,7.21Z" transform="translate(131.485 235.584)" fill="#55c0c2"/>
        <path id="Path_636" data-name="Path 636" d="M0,5.111A32.513,32.513,0,0,1,1.058,1.059C1.268.534,2.3-.139,2.678.025,4.524.837,4.966,2.9,5.334,4.7c.375,1.87-1.68,4.618-3.413,5.241-.9.32-1.35.041-1.463-1.025C.338,7.768.187,6.636,0,5.111" transform="translate(774.629 67.356)" fill="#55c0c2"/>
        <path id="Path_637" data-name="Path 637" d="M.18,2.543C.188,1.7.188.845.2,0L.015.2C2.063.673,4.1,1.214,6.159,1.616,9.9,2.346,9.9,2.3,10.893,7.309l.173-.18C8.3,5.611,5.574,4.4,2.491,6.423,2.138,6.644.975,5.389.2,4.823L0,5.012c2.056-.869,1.733-1.747.015-2.641Z" transform="translate(169.244 42.626)" fill="#55c0c2"/>
        <path id="Path_638" data-name="Path 638" d="M15.311,1.8c-.8.722-1.575,2.026-2.4,2.075-3.976.221-7.96.107-11.943.082C.645,3.953.323,3.649,0,3.477c.33-.394.645-1.124.99-1.148A25.03,25.03,0,0,0,10.518.27c1.966-.96,3.353.886,4.936,1.714Z" transform="translate(404.355 281.306)" fill="#55c0c2"/>
        <path id="Path_639" data-name="Path 639" d="M1.1,6.8C.717,6.2-.108,5.461.012,5.035A7.035,7.035,0,0,1,8.241.2a2.32,2.32,0,0,1,.78,1.829C6.906,4.994,3.823,6.757,1.1,6.8" transform="translate(683.724 63.396)" fill="#55c0c2"/>
        <path id="Path_640" data-name="Path 640" d="M10.681,9.293C5.67,10.121,2.572,7.086.111,2.927A2.206,2.206,0,0,1,.441.942C1.717.212.111-.509,1.184.491,4.335,3.436,8.978,4.535,10.546,9.44Z" transform="translate(110.805 52.396)" fill="#55c0c2"/>
        <path id="Path_641" data-name="Path 641" d="M.105,6.434c.33-.648.525-1.657,1.013-1.87C4.749,2.948,8.432,1.447,12.138.045c.525-.2,1.283.312,1.935.492a6.2,6.2,0,0,1-1.08,1.772C9.115,5.343,5.019,7.657,0,6.295Z" transform="translate(585.19 231.602)" fill="#55c0c2"/>
        <path id="Path_642" data-name="Path 642" d="M.2,12.829C.338,7.235,3.166,3.33,6.984.082a.842.842,0,0,1,.848.082c.255.205.593.771.518.9C5.874,5.192,5.154,10.836,0,12.632Z" transform="translate(770.256 6.247)" fill="#55c0c2"/>
        <path id="Path_643" data-name="Path 643" d="M3.16,0c.09,4.347,3.608,6.546,5.176,9.958.113.254.06.869-.068.927-.593.3-1.5.837-1.838.582a39.539,39.539,0,0,1-5-4.4C-.913,4.561-.441,3.043,3.333.164Z" transform="translate(57.216 209.303)" fill="#55c0c2"/>
        <path id="Path_644" data-name="Path 644" d="M7.206,1.2a33.691,33.691,0,0,1-5.139,11.3c-.173.23-.773.4-.938.262C.665,12.367-.063,11.728,0,11.3.665,6.9,2.863,3.361,5.616.187A.794.794,0,0,1,6.4.055a4.87,4.87,0,0,1,.8,1.148" transform="translate(741.279 162.591)" fill="#55c0c2"/>
        <path id="Path_645" data-name="Path 645" d="M.173,2.518C3.121-1.411,6.362-.049,9.61,1.936c.593.361,1.583.861,1.59,1.321.03,1.55-1.305.935-2.086,1.173C5.739,5.488,2.9,3.773,0,2.305Z" transform="translate(397.926 292.707)" fill="#55c0c2"/>
        <path id="Path_646" data-name="Path 646" d="M4.854,2.3c-.713,2.51-.3,5.578-2.963,7.12-.308.172-.72.451-.983.353S.428,9.211.316,8.85C-.675,5.872.863,3.609,2.2,1.336,2.731.434,3.586-.509,4.674.319c.33.246.135,1.3.18,1.985" transform="translate(750.893 143.691)" fill="#55c0c2"/>
        <path id="Path_647" data-name="Path 647" d="M.143,3.727C.87,2.964,1.5,1.741,2.348,1.528a14.591,14.591,0,0,1,5.326-.394c2.146.254,4.741-3.2,6.452.837C12.5,5.162,9.685,3.111,7.479,3.6,5.086,4.12,2.506,3.6,0,3.546Z" transform="translate(419.667 279.564)" fill="#55c0c2"/>
        <path id="Path_648" data-name="Path 648" d="M9.639,6.691c-.143.32-.2.755-.435.943-1.155.96.488,1.476-.705.615C5.678,6.215,2.97,3.984.247,1.786A1.24,1.24,0,0,1,.037.744c.1-.312.578-.8.728-.738,2.881,1.2,6.017,1.9,8.162,4.6a6.888,6.888,0,0,1,.713,2.083" transform="translate(224.924 71.993)" fill="#55c0c2"/>
        <path id="Path_649" data-name="Path 649" d="M3.046,8.185A30.359,30.359,0,0,1,1.4,5.536C.63,3.985-.915,2.517.728.573A1.464,1.464,0,0,1,1.553.015C3.271-.173,4.464,1.385,5.071,4.74a3.357,3.357,0,0,1-.293,2.092c-.315.566-1.043.845-1.733,1.353" transform="translate(228.232 109.716)" fill="#55c0c2"/>
        <path id="Path_650" data-name="Path 650" d="M1,0C3.771.451,5.024,3.084,6.772,4.971a2.813,2.813,0,0,1,.158,2.092c-.263,1.017-.893.993-1.733.427C3.006,6,1.025,4.331.065,1.6A1.221,1.221,0,0,1,.132.648,3.065,3.065,0,0,1,1,0" transform="translate(155.361 95.656)" fill="#55c0c2"/>
        <path id="Path_651" data-name="Path 651" d="M2.171,5.219c-.72-.131-1.785-.008-1.988-.41-.668-1.337.66-1.468,1.32-2A42.1,42.1,0,0,1,4.819.117C5.224-.146,6.424.084,6.484.322c.248.993.578,2.289.2,3.1-.923,1.985-2.918,1.526-4.516,1.8" transform="translate(530.25 227.732)" fill="#55c0c2"/>
        <path id="Path_652" data-name="Path 652" d="M1.424,4.257C1.184,3.535.914,2.83.719,2.092.314.566-.4,2.453.284,1.058c.24-.476.908-1.14,1.208-1.05a41.119,41.119,0,0,1,5,1.936C8.948,3.06,10.194,5,9.143,5.865c-1.463,1.206-2.618.123-3.894-.4C3.937,4.922,2.579,4.5,1.244,4.036Z" transform="translate(144.106 229.071)" fill="#55c0c2"/>
        <path id="Path_653" data-name="Path 653" d="M0,3.83A17.782,17.782,0,0,1,1.14.836,1.505,1.505,0,0,1,3.758.7c2.063,2.4,1.155,6.431-1.553,7.5-.765.3-1.335.082-1.568-.886C.368,6.225.225,5.1,0,3.83" transform="translate(68.733 81.162)" fill="#55c0c2"/>
        <path id="Path_654" data-name="Path 654" d="M10.893.033C8.215,4.347,5.544,6.086,0,7.112l.18.2Q1.26,4.848,2.326,2.387l-.21.18C3.939,2.338,5.979,2.576,6.707,0L6.482.18h4.546Z" transform="translate(593.892 261.685)" fill="#55c0c2"/>
        <path id="Path_655" data-name="Path 655" d="M3.706,1.957A10.078,10.078,0,0,1,3.519,4.27c-.405,1.1-1.148,2.1-2.378,1.517A2.4,2.4,0,0,1,0,4,7.091,7.091,0,0,1,.84.833,1.96,1.96,0,0,1,2.678.046c.488.205.69,1.239,1.028,1.911" transform="translate(781.846 55.023)" fill="#55c0c2"/>
        <path id="Path_656" data-name="Path 656" d="M5.6,1.225c-.053,2.289-1.5,3.191-3.2,3.765-.57.189-1.425.435-1.778.139C-.407,4.26,0,3.21.719,2.283,1.6,1.151,2.422-.211,4,.027c.57.082,1.065.779,1.6,1.2" transform="translate(696.828 152.604)" fill="#55c0c2"/>
        <path id="Path_657" data-name="Path 657" d="M0,.189c1.3.656,2.6,1.3,3.879,1.96,1.35.7,2.423,1.657,2.273,3.486-.022.287-.465.591-.765.779C3.834,7.4,2.753,6.373,1.7,5.324A6.074,6.074,0,0,1,.143,0Z" transform="translate(252.043 109.297)" fill="#55c0c2"/>
        <path id="Path_658" data-name="Path 658" d="M9.527.009c-1.6,4.036-5.559,2.461-8.2,4.044C1.11,4.184.458,3.438,0,3.1a9.4,9.4,0,0,1,.683-.878C3.308-.45,6.5-.1,9.685.206Z" transform="translate(518.993 259.289)" fill="#55c0c2"/>
        <path id="Path_659" data-name="Path 659" d="M.921,0C3.006.443,4.912,3.215,4.972,5.972a1.55,1.55,0,0,1-.465.96.68.68,0,0,1-.735-.041Q1.9,4.146.118,1.337A.981.981,0,0,1,.073.509,2.576,2.576,0,0,1,.921,0" transform="translate(92.239 67.25)" fill="#55c0c2"/>
        <path id="Path_660" data-name="Path 660" d="M6.994,5.485c-.285.246-.615.746-.84.7C3.558,5.543,1.743,3.673.2,1.433a2.283,2.283,0,0,1-.2-.9C.648.326,1.555-.2,1.908.08,3.633,1.458,5.216,3.041,6.822,4.591c.165.164.12.591.173.894" transform="translate(113.6 264.763)" fill="#55c0c2"/>
        <path id="Path_661" data-name="Path 661" d="M1.068,0A6.219,6.219,0,0,1,5.494,5.906c-.045.984-.818,1.206-1.515.8C2,5.594.258,4.2,0,1.575-.05,1.091.693.525,1.068,0" transform="translate(241.77 118.024)" fill="#55c0c2"/>
        <path id="Path_662" data-name="Path 662" d="M5.128.066c.443,3.47-2.146,5.488-3.338,8.17a1.018,1.018,0,0,1-.93.336c-.84-.246-1.028-.853-.72-1.69C1.189,4.085,1.752.869,5.06,0Z" transform="translate(728.226 161.744)" fill="#55c0c2"/>
        <path id="Path_663" data-name="Path 663" d="M.873.066c1.785,1.116,3.6,2.165,5.311,3.4a2.5,2.5,0,0,1,.188,1.764C4.264,6.127,2.351,4.864.693,3.913-.808,3.051.535,1.321.948,0Z" transform="translate(127.066 221.262)" fill="#55c0c2"/>
        <path id="Path_664" data-name="Path 664" d="M5.363,6.677C3.127,6.34,1.634,4.708.246,3.01-.1,2.6,0,1.648.066.976.186-.173,1.732-.337,2.692.64c1.575,1.6,2.941,3.306,2.821,5.873Z" transform="translate(33.25 181.39)" fill="#55c0c2"/>
        <path id="Path_665" data-name="Path 665" d="M.128,4.481C2.033,1.249,5.026.364,8.252,0a1.4,1.4,0,0,1,.923.509.848.848,0,0,1-.09.763A11.914,11.914,0,0,1,0,4.317Z" transform="translate(576.495 228.823)" fill="#55c0c2"/>
        <path id="Path_666" data-name="Path 666" d="M.2,6.653A21.058,21.058,0,0,1,1.4,2.306,4.053,4.053,0,0,1,4.861,0C6.407-.057,5.807,2.9,3.8,4.479A22.45,22.45,0,0,1,0,6.464Z" transform="translate(739.73 14.703)" fill="#55c0c2"/>
        <path id="Path_667" data-name="Path 667" d="M6.527,0C6.017,5.873,5.469,6.472,0,7.136l.2.18C1.613,4.118,3.623,1.55,6.729.189Z" transform="translate(733.211 21.168)" fill="#55c0c2"/>
        <path id="Path_668" data-name="Path 668" d="M4.808,1.124a7.459,7.459,0,0,1-3.7,3.847.889.889,0,0,1-.788-.328,1.338,1.338,0,0,1-.308-.96A4.694,4.694,0,0,1,3.593.017a1.178,1.178,0,0,1,.9.3c.18.156.21.525.315.8" transform="translate(603.353 217.177)" fill="#55c0c2"/>
        <path id="Path_669" data-name="Path 669" d="M.143,3.631C.2,1.818,1.313.916,2.626.21c.3-.156.78-.3,1.013-.148C5,.94,5.176,5.468,3.826,6.469c-.308.23-1.208-.156-1.635-.533A26.452,26.452,0,0,1,0,3.459Z" transform="translate(720.21 39.192)" fill="#55c0c2"/>
        <path id="Path_670" data-name="Path 670" d="M9.407,0C7.209,3.7,3.818,2.157.825,2.289.555,2.3.278,1.854,0,1.616.39,1.206.765.476,1.178.451,3.976.3,6.774.287,9.573.23Z" transform="translate(516.907 194.965)" fill="#55c0c2"/>
        <path id="Path_671" data-name="Path 671" d="M0,.205c1.02.107,2.191-.1,3.031.377C4.524,1.419,6.047,2.5,6.024,4.733c0,.3-.27.837-.5.886-2.086.517-2.9-1.288-3.841-2.7A26.139,26.139,0,0,1,.188,0Z" transform="translate(145.313 135.504)" fill="#55c0c2"/>
        <path id="Path_672" data-name="Path 672" d="M4.279,0c.533.525.9.73,1.005,1.05a1.394,1.394,0,0,1-.143,1.066,6.144,6.144,0,0,1-4.411,2.4c-.21.033-.608-.451-.7-.771a1.283,1.283,0,0,1,.2-1.058C1.6,1.706,3.019.82,4.279,0" transform="translate(614.197 203.34)" fill="#55c0c2"/>
        <path id="Path_673" data-name="Path 673" d="M1.994,6.539A51.012,51.012,0,0,1,.013,1.61C-.107,1.224.621.2,1.116.035a1.9,1.9,0,0,1,1.7.705c1.508,2.19,1.035,4.085-1,5.578Z" transform="translate(184.91 100.616)" fill="#55c0c2"/>
        <path id="Path_674" data-name="Path 674" d="M1.017,5.006C.679,4.489.094,4,.042,3.431-.131,1.782.177.2,2.022,0c.413-.049,1.268.845,1.3,1.345a3.688,3.688,0,0,1-2.3,3.658" transform="translate(239.346 100.698)" fill="#55c0c2"/>
        <path id="Path_675" data-name="Path 675" d="M4.984,6.814C2.366,5.895.873,3.811.01,1.1-.065.9.3.448.543.268A1.172,1.172,0,0,1,1.5.038,6.474,6.474,0,0,1,5.411,6.379Z" transform="translate(172.872 119.454)" fill="#55c0c2"/>
        <path id="Path_676" data-name="Path 676" d="M0,.189C2.146.312,4.306.328,6.437.623A2.123,2.123,0,0,1,7.772,2.182c-.135,1.583-1.283,1.28-2.266.952C3.548,2.477,1.028,2.9.165,0Z" transform="translate(197.571 240.26)" fill="#55c0c2"/>
        <path id="Path_677" data-name="Path 677" d="M3.572.058C4.412.182,5.8.346,7.166.616c.3.057.548.459.818.705-.315.18-.615.492-.938.509-2.086.148-4.179.254-6.272.287-.263.008-.8-.607-.773-.673C.256.953.534.264.954.116A9.495,9.495,0,0,1,3.572.058" transform="translate(292.605 299.924)" fill="#55c0c2"/>
        <path id="Path_678" data-name="Path 678" d="M2.037,6.244C0,5.276-.206,3.373.132,1.372A2.02,2.02,0,0,1,1.512,0,1.733,1.733,0,0,1,3.418,2.135a27.276,27.276,0,0,1-1.56,4.331Z" transform="translate(228.31 281.632)" fill="#55c0c2"/>
        <path id="Path_679" data-name="Path 679" d="M.882,3.095c-.3-.246-.645-.41-.773-.689A1.329,1.329,0,0,1,.094,1.389,2.773,2.773,0,0,1,3.688.224c.248.082.63.459.608.64a1.367,1.367,0,0,1-.563.91c-.938.5-1.913.894-2.851,1.321" transform="translate(472.739 254.924)" fill="#55c0c2"/>
        <path id="Path_680" data-name="Path 680" d="M4.351.558c-.075.3-.06.763-.24.894C3,2.264,1.883,3.207.42,2.65a1.093,1.093,0,0,1-.413-.9A2.121,2.121,0,0,1,2.348,0a7.96,7.96,0,0,1,2,.558" transform="translate(178.727 186.007)" fill="#55c0c2"/>
        <path id="Path_681" data-name="Path 681" d="M0,.2C1.718.279,3.556.041,4.749,1.8c.323.476.593,1.567.375,1.8a1.874,1.874,0,0,1-1.77.509A5.2,5.2,0,0,1,.173,0Z" transform="translate(217.212 154.55)" fill="#55c0c2"/>
        <path id="Path_682" data-name="Path 682" d="M0,.18C3.6-.566,5.379,1.673,6.527,4.946l.2-.205C3.653,4.61.968,3.855.15,0Z" transform="translate(156.198 123.594)" fill="#55c0c2"/>
        <path id="Path_683" data-name="Path 683" d="M3.747,0C3.185,1.739,2.7,3.511,2.015,5.192,1.857,5.561.987,5.57.439,5.75.3,5.077-.169,4.044.064,3.79A52.514,52.514,0,0,1,3.943.189Z" transform="translate(729.464 28.296)" fill="#55c0c2"/>
        <path id="Path_684" data-name="Path 684" d="M0,.172C1.755.008,3.406.246,4.539,1.919a7.4,7.4,0,0,1,.638,1.788c-.593.139-1.47.607-1.718.353C2.266,2.813,1.245,1.37.165,0Z" transform="translate(77.795 130.771)" fill="#55c0c2"/>
        <path id="Path_685" data-name="Path 685" d="M6.932,0C5.611,2.3,3.586,2.625,1.4,2.215.878,2.124.458,1.444,0,1.042.27.787.533.336.81.328c2.1-.09,4.2-.1,6.309-.123Z" transform="translate(565.137 216.488)" fill="#55c0c2"/>
        <path id="Path_686" data-name="Path 686" d="M.967,4.382c-.345-.541-1.08-1.3-.953-1.575A9.1,9.1,0,0,1,1.808.33c.608-.623,1.35-.336,1.41.632A3.547,3.547,0,0,1,.967,4.382" transform="translate(788.141 41.705)" fill="#55c0c2"/>
        <path id="Path_687" data-name="Path 687" d="M.165,2.506C1.62-.349,4.126-.07,6.519.094c.5.033.953.779,1.425,1.189-.278.23-.54.632-.825.656C4.749,2.1,2.371,2.178,0,2.276Z" transform="translate(526.315 192.689)" fill="#55c0c2"/>
        <path id="Path_688" data-name="Path 688" d="M3.1,3.938c-.248.574-.42,1.189-.533,1.181-.51-.066-1.245-.139-1.448-.509A10.221,10.221,0,0,1,.007,1.5C-.075,1.042.562-.032.78,0A2.27,2.27,0,0,1,2.415.977,14.071,14.071,0,0,1,3.1,3.938" transform="translate(203.153 45.644)" fill="#55c0c2"/>
        <path id="Path_689" data-name="Path 689" d="M.165,4.126A14.928,14.928,0,0,1,.9,1,2.123,2.123,0,0,1,2.558,0,1.752,1.752,0,0,1,3.8,1.23a2.369,2.369,0,0,1-.93,1.788A13.028,13.028,0,0,1,0,3.945Z" transform="translate(650.502 176.804)" fill="#55c0c2"/>
        <path id="Path_690" data-name="Path 690" d="M2.822,3.741C1.577,4.323.789,3.544.279,2.486A4.635,4.635,0,0,1,0,.485C.009.312.542-.016.827,0,2.537.074,3.2,1.4,3.535,2.97c.045.2-.428.64-.713.771" transform="translate(255.868 76.559)" fill="#55c0c2"/>
        <path id="Path_691" data-name="Path 691" d="M6.692,4.8C3.248,5.266,1.493,3,.188,0L0,.23C3.166.189,6,.689,6.534,4.979Z" transform="translate(199.702 142.607)" fill="#55c0c2"/>
        <path id="Path_692" data-name="Path 692" d="M3.47,3.158c-.33.361-.75.812-1.163,1.263C1.58,3.618.807,2.847.139,1.977A1.48,1.48,0,0,1,.087.837c.368-1.009.93-1.058,1.7-.4.84.705,1.8,1.255,1.688,2.723" transform="translate(78.369 248.782)" fill="#55c0c2"/>
        <path id="Path_693" data-name="Path 693" d="M0,.164a7.46,7.46,0,0,1,2.026.32c1.178.541,1.185,1.591.465,2.559A6.218,6.218,0,0,1,.908,4.183,9,9,0,0,1,.1,2.239,10.222,10.222,0,0,1,.158,0Z" transform="translate(770.263 54.552)" fill="#55c0c2"/>
        <path id="Path_694" data-name="Path 694" d="M2.118.115a9.751,9.751,0,0,1,.735,2.026c.083.582.023,1.55-.3,1.772-1.005.7-1.981.1-2.356-.943C-.418,1.239.467.312,2.005,0Z" transform="translate(206.482 59.343)" fill="#55c0c2"/>
        <path id="Path_695" data-name="Path 695" d="M4.914,0A2.914,2.914,0,0,1,1.808,2.182,5.548,5.548,0,0,1,0,1.444C.345,1.058.66.369,1.043.32a38.171,38.171,0,0,1,4-.156Z" transform="translate(571.581 233.14)" fill="#55c0c2"/>
        <path id="Path_696" data-name="Path 696" d="M3.357,0c-.075,1.5-.293,2.953-1.53,3.888a1.188,1.188,0,0,1-.953.18C-.042,3.814-.222,3.224.258,2.4A3.747,3.747,0,0,1,3.522.172Z" transform="translate(677.633 237.881)" fill="#55c0c2"/>
        <path id="Path_697" data-name="Path 697" d="M1.381,0A2.545,2.545,0,0,1,3.219,2.313a1.116,1.116,0,0,1-.488.869c-1.118.533-1.7-.451-2.318-1.165-.6-.7-.533-1.378.113-1.8A2.656,2.656,0,0,1,1.381,0" transform="translate(54.644 240.932)" fill="#55c0c2"/>
        <path id="Path_698" data-name="Path 698" d="M.728,0C1.38.812,2.011,1.6,2.648,2.387c-.27.221-.533.632-.8.632C.653,3.027.008,2.28,0,1-.007.722.39.443.728,0" transform="translate(137.233 74.796)" fill="#55c0c2"/>
        <path id="Path_699" data-name="Path 699" d="M3.383,3.544A7.452,7.452,0,0,1,1.41,3.338,5.615,5.615,0,0,1,0,2.231C.683,1.485,1.365.746,2.048,0a6.336,6.336,0,0,1,.99,1.575A10.279,10.279,0,0,1,3.2,3.74Z" transform="translate(209.575 243.82)" fill="#55c0c2"/>
        <path id="Path_700" data-name="Path 700" d="M2.527,1.977c-.57.246-1.17.763-1.7.689C-.107,2.535-.264,1.8.426,1.124A11.257,11.257,0,0,1,2.062,0c.158.664.315,1.321.465,1.977" transform="translate(512.348 244.172)" fill="#55c0c2"/>
        <path id="Path_701" data-name="Path 701" d="M4.2,4.252a10.387,10.387,0,0,1-3.113-.533A2.037,2.037,0,0,1,.32.8C1.235-.793,2.188.355,2.8,1.143A16.834,16.834,0,0,1,4.311,4.12Z" transform="translate(223.891 79.018)" fill="#55c0c2"/>
        <path id="Path_702" data-name="Path 702" d="M.113,0A10.893,10.893,0,0,1,3.061.73a1.916,1.916,0,0,1,.7,2.813C2.851,4.9,1.921,3.913,1.35,3.1A16.294,16.294,0,0,1,0,.131Z" transform="translate(228.089 83.138)" fill="#55c0c2"/>
        <path id="Path_703" data-name="Path 703" d="M3.979.964c-.45.435-.833,1.083-1.358,1.263A1.923,1.923,0,0,1,0,1.357C-.057,1.234.746.332,1.249.168c1.343-.435,2.611.025,2.731.8" transform="translate(492.568 249.943)" fill="#55c0c2"/>
        <path id="Path_704" data-name="Path 704" d="M4.636.953c-.885.517-1.5,1.2-2.018,1.116A10.524,10.524,0,0,1,0,.921C.578.593,1.17-.039,1.718,0A12.423,12.423,0,0,1,4.636.953" transform="translate(238.037 254.785)" fill="#55c0c2"/>
        <path id="Path_705" data-name="Path 705" d="M.158,1.881A3.054,3.054,0,0,1,3.488.019c.51.041.99.517,1.485.8a4,4,0,0,1-.945.377C2.686,1.38,1.343,1.528,0,1.684Z" transform="translate(528.513 257.614)" fill="#55c0c2"/>
        <path id="Path_706" data-name="Path 706" d="M3.477,4.243C1.8,4.3.9,3.16.191,1.725A1.072,1.072,0,0,1,.949.027,1.289,1.289,0,0,1,1.969.3,3.731,3.731,0,0,1,3.387,4.35Z" transform="translate(133.239 102.724)" fill="#55c0c2"/>
        <path id="Path_707" data-name="Path 707" d="M3.954,3.682A3.306,3.306,0,0,1,.271,2.09,1.687,1.687,0,0,1,.023.991C.286-.034.841-.239,1.576.261c1.23.837,2.393,1.7,2.258,3.56Z" transform="translate(195.935 262.793)" fill="#55c0c2"/>
        <path id="Path_708" data-name="Path 708" d="M.555,4.856A15.514,15.514,0,0,1,0,1.8C.008,1.2.585.6.9,0c.248.18.563.3.72.541A3.418,3.418,0,0,1,1.478,4.5c-.12.172-.443.18-.923.361" transform="translate(237.009 114.866)" fill="#55c0c2"/>
        <path id="Path_709" data-name="Path 709" d="M3.811.774c-.03.271.037.673-.105.8a2.4,2.4,0,0,1-2.971.336C-.292,1.34-.232.709.848.274a2.464,2.464,0,0,1,2.963.5" transform="translate(582.144 114.231)" fill="#55c0c2"/>
        <path id="Path_710" data-name="Path 710" d="M2.919,0a18.023,18.023,0,0,1-.705,3.347c-.15.377-1.163.656-1.643.5-.72-.254-.773-1.173-.083-1.8A22.51,22.51,0,0,1,3.122.213Z" transform="translate(159.79 130.722)" fill="#55c0c2"/>
        <path id="Path_711" data-name="Path 711" d="M3.538,3.456a7.411,7.411,0,0,1-2.056-.139C.9,3.12.05,2.611,0,2.16A2.48,2.48,0,0,1,.965.372c1.1-.861,1.845-.107,2.2,1.042a10.846,10.846,0,0,1,.2,2.231Z" transform="translate(194.198 236.804)" fill="#55c0c2"/>
        <path id="Path_712" data-name="Path 712" d="M0,.2a12.831,12.831,0,0,1,3.023.8,2.182,2.182,0,0,1,.63,1.813c-.158.82-.885.771-1.515-.066C1.47,1.837.84.91.188,0Z" transform="translate(175.771 137.916)" fill="#55c0c2"/>
        <path id="Path_713" data-name="Path 713" d="M2.618.861c-.068,1.28-.69,2.026-1.845,2.083C.525,2.961.255,2.518,0,2.289.668,1.526,1.343.763,2.011,0c.21.287.413.582.608.861" transform="translate(155.335 141.459)" fill="#55c0c2"/>
        <path id="Path_714" data-name="Path 714" d="M1.582,2.649C1.042,2.379.247,2.239.044,1.78-.143,1.362.314.607.494,0l1.89,2.067c-.263.2-.533.386-.8.582" transform="translate(281.137 146.676)" fill="#55c0c2"/>
        <path id="Path_715" data-name="Path 715" d="M0,.041A38.056,38.056,0,0,1,4.224.254c.383.057.66.878.99,1.337-.615.279-1.238.8-1.845.771A3.484,3.484,0,0,1,.03,0Z" transform="translate(149.724 323.664)" fill="#55c0c2"/>
        <path id="Path_716" data-name="Path 716" d="M2.507.478A8.2,8.2,0,0,1,1.524,2.2.831.831,0,0,1,.008,1.7,2.011,2.011,0,0,1,.8.052c.428-.205,1.118.254,1.71.427" transform="translate(265.831 315.098)" fill="#55c0c2"/>
        <path id="Path_717" data-name="Path 717" d="M3.871.64a6.44,6.44,0,0,1-1.921.607A6.614,6.614,0,0,1,0,.64,6.305,6.305,0,0,1,1.921,0,6.541,6.541,0,0,1,3.871.64" transform="translate(257.842 314.715)" fill="#55c0c2"/>
        <path id="Path_718" data-name="Path 718" d="M1.4,0c1,.32,1.74.869,1.433,2.174a1.388,1.388,0,0,1-.653.689C1.425,2.264.72,1.591,0,.935L1.4,0" transform="translate(102.687 200.354)" fill="#55c0c2"/>
        <path id="Path_719" data-name="Path 719" d="M3.653.706a5.528,5.528,0,0,1-1.846.73A5.289,5.289,0,0,1,0,.747,5.467,5.467,0,0,1,1.845,0,5.174,5.174,0,0,1,3.653.706" transform="translate(371.062 200.223)" fill="#55c0c2"/>
        <path id="Path_720" data-name="Path 720" d="M2.543.8C2.483,2.042,1.9,2.715.758,2.641.5,2.625.248,2.248,0,2.034.653,1.353,1.305.681,1.958,0c.2.271.39.533.585.8" transform="translate(621.252 213.134)" fill="#55c0c2"/>
        <path id="Path_721" data-name="Path 721" d="M2.726,1.941c-.4.345-.953,1.124-1.223,1.017A1.966,1.966,0,0,1,.055.612a1.071,1.071,0,0,1,.8-.591C2.1-.126,2.794.481,2.726,1.941" transform="translate(72.571 226.326)" fill="#55c0c2"/>
        <path id="Path_722" data-name="Path 722" d="M.931,1.57c-.225.074-.608.262-.623.213a1.649,1.649,0,0,1-.3-.919C.219-.177.646-.284,1.021.578c.105.254-.053.656-.09.993" transform="translate(187.338 37.085)" fill="#55c0c2"/>
        <path id="Path_723" data-name="Path 723" d="M.157,1.8C.533,1.209.8.389,1.32.094c.45-.254,1.185.082,1.8.156-.353.394-.638.984-1.058,1.132A8.145,8.145,0,0,1,0,1.6Z" transform="translate(685.379 36.298)" fill="#55c0c2"/>
        <path id="Path_724" data-name="Path 724" d="M.218,1.649A14.88,14.88,0,0,1,1.568.189a.892.892,0,0,1,.9-.107c.668.574.435.984-.563,1.107C1.268,1.264.63,1.362,0,1.444Z" transform="translate(711.425 36.375)" fill="#55c0c2"/>
        <path id="Path_725" data-name="Path 725" d="M2.9,0C2.521.574,2.251,1.378,1.74,1.657,1.305,1.895.593,1.534,0,1.435.353,1.034.638.427,1.058.287a7,7,0,0,1,2-.09Z" transform="translate(682.483 37.901)" fill="#55c0c2"/>
        <path id="Path_726" data-name="Path 726" d="M.21,5.086C-.053,2.953.278,1.132,2.341.205L2.116,0C2.258,2.075,2.018,3.945,0,4.9Z" transform="translate(709.302 37.819)" fill="#55c0c2"/>
        <path id="Path_727" data-name="Path 727" d="M2.858,0c-.368.6-.623,1.394-1.133,1.723C1.305,1.985.585,1.69,0,1.632.323,1.222.585.607.99.435A7.706,7.706,0,0,1,3,.172Z" transform="translate(717.352 42.65)" fill="#55c0c2"/>
        <path id="Path_728" data-name="Path 728" d="M.863,0c.3.123.8.172.863.377.2.705-.285,1.091-1.193.919C.323,1.263.173.8,0,.541.285.361.578.18.863,0" transform="translate(760.473 45.628)" fill="#55c0c2"/>
        <path id="Path_729" data-name="Path 729" d="M.188,1.79A7.352,7.352,0,0,1,1.478.239c.75-.5,1.305-.18,1.313.623.008.123-.548.312-.855.386C1.3,1.4.645,1.478,0,1.593Z" transform="translate(670.105 76.714)" fill="#55c0c2"/>
        <path id="Path_730" data-name="Path 730" d="M1.473.787C1.218,1.444.956,2.1.693,2.748c-.24-.262-.735-.582-.69-.771A12.91,12.91,0,0,1,.716,0c.255.262.5.525.758.787" transform="translate(762.001 77.027)" fill="#55c0c2"/>
        <path id="Path_731" data-name="Path 731" d="M2.393.643c-.458.336-.885.894-1.35.935C.728,1.611.345.93,0,.561.24.364.525-.038.728,0a8.846,8.846,0,0,1,1.665.64" transform="translate(660.33 83.677)" fill="#55c0c2"/>
        <path id="Path_732" data-name="Path 732" d="M0,.172C.518.607,1.223.927,1.485,1.5c.218.476-.1,1.247-.173,1.887C.96,2.994.435,2.658.3,2.19A9.964,9.964,0,0,1,.15,0Z" transform="translate(243.303 92.653)" fill="#55c0c2"/>
        <path id="Path_733" data-name="Path 733" d="M1.208,0A6.439,6.439,0,0,1,3.128.664c.458.328.675,1.042,1,1.591-.578.287-1.275.951-1.71.787A10.9,10.9,0,0,1,0,1.337C.405.894.81.451,1.208,0" transform="translate(277.587 92.079)" fill="#55c0c2"/>
        <path id="Path_734" data-name="Path 734" d="M.9,0c.12.328.4.7.338.984-.218,1.1-.7,1.23-1.163.336A1.443,1.443,0,0,1,.131.262C.221.082.634.082.9,0" transform="translate(287.299 93.9)" fill="#55c0c2"/>
        <path id="Path_735" data-name="Path 735" d="M1.555.254c-.03.213.008.558-.1.615a1.035,1.035,0,0,1-.81.164C-.26.623-.208.2.768.008c.24-.049.525.156.788.246" transform="translate(699.72 93.36)" fill="#55c0c2"/>
        <path id="Path_736" data-name="Path 736" d="M.143,1.737C.488,1.171.728.4,1.208.1,1.613-.15,2.3.146,2.858.2c-.315.369-.578.9-.96,1.066a8.015,8.015,0,0,1-1.9.3Z" transform="translate(630.884 105.369)" fill="#55c0c2"/>
        <path id="Path_737" data-name="Path 737" d="M2.933,0C2.521.55,2.2,1.3,1.673,1.591,1.245,1.821.57,1.509,0,1.435.383,1.083.705.558,1.14.418a7.82,7.82,0,0,1,1.966-.2Z" transform="translate(183.79 106.926)" fill="#55c0c2"/>
        <path id="Path_738" data-name="Path 738" d="M4.456,2.272C2.491,2.649.825,2.313,0,0H.008C1.793.09,3.713-.107,4.314,2.461Z" transform="translate(247.73 107.016)" fill="#55c0c2"/>
        <path id="Path_739" data-name="Path 739" d="M.135,1.895C2.551-.623,2.551-.623,4.449,1.846l.075-.074C3.016,1.764,1.508,1.747,0,1.739Z" transform="translate(615.618 112.348)" fill="#55c0c2"/>
        <path id="Path_740" data-name="Path 740" d="M1.361,1.8C1,2.617.453,2.855.146,2.231A3.354,3.354,0,0,1,.086.476C.108.287.513.156.746,0c.2.6.413,1.2.615,1.8" transform="translate(738.122 122.454)" fill="#55c0c2"/>
        <path id="Path_741" data-name="Path 741" d="M0,.008a8,8,0,0,1,2.048.18c.893.3,1.1.968.6,1.559a1.252,1.252,0,0,1-.885.443C.525,2.133,0,1.3.007,0Z" transform="translate(284.752 126.063)" fill="#55c0c2"/>
        <path id="Path_742" data-name="Path 742" d="M.015.2A4.3,4.3,0,0,1,4.344,2.551l.2-.205c-1.515.008-3.031.025-4.546.033l.2.213C.2,1.731.2.861.21,0Z" transform="translate(162.71 128.343)" fill="#55c0c2"/>
        <path id="Path_743" data-name="Path 743" d="M1.436.878c.315.894.06,1.534-.8,1.723C.46,2.641-.042,2.018,0,1.829A11.424,11.424,0,0,1,.8,0c.21.3.428.591.638.878" transform="translate(224.238 129.877)" fill="#55c0c2"/>
        <path id="Path_744" data-name="Path 744" d="M1.841.306c-.03.287.038.738-.105.837a1.136,1.136,0,0,1-.96.2C-.3.831-.252.3.9.011c.278-.066.623.189.938.3" transform="translate(201.109 136.051)" fill="#55c0c2"/>
        <path id="Path_745" data-name="Path 745" d="M.661,0a10.331,10.331,0,0,1,.51,1.8c.022.189-.428.443-.66.664A11.881,11.881,0,0,1,0,.64C-.022.468.428.213.661,0" transform="translate(431.227 136.743)" fill="#55c0c2"/>
        <path id="Path_746" data-name="Path 746" d="M3.916,1.894C2.888,1.862,1.853,1.878.825,1.763.533,1.73.278,1.312,0,1.066.5.689,1.23-.124,1.47.016A13.843,13.843,0,0,1,3.728,2.091Z" transform="translate(135.028 138.31)" fill="#55c0c2"/>
        <path id="Path_747" data-name="Path 747" d="M.2,3.1C.308,2.387.39,1.665.533.96.6.607.773,0,.893,0,1.65.008,1.92.623,1.44,1.452A7.673,7.673,0,0,1,0,2.9Z" transform="translate(724.539 144.461)" fill="#55c0c2"/>
        <path id="Path_748" data-name="Path 748" d="M1.858.969c-.323.115-.675.386-.968.32C-.183,1.035-.3.518.6.059A1.237,1.237,0,0,1,1.618.215c.158.082.165.492.24.755" transform="translate(623.445 148.028)" fill="#55c0c2"/>
        <path id="Path_749" data-name="Path 749" d="M0,.649C.113.419.225.009.345,0a3.233,3.233,0,0,1,.968.246C1.2.477,1.1.9.975.9A3.36,3.36,0,0,1,0,.649" transform="translate(610.757 150.604)" fill="#55c0c2"/>
        <path id="Path_750" data-name="Path 750" d="M1.708.288c-.022.246.03.648-.075.714a1.16,1.16,0,0,1-.893.172C-.28.731-.242.263.831.009c.263-.057.585.18.878.279" transform="translate(272.691 155.28)" fill="#55c0c2"/>
        <path id="Path_751" data-name="Path 751" d="M.18,3.248A9.471,9.471,0,0,1,.353,1.116C.488.673,1.013.361,1.373,0c.06.615.36,1.378.135,1.821C1.23,2.379.525,2.674,0,3.084Z" transform="translate(587.351 156.273)" fill="#55c0c2"/>
        <path id="Path_752" data-name="Path 752" d="M.015.189c1.5.016,2.993.025,4.494.041L4.329.041C3.736,2.707,1.808,2.4,0,2.371l.158.172C.165,1.69.173.845.188,0Z" transform="translate(593.892 156.937)" fill="#55c0c2"/>
        <path id="Path_753" data-name="Path 753" d="M0,3A8.072,8.072,0,0,1,.233.886C.39.484,1,.287,1.4,0c.083.64.39,1.419.173,1.895-.248.533-.983.8-1.508,1.173Z" transform="translate(733.286 158.742)" fill="#55c0c2"/>
        <path id="Path_754" data-name="Path 754" d="M3.526,0A14.225,14.225,0,0,1,1.4,1.985c-.24.148-.923-.566-1.4-.878C.27.91.525.582.818.533,1.77.377,2.746.32,3.706.221Z" transform="translate(141.824 168.823)" fill="#55c0c2"/>
        <path id="Path_755" data-name="Path 755" d="M1.369,0a9.122,9.122,0,0,1-.1,2.182C1.144,2.658.611,3,.266,3.4c-.09-.64-.405-1.4-.2-1.87.27-.574.983-.91,1.5-1.345Z" transform="translate(716.583 168.766)" fill="#55c0c2"/>
        <path id="Path_756" data-name="Path 756" d="M.84,1.071C.563.981.278.9,0,.809a4.152,4.152,0,0,1,.983-.8c.128-.057.435.386.668.6l-.81.468" transform="translate(508.438 188.627)" fill="#55c0c2"/>
        <path id="Path_757" data-name="Path 757" d="M2.671,0c-.33.558-.555,1.329-1.02,1.608-.405.238-1.088-.1-1.65-.18.315-.394.563-1,.945-1.14a6.172,6.172,0,0,1,1.875-.1Z" transform="translate(530.268 187.886)" fill="#55c0c2"/>
        <path id="Path_758" data-name="Path 758" d="M2.348.709c-.435.328-.863.886-1.305.9C.705,1.628.345.947,0,.57.233.373.51-.045.69,0A9.474,9.474,0,0,1,2.348.709" transform="translate(185.583 190.671)" fill="#55c0c2"/>
        <path id="Path_759" data-name="Path 759" d="M.788,0c.27.115.548.23.825.345a8.86,8.86,0,0,1-1.14.746C.413,1.124.165.681,0,.451.263.3.525.156.788,0" transform="translate(198.922 191.036)" fill="#55c0c2"/>
        <path id="Path_760" data-name="Path 760" d="M1.179.7A3.467,3.467,0,0,1,.234.866C.144.857-.014.267,0,.259.864-.2,1.261-.045,1.179.7" transform="translate(399.471 198.217)" fill="#55c0c2"/>
        <path id="Path_761" data-name="Path 761" d="M0,.246C1.5.238,3.008.221,4.509.205L4.329,0l.023,2.625.12-.164C2.783,2.207.93,2.3.18.049Z" transform="translate(138.801 199.747)" fill="#55c0c2"/>
        <path id="Path_762" data-name="Path 762" d="M2.611.83A11.271,11.271,0,0,1,.69,1.519C.51,1.552.233.977,0,.682A10.571,10.571,0,0,1,1.921,0c.18-.033.458.533.69.828" transform="translate(625.476 200.32)" fill="#55c0c2"/>
        <path id="Path_763" data-name="Path 763" d="M1.553.72C1.283.8,1,.99.751.933-.164.728-.247.35.526.039a1.169,1.169,0,0,1,.833.123c.113.057.135.361.2.558" transform="translate(471.04 202.965)" fill="#55c0c2"/>
        <path id="Path_764" data-name="Path 764" d="M1.658.27c-.03.221.008.591-.1.648A1.123,1.123,0,0,1,.7,1.082C-.277.655-.225.212.818.007c.255-.049.555.164.84.262" transform="translate(52.963 207.663)" fill="#55c0c2"/>
        <path id="Path_765" data-name="Path 765" d="M2.6.685c-.48.345-.945.919-1.433.935C.788,1.636.39.955,0,.578.27.373.578-.045.8,0A10.206,10.206,0,0,1,2.6.685" transform="translate(320.521 207.396)" fill="#55c0c2"/>
        <path id="Path_766" data-name="Path 766" d="M1.525,1.563C.73,1.874.159,1.587,0,.677-.036.488.512-.053.685,0A8.724,8.724,0,0,1,2.267.841c-.248.238-.5.484-.743.722" transform="translate(612.143 214.655)" fill="#55c0c2"/>
        <path id="Path_767" data-name="Path 767" d="M.158,1.781C.578,1.191.9.362,1.455.075c.473-.238,1.208.156,1.823.262C2.9.748,2.573,1.363,2.116,1.511A7.878,7.878,0,0,1,0,1.617Z" transform="translate(630.899 214.83)" fill="#55c0c2"/>
        <path id="Path_768" data-name="Path 768" d="M.968,1.342C.668,1.235.2,1.219.106,1.006-.209.3.2-.118,1.111.03c.263.041.473.468.705.722-.285.2-.563.394-.848.591" transform="translate(595.092 224.333)" fill="#55c0c2"/>
        <path id="Path_769" data-name="Path 769" d="M3.053,0c-.443.541-.8,1.28-1.358,1.559-.443.23-1.118-.1-1.7-.18A5.071,5.071,0,0,1,1.245.5,10.6,10.6,0,0,1,3.233.221Z" transform="translate(142.305 233.107)" fill="#55c0c2"/>
        <path id="Path_770" data-name="Path 770" d="M1.674.718c-.263.148-.54.435-.8.41-.93-.082-1.14-.5-.54-.976a1.075,1.075,0,0,1,.9-.1c.188.066.293.435.435.664" transform="translate(527.619 240.977)" fill="#55c0c2"/>
        <path id="Path_771" data-name="Path 771" d="M1.18.74A3.209,3.209,0,0,1,.242.92C.145.912-.02.3,0,.288.857-.22,1.255-.048,1.18.74" transform="translate(286.288 243.416)" fill="#55c0c2"/>
        <path id="Path_772" data-name="Path 772" d="M1.538,0c.233.213.465.418.7.632A7.941,7.941,0,0,1,.668,1.3C.5,1.337.225.878,0,.656.51.435,1.02.213,1.538,0" transform="translate(559.863 255.205)" fill="#55c0c2"/>
        <path id="Path_773" data-name="Path 773" d="M4.411,2.522C2.513,2.719.72,2.678,0,.2L.083.111c1.86-.09,3.984-.722,4.3,2.453Z" transform="translate(145.343 321.15)" fill="#55c0c2"/>
        <path id="Path_774" data-name="Path 774" d="M2.663,1.961A6.138,6.138,0,0,1,.743,1.7C.39,1.534.24.845,0,.394.285.254.563-.008.84,0a1.787,1.787,0,0,1,1.9,1.862Z" transform="translate(142.687 319.39)" fill="#55c0c2"/>
        <path id="Path_775" data-name="Path 775" d="M4.891.648C4.471,3.379,2.618,3.314.735,3.207l-.3-.3A3.353,3.353,0,0,1,0,1.4C.458.91.93.443,1.41,0,2.626.262,3.834.525,5.049.8Z" transform="translate(608.589 256.337)" fill="#55c0c2"/>
        <path id="Path_776" data-name="Path 776" d="M4.539.3C3.623,2.518,1.816,2.5,0,2.477l.135.148L.09.123.023.189C1.425.131,2.836.066,4.239,0Z" transform="translate(604.785 259.241)" fill="#55c0c2"/>
        <path id="Path_777" data-name="Path 777" d="M0,1.549C.4,1.032.72.31,1.223.072c.458-.213,1.125.107,1.7.189-.308.394-.54.968-.93,1.132a6.781,6.781,0,0,1-1.883.3Z" transform="translate(511.161 262.548)" fill="#55c0c2"/>
        <path id="Path_778" data-name="Path 778" d="M1.744.3c-.022.238.015.632-.09.689a1.16,1.16,0,0,1-.908.164C-.289.7-.244.23.859.009c.27-.057.593.18.885.287" transform="translate(96.569 264.744)" fill="#55c0c2"/>
        <path id="Path_779" data-name="Path 779" d="M3.511.153c-.09,1.23-.743,2.01-1.823,2.018C1.125,2.179.563,1.613,0,1.3A5.738,5.738,0,0,1,1.44.128,6.72,6.72,0,0,1,3.4.013Z" transform="translate(507.762 264.083)" fill="#55c0c2"/>
        <path id="Path_780" data-name="Path 780" d="M1.748,0c.255.23.5.459.758.689a10.657,10.657,0,0,1-1.77.632C.525,1.353.248.91,0,.689L1.748,0" transform="translate(496.997 267.049)" fill="#55c0c2"/>
        <path id="Path_781" data-name="Path 781" d="M.848,1.055,0,.784A4.541,4.541,0,0,1,.975.005c.135-.057.435.377.668.582l-.8.468" transform="translate(586.833 272.007)" fill="#55c0c2"/>
        <path id="Path_782" data-name="Path 782" d="M2.948,0c-.42.533-.758,1.263-1.29,1.534C1.23,1.755.563,1.411,0,1.321.4,1.009.758.55,1.2.418a9.015,9.015,0,0,1,1.95-.2Z" transform="translate(390.559 297.366)" fill="#55c0c2"/>
        <path id="Path_783" data-name="Path 783" d="M0,.3C.293.191.615-.055.885.011c.975.221,1.088.7.293,1.116A1.122,1.122,0,0,1,.248,1C.1.921.083.544,0,.3" transform="translate(283.731 298.143)" fill="#55c0c2"/>
        <path id="Path_784" data-name="Path 784" d="M.645,1.6C.428,1.128.21.652,0,.184A8.1,8.1,0,0,1,1.7.012c.233.025.428.509.638.779-.57.271-1.133.541-1.7.8" transform="translate(183.153 297.953)" fill="#55c0c2"/>
        <path id="Path_785" data-name="Path 785" d="M.068.221C1.575.221,3.083.213,4.591.213L4.426,0C3.834,2.781,1.86,2.436,0,2.354l.2.221L.248.025Z" transform="translate(393.508 295.012)" fill="#55c0c2"/>
        <path id="Path_786" data-name="Path 786" d="M2.543.576c-.4.377-.8,1.042-1.118.993C.915,1.5.473.953,0,.609.255.4.533-.031.773,0a9.477,9.477,0,0,1,1.77.574" transform="translate(255.397 290.778)" fill="#55c0c2"/>
        <path id="Path_787" data-name="Path 787" d="M.677,0c.39.55.975,1.017.938,1.419-.045.492-.608.935-.953,1.394-.233-.246-.69-.525-.66-.722A13.39,13.39,0,0,1,.677,0" transform="translate(250.166 288.573)" fill="#55c0c2"/>
        <path id="Path_788" data-name="Path 788" d="M4.381.033C2.963,2.559,1.56,2.124.173,0L0,.221C1.523.23,3.046.23,4.576.238Z" transform="translate(230.175 287.884)" fill="#55c0c2"/>
        <path id="Path_789" data-name="Path 789" d="M1.71,1.911c-.27.238-.608.73-.8.673A1.283,1.283,0,0,1,.134.73c.12-.3.5-.492.75-.73.278.64.555,1.271.825,1.911" transform="translate(250.138 279.829)" fill="#55c0c2"/>
        <path id="Path_790" data-name="Path 790" d="M.188.648,0,0,.555.1Z" transform="translate(773.302 3.162)" fill="#55c0c2"/>
        <path id="Path_791" data-name="Path 791" d="M.187.984C.315.656.45.328.578,0,.383.254.195.517,0,.771Z" transform="translate(776.82 39.476)" fill="#55c0c2"/>
        <path id="Path_792" data-name="Path 792" d="M.158,2.6A2.257,2.257,0,0,1,2.393.213L2.2,0A2.7,2.7,0,0,1,0,2.428Z" transform="translate(774.622 40.247)" fill="#55c0c2"/>
        <path id="Path_793" data-name="Path 793" d="M1.407,2.453C-.266,1.706-.656.943,1.392.172L1.227,0c0,.878-.008,1.755-.015,2.641Z" transform="translate(168.032 44.996)" fill="#55c0c2"/>
        <path id="Path_794" data-name="Path 794" d="M0,.18A3.032,3.032,0,0,1,2.206,2.608l.143-.164A2.608,2.608,0,0,1,.173,0Z" transform="translate(180.144 49.754)" fill="#55c0c2"/>
        <path id="Path_795" data-name="Path 795" d="M.735.484,0,.8.083,0Z" transform="translate(786.368 50.551)" fill="#55c0c2"/>
        <path id="Path_796" data-name="Path 796" d="M.87,0C.578.435.293.869,0,1.3.06,1.083.06.779.2.664A4.126,4.126,0,0,1,1.065.2Z" transform="translate(690.975 54.487)" fill="#55c0c2"/>
        <path id="Path_797" data-name="Path 797" d="M0,1.649.945,0c1.313,1.493-.1,1.444-.84,1.764Z" transform="translate(208.487 57.694)" fill="#55c0c2"/>
        <path id="Path_798" data-name="Path 798" d="M2.333,2.338C1.6,1.558.87.779.135,0L0,.148Q1.069,1.341,2.153,2.535Z" transform="translate(121.352 61.697)" fill="#55c0c2"/>
        <path id="Path_799" data-name="Path 799" d="M.87.509,0,0C.225.238.458.476.69.714Z" transform="translate(216.431 63.526)" fill="#55c0c2"/>
        <path id="Path_800" data-name="Path 800" d="M2.341,2.379A2.974,2.974,0,0,1,.18,0L0,.2A2.966,2.966,0,0,1,2.153,2.584Z" transform="translate(123.505 64.035)" fill="#55c0c2"/>
        <path id="Path_801" data-name="Path 801" d="M0,.205c.315.18.63.361.938.541C.69.5.435.246.18,0Z" transform="translate(217.114 64.035)" fill="#55c0c2"/>
        <path id="Path_802" data-name="Path 802" d="M.2.664,0,0,.54.082Z" transform="translate(252.855 65.246)" fill="#55c0c2"/>
        <path id="Path_803" data-name="Path 803" d="M.623.427,0,.673.082,0Z" transform="translate(760.331 65.035)" fill="#55c0c2"/>
        <path id="Path_804" data-name="Path 804" d="M0,.205c.345.328.683.648,1.02.976A1.787,1.787,0,0,1,.578.828,6.8,6.8,0,0,1,.188,0Z" transform="translate(125.665 66.413)" fill="#55c0c2"/>
        <path id="Path_805" data-name="Path 805" d="M.338,0,.51.623,0,.533Z" transform="translate(250.698 79.257)" fill="#55c0c2"/>
        <path id="Path_806" data-name="Path 806" d="M.81,0,0,1.107A1.9,1.9,0,0,1,.293.64,6.287,6.287,0,0,1,1,.2Z" transform="translate(669.294 78.307)" fill="#55c0c2"/>
        <path id="Path_807" data-name="Path 807" d="M.647,0c.2.254.608.615.555.73-.42.943-.9.9-1.2-.09C-.029.517.422.221.647,0" transform="translate(256.956 88.47)" fill="#55c0c2"/>
        <path id="Path_808" data-name="Path 808" d="M1.635,1.492C1.1,1.205.548.926,0,.639,1.613-.952,1.275.828,1.485,1.664Z" transform="translate(241.826 91.161)" fill="#55c0c2"/>
        <path id="Path_809" data-name="Path 809" d="M1.094,2.567C.307,1.812-.714,1.025.719.016.922-.132,1.762.8,2.3,1.23c-.4.451-.8.894-1.208,1.337" transform="translate(276.486 90.85)" fill="#55c0c2"/>
        <path id="Path_810" data-name="Path 810" d="M0,.164C1.928.878,1.755,1.616.023,2.371l.18.205C.188,1.723.18.861.165,0Z" transform="translate(641.785 97.395)" fill="#55c0c2"/>
        <path id="Path_811" data-name="Path 811" d="M.383,0,.608.705,0,.615Z" transform="translate(610.052 100.552)" fill="#55c0c2"/>
        <path id="Path_812" data-name="Path 812" d="M1.1,0,0,1.173C.1.935.15.591.315.484a3.666,3.666,0,0,1,.96-.279Z" transform="translate(640.712 99.765)" fill="#55c0c2"/>
        <path id="Path_813" data-name="Path 813" d="M1.687,1.773C.809,2.051-.264,1.3.059.854,1.4-1.025,1.514.616,1.687,1.773Z" transform="translate(246.043 105.252)" fill="#55c0c2"/>
        <path id="Path_814" data-name="Path 814" d="M2.221,2.453A2.994,2.994,0,0,1,.09,0L0,.107A2.641,2.641,0,0,1,2.251,2.42Z" transform="translate(136.618 106.967)" fill="#55c0c2"/>
        <path id="Path_815" data-name="Path 815" d="M.03,0C.6.254,1.17.509,1.748.771c-.323.345-.638.689-.96,1.042C.525,1.214.263.623,0,.033Z" transform="translate(138.839 109.387)" fill="#55c0c2"/>
        <path id="Path_816" data-name="Path 816" d="M.36,0l.2.64L0,.55Z" transform="translate(174.398 110.208)" fill="#55c0c2"/>
        <path id="Path_817" data-name="Path 817" d="M.863.574C.578.386.285.2,0,0L.675.787Z" transform="translate(177.249 115.85)" fill="#55c0c2"/>
        <path id="Path_818" data-name="Path 818" d="M.15,1.206C.465.8.788.4,1.1,0,1.043.246,1.05.607.9.722a2.984,2.984,0,0,1-.9.32Z" transform="translate(761.546 115.432)" fill="#55c0c2"/>
        <path id="Path_819" data-name="Path 819" d="M0,.213c.39.32.78.64,1.178.96C.983,1.091.713,1.075.6.919A4.979,4.979,0,0,1,.188,0Z" transform="translate(177.916 116.425)" fill="#55c0c2"/>
        <path id="Path_820" data-name="Path 820" d="M.57.394,0,.623.082,0Z" transform="translate(745.069 117.293)" fill="#55c0c2"/>
        <path id="Path_821" data-name="Path 821" d="M1.043,1.042,0,0C.225.041.548,0,.668.148a3.4,3.4,0,0,1,.368.9Z" transform="translate(283.716 125.021)" fill="#55c0c2"/>
        <path id="Path_822" data-name="Path 822" d="M.345,0l.2.632L0,.55Z" transform="translate(533.83 124.421)" fill="#55c0c2"/>
        <path id="Path_823" data-name="Path 823" d="M1.575,1.441C1.05,1.138.525.826,0,.522,1.575-.856,1.208.842,1.433,1.605Z" transform="translate(74.194 126.927)" fill="#55c0c2"/>
        <path id="Path_824" data-name="Path 824" d="M1.663,1.732c-.885.312-1.935-.451-1.6-.9C1.378-.925,1.573.453,1.633,1.757Z" transform="translate(143.74 126.701)" fill="#55c0c2"/>
        <path id="Path_825" data-name="Path 825" d="M0,.164C1.44.2,2.266.894,2.168,2.576L2.333,2.4A2.28,2.28,0,0,1,.143,0Z" transform="translate(75.627 128.359)" fill="#55c0c2"/>
        <path id="Path_826" data-name="Path 826" d="M1.523,1.355C1.013,1.06.5.764,0,.461,1.545-.819,1.088.9,1.35,1.552Z" transform="translate(137.368 129.367)" fill="#55c0c2"/>
        <path id="Path_827" data-name="Path 827" d="M0,.025c.33.353.668.7,1,1.05C.78,1.017.48,1.042.36.886A3.123,3.123,0,0,1,.023,0Z" transform="translate(145.373 128.433)" fill="#55c0c2"/>
        <path id="Path_828" data-name="Path 828" d="M0,.2.923.64C.668.427.42.213.173,0Z" transform="translate(138.719 130.722)" fill="#55c0c2"/>
        <path id="Path_829" data-name="Path 829" d="M0,.205C.338.566.683.927,1.02,1.288.833,1.181.563,1.124.473.96A4.511,4.511,0,0,1,.2,0Z" transform="translate(167.054 130.689)" fill="#55c0c2"/>
        <path id="Path_830" data-name="Path 830" d="M1.8,1.566,0,.631c1.733-1.657,1.3.386,1.613,1.14Z" transform="translate(143.692 133.937)" fill="#55c0c2"/>
        <path id="Path_831" data-name="Path 831" d="M1.56,1.468C1.043,1.115.518.77,0,.418,1.7-.788,1.163.926,1.365,1.665Z" transform="translate(174.398 136.448)" fill="#55c0c2"/>
        <path id="Path_832" data-name="Path 832" d="M.81,0C.66.353.48,1.009.352,1-.278.943-.061.6.99.2Z" transform="translate(756.408 135.471)" fill="#55c0c2"/>
        <path id="Path_833" data-name="Path 833" d="M.345,0l.2.615L0,.525Z" transform="translate(87.363 138.759)" fill="#55c0c2"/>
        <path id="Path_834" data-name="Path 834" d="M0,.2C.285.541.578.886.87,1.239.72,1.116.51,1.025.428.861A4.506,4.506,0,0,1,.18,0Z" transform="translate(138.764 140.204)" fill="#55c0c2"/>
        <path id="Path_835" data-name="Path 835" d="M0,.221.638,0,.555.632Z" transform="translate(95.957 148.353)" fill="#55c0c2"/>
        <path id="Path_836" data-name="Path 836" d="M0,.221.638,0,.555.623Z" transform="translate(159.129 148.419)" fill="#55c0c2"/>
        <path id="Path_837" data-name="Path 837" d="M0,.18.975.6C.705.4.435.205.158,0Z" transform="translate(206.236 147.406)" fill="#55c0c2"/>
        <path id="Path_838" data-name="Path 838" d="M.878,0,0,1.23C.082,1.025.1.738.248.623A4.7,4.7,0,0,1,1.073.205Z" transform="translate(723.661 147.357)" fill="#55c0c2"/>
        <path id="Path_839" data-name="Path 839" d="M.578.361,0,.533.083,0Z" transform="translate(257.296 150.714)" fill="#55c0c2"/>
        <path id="Path_840" data-name="Path 840" d="M1.643,1.574C1.1,1.262.548.95,0,.63,1.7-.977,1.283.9,1.508,1.721Z" transform="translate(98.081 152.985)" fill="#55c0c2"/>
        <path id="Path_841" data-name="Path 841" d="M.938.435C.623.287.315.148,0,0,.255.213.51.418.765.632Z" transform="translate(216.446 154.116)" fill="#55c0c2"/>
        <path id="Path_842" data-name="Path 842" d="M0,.148,1.073,1.222C.84,1.148.51,1.157.405.993A3.657,3.657,0,0,1,.135,0Z" transform="translate(99.581 154.559)" fill="#55c0c2"/>
        <path id="Path_843" data-name="Path 843" d="M1.2,1C.8.664.4.336,0,0,.21.074.51.074.623.23a4.611,4.611,0,0,1,.39.976Z" transform="translate(170.399 155.879)" fill="#55c0c2"/>
        <path id="Path_844" data-name="Path 844" d="M1.043.861C.7.574.345.287,0,0,.18.074.428.09.525.23a3.559,3.559,0,0,1,.345.82Z" transform="translate(593.037 156.076)" fill="#55c0c2"/>
        <path id="Path_845" data-name="Path 845" d="M.173,1C.308.664.435.328.57,0,.375.271.188.541,0,.812Z" transform="translate(598.228 156.166)" fill="#55c0c2"/>
        <path id="Path_846" data-name="Path 846" d="M0,.205C.36.566.72.919,1.08,1.271c-.2-.1-.465-.139-.57-.312A4.72,4.72,0,0,1,.188,0Z" transform="translate(171.405 156.88)" fill="#55c0c2"/>
        <path id="Path_847" data-name="Path 847" d="M1.125,1.034,0,0C.225.066.563.049.66.213A3.53,3.53,0,0,1,.953,1.222Z" transform="translate(124.728 160.629)" fill="#55c0c2"/>
        <path id="Path_848" data-name="Path 848" d="M1.067,0C1.022,1.034.662,1.452,0,1.206-.013,1.2.062.558.227.451a3.03,3.03,0,0,1,1-.279Z" transform="translate(592.825 159.308)" fill="#55c0c2"/>
        <path id="Path_849" data-name="Path 849" d="M0,.189c.323.164.93.386.915.5C.818,1.419.51,1.181.173,0Z" transform="translate(125.68 161.662)" fill="#55c0c2"/>
        <path id="Path_850" data-name="Path 850" d="M.938.541C.623.361.308.18,0,0,.248.254.5.5.758.746Z" transform="translate(135.793 163.5)" fill="#55c0c2"/>
        <path id="Path_851" data-name="Path 851" d="M0,.205c.33.164.66.328.99.5C.72.468.45.23.18,0Z" transform="translate(136.543 164.041)" fill="#55c0c2"/>
        <path id="Path_852" data-name="Path 852" d="M.083,1.181C.39.787.7.394,1.013,0,.968.246,1,.591.863.714A3.254,3.254,0,0,1,0,1.1Z" transform="translate(685.371 165.411)" fill="#55c0c2"/>
        <path id="Path_853" data-name="Path 853" d="M0,.3.743,0,.683.722Z" transform="translate(132.803 167.421)" fill="#55c0c2"/>
        <path id="Path_854" data-name="Path 854" d="M.143,1.017,1.028,0C.953.205.923.492.78.591A2.694,2.694,0,0,1,0,.853Z" transform="translate(578.633 170.382)" fill="#55c0c2"/>
        <path id="Path_855" data-name="Path 855" d="M0,.18C1.605.935,2.033,1.7,0,2.461l.18.18C.18,1.755.188.878.188,0Z" transform="translate(683.143 171.177)" fill="#55c0c2"/>
        <path id="Path_856" data-name="Path 856" d="M1.035,0,0,1.083C.1.878.15.574.315.476A3.6,3.6,0,0,1,1.208.189Z" transform="translate(536.255 175.959)" fill="#55c0c2"/>
        <path id="Path_857" data-name="Path 857" d="M.57.361,0,.55.075,0Z" transform="translate(144.147 184.119)" fill="#55c0c2"/>
        <path id="Path_858" data-name="Path 858" d="M.36,0,.578.664,0,.591Z" transform="translate(102.579 186.273)" fill="#55c0c2"/>
        <path id="Path_859" data-name="Path 859" d="M2.318,2.354A2.472,2.472,0,0,1,0,.164L.15,0A2.524,2.524,0,0,1,2.168,2.526Z" transform="translate(38.613 187.911)" fill="#55c0c2"/>
        <path id="Path_860" data-name="Path 860" d="M0,.172C.96.131,1.373.492,1.193,1.255c-.008.025-.6,0-.713-.172A3.9,3.9,0,0,1,.15,0Z" transform="translate(40.781 190.265)" fill="#55c0c2"/>
        <path id="Path_861" data-name="Path 861" d="M.173,1.739C.443,1.157.72.582.99,0,2.371,1.813.533,1.189,0,1.55Z" transform="translate(543.817 191.06)" fill="#55c0c2"/>
        <path id="Path_862" data-name="Path 862" d="M.525,0C.353.32.18.648,0,.968.233.705.465.451.7.189Z" transform="translate(543.292 192.611)" fill="#55c0c2"/>
        <path id="Path_863" data-name="Path 863" d="M0,.238.66,0,.593.632Z" transform="translate(115.474 196.008)" fill="#55c0c2"/>
        <path id="Path_864" data-name="Path 864" d="M1.028.984C.683.656.345.328,0,0,.173.107.39.164.488.32a4.766,4.766,0,0,1,.36.861Z" transform="translate(137.953 198.812)" fill="#55c0c2"/>
        <path id="Path_865" data-name="Path 865" d="M1.163,1.165C.773.779.39.386,0,0,.24.082.6.09.713.279A3.925,3.925,0,0,1,1,1.345Z" transform="translate(81.156 205.8)" fill="#55c0c2"/>
        <path id="Path_866" data-name="Path 866" d="M1.212,2.192C.785,1.691-.07.846,0,.732,1.04-.86,1.468.526,2.015,1.306c-.263.3-.525.6-.8.886" transform="translate(108.946 205.225)" fill="#55c0c2"/>
        <path id="Path_867" data-name="Path 867" d="M0,.213C.533.468,1.065.722,1.6.984.113,2.4.548.517.2,0Z" transform="translate(156.161 211.657)" fill="#55c0c2"/>
        <path id="Path_868" data-name="Path 868" d="M0,.221.608,0,.54.6Z" transform="translate(692.531 212.681)" fill="#55c0c2"/>
        <path id="Path_869" data-name="Path 869" d="M.188,1.083C.465.722.75.361,1.028,0A1.919,1.919,0,0,1,.713.451,5.8,5.8,0,0,1,0,.878Z" transform="translate(572.069 215.603)" fill="#55c0c2"/>
        <path id="Path_870" data-name="Path 870" d="M0,.205C.375.574.758.943,1.133,1.3c-.218-.09-.533-.115-.645-.3A4.085,4.085,0,0,1,.2,0Z" transform="translate(71.246 216.398)" fill="#55c0c2"/>
        <path id="Path_871" data-name="Path 871" d="M1.288,0C.995.533.71,1.066.417,1.591-.783-.1.942.509,1.393.115Z" transform="translate(117.926 216.48)" fill="#55c0c2"/>
        <path id="Path_872" data-name="Path 872" d="M1.455,0,.87,1.7C.578,1.427.293,1.157,0,.886.54.648,1.073.4,1.613.164Z" transform="translate(629.444 216.447)" fill="#55c0c2"/>
        <path id="Path_873" data-name="Path 873" d="M.773.476,0,.82.06,0Z" transform="translate(625.34 219.581)" fill="#55c0c2"/>
        <path id="Path_874" data-name="Path 874" d="M.818,0C.548.386.278.771,0,1.157.083.968.113.714.24.607a3.469,3.469,0,0,1,.765-.4Z" transform="translate(122.709 221.164)" fill="#55c0c2"/>
        <path id="Path_875" data-name="Path 875" d="M0,.254.713,0,.645.673Z" transform="translate(620.679 222.224)" fill="#55c0c2"/>
        <path id="Path_876" data-name="Path 876" d="M.953.943,0,0C.165.1.39.156.48.3a3.689,3.689,0,0,1,.3.828Z" transform="translate(53.076 225.068)" fill="#55c0c2"/>
        <path id="Path_877" data-name="Path 877" d="M1.281,2.426C.38,1.795-.782,1.188.733.007c.128-.1.968.91,1.478,1.394-.308.345-.615.689-.93,1.025" transform="translate(30.423 228.9)" fill="#55c0c2"/>
        <path id="Path_878" data-name="Path 878" d="M1.253.951C.833.632.413.312,0,0,.225.041.548,0,.668.148a4.242,4.242,0,0,1,.428.968Z" transform="translate(44.051 229.785)" fill="#55c0c2"/>
        <path id="Path_879" data-name="Path 879" d="M1.537,0c-.33.591-.668,1.189-1,1.78C-.879-.164.862.345,1.627.1Z" transform="translate(540.127 228.399)" fill="#55c0c2"/>
        <path id="Path_880" data-name="Path 880" d="M0,.287.765,0,.69.746Z" transform="translate(603.231 229.283)" fill="#55c0c2"/>
        <path id="Path_881" data-name="Path 881" d="M2.138,3.453C1.425,2.641.713,1.837,0,1.025.315.689.623.345.93,0L3.158,2.338c-.345.369-.683.738-1.02,1.116" transform="translate(31.703 230.302)" fill="#55c0c2"/>
        <path id="Path_882" data-name="Path 882" d="M0,.164A2.3,2.3,0,0,1,2.506,2.215l-.555.607A2.189,2.189,0,0,1,.158,0Z" transform="translate(45.147 230.736)" fill="#55c0c2"/>
        <path id="Path_883" data-name="Path 883" d="M.548,0c.54.459,1.44.845,1.538,1.4C2.356,2.887,1.44,2.641,0,.607Z" transform="translate(47.105 232.951)" fill="#55c0c2"/>
        <path id="Path_884" data-name="Path 884" d="M.45,0,.773.8,0,.73Z" transform="translate(154.702 240.954)" fill="#55c0c2"/>
        <path id="Path_885" data-name="Path 885" d="M0,.172c.5.271,1.013.533,1.515.8C-.03,2.469.6.336.158,0Z" transform="translate(71.254 242.647)" fill="#55c0c2"/>
        <path id="Path_886" data-name="Path 886" d="M.465,0C.308.312.15.623,0,.935.21.689.428.443.645.189Z" transform="translate(110.016 244.976)" fill="#55c0c2"/>
        <path id="Path_887" data-name="Path 887" d="M.2.976C.345.648.488.328.638,0,.428.254.218.509,0,.763Z" transform="translate(670.105 246.6)" fill="#55c0c2"/>
        <path id="Path_888" data-name="Path 888" d="M0,.2C.293.369.578.541.87.714.645.476.413.238.18,0Z" transform="translate(212.778 247.363)" fill="#55c0c2"/>
        <path id="Path_889" data-name="Path 889" d="M.21.64,0,0,.585.1Z" transform="translate(442.258 248.48)" fill="#55c0c2"/>
        <path id="Path_890" data-name="Path 890" d="M.99,0C.66.394.33.8,0,1.189.1.968.135.664.293.558A3.6,3.6,0,0,1,1.185.213Z" transform="translate(669.114 247.363)" fill="#55c0c2"/>
        <path id="Path_891" data-name="Path 891" d="M.64,0c.2.238.608.591.563.689C.775,1.575.3,1.534,0,.6-.035.492.415.205.64,0" transform="translate(65.325 252.834)" fill="#55c0c2"/>
        <path id="Path_892" data-name="Path 892" d="M.848.484,0,0C.225.221.45.451.668.681Z" transform="translate(170.722 254.024)" fill="#55c0c2"/>
        <path id="Path_893" data-name="Path 893" d="M.413,0,.675.746,0,.656Z" transform="translate(222.362 252.896)" fill="#55c0c2"/>
        <path id="Path_894" data-name="Path 894" d="M.368,0,.593.591,0,.492Z" transform="translate(485.856 253.078)" fill="#55c0c2"/>
        <path id="Path_895" data-name="Path 895" d="M.15,1.449c.705-1.534,1.418-2.3,2.123.008L2.416,1.3C1.62,1.3.81,1.3,0,1.31Z" transform="translate(582.947 253.255)" fill="#55c0c2"/>
        <path id="Path_896" data-name="Path 896" d="M0,.2.818.722C.608.484.39.246.18,0Z" transform="translate(171.39 254.508)" fill="#55c0c2"/>
        <path id="Path_897" data-name="Path 897" d="M2.236,0C1.493.8.743,1.608,0,2.42l.15.139L.105.025.023.107C.8.123,1.59.139,2.371.148Z" transform="translate(613.487 254.565)" fill="#55c0c2"/>
        <path id="Path_898" data-name="Path 898" d="M.585,0c.5.468.99.927,1.485,1.394C.833,2.937.473,1.608,0,.64Z" transform="translate(57.96 256.763)" fill="#55c0c2"/>
        <path id="Path_899" data-name="Path 899" d="M.353.787,0,0,.833.1Z" transform="translate(69.86 265.111)" fill="#55c0c2"/>
        <path id="Path_900" data-name="Path 900" d="M1.005.2C.668.509.338.82,0,1.124.278.755.548.377.825,0Z" transform="translate(161.892 264.08)" fill="#55c0c2"/>
        <path id="Path_901" data-name="Path 901" d="M0,.238.69,0,.63.623Z" transform="translate(74.04 267.451)" fill="#55c0c2"/>
        <path id="Path_902" data-name="Path 902" d="M.885,0C.585.353.293.714,0,1.066.1.894.158.673.3.566A5.155,5.155,0,0,1,1.065.2Z" transform="translate(593.007 268.788)" fill="#55c0c2"/>
        <path id="Path_903" data-name="Path 903" d="M1.635,2.453C1.08,2.067.548,1.682,0,1.3.533.919,1.073.541,1.613.164L1.463,0V2.625Z" transform="translate(213.521 278.328)" fill="#55c0c2"/>
        <path id="Path_904" data-name="Path 904" d="M.81.468,0,.73.083,0Z" transform="translate(255.018 281.635)" fill="#55c0c2"/>
        <path id="Path_905" data-name="Path 905" d="M.2,1.148C.473.763.75.386,1.035,0,.945.172.893.4.758.509A5.043,5.043,0,0,1,0,.943Z" transform="translate(234.549 286.965)" fill="#55c0c2"/>
        <path id="Path_906" data-name="Path 906" d="M.21.558,0,0,.563.1Z" transform="translate(303.008 291.348)" fill="#55c0c2"/>
        <path id="Path_907" data-name="Path 907" d="M1.043.935C.7.623.345.312,0,0,.2.074.488.082.585.23a3.314,3.314,0,0,1,.3.878Z" transform="translate(414.446 291.739)" fill="#55c0c2"/>
        <path id="Path_908" data-name="Path 908" d="M.983.492C.653.328.323.164,0,0,.27.23.533.459.8.689Z" transform="translate(392.765 294.545)" fill="#55c0c2"/>
        <path id="Path_909" data-name="Path 909" d="M.218.632,0,0,.593.1Z" transform="translate(235.462 312.737)" fill="#55c0c2"/>
        <path id="Path_910" data-name="Path 910" d="M.4,0,.66.623,0,.525Z" transform="translate(163.538 329.232)" fill="#55c0c2"/>
      </g>
    </g>
  </g>
</svg>
