<svg xmlns="http://www.w3.org/2000/svg" xmlns:xlink="http://www.w3.org/1999/xlink" width="477" height="400" viewBox="0 0 477 400">
  <defs>
    <clipPath id="clip-path">
      <rect id="Rectangle_219" data-name="Rectangle 219" width="477" height="400" transform="translate(1443 647)" fill="#fff"/>
    </clipPath>
    <clipPath id="clip-path-2">
      <rect id="Rectangle_178" data-name="Rectangle 178" width="520.032" height="417.394" fill="#55c0c2"/>
    </clipPath>
  </defs>
  <g id="Mask_Group_52" data-name="Mask Group 52" transform="translate(-1443 -647)" clip-path="url(#clip-path)">
    <g id="Group_82" data-name="Group 82" transform="translate(1452.737 654.303)">
      <g id="Group_81" data-name="Group 81" clip-path="url(#clip-path-2)">
        <path id="Path_3504" data-name="Path 3504" d="M498.892,177.365c1.381-.694,2.186-1.7,1.56-3.093-.914-2.109-1.937-4.183-3.06-6.2-.358-.65.417-2.346-1.52-1.7-.427.141-.417,1.336-.616,2.039s-.576.764-1.252.466c-.795-.343-1.967-.264-1.888.606.2,2.118-.04,4.6,1.649,6.151,1.58,1.45-.089,2.206-.06,3.26a5.92,5.92,0,0,1,1.639.088c.4.132.964.624.9.87a1.635,1.635,0,0,1-.984.984c-.238.079-.864-.351-1.063-.668a4.454,4.454,0,0,1-.338-1.424,11.2,11.2,0,0,1-4.769-5.193,119.354,119.354,0,0,0-15.548-23.26,24.626,24.626,0,0,1-4.123-5.712A64.272,64.272,0,0,0,457.9,127.154a22.862,22.862,0,0,1-2.106-3.278l.139.123c-3.2-1.837-4.649-5-7.133-7.4-5.593-5.4-12.08-9.8-18.816-13.963l.119-.114c-.427,1.845,1.351,3.049,1.709,4.666l-.129-.105c.507.466,1.023.931,1.53,1.4l.566.536c.447.4.884.817,1.331,1.221l.507.554-.358-.685-1.729.053-.1.079c-.795,2.777,1.56,5.035,1.639,7.68,4.61.633,4.868.852,5.245,4.517,2.126-.466,3.467,1.116,5.245,1.555.517-.729,1.063-.677,1.619-.044.566.518,1.133,1.037,1.709,1.555.964.158,1.629.58,1.719,1.52l.6.422c-.159-.185-.308-.369-.467-.554l-1.7-1.529c-.576-.51-1.152-1.011-1.729-1.52-.636,0-1.262.009-1.888.009.586,1.555,1.172,3.119,1.758,4.675l1.748,1.52c.566.51,1.133,1.011,1.7,1.52l1.729,1.529.477.422-.358-.527c-.576-.51-1.142-1.019-1.719-1.529h-1.818c-.169.167-.348.325-.527.483.228-.123.447-.237.666-.36-.01-.545-.03-1.081-.05-1.626-.566-.518-1.133-1.037-1.709-1.555a4.163,4.163,0,0,1-3.616-1.2c-1.431-1.432-2.891-2.856-3.3-4.833-2.662-.712-3.815-2.759-5.186-4.6-4.222-2.68-8.444-5.334-12.637-8.04a2.863,2.863,0,0,1-1.083-2.645c-1.441.009-2.8-.1-3.457-1.494-.914-.237-1.619-.65-1.739-1.573-.795-.185-.964-.378-.467-.466.06-.009.209.387.318.6.984.167,1.649.615,1.739,1.564,1.431.018,2.861.009,3.477,1.494,1.043.088,2.086.185,3.129.272.228-.211.457-.413.7-.615-1.659-1.511-1.818-3.638-2.831-5.413a2.1,2.1,0,0,0-2.712-1.2c-1.55.58-2.7-.053-3.845-.923-1.729-1.327-3.328-2.926-5.325-3.787-4.143-1.793-5.534-4.64-5.434-8.471.03-1.388-.189-1.4-2.782-.835-.268.053-.536.387-.735.343a20.081,20.081,0,0,1-8.752-4.4c.993-3.8-2.643-1.1-3.159-1.74-2.186-2.759-5.911-.571-8.335-2.452-2.1-1.617-4.957-2.2-7.034-4.095-1.262-1.151-3.626-1.353-5.454-2.039a3.476,3.476,0,0,1-2.474-2.847c-.586-.527-1.172-1.046-1.758-1.564-2.891-.035-5.722-.193-7.52-2.671a11.5,11.5,0,0,0-1.649-1.757c-.586-.527-.576-.905.209-1.151a1.043,1.043,0,0,1,.785.062c2.7,1.854,5.384,3.743,8.077,5.615.576.518,1.162,1.037,1.739,1.564,3.09-.685,5.474,1.169,8.186,1.819,5.255,1.239,10.471,2.61,14.9,5.571a2.88,2.88,0,0,0,.785.325c8.583,2.346,16.094,6.432,23.2,11.195a10.25,10.25,0,0,0,4.56,1.8c2.275.185,1.828,2.671,3.457,2.847,5.762.624,9.289,4.42,13.332,7.337,3.04,2.2,5.375,5.141,8.136,7.662,1.073.993,2.007.334,2.682-.633l.129.167c-.447-.264-1.262-.5-1.272-.782-.248-4.262-3.427-6.713-7.063-8.743a44.617,44.617,0,0,1-7.272-5.079,6.011,6.011,0,0,1-2.384-3.3,3.612,3.612,0,0,0-5.176-2.381c-1.2.492-1.858-.167-1.49-1.529.318-1.2-1.043-1.67-1.977-2.056-1.192-.5-2.106.176-2.811,1.028.2.141.4.281.6.431-.159-.185-.308-.378-.457-.562-1.937-.018-2.245-2.276-4.729-2.241-2.275.035-4.471-1.757-5.722-3.84l.139.123c-3.785-1.749-7.759-3.243-11.315-5.3-5.742-3.322-11.514-6.546-18.011-8.6-1.7-.545-3.01-1.388-3.517-3l.179.132a45.915,45.915,0,0,1-14.723-3.049c-4.769-1.67-8.176-3.77-10.65-7.662-1.8-2.821-4.262-5.316-6.428-7.952.725-2.953-1.947-3.726-4.014-4.859-1.152-.641-2.583-.325-2.831.4-.338.958.238,1.415.983,1.74,2.841,1.239,3,3.427,2.682,5.791a1.308,1.308,0,0,1-.308.668c-.477-.07-1.2-.114-1.341-.378-1.7-3.348-5.951-5.369-6.2-9.543a2.765,2.765,0,0,0-2.9-2.373c-3.636.22-5.325-2.671-8.156-3.708-.477-.167-1.083-.641-1.142-1.028-.7-5-4.719-4.938-8.9-4.657l.139-.141c2.384,2.056,5.057,3.884,6.14,6.872a1.673,1.673,0,0,1-1.421,2.241c-2.553.2-5.047.246-7.2-1.371a20.667,20.667,0,0,0-2.861-1.511l.109-.1c-.05,2.548,1.043,4.262,4.113,4.833,1.907.351,3.735,1.046,5.6,1.582,1.748.5.944,1.309.378,2.144-.288.413-.755,1.125-.586,1.327A76.978,76.978,0,0,1,319.266,49c.676,1.046,2.742,1.582,3.745,2.838.467.6,1,1.16,1.45,1.775.109.158.01.466-.07.685-.219.615-.616.615-1.242.141-1.063-.8-2.186-1.538-3.288-2.3l-.268.237c-.129.888-.04,2.373-1.431,1.995-3.626-.975-7.5-1.714-9.666-5.053a4.126,4.126,0,0,0-4.292-1.626V47.7c-.636.571-1.262.949-1.808-.07l.119.123c-4,1.054-7.8-.351-11.673-.826-6.169-.747-12.3-2.065-18.488-2.285a132.2,132.2,0,0,1-16.889-2.047c-6.686-1.107-13.263-2.9-18.806-6.749a8.672,8.672,0,0,0-3.795-1.617c-3.735-.369-6.328-2.381-8.6-4.6a42,42,0,0,0-11.425-7.794l.139-.149a3.266,3.266,0,0,0,1.083,3.445q3.219,2.465,6.418,4.93c-.815,3.049,2.374,4.148,3.775,6.133,3.845,5.457,9.219,7.724,16.5,7.039,3.765-.36,9.587,1.274,13.561,3.005l-.169-.149a161.658,161.658,0,0,1,18.766,1.555c2.494.4,5.007.466,6.875,2.25,2.613-1,4.331.255,6,1.784a3.486,3.486,0,0,0,1.56.58c7.66,1.6,13.829,5.931,20.773,8.858a31.757,31.757,0,0,1,4.918,3.023c1.152.747,2.166,2.135,3.378,2.267,5.067.58,6.05,3.8,7.053,7.372.954,3.436,2.424,6.757,3.656,10.132a1.46,1.46,0,0,1-1.768,1.793c-1.361-.352-2.643-.993-4.023-1.23-1.44-.246-2.831-.193-2.782,1.784.03.808-1.162.826-1.977.861-2.553.114-4.451-.756-5.524-2.865l.119.1a11.082,11.082,0,0,1-1.669-.36c-.318-.114-.527-.448-.785-.694a4.643,4.643,0,0,1,.765-.29c.556-.132,1.123-.211,1.689-.316l-.119.1c-.288-.413-.457-.975-.874-1.2-3.01-1.687-7.163-1.6-8.961-5.22-1.351-2.724-4.56-4.35-5.871-7.372-1.083-2.487-3.467-4.534-5.3-6.757-.139-.167-.467-.22-.705-.325-.219.439-.646.9-.606,1.318.338,3.673,3.159,6.476,4.471,9.815a1.349,1.349,0,0,1-.308,1.283,2.123,2.123,0,0,1-1.54.422c-6.388-1.283-12.746-2.715-19.343-3.058a15.159,15.159,0,0,1-4.8-1.547c-3.358-1.424-6.626-3-9.984-4.429a15.5,15.5,0,0,0-3.984-1.248c-6.805-.861-9.984-1.933-14.465-4.894-2.732-1.81-5.3-3.7-8.822-4.525-2.355-.554-4.391-2.285-6.438-3.647-3.666-2.443-7.193-5.053-10.868-7.469a11.519,11.519,0,0,0-3.159-.888l-.159.141a1.97,1.97,0,0,0,.01,1.485c.815.343.954.571.417.545-.1-.009-.179-.439-.258-.677-3.676.958-4.033,1.538-2.424,3.84a12.192,12.192,0,0,0,.964,1.257,12.787,12.787,0,0,1,1.152,1.107,1.709,1.709,0,0,1,.189,1.072c0,.079-.507.211-.775.193a32.813,32.813,0,0,1-5.921-.483c-6.279-1.617-12.468-3.506-18.727-5.184-1.729-.457-2.96-.747-2.9-2.829.03-1.23-1.739-1.977-3.259-1.942a47.737,47.737,0,0,0-7.62.545c-2.573.466-1.907-1.011-2.047-2.109-1.55,0-3.1.026-4.649-.009a2.193,2.193,0,0,1-2.265-1.494,2.427,2.427,0,0,1-.656-.141c-.119-.062-.129-.264-.189-.4.238.22.487.431.725.65,2.434.079,5.067-.58,6.924,1.511,2.265-.053,4.56.053,6.8-.22a6.393,6.393,0,0,0,2.772-1.555c.328-.255.338-.9.368-1.371.01-.176-.457-.562-.527-.527-2.434,1.037-4.292-.589-6.318-1.16-1.421-.4-3.249-.65-3.666-2.4,1.4-.1,2.792-.22,4.182-.281,2.265-.088,4.53-.141,6.8-.2l-.109.105c-.566-1.476-1.947-1.634-3.427-1.652-4.59-.026-9.05-.316-12.577-3.5-.7-.624-2.086-.65-3.169-.931-9.547-2.5-19.293-4.385-28.661-7.513a31.83,31.83,0,0,0-12.587-1.872c-2.225.176-4.461-.475-6.676-.808C104.531,15.24,97.7,15.161,90.951,14.3c-2.335-.308-4.927.923-7.4,1.45l.139-.141c-.626,1.274-1.262,1.274-1.907.018l.129.123a23.781,23.781,0,0,1-9.815-2.46,6.678,6.678,0,0,0-5.732-.264c-2.762,1.283-5.583.923-8.385.431-5.861-1.037-11.713-2.17-17.544-3.313-2.037-.4-3.934-.685-5.384,1.116a1.931,1.931,0,0,1-1.431.51c-2.841-.308-5.683-.615-8.474-1.116a5.626,5.626,0,0,1-3-1.362c-2.494-2.768-5.494-2.873-9.189-2.443-2.7.316-5.583-.562-8.375-.967-1.729-.246-1.888.554-1.59,1.7C3.14,8.2,4.143,8.9,2.842,9.37,1.878,9.722.6,9.467,0,10.521a9.71,9.71,0,0,0,2.3.808C4.7,11.558,6.557,12.8,8.594,13.7c.725.325,1.749.861,1.858,1.424.606,3.251,3.4,3.506,6.249,4.156a160.017,160.017,0,0,0,23.555,3.981c5.9.448,11.156,2.706,15.975,5.176,4.153,2.127,8.633,2.531,12.875,3.91s8.762,2.381,13.451,1.714c1.411-.193,1.59.448,1.848,1.67.914,4.288,1.132,4.262,6.04,4.517,1.788.088,3.725-.58,5.325.668-1.689.158-3.388.308-5.086.466-1.123.105-2.255.185-3.378.334a.929.929,0,0,0-.626.483c-.04.141.258.5.467.545q6.646,1.384,13.322,2.715c1.659.325,3.358.536,5.007.9.447.1.785.562,1.172.861a2.375,2.375,0,0,1-.785.29c-2.533-.053-4.987.316-7.61-.352a186.98,186.98,0,0,0-24.936-4.5,1.592,1.592,0,0,0-1.252.6c-.288.536.109,1.019.8,1.125.825.114,1.679.123,2.513.22.725.088,1.748-.026,1.609.984-.03.29-.894.466-1.341.747a11.215,11.215,0,0,0-.954.8c1.848.633,3.686,1.3,5.573,1.845.238.07,1.083-.606,1.033-.712-.815-1.757.2-2.416,1.9-2.162,3.09.466,6.159,1.072,9.18,1.81,7.65,1.889,15.677,2.127,23.3,4.2,2.2.6,4.411.844,6.03,2.548,1.808,1.907,3.775-1.485,5.305-.176,1.023.861.268,2.953,2.275,3.576.268.079.556.272.8.246,5.365-.668,9.815,1.643,14.673,3.049,8.643,2.5,17.624,4.077,26.485,6,5.8,1.265,11.961,1.793,17.346,3.875,6.269,2.425,12.945,3.787,19.035,6.687a117.53,117.53,0,0,1,16.452,9.613c6.318,4.35,12.5,8.858,18.756,13.26,7.59,5.325,15.776,10.1,25.134,12.944,2.672.808,5.583,1.494,7.481,3.559,1.331,1.467,2.891,1.081,4.62,1.09,2.811.018,2.881.193.914,2.768-.417.545-.626.844-.02,1.274.437.316.815.8,1.321.931,3.606.9,7.123,1.845,9.726,4.5,1.321,1.344,4.083.308,5.226,2.188a4.711,4.711,0,0,1,.6.325c.089.07.109.22.169.343-.2-.272-.407-.536-.606-.8-2.285,2.337-2.285,2.355-.03,4.771l.457-.475c-.2.114-.4.237-.606.352-1.123,1.5-2.861,2.074-4.371.993-2.523-1.81-5.5-2.592-8.375-3.647a2.127,2.127,0,0,0-1.56.141c-1.043.633-.1,1.292.189,1.872.964,1.933,2.037,3.568,5.106,2.671,2.354-.685,2.464,3.014,4.719,2.39,1.58-.439,2.881-1.617,4.759-1.336a5.232,5.232,0,0,1,4.858,4.6l-.119-.105c.993.369,2.345.483,2.911,1.142,2.414,2.794,5.543,5.079,7.55,8.163a2.123,2.123,0,0,1,.248-.562c.079-.1.288-.114.427-.167-.268.2-.546.4-.825.6a10.352,10.352,0,0,0,5.146,5.422,8.624,8.624,0,0,1,5.335,6.854l-.129-.105c1.023.3,1.917.615.288,1.353l-.517.518a12.929,12.929,0,0,0,.815,1.3c1.629,2.083,4.808,1.2,6.825,2.856,1.808,1.485,3.924,2.926,6.825,2.531,1.3-.176,1.977.888,2.633,1.608,3.109,3.383,7.073,5.852,10.958,8.453,12.527,8.383,24.777,17.1,38.079,24.543,1.758.984,3.109,2.241,3.229,4.218l-.149-.123a4.669,4.669,0,0,1,3.388,3.146,5.025,5.025,0,0,0,2.871,2.671c.815.334,1.768.193,1.5-.958-.209-.87.527-1.766.974-1.3,3.119,3.234,8.454,4.411,10.322,8.752l-.109-.105c2.96,2.126,5.543,4.508,6.984,7.706l-.089-.088c1.689,1.845,1.689,1.845-.02,3.207l.159-.149c.089.694-.119,1.67.318,2.039,1.013.844,3.03-.378,3.894,1.353.646,1.309,1.669,2.469,2.354,3.77a6.621,6.621,0,0,1,.338,2.109l-.159-.149c2.523-.079,3.636,1.608,4.262,3.216,4.033,10.325,11.166,19.323,15.846,29.367,1.739,3.735,4.133,7.276,5.394,11.125.864,2.654,2.225,3.858,5.106,4.244a8.646,8.646,0,0,1,2.275,1.019,1.714,1.714,0,0,1,1.758-1.547c-.01-2.074-.03-4.148-.04-6.221a43.849,43.849,0,0,1-3.894-2.241c-1.133-.8-.6-1.6.4-2.223.189-.132.378-.264.566-.4l-.705.281c.815,1.766,4.182,2.047,3.507,4.692,2.255,1.4,1.848,3.884,2.941,5.773.417.721-.477,1.011-1.361.589a8.76,8.76,0,0,0-1.55-.387c-.6.518-1.182,1.037-1.778,1.555-.527,2.838.179,5.571,1.083,8.251,1.629,4.842,3.388,9.648,5.106,14.473.278.8,1.59,1.424,1.8.9.169-.439.477-1.072.268-1.353-2.106-2.935-.705-6.459-2.255-9.578-1.46-2.961-1.917-6.309-2.782-9.49-.348-1.292.119-1.67,1.739-1.415a19.589,19.589,0,0,0,3.239.641c1.748-.026,3.09-1.749,2.424-3.084-4.331-8.568-5.871-17.944-10.074-26.564a46.07,46.07,0,0,0-4.61-8.111c-3.06-4.007-5.166-8.445-7.5-12.777-.189-.343.089-1,.378-1.38.109-.141.954-.009,1.3.2a4.289,4.289,0,0,1,1.113,1.134,106.779,106.779,0,0,1,12.021,20.922c3.884,8.708,7.193,17.618,10.918,26.379a12.241,12.241,0,0,1,1.291,6.652c-.109.747-.338,1.476-.517,2.214-.447-.571-.934-1.125-1.331-1.722-.417-.65-.676-1.406-1.152-2.021-.258-.334-.835-.483-1.272-.712a4.406,4.406,0,0,0-.586,1.265c-.079.931,1.381,1.67.427,2.768-1.2,1.388-.666,2.8-.1,4.306q4.962,13.326,9.785,26.713c1.907,5.272,3.894,10.536,4.4,16.125.169,1.88,1.113,2.118,4.133,1.529a2.452,2.452,0,0,1,1.252.105c.189,1.248.278,2.513.368,3.779.228,3.014.6,6.01,2.245,8.734a1.954,1.954,0,0,0,1.371.729,1.719,1.719,0,0,0,1.361-.606c.993-2.3,2.225-4.358,1.55-7.206-.924-3.91-.666-8.04-.864-12.074a5.015,5.015,0,0,1,.4-1.45c.268.378.676.721.775,1.125.368,1.467.149,3.058,1.351,4.332.368.378.6.861.944,1.257a1.221,1.221,0,0,0,.745.343c.109.009.348-.352.368-.554.189-1.5.417-3.005.467-4.517.129-3.286.1-6.582.238-9.868.04-1.169.795-1.828,2.235-1.432,1.361.378,2.692.817,4.053,1.16a1.438,1.438,0,0,0,1.947-1.564,2.1,2.1,0,0,0-.079-.756,7.4,7.4,0,0,1,.378-7.267,10.889,10.889,0,0,0,.934-9.525c-2.633-8.48-3.686-17.32-7.332-25.571a4.431,4.431,0,0,1-.229-3.7,2.492,2.492,0,0,1,.954-1.2c1.123-.58,1.44.264,1.58.958,1.133,5.474,3.08,10.773,3.964,16.327.755,4.71,2.533,9.3,3.874,13.928.04.141.387.29.586.29.268,0,.715-.079.785-.228a10.206,10.206,0,0,0,1.1-2.812,100.682,100.682,0,0,0,.358-17.478c-.06-1,.06-2.021.089-3.032a27.066,27.066,0,0,1-3.547-8.3c-1.957-6.836-1.619-14.051-4.709-20.7a6.523,6.523,0,0,1,.616-6.6,4.215,4.215,0,0,0,.5-3.647c-1.152-4.666-1.937-9.437-3.6-13.963-1.421-3.893-1.182-8-2.742-11.81a1.494,1.494,0,0,1-.02-.756c.079-.492.209-.975.318-1.467.258.272.646.51.745.817.656,1.916,2.325,3.418,2.4,5.606.179,4.851,2.484,9.271,3.855,13.884,1.947,6.573,4.51,13.119,5.275,19.815,1.033,9,.586,18.128.775,27.205,1.083-.246,2.424-.228,2.941-1.292.666-1.371,1.57-2.847,1.53-4.262-.219-8.322,1.5-16.555,1.083-24.9a69.43,69.43,0,0,0-3.318-17.9c-.825-2.548-1.659-4.824-5.037-5.518a2.426,2.426,0,0,1-1.888-2.346c-.1-3.752-3.3-7.188-1.48-11.125-1.113-1.7-2.205-3.137-1.013-5.474.626-1.239-.874-3.313-1.411-5.017l.109.1c-1.033-.562-1.2-1.134,0-1.7l-.129.149c.109-1.142.189-2.285.348-3.427a.569.569,0,0,1,1.113,0c.179,1.142.288,2.293.417,3.436l-.129-.149c1.3-.685,2.047-1.626,1.639-3.014-1.232-4.209-2.354-8.453-4.937-12.232-.636,0-1.262.018-1.9.026v3.155c.6.167,1.748.062.636,1.037-.169-.378-.338-.764-.507-1.151-1.55-.562-1.282-1.942-1.719-3.005a3.564,3.564,0,0,1-.6-.36c-.1-.088-.089-.264-.119-.4.189.29.378.589.556.888.626-.018,1.242-.035,1.868-.044.536-1.09,1.093-.729,1.649-.018,2.186-.914,1.5-2.25.815-3.708-.894-1.872.2-2.012,1.868-1.467.129-.439.457-.931.328-1.292a1.688,1.688,0,0,0-1.133-.914,4.5,4.5,0,0,1-3.7-2.627c-1.351-2.715-2.772-5.387-3.278-8.357-1.639-.571-1.45-1.933-1.709-3.1-.4-.334-.944-.615-1.123-1.028-.149-.334.159-.817.258-1.23.248.3.636.58.715.923a5.521,5.521,0,0,1-.01,1.459c1.739.518,1.649,1.837,1.739,3.084m-17.107,47.091c-.159-.176-.308-.351-.457-.536.1.228.209.439.318.659.179.158.358.308.536.457-.129-.193-.268-.387-.4-.58m-29.3-1.529a4.132,4.132,0,0,1-.616-.246c-.109-.07-.139-.228-.209-.351.228.246.457.475.685.712.159.167.328.325.487.483-.109-.2-.229-.4-.348-.6m-31.035-39.639c-.894-.22-1.7-.518-1.689-1.529-.2-.132-.407-.272-.616-.4.149.176.3.36.457.545a2.066,2.066,0,0,1,1.719,1.511l.507.4c-.119-.176-.248-.351-.378-.527m49.981-15.211-.358-.545.209.685c1.232-.079,1.6.624,1.778,1.52,1.431.615,1.311,1.916,1.689,3,.159.185.328.36.487.545-.109-.22-.229-.439-.338-.668-1.371-.65-1.411-1.88-1.679-3.014a2,2,0,0,1-1.788-1.52m-12.061-13.752c-.576-.51-1.142-1.019-1.719-1.529l-.556-.518.417.65c.576.5,1.152,1.011,1.729,1.52.2.1.4.185.586.3a1.549,1.549,0,0,1,.278.272c-.248-.228-.487-.457-.735-.694m8.613-1.52c-.139-.132-.288-.255-.437-.387.109.167.219.334.318.5l.556.439c-.149-.185-.288-.369-.437-.554M449.07,139.061a1.651,1.651,0,0,1-1.729-1.52,11.569,11.569,0,0,1-2.255-.536,1.255,1.255,0,0,1-.457-1.151c.089-.466.626-.4,1.093.132.5.562.984,1.125,1.47,1.687.576.5,1.152,1,1.729,1.511l.4.589c-.079-.237-.169-.475-.248-.712m-122.4-3.032-.517-.51c.129.211.248.422.378.633.179.105.368.193.536.316a1.22,1.22,0,0,1,.209.3c-.2-.246-.407-.492-.606-.738m53.378-2.961a1.518,1.518,0,0,1-1.669-1.582,12.521,12.521,0,0,1-2.205-.615c-.308-.141-.358-.7-.517-1.081.407.079.944.035,1.2.246a12.255,12.255,0,0,1,1.4,1.555,1.615,1.615,0,0,1,1.788,1.476c1.043.132,1.748.527,1.659,1.59a15.2,15.2,0,0,1,3.1.624,7.913,7.913,0,0,0,3.914.782l-.119.114c-.9-2.575-3.427-3.928-5.464-5.65-1.212-1.028-2.961-1.828-3.606-3.084-1.848-3.541-5.086-5.949-7.987-8.664a7.65,7.65,0,0,1-1.272-1.907.752.752,0,0,1,.159-.668c.129-.185.517-.439.616-.387a72.61,72.61,0,0,1,6.567,3.453,14.533,14.533,0,0,0,5.345,2.17,2.25,2.25,0,0,0,2.136-.668c1.778-1.494,1.192-2.988.2-4.534-6.249-.817-10.978-4.06-15.518-7.592-.9-.246-1.669-.615-1.719-1.582-3.119-.123-4.54-1.924-4.57-4.332-.02-1.907-.487-3.585-2.136-4.578-3.537-2.109-4.709-5.474-6.378-8.585-.546-1.028-.229-1.6,1.44-1.608,1.828-.018,4.023-.026,4.749-2.179a4.072,4.072,0,0,1-.566-.272c-.1-.062-.139-.2-.209-.308.209.228.417.466.626.7,1.838.4,1.44,1.9,1.868,2.988l-.119-.105c3.06,3.348,5.245,6.968,5.355,11.45.06,2.258,1.609,3.576,4.351,3.7,1.073.044,2.533.149,3.109.756,3.5,3.691,8.911,6.177,9.587,11.661,1.7.132,3.417.167,5.1.439a1.289,1.289,0,0,1,1.142,1.687,2.009,2.009,0,0,0,1.123,3.076c2.732,1.265,5.434,2.636,8.275,3.691,1.48.554,3.557,1.59,4.8.545,1.818-1.52,3.109-.791,4.451.07,4.779,3.058,9.478,6.221,14.236,9.314.894.58,2.156.808,2.841,1.511.676.677-2.4,1.151-.3,2.583,4.471,3.032,8.673,6.38,12.984,9.6a2.738,2.738,0,0,0,2.265.729c.884-.158.8-1.67-.219-2.575-1.013-.888-1.937-2.179-3.159-2.487-4.143-1.019-5.593-3.945-7.063-6.968l.139.141a38.571,38.571,0,0,0-4.59-4.3c-2.056-1.415-.079-1.995.4-2.926.507-.949.7-1.942-.258-2.759a1.918,1.918,0,0,0-2.285-.281c-3.189,1.626-5.315.369-7-2.047a6.1,6.1,0,0,1-5.156-3.058c-1.311-.237-2.881,0-3.5-1.5-6.8-.659-10.789-2.223-15.528-6.081-2.7.105-4.54-1.6-6.726-2.575-.318-.141-.4-.712-.6-1.081.517-.035,1.133-.246,1.52-.07,2.146.975,4.858,1.3,5.762,3.77,3.04-.246,5.265,1.714,8.007,2.337,4.361.984,4.381,1.011,7.471,3.779,1.45,0,2.911-.018,3.447,1.564,2.315.211,4.62.457,5.166,3.032,2.543-1.626,1.6-4.077,1.888-6.239a12.286,12.286,0,0,1-6.368-1.476,9.916,9.916,0,0,1-1.023-.844c.527-.132,1.093-.466,1.56-.369a10.746,10.746,0,0,1,5.7,2.821,18.232,18.232,0,0,1,4.043,1.019,48.1,48.1,0,0,1,13.8,11.213c.447.5.417.844-.358,1.09a1.166,1.166,0,0,1-.815-.132c-.954-.554-1.838-1.213-2.821-1.7a1.539,1.539,0,0,0-1.321.105,1.625,1.625,0,0,0-.328,1.388c.248.685.646,1.749,1.2,1.872,3.507.8,5.951,2.873,8.395,5.009,2.643,2.293,5.275,4.569,8.812,5.879,2.295.852,3.517,2.416,2.523,4.886-.954,2.373.07,4.306,1.957,6.186,3.239,3.2,5.921,6.845,9.279,9.921,4.937,4.517,6.924,10.325,9.676,15.808.427.852-.358,1.186-1,1.7-1.351,1.063.189,2.329.705,2.232,3-.518,4.1,1.1,4.242,3.076.268,3.752,2.265,6.74,4.719,9.561a34.228,34.228,0,0,1,5.7,9.262c1.291,3.058,2.623,6.107,3.944,9.156a11.763,11.763,0,0,1,1.063,1.116.662.662,0,0,1,.05.685c-.437.5-.745.316-.8-.457-.04-.483-.1-.967-.149-1.45-2.4,2.636-2.643,3.137-.954,4.262A5.537,5.537,0,0,1,494,224.614c.745,3.445,1.51,6.889,2.434,10.3.457,1.7-.507,2.891-1.45,4.095-.209.272-.964.255-1.47.255-.179-.009-.417-.343-.527-.571-.536-1.028.079-1.916.467-2.847.646-1.582.4-3.357-1.133-4.095-4.57-2.206-4.053-6.9-6.666-10.026-.03-.035.7-.8.964-.756,2.295.4,2.474-.993,2.106-2.214a61.147,61.147,0,0,0-2.563-6.362,4.521,4.521,0,0,0-4.182-3.137c-2.513-.272-3.348-2.443-3.6-4.569l-.507-.422c.129.185.248.36.368.545,1.679-.422,2.176-1.467,1.788-2.856-.308-1.09-1.192-1.485-2.484-1.564-3.368-.2-4.967-1.081-4.341-2.812,1.44-3.945-.884-6.757-2.941-9.692-1.361-1.933-2.911-3.849-5.961-1.591-.9.668-2.2.053-3.03-.7-2.186-1.96-4.282-4.016-7.173-5.22l.1-.079c-.03,2.179,1.321,3.656,3.03,5.07,2.235,1.854,4.779,3.717,5.176,6.573.278,2.047,1.411,3.743,1.967,5.6.795,2.706,4.59,1.837,5.375,4.174l-.149-.132c1.043.993,4.063,1.09,1.083,3.576-1.838,1.538.427,5.474,3.169,6.722,3.239,1.476,3.527,1.6,2.3,3.814-1.172,2.126-.606,3.8.387,5.729,2.245,4.35,4.3,8.778,6.428,13.19.457.949.765,2.065-.02,2.873-2.086,2.135-1.778,4.156.159,6.09A7.094,7.094,0,0,1,485,247.654a36.318,36.318,0,0,0,1.937,5.8c.546,1.494,1.659,1.529,3.328,1.344,2.593-.29,3.795.325,4.719,1.942a2.25,2.25,0,0,1-.149,2.065c-.467.738-1.361.606-2.2.167-2.245-1.2-2.255-1.178-4.083.65,2.96,2.636,3.308,6.3,4.739,9.534.169.378-.2.94-.328,1.415-.258-.413-.477-.861-.775-1.257-2.245-2.97-2.9-6.38-3.477-9.807-3.189-2.083-3.835-5.466-5.3-8.366-2.871-5.729-5.285-11.634-7.938-17.46a18.382,18.382,0,0,0-4.769-6.046c-6.746-6.063-14.415-11.564-18.111-19.842a2.823,2.823,0,0,0-1.748-1.494c-2.682-.378-3.4-2.381-4.759-3.954-2.881-3.339-5.265-7.056-9.348-9.517-1.52-.914-.328-2.267.079-3.4l.149.132c-2.136-1.538-5.851-2.469-2.245-5.931.735-.712-.676-2.346-2.106-2.856a2.086,2.086,0,0,0-2.7,1.134l.576.5c-.149-.211-.288-.422-.437-.633a3.663,3.663,0,0,1-1.709-3c-.209-.308-1.729.026-.586-.949.149.36.3.712.447,1.063.358-.387,1.013-.756,1.033-1.151.1-2.627-1.49-4.148-4.033-3.286-2.662.905-4.312.615-5.712-1.467-.437-.641-.964-1.239-1.45-1.854a3.353,3.353,0,0,1-.8-.237c-.129-.07-.159-.29-.229-.448.517-.114.8.158.874.817,1.46-.606,2.384-1.38.964-2.742a7.632,7.632,0,0,0-1.391-.808c-2.335-1.38-4.62-2.829-7.014-4.13a39.109,39.109,0,0,0-6.656-3.137c-3.02-.949-2.255-4.235-4.749-5.36-1.232-.554-2.533-1-3.745-1.608-1.152-.58-2.782-.659-3.139-2.153a8.9,8.9,0,0,1-5.216-3.058c-9.646-1.766-15.607-7.97-21.618-14.095a1.238,1.238,0,0,1-.089-1.283c.308-.492.914-.378,1.48,0,1.639,1.1,3.944-.466,5.5,1.054-.685,3.462,2.831,1.292,3.974,2.32.984.888,2,1.74,2.97,2.645s-.626,2.03-.03,2.654c.874.923,2.374,1.353,3.388,2.206,1.649,1.371,3.507,2.636,4.282,4.648,4.421-.255,4.56-.185,5.245,2.988,2.494-1.529,5.434-1.169,8.206-1.406,1.57-.132,1.629.9,1.142,2a1.439,1.439,0,0,0,.636,1.96,1.4,1.4,0,0,0,2.027-.571c.328-.747.676-1.5,1.59-1.248,2.414.668,4.769,1.538,7.153,2.32.6-.51,1.2-1.019,1.8-1.529-1.192-1.327-1.967-3.19-4.49-2.873-.8.105-1.58.413-2.275-.29-4.451-4.473-11.186-5.6-16.511-8.8-.368-.22-1.083.018-1.639.07-.755.079-1.49.835-2.245-.044-1.858-2.162-3.745-4.3-5.613-6.45-.954-.158-1.758-.466-1.788-1.485m-11.981-4.684a1.669,1.669,0,0,1-1.768-1.467,2.013,2.013,0,0,1-1.709-1.564c-1.391-.624-1.272-1.924-1.7-2.979-.586-.527-1.182-1.054-1.778-1.582-3.01.835-3.934.729-4.59-1.107-.765-2.135-2.6-3.981-2.374-6.406-2.265-.888-2.941-2.671-3.338-4.622a5.074,5.074,0,0,1-1.1-.993c-.338-.562-.089-.958.467-.958.079,0,.179.422.228.659.1.466.169.94.248,1.415,2.136.888,3.417,2.311,3.586,4.429,3.209,1.916,6.676,3.647,6.746,7.706.6.527,1.192,1.046,1.788,1.564,1.192.729,1.311,1.916,1.669,3.005.854.281,1.59.659,1.739,1.555.626,0,1.262.009,1.9.009-.05-.492-.109-.993-.149-1.485a2.049,2.049,0,0,1,0-.738c.149-.457.3-1.257.556-1.292,1.311-.176,1.758.826,2.285,1.617a.757.757,0,0,1-.447,1.239c-.775.237-1.6.343-2.4.51v1.617a3.174,3.174,0,0,1,.556.351c.089.079.1.228.139.352-.179-.272-.368-.554-.546-.835m67.187-6.072c-.586-.51-1.162-1.011-1.739-1.52l-1.729-1.5-1.7-1.555a2.163,2.163,0,0,1-1.719-1.529c-.189-.132-.378-.264-.576-.4.149.167.288.343.437.51.566.51,1.142,1.019,1.719,1.529s1.162,1.011,1.748,1.52c.566.518,1.133,1.028,1.689,1.547.576.5,1.152,1.011,1.729,1.511l.517.475c-.129-.193-.248-.4-.378-.589M347.361,100.96l-.566-.466c.139.193.278.387.427.58.139.176.278.36.427.545-.1-.228-.189-.439-.288-.659M402.5,90.292c-.447-.316-.546-.325-.139.123a4.96,4.96,0,0,1,.566.308,1.4,1.4,0,0,1,.248.272l-.676-.7M343.914,58.28l-.477-.422c.109.185.209.369.318.562.308.3,1.768-.026.705,1.011-.189-.387-.368-.764-.546-1.151m-24.121-24.4c-.2-.176-.4-.343-.6-.518.149.22.3.431.437.65l1.778,1.547c1.291.7,1.381,1.916,1.659,3.04a4.109,4.109,0,0,1,.725.255c.119.079.159.264.238.4-.268-.264-.536-.527-.815-.791-1.53-.589-1.689-1.775-1.659-3.04a1.66,1.66,0,0,1-1.768-1.538M474.93,305.237c-.378-.281-.894-.492-1.083-.844-.159-.308.06-.773.119-1.169a3.845,3.845,0,0,1,.546.817,8.3,8.3,0,0,1,.258,1.309,11.457,11.457,0,0,1,1.073,1.072.7.7,0,0,1,.07.677c-.437.51-.646.325-.676-.457a7.755,7.755,0,0,0-.308-1.406m8.613-89.946a9.653,9.653,0,0,1-1.053-.888.608.608,0,0,1-.079-.615c.368-.51.576-.369.636.36a7.34,7.34,0,0,0,.338,1.274c.437.272,1.033.457,1.252.826.179.308-.089.817-.159,1.239-.238-.255-.586-.483-.685-.773a7.414,7.414,0,0,1-.248-1.424m-3.427-35.061c-2-.369-1.57-1.828-1.729-3.023-.755-.053-1.669,0-.785-1.028.219.387.427.773.646,1.16a3.605,3.605,0,0,1,1.719,3.005,2.818,2.818,0,0,1,1.788,3.023,19.011,19.011,0,0,1,7.173,9.042,73.207,73.207,0,0,0,3.894,8.128c1.55,2.847,1.917,6.353,5.365,8.322.527.3.666,1.353.7,2.065.079,2.012.01,4.033.01,6.046.437.246,1.083.413,1.272.764s-.07.9-.129,1.353c-.288-.237-.715-.439-.825-.729a6.252,6.252,0,0,1-.179-1.5c-2.434-3.26-3.417-7.249-6.636-10.14a6.33,6.33,0,0,1-1.381-2.7c-2-5.738-5.186-11-8.2-16.327a7.785,7.785,0,0,1-1.1-4.3c-1.848-.527-1.58-1.907-1.6-3.163M399.06,111.662c-1.45.018-2.921.062-3.467-1.529a10.336,10.336,0,0,1-6.209-2.056c-.209-.149,0-.8.119-1.2.03-.105.477-.22.676-.167a9.05,9.05,0,0,1,5.265,3.559c1.282.29,2.941-.132,3.5,1.494a3.507,3.507,0,0,1,.775.193c.129.07.169.466.159.475-.546.149-.825-.114-.815-.773m6.785-5.949c1.272.3,2.9-.053,3.457,1.511,2.623.105,4.59,1.626,6.825,2.548a8.589,8.589,0,0,1,2.325,2.047c.119.123.189.448.1.554a.966.966,0,0,1-.685.316c-3.388-.483-5.792-2.575-8.554-4.095-.159.149-.318.29-.467.439.2-.105.4-.211.606-.316v-1.634h-3.586c-1.123,1.4-2.255,1.5-3.388.009-1.093-.149-2.2-.237-3.268-.457-1.659-.334-3.109-.949-3.527-2.619-1.292-.281-2.99.167-3.517-1.511-1.51.132-2.792-.149-3.487-1.494a4.443,4.443,0,0,1-3.457-1.511c-1.282-.94-2.821-1.7-3.209-3.313a1.511,1.511,0,0,1,.874-1.9,1.343,1.343,0,0,1,1.838.94,41.206,41.206,0,0,1,.387,4.438c.527-.51,1.083-.993,1.58-1.529.546-.58-.04-1.942,1.4-1.8.268.026.477,1.274.527,1.968a24.657,24.657,0,0,1-.06,2.838c1.49-.114,2.851.018,3.487,1.485a4.426,4.426,0,0,1,3.507,1.52,9.972,9.972,0,0,1,6.775,3.093c1.232,0,2.454-.009,3.676-.018,0-.545-.01-1.09-.01-1.634l-.5-.439c.119.185.228.378.348.562M195.671,56.777c-.527-.062-1.063-.114-1.59-.193-.268-.035-.725-.114-.735-.2-.04-.483.387-.7,1.023-.413a5.635,5.635,0,0,1,1.152.949c1.391.1,2.99-.185,3.507,1.494a14.737,14.737,0,0,1,1.649.009c2.99.343,2.98.351,1.729,3.093A3.269,3.269,0,0,1,205.943,63c1.8.255,3.874-.246,5.116,1.494a4.078,4.078,0,0,1,.735.308c.109.079.119.272.179.4q-.8.105-.745-.844c-1.808-.272-3.974.448-5.146-1.5-1.311-.255-2.861-.062-3.547-1.485-1.421-.773-2.861-1.529-3.408-3.067-1.54.176-3.07.334-3.457-1.529M491.988,296.3a6.682,6.682,0,0,1,1.182,1.74c.129.5-.258,1.107-.417,1.67-.089-.466-.179-.94-.258-1.406-.129-.7-.238-1.415-.348-2.127a9.969,9.969,0,0,1-1.043-.94.642.642,0,0,1-.119-.633c.407-.492.676-.334.765.378.05.439.149.879.238,1.318m-3.437-48.787a2.089,2.089,0,0,1,1.48,2.223c-.03.369-.407.721-.626,1.09a3.657,3.657,0,0,1-.278-.65c-.159-.923-.288-1.854-.427-2.777a8.13,8.13,0,0,1-1.083-1.054c-.4-.58-.209-.94.387-.888.089,0,.129.431.189.659l.358,1.4M378.307,81.285c1.808.3,3.855-.053,5.186,1.52,5.385.176,9.637,2.917,14.127,5.035.835.4-.4,1.072-.954,1.5-.417.325-.775.721-1.162,1.09.546.018,1.1-.009,1.649.053.238.035.656.264.646.387-.03.562-.527.808-1.152.492a4.634,4.634,0,0,1-1.053-1.028c-4.53-.641-7.987-3-11.216-5.633-.517-.422-.517-1.344-.755-2.039-1.808-.308-4.063.6-5.186-1.529a7.2,7.2,0,0,1-1.619.07c-.378-.062-.685-.4-1.033-.624.467-.105,1-.378,1.381-.255.457.141.765.624,1.142.958m-5.176,9.121a3.234,3.234,0,0,1,2.772,1.125,1.093,1.093,0,0,1-.129,1.16,1.539,1.539,0,0,1-1.321.1,2.392,2.392,0,0,1-1.272-2.425c-.6-.167-1.838.009-.735-1.072.228.378.457.747.685,1.116M66.4,26.277c-1.252.343-2.533.615-3.745,1.046-1.46.527-2.543.431-3.119-1.019-1.1-.088-2.205-.158-3.308-.255a4.351,4.351,0,0,1-.775-.237c.378-.185.745-.51,1.133-.518a2.981,2.981,0,0,1,2.841,1.125c2.265-1.467,4.54-2.258,6.825-.009a2.948,2.948,0,0,1,.626.167c.109.062.149.228.219.351-.238-.22-.467-.431-.7-.65m403.322,167.7c-1.3-.861-2.672-1.661-3.874-2.636-.556-.448-.894-1.283.228-1.67a2.523,2.523,0,0,1,1.55.009c2.255.9,1.739,2.8,1.947,4.438a2.877,2.877,0,0,1,.795.185c.129.07.129.316.189.483-.278-.272-.556-.536-.835-.808M111.138,40.143c.854-.009,1.709-.035,2.563-.009,2.245.079,4.55-.2,6.7.694-2.275,1.45-4.729.193-7.083.316-.656.035-1.351-.738-2.037-1.142-.536-.062-1.073-.114-1.609-.185-.268-.044-.745-.114-.745-.185-.03-.475.407-.712,1.053-.439a4.936,4.936,0,0,1,1.162.949M468,163.5a10.137,10.137,0,0,1-4.858-4.033c-.288-.562.1-1.406.169-2.118a3.856,3.856,0,0,1,1.242.439c1.818,1.617,3.547,3.3,3.328,5.826a2.524,2.524,0,0,1,.755.176c.119.079.089.351.129.536-.258-.272-.507-.545-.765-.826M185.3,56.786c-2.533-.114-5.116.026-7.5-.923-.3-.114-.377-.791-.417-1.213-.01-.149.368-.466.6-.483,2.96-.255,5.563.281,7.2,2.75,1.123.07,2.245.132,3.368.228a3.271,3.271,0,0,1,.775.281c-.4.2-.785.554-1.192.571a2.826,2.826,0,0,1-2.831-1.213m311.884,236.43c1.411.738,2.821,1.467,4.232,2.206-.5,2.882,3.437,5.378.944,8.436.4.246,1.709.1.566,1.011-.149-.369-.3-.747-.437-1.116-3.01-3.058-4.361-6.74-5.186-10.633a5.312,5.312,0,0,1-1.093-1.01c-.318-.571-.05-.984.517-1,.1,0,.258.413.3.65.089.483.109.967.159,1.459m-53.309-79.437a26.648,26.648,0,0,1-8.762-6.889c-1.043-1.177-2.513-2.118-2.772-3.7-.139-.835,2.066.308,4.391,2.5,1.917,1.828,3.924,3.585,5.722,5.51a9.231,9.231,0,0,1,1.272,2.706,4.64,4.64,0,0,1,.616.255c.1.07.139.228.2.351-.219-.246-.447-.492-.666-.738M374.86,96.54c1.083.264,2.474.237,3.2.835,2.811,2.373,5.434,4.93,8.067,7.469.238.237.04.861-.03,1.292a.824.824,0,0,1-.616.141c-2.235-1.037-4.411-2.214-6.706-3.137-3.427-1.362-4.282-3.726-3.775-6.749-.527-.044-1.053-.079-1.57-.132-.815-.088-.993-.369-.437-.738a.875.875,0,0,1,.735.062,11.137,11.137,0,0,1,1.133.958M278.306,78.262c6.9-.185,13.531,1.538,20.3,2.329.368.044.656.7.914,1.116a1,1,0,0,1-.576.457,8.823,8.823,0,0,0-2.513-.237c-6.9,2-12.8.448-17.982-3.8-.874-.193-1.053-.4-.507-.518.06-.009.238.422.368.65m200.757,238.46c0,.228-.209-1.037.04-1.107,1.351-.4,1.679.791,2.047,1.52a64.748,64.748,0,0,1,5.613,18.04c.06.308-.447.7-.7,1.054-.179-.193-.437-.369-.517-.589-2.066-6-4.113-11.995-6.487-18.919M158.734,50.732l-.06.185c-2.166-.527-4.331-1.037-6.5-1.582-.676-.167-1.58-.193-1.59-1.046a3.742,3.742,0,0,1,1.54-.369c4.053-.237,7.62,1.327,11.276,2.531.2.062.427.536.358.615-.278.308-.745.791-1.023.729-1.361-.272-2.672-.694-4-1.063M328.287,75.608c.248-.475.318-.835.477-.87.437-.1,1.073-.228,1.341-.035a10.4,10.4,0,0,1,4.093,5.431c.04.149-.209.431-.4.571s-.527.308-.676.237a8.324,8.324,0,0,1-4.838-5.334M173.129,54.44a15.189,15.189,0,0,1-3.716-.308,2.184,2.184,0,0,1-.954-1.828,1.219,1.219,0,0,1,1.748-1.037,45.506,45.506,0,0,1,4.331,2.074c.149.07.169.457.109.677s-.288.6-.437.6a6.009,6.009,0,0,1-1.083-.176M497.084,280.773a9.172,9.172,0,0,1-.9,1.837c-.288.369-.924.536-1.4.8-.219-.457-.606-.905-.606-1.362a5.05,5.05,0,0,1,.447-2.162,1.832,1.832,0,0,1,1.311-.861c1.083-.009.874.923,1.152,1.749M9.19,11.145c-.487-.123-1.252-.281-2-.51a.562.562,0,0,1-.248-.527c.189-.413.378-.984.755-1.142,1.46-.615,2.484.422,3.586.984.755.378.636.764-.219.914-.527.088-1.053.158-1.878.281M99.862,41.074c-.079-.87.725-1.09,1.56-1,.984.105,2.285-.035,2.295,1.257a1.407,1.407,0,0,1-1.59,1.265c-1.123-.026-2.166-.387-2.265-1.52m28.423,1.968c-.685-.053-1.5-.062-2.295-.193a9.172,9.172,0,0,1-1.49-.492,3.761,3.761,0,0,1,1.321-.545c1.341,0,2.682.123,4.014.228a2.741,2.741,0,0,1,.745.281c-.2.158-.378.4-.616.457a16.6,16.6,0,0,1-1.679.264M16.959,15.512a13.662,13.662,0,0,1-2.007-.158c-.358-.088-.626-.422-.934-.641a4.3,4.3,0,0,1,.735-.369,4.418,4.418,0,0,1,.844-.088,3.13,3.13,0,0,1,.854-.035c.795.158,1.59.378,2.374.571l-1.868.721m127.4,19.8a7.508,7.508,0,0,1-1.619-.105c-.358-.1-.606-.475-.894-.729.219-.123.437-.334.676-.351a5.117,5.117,0,0,1,1.639.026,12.157,12.157,0,0,1,1.758.756c-.517.132-1.033.272-1.56.4m264.864,63.2c.785-.1,2.533.94,2.523,1.555,0,.158-.348.448-.546.457-1.282.044-1.868-.87-2.6-1.564l.626-.448m75.85,141.773c0-.264-.02-.738.01-1.213a1.383,1.383,0,0,1,.219-.685c.139-.193.507-.483.606-.439.387.193.944.439,1.023.747a5.288,5.288,0,0,1,.07,2.126c-.07.422-.546,1.151-.765,1.134-.874-.07-1.073-.773-1.162-1.67M157,32.138l-1.58-.316a5.315,5.315,0,0,1,1.45-.492,5.845,5.845,0,0,1,1.55.334L157,32.138M127.48,31.3l1.47.369a6.383,6.383,0,0,1-1.45.36,6.269,6.269,0,0,1-1.47-.351c.477-.123.964-.255,1.45-.378M102,37.885a5.4,5.4,0,0,1,1.47-.439,5.175,5.175,0,0,1,1.411.422,4.9,4.9,0,0,1-1.44.457A5.023,5.023,0,0,1,102,37.885m73.655,6.054c-.228.105-.477.334-.685.316-.775-.088-1.53-.255-2.295-.387.129-.141.248-.4.378-.4.775,0,1.54.035,2.3.105.119.009.2.237.3.36M499.309,321.352c.139-.422.268-.844.407-1.265.209.387.566.773.6,1.169a3.5,3.5,0,0,1-.407,1.257l-.6-1.16M155.088,37.9c.139-.132.258-.343.427-.378a1.038,1.038,0,0,1,.715.079c.447.29.268.536-.467.545a1.912,1.912,0,0,1-.676-.246m-9.607,8.787c.219.07.427.141.636.22-.109.105-.258.325-.338.308a6.451,6.451,0,0,1-.944-.36c.219-.053.427-.114.646-.167M303.54,82.041a1.91,1.91,0,0,1,.606-.29,2.237,2.237,0,0,1,.705.141,1.923,1.923,0,0,1-.606.3,2.689,2.689,0,0,1-.705-.149m-12.657,5.931c-.05.114-.06.308-.149.334a1.3,1.3,0,0,1-.7.1c-.666-.185-.616-.431.159-.562a1.8,1.8,0,0,1,.685.132m6.328,1.977-.795-.264c.229-.132.457-.36.705-.387.8-.088,1.152.141.864.457-.139.149-.507.132-.775.193M499.657,190.572c.2.044.517.026.566.132a.788.788,0,0,1,.079.677c-.338.606-.715.545-.894-.167-.05-.185.159-.422.248-.641M492.951,249.9v1.125c-.139-.167-.328-.308-.387-.492a.978.978,0,0,1,.05-.58c.01-.044.248-.044.338-.053m-15.438,61.159a3.181,3.181,0,0,1,.159.659c0,.07-.219.149-.338.228a2.59,2.59,0,0,1-.159-.65c0-.079.219-.158.338-.237m-79.138-209.18-.427.246-.06-.369ZM486.057,234.06l.258.422-.417.035Zm-21.012,56.906.387-.264.07.422Z" transform="translate(0 45.454)" fill="#55c0c2"/>
        <path id="Path_3505" data-name="Path 3505" d="M185.162,39.842a15.553,15.553,0,0,0-6.209-5.694,1.63,1.63,0,0,0-2.444,1.081,3.45,3.45,0,0,1,.636.325c.1.079.079.264.119.4-.2-.281-.407-.562-.606-.844-4.828-1.327-8.146-4.938-12.766-6.582.02-1.7-.755-2.689-2.861-2.443l.07-.062c-.457.729-.954,1.1-1.619.149l-.348-.29c-1.093-.167-2.533-.026-2.911-1.151-1.073-3.181-3.9-3.612-6.805-3.181-2.186.325-3.457-.035-4.848-1.52-1.083-1.142-2.881-1.5-4.649-1.722-3.954-.492-7.868-1.177-11.812-1.714A264.336,264.336,0,0,1,94.887,9.693a155.97,155.97,0,0,0-22.641-3.91C61.983,4.588,51.721,4.57,41.429,4.544c-2.851-.009-5.732.272-8.454-.87-.8-.334-2.086-.088-2.066.562.03.923.606,2.4,1.361,2.645,3.964,1.327,8.007,3,12.13,3.3a117.125,117.125,0,0,1,16.75,2.364c3.874.852,7.9,1.107,11.852,1.6,8.971,1.116,18.17,1.828,25.989,6.661a5.288,5.288,0,0,0,2.414.351c5.375.176,10.769.114,16.124.518,6.249.466,12.468,1.327,18.7,2.047a33.822,33.822,0,0,0,4.192.721c8.087-.132,14.932,2.935,21.677,6.327A54.492,54.492,0,0,1,168.75,34.2c4.888,3.418,10.7,4.464,16.551,5.492Z" transform="translate(27.676 27.451)" fill="#55c0c2"/>
        <path id="Path_3506" data-name="Path 3506" d="M86.951,16.843c6.755.975,13.491,2.056,20.266,2.873a84.312,84.312,0,0,0,9.438.246c.685.009,1.649-.026,1.669-.923,0-.193-.924-.545-1.44-.589a36.853,36.853,0,0,1-12.269-3.032c-2.762-1.239-6.05-1.52-8.941-2.6-4.331-1.626-9.14-1.582-13.342-4.112-3.646-2.2-8.454-2.891-12.786-4.174A110.2,110.2,0,0,0,44.452.016a26.479,26.479,0,0,0-4.232.316,1.309,1.309,0,0,0-.646.431c.219.369.477.958.8.993,4.8.615,9.607,1.142,14.405,1.714a12.152,12.152,0,0,1,1.649.4c-.735.36-1.48.685-2.176,1.1a4.639,4.639,0,0,0-1.2,1c-.6.694.159,2.548.954,2.364,3.6-.861,6.815.685,10.064,1.371,6.646,1.4,13.153,3.374,19.68,5.193,1.3.36,2.811.677,3.378,2.065Z" transform="translate(8.569 0.002)" fill="#55c0c2"/>
        <path id="Path_3507" data-name="Path 3507" d="M81.617,5.382c-2.156-2.5-5.692-1.775-8.514-2.654C69.209,1.489,64.857,1.551,60.725.839,56.642.127,52.251.778,48,.883c-.378.009-.755.448-1.123.694a7.205,7.205,0,0,0,1.341.773A35.362,35.362,0,0,0,61.639,3.836c2.593-.246,5.265-.387,7.55.448,4.163,1.538,8.335,1.169,12.567.967Z" transform="translate(-27.414 3.976)" fill="#55c0c2"/>
        <path id="Path_3508" data-name="Path 3508" d="M63.5,4.741a25.187,25.187,0,0,0,3.388.94c.348.035.755-.422,1.133-.659-.159-.2-.278-.475-.5-.6A22.823,22.823,0,0,0,58.1,1.507c-3.358-.193-6.746-.062-10.123-.044a1.254,1.254,0,0,0-.676.387c.169.351.378.914.646.949C53.482,3.546,58.876,5.11,63.5,4.741" transform="translate(-17.906 10.927)" fill="#55c0c2"/>
        <path id="Path_3509" data-name="Path 3509" d="M44.5,1.306c.606.5,1.123,1.274,1.838,1.459A69.012,69.012,0,0,1,58.295,6.754a13.13,13.13,0,0,0,3.268.826c2.176.387,4.788-.149,4.421-.835-.685-1.283-2.215-1.6-3.5-1.951-4.58-1.274-9.219-2.452-13.879-3.471a17.366,17.366,0,0,0-4.252.132Z" transform="translate(13.353 9.441)" fill="#55c0c2"/>
        <path id="Path_3510" data-name="Path 3510" d="M12.52,34.527c-1.341-4.473-3.408-8.6-7.312-11.836l.169-.123c-.3.4-.6.817-.894,1.221-.417.554-2.563.343-.914,1.828,1.6,1.432,1.152,3.963,4.1,4.93,1.888.615,2.007,3.541,4.212,4.543.209-.193.417-.378.636-.562" transform="translate(478.166 175.743)" fill="#55c0c2"/>
        <path id="Path_3511" data-name="Path 3511" d="M12.58,33.351c1.729,1.494,2.722,3.111,1.45,5.29-.149.264.328,1.177.586,1.2a6.894,6.894,0,0,0,2.3-.29c.834-.22,1.59-.8,1.391-1.573-.705-2.742-2.464-5.044-4.222-7.329a1.623,1.623,0,0,0-2.2-.352c-.894.554-.358,1.283-.07,1.951.1.228.189.466.288.7Z" transform="translate(388.427 233.816)" fill="#55c0c2"/>
        <path id="Path_3512" data-name="Path 3512" d="M42.464,4.705c1.341-.167,2.513-.852,4.053-.334a64.585,64.585,0,0,0,7.282,1.8c.457.1,1.043-.246,1.57-.4a8.2,8.2,0,0,0-.874-1.09c-.556-.536-1.182-1.011-1.778-1.511L52.9,3.3C50.5,2.816,48.107,2.289,45.7,1.85c-2.086-.378-2.8.334-3.1,2.979Z" transform="translate(42.804 13.669)" fill="#55c0c2"/>
        <path id="Path_3513" data-name="Path 3513" d="M41.846,4.756c1.6.264,3.388.2,4.749.844,3.626,1.714,5.4-.4,7.381-2.355l-.089.1c-.378-.351-.795-1.037-1.123-1Q47.8,2.906,42.879,3.71c-.368.062-.6.782-.894,1.2Z" transform="translate(50.336 18.205)" fill="#55c0c2"/>
        <path id="Path_3514" data-name="Path 3514" d="M12.113,28.353a11.534,11.534,0,0,0-.338-2.944c-.228-.6-1.351-1.529-1.609-1.424-2.285.94-3.527-.026-4.639-1.617-.209-.308-1.083-.624-1.252-.5a1.42,1.42,0,0,0-.338,2,5.1,5.1,0,0,0,2.871,2.575c1.828.589,3.646,1.186,5.474,1.784Z" transform="translate(471.261 170.081)" fill="#55c0c2"/>
        <path id="Path_3515" data-name="Path 3515" d="M6.829,18.338a4.483,4.483,0,0,1,2.633,4.376c.02,2.144,1.6,3.067,3.02,4.227a.726.726,0,0,0,.646.018c.219-.141.507-.518.437-.615-1.957-2.715-.934-6.555-4.123-8.752a1.509,1.509,0,0,0-2.484.914Z" transform="translate(438.615 134.147)" fill="#55c0c2"/>
        <path id="Path_3516" data-name="Path 3516" d="M24.452,7.473a3.115,3.115,0,0,1-1.033,2.733c-.586.492-2.474.852-.358,1.687a32.346,32.346,0,0,0,4.778,1.388,1.724,1.724,0,0,0,1.361-.536,1.469,1.469,0,0,0,.1-1.362,4.85,4.85,0,0,0-1.441-1.766C26.757,8.853,25.5,8.264,24.3,7.6Z" transform="translate(271.229 58.194)" fill="#55c0c2"/>
        <path id="Path_3517" data-name="Path 3517" d="M52.863,12.451a11.425,11.425,0,0,0,.447-1.388A4.309,4.309,0,0,0,53.4,9.841c-2.921-.457-5.9-1.415-8.643.483-.2.132-.238.431-.358.65l-.169-.132c3.129-.4,5.772,1.45,8.8,1.485Z" transform="translate(27.209 71.573)" fill="#55c0c2"/>
        <path id="Path_3518" data-name="Path 3518" d="M10.22,34.076c1.252,2.768,4.172,3.55,6.914,4.543l-.149.088c.4-2.337-2.96-3.322-2.672-5.668a2.345,2.345,0,0,0-1.441-.369,22.068,22.068,0,0,0-2.782,1.52Z" transform="translate(402.649 254.189)" fill="#55c0c2"/>
        <path id="Path_3519" data-name="Path 3519" d="M2.77,22.569c-.169,2.627,1.56,4.587,3.06,6.6.189.255.844.281,1.291.3.119.009.437-.439.378-.562C6.306,26.567,6.177,23.58,2.68,22.639Z" transform="translate(485.899 175.75)" fill="#55c0c2"/>
        <path id="Path_3520" data-name="Path 3520" d="M21.643,16c-.924-2.856-4.133-3.058-6.438-4.306-.139-.079-.7.123-.705.228-.06.4-.149.975.109,1.2,1.192,1.028,2.5,1.96,3.775,2.926l-.179-.132c1.172,0,2.345.009,3.517.009Z" transform="translate(354.905 90.908)" fill="#55c0c2"/>
        <path id="Path_3521" data-name="Path 3521" d="M41.067,2.482a9.94,9.94,0,0,0,8.623,3.032l-.129.105c-2.066-2.768-5.037-3.541-8.583-3.04Z" transform="translate(63.245 18.968)" fill="#55c0c2"/>
        <path id="Path_3522" data-name="Path 3522" d="M24.949,7.491a2.509,2.509,0,0,0,.368.668,4.464,4.464,0,0,0,4.4,1.529c.328-.079.815-.756.715-.975-.735-1.67-2.821-2.346-4.878-1.661a2.343,2.343,0,0,0-.606.439" transform="translate(241.734 52.851)" fill="#55c0c2"/>
        <path id="Path_3523" data-name="Path 3523" d="M40.574,11.944C39.481,9.817,36.987,9.765,34.961,9.1c-.606-.211-1.53.343-2.315.545a6.683,6.683,0,0,0,1.282.949c2.037.888,4.023,2,6.477,1.5Z" transform="translate(155.136 70.472)" fill="#55c0c2"/>
        <path id="Path_3524" data-name="Path 3524" d="M11.5,33.322a14.105,14.105,0,0,1-.914,1.23c-.755.826-1.222,1.854-.179,2.531a6.865,6.865,0,0,0,3.11.606c.725.044,1.073-.492.705-.914-.964-1.116-1.013-2.856-2.871-3.366Z" transform="translate(408.282 259.487)" fill="#55c0c2"/>
        <path id="Path_3525" data-name="Path 3525" d="M40.346,8.787a9.189,9.189,0,0,0,1.917-.931,1.112,1.112,0,0,0,.02-1.213,1.5,1.5,0,0,0-2.146-.088,10.539,10.539,0,0,0-1.5,1.582c.5.185.984.378,1.709.65" transform="translate(93.74 47.865)" fill="#55c0c2"/>
        <path id="Path_3526" data-name="Path 3526" d="M52.989,10.428c-1.113-1.924-3.06-1.661-4.937-1.4a1.285,1.285,0,0,0-.834.949,1.5,1.5,0,0,0,.815,1.09c1.619.65,3.139-.237,4.719-.4Z" transform="translate(-2.035 68.903)" fill="#55c0c2"/>
        <path id="Path_3527" data-name="Path 3527" d="M49.409,9.511c-1.123,0-2.235-.026-3.358.009a1.552,1.552,0,0,0-.725.316c-.417.29-.378.764.268,1.081a18.546,18.546,0,0,0,3.08,1.186,4.616,4.616,0,0,0,1.58-.176c-.278-.606-.566-1.213-.825-1.828a4.558,4.558,0,0,1-.189-.721Z" transform="translate(22.199 73.037)" fill="#55c0c2"/>
        <path id="Path_3528" data-name="Path 3528" d="M41.968,5.177c.8-.281,1.341-.835.964-1.555a1.5,1.5,0,0,0-1.947-.659,1.3,1.3,0,0,0-.676,1.063,1.384,1.384,0,0,0,1.659,1.151" transform="translate(76.591 22.002)" fill="#55c0c2"/>
        <path id="Path_3529" data-name="Path 3529" d="M33.618,10.354c.3-.044.656-.018.725-.123.228-.4.646-1,.477-1.23A5.081,5.081,0,0,0,33.1,7.595a1.377,1.377,0,0,0-1.1.527c-.229,1.151.785,1.678,1.619,2.232" transform="translate(167.606 59.004)" fill="#55c0c2"/>
        <path id="Path_3530" data-name="Path 3530" d="M33.9,8.86c1.073,2.241,3.229,1.424,5.086,1.388.238,0,.467-.255.7-.387-.278-.255-.546-.712-.844-.729-1.679-.114-3.358-.123-5.037-.158Z" transform="translate(144.521 68.995)" fill="#55c0c2"/>
        <path id="Path_3531" data-name="Path 3531" d="M33.207,11.021a1.569,1.569,0,0,0,1.967.668,1.216,1.216,0,0,0,.5-1.151,1.29,1.29,0,0,0-1.858-.729c-.348.185-.417.8-.606,1.213" transform="translate(154.436 75.041)" fill="#55c0c2"/>
        <path id="Path_3532" data-name="Path 3532" d="M7.092,24.869c-.1-1.177.4-2.513-1.043-3.339a7.053,7.053,0,0,0-1.421-.422c-.149.431-.556.975-.4,1.274a4.759,4.759,0,0,0,2.98,2.39Z" transform="translate(471.146 164.373)" fill="#55c0c2"/>
        <path id="Path_3533" data-name="Path 3533" d="M8.058,45.438c-.109-.984-.189-1.968-.328-2.944-.1-.659-.536-.879-1.2-.633-.238.1-.6.22-.666.4-.159.4-.407,1.054-.2,1.248a22.69,22.69,0,0,0,2.523,1.819Z" transform="translate(456.371 325.225)" fill="#55c0c2"/>
        <path id="Path_3534" data-name="Path 3534" d="M47.255,2.762c-1.113.018-2.245-.018-3.348.088-.308.026-.576.483-.854.738a5.43,5.43,0,0,0,1.48.527,2.571,2.571,0,0,0,2.583-1.5Z" transform="translate(45.066 20.348)" fill="#55c0c2"/>
        <path id="Path_3535" data-name="Path 3535" d="M47.839,3.524c-.308.246-.626.492-.934.738.616.36,1.222.729,1.868,1.046.06.026.487-.308.507-.5.109-.914-.576-1.2-1.44-1.283" transform="translate(4.765 27.442)" fill="#55c0c2"/>
        <path id="Path_3536" data-name="Path 3536" d="M23.678,5.6l-.894.817c.586.4,1.172.782,1.788,1.151.01.009.437-.351.447-.562.06-.808-.368-1.327-1.341-1.406" transform="translate(268.666 43.609)" fill="#55c0c2"/>
        <path id="Path_3537" data-name="Path 3537" d="M31.428,6.187c.7,2.592.7,2.592,3.586,2.961l.229-.228a5.542,5.542,0,0,0-3.268-3.207Z" transform="translate(172.567 44.481)" fill="#55c0c2"/>
        <path id="Path_3538" data-name="Path 3538" d="M51.168,7.427c.646-.255,1.46-.378,1.5-.615.139-.879-.775-.94-1.391-.861a9.2,9.2,0,0,0-2.046.738c.685.264,1.381.527,1.937.738" transform="translate(-21.732 46.14)" fill="#55c0c2"/>
        <path id="Path_3539" data-name="Path 3539" d="M38.24,6.3c-.725.211-.9.615-.387,1.046a6.957,6.957,0,0,0,1.351.7c.149-.431.546-.958.387-1.257s-.874-.343-1.351-.492" transform="translate(107.301 49.099)" fill="#55c0c2"/>
        <path id="Path_3540" data-name="Path 3540" d="M38.171,8.761c-.7-1.388-1.987-1.617-3.5-1.362a1.408,1.408,0,0,0-.636.387c.179.334.4.852.666.888,1.113.149,2.245.141,3.368.185Z" transform="translate(143.71 56.907)" fill="#55c0c2"/>
        <path id="Path_3541" data-name="Path 3541" d="M24.618,8.961c.089.167.169.466.278.475a21.06,21.06,0,0,0,2.354.053c.119,0,.228-.308.348-.475-.775-.167-1.55-.369-2.335-.475-.189-.026-.427.272-.646.422" transform="translate(247.866 66.486)" fill="#55c0c2"/>
        <path id="Path_3542" data-name="Path 3542" d="M29.37,10.567a6.946,6.946,0,0,0-1.56.123,4.576,4.576,0,0,0-1.063.747l1.639,1.4a3.964,3.964,0,0,0,.775-1.028,4.617,4.617,0,0,0,.04-1.388Z" transform="translate(224.944 81.128)" fill="#55c0c2"/>
        <path id="Path_3543" data-name="Path 3543" d="M13.712,17.731c.149-1.142-.7-1.617-1.679-2.039-.576-.246-1-.158-1.212.431a.725.725,0,0,0,.159.668,3.107,3.107,0,0,0,2.821.861Z" transform="translate(399.028 121.196)" fill="#55c0c2"/>
        <path id="Path_3544" data-name="Path 3544" d="M5.431,19.671c-.437.431-.993.747-.964,1.019a1.587,1.587,0,0,0,.775,1.186c.368.149.984-.2,1.48-.334-.407-.6-.825-1.2-1.291-1.872" transform="translate(468.943 153.183)" fill="#55c0c2"/>
        <path id="Path_3545" data-name="Path 3545" d="M4.091,21.525a7.6,7.6,0,0,0,.04,2.179,1.576,1.576,0,0,0,1.3.641c1.073-.211,1.023-.931.576-1.643a2.093,2.093,0,0,0-2.037-1.081Z" transform="translate(474.266 167.62)" fill="#55c0c2"/>
        <path id="Path_3546" data-name="Path 3546" d="M14.425,30.359a6.359,6.359,0,0,0-1.59.334c-.387.193-.934.852-.844.967a11.966,11.966,0,0,0,1.6,1.485,4.458,4.458,0,0,0,1.013-.967,5.156,5.156,0,0,0,.288-1.424Z" transform="translate(386.115 236.413)" fill="#55c0c2"/>
        <path id="Path_3547" data-name="Path 3547" d="M12.605,33.182c.209-.3.427-.606.646-.905-.626-.316-1.232-.633-1.868-.914-.02-.009-.378.36-.348.536a1.474,1.474,0,0,0,1.57,1.283" transform="translate(397.164 244.231)" fill="#55c0c2"/>
        <path id="Path_3548" data-name="Path 3548" d="M12.706,31.5a3.968,3.968,0,0,0-.825.185c-.954.492-2.076,1.09-1.421,2.179.258.431,1.5.413,2.295.606l-.169.141.03-3.2Z" transform="translate(405.299 244.621)" fill="#55c0c2"/>
        <path id="Path_3549" data-name="Path 3549" d="M49.428.663c.229.07.487.237.685.193.755-.158.834-.475.219-.756a1.07,1.07,0,0,0-.725.1c-.119.053-.119.3-.179.466" transform="translate(-21.75 0.532)" fill="#55c0c2"/>
        <path id="Path_3550" data-name="Path 3550" d="M50.03,2.711c-.705-1.344-2.106-1.432-3.507-1.529l.139-.132c.487,1.757,2.176,1.318,3.507,1.511Z" transform="translate(7.68 8.177)" fill="#55c0c2"/>
        <path id="Path_3551" data-name="Path 3551" d="M49.465,3.026c-1.689-1.643-1.689-1.643-3.3-.026l-.159-.123c1.2.009,2.4.018,3.606.018Z" transform="translate(13.351 13.942)" fill="#55c0c2"/>
        <path id="Path_3552" data-name="Path 3552" d="M47.553,2.037c-.4.29-.924.518-1.142.888-.159.281.07.747.129,1.125.258-.255.636-.475.735-.773a5.171,5.171,0,0,0,.119-1.362Z" transform="translate(11.965 14.905)" fill="#55c0c2"/>
        <path id="Path_3553" data-name="Path 3553" d="M44.564,2.5c.02.167-.01.431.089.483a1.1,1.1,0,0,0,.735.114c.825-.308.775-.624-.119-.782a1.841,1.841,0,0,0-.705.185" transform="translate(31.336 17.992)" fill="#55c0c2"/>
        <path id="Path_3554" data-name="Path 3554" d="M36.516,4.326c.477-.176.944-.36,1.421-.545-.219-.149-.467-.466-.646-.431a9.724,9.724,0,0,0-1.421.5l.646.475" transform="translate(125.745 26.069)" fill="#55c0c2"/>
        <path id="Path_3555" data-name="Path 3555" d="M41.236,3.588c.01.149-.03.343.05.448.417.483,1.937.211,1.808-.308a.7.7,0,0,0-.556-.378,7.513,7.513,0,0,0-1.3.237" transform="translate(67.289 26.095)" fill="#55c0c2"/>
        <path id="Path_3556" data-name="Path 3556" d="M47.488,4.032c.238.105.477.316.705.3.8-.035.984-.343.467-.7a1.078,1.078,0,0,0-.785-.053c-.159.044-.258.3-.387.457" transform="translate(-0.686 27.47)" fill="#55c0c2"/>
        <path id="Path_3557" data-name="Path 3557" d="M34.819,6.7A8.168,8.168,0,0,0,33.21,5.431c-.248-.123-.834.325-1.262.51a3.98,3.98,0,0,0,1.033.861,5.719,5.719,0,0,0,1.53.167Z" transform="translate(167.825 42.126)" fill="#55c0c2"/>
        <path id="Path_3558" data-name="Path 3558" d="M31.2,6.305c.358.343.646.879,1.083.984.387.1.924-.264,1.391-.431A2.276,2.276,0,0,0,33.05,6.4c-.527-.149-1.073-.22-1.609-.325Z" transform="translate(176.38 47.323)" fill="#55c0c2"/>
        <path id="Path_3559" data-name="Path 3559" d="M29.935,7.736c.338.255.656.677.964.668.348-.009.685-.4,1.023-.633-.189-.158-.407-.475-.566-.448a8.934,8.934,0,0,0-1.421.413" transform="translate(190.721 57.017)" fill="#55c0c2"/>
        <path id="Path_3560" data-name="Path 3560" d="M33.756,7.576a1.449,1.449,0,0,0,1.55,1.318,3.881,3.881,0,0,0,1.351-.571,4.581,4.581,0,0,0-1.182-.764,7.014,7.014,0,0,0-1.619-.079Z" transform="translate(148.026 58.188)" fill="#55c0c2"/>
        <path id="Path_3561" data-name="Path 3561" d="M23.814,8.989a6.4,6.4,0,0,0-1.083-1.1c-.626-.387-1.113-.2-1.182.387,0,.079.467.237.735.3.546.114,1.113.185,1.669.272Z" transform="translate(282 59.86)" fill="#55c0c2"/>
        <path id="Path_3562" data-name="Path 3562" d="M21.331,7.818c.755,1.292,2.235,1.239,3.547,1.5l-.139.141a3.811,3.811,0,0,0-3.547-1.5Z" transform="translate(284.622 60.881)" fill="#55c0c2"/>
        <path id="Path_3563" data-name="Path 3563" d="M28.391,8.388c.02.149-.02.4.07.431a1.107,1.107,0,0,0,.715.123c.815-.272.785-.562-.079-.721a2.019,2.019,0,0,0-.705.167" transform="translate(208.22 63.975)" fill="#55c0c2"/>
        <path id="Path_3564" data-name="Path 3564" d="M26.785,8.976c.219.378.447.756.676,1.142.179-.176.566-.4.527-.51a7.424,7.424,0,0,0-.676-1.169c-.169.176-.348.351-.527.536" transform="translate(225.949 65.724)" fill="#55c0c2"/>
        <path id="Path_3565" data-name="Path 3565" d="M26.043,9.2c-.338-.246-.666-.668-.964-.65-.338.009-.666.413-.993.65.179.167.4.492.527.466A9.132,9.132,0,0,0,26.043,9.2" transform="translate(254.706 66.557)" fill="#55c0c2"/>
        <path id="Path_3566" data-name="Path 3566" d="M46.977,9.265a1.532,1.532,0,0,0,1.768,1.142,1.158,1.158,0,0,0,.705-.29c.338-.343.119-.7-.6-.879a12.611,12.611,0,0,0-1.639-.211Z" transform="translate(3.728 70.303)" fill="#55c0c2"/>
        <path id="Path_3567" data-name="Path 3567" d="M22.176,9.867a8.245,8.245,0,0,0,1.361.466c.149.026.378-.272.576-.422a7.834,7.834,0,0,0-1.331-.492c-.149-.035-.387.272-.606.448" transform="translate(275.611 73.322)" fill="#55c0c2"/>
        <path id="Path_3568" data-name="Path 3568" d="M47.239,10.418l.527-.835a7.982,7.982,0,0,0-1.351-.158c-.179,0-.328.316-.5.483.437.167.884.343,1.321.51" transform="translate(16.093 73.378)" fill="#55c0c2"/>
        <path id="Path_3569" data-name="Path 3569" d="M32.064,10.071c.209.1.427.29.626.281.725-.035.894-.308.427-.641a1.039,1.039,0,0,0-.715-.088c-.149.044-.229.29-.338.448" transform="translate(168.117 74.734)" fill="#55c0c2"/>
        <path id="Path_3570" data-name="Path 3570" d="M44.328,9.548A5.019,5.019,0,0,0,44.4,11c.089.316.507.554.775.817.079-.413.368-.914.2-1.23-.209-.387-.795-.615-1.212-.914Z" transform="translate(35.914 74.353)" fill="#55c0c2"/>
        <path id="Path_3571" data-name="Path 3571" d="M32.767,10.41c.209.1.427.29.626.29.705-.018.9-.3.477-.659A.912.912,0,0,0,33.165,10c-.169.044-.268.264-.4.413" transform="translate(160.409 77.472)" fill="#55c0c2"/>
        <path id="Path_3572" data-name="Path 3572" d="M32.607,10.115c-.238.088-.656.132-.685.255-.139.492.258.729.993.58.169-.035.268-.316.407-.483-.238-.123-.477-.237-.715-.351" transform="translate(169.859 78.768)" fill="#55c0c2"/>
        <path id="Path_3573" data-name="Path 3573" d="M24.945,12.333a8,8,0,0,0,1.331.422c.139.018.348-.308.527-.475a8.72,8.72,0,0,0-1.361-.439c-.119-.026-.328.316-.5.492" transform="translate(245.413 92.2)" fill="#55c0c2"/>
        <path id="Path_3574" data-name="Path 3574" d="M13.319,13c-.079-.158-.159-.439-.248-.439a3,3,0,0,0-.775.141c.079.158.159.448.248.448A3.1,3.1,0,0,0,13.319,13" transform="translate(384.558 97.806)" fill="#55c0c2"/>
        <path id="Path_3575" data-name="Path 3575" d="M6.362,18.341c.258.272.536.747.735.721A4.213,4.213,0,0,0,8.319,18.5c-.2-.149-.4-.413-.586-.4a8.516,8.516,0,0,0-1.371.246" transform="translate(448.51 140.91)" fill="#55c0c2"/>
        <path id="Path_3576" data-name="Path 3576" d="M5.616,18.4a5.385,5.385,0,0,0,.139,1.45c.109.316.517.545.795.817.06-.413.308-.905.129-1.213-.228-.387-.795-.615-1.212-.914Z" transform="translate(458.982 143.293)" fill="#55c0c2"/>
        <path id="Path_3577" data-name="Path 3577" d="M4.156,20.486a3.888,3.888,0,0,0,.129,1.327c.109.255.6.378.9.562.05-.4.278-.9.1-1.178-.209-.308-.795-.431-1.212-.641Z" transform="translate(474.181 159.53)" fill="#55c0c2"/>
        <path id="Path_3578" data-name="Path 3578" d="M24.174,23.349c-.07-.475-.1-.958-.209-1.432-.05-.22-.258-.615-.358-.615-.616.062-.874.5-.5,1.037a4.913,4.913,0,0,0,1.2.888Z" transform="translate(267.871 165.884)" fill="#55c0c2"/>
        <path id="Path_3579" data-name="Path 3579" d="M23.562,22.179a4.926,4.926,0,0,0-1.311.87c-.4.527-.129,1,.507,1.142.07.009.328-.4.387-.641.129-.492.179-1,.268-1.5Z" transform="translate(277.275 171.685)" fill="#55c0c2"/>
        <path id="Path_3580" data-name="Path 3580" d="M4.267,24.36A4.819,4.819,0,0,0,4.1,23.042c-.119-.281-.527-.466-.815-.694-.03.387-.228.852-.06,1.134.209.352.745.545,1.133.808Z" transform="translate(484.312 174.029)" fill="#55c0c2"/>
        <path id="Path_3581" data-name="Path 3581" d="M20.717,23.64c.209.352.417.712.626,1.063.159-.158.5-.351.457-.457a6.13,6.13,0,0,0-.586-1.081l-.5.475" transform="translate(292.419 180.399)" fill="#55c0c2"/>
        <path id="Path_3582" data-name="Path 3582" d="M13.477,32.059a7.141,7.141,0,0,0-1.689.07c-.338.088-.556.518-.825.8.487.07,1.093.325,1.441.167.427-.2.636-.764.934-1.16Z" transform="translate(397.633 248.694)" fill="#55c0c2"/>
        <path id="Path_3583" data-name="Path 3583" d="M10.292,37.745c-.079-.668-.139-1.336-.278-1.995-.03-.167-.328-.29-.507-.439-.219.378-.646.764-.626,1.134.04.747.626,1.186,1.52,1.213Z" transform="translate(421.402 274.975)" fill="#55c0c2"/>
        <path id="Path_3584" data-name="Path 3584" d="M8.42,37.091l.209.571A2.712,2.712,0,0,0,9.145,37c.04-.105-.258-.3-.407-.457l-.318.545" transform="translate(427.239 284.593)" fill="#55c0c2"/>
        <path id="Path_3585" data-name="Path 3585" d="M5.5,42.741l-.7.237c.308.2.626.4.934.606.139-.176.278-.343.407-.51L5.5,42.741" transform="translate(466.173 332.835)" fill="#55c0c2"/>
        <path id="Path_3586" data-name="Path 3586" d="M1.271,47.023c.179.167.308.422.527.492.646.211,1.152-.808.7-1.441-.119-.167-.407-.228-.626-.343l-.6,1.292" transform="translate(504.733 356.119)" fill="#55c0c2"/>
        <path id="Path_3587" data-name="Path 3587" d="M4.123,49.1A5.991,5.991,0,0,0,4.7,47.84c.04-.141-.348-.36-.546-.545a7.693,7.693,0,0,0-.606,1.292c-.04.123.378.334.576.51" transform="translate(480.126 368.298)" fill="#55c0c2"/>
        <path id="Path_3588" data-name="Path 3588" d="M1.63,45.653l.954.457a4.717,4.717,0,0,0,.159-1.16c-.01-.167-.358-.29-.546-.431L1.63,45.653" transform="translate(501.097 346.68)" fill="#55c0c2"/>
        <path id="Path_3589" data-name="Path 3589" d="M48.447.055l-.5.475c.189.132.467.413.566.369.715-.3.676-.606-.07-.844" transform="translate(-5.361 0.428)" fill="#55c0c2"/>
        <path id="Path_3590" data-name="Path 3590" d="M49.893.372l.576.149L50.4.082Z" transform="translate(-26.098 0.639)" fill="#55c0c2"/>
        <path id="Path_3591" data-name="Path 3591" d="M46.092,1.916c.219.237.427.475.646.712-.06-.114-.1-.272-.2-.343a4.312,4.312,0,0,0-.6-.237Z" transform="translate(16.873 14.92)" fill="#55c0c2"/>
        <path id="Path_3592" data-name="Path 3592" d="M44.683,2.215l-.934.615c.169-.035.407-.035.5-.132a2.543,2.543,0,0,0,.3-.606Z" transform="translate(40.724 16.291)" fill="#55c0c2"/>
        <path id="Path_3593" data-name="Path 3593" d="M41.024,2.786c.238.237.487.475.725.7-.07-.123-.1-.29-.209-.36a3.857,3.857,0,0,0-.636-.237Z" transform="translate(71.911 21.695)" fill="#55c0c2"/>
        <path id="Path_3594" data-name="Path 3594" d="M36.862,3.2l-.159.369.427-.053Z" transform="translate(118.271 24.901)" fill="#55c0c2"/>
        <path id="Path_3595" data-name="Path 3595" d="M34.5,5.554c-.248-.387-.5-.773-.745-1.151-1.113,1.248.348.844.864,1.046Z" transform="translate(154.17 34.287)" fill="#55c0c2"/>
        <path id="Path_3596" data-name="Path 3596" d="M33.355,4.521c.219.369.447.747.666,1.125,1.1-1.177-.4-.756-.785-1.019Z" transform="translate(155.431 35.206)" fill="#55c0c2"/>
        <path id="Path_3597" data-name="Path 3597" d="M31.757,5.822a1.963,1.963,0,0,0,1.649,1.564l.546-.466a2.209,2.209,0,0,0-1.888-1.362Z" transform="translate(170.589 43.282)" fill="#55c0c2"/>
        <path id="Path_3598" data-name="Path 3598" d="M41.05,6.313l.219-.51-.576.07Z" transform="translate(74.501 45.191)" fill="#55c0c2"/>
        <path id="Path_3599" data-name="Path 3599" d="M35.241,7.1c-.159-.36-.219-.923-.507-1.037-.8-.325-1.2.176-1.391.835l.358.29a2.914,2.914,0,0,0,1.619-.158Z" transform="translate(153.455 46.439)" fill="#55c0c2"/>
        <path id="Path_3600" data-name="Path 3600" d="M39.812,6.669c-.129-.22-.268-.431-.4-.65.179.176.368.351.546.527Z" transform="translate(88.502 46.871)" fill="#55c0c2"/>
        <path id="Path_3601" data-name="Path 3601" d="M39.529,6.079c.119.22.229.448.348.668l-.5-.545Z" transform="translate(88.934 47.339)" fill="#55c0c2"/>
        <path id="Path_3602" data-name="Path 3602" d="M22.136,6.945l.527.149-.07-.422Z" transform="translate(277.458 51.959)" fill="#55c0c2"/>
        <path id="Path_3603" data-name="Path 3603" d="M45.689,7.831c-.536-.905-1.073-1.643-1.629-.009L43.921,7.7c.636,0,1.272-.009,1.917-.009Z" transform="translate(37.86 53.381)" fill="#55c0c2"/>
        <path id="Path_3604" data-name="Path 3604" d="M23.3,8.158c-.238-.255-.477-.5-.715-.756.07.123.1.3.219.369a3.11,3.11,0,0,0,.646.255Z" transform="translate(272.234 57.641)" fill="#55c0c2"/>
        <path id="Path_3605" data-name="Path 3605" d="M22.25,9.093c-.119-.211-.238-.422-.358-.641.169.176.338.343.507.51Z" transform="translate(280.147 65.818)" fill="#55c0c2"/>
        <path id="Path_3606" data-name="Path 3606" d="M23.477,10.162c-.02-1.019-.7-1.45-1.758-1.52l.149-.132c.03.984.576,1.529,1.719,1.555Z" transform="translate(280.678 66.269)" fill="#55c0c2"/>
        <path id="Path_3607" data-name="Path 3607" d="M23.318,9.844l-.676-1.1c-1.063,1.16.258.835.785,1Z" transform="translate(275.662 68.107)" fill="#55c0c2"/>
        <path id="Path_3608" data-name="Path 3608" d="M22.25,8.86c.209.343.417.685.626,1.037,1-1.09-.348-.712-.735-.94Z" transform="translate(276.839 68.995)" fill="#55c0c2"/>
        <path id="Path_3609" data-name="Path 3609" d="M46.578,9.269l-.159.378.427-.053Z" transform="translate(12.039 72.178)" fill="#55c0c2"/>
        <path id="Path_3610" data-name="Path 3610" d="M32.569,9.528l.934.668c-.258-.272-.507-.545-.765-.817Z" transform="translate(162.972 73.037)" fill="#55c0c2"/>
        <path id="Path_3611" data-name="Path 3611" d="M32.486,10.928c-.268-.316-.527-.641-.785-.967-1.083.949.1.888.626,1.116Z" transform="translate(177.003 77.569)" fill="#55c0c2"/>
        <path id="Path_3612" data-name="Path 3612" d="M23.533,11.463c-.626-1.3-1.182-1.318-1.679.062l-.129-.123c.6.018,1.212.044,1.8.07Z" transform="translate(280.672 81.681)" fill="#55c0c2"/>
        <path id="Path_3613" data-name="Path 3613" d="M25.954,10.944l.546.176-.07-.466Z" transform="translate(235.696 82.968)" fill="#55c0c2"/>
        <path id="Path_3614" data-name="Path 3614" d="M43.443,11.23c.248.167.457.4.636.387s.348-.281.527-.439c-.2-.123-.407-.369-.6-.36s-.378.264-.566.413" transform="translate(43.842 84.234)" fill="#55c0c2"/>
        <path id="Path_3615" data-name="Path 3615" d="M21.639,12.056c-.238-.36-.477-.712-.715-1.072-.258.22-.517.439-.775.668.407.211.8.431,1.212.641Z" transform="translate(298.223 85.535)" fill="#55c0c2"/>
        <path id="Path_3616" data-name="Path 3616" d="M25.614,11.967l.536.149-.06-.413Z" transform="translate(239.421 91.135)" fill="#55c0c2"/>
        <path id="Path_3617" data-name="Path 3617" d="M23.388,12.526c.248-.2.5-.4.745-.615-.149.062-.358.1-.427.185a2.071,2.071,0,0,0-.179.571Z" transform="translate(263.551 92.754)" fill="#55c0c2"/>
        <path id="Path_3618" data-name="Path 3618" d="M24.343,12.113c-.3.193-.6.378-.894.571.159-.035.368-.035.447-.123a2.566,2.566,0,0,0,.308-.58Z" transform="translate(262.735 93.299)" fill="#55c0c2"/>
        <path id="Path_3619" data-name="Path 3619" d="M14.425,12.158c.089.65.387.914.874.738.02-.009-.04-.431-.179-.5a2.4,2.4,0,0,0-.775-.158Z" transform="translate(362.212 94.677)" fill="#55c0c2"/>
        <path id="Path_3620" data-name="Path 3620" d="M11.413,14.633c.278-.211.556-.431.834-.641-.139.062-.348.088-.427.185a2.9,2.9,0,0,0-.268.58Z" transform="translate(394.402 108.959)" fill="#55c0c2"/>
        <path id="Path_3621" data-name="Path 3621" d="M20.925,14.3l-.189.4.487-.053Z" transform="translate(292.802 111.354)" fill="#55c0c2"/>
        <path id="Path_3622" data-name="Path 3622" d="M20.931,16.148c1.162-.483,1.6-.975.01-1.467l.109-.1v1.661Z" transform="translate(290.119 113.569)" fill="#55c0c2"/>
        <path id="Path_3623" data-name="Path 3623" d="M10.792,15.8c.288.246.576.492.874.738-.07-.158-.079-.4-.209-.475a3.2,3.2,0,0,0-.755-.185Z" transform="translate(402.037 123.046)" fill="#55c0c2"/>
        <path id="Path_3624" data-name="Path 3624" d="M9.837,17.538c-.268-.255-.527-.518-.785-.773.05.167.04.413.169.483a3.036,3.036,0,0,0,.735.185Z" transform="translate(420.149 130.553)" fill="#55c0c2"/>
        <path id="Path_3625" data-name="Path 3625" d="M10.134,17.464c-.7.044-1.421.167-1.222.958.06.255.715.4,1.1.589l.129-.123c-.05-.51-.1-1.019-.139-1.529Z" transform="translate(421.68 135.179)" fill="#55c0c2"/>
        <path id="Path_3626" data-name="Path 3626" d="M9.435,17.941c.477.677.974,1.318,1.8.343a9.135,9.135,0,0,0-1.1-.949c-.238.193-.467.4-.7.606" transform="translate(415.067 134.992)" fill="#55c0c2"/>
        <path id="Path_3627" data-name="Path 3627" d="M8.679,17.779a1.561,1.561,0,0,0,1.739,1.5l.1-.079a1.5,1.5,0,0,0,.258-1.134l-.566-.545a4.414,4.414,0,0,0-1.4.141Z" transform="translate(423.016 136.41)" fill="#55c0c2"/>
        <path id="Path_3628" data-name="Path 3628" d="M6.464,19.126c-.3-.264-.6-.536-.884-.8.079.158.109.378.248.448a3.169,3.169,0,0,0,.785.211Z" transform="translate(457.985 142.709)" fill="#55c0c2"/>
        <path id="Path_3629" data-name="Path 3629" d="M5.8,19.469l.546.431c.159-.167.457-.343.437-.492s-.328-.3-.507-.439l-.477.5" transform="translate(455.672 147.708)" fill="#55c0c2"/>
        <path id="Path_3630" data-name="Path 3630" d="M5.269,19.64l.2-.466-.507.053Z" transform="translate(465.283 149.311)" fill="#55c0c2"/>
        <path id="Path_3631" data-name="Path 3631" d="M6.38,19.894c.288-.237.566-.475.854-.7-.149.07-.348.105-.427.211a3.226,3.226,0,0,0-.3.606Z" transform="translate(449.416 149.445)" fill="#55c0c2"/>
        <path id="Path_3632" data-name="Path 3632" d="M24.3,19.9l-.616-.211.07.527Z" transform="translate(260.462 153.297)" fill="#55c0c2"/>
        <path id="Path_3633" data-name="Path 3633" d="M4.926,20.66l.189-.448-.5.053Z" transform="translate(469.035 157.391)" fill="#55c0c2"/>
        <path id="Path_3634" data-name="Path 3634" d="M5.236,21.467c-.209-.369-.407-.738-.616-1.1-1.053,1.028.119.87.705,1.028Z" transform="translate(473.012 158.618)" fill="#55c0c2"/>
        <path id="Path_3635" data-name="Path 3635" d="M22.677,21.454c-.268.22-.527.439-.785.659.159-.062.387-.07.467-.176a2.218,2.218,0,0,0,.2-.589Z" transform="translate(279.869 166.25)" fill="#55c0c2"/>
        <path id="Path_3636" data-name="Path 3636" d="M23.036,21.521c.119.2.248.4.368.6l-.507-.475Z" transform="translate(269.158 167.589)" fill="#55c0c2"/>
        <path id="Path_3637" data-name="Path 3637" d="M21.992,22.7l.864-.738c-.179.062-.447.079-.527.193a2.166,2.166,0,0,0-.189.677Z" transform="translate(278.696 171.031)" fill="#55c0c2"/>
        <path id="Path_3638" data-name="Path 3638" d="M22.491,22.865l.447.123-.06-.352Z" transform="translate(273.659 176.28)" fill="#55c0c2"/>
        <path id="Path_3639" data-name="Path 3639" d="M21.972,23.245l.536.185-.05-.457Z" transform="translate(279.247 178.891)" fill="#55c0c2"/>
        <path id="Path_3640" data-name="Path 3640" d="M21.145,23.884c-.417.141-1.063.167-1.222.431-.417.7.268,1.037.864,1.336l.517-.518a5.794,5.794,0,0,0-.288-1.353Z" transform="translate(302.075 185.173)" fill="#55c0c2"/>
        <path id="Path_3641" data-name="Path 3641" d="M2.856,24.491a10.072,10.072,0,0,0,1.063.993c1.123-.747.338-1.151-.427-1.555-.219.185-.427.369-.636.562" transform="translate(487.184 186.341)" fill="#55c0c2"/>
        <path id="Path_3642" data-name="Path 3642" d="M1.264,30.754l1.729-1.59.129.149C2.5,29.3,1.87,29.3,1.244,29.3l.129-.149v1.7Z" transform="translate(504.552 227.037)" fill="#55c0c2"/>
        <path id="Path_3643" data-name="Path 3643" d="M13.58,29.288l-.715.29c.189-.141.378-.281.576-.422Z" transform="translate(378.644 227.045)" fill="#55c0c2"/>
        <path id="Path_3644" data-name="Path 3644" d="M11.767,30.643c-.268.22-.536.431-.8.65.159-.053.4-.053.477-.158a1.763,1.763,0,0,0,.209-.589Z" transform="translate(399.363 237.869)" fill="#55c0c2"/>
        <path id="Path_3645" data-name="Path 3645" d="M10.912,32.215l.656-.316c-.169.149-.348.3-.517.439Z" transform="translate(400.059 248.405)" fill="#55c0c2"/>
        <path id="Path_3646" data-name="Path 3646" d="M11.125,33.433c-.109-.228-.219-.466-.338-.694.159.193.318.387.467.58Z" transform="translate(401.615 254.947)" fill="#55c0c2"/>
        <path id="Path_3647" data-name="Path 3647" d="M11.02,32.94c-.487.176-.964.36-1.45.536,1.321,1.09,1.013-.228,1.291-.677Z" transform="translate(413.939 255.414)" fill="#55c0c2"/>
        <path id="Path_3648" data-name="Path 3648" d="M8.914,35.578c.228.228.447.457.666.677-.05-.132-.05-.316-.169-.378a2.445,2.445,0,0,0-.6-.211Z" transform="translate(422.88 277.055)" fill="#55c0c2"/>
        <path id="Path_3649" data-name="Path 3649" d="M5.827,41.653l.586.176-.06-.466Z" transform="translate(455.731 322.105)" fill="#55c0c2"/>
        <path id="Path_3650" data-name="Path 3650" d="M5.635,42.169c0,.633.258.905.775.8-.05-.176-.03-.422-.149-.492a2.531,2.531,0,0,0-.755-.193Z" transform="translate(458.923 328.38)" fill="#55c0c2"/>
        <path id="Path_3651" data-name="Path 3651" d="M16.87,27.372c-2.205.07-3.517-1.309-5.037-2.408a10.539,10.539,0,0,0-2.881-1.415c-.348-.114-1.073.3-1.431.641-.278.281-.5,1.046-.328,1.186,1.242,1,2.583,1.907,3.894,2.829,1.987,1.388,4.143,2.663,4.312,5.228a1.2,1.2,0,0,0,.248.7c3.03,3.5,5.692,7.276,9.825,9.9l-.07.053c-.328-1.151-.656-2.311-.974-3.471-.258-.967-.387-1.916.844-2.5l.328-.308c-.189-.729-.238-2.039-.576-2.1-3.427-.624-4.778-2.953-6.418-5.3-.725-1.046-1.858-1.828-1.878-3.19Z" transform="translate(423.547 183.232)" fill="#55c0c2"/>
        <path id="Path_3652" data-name="Path 3652" d="M6.347,25.865A19.943,19.943,0,0,0,15,37.991l-.149.132c-1.043-5.07-4.212-8.963-8.573-12.205Z" transform="translate(442.674 201.417)" fill="#55c0c2"/>
        <path id="Path_3653" data-name="Path 3653" d="M16.822,28.582a17.775,17.775,0,0,0-5.474-5.571,2.23,2.23,0,0,0-2.275-.193c-.864.4-.7,1.757.536,2.46,2.3,1.318,4.222,3.374,7.361,3.172Z" transform="translate(418.29 175.923)" fill="#55c0c2"/>
        <path id="Path_3654" data-name="Path 3654" d="M11.532,21.794c.407.747,4.421,2.944,5.166,2.8.159-.026.308-.369.338-.571a.876.876,0,0,0-.169-.685c-1.083-1.081-2.205-2.153-4.033-2.144a2.187,2.187,0,0,0-.755.176,2.7,2.7,0,0,0-.546.422" transform="translate(388.422 165.058)" fill="#55c0c2"/>
        <path id="Path_3655" data-name="Path 3655" d="M9.359,30.271c-.129-1.494-.05-3.04-1.133-4.323-.318-.378-1.023-.923-1.3-.826-.894.316-.894,1.151-.745,1.88.348,1.634,1.669,2.531,3.259,3.2Z" transform="translate(449.934 195.543)" fill="#55c0c2"/>
        <path id="Path_3656" data-name="Path 3656" d="M11.905,29.935c.755-1.96-1.46-3.023-1.778-4.666l.139.132c-1.1-.079-2.205-.158-3.318-.246l-.328.316C7.882,27.448,8.5,30.032,12,29.856Z" transform="translate(442.201 195.888)" fill="#55c0c2"/>
        <path id="Path_3657" data-name="Path 3657" d="M8.908,32.607c.536-.228.785-.272.894-.4a1.1,1.1,0,0,0,.288-.641,3.948,3.948,0,0,0-2.931-3.9.8.8,0,0,0-.7.176c-.626.852-.954-.387-.417.5.874,1.476,1.907,2.865,2.861,4.271" transform="translate(452.55 215.22)" fill="#55c0c2"/>
        <path id="Path_3658" data-name="Path 3658" d="M10.528,22.208c.119.2.169.5.358.6,1.152.6,1.957,1.872,3.547,1.608.358-.062.944-.668.874-.861-.507-1.292-2.335-2.056-4.113-1.775-.238.035-.447.281-.666.431" transform="translate(400.125 169.134)" fill="#55c0c2"/>
        <path id="Path_3659" data-name="Path 3659" d="M12.16,22.911c-.556.062-1.123.105-1.669.193-.8.132-1.093.58-.556.9,1.123.641,2.215,1.617,3.735,1.054a1.683,1.683,0,0,0,.984-1.019c.05-.281-.457-.791-.844-.949a5.866,5.866,0,0,0-1.649-.176" transform="translate(409.391 178.414)" fill="#55c0c2"/>
        <path id="Path_3660" data-name="Path 3660" d="M18.144,23.451c-1.043-2.135-3.11-2.636-5.464-2.68l.119-.114c.7,2.232,2.692,2.909,4.977,3.251Z" transform="translate(375.919 160.861)" fill="#55c0c2"/>
        <path id="Path_3661" data-name="Path 3661" d="M12.111,22.564c-.586.518-1.182,1.037-1.768,1.564a2.3,2.3,0,0,0,2.8.764,9.307,9.307,0,0,0,1.778-1.415c-.666-.29-1.321-.6-2-.852a2.757,2.757,0,0,0-.815-.062" transform="translate(402.357 175.711)" fill="#55c0c2"/>
        <path id="Path_3662" data-name="Path 3662" d="M6.851,25.027a2.6,2.6,0,0,0,1.818,2.3c.149.053.914-.589.854-.764A5.864,5.864,0,0,0,8.44,24.614c-.2-.228-.834-.211-1.272-.2-.109,0-.209.4-.318.615" transform="translate(442.448 190.067)" fill="#55c0c2"/>
        <path id="Path_3663" data-name="Path 3663" d="M7.507,28.394a10.057,10.057,0,0,0,2.225.817c1.133.185,1.351-.677,1.043-1.292a2.6,2.6,0,0,0-1.649-1.4c-1.6-.149-1.063,1.257-1.48,2Z" transform="translate(434.549 206.454)" fill="#55c0c2"/>
        <path id="Path_3664" data-name="Path 3664" d="M4.658,31.484c-.238.185-.656.387-.626.492a8.369,8.369,0,0,0,.8,2.039c.2.316.775.448,1.172.668a3.863,3.863,0,0,0,.477-1.336c-.07-.984-.457-1.845-1.828-1.863" transform="translate(473.5 245.174)" fill="#55c0c2"/>
        <path id="Path_3665" data-name="Path 3665" d="M12.373,21.893a6.96,6.96,0,0,0,1.8,1.213,1.153,1.153,0,0,0,1.619-1.028c0-.738-.487-1.336-1.52-1.116-.517.114-1.023.316-1.53.475Z" transform="translate(381.322 162.876)" fill="#55c0c2"/>
        <path id="Path_3666" data-name="Path 3666" d="M9.717,22.839a1.286,1.286,0,0,0,.944,1.687c.4.114.964-.228,1.45-.36a9.31,9.31,0,0,0-1.133-1.617.713.713,0,0,0-1.262.29" transform="translate(411.993 173.442)" fill="#55c0c2"/>
        <path id="Path_3667" data-name="Path 3667" d="M8.534,21.7l3.616.026-.119.105c-1.639-1.485-1.639-1.485-3.358.009Z" transform="translate(423.101 161.324)" fill="#55c0c2"/>
        <path id="Path_3668" data-name="Path 3668" d="M7.418,22.951a8.955,8.955,0,0,0,1.411.439c.149.018.378-.325.566-.5a8.5,8.5,0,0,0-1.441-.457c-.139-.026-.358.334-.536.518" transform="translate(436.943 174.675)" fill="#55c0c2"/>
        <path id="Path_3669" data-name="Path 3669" d="M7.789,24.945a10.706,10.706,0,0,0,1.6-.079c.705-.123.993-.571.606-.817a1.7,1.7,0,0,0-1.341-.141c-.378.22-.487.773-.715,1.177Z" transform="translate(432.489 185.518)" fill="#55c0c2"/>
        <path id="Path_3670" data-name="Path 3670" d="M5.4,30.479c.179.044.487.167.527.114.139-.167.3-.422.248-.6-.189-.677-.556-.747-.874-.176-.089.167.06.439.1.659" transform="translate(461.419 229.219)" fill="#55c0c2"/>
        <path id="Path_3671" data-name="Path 3671" d="M5.552,30.507c-.209,0-.467-.07-.616.009-.656.369-.338,1.828.378,1.766.219-.026.576-.334.566-.5a5.754,5.754,0,0,0-.328-1.274" transform="translate(468.662 237.338)" fill="#55c0c2"/>
        <path id="Path_3672" data-name="Path 3672" d="M10.335,19.351l-.527-.176.06.457Z" transform="translate(412.251 149.32)" fill="#55c0c2"/>
        <path id="Path_3673" data-name="Path 3673" d="M8.481,20.831c-.05,1.054.586,1.494,1.709,1.52l-.109.105c.109-1.107-.437-1.634-1.719-1.52Z" transform="translate(426.77 162.216)" fill="#55c0c2"/>
        <path id="Path_3674" data-name="Path 3674" d="M8.407,21c.248.211.487.431.735.641-.07-.123-.109-.29-.228-.351a2.665,2.665,0,0,0-.626-.185Z" transform="translate(428.553 163.563)" fill="#55c0c2"/>
        <path id="Path_3675" data-name="Path 3675" d="M7.691,22.213l.179-.439-.477.062Z" transform="translate(438.718 169.559)" fill="#55c0c2"/>
        <path id="Path_3676" data-name="Path 3676" d="M8.573,23.258c.228.387.467.782.7,1.169,1.043-1.2-.258-.888-.844-1.037Z" transform="translate(426.689 181.116)" fill="#55c0c2"/>
        <path id="Path_3677" data-name="Path 3677" d="M6.74,25.457c.248-.105.5-.22.745-.325l-.606.448Z" transform="translate(445.589 195.709)" fill="#55c0c2"/>
        <path id="Path_3678" data-name="Path 3678" d="M6.066,25.691l.477,1.125c.238-.2.467-.413.705-.615-.427-.149-.844-.3-1.262-.439Z" transform="translate(453.306 200.062)" fill="#55c0c2"/>
        <path id="Path_3679" data-name="Path 3679" d="M8.276,27.4c.328-.255.656-.5.984-.756-.179.062-.437.079-.527.2a2.357,2.357,0,0,0-.3.694Z" transform="translate(428.555 207.483)" fill="#55c0c2"/>
        <path id="Path_3680" data-name="Path 3680" d="M8.52,26.85c-.228.114-.457.22-.685.334l.546-.457Z" transform="translate(433.675 208.13)" fill="#55c0c2"/>
        <path id="Path_3681" data-name="Path 3681" d="M6.367,27.245l.586.782a.959.959,0,0,0-.169-.343,5.606,5.606,0,0,0-.566-.316Z" transform="translate(451.306 212.164)" fill="#55c0c2"/>
        <path id="Path_3682" data-name="Path 3682" d="M6.865,28.365l.238-.518-.586.053Z" transform="translate(448.178 216.848)" fill="#55c0c2"/>
        <path id="Path_3683" data-name="Path 3683" d="M5.746,28.244c-.219.132-.467.255-.685.387.179-.176.358-.343.536-.518Z" transform="translate(464.007 218.915)" fill="#55c0c2"/>
        <path id="Path_3684" data-name="Path 3684" d="M5.485,30.17l.447.123-.07-.369Z" transform="translate(459.614 233.028)" fill="#55c0c2"/>
        <path id="Path_3685" data-name="Path 3685" d="M14.874,18.8c.884.246,1.679.571,1.739,1.547a14.74,14.74,0,0,0,1.679-.281c.964-.272,1.321-.773.427-1.45a4.778,4.778,0,0,0-3.835-1.318l.129-.105c-.05.536-.089,1.072-.139,1.608" transform="translate(353.031 133.855)" fill="#55c0c2"/>
        <path id="Path_3686" data-name="Path 3686" d="M16.594,15.382c-.258.2-.517.4-.775.6.149-.053.368-.062.447-.158a1.934,1.934,0,0,0,.209-.545Z" transform="translate(346.284 118.966)" fill="#55c0c2"/>
        <path id="Path_3687" data-name="Path 3687" d="M15.975,17.872l-.676-.756c.06.132.07.308.169.378a2.986,2.986,0,0,0,.626.272Z" transform="translate(351.95 133.287)" fill="#55c0c2"/>
      </g>
    </g>
  </g>
</svg>
