<svg xmlns="http://www.w3.org/2000/svg" xmlns:xlink="http://www.w3.org/1999/xlink" width="193" height="672" viewBox="0 0 193 672">
  <defs>
    <clipPath id="clip-path">
      <rect id="Rectangle_228" data-name="Rectangle 228" width="193" height="672" transform="translate(0 3709)" fill="#fff" stroke="#707070" stroke-width="1"/>
    </clipPath>
    <clipPath id="clip-path-2">
      <rect id="Rectangle_190" data-name="Rectangle 190" width="572.561" height="749.563" fill="#007775"/>
    </clipPath>
  </defs>
  <g id="Mask_Group_60" data-name="Mask Group 60" transform="translate(0 -3709)" clip-path="url(#clip-path)">
    <g id="Group_107" data-name="Group 107" transform="matrix(0.469, 0.883, -0.883, 0.469, 99.512, 3679.561)">
      <g id="Group_106" data-name="Group 106" transform="translate(0 0)" clip-path="url(#clip-path-2)">
        <path id="Path_6183" data-name="Path 6183" d="M301.669,620.536c2.062-3.977,4.1-7.953,6.161-11.929,4.639-.54,9.917.1,11.512-6.137,3.854.319,5.842-1.669,6.5-5.277,3.633-.736,5.007-3.24,5.228-6.677,3.265-.687,5.768-2.086,5.866-5.916,8.027.957,13.255-5.057,19.686-8,3.584-1.645,4.222-5.6,4-9.377,4.983-2.43,4.32-7.634,5.793-11.782.565-.589,1.129-1.2,1.694-1.816-.417.761-.835,1.5-1.252,2.234-5.646,2.037-6.063,6.7-5.842,11.684-13.132-1.227-17.943,8.714-23.564,17.55l-5.817,5.965c-3.044.736-5.866,1.767-6.578,5.376-3.584.614-4.958,3.117-5.326,6.431-4.615.589-9.72.074-11.978,5.646-4-2.037-8.027-4.1-12.028-6.161l.466.417a52.512,52.512,0,0,1,1.3-5.572c.884-2.553,3.166-4.958.908-7.634-.27-.344-2.946.982-4.271,1.89-9.4,6.6-16.765,15.366-26.878,21.527-19.269,11.758-38.267,22.165-61.807,20.766-4.615-.295-9.4,1.669-14.089,2.675-5.351,1.178-9.008-2.6-13.329-4.492l.344.393c-.2-5.695-1.031-11.88,7.536-11.978,13.378-.147,24.988-7.241,37.8-9.548.589-.123.908-1.6,1.35-2.43,1.89-.295,3.78-.515,5.67-.859.908-.2,2.577-.663,2.553-.933-.123-2.013-1.718-2.823-3.9-1.62-1.546.835-2.651,2.5-3.952,3.829-15.808-1.35-30.462-7.143-45.312-11.978-9.131-2.995-18.213-6.21-20.962-18.017-1.326-5.744-8.738-7.536-14.188-9.229-8.493-2.577-17.28-2.749-26.191-1.546-6.922.908-10.015-1.006-8.591-9.72.712-4.32-5.4-9.745-8.444-14.654l-.27.295c3.608,1.006,7.928,1.1,10.7,3.216,13.844,10.628,28.081,7.977,42.636,2.258a7.328,7.328,0,0,0,.761,2.381c.295.393,1.227.295,1.89.417-1.031-.81-2.062-1.6-3.068-2.381-5.228-10.138-16-13.451-24.4-19.661-3.731-2.749-24.325,2.479-34.438,7.806l.27-.221c-7.732-1.4-7.487-10.972-13.991-13.819-.442-.2-.221-3.51.614-4.737a7.854,7.854,0,0,1,10.138-2.6c10.874,5.621,21.8,7.732,33.505,2.307,5.916-2.749,11.9-2.111,15.243,4.124,4.639,8.64,12.666,8.076,20.373,8.493,2.307.123,5.646.761,6.308-2.626.123-.712-2.8-2.185-4.418-3.093-5.891-3.314-13.23-4.688-16.912-11-3.166-5.4-.785-13.844-9.057-16.519-5.5-1.767-11-3.461-16.421-5.351-.761-.27-1.154-1.546-1.718-2.332l-.466.442c10.628-9.745,13.132-20.643,5.007-33.26-.81-1.276-1.129-4.075-.319-4.958,2.307-2.577,5.621-1.375,7.732.221,3.8,2.9,6.922,6.7,10.555,9.843,5.695,4.934,8.886,4.443,14.6-1.841.638-.712,1.1-1.718,1.89-2.209,8.886-5.351,4.688-17.207,10.457-22.754,5.817-5.547,16.372-5.621,19.907-14.973q1.252-1.215,2.43-2.43c3.608-1.5,7.094-3.412,10.849-4.345,4.909-1.2,9.548-2.086,9.966-8.444.442-7.217,4-12.789,8.984-17.894,3.8-3.927.221-6.382-2.479-9.4-5.621-6.382-16.372-8.125-17.6-18.287-.712-5.768-1.227-9.377-8.247-5.621-2.381,1.252-5.719.908-8.616.982-8.689.147-10.923-2.5-8.2-9.794,1.669-4.541,3.829-8.91,5.6-13.4.933-2.356-.074-3.952-2.6-4.369-8.493-1.424-17.33-4.885-24.374,3.608l.123-.074q-7.658,3.719-15.292,7.462c-4.32,2.111-8.517,3.682-13.5,1.694-8.861-3.51-15.955-2.111-21.993,6.456-2.111,2.995-6.726-.123-8.542-3.952a19.863,19.863,0,0,0,2.062-.982,4.674,4.674,0,0,0,.933-1.129c-.835.859-1.669,1.718-2.5,2.6l-12.15-.515.442.54c-.27-4.934-.982-9.622-6.087-12.1l-.025-.025c1.473-13.476-7.487-19.146-17.82-23.761l.368.442c2.185-1.694,4.222-4.639,6.529-4.86,9.941-.982,14.654-8.051,13.525-15.832-1.841-12.617,8-17.01,13.869-23.859,6.824-7.977,15.93-9.843,26.559-5.793,6.014,2.332,8.591-.491,9.45-7.413.442-3.756.957-7.806-4.271-8.959-2.749-.614-5.744-.614-8.2-1.816-9.426-4.541-17.01-2.7-23.073,5.768-3.976,5.523-7.953,11.021-12.028,16.495-2.43,3.265-5.474,5.6-9.868,4.148-5.646-1.841-6.627-6.186-6.21-11.537,1.816-22.411,5.179-28.007,23.343-39.691,13.427-8.64,28.523-12,43.839-15.071.687-.123,1.08-2.995,1.1-4.615.025-.638-1.35-1.841-2.062-1.841a28.594,28.594,0,0,0-5.695.884c-12.273,2.774-25.356,1.3-37.163,6.824-.466.221-2.234-.933-2.209-1.35.147-1.546.295-3.78,1.325-4.516,20.79-14.58,43.962-13.918,67.477-9.769,5.695,1.031,12.15,2.209,16.495,5.572,15.538,12.052,34.512,11.954,52.185,16.495.54.589,1.1,1.2,1.645,1.816l-2.135-1.325c-16.814-19.612-35.4-36.107-63.4-35.837a17.79,17.79,0,0,1-15.12-7.217c-.957-1.2-4.222-2.283-4.983-1.669-11.316,9.2-25.872.908-38.267,7.953a61.7,61.7,0,0,1-36.868,7.315l-.295-.344c.884-4.271,4.762-4.983,7.757-7.045,5.2-3.584,12.887-3.633,15.636-10.7,3.854-.344,7.707-.614,11.537-1.055a9.194,9.194,0,0,0,2.577-1.325c-1.448-.835-2.872-2.332-4.32-2.332-3.952-.049-7.609,1.031-9.327,5.228-14.507.221-29.038,0-43.2,4.2-1.546.466-3.633-.785-5.449-1.227,1.3-1.2,2.528-2.528,3.927-3.584,29.234-22.484,63.28-33.26,98.871-39.74,34.119-6.235,65.464.736,93.152,22.239,8.125,13.7,20.864,22.9,32.7,32.916,2.651,2.234,9.72,4.124,10.039,3.559,3.9-7.069-4.05-6.407-6.8-9.2-7.511-7.585-15.415-14.826-23.147-22.214-3.706-3.559-7.879-5.646-13.157-4.639,3.093-4.2,7.069-7.585,12.273-4.958,15.783,7.953,30.143,17.87,41.409,31.763,7.928,9.794,15.538,19.907,23.908,29.333,5.253,5.965,9.278,11.856,11.193,19.931,3.314,14.04,14.8,22.411,25.037,31.37a1.842,1.842,0,0,0,1.792-.319,4.419,4.419,0,0,0,.835-2.676c-.368-2.847-.393-5.965-1.645-8.419-6.627-12.936-14.556-25.307-20.275-38.611-15.071-34.9-40.452-61.316-68.263-85.911-7.928-7.02-16.372-13.4-24.35-20.349-1.1-.957-1.522-3.78-.957-5.253.442-1.2,3.142-2.7,4.271-2.332,8.272,2.725,16.4,5.867,24.571,8.886,1.055,1.448,1.816,3.363,3.216,4.271,1.988,1.3,3.756.417,4.173-1.718.074-.319-1.4-1.227-2.283-1.424-1.792-.368-3.657-.442-5.523-.663-9.818-14.679-26.412-18.9-41.016-25.8-17.5-8.272-37.58-9.352-54.885-19.048-5.425-3.019-13.378-1.89-20.152-1.964-16.569-.245-33.162.049-49.706-.2-2.307-.049-4.566-2.062-6.848-3.166,2.135-1.816,4-4.271,6.48-5.376,15.194-6.9,30.363-11.684,47.84-8.051,11.929,2.5,24.693.614,36.966,1.841,37.654,3.756,70.423,20.864,102.8,38.832,6.677,3.682,11.586,10.751,20.3,10.555.245,3.682,2.455,5.376,5.891,5.867a6.477,6.477,0,0,0,5.842,5.916c.663,3.24,2.8,5.056,5.866,5.867l5.891,5.891c1.964,1.964,3.9,3.952,5.867,5.916,1.939,1.988,3.9,3.952,5.867,5.94.417.712,2.209,2.823-.442.393-1.964-1.939-3.927-3.9-5.891-5.867l-5.891-5.891c-1.964-1.964-3.927-3.9-5.891-5.867a7.032,7.032,0,0,0-5.891-5.867c-.565-3.338-2.6-5.228-5.842-5.94A6.925,6.925,0,0,0,307.56,84.4c-1.6-6.21-6.873-9.2-11.34-12.838-34.954-28.547-77.025-40.8-119.711-50.761-12.96-3.019-27.172-.442-40.771-1.08a277.2,277.2,0,0,0-124.89,22.73c-2.577,1.129-5.695,1.031-8.567,1.5-.687-.761-1.35-1.522-2.013-2.283,3.878-7.315,10.6-12.15,17.722-14.654C38.069,19.968,57.755,10.763,79.9,11.5c2.749.074,6.259.147,8.223-1.35C100.907.4,116.027,1.976,130.485,1.362c41.532-1.767,81.468,5.744,119.932,21.625,16.151,6.652,32.671,12.469,49.19,18.213,4.492,1.546,9.548,1.5,14.359,2.185l-.54-.491c9.647,13.648,22.263,24.3,34.929,34.954A311.3,311.3,0,0,1,419,162.875c21.38,37.433,38.022,77.025,56.137,115.956a83.584,83.584,0,0,1,5.032,13.721c1.694,6.357,6.9,12.568,2.9,19.416-3.166,5.449-9.818,5.744-15.1,8.051-5.793,2.479-6.824,5.842-4.3,11.561.786,1.792,1.571,3.584,2.528,5.3,3.412,6.161,6.873,12.3,10.334,18.434.565-6.775,1.031-13.574,1.743-20.324a17.055,17.055,0,0,1,1.816-5.351,4.865,4.865,0,0,1,7.413-2.037c10.088,7.511,19.146,16.544,22.705,28.743,5.155,17.673,10.236,35.42,9.5,54.369-.614,15.562-.687,31.272,3.706,46.539.515,1.865,1.3,4.075.761,5.719-7.585,23.54-1.841,48.38-8,72.362-6.627,25.8-17.5,49.608-27.835,73.785-1.743,4.05-5.793,4.836-9.794,5.081l.417.368c-1.3-1.178-2.43-2.651-3.927-3.51-2.455-1.375-5.253-1.645-6.652,1.325-.589,1.3-.147,3.535.614,4.909.785,1.4,2.553,2.258,3.878,3.363l-.442-.442c3.019,11.365-.1,19.76-11.659,24.055-.614-.663-1.2-1.326-1.816-1.988l2.307,1.5a33.708,33.708,0,0,1-13.4,24.472c-19.784,15.12-37.359,32.573-55.008,50-1.816,1.792-5.13,2.062-7.757,3.044l-1.6-1.571c-3.314-1.915-6.627-3.8-9.917-5.744-5.744-3.363-5.965-7.364-.565-11.046,8.076-5.5,16.249-10.825,24.2-16.52,1.3-.957,1.6-3.363,2.356-5.081-1.816-.614-3.706-1.915-5.425-1.718-8.468.982-15.759,1.031-16.593-10.506-.295-4.3-3.829-2.946-6.014-1.154-2.234,1.841-3.756,4.541-5.989,6.382-4.664,3.878-7.217,3.387-10.923-3.412-1.89-3.486-1.865-6.259-7.462-4.541a133.787,133.787,0,0,0-21.4,8.763c-10.383,5.277-21.6,8.395-31.468-3.436-5.646-6.75-15.243-5.989-21.993-2.5-12,6.235-25.258,2.9-37.31,7.069a7.591,7.591,0,0,1-5.646-.908,19.161,19.161,0,0,1-6.112-5.621c-.466-.687,1.4-3.878,2.872-4.664a186.005,186.005,0,0,1,18.41-8.812c11.807-4.737,23.343-11.168,30.781-20.692,7.437-9.548,15.832-13.795,26.78-15.464a8.15,8.15,0,0,0,.785,2.651c.319.442,1.915.54,1.915.491.515-1.767-.565-2.7-3.117-2.725m100.2-.54c.638-.687,1.3-1.375,1.964-2.062-.491.835-1.006,1.669-1.5,2.5-.54.712-1.1,1.424-1.669,2.16.393-.884.81-1.743,1.2-2.6m-52.259-97.35c-.344-2.651-.442-3.608-.589-4.59-.295-1.939-.491-3.878-.884-5.793-.393-1.792-.957-3.535-1.448-5.277-1.2,1.5-2.823,2.8-3.51,4.516-3.535,8.959-5.965,18.508-10.481,26.952-4.516,8.517-11.267,15.832-16.618,23.957-5.155,7.879-5.007,8.395-1.767,9.156a19.118,19.118,0,0,0,8.64.344c11.046-2.823,18.09-10.579,23.515-20.079-7.217-11.07,5.474-20.25,3.142-29.185M448.724,318.6c1.325-8.812,2.872-16.618-9.229-19.2-5.744-1.227-7.29-8.419-8.984-14.016a8.666,8.666,0,0,0-1.694-2.332c-.638,1.473-1.939,3.019-1.767,4.394a82.284,82.284,0,0,0,2.7,14.065c1.988,6.431,6.554,12.641,6.6,18.974.123,14.458,8.2,25.356,13.77,37.433a43.616,43.616,0,0,0,2.528,4.222,35.279,35.279,0,0,0,1.326-5.572,27.034,27.034,0,0,0-4.05-16.593c-4.173-7-5.056-14.359-1.2-21.38M152.748,201.977c-2.995.81-7.02.638-6.333,3.51.957,4,5.793,3.461,9.156,4.271.614.147,2.676-2.9,2.553-3.044a63.62,63.62,0,0,0-5.376-4.737m-5.67,52.111c-.884-2.234-2.479-2.847-4.222-1.2-1.178,1.129-1.792,2.872-2.651,4.32,1.571.442,3.486,1.62,4.664,1.1,1.129-.515,1.5-2.749,2.209-4.222m65.391,102.75c-.761.442-1.5.884-2.258,1.35,1.89,1.669,3.8,3.363,5.695,5.057.515-.712,1.5-1.375,1.522-2.086.123-3.363-1.841-4.566-4.958-4.32m139.593,136.4c.515-.786,1.5-1.6,1.448-2.332-.172-2.675-.712-5.326-1.1-7.953-.515.2-1.448.368-1.473.638a79.2,79.2,0,0,0-.565,7.978c0,.565,1.1,1.1,1.694,1.669M121.575,152.32c-.466-.491-.859-1.375-1.448-1.522a3.95,3.95,0,0,0-2.774.221c-1.841,1.154-1.154,2.16,1.767,2.234a6.621,6.621,0,0,0,2.455-.933m-1.424,153.928,2.479-.884c-.736-.466-1.522-1.4-2.16-1.3a9.331,9.331,0,0,0-2.823,1.6l2.5.589M417.305,557.281a7.657,7.657,0,0,0,.466-2.528c-.025-.319-1.056-.565-1.62-.835a8.5,8.5,0,0,0-.736,2.577c-.025.245,1.227.516,1.89.785m33.824,31.2c-.442-.638-.761-1.6-1.325-1.792a3.207,3.207,0,0,0-2.626.172c-1.645,1.5-1.006,2.7,1.62,2.823.761.049,1.571-.785,2.332-1.2M168.138,228.29l1.522.908.2-1.276ZM375.43,410.127l-.884,1.326,1.4.2Z" transform="translate(6.31 26.113)" fill="#007775"/>
        <path id="Path_6184" data-name="Path 6184" d="M50.588,94.328c-1.006,7.339-1.252,11.242-2.209,14.949-.295,1.08-2.577,1.866-4.1,2.332A2.938,2.938,0,0,1,41.8,110.43c-1.62-2.332-4.1-4.762-4.271-7.29-1.448-23.27-9.72-45.116-13.5-67.87-.908-5.5-4.026-11.193.049-16.765,1.1-1.5,1.865-3.51,3.338-4.418.614-.393,2.946,1.154,3.952,2.283,4.713,5.4,5.326,12.347,6.726,18.95,4.394,20.717,8.787,41.458,12.494,59.009" transform="translate(518.782 330.228)" fill="#007775"/>
        <path id="Path_6185" data-name="Path 6185" d="M31.454,29.382C27.846,44.748,27.846,44.748,13.806,47.03l.515.515c-.393-5.842-.785-11.659-1.227-17.5-.2-2.5-1.546-3.461-3.9-3.24-4.639.466-8.149-1.792-6.112-6.259,1.841-4,5.376-7.953,11.561-5.179,3.387,1.546,7.413,1.669,11.144,2.43l.025.025c.638,4.737.736,9.745,6.087,12.1Z" transform="translate(58.556 339.97)" fill="#007775"/>
        <path id="Path_6186" data-name="Path 6186" d="M3.627,29.877c1.129-2.749,2.135-6.382,4.05-9.5,1.252-2.062,3.756-5.032,6.407-1.841,2.946,3.51,4.958,7.781,7.609,11.586,3.191,4.541,2.6,8-2.111,10.53-4.222,2.258-8.591,4-13.034.663C2.94,38.59,4.388,34.442,3.627,29.877" transform="translate(85.402 403.442)" fill="#007775"/>
        <path id="Path_6187" data-name="Path 6187" d="M22.42,14.671C30.078,25.079,30.1,32.369,22,38.334a37.209,37.209,0,0,1-10.162,4.958c-1.326.442-3.78-.466-4.811-1.6-.957-1.08-1.546-3.9-.835-4.811a43.171,43.171,0,0,1,8-7.83c4.909-3.706,7.192-8.714,8.321-14.482Z" transform="translate(138.455 343.144)" fill="#007775"/>
        <path id="Path_6188" data-name="Path 6188" d="M35.726,26.328c-1.5,9.867-2.9,20.079-4.713,30.216-.221,1.129-2.946,2.8-4.222,2.577-2.405-.417-5.842-1.178-3.608-5.277,4.762-8.788,2.43-18.7,4.443-27.933.295-1.276,2.43-3.093,3.584-2.995,1.424.123,2.725,1.964,4.516,3.412" transform="translate(528.833 539.491)" fill="#007775"/>
        <path id="Path_6189" data-name="Path 6189" d="M13.385,15.766c.025,3.878.319,7.781.025,11.659-.27,3.24,1.5,8.861-4.811,7.536-3.854-.81-5.965-4.737-6.087-9.008-.221-7.879,4.909-9.6,11.389-9.671Z" transform="translate(58.976 371.234)" fill="#007775"/>
        <path id="Path_6190" data-name="Path 6190" d="M18.75,23.74c-.761,5.523-5.376,6.6-9.966,7.609A2.473,2.473,0,0,1,6.6,30.49c-.589-1.571-1.62-4-.933-4.811a37.709,37.709,0,0,1,8-7.167c2.013-1.35,5.695,2.356,5.081,5.228" transform="translate(128.06 429.142)" fill="#007775"/>
        <path id="Path_6191" data-name="Path 6191" d="M27.6,20.33c2.675,5.94,7.315,11.438,4.3,18.655-.295.761-1.08,1.743-1.718,1.792a3.492,3.492,0,0,1-2.528-1.129c-6.382-7-6.382-9.328.466-18.925Z" transform="translate(539.612 478.699)" fill="#007775"/>
        <path id="Path_6192" data-name="Path 6192" d="M5.113,25.545c8.321-.589,14.8,3.486,20.717,8.567.933.785,1.055,3.363.589,4.811-.687,2.013-2.577,1.743-4.836,1.08C13.729,37.7,7.4,33.964,5.285,25.373Z" transform="translate(120.391 597.441)" fill="#007775"/>
        <path id="Path_6193" data-name="Path 6193" d="M41.393,26.832c-.785,1.571-1.3,4.246-2.381,4.492-10.628,2.553-21.232,2.823-31.37-2.086-.638-.319-.785-1.62-1.178-2.43l-.393.442q17.82-.037,35.641-.049Z" transform="translate(142.948 631.206)" fill="#007775"/>
        <path id="Path_6194" data-name="Path 6194" d="M32.97,23.365a13.354,13.354,0,0,1-6.259,11.708,2.919,2.919,0,0,1-2.528-.221c-.663-.417-1.571-1.669-1.375-2.086,1.988-4.124,2.135-9.7,7.953-10.9.589-.123,1.4.933,2.209,1.5" transform="translate(536.4 514.667)" fill="#007775"/>
        <path id="Path_6195" data-name="Path 6195" d="M26.91,19.612c1.3,2.381,2.626,4.762,3.9,7.167,2.626,4.934,1.964,8.665-3.878,10.457l.515.393c-1.375-3.191-3.019-6.308-4.075-9.622-1.154-3.731-.049-6.726,4.1-7.928Z" transform="translate(540.276 461.792)" fill="#007775"/>
        <path id="Path_6196" data-name="Path 6196" d="M22.007,38.459c-2.406-.81-3.363-2.455-1.89-4.075A22.98,22.98,0,0,1,26.646,29.3c.687-.344,3.878,2.258,3.731,2.577-1.522,3.633-3.412,7.192-8.37,6.578" transform="translate(457.205 689.241)" fill="#007775"/>
        <path id="Path_6197" data-name="Path 6197" d="M19.731,25.6c-.614,2.7-.859,5.572-2.013,8-.491,1.055-3.068,1.89-4.394,1.571-1.89-.442-1.743-2.43.245-4.075C15.706,29.309,17.964,27.689,20.2,26Z" transform="translate(282.308 602.857)" fill="#007775"/>
        <path id="Path_6198" data-name="Path 6198" d="M11.279,1.92A10.505,10.505,0,0,1,8.6,2.362C8.309,2.337,7.868.742,7.917.717c2.455-1.276,3.608-.835,3.363,1.2" transform="translate(186.316 0.002)" fill="#007775"/>
        <path id="Path_6199" data-name="Path 6199" d="M9.519.407c-1.252,1.4-2.234,3.24-3.78,4.124-2.209,1.252-3.9.344-4.075-1.767C1.64,2.42,3.26,1.782,4.193,1.61,6.107,1.242,8.046,1.119,9.985.9Z" transform="translate(39.18 9.591)" fill="#007775"/>
        <path id="Path_6200" data-name="Path 6200" d="M8.594,5.02A8.992,8.992,0,0,1,7.072,7.4C4.593,9.414,2.04,9.684,0,6.861A24.416,24.416,0,0,1,3.881,3.547a8.631,8.631,0,0,1,2.7-.785c.663.736,1.325,1.5,2.013,2.258" transform="translate(-0.003 65.042)" fill="#007775"/>
        <path id="Path_6201" data-name="Path 6201" d="M13.31,6.764c-.859.319-1.816,1.031-2.577.859-2.872-.638-3.142-1.964-.712-3.166a3.457,3.457,0,0,1,2.7.344c.417.2.417,1.276.589,1.964" transform="translate(197.123 101.246)" fill="#007775"/>
        <path id="Path_6202" data-name="Path 6202" d="M11.2,8.711c-.712-1.2-1.424-2.43-2.135-3.633a26.2,26.2,0,0,1,5.106-.761c.663.025,1.252,1.375,1.866,2.136-1.62.736-3.216,1.5-4.836,2.258" transform="translate(213.351 101.582)" fill="#007775"/>
        <path id="Path_6203" data-name="Path 6203" d="M10.684,8.672c-1.006,1.448-1.743,3.535-3.142,4.2-1.252.589-3.24-.319-4.909-.589.736-1.154,1.227-2.946,2.258-3.363,1.645-.663,3.657-.442,5.5-.589Z" transform="translate(61.997 196.099)" fill="#007775"/>
        <path id="Path_6204" data-name="Path 6204" d="M23.537,13.806c-.736-.245-1.89-.27-2.16-.761-.786-1.448.221-2.283,2.479-1.915.663.1,1.2.982,1.816,1.5l-2.135,1.178" transform="translate(497.11 260.037)" fill="#007775"/>
        <path id="Path_6205" data-name="Path 6205" d="M25.565,13.91c-.736.221-1.546.761-2.209.614-2.455-.589-2.7-1.718-.614-2.676a3.106,3.106,0,0,1,2.307.466c.368.2.344,1.031.516,1.6" transform="translate(502.249 276.796)" fill="#007775"/>
        <path id="Path_6206" data-name="Path 6206" d="M11.446,13.608c-.295,2.97-1.89,5.155-4.811,5.351-1.375.1-2.872-1.473-4.3-2.283.565-.638,1.055-1.718,1.718-1.841,2.553-.417,5.179-.54,7.757-.785Z" transform="translate(55.074 320.422)" fill="#007775"/>
        <path id="Path_6207" data-name="Path 6207" d="M7.421,17.24c1.5.663,2.97,1.326,4.443,1.988-.884,1.1-1.694,3.068-2.651,3.142-1.448.123-2.97-1.1-4.467-1.767.884-1.1,1.767-2.234,2.676-3.363" transform="translate(111.726 405.941)" fill="#007775"/>
        <path id="Path_6208" data-name="Path 6208" d="M12.721,21.274c-1.522-.687-3.068-1.4-4.59-2.111.687-.589,1.522-1.767,2.062-1.645a24.8,24.8,0,0,1,4.615,1.915c-.712.614-1.4,1.227-2.086,1.841" transform="translate(191.453 412.29)" fill="#007775"/>
        <path id="Path_6209" data-name="Path 6209" d="M7.379,29.038c-1.522-.982-3.682-1.645-4.394-3.044-.638-1.252.344-3.314.614-5.032,1.154.859,2.97,1.473,3.338,2.6.589,1.718.2,3.756.221,5.67Z" transform="translate(65.302 493.58)" fill="#007775"/>
        <path id="Path_6210" data-name="Path 6210" d="M7.918,23.335c-.761.245-1.6.81-2.258.638-2.553-.614-2.8-1.767-.614-2.749a3.268,3.268,0,0,1,2.381.417c.344.2.344,1.1.491,1.694" transform="translate(83.86 497.392)" fill="#007775"/>
        <path id="Path_6211" data-name="Path 6211" d="M9.161,32.927C3.393,30.988,3,26.275,3.2,21.292l-.245.2c6.357,1.792,5.4,7.167,5.768,11.88Z" transform="translate(69.484 501.35)" fill="#007775"/>
        <path id="Path_6212" data-name="Path 6212" d="M13.952,31.19c-1.939-.245-3.9-.368-5.793-.785-.908-.2-2.455-1.1-2.406-1.4.491-2.185,2.307-3.093,4.369-1.767,1.473.957,2.307,2.9,3.436,4.418Z" transform="translate(135.459 626.823)" fill="#007775"/>
        <path id="Path_6213" data-name="Path 6213" d="M18.948,30.854c.835-.295,1.767-1.006,2.479-.835,2.749.638,3.044,1.964.712,3.142a3.315,3.315,0,0,1-2.6-.344c-.442-.245-.417-1.276-.589-1.964" transform="translate(446.15 706.222)" fill="#007775"/>
        <path id="Path_6214" data-name="Path 6214" d="M2.45,3.182c.859-.957,1.743-1.915,2.6-2.872-.2.614-.221,1.473-.638,1.743a8.637,8.637,0,0,1-2.43.638Z" transform="translate(46.715 7.307)" fill="#007775"/>
        <path id="Path_6215" data-name="Path 6215" d="M13.542,5.916,15.874,2.7c-.147.565-.123,1.35-.491,1.645a10.84,10.84,0,0,1-2.356,1.08Z" transform="translate(306.734 63.582)" fill="#007775"/>
        <path id="Path_6216" data-name="Path 6216" d="M11.4,23.924c-1.252-1.375-3.8-3.657-3.584-3.977,3.019-4.271,4.369-.589,6.014,1.546-.81.835-1.6,1.645-2.43,2.43" transform="translate(183.764 423.263)" fill="#007775"/>
        <path id="Path_6217" data-name="Path 6217" d="M25.648,21.343c-.933-.319-2.553-.589-2.6-1.006-.172-1.792.736-1.326,2.013,1.473Z" transform="translate(542.151 453.851)" fill="#007775"/>
        <path id="Path_6218" data-name="Path 6218" d="M23.672,26.036c0-2.234.025-4.443.049-6.677l-.565.466c3.977,1.939,4.516,3.854-.049,5.744Z" transform="translate(544.078 455.835)" fill="#007775"/>
        <path id="Path_6219" data-name="Path 6219" d="M5.71,20.4l.884,2.111-2.136-.2Z" transform="translate(104.973 480.351)" fill="#007775"/>
        <path id="Path_6220" data-name="Path 6220" d="M9.316,24.387c-1.448-.736-2.921-1.5-4.369-2.234,4.026-3.117,3.608.319,3.9,2.676Z" transform="translate(116.482 492.315)" fill="#007775"/>
        <path id="Path_6221" data-name="Path 6221" d="M3.187,22.207c1.375.761,2.749,1.546,4.148,2.307-4.443,3.436-2.872-1.3-3.706-2.749Z" transform="translate(75.041 512.487)" fill="#007775"/>
        <path id="Path_6222" data-name="Path 6222" d="M10.336,28.862c-3.731-.2-5.94-1.939-5.94-5.891l-.245.221c3.682.295,5.817,2.111,5.891,5.965Z" transform="translate(97.716 540.884)" fill="#007775"/>
        <path id="Path_6223" data-name="Path 6223" d="M7.22,26.816,6.41,25l1.939.172Z" transform="translate(150.925 588.64)" fill="#007775"/>
        <path id="Path_6224" data-name="Path 6224" d="M9.264,29.116c-1.448-.761-2.872-1.546-4.32-2.307,4.05-3.657,3.9-.245,4.148,2.479Z" transform="translate(116.412 593.698)" fill="#007775"/>
        <path id="Path_6225" data-name="Path 6225" d="M25.616,26.086c-1.031,3.019-2.872,5.228-6.112,6.014l.442.442c.982-3.068,2.725-5.376,6.087-6.063Z" transform="translate(459.242 614.23)" fill="#007775"/>
        <path id="Path_6226" data-name="Path 6226" d="M19.384,31.956c-1.2.712-2.381,1.424-3.584,2.16.663-1.252,1.326-2.479,1.988-3.731Z" transform="translate(372.028 715.454)" fill="#007775"/>
      </g>
    </g>
  </g>
</svg>
