<svg xmlns="http://www.w3.org/2000/svg" xmlns:xlink="http://www.w3.org/1999/xlink" width="575" height="616" viewBox="0 0 575 616">
  <defs>
    <clipPath id="clip-path">
      <rect id="Rectangle_221" data-name="Rectangle 221" width="575" height="616" transform="translate(0 1515)" fill="#fff" stroke="#707070" stroke-width="1"/>
    </clipPath>
    <clipPath id="clip-path-2">
      <rect id="Rectangle_210" data-name="Rectangle 210" width="620.155" height="807.197" fill="#007775"/>
    </clipPath>
  </defs>
  <g id="Mask_Group_54" data-name="Mask Group 54" transform="translate(0 -1515)" clip-path="url(#clip-path)">
    <g id="Group_142" data-name="Group 142" transform="translate(-251.315 2130.684) rotate(-90)">
      <g id="Group_141" data-name="Group 141" transform="translate(0 0)" clip-path="url(#clip-path-2)">
        <path id="Path_7234" data-name="Path 7234" d="M138.949,225.133c-.045-1.131-.565-2.574-.074-3.363,4.33-6.845,9.464-12.812,17.9-14.7.372.342.729.685,1.1,1.027-.461-.238-.923-.491-1.384-.729.446-2.128-.1-5.491,2.738-5.506,3.393-.015,5.7-.744,6.994-3.839,1-2.4-.06-4.553-1.042-6.726-1.056-2.366-.982-4.94,1.324-6.235,4.137-2.306,8.407-4.375,11.056-8.482,4.107-6.354,8.02-12.841,12.083-19.225,3.467-5.446,6.041-12.008,10.788-15.936,6.279-5.193,9.181-12.083,13.258-18.466,8.258-12.886,17.588-25.043,26.293-37.617,9.449-13.66,20.579-25.772,30.831-38.688,1.934-2.455,4-4.271,7.366-3.794l.67,1.012c-.283-.283-.565-.551-.863-.833,2.1-8.511,2.2-8.645,9.077-8.645,2.663.015,4.315-.684,5.625-2.872,2.381-3.928,4.866-7.8,7.366-11.651a1.485,1.485,0,0,1,1.4-.432c.461.223,1.056.923,1,1.339-.878,6.22-1.86,12.425-2.812,18.63-.729.774-1.741,1.428-2.083,2.336-.283.744.238,1.8.4,2.708a8.219,8.219,0,0,0,1.25-2.128,16.218,16.218,0,0,0,.089-3.184c3.214.506,5.55-1.057,7.6-3.259,1.949-2.1,3.794-4.33,5.922-6.22a3.35,3.35,0,0,1,3.08-.03,3.543,3.543,0,0,1,1.622,2.708,19.241,19.241,0,0,1-1.83,6.547c-2.753,5.089-5.848,9.984-8.809,14.969-6.592,1.934-6.592,1.934-7.187,10.669-2.4-.03-3.318,1.428-3.586,3.556-2.1.268-3.11,1.667-3.66,3.556-4.687,2.053-6.458,5.982-6.964,10.743-1.205,1.176-2.411,2.336-3.616,3.512-.327.342-.67.684-1,1.027.238-.432.491-.863.729-1.295,1.205-1.176,2.4-2.366,3.6-3.541,3.839-2.589,8.035-4.955,6.979-10.729,2.515.164,3.541-1.22,3.675-3.527,2.351-.015,3.437-1.309,3.6-3.541a12.483,12.483,0,0,0,7.1-10.758c5.446,1.25,6.9,6.041,9.032,10.223a4.155,4.155,0,0,1-.714,4.806c-4.776,6.012-9.583,11.978-14.255,18.064a23.359,23.359,0,0,0-2.1,4.583c1.7.461,3.408.863,5.089,1.369,4.881,1.458,5.684,3.705,2.425,7.261-12.871,13.987-26.2,27.558-38.6,41.962-16.264,18.9-33.346,37.066-48.747,56.723-17.558,22.409-35.429,44.536-51.649,67.957-1.577,2.277-4.628,3.541-6.979,5.282-.045-4.866,3.288-9.7.059-14.582,1.711-.7,2.024-1.22.893-1.28-.179,0-.4,1.012-.61,1.562-4.791,3.809-6.919,10.237-12.693,13.139-.268.134-.387,1.1-.179,1.488.729,1.414,1.548.685,2.783.417,3.274-.744,6.711-.759,10.074-1.056-4.538,12.514-12.068,23.019-21.576,32.2l.074.059c-1.741-5.282-.551-10.371.967-15.475.1-.327-.521-1.131-.967-1.295a1.76,1.76,0,0,0-1.652.253c-5.64,7.529-11.562,14.895-16.636,22.811-2.1,3.289-2.321,7.767-3.408,11.711l.312-.342c-1.146.238-2.321.417-3.467.729-4.107,1.086-3.11,7.336-6.116,7.723-5.863.789-4.345,4.315-4.345,7.663,0,3.244-2.024,5.327-4.137,7.5-6.2,6.413-11.964,13.169-14.657,21.978a13.707,13.707,0,0,1-2.351,4.732c-11.5,13.824-18.793,30.1-27.111,45.8-3.3,6.25-7.633,11.964-11.621,17.826-5.669,8.318-11.458,16.547-15.639,25.787-1.295,2.872-1.8,6.83-6.086,7.44-.536-2.872-1.116-5.729-1.622-8.6-.387-2.277-.089-4.717-2.544-6.264a3.393,3.393,0,0,1-1.562-4.449c2.321-5.4,3.6-11.681,7.2-16.026a36.023,36.023,0,0,0,8.407-22.6l-.223.327c5.595-1.949,10.074-4.791,12.142-10.952a61.01,61.01,0,0,1,6.711-13.838c2.827-4.315.7-7.6-.8-11.249l-.3.372c2.336-.283,3.512-1.726,3.943-3.928l-.327.357c1.131-.238,2.961-.119,3.288-.759,3.244-6.443,10.848-10.044,11.324-18.451.179-3.214,2.783-6.279,4.211-9.434,2.128-4.762,4.2-9.553,6.294-14.344l.06-.074c1.161-1.22,2.321-2.44,3.482-3.675,1.146-.179,2.321-.3,3.452-.58.536-.134,1.443-.729,1.4-.893-.4-1.309-1.533-1.86-2.678-1.027-.863.625-1.265,1.86-1.875,2.827a8.068,8.068,0,0,1-3.422.193l-.818-.818c-2.946-7.291-1.027-10.714,7.767-13.69l-.312-.253c-.089.551-.164,1.116-.238,1.681-.193,1.473-1.086,3.512-.432,4.33,1.176,1.458,2.961.521,4.285-.67a10.87,10.87,0,0,0,3.794-9.017l-.312.372c5.029-2.946,6.324-9.151,11.458-12.4,4.181-2.649,2.47-8.482,3.155-12.946l-.327.387c4.181-1.042,3.824-4.39,3.854-7.559l-.3.342c4.538-5.521,9.836-10.55,11.041-18.109l-.268.312c3.1-1.548,3.408-4.538,3.839-7.47l-.283.327c2.292-1.309,2.4-2.634,0-3.943l.238.238c.223-7.038.208-7.113,7.886-8.72,5.163-1.071,5.625-5.253,6.428-9.255l-.253.238c3.021-1.309,2.247-2.619,0-3.928ZM53.27,399.9a5.839,5.839,0,0,0,.476,1.384c.149.238.565.327.863.476L52.957,400.2c0-1.294,0-2.589.015-3.884-.208.461,1.86-1.7.357.3-1.9,1.071-3.958,2.128-.06,3.289M131.6,271.321c.342-.417.7-.833,1.042-1.25l-.759,1.518c-.327.387-.64.774-.967,1.161.223-.476.461-.952.684-1.428M181.625,228.5c.3-.387.6-.774.878-1.161-.193.491-.372,1-.565,1.488-2.024.417-3.05,1.83-3.675,3.646a15.224,15.224,0,0,0-3.229.461c-.655.253-1.1,1.071-1.652,1.637.937.089,2.113.565,2.768.179.818-.491,1.22-1.681,1.8-2.574,1.22-1.22,2.455-2.44,3.675-3.675m-21.487-3.571c2.172-.179,3.214-1.518,3.631-3.512,3.422-1.309,3.646-4.152,3.408-7.187,2.292-.119,3.11-1.756,3.72-3.6.327-.387.67-.759,1.012-1.146-.238.491-.461.982-.7,1.458-1.25,1.205-2.485,2.4-3.72,3.6-3.036,1.473-3.809,4.032-3.452,7.142-2.425-.074-3.244,1.488-3.6,3.527-.729.67-3.794.045-1.384,2.47.357-.923.714-1.83,1.086-2.753m-21.4,35.682c2.991-1.443,3.422-4.151,3.482-7.038a7.053,7.053,0,0,0,1.309-.61c.238-.179.3-.565.446-.863-.491.6-.967,1.19-1.443,1.786-3.155,1.354-2.515,4.583-3.5,7.009a8.9,8.9,0,0,0-1.176.774c-.208.164-.283.491-.417.744.432-.6.863-1.205,1.295-1.8M85.217,349.962c3.378-1.295,3.169-4.36,3.527-7.142,4.9-3.646,7.38-8.883,9.36-14.419.1-.3-.521-.982-.952-1.324s-1.205-.789-1.473-.625c-1.443.878-3.1,1.667-4.077,2.946-3.155,4.077-2.262,9.032-2.559,13.719-5.922,1.19-6.012,1.205-3.541,7.157-1.131.313-3.333-.149-1.592,2.217.432-.833.863-1.681,1.309-2.53m110.96-142.521c-4.613,1.9-6.77,6.2-9.612,9.836a1.99,1.99,0,0,0-.089,1.607c.565,1.577,1.309,1.458,2.544.193,3.318-3.393,6.815-6.636,6.86-11.889.878-.625,2.068-1.086,2.515-1.934.387-.714-.1-1.89-.208-2.857-.61.565-1.533,1.042-1.771,1.741a12.112,12.112,0,0,0-.238,3.3m-10.788-17.9c-4.91,1.533-7.306,5.55-9.523,9.717a2.331,2.331,0,0,0-.03,1.652c.521,1.681,1.235,1.622,2.411.208,2.976-3.556,6.845-6.577,6.875-11.844,1.116-.4,3.6.045,1.5-2.381-.417.878-.818,1.771-1.235,2.649M73.849,369.6c-.357-.982-.491-1.949-.759-1.979-.908-.134-2.232-.313-2.753.193-5.833,5.52-8.526,12.618-9.746,20.371a3.446,3.446,0,0,0,.491,1.652c.551,1.339,1.518,1.354,2.4-.179,2.976-5.134,5.892-10.3,8.7-15.505a30.265,30.265,0,0,0,1.667-4.553m-22.26,40.816c-.4-.372-.848-1.1-1.22-1.071-5.773.551-13.675,8.184-13.63,13.318.015.938,1.071,2.068,1.934,2.693.67.476,2.351.744,2.663.357,3.556-4.479,6.949-9.077,10.312-13.7.253-.342-.03-1.056-.06-1.592M27.676,441.012c-2.708.387-2.619,2.187-2.544,3.72.074,1.458-.1,3.824,2.1,3.422a4.8,4.8,0,0,0,3.036-3.467c.045-1.235-1.741-2.559-2.589-3.675M173.917,244.343c-.268-1.131-.536-2.232-.8-3.333a16.684,16.684,0,0,0-2.857,1.756c-1.473,1.354-1.384,2.916,0,4.315a2.414,2.414,0,0,0,1.443.8c2.381-.119,1.89-2.113,2.217-3.541" transform="translate(221.088 269)" fill="#007775"/>
        <path id="Path_7235" data-name="Path 7235" d="M294.316,76.245c1.28-6.116,5.461-7.693,11.056-7.068l-.283-.253c1.131,6.7-.863,12.008-7.619,14.106-4.762,1.488-7.187,4-6.428,8.913.967,6.175-2.544,10.55-6.577,13.794-8.883,7.142-13.6,17.752-22.513,25.1-5.535,4.553-8.541,12.633-11.651,19.582a81.294,81.294,0,0,1-22.022,29.611c-3.378,2.872-4.524,6.547-8.824,1.875-1.086-1.176-1.979-.461-2.842.848-3.586,5.416-6.7,11.383-11.264,15.817-3.408,3.3-4.464,10.565-11.844,8.913-.551-.119-2.009,1.25-2.068,2.009-1.071,13.972-11.368,22.811-18.258,33.584a24.038,24.038,0,0,1-8.437,8.541c-10.237,6.056-15.416,15.966-16.919,27.349-.714,5.491-2.083,10.371-5.074,14.791-.818,1.22-3.333,2.708-4.047,2.306-3.556-2.039-5.7-.372-7.276,2.336-2.976,5.1-5.729,10.342-8.437,15.579-4.032,7.782-11.026,13.943-12.321,23.3-.268,2.024-2.44,4.985-4.226,5.387-7.752,1.771-7.812,7.261-8.065,13.422-.1,2.738-2.024,5.416-3.2,8.095-1.89,4.315-4.583,8.273-4.241,13.392.164,2.381-1.176,5.089-3.69,5.461-7.261,1.071-7.782,8.184-11.74,12.083-4.211,4.151-5.729,8.452-6.012,14.121-.164,3.348-2.4,6.592-3.69,9.88l.253-.253c-3.675.3-7.589.506-6.354,5.893.923,4.062.67,7.172-4.509,7.083-2.544-.045-2.649,1.83-3.244,3.393-5.863,15.386-15.922,28.9-20.118,45.027a8.3,8.3,0,0,1-1.5,3.214c-1.473,1.8-2.961,4.241-4.91,4.791-1.25.372-3.437-3.3-5-3.14-3.11.313-5.268-.417-3.646-3.214,5.223-9.077,5.387-20.758,15.178-27.632,2.961-2.083,3.78-7.217,5.595-10.952,3.527-7.276,7.157-14.493,11.22-21.516,3.854-6.637,6.8-13.794,10.148-20.713l-.179.208C63.914,393,69.181,384.708,72.5,375.408a5.556,5.556,0,0,0-.4-3.318c-.387-1.071-1.086-.551-2.247.565-7.247,6.994-11.458,15.758-14.821,25.028l.3-.312c-2.485.059-4.836.655-5.952,3.065-2.5,5.387-4.687,10.907-7.247,16.249-1.771,3.661-3.363,7.872-8.72,7.41-2.515-.223-2.485,1.9-3.288,3.363q-5.982,10.87-12.112,21.665c-.208.372-1.28.729-1.473.565-.744-.625-1.845-1.533-1.786-2.247a34.888,34.888,0,0,1,6.711-18.124c3.14-4.285,6.785-8.363,7.172-13.913.238-3.288,2.4-3.78,4.657-4.166,4.925-.833,7.41-3.809,7.217-8.556-.268-6.889,2.113-12.4,6.116-18.035,5.119-7.217,10.133-14.984,12.886-23.272,2.619-7.857,8.541-13.556,10.981-21.531,2.009-6.562,7.485-12.008,11.16-18.124,12.8-21.278,24-43.494,39.521-63.151,6.562-8.318,11.339-18.02,17.023-27.037,1.562-2.485,3.229-5.044,6.517-5.595-2.619,8.214-2.649,17.276-8.08,24.582-1.637,2.2.685,2.649,1.815,3.78a22.193,22.193,0,0,1,2.649,4.092c-4.315,1.488-8.824,2.589-12.886,4.6-2.4,1.205-4.107,3.824-6.086,5.848-1.056,1.071-.833,1.964.119,2.976,1.875,1.979,7.5,2.44,8.839.521,3.3-4.7,6.532-9.449,9.806-14.181,5.818-5.759,6.071-13.913,9.032-20.906,2.485-5.848-.759-8.824-5.565-11.011a14,14,0,0,1,.372-3.467c4.256-11.785,12.827-20.4,21.472-28.957-1.071,3.214-2.232,6.413-3.125,9.672-.238.893.074,2.589.684,2.917,1.741.982,3.021-.432,3.794-1.771a37.683,37.683,0,0,0,2.842-6.145c1.667-4.672-2.068-3.913-4.553-4.36-1.042-4.583,1.83-7.857,3.973-11.264,1.815-2.857,4.3-3.571,7.41-1.414,1.711,1.176,3.244-.015,4.285-1.458,1.577-2.217-.506-2.9-1.756-3.928-.432-.357-1.116-.923-1.071-1.28.848-5.446,4.583-8.9,8.809-11.74.8-.536,1.845,1.071,1.5,2.336-.461,1.652-1.25,3.527.67,4.6.432.253,1.994-.908,2.649-1.726,5.1-6.383,10.342-12.678,15.073-19.329,2.277-3.214,1.89-6.666-2.292-8.63l.268.253c2.634-2.217,5.238-4.479,7.916-6.651,7.425-6.026,14-12.529,14.88-22.856.074-.923,1.414-1.726,2.172-2.589l-.268-.312c.6,1.637,1.339,2.738,2.916.789a13.8,13.8,0,0,0,1.518-1.577c.283-.342.848-.878.789-.967a18.772,18.772,0,0,0-1.637-1.815l.253.223c.134-5.282,2.143-9.613,7.723-10.386,5.922-.818,7.529-3.705,8.005-9.434.551-6.8,5.565-11.606,10.624-15.877,3.363-2.827,5.387-5.922,5.178-10.669a21.176,21.176,0,0,1,8.66-18.54c4.345-3.378,6.294-8.541,9.107-13.08,2.455-3.988,5.58-7.559,8.407-11.309,1.116-1.488,1.92-1.428,2.4.179.164.551.223,1.146.357,1.711,1.324,5.446-2.693,8.764-5.015,12.782a4.2,4.2,0,0,0-.536,3.333c1.428,2.827,2.634-.283,4-.417,7.47-.729,12.99-4.9,17.916-10.148.3-.327,1.146-.164,1.726-.238l-.164-.164c1.949,6-1.309,10.356-4.806,14.448-3.452,4.047-7.366,7.708-10.922,11.681-1.28,1.428-1.637,3.735.193,4.672,4.613,2.4,2.887,5.372,1.637,8.764-1.949,5.3-7.1,7.9-9.836,12.44-.357.6.3,2.381,1.012,2.946,1.845,1.473-.7-.015,1.637-.461a27.917,27.917,0,0,0,3.393-1.057c.327.372.655.759,1,1.131-.432-.283-.863-.565-1.28-.848M90.832,325.991c1.741-.193,3.5-.327,5.223-.6,5.268-.833,5.327-1.042,1.994-6.22-1.146-1.815-2.306-1.786-3.467,0a7.68,7.68,0,0,0-3.437,7.083c-4.032.967-3.646,4.166-3.616,7.172-.565.149-1.414.119-1.652.491-4.97,7.738-9.91,15.505-14.746,23.332a5.148,5.148,0,0,0-.655,3.363,9.689,9.689,0,0,0,1.994,4.36c.536.6,2.351.6,3.3.179,2.068-.893,4.6-1.786,5.8-3.482,3.72-5.238,6.979-10.833,5.937-17.737l-.268.253c4.791-3.646,1.577-7.306.03-10.981,3.378-1.324,3.184-4.4,3.556-7.217m28.54-43.479c-.119-.893-.015-1.577-.3-2.009a6.233,6.233,0,0,0-1.875-1.815c-.208-.134-1.161.432-1.339.863-2.262,5.208-4.613,10.386-6.458,15.728-.357,1.027,1.354,2.783,2.113,4.2,1.414-.8,3.244-1.28,4.137-2.47,3.274-4.36,3.244-9.672,3.72-14.493M104.03,335.217l-.744-.655-.149,1.071ZM24.184,477.8l.744.61.134-1.012Z" transform="translate(204.7 200.104)" fill="#007775"/>
        <path id="Path_7236" data-name="Path 7236" d="M316.5,89.216c-4.732-.149-8.809-.4-11.9,5.089-4.568,8.11-11.517,14.761-13.972,24.254-1.22,4.747-5.074,7.9-9.434,10.163-3.69,1.89-7.217,4.33-11.115,5.476-4.538,1.324-4.166,7.663-7.113,7.872a42.819,42.819,0,0,0-11.4,2.425c-5.848,2.039-10.654,4.434-13.957,9.94-1.428,2.381-4.285,3.9-6.5,5.8l-.893,1.027q-11.7,13.213-23.377,26.412c-2.336,2.619-5.148,4.955-5.015,8.943l.313-.327c-11.011,7.485-17.053,19.2-24.894,29.373-6.056,7.872-10.431,17.1-19.389,22.647-2.232,1.384-4.062,4.568-4.628,7.232-1.042,4.851-5.863,5.58-8.154,8.869a10.421,10.421,0,0,0-1.1.863,2.731,2.731,0,0,0-.4.744l1.205-1.875c2.872.7,3.69,2.559,2.664,5.163-.417,1.042-1.295,2.559-2.143,2.693-10.148,1.577-13.184,10.223-17.752,17.41-12.633,19.835-23.838,40.578-37.661,59.669-2.411,3.333-4.107,7.157-6.324,10.639-2.172,3.422-3.6,7.529-7.991,9.092-1.056.372-2.47,1.131-2.783,2.024-3.021,8.75-10.371,15.773-10.223,25.757l.342-.327c-3.973,1.146-3.11,4.762-3.854,7.559l.3-.372-3.928,3.928.327-.327c-5.059-1.146-5.029-1.131-4.3-5.714.268-1.637.312-3.3.461-4.955a25.388,25.388,0,0,0,4.2-2.723c.521-.491.253-1.815.342-2.753-.952.283-2.44.283-2.783.893a23.42,23.42,0,0,0-1.488,4.836c-3.378.536-4.717,3.288-5.878,5.878-2.872,6.354-7.6,11.889-8.675,19.061l.253-.253c-6.726,7.172-14.315,13.63-16.189,24.254-.655,3.646-4.271,5.4-8.288,5.059l-1.235-1.131c-.238-5.729,3.765-9.851,5.535-14.791,5.282-14.7,13.853-27.32,23.049-39.715,5.922-7.976,12.023-16.011,12.961-26.605a8.92,8.92,0,0,1,3.705-5.848c13.2-8.616,19.061-22.484,25-35.891,2.976-6.7,6.25-12.38,11.413-17.573a66.724,66.724,0,0,0,12.127-17.41,86.384,86.384,0,0,1,10.714-16.338c9.374-11.443,18.377-23.079,26.114-35.727,3.065-5.029,7.128-9.493,11.041-13.957a69.483,69.483,0,0,0,9.151-13.05,67.3,67.3,0,0,1,8.244-11.532c10.743-12.633,21.769-25.028,32.5-37.676,17.633-20.787,34.983-41.828,52.705-62.541,9.97-11.666,18.273-24.6,28.094-36.352,1.131-1.339,1.012-2.187-.565-2.649-.551-.179-1.28-.476-1.711-.253-3.125,1.548-6.175,3.244-9.3,4.821-.342.164-1.265-.045-1.369-.3-.387-1.012-1.146-2.634-.729-3.1q11.249-12.633,22.781-25.013Q307.632,23.1,321.932,8.477c.432-.446,2.039.179,3.05.461.164.045.268.908.134,1.309-.164.551-.655,1-.863,1.548-3.794,10-9.047,18.987-17.127,26.233-1.086.967-.923,3.333-1.339,5.044-2.1.268-3.646,1.116-3.631,3.541-2.381.045-3.586,1.205-3.527,3.616a4.425,4.425,0,0,0-1.5.283c-.268.149-.3.714-.432,1.1.551-.565,1.116-1.116,1.681-1.667a3.743,3.743,0,0,0,3.556-3.556c2.2-.223,3.169-1.637,3.541-3.646,6.562-4.36,10.669-12.231,19.895-13.02,1.994-.179,3.72-4.062,5.491-6.309,3.6-4.583,7.113-9.27,13.764-9.345l.551.551c-2.4,8.794-4.821,17.6-7.142,26.412a10.563,10.563,0,0,1-5.119,6.622c-2.366,1.4-2.009,3.928-2.515,6.1l.342-.268-3.913.357c-1.071-2.693-2.2-1.071-3.318-.045-8.824,9.345-21.293,15.193-26.576,27.9-12.722,7.217-16.249,20.921-22.8,32.483-.193.342.089,1.071.357,1.518s1.056,1.176,1.146,1.1c4.657-3.3,10.163-5.431,12.35-11.725,3.244-9.27,8.5-15.535,17.648-22.975.58.893.982,2.039,1.8,2.589a3.428,3.428,0,0,0,2.9.506c1.607-.893,1.815-2.559.863-4.122a15.764,15.764,0,0,0-2.187-2.4c.982-6.25,5.922-9.865,9.627-14.27,2.693-3.2,5.148-6.4,4.613-10.907h3.869c.342,2.1,1.339,3.586,3.6,3.913l-.312-.253c-.268,6.875.893,14.315-7.142,18.109-.119-1.161-.149-2.321-.342-3.467-.283-1.622-1.086-2.083-2.187-1.339a10.615,10.615,0,0,0-1.235,1.22c-1.235,1.19-1.027,2.053.67,2.515,1.116.312,2.277.506,3.422.759-1.295,5.431-7.351,8.437-7.41,14.508Zm-50.1,32.453c-1.89,1.949-3.809,3.869-5.64,5.863a1.622,1.622,0,0,0,.074,1.473c.7.982,1.428.506,2.619-.283,2.827-1.875,2.455-4.687,2.634-7.38a6.04,6.04,0,0,0,1.607-.342c.283-.134.372-.655.565-1.012-.625.551-1.25,1.116-1.86,1.681m10.505,2.217c.476-.268.952-.551,1.428-.833-.4-.357-.744-.982-1.19-1.056-1.473-.238-2.158.372-1.652,1.414.149.312.923.327,1.414.476" transform="translate(168.633 115.486)" fill="#007775"/>
        <path id="Path_7237" data-name="Path 7237" d="M44.153,120.275c-3.527-.179-7.068-.283-10.595-.551-1.681-.134-2.247-1.042-1.384-1.964,5.58-6,10.476-12.975,17.038-17.588A52.53,52.53,0,0,0,63.646,85.143a9.473,9.473,0,0,1,9.047-4.464c1.1,3.452,2.247,2.708,3.422.045,1.964-.461,3.452-1.384,3.437-3.69,10.892-2.306,19.6-7.678,24.969-17.737l1.1-1.012-.8,1.295C93.7,61.573,87.811,70.888,79.88,77.331c-1.845.61-3.512,1.369-3.5,3.72-1.324-.015-2.649-.015-3.973-.03.58-2.247.521-5.059,1.89-6.622,3.482-4,7.128-8.2,11.562-10.952,6.19-3.869,10.639-9.464,15.7-14.344,4.062-3.913,6.354-9.657,9.434-14.582,6.607-.536,9.955-5.684,14.329-9.657A152.062,152.062,0,0,1,153.908,3.988c6.4-3.527,9.583-2.455,13.065,3.735,4.3,7.6,3.943,12.2-1.83,19.24a110.394,110.394,0,0,1-9.538,10.52c-3.541,3.333-6.83,6.875-7.8,11.636-1.19,5.892-4.806,9.508-9.821,11.785-6.131,2.783-11,7.946-18.927,7.633-4.181-.164-8.095,4.39-11.22,8.139-3.3,3.973-6.964,7.678-10.476,11.5l.3-.357a7.2,7.2,0,0,0-6.175,2.887c-10.118,13.377-22.543,24.388-35.5,34.879-7.351,5.952-12.469,14.315-20.653,19.418-1.5.923-2.842,2.128-4.36,3.006-4.479,2.589-7.752-.074-8.154-6.577l-.312.312c9.464-4.94,16.353-12.425,21.383-21.725,6.875-2.6,12.276-6.726,14.523-14.091,1.28-.387,3.735-.074,1.533-2.559-.565.8-1.131,1.592-1.7,2.381-8.288,1.354-12.96,6.22-14.091,14.523M68.9,94.979a5.64,5.64,0,0,0,5.654-2.44c.387-.61-.283-1.89-.461-2.872a5.546,5.546,0,0,0-1.443.357,6.59,6.59,0,0,0-3.5,5.193c-.744.565-3.675-.208-1.369,2.232.372-.818.744-1.652,1.116-2.47" transform="translate(312.342 27.585)" fill="#007775"/>
        <path id="Path_7238" data-name="Path 7238" d="M155.69,3.511c2.068.64,5.372.684,6.012,2.009,2.4,5.029,5.61,1.458,8.452,1.428l-.134-.149c2.053,14.389-3.884,25.162-14.761,34.12-9.166,7.559-18.332,15.237-26.546,23.793-13.571,14.106-28.064,27.245-41.9,41.039-8.824,8.794-17.677,16.9-28.242,23.808-9.211,6.026-16.2,15.475-23.972,23.629-2.1,2.2-4.107,4.241-7.113,5-.491.119-1.428.134-1.533-.1-.476-.937-1.131-2.113-.908-2.991.268-1.042,1.324-1.92,2.128-2.8,14.463-15.743,28.748-31.65,43.524-47.08,3.988-4.152,3.958-9.315,6.116-13.853,2.44-5.119,10.371-2.47,12.708-8.258.655-1.637,1.443-3.214,2.158-4.821l-.268.253,3.869-3.913-.208.193a44.962,44.962,0,0,0,5.863-3.884q17.7-16.026,35.206-32.29c3.869-3.616,7.2-7.8,11-11.5C153.874,20.519,157.341,12.782,156,3.2Z" transform="translate(346.972 44.399)" fill="#007775"/>
        <path id="Path_7239" data-name="Path 7239" d="M65.373,9.124c-.149.476-.134,2.842-1.235,3.586-5,3.393-7.485,8.824-11.339,13.124-4.107,4.583-9.315,6.875-15.326,7.693-5.357.729-10.044-5.193-8.02-10.461,2.083-5.4,7.425-9.121,7.946-15.475.089-1.027,2.515-2.321,4.032-2.664,4.047-.908,8.154-.952,12.008,1.042,2.128,1.116,3.05-.238,3.9-1.9.893-1.771.506-5.4,4.226-3.556,2.946,1.458,3.69,4.33,3.809,8.616" transform="translate(402.128 -0.006)" fill="#007775"/>
        <path id="Path_7240" data-name="Path 7240" d="M38.621,41.1c.223,4.375-1.681,7.916-4.077,11.428-2.351,3.422-4.39,7.1-2.262,11.517.8,1.667.967,3.631-.937,4.434-7.6,3.259-9,10.223-10.892,17.1-.759,2.782-2.425,5.327-3.675,7.976l-.789.729c-5.1-1.235-7.41-3.229-6.473-5.878,3.675-10.386,7.128-20.862,11.383-31.01,1.741-4.181,4.628-8.377,9.092-10.312,3.6-1.577,4-5.669,7.083-7.44.536.461,1.042.952,1.548,1.458" transform="translate(129.24 550.187)" fill="#007775"/>
        <path id="Path_7241" data-name="Path 7241" d="M30.943,60.436c2.158-5.327,4.181-10.7,6.517-15.951a14.693,14.693,0,0,1,3.809-5.58c8.422-6.741,13.02-16.175,18.3-25.147l-.312.253c6.681,1.815,8.08,3.527,5.327,7.41C58.813,29.6,52.668,37.535,46.656,45.556c-3.184,4.226-6.369,8.437-9.627,12.6-1.622,2.083-3.928,2.351-6.369,2.009Z" transform="translate(425.561 190.944)" fill="#007775"/>
        <path id="Path_7242" data-name="Path 7242" d="M74.352,11.938C69.828,20.063,65.9,28.574,55.023,30.375c-2.306.387-4.226,3.72-6.145,5.863-3.437,3.809-5.4,9.107-11.011,10.669l.149.149c.015-1.161-.372-2.544.134-3.452,6.562-11.83,14.865-22.38,23.868-32.438,3.586-4.018,7.172-2.753,10.937-.61.461.476.923.937,1.4,1.384" transform="translate(525.581 118.571)" fill="#007775"/>
        <path id="Path_7243" data-name="Path 7243" d="M45.561,24.1c-1.131,1.28-2.664,2.381-3.318,3.869-2.336,5.253-2.217,5.3-7.5,3.155l.238.327A65.864,65.864,0,0,1,34.8,24.4c.238-2.872.655-5.3,3.75-7.306,5.357-3.482,9.97-8.139,15.014-12.127a3.256,3.256,0,0,1,3.11-.074c1.205,1.086,2.872,2.842,2.678,4.077a10.476,10.476,0,0,1-3.036,6.16C52.763,18.135,48.061,19.786,45.561,24.1Z" transform="translate(482.234 62.884)" fill="#007775"/>
        <path id="Path_7244" data-name="Path 7244" d="M37.6,51.161c-.3,2.306-.1,4.271-.833,5.773q-7.366,15-15.148,29.775a4.551,4.551,0,0,1-2.946,1.786,4.143,4.143,0,0,1-3.1-.774,4.251,4.251,0,0,1-1.027-2.768c6.041-3.9,6.681-10.743,9.315-16.517,2.9-6.428,6.116-12.723,9.166-19.076.7-1.473,1.548-3.541,3.2-2.53,1.071.655,1.042,3.125,1.369,4.33" transform="translate(201.316 646.278)" fill="#007775"/>
        <path id="Path_7245" data-name="Path 7245" d="M34.618,54.334c-4.256,2.916-4.881,7.857-6.5,12.142-1.042,2.783-1.384,6.116-4.092,7.559s-2.8,7.068-6.339,5.238c-1.815-.937.565-5.312,1.176-8.154C21.166,60.3,27.966,52.192,34.573,43.948a8.06,8.06,0,0,1,2.306-1.473,24.328,24.328,0,0,1,.8,3.348c.193,1.756.179,3.541.253,5.312l.327-.342c-2.143.476-3.244,1.994-3.943,3.913Z" transform="translate(236.154 589.551)" fill="#007775"/>
        <path id="Path_7246" data-name="Path 7246" d="M53.489,16.876c.432,2.917,1.25,6.056-.67,8.556-6.413,8.333-13.035,16.532-19.7,24.686a3,3,0,0,1-2.931.342c-.729-.536-1.443-2.381-1.071-2.931,3.214-4.836,6.651-9.523,10.059-14.21,1.384-1.9,3.035-3.646,4.256-5.64.878-1.428,2.1-3.437,1.7-4.717-2.6-8.095,3.928-4.672,6.889-5.684a7.637,7.637,0,0,1,1.756-.134Z" transform="translate(402.717 234.236)" fill="#007775"/>
        <path id="Path_7247" data-name="Path 7247" d="M20.905,33.074C20.98,25.6,27.14,22.123,31.351,17.45c3.973-4.434,8.288-5.952,8.318-3.928a24.823,24.823,0,0,1-1.176,8.3c-2.024,5.788-6.919,9.389-11.681,12.693-1.146.789-4.122-1.1-6.235-1.741Z" transform="translate(285.623 175.436)" fill="#007775"/>
        <path id="Path_7248" data-name="Path 7248" d="M17.982,50.882c2.5-1.637,2.931-4.241,3.229-6.9l.774-.714c1.562.67,3.393,1.012,4.6,2.083,1.428,1.28,1.131,3.169.164,4.866-2.9,5.134-5.52,10.476-8.735,15.416C15.393,69.66,15.11,75.7,8.935,76.877c1.235-5.029,2.158-10.178,3.839-15.059,1.324-3.884,3.571-7.44,5.416-11.145Z" transform="translate(124.018 600.488)" fill="#007775"/>
        <path id="Path_7249" data-name="Path 7249" d="M42.3,19.854c-.045,1.176.387,2.723-.208,3.482Q33.607,34.474,24.754,45.329c-.625.759-2.2,1-3.348,1a6.02,6.02,0,0,1-2.9-1.161c-.283-.193-.342-1.22-.119-1.652a31.22,31.22,0,0,1,2.723-4.553C25.334,33.276,31.152,28.9,34.485,22.4c1.548-3.021,4.91-2.812,7.931-2.425Z" transform="translate(253.295 274.202)" fill="#007775"/>
        <path id="Path_7250" data-name="Path 7250" d="M14.542,66.027c-.119-4.39,2.857-7.544,4.538-11.19,1.473-3.14,3.839-5.893,3.5-9.657l-.327.327c2.1-.521,3.169-2.053,3.928-3.928l-.3.372a7.823,7.823,0,0,0,3.854-7.559l-.342.327c1.295.015,2.574.015,3.869.015l-.283-.283c.223,1.741,1.205,3.928.521,5.178-5.223,9.612-7.217,21.338-17.573,27.677-.476-.417-.937-.848-1.384-1.28" transform="translate(201.798 477.359)" fill="#007775"/>
        <path id="Path_7251" data-name="Path 7251" d="M22.036,40.217c2.887-.179,6.339-.729,4.955,3.988-1.458,4.985-3.333,9.851-5.223,14.7a3.381,3.381,0,0,1-2.47,1.8,3.69,3.69,0,0,1-2.857-1.488,68.738,68.738,0,0,1-4.628-10.907c-.461-1.562.952-2.768,3.259-2.411,4.4.67,5.416-3.274,7.261-5.982Z" transform="translate(162.759 554.074)" fill="#007775"/>
        <path id="Path_7252" data-name="Path 7252" d="M36.292,16.706a14.131,14.131,0,0,1-3.512-2.6c-.432-.551.03-2.425.7-3.125a111.274,111.274,0,0,1,8.66-8.3c1.458-1.235,3.333-.565,4.6.655a4.553,4.553,0,0,1,1.488,3.006c-.342,5.892-5.461,10.476-11.934,10.371" transform="translate(452.665 27.991)" fill="#007775"/>
        <path id="Path_7253" data-name="Path 7253" d="M20.944,44.241c-1.473,6.056-2.172,12.4-5.788,17.722a3.453,3.453,0,0,1-2.946,1.25,3.163,3.163,0,0,1-1.667-2.649c1.652-6.577,2.574-13.749,10.669-16.07Z" transform="translate(146.024 614.063)" fill="#007775"/>
        <path id="Path_7254" data-name="Path 7254" d="M32.805,17.132c-.565-4.9-.506-9.612,4.3-12.618a4.558,4.558,0,0,1,3.259-.684A2.95,2.95,0,0,1,41.674,6.4a42.846,42.846,0,0,1-2.485,8.5c-1.1,2.5-3.66,2.634-6.116,2.5Z" transform="translate(451.971 51.863)" fill="#007775"/>
        <path id="Path_7255" data-name="Path 7255" d="M39.555,26.932c-.06-5.253,1.756-9.345,7.351-10.446,1.443-.283,4.211.506,4.524,1.443.476,1.324-.253,4.2-1.339,4.747-3.378,1.756-7.157,2.738-10.788,4Z" transform="translate(545.513 228.019)" fill="#007775"/>
        <path id="Path_7256" data-name="Path 7256" d="M31.7,19.867c-3.378,3.735-2.708,10.312-8.288,12.9a2.879,2.879,0,0,1-1.622.4c-.476-.164-1.176-.848-1.146-1.265.476-6.2,3.259-11,8.883-13.913a1.6,1.6,0,0,1,1.518.357c1.071,2.113,1.533-.937.655,1.518" transform="translate(286.511 248.759)" fill="#007775"/>
        <path id="Path_7257" data-name="Path 7257" d="M47.984,14.581c-1.562,6.5-5.818,10.58-11.8,13.094l.3.3c-.818-3.452,1.875-6.428,1.756-9.374-.179-4.077,2.024-4.315,4.643-4.955,1.057-.268,2.113-.6,3.169-.893.67.6,1.309,1.205,1.934,1.83" transform="translate(502.235 176.981)" fill="#007775"/>
        <path id="Path_7258" data-name="Path 7258" d="M21.818,52.974c-1.116-5.684,1.205-10.3,4.776-14.359,1.042-1.19,3.229-2.783,4.152-2.4,2.649,1.1,1.637,3.869,1.533,6.1l.3-.327c-3.155,1.562-3.646,4.479-3.854,7.559l.327-.4Q25.367,51,21.669,52.855Z" transform="translate(298.921 501.899)" fill="#007775"/>
        <path id="Path_7259" data-name="Path 7259" d="M28.571,17.381c-.878,4.821-4.285,8.124-7.247,11.636a2.934,2.934,0,0,1-2.872.149,3.577,3.577,0,0,1-1.205-2.976c1.681-5.372,4.717-9.3,11.071-9.062Z" transform="translate(238.674 237.586)" fill="#007775"/>
        <path id="Path_7260" data-name="Path 7260" d="M16.018,49.183c-.1-5.669,3.675-9.6,6.354-13.987a7.223,7.223,0,0,1,2.708-2.068c.952-.551,1.875,3.1,1.012,4.583-2.6,4.464-4.479,9.523-9.687,11.859Z" transform="translate(222.3 459.026)" fill="#007775"/>
        <path id="Path_7261" data-name="Path 7261" d="M47.884,20.425c-1.771,4.256-4.494,7.559-8.958,9.136a2.094,2.094,0,0,1-1.5-.327c-.476-.283-1.19-.8-1.161-1.176.312-4.032,3.779-7.752,8.63-8.988.789-.208,1.9.833,2.991,1.354" transform="translate(503.316 264.33)" fill="#007775"/>
        <path id="Path_7262" data-name="Path 7262" d="M15.223,37.025c-1.949-6.012.551-10.148,5.595-13.169a2.4,2.4,0,0,1,1.667-.387c1.533.461,1.964,1.443,1.1,2.455-2.946,3.541-4.3,8.363-8.675,10.758Z" transform="translate(202.1 325.137)" fill="#007775"/>
        <path id="Path_7263" data-name="Path 7263" d="M22.429,48.613c-1.295-3.065-3.9-6.041.476-9.017,3.6-2.44,5.193-1.637,6.19,3.72a13.507,13.507,0,0,1,.119,1.741l.327-.357q-3.727,1.83-7.425,3.66Z" transform="translate(284.145 531.348)" fill="#007775"/>
        <path id="Path_7264" data-name="Path 7264" d="M22.993,39.9c-.193,3.512-.4,7.038-.6,10.55l.312-.3c-4.747-.714-9-2.113-10.7-7.291l-.312.4c4.434,1.071,7.023-2.6,10.476-4.077Z" transform="translate(162.382 543.844)" fill="#007775"/>
        <path id="Path_7265" data-name="Path 7265" d="M22.735,40.017c8.377,2.693,9.315,4.419,5.431,9.984a14.256,14.256,0,0,1-2.619,2.262c-.506-.893-1.652-2.083-1.4-2.634,1.652-3.616.149-6.741-1.1-9.955Z" transform="translate(315.562 550.687)" fill="#007775"/>
        <path id="Path_7266" data-name="Path 7266" d="M43.13,8.094c-.119,4.657-2.411,7.113-7.157,7.1l.312.312a29.619,29.619,0,0,0-1.19-3.021c-.744-1.443-1.548-2.857-.327-4.419a4.1,4.1,0,0,1,5.7-1.205c.967.521,1.934,1.042,2.887,1.548Z" transform="translate(473.846 85.915)" fill="#007775"/>
        <path id="Path_7267" data-name="Path 7267" d="M36.753,26.412c-.833-6.25,3.675-9.092,7.782-12.157a1.653,1.653,0,0,1,1.295.015c.342,1,1.042,2.336.655,3.021-2.217,4-4.762,7.8-9.419,9.389Z" transform="translate(508.734 196.145)" fill="#007775"/>
        <path id="Path_7268" data-name="Path 7268" d="M45.272,17.455C44.052,24.062,40.7,28.987,34.261,31.5l.283.253c.67-6.86,4.36-11.577,10.386-14.642Z" transform="translate(475.543 237.526)" fill="#007775"/>
        <path id="Path_7269" data-name="Path 7269" d="M19.2,38.885c-.074,3.586-.164,7.187-.238,10.788l.312-.4-6.547,4.568c-.506-.506-1.012-.982-1.548-1.458,1.265-5.327,3.214-10.267,7.842-13.66Z" transform="translate(155.137 537.445)" fill="#007775"/>
        <path id="Path_7270" data-name="Path 7270" d="M15.675,59.014c-.268-.506-.833-1.027-.789-1.488a7.292,7.292,0,0,1,5.134-6.473,2.285,2.285,0,0,1,1.622.372c.461.283,1.131.878,1.071,1.25-.461,3.318-4.836,7.187-7.038,6.339" transform="translate(206.588 707.928)" fill="#007775"/>
        <path id="Path_7271" data-name="Path 7271" d="M22.412,24.316c-.744,1.518-1.176,3.393-2.336,4.434-1.265,1.146-.759,5.535-4.211,2.976-1.146-.848-1.83-2.991-1.845-4.553,0-1.964,2.039-2.173,3.631-2.321,1.681-.149,3.378-.134,5.074-.193Z" transform="translate(194.598 337.504)" fill="#007775"/>
        <path id="Path_7272" data-name="Path 7272" d="M16.713,29.715c-.357-.4-1.086-.923-1.012-1.205a9.912,9.912,0,0,1,5.4-6.279,1.628,1.628,0,0,1,1.339-.045,2.016,2.016,0,0,1,.8,1.4c-.208,3.556-4.137,7.187-6.532,6.131" transform="translate(217.856 306.184)" fill="#007775"/>
        <path id="Path_7273" data-name="Path 7273" d="M14.316,51.577c-.893-6.279.937-11.413,6.309-15.059.461.432.923.863,1.384,1.28-.818,5.58-2.232,10.818-7.827,13.66Z" transform="translate(195.701 506.868)" fill="#007775"/>
        <path id="Path_7274" data-name="Path 7274" d="M18.483,56.048c-.253,1.086-.223,2.366-.818,3.2a3.463,3.463,0,0,1-2.649,1.384c-1.518-.268-1.607-1.4-.655-2.678.67-.908,1.056-2.024,1.652-2.991a6.76,6.76,0,0,1,1.176-1.176c.432.744.863,1.5,1.295,2.262" transform="translate(190.73 746.548)" fill="#007775"/>
        <path id="Path_7275" data-name="Path 7275" d="M36.134,24.971c1.205-4.419,3.259-8.2,7.812-10.014l.3.283c.372,5.253-2.545,8.6-6.592,11.264-.506-.506-1.012-1.012-1.518-1.533" transform="translate(501.541 207.6)" fill="#007775"/>
        <path id="Path_7276" data-name="Path 7276" d="M15.477,25.617a2.821,2.821,0,0,1,3.571,2.559,3.677,3.677,0,0,1-1.562,2.8,2.633,2.633,0,0,1-4.107-1.309c-.67-1.711.4-3.214,2.1-4.047" transform="translate(182.903 354.653)" fill="#007775"/>
        <path id="Path_7277" data-name="Path 7277" d="M45.088,12.094c.952.432,2.5.625,2.812,1.369,1.131,2.544-.432,4.2-2.664,5.074-1.681.655-4.018.06-4.122-1.548-.149-2.247,1.548-4.122,3.973-4.9" transform="translate(570.558 167.862)" fill="#007775"/>
        <path id="Path_7278" data-name="Path 7278" d="M22.89,48.335c-1.533,1.622-3.036,3.274-4.613,4.866a6.672,6.672,0,0,1-1.443.878c-.06-2.232-.491-4.538-.089-6.7.4-2.128,2.425-2.292,4.062-1.369.848.476,1.25,1.741,1.86,2.649Z" transform="translate(230.07 631.262)" fill="#007775"/>
        <path id="Path_7279" data-name="Path 7279" d="M36.743,12.9c-.342-1-1.28-2.351-.923-2.9a11.36,11.36,0,0,1,3.586-3.452c.432-.268,2.232.521,2.411,1.1.67,2.4-2.634,5.669-5.074,5.253" transform="translate(496.081 90.153)" fill="#007775"/>
        <path id="Path_7280" data-name="Path 7280" d="M29.111,25.945a4.267,4.267,0,0,1,.789-5.892,3.611,3.611,0,0,1,2.8-.61c1.25.283,1.25,1.324.342,2.544-.967,1.295-1.786,2.723-2.753,4.018-.134.179-.774-.03-1.176-.06" transform="translate(392.559 268.944)" fill="#007775"/>
        <path id="Path_7281" data-name="Path 7281" d="M20.106,37.522c-.03.551-.045,1.116-.045,1.667.045,3.735-1.637,6.562-5.223,7.5-2.738.714-.312-5.64,3.78-8.6a4.908,4.908,0,0,1,1.622-.446Z" transform="translate(189.792 520.803)" fill="#007775"/>
        <path id="Path_7282" data-name="Path 7282" d="M11.8,49.145C11.112,43.7,14.029,40.4,18.433,37.97l1.235,1.116C18.3,43.4,17.674,48.267,11.975,49.309Z" transform="translate(162.359 527.021)" fill="#007775"/>
        <path id="Path_7283" data-name="Path 7283" d="M26.434,46.736c-.878.8-1.994,2.664-3.363,2.872-2.187.327-2.083-1.815-1.875-3.407.208-1.533.089-3.69,2.4-3.467,1.711.164,2.976,1.443,2.842,4" transform="translate(292.772 592.909)" fill="#007775"/>
        <path id="Path_7284" data-name="Path 7284" d="M27.534,8.112a24.141,24.141,0,0,1,5.1.342c.744.193,1.295,1.5,1.7,2.411.134.3-.432,1.309-.744,1.339-.967.1-2.321.253-2.857-.283a24.393,24.393,0,0,1-2.887-4.166Z" transform="translate(382.173 107.636)" fill="#007775"/>
        <path id="Path_7285" data-name="Path 7285" d="M36.848,19.413c.908-3.913,3.2-6.428,7.261-7.142.506.521,1.027,1.027,1.548,1.533-1.22,3.467-3.794,5.7-6.875,7.44-.625-.625-1.28-1.235-1.934-1.83" transform="translate(511.451 170.319)" fill="#007775"/>
        <path id="Path_7286" data-name="Path 7286" d="M40.01,16.364c-.3,1.845-1.324,3.1-3.2,2.961-.64-.045-1.786-1.7-1.681-1.815a39.782,39.782,0,0,1,3.3-3.422c.521.759,1.056,1.533,1.577,2.277" transform="translate(487.502 195.525)" fill="#007775"/>
        <path id="Path_7287" data-name="Path 7287" d="M35.316,22.856a20.606,20.606,0,0,1,.922-4.762,3.865,3.865,0,0,1,2.634-1.607c1.622-.3,2.009,1.89.357,3.631a20.988,20.988,0,0,1-4,2.649Z" transform="translate(488.952 228.464)" fill="#007775"/>
        <path id="Path_7288" data-name="Path 7288" d="M22.176,17.362c-.164,2.634-1.89,4.062-4.032,5.134-1.086.551-1.949,0-2.262-1.458a2.222,2.222,0,0,1,.283-1.681c1.681-1.92,3.884-2.262,6.279-1.741Z" transform="translate(219.788 240.982)" fill="#007775"/>
        <path id="Path_7289" data-name="Path 7289" d="M37.694,22.376c-.625-.208-1-1.027-.179-2.068a7.914,7.914,0,0,1,2.247-2.1c.223-.119,1.652,1.056,1.637,1.607-.06,1.7-.774,3.125-3.705,2.559" transform="translate(514.176 252.633)" fill="#007775"/>
        <path id="Path_7290" data-name="Path 7290" d="M32.081,22.876a21.085,21.085,0,0,1-.923,4.628c-.342.774-1.875,1.711-2.53,1.5-2.485-.8-1.131-2.544-.208-3.5,1.042-1.056,2.6-1.607,3.943-2.381Z" transform="translate(377.715 317.516)" fill="#007775"/>
        <path id="Path_7291" data-name="Path 7291" d="M27.848,28.69c-.432-.878-1.354-1.89-1.19-2.649.372-1.741,1.592-2.887,3.6-2.1.4.149.952.893.863,1.19-.491,1.681-1.146,3.333-3.274,3.556" transform="translate(369.746 328.8)" fill="#007775"/>
        <path id="Path_7292" data-name="Path 7292" d="M13.891,30.863l-1.369-1.056c1.19-1.146,2.381-2.292,3.556-3.437.372.417,1.056.833,1.071,1.265.045,2.128-1.235,3.08-3.259,3.229" transform="translate(173.806 365.999)" fill="#007775"/>
        <path id="Path_7293" data-name="Path 7293" d="M10.475,41l-1.28-1.19,3.482-3.616c.342.491.923.967.967,1.488.149,2.172-1,3.259-3.169,3.318" transform="translate(127.627 502.37)" fill="#007775"/>
        <path id="Path_7294" data-name="Path 7294" d="M9.953,40.711c-.863.6-1.741,1.19-2.6,1.786-.208-1.012-.848-2.247-.491-3.006a3.079,3.079,0,0,1,2.619-1.4c1.473.3,1.562,1.5.476,2.619" transform="translate(93.716 528.417)" fill="#007775"/>
        <path id="Path_7295" data-name="Path 7295" d="M12.4,48.967c.491-3.75-.253-7.991,4.062-10.223l-.268-.268c-.64,3.824,1.875,8.5-2.976,11.2Z" transform="translate(172.168 534.059)" fill="#007775"/>
        <path id="Path_7296" data-name="Path 7296" d="M24.916,43.765c-.491-.446-.908-.818-1.324-1.19,1.176-1.176,2.351-2.336,3.512-3.512.342.476,1,.982.982,1.428-.119,2.009-1.161,3.259-3.169,3.274" transform="translate(327.457 542.192)" fill="#007775"/>
        <path id="Path_7297" data-name="Path 7297" d="M11.943,39.441a21.715,21.715,0,0,1-.432,4.955,2.978,2.978,0,0,1-2.5,1.518c-2.187-.536-2.039-2.321-.833-3.616,1.056-1.131,2.664-1.771,4.032-2.634Z" transform="translate(101.458 547.439)" fill="#007775"/>
        <path id="Path_7298" data-name="Path 7298" d="M26.172,43.943c-1.548.774-3.065,1.592-4.657,2.262-.342.149-1.235-.134-1.295-.372-.283-1.027-.818-2.4-.387-3.155,1.235-2.2,3.541-2.708,5.937-2.783l.818.818a4.634,4.634,0,0,1-.357,3.155Z" transform="translate(273.035 553.754)" fill="#007775"/>
        <path id="Path_7299" data-name="Path 7299" d="M20.117,45.665a1.746,1.746,0,0,1-.908-1.28c-.134-2.068,2.247-4.181,4.047-3.586.461.149,1.116.67,1.146,1.057.089,1.4-3.11,4.226-4.285,3.809" transform="translate(266.547 564.874)" fill="#007775"/>
        <path id="Path_7300" data-name="Path 7300" d="M15.12,43.309A2.939,2.939,0,0,1,12.144,46.6c-.387.03-.833-.684-1.265-1.056C12,44.336,13.1,43.13,14.2,41.94l.923,1.369" transform="translate(151.001 582.125)" fill="#007775"/>
        <path id="Path_7301" data-name="Path 7301" d="M21.621,45.226A3.838,3.838,0,0,1,25,41.878a3.6,3.6,0,0,1,2.9,1.146A3.153,3.153,0,0,1,27.588,46a3.587,3.587,0,0,1-2.887.61,12.738,12.738,0,0,1-3.155-1.443Z" transform="translate(299.073 581.041)" fill="#007775"/>
        <path id="Path_7302" data-name="Path 7302" d="M34.66,7.885a15.357,15.357,0,0,1,.863,2.738c.045.268-.7.67-1.071,1a16.71,16.71,0,0,1-.833-2.753c-.045-.268.67-.655,1.042-.982" transform="translate(466.603 109.441)" fill="#007775"/>
        <path id="Path_7303" data-name="Path 7303" d="M29.058,10.546c-.253-.446-.759-.923-.729-1.339.119-1.562.863-1.979,1.741-1.042a1.838,1.838,0,0,1,.089,1.548c-.149.357-.714.565-1.1.833" transform="translate(393.192 106.452)" fill="#007775"/>
        <path id="Path_7304" data-name="Path 7304" d="M40.721,6.38c.982.417,1.86.774,2.738,1.146-.372.372-.833,1.116-1.116,1.056a14.317,14.317,0,0,1-2.649-1.071c.357-.387.7-.774,1.027-1.131" transform="translate(550.954 88.551)" fill="#007775"/>
        <path id="Path_7305" data-name="Path 7305" d="M35.47,5.9a11.427,11.427,0,0,1,3.437.149c.67.223,1.056,1.309,1.577,2.009-1.027.179-2.247.8-3.006.446C36.586,8.085,36.125,6.805,35.47,5.9Z" transform="translate(492.324 81.088)" fill="#007775"/>
        <path id="Path_7306" data-name="Path 7306" d="M32.835,7.64c-.476-.134-1.19-.134-1.354-.446-.506-.878.134-1.428,1.562-1.25.417.06.759.625,1.131.952-.446.253-.893.491-1.339.744" transform="translate(434.576 82.024)" fill="#007775"/>
        <path id="Path_7307" data-name="Path 7307" d="M34.864,5.893c.491-.863.8-2.053,1.548-2.485.625-.372,1.771.134,2.693.253-.432.655-.729,1.667-1.324,1.9a9.746,9.746,0,0,1-3.036.179Z" transform="translate(482.261 45.44)" fill="#007775"/>
        <path id="Path_7308" data-name="Path 7308" d="M15.951,51.181c.179-.387.342-1.1.536-1.116a5.206,5.206,0,0,1,1.577.432c-.164.387-.327,1.086-.506,1.086a5.312,5.312,0,0,1-1.607-.4" transform="translate(221.4 694.886)" fill="#007775"/>
        <path id="Path_7309" data-name="Path 7309" d="M24.125,45.7a16.163,16.163,0,0,1-2.768,1.19c-.268.06-.744-.729-1.116-1.116a16.741,16.741,0,0,1,2.8-1.25c.238-.059.714.759,1.086,1.176" transform="translate(280.945 617.988)" fill="#007775"/>
        <path id="Path_7310" data-name="Path 7310" d="M17.2,44.884c-.536.193-1.056.58-1.548.551s-.952-.536-1.414-.818a4.683,4.683,0,0,1,1.592-.536c.461.045.908.521,1.369.8" transform="translate(197.652 611.813)" fill="#007775"/>
        <path id="Path_7311" data-name="Path 7311" d="M1.475,40.766c.179.521.58,1.086.476,1.548-.372,1.726-1.161,1.934-1.86.551a2.1,2.1,0,0,1,.223-1.637c.149-.283.759-.312,1.161-.461" transform="translate(-0.002 565.83)" fill="#007775"/>
        <path id="Path_7312" data-name="Path 7312" d="M8.229,40.564c.134.432.446.893.357,1.265-.327,1.414-.982,1.577-1.548.417a1.771,1.771,0,0,1,.238-1.339c.119-.223.625-.238.952-.342" transform="translate(96.839 563.026)" fill="#007775"/>
        <path id="Path_7313" data-name="Path 7313" d="M7.889,46.4c.015-2.946.342-5.744,3.541-7.128l-.312-.313c-.432,2.768.015,5.937-3.5,7.217Z" transform="translate(105.78 540.707)" fill="#007775"/>
        <path id="Path_7314" data-name="Path 7314" d="M5.983,41.076c-.848-.387-1.7-.774-2.544-1.176.4-.312.878-.952,1.19-.878a13.417,13.417,0,0,1,2.544,1.071c-.4.327-.789.655-1.19.982" transform="translate(47.733 541.548)" fill="#007775"/>
        <path id="Path_7315" data-name="Path 7315" d="M8.628,37.762c-.179,1.131-.327,2.262-.58,3.363-.119.551-.491,1.5-.67,1.473-1.309-.119-1.8-1.116-.967-2.4A11.8,11.8,0,0,1,8.926,38.06Z" transform="translate(83.286 524.134)" fill="#007775"/>
        <path id="Path_7316" data-name="Path 7316" d="M24.963,37.282c.253,3.1.432,6.16-3.6,7.083l.238.238c-.461-3.2-1.012-6.428,3.512-7.2Z" transform="translate(295.627 517.472)" fill="#007775"/>
        <path id="Path_7317" data-name="Path 7317" d="M9.13,37.471c.372.03.967-.06,1.056.1a2.146,2.146,0,0,1,.283,1.5c-.655,1.667-1.4,1.607-1.815-.134-.089-.432.312-.982.476-1.473" transform="translate(119.939 520.095)" fill="#007775"/>
        <path id="Path_7318" data-name="Path 7318" d="M7.632,36.909c.357.387,1.071.878,1,1.146a16.514,16.514,0,0,1-1.19,2.678c-.342-.387-1.012-.863-.952-1.146a16.865,16.865,0,0,1,1.146-2.678" transform="translate(89.981 512.295)" fill="#007775"/>
        <path id="Path_7319" data-name="Path 7319" d="M7.156,43.191c-.179-3.05.149-5.848,3.586-7.083l-.312-.268c-.164,2.857.045,5.922-3.527,7.083Z" transform="translate(95.814 497.457)" fill="#007775"/>
        <path id="Path_7320" data-name="Path 7320" d="M10.71,35.361c.045,2.991.03,5.952-3.571,7.128l.312.268c.015-2.961-.074-5.982,3.571-7.128Z" transform="translate(99.089 490.808)" fill="#007775"/>
        <path id="Path_7321" data-name="Path 7321" d="M22.88,42.214c.045-2.946-.625-6.25,3.586-7.083l-.238-.253c.015,2.485.015,4.97.03,7.455l.268-.312c-1.265.015-2.515.045-3.78.059Z" transform="translate(315.715 484.104)" fill="#007775"/>
        <path id="Path_7322" data-name="Path 7322" d="M7.691,39.892c.164-1.131.268-2.262.506-3.378.119-.536.521-1.488.7-1.458,1.28.149,1.786,1.146.967,2.411a11,11,0,0,1-2.485,2.158Z" transform="translate(102.421 486.56)" fill="#007775"/>
        <path id="Path_7323" data-name="Path 7323" d="M11.043,34.645c-.179.461-.342.923-.521,1.384a14.527,14.527,0,0,1-1.146-1.89c-.045-.1.64-.521.982-.8l.684,1.309" transform="translate(130.109 462.701)" fill="#007775"/>
        <path id="Path_7324" data-name="Path 7324" d="M9.566,33.341c.61.7,1.681,1.4,1.622,1.979-.089.8-1.056,1.488-1.652,2.217-.4-.372-1.22-.848-1.161-1.131a19.341,19.341,0,0,1,1.19-3.065" transform="translate(116.215 462.771)" fill="#007775"/>
        <path id="Path_7325" data-name="Path 7325" d="M14.427,27.2a13.591,13.591,0,0,1-.149,3.408c-.223.714-1.161,1.22-1.786,1.83-.149-1-.714-2.187-.357-2.946.432-.878,1.652-1.384,2.515-2.053Z" transform="translate(166.827 377.506)" fill="#007775"/>
        <path id="Path_7326" data-name="Path 7326" d="M39.694,22.407c-.179.327-.342.952-.521.952-1.711-.015-2.1-.6-1-1.309.3-.193,1,.223,1.518.357" transform="translate(521.283 305.352)" fill="#007775"/>
        <path id="Path_7327" data-name="Path 7327" d="M27.7,18.53a30.908,30.908,0,0,1,3.318.833c.476.164.833.729,1.235,1.116-.937.387-1.964,1.205-2.8,1.027-.982-.193-1.771-1.265-2.649-1.949Z" transform="translate(372.04 257.194)" fill="#007775"/>
        <path id="Path_7328" data-name="Path 7328" d="M23.861,15.655c-.655.565-1.295,1.518-1.9,1.518-.67-.03-1.324-.923-1.994-1.428.387-.357.818-1.027,1.146-.982a15.949,15.949,0,0,1,2.753.893" transform="translate(277.073 204.864)" fill="#007775"/>
        <path id="Path_7329" data-name="Path 7329" d="M44.1,14.422c-.491.967-.967,1.92-1.458,2.887-.4-.417-1.22-.952-1.131-1.235a17.523,17.523,0,0,1,1.384-2.931c.4.432.8.848,1.205,1.28" transform="translate(576.056 182.408)" fill="#007775"/>
        <path id="Path_7330" data-name="Path 7330" d="M35.44,4.615c-.6-.506-1.176-1.012-1.756-1.518.327.134.8.164.952.417a5.477,5.477,0,0,1,.491,1.414Z" transform="translate(467.535 42.983)" fill="#007775"/>
        <path id="Path_7331" data-name="Path 7331" d="M27.8,7.339c.357-.878.7-1.756,1.056-2.619,2.544,2.44-.6,1.726-1.309,2.351Z" transform="translate(382.311 65.511)" fill="#007775"/>
        <path id="Path_7332" data-name="Path 7332" d="M34.36,4.9c-.625.536-1.265,1.071-1.89,1.607.06-.417-.03-.982.208-1.22a4.423,4.423,0,0,1,1.414-.655Z" transform="translate(450.684 64.359)" fill="#007775"/>
        <path id="Path_7333" data-name="Path 7333" d="M29.2,4.878c-.6.565-1.176,1.146-1.771,1.711.149-.387.179-.967.446-1.131a4.874,4.874,0,0,1,1.577-.312Z" transform="translate(380.66 67.704)" fill="#007775"/>
        <path id="Path_7334" data-name="Path 7334" d="M32.892,7.438c-.387.312-.8.908-1.161.878s-.684-.67-1.012-1.056c.387-.312.8-.908,1.161-.878s.67.684,1.012,1.056" transform="translate(426.394 88.564)" fill="#007775"/>
        <path id="Path_7335" data-name="Path 7335" d="M34.275,10.634c.134-2.292,1.518-3.288,3.646-3.512l-.313-.327c-.357,2.024-1.19,3.586-3.586,3.6Z" transform="translate(472.226 94.312)" fill="#007775"/>
        <path id="Path_7336" data-name="Path 7336" d="M37.27,7.037a3.836,3.836,0,0,1-3.437,3.735l-.045-.03a4.3,4.3,0,0,1,3.735-3.467Z" transform="translate(468.978 97.671)" fill="#007775"/>
        <path id="Path_7337" data-name="Path 7337" d="M36.248,7.33c-.357.863-.729,1.726-1.086,2.589-.506-.476-1.027-.952-1.548-1.428.863-.4,1.726-.789,2.589-1.205Z" transform="translate(466.563 101.113)" fill="#007775"/>
        <path id="Path_7338" data-name="Path 7338" d="M29.757,10.162c1.161-3.125,2.292-3.036,3.393.03l.208-.208-3.9-.045Z" transform="translate(408.892 109.024)" fill="#007775"/>
        <path id="Path_7339" data-name="Path 7339" d="M30.717,11.714a17.381,17.381,0,0,1-1.324-2.485c-.059-.164.848-.655,1.324-1l-.3-.238c0,1.324.015,2.649.03,3.973Z" transform="translate(407.931 110.954)" fill="#007775"/>
        <path id="Path_7340" data-name="Path 7340" d="M34.493,10.026c.655-.476,1.324-.937,1.979-1.414-.476.655-.952,1.295-1.443,1.949Z" transform="translate(478.764 119.532)" fill="#007775"/>
        <path id="Path_7341" data-name="Path 7341" d="M40.224,10.593c.923-1.428,1.771-3.3,3.527-.893.119.164-1.384,1.488-2.128,2.277-.476-.461-.937-.908-1.4-1.384" transform="translate(558.31 118.548)" fill="#007775"/>
        <path id="Path_7342" data-name="Path 7342" d="M40.476,11.586c.58-1.28,1.354-3.244,2.872-1.845,1.428,1.324-.268,2.425-1.622,3.065Z" transform="translate(561.808 128.507)" fill="#007775"/>
        <path id="Path_7343" data-name="Path 7343" d="M44.7,10.635c-.818,1.979-2.172,3.065-4.434,2.678l.238.223c-.149-2.187.967-3.467,2.946-4.122Z" transform="translate(558.837 130.677)" fill="#007775"/>
        <path id="Path_7344" data-name="Path 7344" d="M40.32,13.458A4.387,4.387,0,0,1,43.831,9.9l-.223-.223a3.9,3.9,0,0,1-3.586,3.482Z" transform="translate(555.506 134.328)" fill="#007775"/>
        <path id="Path_7345" data-name="Path 7345" d="M40.716,9.912c-.253.506-.491,1.012-.744,1.5.342-.4.7-.8,1.042-1.205Z" transform="translate(554.812 137.576)" fill="#007775"/>
        <path id="Path_7346" data-name="Path 7346" d="M28.663,11.185c-.357.283-.878.878-1.056.789-1.339-.64-1.28-1.339.149-1.741.193-.06.6.61.908.952" transform="translate(369.78 141.972)" fill="#007775"/>
        <path id="Path_7347" data-name="Path 7347" d="M23.891,11.314c-.491-.253-.982-.491-1.473-.729.387.342.774.684,1.161,1.042Z" transform="translate(311.162 146.917)" fill="#007775"/>
        <path id="Path_7348" data-name="Path 7348" d="M22.5,10.946c.625.565,1.265,1.116,1.89,1.681-.357-.134-.863-.179-1.027-.432a5.892,5.892,0,0,1-.551-1.562Z" transform="translate(312.245 147.597)" fill="#007775"/>
        <path id="Path_7349" data-name="Path 7349" d="M24.134,12.733c-.58-.491-1.146-.982-1.726-1.473.268.164.61.268.774.491a9.515,9.515,0,0,1,.64,1.295Z" transform="translate(311.024 156.286)" fill="#007775"/>
        <path id="Path_7350" data-name="Path 7350" d="M40.113,11.121c-.506.908-1.027,1.83-1.533,2.738-2.143-2.634.119-2.381,1.681-2.589Z" transform="translate(523.319 154.357)" fill="#007775"/>
        <path id="Path_7351" data-name="Path 7351" d="M33.537,11.638c1.473.432,1.979,1.235,1.324,2.292a5.3,5.3,0,0,1-1.309,1.1l.327.268V11.355Z" transform="translate(465.494 157.605)" fill="#007775"/>
        <path id="Path_7352" data-name="Path 7352" d="M38.085,13.812c.61-.8,1.131-2.2,1.86-2.321,2.306-.387,1.875.878-1.265,2.916Z" transform="translate(528.621 158.525)" fill="#007775"/>
        <path id="Path_7353" data-name="Path 7353" d="M41.678,12.177c-.357,2.158-1.324,3.6-3.809,3.318l.015.015c-.149-2.292.878-3.646,3.2-3.928Z" transform="translate(525.623 160.755)" fill="#007775"/>
        <path id="Path_7354" data-name="Path 7354" d="M41.3,11.846c-.4,2.024-1.9,2.872-3.675,3.452l.268.283a4.171,4.171,0,0,1,3.422-3.72Z" transform="translate(522.194 164.42)" fill="#007775"/>
        <path id="Path_7355" data-name="Path 7355" d="M22.629,13.462l-.521-1.28,1.265.119Z" transform="translate(306.862 169.093)" fill="#007775"/>
        <path id="Path_7356" data-name="Path 7356" d="M37.335,14.95c.923-1.875,2.247-3.1,4.538-2.6l-.268-.268a4.481,4.481,0,0,1-2.723,4.39c-.521-.491-1.042-1-1.548-1.518" transform="translate(518.211 167.64)" fill="#007775"/>
        <path id="Path_7357" data-name="Path 7357" d="M40.5,15.389c-.3-.342-.61-.684-.908-1.042.372-.268.759-.789,1.1-.759s.61.625.923.982c-.372.268-.744.551-1.116.818" transform="translate(549.524 188.584)" fill="#007775"/>
        <path id="Path_7358" data-name="Path 7358" d="M39.544,13.754l-3.6,3.556.312.312c1.176-1.19,2.381-2.381,3.571-3.571Z" transform="translate(498.89 190.903)" fill="#007775"/>
        <path id="Path_7359" data-name="Path 7359" d="M22.508,13.992c-.372.893-.744,1.8-1.131,2.693-2.515-2.619.744-1.726,1.443-2.4Z" transform="translate(283.693 194.206)" fill="#007775"/>
        <path id="Path_7360" data-name="Path 7360" d="M37.372,13.993c-.506.565-1.027,1.116-1.533,1.681.164-.283.283-.64.521-.789a6.614,6.614,0,0,1,1.324-.58Z" transform="translate(497.446 194.22)" fill="#007775"/>
        <path id="Path_7361" data-name="Path 7361" d="M39.6,15.529c.223-.446.446-.908.684-1.369L39.3,15.231Z" transform="translate(545.526 196.538)" fill="#007775"/>
        <path id="Path_7362" data-name="Path 7362" d="M40.053,14.233l-.8,1.309c.372-.342.729-.684,1.1-1.012Z" transform="translate(544.777 197.551)" fill="#007775"/>
        <path id="Path_7363" data-name="Path 7363" d="M34.936,17.5c.387-.908.8-1.8,1.205-2.708,2.485,2.47-.417,1.979-1.4,2.544Z" transform="translate(482.234 205.296)" fill="#007775"/>
        <path id="Path_7364" data-name="Path 7364" d="M40.914,17.163c-1.146,1.235-2.292,2.485-3.437,3.72-.521-.521-1.042-1.042-1.577-1.548,1.176-1.235,2.336-2.47,3.5-3.705.506.521,1.012,1.027,1.518,1.533" transform="translate(498.279 216.942)" fill="#007775"/>
        <path id="Path_7365" data-name="Path 7365" d="M40.783,17.253c.268-.491.64-1.443.759-1.414,1.042.268.67.729-1.042,1.146Z" transform="translate(562.141 219.842)" fill="#007775"/>
        <path id="Path_7366" data-name="Path 7366" d="M39.439,17.427c-.744,1.22-1.756,2.991-3.155,1.622-1.414-1.4.327-2.44,1.592-3.169.521.506,1.042,1.027,1.562,1.548" transform="translate(496.316 220.398)" fill="#007775"/>
        <path id="Path_7367" data-name="Path 7367" d="M42.706,15.916c.506,1.369-.58,3.2-1.086,2.783-3.021-2.411.089-2.068,1.369-2.515Z" transform="translate(559.935 220.911)" fill="#007775"/>
        <path id="Path_7368" data-name="Path 7368" d="M17.05,18.165c.506-.536,1.012-1.086,1.518-1.622-.134.327-.193.774-.446.937a4.984,4.984,0,0,1-1.384.387Z" transform="translate(232.324 229.614)" fill="#007775"/>
        <path id="Path_7369" data-name="Path 7369" d="M18.926,16.481l.387,1.1-1.042-.149Z" transform="translate(253.605 228.75)" fill="#007775"/>
        <path id="Path_7370" data-name="Path 7370" d="M18.127,16.632c-.491.684-1,1.354-1.488,2.039.089-.372.045-.908.283-1.086a6.075,6.075,0,0,1,1.518-.655Z" transform="translate(230.95 230.849)" fill="#007775"/>
        <path id="Path_7371" data-name="Path 7371" d="M17.943,19.548c.61-.863,1.205-1.741,1.815-2.6,2.336,2.53-.179,2.381-1.562,2.857Z" transform="translate(249.049 235.18)" fill="#007775"/>
        <path id="Path_7372" data-name="Path 7372" d="M34.977,20.292c.253-2.277,1.428-3.482,3.809-3.318l-.089-.089a3.545,3.545,0,0,1-3.378,3.75Z" transform="translate(485.482 234.347)" fill="#007775"/>
        <path id="Path_7373" data-name="Path 7373" d="M16.529,18.989c.4-.58.818-1.146,1.22-1.726-.1.283-.134.64-.327.8a5.908,5.908,0,0,1-1.161.67Z" transform="translate(225.703 239.608)" fill="#007775"/>
        <path id="Path_7374" data-name="Path 7374" d="M42.661,17.117c-.059,2.336-1.235,3.527-3.6,3.5l.3.268c.268-2.083,1.205-3.512,3.556-3.512Z" transform="translate(542.154 237.581)" fill="#007775"/>
        <path id="Path_7375" data-name="Path 7375" d="M39.671,17.352c-.223.536-.446,1.056-.655,1.592.313-.446.625-.878.937-1.309Z" transform="translate(541.543 240.843)" fill="#007775"/>
        <path id="Path_7376" data-name="Path 7376" d="M16.816,18.561l1.1-.387L17.8,19.186Z" transform="translate(233.401 252.26)" fill="#007775"/>
        <path id="Path_7377" data-name="Path 7377" d="M15.138,18.846l1.22-.432-.134,1.131Z" transform="translate(210.121 255.595)" fill="#007775"/>
        <path id="Path_7378" data-name="Path 7378" d="M19.985,22.256c.461-.893.923-1.786,1.369-2.664,2.366,2.53-.193,2.158-1.488,2.545Z" transform="translate(275.741 271.934)" fill="#007775"/>
        <path id="Path_7379" data-name="Path 7379" d="M29.486,24.359a3.818,3.818,0,0,1,3.571-3.66l-.253-.223a9.6,9.6,0,0,1,.863,2.783,15.338,15.338,0,0,1-1.533,1.577c-.982-.223-1.949-.491-2.916-.789Z" transform="translate(405.546 284.19)" fill="#007775"/>
        <path id="Path_7380" data-name="Path 7380" d="M40.659,21.589,40.123,22.6c-.506-.357-1-.729-1.488-1.086.357-.327.7-.655,1.057-1,.313.357.64.714.967,1.071" transform="translate(536.255 284.787)" fill="#007775"/>
        <path id="Path_7381" data-name="Path 7381" d="M24.9,21.28c.67.536,1.354,1.071,2.024,1.607-.357-.119-.863-.149-1.056-.4a6.43,6.43,0,0,1-.655-1.533Z" transform="translate(345.557 290.825)" fill="#007775"/>
        <path id="Path_7382" data-name="Path 7382" d="M12.4,29.726c.476-.893.952-1.786,1.414-2.693,2.172,2.649-.149,2.277-1.637,2.455Z" transform="translate(169.073 375.216)" fill="#007775"/>
        <path id="Path_7383" data-name="Path 7383" d="M13.919,28.616c.238-.521.565-1.533.729-1.5,1.086.193.729.684-1.027,1.205Z" transform="translate(189.06 376.325)" fill="#007775"/>
        <path id="Path_7384" data-name="Path 7384" d="M15.105,27.194c.015,1.548-.521,2.232-1.592,2.053.074-.417.03-1.027.283-1.205a5.7,5.7,0,0,1,1.607-.551Z" transform="translate(187.561 377.45)" fill="#007775"/>
        <path id="Path_7385" data-name="Path 7385" d="M27.449,28.721l-.283-.937.833.134Z" transform="translate(377.066 385.628)" fill="#007775"/>
        <path id="Path_7386" data-name="Path 7386" d="M26.069,36.884c-2.708-1.131-2.619-2.277-.045-3.467l-.208-.223v3.943Z" transform="translate(334.028 460.73)" fill="#007775"/>
        <path id="Path_7387" data-name="Path 7387" d="M22.894,36.428c.327-.893.655-1.786,1-2.678.476.491.952,1,1.443,1.488-.863.342-1.726.7-2.589,1.057Z" transform="translate(315.701 468.448)" fill="#007775"/>
        <path id="Path_7388" data-name="Path 7388" d="M24.133,33.921c-.491.551-.982,1.1-1.488,1.652.1-.342.089-.8.312-.982a5.873,5.873,0,0,1,1.324-.536Z" transform="translate(314.313 470.821)" fill="#007775"/>
        <path id="Path_7389" data-name="Path 7389" d="M16.061,38.038c.045-2.172.848-3.72,3.259-3.884l.387.372c-.223,2.4-1.5,3.512-3.928,3.214Z" transform="translate(218.999 474.055)" fill="#007775"/>
        <path id="Path_7390" data-name="Path 7390" d="M23.232,38.518c.476-1.92,1.5-3.318,3.571-3.661l-.238-.223v3.943l.3-.327H22.979Z" transform="translate(318.949 480.718)" fill="#007775"/>
        <path id="Path_7391" data-name="Path 7391" d="M24.952,35.362c-.342.863-.67,1.726-1.012,2.589-.446-.476-.893-.967-1.354-1.443.833-.342,1.667-.67,2.5-1.012Z" transform="translate(313.494 490.822)" fill="#007775"/>
        <path id="Path_7392" data-name="Path 7392" d="M1.938,36.353l1.146-.417-.119,1.086Z" transform="translate(26.905 498.795)" fill="#007775"/>
        <path id="Path_7393" data-name="Path 7393" d="M13.861,36.328c.64.565,1.28,1.116,1.92,1.681-.417-.119-1.012-.089-1.205-.357a4.756,4.756,0,0,1-.461-1.577Z" transform="translate(192.391 500.719)" fill="#007775"/>
        <path id="Path_7394" data-name="Path 7394" d="M8.487,36.317c-.074,1.577-.64,2.232-1.681,1.875a1.918,1.918,0,0,1,.3-1.22,4.8,4.8,0,0,1,1.637-.387Z" transform="translate(94.215 504.078)" fill="#007775"/>
        <path id="Path_7395" data-name="Path 7395" d="M13.691,39.127c.521-.565,1.027-1.146,1.533-1.711-.134.342-.164.833-.417,1a4.97,4.97,0,0,1-1.428.417Z" transform="translate(185.701 519.332)" fill="#007775"/>
        <path id="Path_7396" data-name="Path 7396" d="M6.476,39.141c.238-.491.476-.982.714-1.458-.342.387-.684.774-1.012,1.161Z" transform="translate(85.751 523.038)" fill="#007775"/>
        <path id="Path_7397" data-name="Path 7397" d="M14.628,37.511c-.446.684-.893,1.354-1.339,2.038.074-.357.06-.818.268-1.012a6.456,6.456,0,0,1,1.384-.729Z" transform="translate(184.452 520.65)" fill="#007775"/>
        <path id="Path_7398" data-name="Path 7398" d="M22.858,37.757c-.551.655-1.116,1.309-1.667,1.964.089-.432.045-1.056.312-1.265A5.232,5.232,0,0,1,23.1,38Z" transform="translate(294.132 524.065)" fill="#007775"/>
        <path id="Path_7399" data-name="Path 7399" d="M13.169,39.615c.238-.506.551-1.488.684-1.458,1.1.208.774.685-.952,1.19Z" transform="translate(179.066 529.602)" fill="#007775"/>
        <path id="Path_7400" data-name="Path 7400" d="M16.26,38.237c.089,2.485-1.205,3.6-3.6,3.586l.253.253c.074-2.321,1.116-3.69,3.616-3.571Z" transform="translate(175.707 530.727)" fill="#007775"/>
        <path id="Path_7401" data-name="Path 7401" d="M8.369,40.441l1.384-1.83c-.089.357-.06.848-.283,1.027a5.6,5.6,0,0,1-1.369.551Z" transform="translate(112.442 535.918)" fill="#007775"/>
        <path id="Path_7402" data-name="Path 7402" d="M26.436,38.484c-.313.848-.64,1.711-.952,2.559-.491-.432-.967-.878-1.458-1.309.833-.4,1.652-.789,2.485-1.176Z" transform="translate(333.467 534.156)" fill="#007775"/>
        <path id="Path_7403" data-name="Path 7403" d="M11.516,38.716c-.074,2.381-1.533,3.318-3.66,3.571l.312.313c.327-2.083,1.25-3.571,3.616-3.631Z" transform="translate(109.041 537.376)" fill="#007775"/>
        <path id="Path_7404" data-name="Path 7404" d="M13.409,41.808c.461-.923.923-1.86,1.369-2.783,2.247,2.649-.342,2.172-1.637,2.515Z" transform="translate(182.397 541.665)" fill="#007775"/>
        <path id="Path_7405" data-name="Path 7405" d="M14.751,39.2l-1.726,1.949c.119-.372.149-.893.4-1.071a6.2,6.2,0,0,1,1.592-.61Z" transform="translate(180.787 544.024)" fill="#007775"/>
        <path id="Path_7406" data-name="Path 7406" d="M21.339,43.873l-3.586-3.72-.3.312c2.009.432,3.393,1.488,3.72,3.631Z" transform="translate(242.276 557.321)" fill="#007775"/>
        <path id="Path_7407" data-name="Path 7407" d="M18.179,41.865c.655.506,1.309,1.012,1.949,1.518-.372-.074-.923-.03-1.1-.268a5.473,5.473,0,0,1-.6-1.518Z" transform="translate(252.325 577.364)" fill="#007775"/>
        <path id="Path_7408" data-name="Path 7408" d="M23.767,42.084c-.461.848-.923,1.7-1.4,2.559-2.559-2.619.6-1.89,1.473-2.5Z" transform="translate(296.853 584.124)" fill="#007775"/>
        <path id="Path_7409" data-name="Path 7409" d="M11.125,45.3c-.565-.551-1.116-1.1-1.681-1.652.357.134.848.179,1.012.417a5.65,5.65,0,0,1,.461,1.443Z" transform="translate(131.083 605.86)" fill="#007775"/>
        <path id="Path_7410" data-name="Path 7410" d="M11.489,45.9c.446-.58.878-1.176,1.324-1.756-.1.313-.1.729-.312.893a5.338,5.338,0,0,1-1.28.61Z" transform="translate(155.748 612.675)" fill="#007775"/>
        <path id="Path_7411" data-name="Path 7411" d="M19.7,44.937l1-.357-.119.937Z" transform="translate(273.409 618.768)" fill="#007775"/>
        <path id="Path_7412" data-name="Path 7412" d="M15.193,45.532l-1.235.461.134-1.19Z" transform="translate(193.739 621.862)" fill="#007775"/>
        <path id="Path_7413" data-name="Path 7413" d="M8.161,47.458l1.28-.491-.1,1.19Z" transform="translate(113.278 651.901)" fill="#007775"/>
        <path id="Path_7414" data-name="Path 7414" d="M15.257,50.962l-1.042.431.1-1.071Z" transform="translate(197.305 698.474)" fill="#007775"/>
        <path id="Path_7415" data-name="Path 7415" d="M14.672,51.876l-.952.3.149-.878Z" transform="translate(190.433 711.984)" fill="#007775"/>
        <path id="Path_7416" data-name="Path 7416" d="M21.151,38.116c-.536-.551-1.086-1.1-1.622-1.667.357.149.878.193,1.027.461a4.973,4.973,0,0,1,.327,1.473Z" transform="translate(271.063 505.91)" fill="#007775"/>
        <path id="Path_7417" data-name="Path 7417" d="M19.214,38.937c.223-.491.446-1,.655-1.5-.312.4-.64.789-.967,1.19Z" transform="translate(262.36 519.582)" fill="#007775"/>
        <path id="Path_7418" data-name="Path 7418" d="M20.526,37.514c-.58.61-1.161,1.235-1.741,1.845.164-.357.223-.863.491-1.027a6.623,6.623,0,0,1,1.562-.506Z" transform="translate(260.736 520.692)" fill="#007775"/>
        <path id="Path_7419" data-name="Path 7419" d="M20.1,34.877h3.928c-.208,1.533-.64,3.1-2.589,2.53-.64-.193-.908-1.652-1.339-2.53" transform="translate(278.961 484.09)" fill="#007775"/>
        <path id="Path_7420" data-name="Path 7420" d="M35.772,13.033c-.387,2.232-1.949,3.288-3.913,3.928,1.295-1.309,2.6-2.619,3.913-3.928" transform="translate(442.204 180.895)" fill="#007775"/>
      </g>
    </g>
  </g>
</svg>
