<svg xmlns="http://www.w3.org/2000/svg" xmlns:xlink="http://www.w3.org/1999/xlink" width="282" height="414" viewBox="0 0 282 414">
  <defs>
    <clipPath id="clip-path">
      <rect id="Rectangle_226" data-name="Rectangle 226" width="282" height="414" transform="translate(0 2386)" fill="#fff" stroke="#707070" stroke-width="1"/>
    </clipPath>
    <clipPath id="clip-path-2">
      <rect id="Rectangle_196" data-name="Rectangle 196" width="442.842" height="656.5" fill="#C97A1F"/>
    </clipPath>
  </defs>
  <g id="Mask_Group_58" data-name="Mask Group 58" transform="translate(0 -2386)" clip-path="url(#clip-path)">
    <g id="Group_121" data-name="Group 121" transform="matrix(-0.309, -0.951, 0.951, -0.309, -254.369, 2952.436)">
      <g id="Group_120" data-name="Group 120" transform="translate(0 0)" clip-path="url(#clip-path-2)">
        <path id="Path_6611" data-name="Path 6611" d="M6.928,76.773C6.548,69.383,6.519,61.88,3.332,55c-4.16-9-1.974-15.781,6.417-20.9,1.312-.8,2.087-2.482,3.187-3.695,1.918-2.115,4.4-2.595,6.29-.494,4.88,5.415,9.957,10.775,13.962,16.825,3.244,4.908,4.781,10.732-1.749,15.062a47.083,47.083,0,0,0-.226-4.908c-.1-.733-.8-2.017-1.156-1.988-1.805.141-2.637,1.608-1.65,3.455.691,1.269,2.242,2.087,3.413,3.117-.014,15.414,7.263,28.615,12.89,42.308.226.536,1.326.762,2.059,1,1.862.606,3.441-.085,3.765-2.115.931-5.683,1.269-11.48,2.44-17.107.888-4.287,3.385-7.686,8.56-6.882,2.045.31,3.639-.212,3.187-2.355-4.2-20.139-5.176-41.138-15.654-59.627C47.4,13.762,45.993,10.6,47.319,7.274a4.575,4.575,0,0,1,3.61-2.3c4.527.381,7.742,3.512,9.463,7.221a107.666,107.666,0,0,1,6.755,18.7c1.749,6.924,6.924,11.155,11,16.3a1.728,1.728,0,0,0,1.692.113c.536-.536,1.2-1.537,1.03-2.13-2.482-8.716-5.035-17.431-7.714-26.09-1.241-4.019-2.68-8.151-.832-12.1.917-1.932,3.413-3.187,5.345-4.541.282-.212,1.9.592,2.017,1.114,1.622,8.166,11.621,2.468,14.455,8.927,3.653,8.307,8.7,16.105,11.451,24.666C108,44.689,111.543,50.5,117.748,55.294a25.586,25.586,0,0,1,7.587,9.646c8.8,20.59,18.207,41,25.427,62.151,9.7,28.474,23.707,54.818,37.048,81.528.606,1.227,2.553,1.777,3.878,2.637.451,4.809.113,9.872,1.495,14.4,3.935,12.9,6.727,26.57,18.461,35.483a10.106,10.106,0,0,0,.776,1.791c.212.324.705.465,1.072.691-.762-.691-1.523-1.382-2.285-2.059-2.412-18.348-6.7-35.934-19.871-50.009,1.636-8.433-2.017-16.232-2.99-24.356-.169-1.481-.169-3.526-1.1-4.259-4.527-3.653-10.789-7.15-8.913-13.553,1.918-6.5-7.08-9.153-3.5-15.866,2.736-5.119-7.348-6.515-5.26-12.3,1.495-4.174.113-7.94-.621-12.03-4.231-23.622-14.018-45.355-22.2-67.651-1.41-3.878-3-7.7-4.217-11.635-1.819-5.895-.508-10.45,2.708-9.9,3.469.606,5.444,3.413,6.544,6.713-.536.536-1.058,1.072-1.594,1.608.395-.677.79-1.34,1.2-2,3.737-.212,6.389-2.2,7.164-5.7.494-2.256-.677-4.851-.3-7.164.212-1.312,1.918-2.567,3.215-3.469,1.749-1.2,3.23-.564,4.16,1.34,2.623,5.317,5.994,10,11.564,12.537,1.438.663,3.314,1.255,4.724.874,2-.536,1.819-2.172,1.354-4.005-1.763-6.924-2.3-13.045,7.362-15.019,3.526-.719,6.29-4.7,9.731-6.586,3.159-1.735,9.181,1.4,10.732,4.978,1.283,2.99,2.017,6.515,4.1,8.786,4.809,5.218,5.824,11.409,7.291,18.023,5.345,24,9.745,48.485,25.075,68.906.973,1.3,2.341,3.117,2.073,4.4-1.34,6.417-4.809,13.3,3.272,17.586,7.051,3.737,4.936,11.48,8.264,16.952,6.868,11.268,12.551,23.312,18.037,35.356,2.327,5.105,4.837,11.367,3.892,16.472-1.4,7.545-.564,12.749,5.585,17.431,1.678,1.269,2.651,4.386,2.722,6.685.268,9.519,2.285,18.023,10.168,24.454,1.608,1.3,2.595,4.33,2.553,6.53-.2,10.14,5.655,16.811,12.086,23.538,4.09,4.259,6.939,9.322,3.54,15.711-1.678,3.159-.353,6.417.973,9.534,8.73,20.505,13.623,42.548,26.048,61.643,4.217,6.5,8.744,14.737,1.523,23.129-.9,1.058.423,4.865,1.678,6.755,2.75,4.146,6.3,7.742,9.153,11.832,1.368,1.96,1.974,4.5,2.694,6.84,1.664,5.373-8.18,9.858-1.41,15.527,4.019,3.371,5.867,7.418,7.348,12.453,3.695,12.5,7.094,32.86,4.654,45.82-1.749,9.28,4.724,17.685,1.382,26.739-2.863,7.728-5.669,15.245-6.967,23.665-3.131,20.35-5.853,41.053-16.726,59.316-1.3,2.2-5.119,3.2-6.107,1.453-.747-1.312-1.622-2.905-1.495-4.287.226-2.44,1.551-4.795,1.721-7.221.24-3.681-1.424-6.346-5.514-6.614-4.978-.324-6.953-3.06-7.644-7.883-1.086-7.658.465-14.822,2.327-22.141.776-3.032.353-6.516-.183-9.689-.183-1.072-2.327-1.89-3.695-2.623-.268-.141-1.438.592-1.509,1.029-2.045,13.073-4.894,26.118-5.683,39.276-.677,11.141-4.471,21-8.645,30.885-.832,1.96-4.541,4.781-5.091,4.428-2.623-1.735-5.8-4.076-6.6-6.84-1.368-4.682-1.03-9.83-1.551-14.766a28.274,28.274,0,0,0-1.185-4.471c-1.4.846-3.131,1.382-4.118,2.567-3.667,4.4-7.051,9.04-10.662,13.5a2.186,2.186,0,0,1-2.115.381c-1.114-.945-2.933-2.426-2.736-3.314,3.639-16.176,3.427-33.071,7.446-48.937,3.78-14.949,2.468-29.686,3.681-44.494.635-7.8-.338-15.837-5.26-21.281-7.742-8.575-7.249-18.884-6.544-28.107,1.847-23.862-5.274-45.552-12.749-67.383-.79-2.285-2.609-4.344-5.458-2.5-2.68,1.735-5.81,3.413-7.4,5.951-.959,1.565.3,4.809,1.086,7.108,8.673,25.329,13.652,51.25,13.243,78.13a41.675,41.675,0,0,0,1.876,12.255c2.327,8.025-1.072,14.554-4.626,21.14a2.97,2.97,0,0,1-4.3,1.438,4.19,4.19,0,0,1-1.932-1.3c-4.09-7.348-7.192-14.907-4.471-23.58,2.144-6.84-.24-11.973-3.85-18.305-8.575-15.019-15.541-31.083-14.611-49.219.437-8.617-.536-16.754-9.477-21.267-.719-5.317,1.354-11.564-4.992-15.005a20.384,20.384,0,0,0-.522-4.583c-.324-.931-1.537-1.537-2.355-2.3-.127,1.4-.79,3.06-.254,4.09.592,1.128,2.3,1.664,3.512,2.454.338,5.444-1.876,11.748,5.049,14.977-.733,8.222-.691,16.952-6.783,23.284-9.872,10.3-9.068,22.748-7.376,35,1.114,8.151,2.4,15.852,1.819,24.341-.494,7.263,1.156,14.6-2.214,21.676a7.038,7.038,0,0,0-.324,4.88c5.091,13.609.987,27.8,2.792,41.434,1.481,11.282-.719,21.3-3.892,31.576-.959,3.1-6.149,7.418-6.924,6.135a22.692,22.692,0,0,1-2.736-6.586c-2.355-10.3-4.146-20.745-6.826-30.956-4.4-16.782-7.982-33.663-8.575-51.038-.3-8.5-1.2-16.387-8.73-22.2-4.781-3.695-6.544-9.28-6.939-15.4-.959-15.048-4.033-29.461-14.23-41.392-7.164-22.705-18.827-43.592-25.808-66.481-6.008-19.716-14.568-38.74-23.1-57.568-8.532-18.855-19-36.837-27.613-55.65-11.691-25.568-24.694-50.46-34.778-76.86-11.226-29.4-22.127-58.865-32.013-88.721-1.255-3.822-1.523-8.264-5.951-10.281Zm244.43,279.814-1.664-1.58c.691.381,1.382.776,2.073,1.156.183,1.523.282,3.06.564,4.555.141.733.606,2.017.888,2,1.692-.071,2.454-1.41,1.467-3.145-.705-1.227-2.186-2.017-3.328-2.99m-4.795-15.5a16.04,16.04,0,0,0,1.044,1.692,4.9,4.9,0,0,0,.987.747l-2.44-2.017a27.634,27.634,0,0,0-.381-4.344,12.818,12.818,0,0,0-1.579-2.877c-.226,1.255-.945,2.694-.55,3.709.479,1.227,1.9,2.073,2.919,3.089m-11.028-38.712c.24-2.806-1.185-4.174-3.765-4.358-.621-.042-1.269.564-1.9.874a27.248,27.248,0,0,0,2.919,4.992c1.029,1.156,2.271.353,2.75-1.509M204.96,452.19c.127-.747.55-1.622.31-2.214-.832-2.031-1.791-1.805-2.256.592-.127.649.367,1.41.578,2.13l1.368-.508m-19.7,25.639c-.451-1.424-.9-2.849-1.368-4.273-.55.578-1.608,1.227-1.551,1.72a23.7,23.7,0,0,0,1.283,4.287c.536-.578,1.086-1.156,1.636-1.735M354.266,559.6c-.409.155-1.072.2-1.185.48a3.374,3.374,0,0,0-.324,2.087c.677,2,1.523,1.819,1.988-.508a5.247,5.247,0,0,0-.479-2.059M143.514,204.587l.381,4.358c.451-.635,1.128-1.2,1.3-1.9a4.16,4.16,0,0,0-.338-2.271c-.071-.2-.874-.127-1.34-.183M204.086,29.952l.762-1.114-1.171-.183ZM163.822,244.921l.832-1.453-1.2-.183Zm93.8,128.73,1.523.888.141-1.467Z" transform="translate(16.793 31.66)" fill="#C97A1F"/>
        <path id="Path_6612" data-name="Path 6612" d="M53.051,79.954c-5.19-1.664-5.8-5.7-5.331-10.3L48.9,67.839c-.24.747-.494,1.481-.747,2.228-1.847-.24-3.681-.479-5.528-.705l.479.395c-2.369-13.1-8.462-24.807-13.708-36.865a137.044,137.044,0,0,1-5.655-16.275c-.367-1.269.86-3,1.354-4.527a15.038,15.038,0,0,1,1.876,1.495A15.437,15.437,0,0,1,28.357,15.6C37.284,29.014,41.727,45.486,55.6,55.528c6.868,14.117,14.314,27.994,20.421,42.435,4.456,10.521,7.249,21.775,10.605,32.747.677,2.242,1.495,5.105.691,7.051-4.936,12.086.931,20.477,9,28.248,2.369,2.285,5.556,3.963,7.263,6.628,4.767,7.432,11.79,14.23,6.91,24.779-1.114,2.426,1.255,6.318,1.664,9.59.409,3.173,1.467,6.572-1.453,9.28-.987-2.13-1.918-4.315-2.99-6.4q-13.877-27.225-27.867-54.409c-.31-.578-1.438-.747-2.186-1.114l.451.395c-1.354-5.26,1.34-11.945-5.387-15.3l.395.409c-.832-3.977-.226-8.716-5.4-10.45l.353.423c0-3.215-.874-6.755.169-9.576,4.964-13.482.141-23.157-11.2-30.293-4.2-2.637-3.864-6.586-4.414-10.436a6.831,6.831,0,0,0,1.735-.733c.31-.226.338-.8.494-1.227-.606.79-1.2,1.594-1.805,2.383" transform="translate(310.251 158.423)" fill="#C97A1F"/>
        <path id="Path_6613" data-name="Path 6613" d="M53.175,74.513c-1.156,2.285-2.736,3.864-5.585,3.554-3.512-.367-6.219-1.777-7.5-5.289q-9.752-26.76-19.546-53.506C18.045,12.517,22.247,6.735,23.263.5c.056-.338,3.794-.79,4.09-.254,3.864,7.249,8.278,14.371,10.887,22.1,5.26,15.584,9.505,31.506,14.131,47.315a39.554,39.554,0,0,1,.8,4.851" transform="translate(258.92 0.003)" fill="#C97A1F"/>
        <path id="Path_6614" data-name="Path 6614" d="M49.652,68.4c1.255,5.331,1.763,6.854,1.946,8.419.395,3.314.353-.818-1.862,1.636-.381.409-3.709-.663-3.836-1.368-2.553-14.963-10.281-27.4-18.432-39.8-2.595-3.949-4.019-9.266-1.1-14.117,1.721-2.877,10,2.468,12.537,8.659C44.222,44.845,50.343,57.679,49.652,68.4" transform="translate(324.242 293.097)" fill="#C97A1F"/>
        <path id="Path_6615" data-name="Path 6615" d="M45.479,82.852a49.228,49.228,0,0,1,1.988,7.333c.1.649-2.242,1.847-3.61,2.5a2.3,2.3,0,0,1-2.073-.719c-4.076-5.415-7.714-11.578-4.922-18.207,2.369-5.627.762-9.745-2.059-13.821-6.445-9.35-5.655-20.52-8.208-30.829a3.164,3.164,0,0,1,.931-2.059c1.326.338,3.371.578,3.751,1.481,7.192,16.684,14.709,33.3,14.2,54.324" transform="translate(348.243 354.388)" fill="#C97A1F"/>
        <path id="Path_6616" data-name="Path 6616" d="M32.5,65.85c-.508.888-.79,1.988-1.227,2.045-1.438.183-3.469.606-4.287-.141-2.383-2.144-5.5-4.555-6.121-7.362-1.523-6.84-8.194-11.423-9.167-16.768-1.015-5.613-1.706-10.577-5.063-15.259-.606-.832-.056-3.385.818-4.132.762-.649,3.145-.409,4.1.338a16.306,16.306,0,0,1,4.795,5.472C21.905,41.96,27.194,54.018,32.5,65.85" transform="translate(83.541 312.582)" fill="#C97A1F"/>
        <path id="Path_6617" data-name="Path 6617" d="M37.608,32.587q-.19,10.133-.395,20.28l.395-.338C25.381,39.991,23.012,24.153,22.575,7.667l-.381.324a5,5,0,0,1,4.386,4.682c.494,4.837.169,9.618,7.926,6.995,2.962-1,5.091,3.046,6.191,5.965,1.3,3.4.183,6.05-3.441,7.319-1.044-.762.691-5.387-3.145-2.256,1.171.635,2.327,1.255,3.5,1.89" transform="translate(290.804 100.456)" fill="#C97A1F"/>
        <path id="Path_6618" data-name="Path 6618" d="M20.736,5.7c2.764,1.664,6.572,2.651,8.053,5.063,4.259,6.939,7.446,14.512,6.769,22.973a4.264,4.264,0,0,1-2.933,2.933c-1.312.113-3.526-.888-4.019-1.988C25,26.56,21.625,18.31,18.48,10c-.338-.888,1.269-2.5,2.256-4.3" transform="translate(241.534 74.709)" fill="#C97A1F"/>
        <path id="Path_6619" data-name="Path 6619" d="M10.455,34.52C.639,29.006-1.053,24.972,1.782,13.563c.169-.691.818-1.65,1.382-1.749.635-.113,1.481.508,2.1,1a6.135,6.135,0,0,1,1.453,1.777,37.831,37.831,0,0,1,5.458,18.179Z" transform="translate(7.131 154.624)" fill="#C97A1F"/>
        <path id="Path_6620" data-name="Path 6620" d="M40.607,43.834c-.62,1.453-1.255,2.919-1.89,4.372a22.047,22.047,0,0,1-3.512-2.017c-.564-.451-.578-1.537-1.029-2.2-2.792-4.16-5.542-8.321-2.426-13.51a2.232,2.232,0,0,1,1.763-.959c4.1.55,6.713,5.909,7.094,14.314" transform="translate(397.92 386.666)" fill="#C97A1F"/>
        <path id="Path_6621" data-name="Path 6621" d="M27.447,21.305c-6.924-1.664-7.108-8.1-9.012-13.158-.338-.888,1.156-3.187,2.327-3.765a3.816,3.816,0,0,1,5.5,2.708c.79,4.753.649,9.66.888,14.512Z" transform="translate(240.915 51.801)" fill="#C97A1F"/>
        <path id="Path_6622" data-name="Path 6622" d="M36.169,43.527c-8.137-6.36-9.336-15.513-10-24.877l-.437.381A29.664,29.664,0,0,1,35.788,43.95Z" transform="translate(337.175 244.364)" fill="#C97A1F"/>
        <path id="Path_6623" data-name="Path 6623" d="M32.274,46.254c.635,3.328-3.2,12.086-5.5,12.382-.465.056-1.2-.55-1.509-1.044-2.031-3.23-.522-10.831,2.877-12.834.8-.479,2.722.945,4.132,1.495" transform="translate(319.027 585.196)" fill="#C97A1F"/>
        <path id="Path_6624" data-name="Path 6624" d="M22.007,14.583c6.868,1.326,8.462,6.769,9.477,12.467.254,1.41-.621,3.018-.973,4.541-1.086-.479-2.877-.705-3.159-1.467-1.89-5.19-6.882-9.378-5.162-15.725Z" transform="translate(286.111 188.677)" fill="#C97A1F"/>
        <path id="Path_6625" data-name="Path 6625" d="M1.648,17.793c.705-1.34,1.015-2.581,1.453-2.637,1.3-.169,3.3-.353,3.864.381A16.079,16.079,0,0,1,10.1,21.868c.24,1.086-1.142,3.342-2.214,3.667a4.64,4.64,0,0,1-4.076-1.622c-1.2-1.932-1.594-4.372-2.158-6.121" transform="translate(21.593 196.581)" fill="#C97A1F"/>
        <path id="Path_6626" data-name="Path 6626" d="M36.482,35.3c-.254.747-.494,1.509-.747,2.256-1.015-.592-2.313-.959-2.962-1.819a29.543,29.543,0,0,1-2.13-4.344c-.9-1.735-.437-3.342,1.58-3.413,1.185-.028,2.863,1.41,3.54,2.623.719,1.3.522,3.1.719,4.7" transform="translate(395.741 366.587)" fill="#C97A1F"/>
        <path id="Path_6627" data-name="Path 6627" d="M35.47,36.349c-.578,1.467-1.34,4.231-1.706,4.174-3-.395-2.806-3.06-2.524-5.133.169-1.241,1.551-2.313,2.383-3.455.621,1.467,1.227,2.933,1.847,4.414" transform="translate(407.372 418.435)" fill="#C97A1F"/>
        <path id="Path_6628" data-name="Path 6628" d="M36.5,29.052c-.733,1.312-1.185,3.272-2.271,3.737-1,.437-2.694-.762-4.09-1.241.874-1.3,1.509-2.849,2.637-3.822,1.622-1.382,3.032-.733,3.723,1.326" transform="translate(394.892 353.695)" fill="#C97A1F"/>
        <path id="Path_6629" data-name="Path 6629" d="M27.862,24.287c4.739,1.551,5.345,5.274,4.823,9.463-.085.663-.832,1.241-1.269,1.847-.931-.705-2.567-1.326-2.68-2.144-.423-3.131-.367-6.318-.494-9.491Z" transform="translate(365.07 313.98)" fill="#C97A1F"/>
        <path id="Path_6630" data-name="Path 6630" d="M31.026,29.054c-.437.522-.888,1.044-1.326,1.565a20.185,20.185,0,0,1-1.382-3.582c-.071-.409.86-1.015,1.34-1.523.451,1.185.917,2.355,1.368,3.54" transform="translate(371.003 334.302)" fill="#C97A1F"/>
        <path id="Path_6631" data-name="Path 6631" d="M7.214,26.2c.832.888,2.3,1.819,2.214,2.538-.141,1.114-1.354,2.087-2.1,3.131-.479-.578-1.424-1.2-1.354-1.706A21.181,21.181,0,0,1,7.214,26.2" transform="translate(78.207 343.304)" fill="#C97A1F"/>
        <path id="Path_6632" data-name="Path 6632" d="M31.815,31.4,31.1,33.3A28.294,28.294,0,0,1,29.4,30.508a9.855,9.855,0,0,1,1.41-1.015c.338.635.677,1.269,1,1.9" transform="translate(385.247 386.438)" fill="#C97A1F"/>
        <path id="Path_6633" data-name="Path 6633" d="M12.1,34.157,9.36,36.427a20.669,20.669,0,0,1-1.283-3.935c-.071-.451,1.015-1.058,1.58-1.594.818,1.086,1.636,2.172,2.44,3.258" transform="translate(105.789 404.861)" fill="#C97A1F"/>
        <path id="Path_6634" data-name="Path 6634" d="M22.215,36.455a23.836,23.836,0,0,1-3.85,1.692c-.3.085-1.453-1.269-1.34-1.749.465-1.96,1.932-2.609,3.765-1.735.621.3.959,1.171,1.424,1.791" transform="translate(222.976 449.187)" fill="#C97A1F"/>
        <path id="Path_6635" data-name="Path 6635" d="M22.263,37.5c-.818,1.735-2.13,2.271-3.78,1.34-.592-.339-.917-1.156-1.368-1.749a25.3,25.3,0,0,1,3.921-1.354c.282-.056.818,1.142,1.227,1.763" transform="translate(224.255 468.237)" fill="#C97A1F"/>
        <path id="Path_6636" data-name="Path 6636" d="M22.795,6.157c.437.24,1.213.465,1.227.719a7.344,7.344,0,0,1-.465,2.059c-.423-.24-1.227-.465-1.227-.705a7.845,7.845,0,0,1,.465-2.073" transform="translate(292.572 80.671)" fill="#C97A1F"/>
        <path id="Path_6637" data-name="Path 6637" d="M25.409,13.55c-1.128-.832-2.68-1.453-3.258-2.567-.48-.959.169-2.482.31-3.765.776.762,1.946,1.4,2.242,2.313a16.974,16.974,0,0,1,.324,4.344Z" transform="translate(287.969 94.573)" fill="#C97A1F"/>
        <path id="Path_6638" data-name="Path 6638" d="M23.259,11.186c1.65,1.34,3.6,2.454,4.809,4.118.465.635-.691,2.482-1.114,3.78-1.058-.508-2.905-.846-3.046-1.523a39.327,39.327,0,0,1-.254-6.713Z" transform="translate(304.758 142.136)" fill="#C97A1F"/>
        <path id="Path_6639" data-name="Path 6639" d="M27.675,16.152a23.877,23.877,0,0,1-.409,4.513A10.752,10.752,0,0,1,25.419,23.5c-.2-1.3-.9-2.821-.451-3.836.564-1.255,2.087-2.087,3.187-3.1Z" transform="translate(325.205 211.634)" fill="#C97A1F"/>
        <path id="Path_6640" data-name="Path 6640" d="M29.153,25.44c-1.382-1.551-3.046-2.933-3.977-4.724-.338-.635,1.128-2.2,1.777-3.356.423.621,1.1,1.2,1.2,1.862.324,2.172.423,4.372.621,6.558Z" transform="translate(329.227 227.449)" fill="#C97A1F"/>
        <path id="Path_6641" data-name="Path 6641" d="M30.744,28.044c-4.894-1.777-5.148-5.839-4.978-10.112l-.381.338c5.683,1.439,4.908,5.98,4.908,10.154Z" transform="translate(332.615 234.957)" fill="#C97A1F"/>
        <path id="Path_6642" data-name="Path 6642" d="M31.805,30.465c-5.317-1.509-4.88-5.895-4.978-10l-.381.423c1.777-.014,3.568-.028,5.345-.056l-.353-.423q0,5.225-.014,10.436Z" transform="translate(346.517 267.425)" fill="#C97A1F"/>
        <path id="Path_6643" data-name="Path 6643" d="M31.82,21.122a21.425,21.425,0,0,1-.353,4.386,19.2,19.2,0,0,1-1.946,3.78,19.385,19.385,0,0,1-2-3.765,20.481,20.481,0,0,1-.338-4.386l-.381.381c1.819.014,3.624.014,5.43.014Z" transform="translate(351.142 276.755)" fill="#C97A1F"/>
        <path id="Path_6644" data-name="Path 6644" d="M30.354,22.179a21.01,21.01,0,0,1-.451,4.442c-.3.931-1.354,1.622-2.073,2.426-.169-1.312-.86-2.891-.367-3.864.578-1.142,2.186-1.763,3.342-2.609Z" transform="translate(357.557 290.604)" fill="#C97A1F"/>
        <path id="Path_6645" data-name="Path 6645" d="M12.938,26.04c-1.594.028-3.272.395-4.724-.028-.987-.282-1.636-1.678-2.44-2.581,1.4-.268,3.089-1.128,4.09-.635,1.2.592,1.805,2.369,2.665,3.639Z" transform="translate(75.656 296.728)" fill="#C97A1F"/>
        <path id="Path_6646" data-name="Path 6646" d="M31.128,30.331C29.971,29.4,28.35,28.7,27.8,27.482c-.48-1.044.268-2.637.465-4.005.762.86,1.918,1.608,2.214,2.609a18.806,18.806,0,0,1,.268,4.569Z" transform="translate(362.185 307.612)" fill="#C97A1F"/>
        <path id="Path_6647" data-name="Path 6647" d="M19.008,5.48c.79.691,1.58,1.382,2.369,2.087-.465-.155-1.114-.155-1.354-.465A7.6,7.6,0,0,1,19.3,5.184Z" transform="translate(249.058 67.922)" fill="#C97A1F"/>
        <path id="Path_6648" data-name="Path 6648" d="M0,6.978,1.608,6.4,1.424,7.923Z" transform="translate(0 83.854)" fill="#C97A1F"/>
        <path id="Path_6649" data-name="Path 6649" d="M22.648,7.746,24.3,7.1l-.155,1.58Z" transform="translate(296.755 92.989)" fill="#C97A1F"/>
        <path id="Path_6650" data-name="Path 6650" d="M3.749,7.66C3,8.478,2.255,9.282,1.493,10.1c.183-.522.212-1.283.564-1.495a6.762,6.762,0,0,1,2.1-.522Z" transform="translate(19.562 100.365)" fill="#C97A1F"/>
        <path id="Path_6651" data-name="Path 6651" d="M21.542,11.109l-1.312.437.2-1.255Z" transform="translate(265.071 134.836)" fill="#C97A1F"/>
        <path id="Path_6652" data-name="Path 6652" d="M24.545,15.513c-1.213-.733-2.426-1.481-3.653-2.214,3.878-3.23,3.06.494,3.512,2.369Z" transform="translate(273.744 157.596)" fill="#C97A1F"/>
        <path id="Path_6653" data-name="Path 6653" d="M21.14,12.429,24.4,14.206c-3.286,2.976-2.4-.762-3.117-1.932Z" transform="translate(276.993 160.821)" fill="#C97A1F"/>
        <path id="Path_6654" data-name="Path 6654" d="M2.968,13.288C3.574,14.444,4.194,15.6,4.8,16.757c-1.185-.578-2.369-1.142-3.554-1.721Z" transform="translate(16.339 174.107)" fill="#C97A1F"/>
        <path id="Path_6655" data-name="Path 6655" d="M24.075,16.549c-.79-.776-1.594-1.537-2.383-2.313.564.127,1.368.071,1.608.423a6.337,6.337,0,0,1,.592,2.073Z" transform="translate(284.226 186.529)" fill="#C97A1F"/>
        <path id="Path_6656" data-name="Path 6656" d="M24.086,20.271l1.312-.423-.183,1.2Z" transform="translate(315.596 260.064)" fill="#C97A1F"/>
        <path id="Path_6657" data-name="Path 6657" d="M6.67,24.807c-.776-.691-1.551-1.382-2.327-2.059.494.141,1.2.141,1.41.465a6.509,6.509,0,0,1,.564,1.946Z" transform="translate(56.905 298.06)" fill="#C97A1F"/>
        <path id="Path_6658" data-name="Path 6658" d="M4.483,23.247c2.073-.071,2.933.663,2.468,2.158-.014.056-1.326-.028-1.551-.367a6.488,6.488,0,0,1-.564-2.144Z" transform="translate(58.74 299.973)" fill="#C97A1F"/>
        <path id="Path_6659" data-name="Path 6659" d="M6.253,23.282,8.425,25.5c-.395-.226-.973-.367-1.171-.705a8.32,8.32,0,0,1-.592-1.9Z" transform="translate(81.932 299.881)" fill="#C97A1F"/>
        <path id="Path_6660" data-name="Path 6660" d="M29.516,26.546l.423,1.608-1.227-.169Z" transform="translate(376.204 347.828)" fill="#C97A1F"/>
      </g>
    </g>
  </g>
</svg>
