<svg xmlns="http://www.w3.org/2000/svg" xmlns:xlink="http://www.w3.org/1999/xlink" width="233.931" height="556" viewBox="0 0 233.931 556">
  <defs>
    <clipPath id="clip-path">
      <rect id="Rectangle_194" data-name="Rectangle 194" width="233.931" height="556" fill="#C97A1F"/>
    </clipPath>
  </defs>
  <g id="Group_117" data-name="Group 117" transform="translate(0 0)">
    <g id="Group_116" data-name="Group 116" transform="translate(0 0)" clip-path="url(#clip-path)">
      <path id="Path_6227" data-name="Path 6227" d="M418.025,372.429c.947-3.457,1.716-6.976,2.924-10.335a16.565,16.565,0,0,0,.675-6.384,2.6,2.6,0,0,0-.237-1.037c-.249-.543-.675-.3-.911.741-1.077,4.84-4.249,8.075-7.6,11.261-1.243,1.185-1.8,3.111-2.947,4.433-2.912,3.321-3.054,8.162-5.634,11.458s-6.2,5.68-9.1,8.73c-1.16,1.21-1.527,3.186-2.415,4.717a9.344,9.344,0,0,1-6.4,4.927,9.788,9.788,0,0,0-.225-2.05c-.178-.543-.687-1.432-.959-1.4a2.5,2.5,0,0,0-1.574,1.049c-.769,1.161-.012,1.827.982,2.111a6.953,6.953,0,0,0,1.965.062c-.994,2.025-1.835,4.2-4.368,4.618a4.647,4.647,0,0,0-.367-.778c-.095-.136-.32-.173-.485-.247.343.272.687.556,1.03.827l-.142,4.482.024-.025c-2.888-1.494-5.386-2.334-8.38.58-2.521,2.445-5.847,4.247-7.6,7.334-1.846,3.26-5.019,4.791-7.22,7.47l.2-.185-5.149-.852c-.959,3.321-4.522,2.815-6.415,4.754a1.131,1.131,0,0,0-.189.988c.331.543.8,1.383,1.243,1.4,4.486.111,9.043.938,13.316-1.358a2.575,2.575,0,0,1,1.918.259c.6.284.473.963-.107,1.692-1.326,1.679-3.776,3.47-3.646,5.05.166,2.124,2.237,4.136,3.622,6.1.982,1.383,2.32,1.321,3.61.383,1.669-1.222,2.912-3.284,5.338-2.988a3.335,3.335,0,0,1,1.882.593,1.891,1.891,0,0,1,.178,1.753c-1.42,1.976-3.586,3.531-3.006,6.519-.213.235-.426.469-.639.716.154-.3.32-.593.473-.889,3.693.815,4.226,1.4,3.906,3.247-.225,1.334-2.841,1.358-1.669,2.766.817.975,2.509.21,3.74-.593a46.071,46.071,0,0,1,4.439-2.457c.189-.086.639.185.852.407.166.185.308.654.213.79-2.592,3.642-4.569,7.915-9.2,9.458-.876.3-1.551,1.284-2.32,1.939l.142-.173a45.909,45.909,0,0,1-5.113-3.729c-1.515-1.432-2.853-1.667-4.581-.58-2.367,1.506-4.794,2.951-7.232,4.334a6.957,6.957,0,0,1-6.037.543c-2.509-.889-2.509-2.976-2.995-5.149-.734-3.371-2.071-4.062-5.326-2.926q-7.883,2.76-15.612,5.951c-2.426,1-4.545,1.618-6.6-.716-1.053-1.185-2.415-.79-3.847-.556-4.711.766-9.2,2.556-14.156,2.26-2.6-.148-5.563,1.087-7.907,2.507-6.865,4.149-14.476,4.494-22,5.445-.249.037-.8-.432-.793-.617.047-.58.284-1.63.473-1.642,5.468-.21,9.422-4.47,14.441-5.853,1.16-.321,1.267-1.617,1.006-2.729a2.04,2.04,0,0,0-2.1-1.877,196.9,196.9,0,0,1-29.982-2.729,12.179,12.179,0,0,0-4.178.062c-8.948,1.716-18,1.383-27.023,1.655-1.87.049-2.829,1.012-3.646,3.013-1.764,4.359-3.255,4.247-6.19.012a4.059,4.059,0,0,1-.331-1.037,2.828,2.828,0,0,0,.84-.346c.142-.086.154-.37.213-.568-.284.37-.58.729-.876,1.087-.758,0-1.5-.012-2.249-.012-.58-.877-1.124-1.778-1.74-2.63-.568-.753-1.314-.877-1.515-.222a1.814,1.814,0,0,0,.509,1.655,14.338,14.338,0,0,0,2.912,1.012c-1.065,2.469-3.184,2.914-5.255,2.26a24.26,24.26,0,0,1-7.516-3.494,16.725,16.725,0,0,0-6.368-3.4c-13.458-3.371-24.667-11.446-36.113-18.978-4.119-2.716-8.084-5.7-12.274-8.285-4.439-2.741-7.516-6.384-8.108-11.829a9.809,9.809,0,0,0-2.711-5.692c-5.895-6.692-11.765-13.384-18.974-18.644a63.519,63.519,0,0,1-6.285-5.742c-4.6-4.408-8.629-9.421-14.014-13.039-2.533-1.692-4.427-4.593-6.285-7.2-3.326-4.643-6.415-9.47-10.653-13.31l.166.16c-.781-1.605-1.551-1.346-2.332-.012l.154-.136c-.544-.37-1.539-.716-1.562-1.111-.225-4.482-2.06-8.334-4.06-12.137-4.166-7.927-7.244-16.422-12.973-23.509-4.131-5.1-5.658-11.989-5.966-18.311-.367-7.692-2.367-14.977-3.433-22.447-1.124-7.865-.568-16.014-3.208-23.633a7.982,7.982,0,0,1-.154-1.087c-.947-4.778,1.764-9.384.959-14a42.114,42.114,0,0,1-.663-12.989c1.562-11.829,2.77-23.707,6.688-35.1a57.606,57.606,0,0,0,2.651-14.928c.462-7.384,4-13.928,4.746-21.176a3.748,3.748,0,0,1,.734-2.013c4.675-5.322,5.622-12.372,7.954-18.743,1.977-5.445,5.776-9.656,8.416-14.669,2.711-5.149,5.113-10.248,6.06-16.052,2.793-1.087,3.906-3.889,5.634-6.063a1.13,1.13,0,0,0,.047-.963c-.367-.852-.876-.79-1.61-.1-2.107,1.963-4.119,3.951-3.93,7.26-2.64.9-4.829,1.939-6.333,4.951-3.669,7.359-7.919,14.434-12.05,21.546-.485.84-.284,3.531-2.415,1.864-.509-.4-.544-2.235-.118-2.988,3.22-5.618,5.007-11.89,7.67-17.743,3.1-6.84,6.735-13.4,11.872-18.879,1.7-1.8,3.622-3.494,3.314-6.421A2.076,2.076,0,0,0,83.963,80.9c.639-.161,2.06.407,1.089-1.259-.308.469-.627.938-.935,1.42A2.594,2.594,0,0,0,82,83.279c-7.777,3.568-13.446,9.952-19.222,16.1C56.692,105.85,50.975,112.7,44.9,119.2a23.218,23.218,0,0,0-3.586,5.26c-2.521,4.791-5.232,9.483-7.883,14.2q-7.421,13.15-14.855,26.3c-3.882,6.89-7.694,13.817-10.156,21.447q-2.166,6.686-4.557,13.31c-.178.494-1.042.766-1.622,1.037-.651.309-1.7-1.4-1.456-2.383.189-.7.473-1.371.687-2.074,1.065-3.457,1.977-7,3.22-10.4,3.231-8.816,6.273-17.731,10.026-26.312A200.46,200.46,0,0,1,33.3,126.643,234.132,234.132,0,0,1,61.249,92.676c8.617-8.569,18.193-15.9,27.91-23.04C99.718,61.869,110.122,53.88,120.917,46.5c3.291-2.26,4.64-6.359,8.451-7.915a41.465,41.465,0,0,0,9.41-4.754c5.658-4.235,12.772-5.976,17.7-11.52,1.3-1.457,3.729-1.852,5.646-2.7,2.249-.988,4.581-1.79,6.747-2.939C181.733,9.813,195.723,6.393,209.56,2.75c5.587-1.457,11.754-.543,17.66-.667,11.2-.222,22.478.445,33.533-.9a111.833,111.833,0,0,1,24-.852c11.458,1.087,22.844,2.9,34.267,4.433a1.327,1.327,0,0,1,.852.568c.355.556.876,1.247.781,1.778a2.05,2.05,0,0,1-1.338,1.371,36.93,36.93,0,0,1-12.488-.519,43.472,43.472,0,0,0-7.22-1.111c-13.269-.519-26.561-.877-39.83.136a7.091,7.091,0,0,0-1.906.766c.615.309,1.231.877,1.846.889,3.137.074,6.273-.025,9.41.012a5.649,5.649,0,0,1,1.953.63c.237.1.379.42.568.642-.272.222-.521.568-.829.642a11.087,11.087,0,0,1-3.066.482,31.878,31.878,0,0,0-14.405,1.877,4.811,4.811,0,0,1-3.989-.42c-.9-.63,1.018-2.124.888-2.3-.864-1.124,1.231-.8-.13-.642-5.1.63-10.4.494-14.949,3.655l-.533-.679c.237.173.473.346.71.506,3.35,2.889,7.4,3.889,11.552,4.26,4.2.37,8.155,1.729,12.227,2.605,4.7,1.012,9.552,1.185,14.322,1.79,2.592.321,2.616,1.334.864,3.173-.544.58-.521,2.013-.391,3,.249,1.852-.5,2.741-2.142,2.7-2.817-.049-5.492.111-8.037,1.7a7.859,7.859,0,0,1-3.977.852c-9.73.074-19.447.025-29.177.062a10.875,10.875,0,0,1-6.924-1.864c-1.16-.852-3.042-1.21-3.847,0-2.344,3.494-6.108,3.124-9.2,3.544-8.286,1.136-16.476,2.26-24.229,5.828-1.811.827-4.084.494-6.131.852a30.843,30.843,0,0,0-5.019,1.259c-.568.2-1.006.938-1.409,1.519-.438.63-.071.988.959,1.037,3.125.185,6.25.333,9.363.617.544.049,1.03.667,1.539,1.025a6.551,6.551,0,0,1-1.787.975c-5.386.914-10.984,1.136-14.926,6.013a2.361,2.361,0,0,1-1.894.654c-7.966-.951-9.943,4.853-11.588,11.063-1.989.161-3.977.3-5.966.482a3.17,3.17,0,0,0-.9.432c.213.173.414.494.639.494,2.166.074,4.64,1.4,6.131-1.519,2.888,3,6.747-1.543,9.647,1.371,2.367-1.371,5.492-1.037,7.327-3.593l-.166.185c4.64.877,8.641-2.05,13.2-2.358,4.249-.284,8.866-.445,12.7-3.358,1.03-.79,2.64-.864,4.013-.975,5.232-.432,10.156-2.247,15.2-3.531C230.4,50.016,243.472,46.534,257,45.731c1.728-.111,3.48-.074,5.208-.247,3.93-.42,7.469,1.63,11.2,1.976,3.693.346,7.315-2.062,11.2-1.074a6.807,6.807,0,0,1,2.012.444c.829.543,1.953,1.272,2.107,2.087a3.257,3.257,0,0,1-1.3,2.642A14.833,14.833,0,0,1,283.5,52.6c-.521-1.7-1.633-1.864-3.006-1.235-.249.111-.592.58-.533.716.213.506.651,1.371.876,1.334a16.849,16.849,0,0,0,2.77-.975c.249.667.509,1.321.758,1.988.367.975.935,2.284-.616,2.432-3.764.358-7.516,1.716-11.292.63-2.178-.63-2.935.815-4.2,2.062-1.361,1.334-1.444-.494-1.645-1.309-.272-1.05-.592-2.223-1.752-2.087-2.746.309-5.457.864-8.179,1.346-2.7.482-5.279,1.259-8.143.161a6.578,6.578,0,0,0-4.959.7,10.478,10.478,0,0,1-9.812.58c-1.136-.482-2.734.1-4.084.37-.391.074-.734.728-.971,1.185-.047.111.391.531.651.766,2.569,2.457,5.906,1.617,8.9,2.272a7.082,7.082,0,0,1,1.787.975c-.5.383-.959,1.025-1.48,1.074-2.4.247-4.853.173-7.244.531-.817.136-1.515,1.2-2.273,1.84a2.612,2.612,0,0,0-.769.185c-.142.086-.189.346-.272.531l.888-.889c5.575-.012,11.162.037,16.737-.037,3.125-.037,6.273.123,9.327-1.025,3.362-1.247,6.9-.963,10.392-.827,1.03.037,2.486-.049,2.995.58,3.8,4.729,8.913,3.136,13.647,3.408,2.782.161,5.682.025,8.309.8,4.806,1.408,9.517,2.2,14.417.8a3.15,3.15,0,0,1,2.012-.086c5.705,2.679,11.979,4.161,17.056,8.125,1.184.926-.734,1.173-1.456,1.494-.616.284-1.219.63-1.811.938a5.929,5.929,0,0,0,1.1,1.642c2.273,1.679,4.545,3.26,7.5,3.519,4.971.457,9.019,3.037,13.281,5.692,9.848,6.161,20.1,11.631,30.3,17.138,7.232,3.914,12.819,9.964,19.069,15.175,1.172.988,1.053,2.605.971,4.075l-.012.012c-2.332.21-4.024-1.148-5.469-2.729-3.184-3.507-7.35-5.482-11.138-8.05-.876-.58-1.811-1.531-2.722-1.531-7.362-.062-12.772-5.532-19.436-7.445-.876-.247-2.1-1.136-2.367.333-.13.728.864,1.914,1.622,2.531a11.416,11.416,0,0,0,3.657,2.062c6.486,2.062,11.694,6.322,17.033,10.409,2.6,2.013,4.735,3.988,3.658,7.816a27.775,27.775,0,0,0,2.628,1.111l-.178-.185c.84,3.531,3.788,4.988,6.191,7.026,4.285,3.63,8.333,7.013,9.931,13.4,1.255,5.025,5.042,9.47,8.144,13.841,5.208,7.3,10.167,14.755,13.872,22.991,3.089,6.853,5.291,14.138,8.463,20.953,3.373,7.248,5.267,14.977,7.528,22.583,1.006,3.383,2.213,6.914,1.29,10.68-.663,2.642.758,4.951,1.361,7.384a52.219,52.219,0,0,1,1.586,14.977c-.2,4.408-2.036,9.174.462,13.607a3.294,3.294,0,0,1,0,2.136c-2.675,10.211-2.651,20.756-3.764,31.165a12.1,12.1,0,0,1-2.5,6.939c-5.563,6.816-5.445,15.385-6.119,23.658,2.734,7.05-.343,13.434-2.107,19.966-.095.346-.142.716-.213,1.062l.166-.2c-.852,1.1-1.728,2.161-2.533,3.284-1.03,1.469-2.083,2.865-3.906,3.3ZM363.3,400.741c1.042-.4,1.231-.7.544-.766-.095-.012-.249.617-.367.951-.722.741-1.444,1.494-2.166,2.235-.746.605-1.5,1.2-2.237,1.827-.7.593-.781,1.284-.154,1.432a1.631,1.631,0,0,0,1.5-.543,16.026,16.026,0,0,0,.71-2.889c.722-.753,1.444-1.506,2.166-2.247M361.328,181.65c.142,1.284.7,2.161,2.036,2.309,1.562,5.075,5.622,8.223,8.724,12.1,1.551,1.939,4.309,3.988,2.557,6.347-2.486,3.358-4.888.086-7.031-1.531-.8-.593-1.314-.741-1.551.086a3.814,3.814,0,0,0-.166,2.074c1.409,4.087,3.776,7.68,5.078,11.915,2.119,6.915,5.019,13.557,7.587,20.324.509,1.346,1.338,2.679,1.456,4.062.9,10.273,4.96,19.669,7.35,29.522.947,3.877,2.083,7.692,2.947,11.582a3.981,3.981,0,0,1-.473,3.037c-2.924,3.136-3.421,7-3.634,11.063-.237,4.8-2.237,9.125-3.5,13.656-.876,3.124-3.894,3.889-5.516,6.31-2.58,3.852-5.61,7.3-6.569,12.125-.651,3.235.675,6.05,4.131,7.618.544.247,1.776-.506,1.989-.21,3.658,4.729,8.108,8.939,9.86,14.953a4.342,4.342,0,0,1-1.7,4.815c-1.456.988-2.557-.519-3.8-1.012-.331-.123-.675-.185-1.018-.284l.178.185c-.272-2.432-.414-4.89-.888-7.273-.3-1.432-1.574-1.062-2.438-.568a3.384,3.384,0,0,0-2.071,3.173c-.118,2.136-1.61,2.692-3.03,1.4a16.667,16.667,0,0,1-2.225-3.346,4.087,4.087,0,0,0,1.645-3.408c-.012-.457-.5-.889-.769-1.333a3.548,3.548,0,0,0-.355.926c-.142,1.321-.237,2.655-.343,3.976a3.273,3.273,0,0,0-3.563,1.655,67.388,67.388,0,0,0-3.8,7.742c-.888,2.26.746,1.716,2.119,1.864,2.876.3,3.563,2.124,1.74,4.272-1.136,1.358-2.569,2.445-3.764,3.766-.864.963-.284,3.568,1.065,4.877,1.681,1.618,2.3-.407,3.231-1.173,1.74-1.408,2.071-3.655,3.007-5.569,1.846-3.717,6.972-5.865,11.387-5.1.166.037.391.58.367.852-.13,1.247-1.089,1.655-2.024,2.161-7.327,3.951-8.641,9.051-3.942,15.187,1.089,1.408,2.284,2.741,3.35,4.173,2.805,3.754,3.859,3.828,6.261.37a15.868,15.868,0,0,0,3.208-9.014,2.839,2.839,0,0,0,2.166-2.223c1.894.716,4,2.26,5.658-.062,3.433-4.828,8.972-8.322,9.209-15.274l-.178.185c2.166-.84,2.545-3.136,3.468-4.89.746-1.408-.71-3.321.663-4.877,1.586-1.8,3.077.543,4.522-.037,1.42-.58,1.61-2.062,1.894-3.408l.047-.049c4.4-2.9,5.989-6.766,3.871-11.989a6.342,6.342,0,0,1-.6-3.05c1.136-8.211,2.131-16.471,3.74-24.6.769-3.926,1.219-7.853,1.8-11.792.994-6.779-1.6-13.706,1.231-20.41.568-1.371-.568-3.494-.8-5.3-.284-2.148-.533-4.309-.639-6.47-.083-1.506.7-2.544,1.811-3.618,4.64-4.531,4.6-4.766.84-9.359-1.349-1.655-2.9-3.161-4.155-4.89a6.074,6.074,0,0,1-.758-5.211c.154-.605.7-1.445,1.16-1.506a2.06,2.06,0,0,1,1.74.889c.8,1.58,1.29,3.334,2.083,4.927.213.445,1.006.642,1.574.815.142.037.651-.556.616-.8a62.994,62.994,0,0,0-6.451-20.583c-3.681-6.976-8.049-13.693-10.688-21.077-3.373-9.47-8.806-17.163-15.163-24.435a19.863,19.863,0,0,1-4.5-7.285c-2.213-7.273-7.339-12.051-13.079-16.336-5.386-4.013-10.606-8.285-15.932-12.409-.793-.617-1.728-1.346-2.64-.333-.189.21.237,1.185.544,1.716,3.551,6.309,8.9,11,13.505,16.36.462.543.994,1.222,1.61,1.371,4.155,1.012,6.191,4.136,7.895,7.865a19.6,19.6,0,0,0,3.669,5.285c5.942,6.124,8.877,14.113,10.665,22.052,2.557,11.347,7.978,20.756,14.31,29.905,1.835,2.667,3.575,5.408,4.131,8.7a2.012,2.012,0,0,1-1.018,1.63,6.944,6.944,0,0,1-7.575-3.383c-1.811-3.939-3.729-7.841-5.279-11.89A85.268,85.268,0,0,0,388.1,190.022c-1.562-1.926-2.935-4.149-4.841-5.63-2.509-1.939-1.657-5.272-3.693-7.482-6.771-7.359-13.967-14.064-22.691-18.793a5.81,5.81,0,0,0-2.048-.272c-.071-.716-.166-1.432-.213-2.136-.095-1.124-.473-1.383-1.018-.654a1.177,1.177,0,0,0,.107,1,15.05,15.05,0,0,0,1.314,1.605c1.053,1.432,2.107,2.852,3.148,4.3.544.753.509,1.371-.118,1.729-.284.173-.675.407-.923.321a27.034,27.034,0,0,1-3.859-1.568c-3.977-2.2-7.895-4.519-11.9-6.668-.426-.235-1.231.321-1.87.519.13.272.189.642.391.8,4.143,3.309,8.084,7,12.535,9.779,3.646,2.26,6.51,5.433,10,7.8a22.376,22.376,0,0,1,6.782,8.087,2.883,2.883,0,0,1-.2,1.976c-.284.778-.876.617-1.7.284a30.442,30.442,0,0,0-3.977-1.037c-.095-1.432-1.042-1.9-2.19-2.136-.26-.185-.521-.383-.781-.568l.971.37M191.06,91.824l.675-.679c-.166.284-.331.58-.485.864-1.03.432-1.953.963-2.131,2.26a50.927,50.927,0,0,0-5.137.7c-2.7.642-5.35,1.531-8.061,2.161-.3.074-.864-.864-1.2-1.408a1.23,1.23,0,0,1-.059-1.037,11.416,11.416,0,0,1,1.764-2.568c4.64-4.359,9.966-7.68,15.3-11.014.26-.16.142-1.124.047-1.692-.036-.185-.6-.457-.864-.407-4.131.9-7.954,2.358-10.9,5.779-1.6,1.864-3.231,4.062-5.315,5.075a77.153,77.153,0,0,0-17.352,11.816c-.959.852-2,.074-2.734-.691a1.744,1.744,0,0,1,.047-2.729c6.9-5.322,13.849-10.545,20.749-15.854,1.266-.975.852-2.309-.9-3.309-3.255-1.877-3.492-2.42-2-5a19.1,19.1,0,0,1,1.314-1.667c.4-.531.758-1.1,1.124-1.655a8.376,8.376,0,0,0-2.024-.346c-2.415.148-4.971-.3-7.137,1.148-3.586,2.42-7.907,1.716-11.706,3.223-4.178,1.655-8.688,1.679-13.008,1.8-5.539.161-9.73,3.445-14.535,5.26-1.681.642-2.391,2.605-2.509,4.482a3.972,3.972,0,0,0,2.071,3.507l-.13-.136a4.939,4.939,0,0,1-4.3,4.149c-4.912.926-7.575,5.927-12.322,6.989-.379,4.556-2.119,2.581-4.51,1.432-3.409-1.63-5.954.1-6.309,3.877-.213,2.235-.367,4.112-2.261,5.7a45.983,45.983,0,0,0-4.853,5.593c-2.486,2.914-3.291,2.766-5.622-1.346-1.219-2.173-2.166-.778-3.042.161a6.118,6.118,0,0,0-.734,1.988,4.923,4.923,0,0,0-2.107,4.445,3.983,3.983,0,0,0-3.35,1.506,1.323,1.323,0,0,0-.178.951c.189.951.746,1.222,1.255.568.781-1,1.409-2.124,2.107-3.2.769,0,1.527.012,2.284.012-.308,4.531-.32,4.519-4.237,10.471-1.527,2.334-1.882.568-2.415-.691-.272-.654-.568-1.3-.852-1.939-.5.457-1.326.84-1.444,1.383a39.37,39.37,0,0,1-6.64,15.656c-.911,1.235-.615,3.494-.758,5.309a37.878,37.878,0,0,1-3.622,13.52,56.157,56.157,0,0,0-5.1,23.176,126.493,126.493,0,0,1-4.084,31.152c-.8,3.025-2,6.161-.639,9.619a8.977,8.977,0,0,1-.166,5.4c-2.4,8.013-.178,15.829.746,23.695a5.3,5.3,0,0,0,.829,1.63,13.2,13.2,0,0,0,.426-2.1c.154-5.1.331-10.211.379-15.311.083-8.013.178-16.027,2.438-23.793A6.492,6.492,0,0,1,57.97,218.1a7.518,7.518,0,0,1,.71,2.025c.178,3.272.249,6.544.355,9.816.083,2.531-.544,5.371.343,7.532,2.4,5.939,2.048,11.989,1.87,18.114-.071,2.185-.118,4.383-.154,6.569a20.067,20.067,0,0,0,.059,3.272A13.954,13.954,0,0,0,62.1,268a8.07,8.07,0,0,0,.758-1.976c.237-2.531.3-5.1.6-7.618a1.913,1.913,0,0,1,1.326-1.284,1.943,1.943,0,0,1,1.551,1,12.747,12.747,0,0,1,.4,8.569c-1.551,5.112-.5,10.026.012,15.014.237,2.173.781,4.309.911,6.482.166,2.926-1.018,5.68-1.409,8.446-.462,3.21,4.344,3.161,5.4,6.038.5,1.346,1.468,2.618,1.61,3.988.746,7.557,5.066,13.446,8.226,19.867a10.044,10.044,0,0,0,1.906,2.581,2.3,2.3,0,0,0,1.752.766,2.493,2.493,0,0,0,1.3-1.519,18.2,18.2,0,0,0,.568-10.631c-1.681-6.458-1.184-13-.982-19.571.189-6.359,1.989-12.891-1.29-19.04a5.975,5.975,0,0,1-.26-2.148,125.856,125.856,0,0,1,2.367-39.03c3.5-15.916,7.883-31.622,11.742-47.463a17.868,17.868,0,0,1,2.651-5.766c3.752-5.68,7.279-11.5,11.47-16.891,4.119-5.285,7.54-11.162,11.268-16.78.663,1.864,1.349,1.519,2.036.012a59.5,59.5,0,0,0,14.216-17.471c2.782-4.988,5.8-9.977,10.452-13.175,2.166-1.494,4.723-1.8,5.634-5.1.485-1.753,2.213-.766,3.279.383.308.333.947.333,1.432.494a3.735,3.735,0,0,0,.26-1.025c-.036-.7.059-1.618-.32-2.05-1.432-1.642-3.1-2.84.355-4.334a9.009,9.009,0,0,1,8.854.642c.343.531.687,1.05,1.03,1.58l.994-1.556c.959-.2,2.592-.173,2.734-.63.639-2.087,1.409-3.457,3.634-4.334,2.829-1.111,5.374-3.05,7.942-4.791,1.87-1.272,2.474-3.309,2.438-5.581a2.784,2.784,0,0,0,2.107-2.272M90.3,76.513c.178-.21.343-.407.521-.605-.13.259-.237.519-.355.778-.249.2-.485.4-.734.605l.568-.778m117.584,354.9c1.468,0,2.935-.012,4.391-.012,1.113.8,2.225,2.321,3.314,2.3,4.249-.1,8.238.012,11.517,3.47.462.482,1.917-.049,2.9-.111-.414-4,1.764-2.605,3.776-2.124a54.352,54.352,0,0,0,7.208,1.087c2.651.284,4.6,1.235,5.2,4.309a1.481,1.481,0,0,0,2.32,1.037,2.158,2.158,0,0,0,.781-1.79c-.923-2.988.45-4.038,2.995-4,7.646.1,15.281.272,22.927.432l-.189-.2c2.545,3.667,2.58,3.741,6.617,1.7a3.894,3.894,0,0,1,3.871-.284c2.048,1.049,3.977.568,5.977-.346,7.895-3.618,15.873-7.05,23.732-10.742,1.5-.7,2.64-2.26,3.942-3.42,3.74-1.618,3.953-5.47,5.031-8.742.107-.321-.58-.926-.9-1.4-.521.383-1.349.654-1.5,1.161-.9,3.025-1.645,6.087-2.438,9.137-3.492-1.235-1.977-4.334-2.3-6.754.2-.259.4-.506.616-.766-.154.309-.3.63-.45.938-3.4-.074-5.8,2.025-8.226,4.1-1.053.9-2.178,2.185-3.362,2.321-4.249.482-7.824,3.1-11.9,3.815-3.35.593-7.315,2.976-9.765-2.2-.58-1.222-2.462-.975-3.871-.617-2.675.7-5.433,1.148-8.049,2.062-11.434,4-23.081,4.4-34.858,2.42-3.433-.58-6.688-1.037-9.528,1.617-2.793-3.321-6.238-1.655-9.6-1.729-3.054-.062-3.942,2.482-5.954,3.519-2.154-2.235-2.154-2.235-4.06-.025a3.145,3.145,0,0,0-.911.272c-.142.1-.154.432-.237.667.331-.37.663-.741.982-1.111m113.37-32.906c.6-.074,1.219-.124,1.823-.21.971-.123,1.16-.519.5-1.037a.936.936,0,0,0-.876.086,13.269,13.269,0,0,0-1.255,1.346c-.722.753-1.432,1.506-2.142,2.272-4.51.2-9.15-.247-13.494.741-6.782,1.531-13.352,3.988-19.992,6.137a2.058,2.058,0,0,0-1.622,2.383c.13.543.9,1,1.456,1.346.864.543,1.787.951,2.687,1.42-.971.247-1.989.8-2.912.667-3.444-.482-6.853-1.2-10.274-1.827-.876-.519-1.7-1.371-2.628-1.494-3.421-.482-6.1,1.519-8.226,3.8-.864.914-.485,3.346-.237,5.013.071.519,1.61,1.136,2.462,1.124a62.148,62.148,0,0,0,7.244-.642,4.4,4.4,0,0,0,1.752-1.062c.26-.2.6-.716.533-.877-.26-.494-.71-1.284-1.065-1.272-2.036.086-4.072.457-6.108.506-.45.012-1.148-.827-1.29-1.4a1.819,1.819,0,0,1,.876-1.494c2.237-.9,4.545-1.642,6.83-2.432,2.355,4.519,5.575,6.878,10.748,5.013,2.249-.815,3.823,1.3,5.717,1.988,2.924,1.062.272,2.791.3,4.2a3.662,3.662,0,0,0-.758.383c-.118.1-.142.358-.213.543.272-.37.533-.741.793-1.111,4.936-.148,8.534-3.507,11.765-6.532,4.415-4.112,9.055-7.816,13.754-11.508.959-.741,1.172-2.507,1.728-3.8.71-.753,1.42-1.519,2.131-2.272m-203.529-221c-.521.37-1.278.654-1.468,1.161-.154.42.391,1.111.616,1.667a2.813,2.813,0,0,0,.509-.889,20.624,20.624,0,0,0,.189-2.1,3.316,3.316,0,0,0,.923-.333c.142-.111.154-.432.225-.654q-.959-.222-.994,1.148m81.79,230.018c-.237-.185-.462-.383-.7-.58.284.136.568.272.864.407,1.468,2.716,4.155,1.58,6.3,2.161,7.682,5.248,16.583,6.087,25.306,7.495,1.255.2,2.675-.58,4.013-.914.367.494.651,1.185,1.124,1.4.355.161.959-.321,1.456-.506a4.625,4.625,0,0,0-.864-.407c-.6-.136-1.231-.21-1.858-.321a4.242,4.242,0,0,1,4.166-2.556c2.4-.012,4.794.235,7.2.222a4,4,0,0,0,3.859-2.976c.237-.667.509-1.334.769-2-.864-.346-1.811-1.148-2.569-.988-10.1,2.21-20.122.272-30.159-.482-.7-1.864-1.373-1.531-2.036.037-3.243,2.21-6.984,1.815-10.57,2.2-1.373-3.013-4.2-1.445-6.3-2.185m-92.3-140.4c.118.63.225,1.272.367,1.9a9.207,9.207,0,0,0,.308.914c.178-.494.6-1.111.45-1.457-.213-.506-.84-.815-1.29-1.2a5.893,5.893,0,0,0-.047-2.1,1.76,1.76,0,0,0-1.409-.938,2.511,2.511,0,0,0-1.42,1.321c-.107.235.544,1.087,1.006,1.3a6.413,6.413,0,0,0,2.036.259M336,396.4a12.777,12.777,0,0,0,2.829-1.136c.982-.691.829-2.7-.059-2.605a2.355,2.355,0,0,0-1.693.877,15.227,15.227,0,0,0-.971,3,16.164,16.164,0,0,0-2.036.173c-.308.062-.84.457-.817.58a1.01,1.01,0,0,0,1.6.7c.509-.309.769-1.05,1.148-1.593M96.6,267.131c1.847-.136,3.4-.729,3.681-2.951.32-2.47.6-4.914,3.8-5.05a1.2,1.2,0,0,0,.26-.926c-.3-.568-.663-1.4-1.148-1.531-2.391-.642-4.77.247-5.2,2.161-.639,2.778-.852,5.643-1.255,8.483a6.385,6.385,0,0,0-1.894.21c-.391.148-.615.729-.911,1.124.544.037,1.231.321,1.622.074.473-.309.7-1.037,1.042-1.593m12.677-67.787c-1.527.642-1.858,2.037-1.929,3.507a12.47,12.47,0,0,1-1.823,6.186c-4.462,7.1-6.013,15.348-8.25,23.287-1.29,4.544-.971,9.384-.024,14.064a3.176,3.176,0,0,0,3.03,2.544c1.657.049,2.332-1.457,2.521-2.939,1.148-9.347,2.829-18.644,2.036-28.14-.142-1.827-.2-3.815,1.065-5.211,3.5-3.865,3.149-8.655,3.3-13.372,3.077-2.507,1.491-6.519,2.817-9.606a2,2,0,0,0-.781-.358,1.155,1.155,0,0,0-.852.469c-1.267,3.074-1.243,6.322-1.113,9.569M168,405.273c.024.358-.071.815.107,1.074,2.58,3.7,9.256,7.841,12.8,7.766a5.009,5.009,0,0,0,4.451-2.346,1.064,1.064,0,0,0,.118-.877c-.142-.3-.58-.7-.758-.642-4.1,1.494-6.924.691-9.28-3.68a4.853,4.853,0,0,0-7.35-1.408,4.03,4.03,0,0,0-1.6-3.778c-2.308-1.568-4.746-2.939-7.055-4.519-.4-.272-.426-1.148-.615-1.753a6.258,6.258,0,0,1,1.906-.58c2.616.111,4.309,2.124,6.356,3.47,1.207.79,2.651,1.062,3.811-.136,1.456-1.519.225-2.605-.817-3.507-5.6-4.9-11.588-9.359-16.772-14.693-6.368-6.569-12.547-13.31-15.518-22.744A31.006,31.006,0,0,0,130.2,344.1c-6.191-6.038-7.5-9.52-9.161-19.682a36.759,36.759,0,0,0-1.918-6.174c-1.184-3.408-2.426-6.791-3.681-10.174a33.441,33.441,0,0,1-1.255-20.213c.473-1.852,0-2.531-1.693-2.852-2-.383-2.793-1.408-2.284-3.815.982-4.507.568-4.766-3.729-3.05a10.289,10.289,0,0,1-3.871,1c-3.515.062-3.5.3-1.764,3.754a5.7,5.7,0,0,1,.769,1.8c.178,1.568-1.03,2.247-3.255,1.939-1.4-.185.284-1.358-.84-.482-1.693,1.333-2.06,4.754-.8,7.421l-.142-.148c.118,1.445.178,2.9.391,4.334.331,2.223,1.267,5.136,3.006,5.322,2.533.272,2.355-2.828,2.864-4.89a23.106,23.106,0,0,1,2.19-4.828,1.582,1.582,0,0,1,2.58-.049c1.989,3.3,2.012,6.593-.095,8.989a15.4,15.4,0,0,1-3.16,2.8,7.325,7.325,0,0,0-3.421,7.408c.746,6.8,1.74,13.57,2.663,20.348a1.53,1.53,0,0,0,.533.9c4.084,3.173,3.373,9.026,7.043,12.854,3.539,3.692,5.906,8.977,7.788,13.965,2.888,7.643,7.836,13.323,13.742,18.3a7.809,7.809,0,0,1,2.509,3.3,12.359,12.359,0,0,0,6.238,6.8c2.142,1.111,4.486,2.432,5.895,4.334,4.451,5.988,11.126,8.569,16.8,12.668,1.278.926,2.651-.012,3.871-.716M198.8,78.7a187.959,187.959,0,0,0,24.135-7.161c1.314-.457-.178.593.237-.8a1.034,1.034,0,0,0-.473-.84c-3.291-.556-6.818-2.087-9.812-1.334-5.267,1.321-10.227,4-15.269,6.235a2.02,2.02,0,0,0-1.172,2.593c.2.494,1.124.654,2.355,1.309m-65.326-8.717a46.735,46.735,0,0,0,6.782-.58c1.255-.3,3.4-1.556,3.314-2.111-.58-4.235,2.817-5.322,4.865-7.495.213-.235-.225-1.235-.485-1.815a.873.873,0,0,0-.84-.284q-8.824,5.2-17.589,10.508a1.14,1.14,0,0,0-.308.988c.047.222.5.457.793.494,1.349.148,2.711.235,3.468.3M211.987,93.7c4.072.111,7.22.407,9.943-1.667.71-.556,2.32-.766,1.349-2.21a3.93,3.93,0,0,0-2.5-1.519c-3.977-.568-7.232,1.655-10.582,3.358a1.472,1.472,0,0,0-.485.9c-.047.222.083.7.213.728.994.235,2,.4,2.06.407M198.529,421.1c-.9-2.766-1.787-5.482-4.5-7.05-1.267-.729-2.391-1.58-3.693-.284-.734.741-1.74,1.531-1.953,2.457-.521,2.272,1.491,2.26,2.616,2.087,3.042-.445,4.013,2.445,6.025,3.605a1.06,1.06,0,0,0,.9-.074c.26-.136.414-.494.6-.741m157.65,27.856c-.284-.21-.675-.654-.84-.58-2.213.988-4.427,2.013-6.593,3.136a2.511,2.511,0,0,0-1.61,2.507c.059.864,2.486,1.519,3.61.988a11.3,11.3,0,0,0,5.3-4.976,3.144,3.144,0,0,0,.13-1.074M335,418.1c2.687-.148,4.569-1.8,4.545-4.2-.012-.432-.852-1.272-1.243-1.222-2.628.3-3.208,3.112-4.924,4.581.544.284,1.077.556,1.622.84M62.8,278.552c-.047-1.012-.047-2.432-.225-3.815-.071-.494-.58-.926-.9-1.383a2.792,2.792,0,0,0-.4.963c.024,2.457.071,4.914.213,7.359.024.457.521.877.793,1.321.178-.3.485-.593.5-.9.071-1.05.024-2.1.024-3.544M96.1,104.8c-.213-.235-.414-.654-.651-.679a5.544,5.544,0,0,0-2.7-.012,3.071,3.071,0,0,0-2,3.186c.059.432,1.006,1.185,1.207,1.074a36.825,36.825,0,0,0,4.119-2.568c.154-.111.024-.654.024-1m17,146.81c-.272-1.568-3.338-3.3-4.675-2.568a1.053,1.053,0,0,0-.355.864c.272,1.988,3.089,3.544,4.616,2.556.225-.136.284-.556.414-.852m241.1-75.553c-.746-.667-1.468-1.309-2.19-1.951-.189.259-.544.531-.544.79a1.606,1.606,0,0,0,1.811,1.815c.272,0,.533-.358.923-.654M275.916,51.571a5.685,5.685,0,0,0-1.8-.778,5.579,5.579,0,0,0-1.894.58,5.6,5.6,0,0,0,1.835.815,5.393,5.393,0,0,0,1.858-.617M189.663,75.8c.047-.617-.343-.741-1.184-.4.083.185.166.506.26.519a3.953,3.953,0,0,0,.923-.123m12,10.211c-.3.148-.592.284-.876.42.154.21.391.63.473.593a9.439,9.439,0,0,0,1.29-.7c-.3-.1-.592-.2-.888-.309M371.483,388.085c-.272-.543-.544-1.1-.817-1.642-.26.2-.722.383-.734.58a8.514,8.514,0,0,0,.272,1.7c.426-.21.852-.42,1.278-.642M200.837,417.559a3.561,3.561,0,0,0,.923.21c.095,0,.189-.346.3-.531a4.081,4.081,0,0,0-.923-.185c-.095,0-.189.333-.3.506m57.573.3.829-.482c-.249-.21-.462-.556-.746-.617-.852-.21-1.231.124-.923.753.107.21.556.247.84.346m-37.214,19.2c-.095-.235-.178-.654-.272-.654a3.819,3.819,0,0,0-.959.21c.083.222.166.63.272.63a3.294,3.294,0,0,0,.959-.185m-112.778-202-.331.494.462.1ZM431.98,261.785l-.568-.432-.083.716ZM366.891,393.308l-.509-.358-.083.543Z" transform="translate(8.137 0.006)" fill="#C97A1F"/>
      <path id="Path_6228" data-name="Path 6228" d="M96.956,67.7c4.237,9.656,11.316,17.4,16.358,26.51a8.73,8.73,0,0,0,2.036,2.457c7.611,6.26,11.2,14.4,11.043,24.5-.036,2.111.722,4.247,1.2,6.347.947,4.149,3.22,7.063,7.268,8.248l-.154-.161c.142.7.26,1.42.426,2.124.438,1.988,5.066.58,3.243,4.692-.864,1.976,2.284,3.815,1.03,6.692-.971,2.21.3,4.927.817,7.421,2.557,12.36,5.019,24.732,3.3,37.561-.414,3.074.473,6.384,1.006,9.544.331,2.013.059,3.445-1.7,4.606-.829.543-1.48,2.087-.509,2.667,3.5,2.087,2.793,5.4,2.805,8.606.012,4.359.45,8.742.166,13.076-.272,4.285-1.409,8.495-1.8,12.779-.355,3.964.426,8.137-.4,11.952-1.693,7.742-2.131,15.755-4.06,23.361-3.456,13.631-5.587,27.621-10.2,40.931q-2.308,6.612-4.628,13.224c-.639,1.827-2.805.37-3.338,1.383-1.775,3.408-5.338,5.791-5.09,10.421.142,2.494-1.5,3.914-4.072,3.692l.047.049c-.852-2.482,1.977-5.371-1.243-7.816-1.657-1.272,1.1-3.791.047-6.1-1.29-2.79.829-2.3,2.592-2.371,3.894-.161,4.119-.309,3.906-4.877a10.513,10.513,0,0,1,2.273-6.989,3.724,3.724,0,0,1,.769-.741c1.444-1,1.6.321,2.071,1.222.343.642.817,2.605,1.338,1.469,1.148-2.544,2.805-5.112,2.533-8.186a4.771,4.771,0,0,0-.734-1.531,11.717,11.717,0,0,1-1.527,1.4c-.533.346-1.255.79-1.764.642-.793-.222-.864-1.05-.355-1.815.58-.889.994-2.309,1.764-2.568,3.089-1.074,4.806-2.531,3.255-6.223-.355-.864.426-1.766,1.255-2.581,2.935-2.889,3.338-4.852.888-7.618-1.633-1.84-2.344-3.284-1.622-5.667,3.646-12.125,5.019-24.744,7.35-37.165a67.913,67.913,0,0,0,1.409-9.594c.462-10.31,2.071-20.509,2.379-30.807.107-3.519-.84-7.112-1.539-10.619-1.906-9.544-4.19-19.015-5.812-28.609-.793-4.618-1.409-9.31-2.012-13.965a97.642,97.642,0,0,0-3.823-18,13.4,13.4,0,0,1-.3-4.26c.012-1.025.592-2.05-.5-2.926-3.231-2.655-3.61-6.8-4.889-10.471a159.665,159.665,0,0,0-16.05-32.832A11.39,11.39,0,0,1,102.2,89C97.382,76.986,88.433,68.244,80.243,58.935c-6.581-7.47-12.109-15.755-17.79-23.941-1.4-2-2.687-4.186-2.509-6.976.083-1.42-1.2-1.605-2.083-1.012-1.681,1.111-3.551,1.432-4.746-.1C49.207,21.9,43.1,19.1,40.4,12.928l-.178.2c1.74-.815,1.858-1.63,0-2.432l.178.185c-.284-3.05-4.013-3.556-4.415-6.507l.272-.309c1.006.185,2.391.012,2.971.642a40.143,40.143,0,0,0,11.067,8,14.7,14.7,0,0,1,3.492,2.4c8.83,8.717,18.8,16.175,26.419,26.213,4.533,5.964,9.292,11.742,13.8,17.731.769,1.037.769,2.7,1.113,4.087l-.45.543-.734.679.6.753.639.753c.639.654,1.278,1.321,1.918,1.988Zm38.338,202.743a13.278,13.278,0,0,0,.118,2.358,10.022,10.022,0,0,0,.769,1.346,3.8,3.8,0,0,0,.686-.778c1.326-2.556,2.521-5.149,1.858-8.186a1.42,1.42,0,0,0-.58-.864c-.13-.086-.568.185-.758.407a8.529,8.529,0,0,0-2.1,5.717m-4.06,21.818.426.383.071-.642Zm-16.8,45.981.556.407.083-.667Z" transform="translate(389.962 46.107)" fill="#C97A1F"/>
      <path id="Path_6229" data-name="Path 6229" d="M167.333,62.729c1.551.667,2.4,2.469.994,3.124-6.321,2.914-12.132,7.223-19.2,8.186a7.6,7.6,0,0,0-4.522,2.4c-2.166,2.173-3.575,1.617-3.811-1.605-3.634-1.642-7.611-2.26-11.15-.741-6.06,2.593-12.3,1.716-18.477,2.013a69.7,69.7,0,0,1-12.523-.617c-3.326-.444-6.853.025-9.848-2.778-1.314-1.235-3.989-1.334-6.013-1.247-3.788.173-.9-3.149-1.681-3.433a17.959,17.959,0,0,0-6.19-.79c-5.244.062-10.475.222-15.707.568-2.77.185-5.3,1.321-6.048-3.371-.343-2.2-3.74-3.272-6.19-3.223-4.687.1-8.724-2.494-13.245-2.963-.473-.049-.888-.753-1.326-1.161a9.741,9.741,0,0,1,1.752-.951c.663-.185,1.409-.037,2.071-.21a9.421,9.421,0,0,0,1.8-.815,3.348,3.348,0,0,0-.864-.605c-4.64-1.531-9.244-3.247-13.955-4.47a24.6,24.6,0,0,1-6.818-2.642c-.4-.235-.568-.926-.84-1.4,1.8-1.012,3.965-1.3,5.291-3.235.781-1.148,1.989-.4,2.9-.1,8.937,2.951,18.216,4.457,27.224,7.174a81.657,81.657,0,0,0,24.691,3.926c2.438-.037,4.888-.037,7.327.136a1.612,1.612,0,0,1,1.6,2.136c-.769,2.445.592,3.26,2.426,3.692a12.58,12.58,0,0,0,3.113.383c6.6-.025,13.233.111,19.826-.222,5.8-.3,11.091,1.753,15.743,4.531,4.51,2.7,9.706,1.062,13.955,3.9.616.407,2.012-.173,2.935-.593q4.758-2.2,9.434-4.643c.533-.284.829-1.1,1.231-1.679a6.756,6.756,0,0,0-1.929-.617c-4.178-.037-8.357.025-12.547.049a36.068,36.068,0,0,1-4.166-.049,5.655,5.655,0,0,1-1.8-.951c.4-.482.734-1.21,1.231-1.4,8.747-3.05,17.8-1.247,26.715-1.642,3.6-.161,5.232,3.161,6.747,6.112a7.254,7.254,0,0,0-1.87.037c-.414.123-.722.642-1.077.975.533.1,1.184.444,1.586.247.509-.259.817-.951,1.207-1.445M76.358,60.272a13.417,13.417,0,0,0,1.432-.124c.663-.161,1.3-.358,1.953-.543a15.272,15.272,0,0,0-1.586-.864,1.74,1.74,0,0,0-1.006-.1c-.971.2-1.929.444-2.9.679.817.37,1.633.741,2.107.951" transform="translate(168.421 478.259)" fill="#C97A1F"/>
      <path id="Path_6230" data-name="Path 6230" d="M84.186,90.1c.982,1.79,2.758,2.013,4.439,2.432a1.352,1.352,0,0,1,.627.741c-.32.445-.769,1.173-1.113,1.148a139.514,139.514,0,0,1-21.531-3.976,8.1,8.1,0,0,1-5.137-3.494c-2.391-4.21-6.2-5.013-10.262-6.26-5.291-1.618-10.286-4.285-15.4-6.532a1.022,1.022,0,0,1-.426-.753,1.259,1.259,0,0,1,.84-.6c2.06-.1,4.155-.111,6.226-.173,1.1-.037,2.711,1.815,3.148-.605.142-.765-.769-2.037-1.515-2.642a15.009,15.009,0,0,0-4.486-2.63c-4.853-1.519-9.09-3.593-10.748-9.174-.556-1.877-2.249-2.692-3.788-3.544C23.832,53.343,22.6,52.7,21.37,52c-2.983-1.741-3.93-3.26-2.758-4.235,2.036-1.679,3.018.123,4.3,1.21,2.793,2.334,6.392,2.581,9.6,3.889a2.113,2.113,0,0,0,1.823-.667,1.835,1.835,0,0,0-.225-1.692c-2.675-1.679-5.421-3.26-8.155-4.8-4.273-2.4-8.51-4.84-12.061-8.371a.875.875,0,0,1-.083-.852c.142-.272.616-.667.781-.593,3.8,1.778,7.93,3.087,11.257,5.556a56.025,56.025,0,0,0,11.967,6.519c2.628,1.087,5.244,1.963,6.593,4.9.462,1.037,1.243,1.3,2.438.84a6.347,6.347,0,0,1,7.587,1.852c1.894,2.1,5.48,1.3,6.948,4.383.58,1.247,1.764.259,2.722.16,2.77-.284,5.539-.482,8.333-.642,1.752-.086,3.586,1.321,2.924,2.148-.781.988-1.693.827-2.746.7-2.1-.235-5.255-2.4-5.871.951-.379,2.062,3.1,2.111,5.125,2.482,1.846.346,3.373.938,2.344,3.519a8.221,8.221,0,0,0-.462,3.186,17.656,17.656,0,0,0,.675,3.1,14.21,14.21,0,0,1,2.284-1.8,8.351,8.351,0,0,1,2.888-.753c.9-.1,2.024,1.692,1.562,2.346a6.034,6.034,0,0,1-1.385,1.543c-1.361,1.025-3.291,1.852-2.533,4.038.663,1.9,2.557,2.26,4.332,2.457a5.734,5.734,0,0,1,1.042.111c3.953,1.1,4.2,2.371,1.373,6.8a4.565,4.565,0,0,0-.237-.864c-.095-.16-.355-.21-.533-.309.32.333.639.654.971.988" transform="translate(148.803 407.079)" fill="#C97A1F"/>
      <path id="Path_6231" data-name="Path 6231" d="M25.7,41.6c4.119-1.371,8.179,1.655,12.05,1.148,7.078-.926,13.742,1.716,20.655,1.333.793-.049,1.633.617,2.438.963a8.342,8.342,0,0,1-1.918.691c-2.426.21-4.865.4-7.291.42-2.5.025-4.853.111-6.475,2.568-.331.506-1.349,1.074-1.728.889-4.155-2.037-8.1.346-12.1.4-5.054.062-8.724-3.7-12.239-7.174-.2-.185-.331-.827-.213-.938.426-.407.994-.988,1.491-.963,1.716.086,3.433.407,5.326.667" transform="translate(204.075 464.425)" fill="#C97A1F"/>
      <path id="Path_6232" data-name="Path 6232" d="M56.8,47.923c-.438.346-1.326,1.618-2.048,1.519-4.285-.556-6.924,2.284-10.049,4.507a72.608,72.608,0,0,0-9.1,7.026,1.724,1.724,0,0,1-2.7-.321c-.225-.346.178-1.371.556-1.852,1.219-1.556,1.823-2.889-.26-4.248-.758-.482-.639-1.3.107-1.827,4.486-3.235,9.54-5.717,12.641-10.73,2.012.111,3.575-2.457,5.812-1.074-.7,3.988,3.078,2.889,4.569,4.371a1.853,1.853,0,0,1,.45.889,9.9,9.9,0,0,1,.024,1.741" transform="translate(354.176 459.703)" fill="#C97A1F"/>
      <path id="Path_6233" data-name="Path 6233" d="M44.126,23.133c1.219-.506,2.64-1.692,3.61-1.371,1.539.506,2.3,4.457,1.42,5.766-.58.864-1.432,1.531-2.1,2.358-.888,1.074-2.308,2.136-2.462,3.346-.663,5.285-1.752,10.717-1.113,15.891.414,3.321-.793,6.359-.107,9.569.331,1.543-1.243,2.445-2.592,2.778-.911.222-3.018-2.161-2.58-2.926,3.338-5.8-1.823-12.063.971-17.842-1.077-1.852,3.788-3.4.154-5.729-.876-.568.237-3.815,1.622-4.519,3.279-1.655,2.675-4.741,3.279-7.433Z" transform="translate(413.402 246.337)" fill="#C97A1F"/>
      <path id="Path_6234" data-name="Path 6234" d="M2.049,26.021c.225.025.58-.049.639.074A14.54,14.54,0,0,1,4.18,28.873c2.071,6.112,3.776,12.36,5.682,18.5,1.882,6.063,5.824,11.384,7.67,17.607a11.224,11.224,0,0,1,.6,3.1c-.024.531-.639,1.111-1.077,1.58-.083.086-.769-.173-.888-.42-2.533-5.482-5.516-10.8-7.362-16.521-1.539-4.741-3.042-9.483-4.735-14.175-1.207-3.334-2.675-6.7-2.45-10.433a15.891,15.891,0,0,1,.426-2.087" transform="translate(17.339 295.271)" fill="#C97A1F"/>
      <path id="Path_6235" data-name="Path 6235" d="M1.559,37.07c-1.267-5.211-.095-9.853.237-14.508.047-.531.817-1.062,1.338-1.482.556-.457,2.142.778,2.213,1.753a27.9,27.9,0,0,1,.272,5.42A102.064,102.064,0,0,0,6.85,58.208,1.727,1.727,0,0,1,6.7,59.27a4.6,4.6,0,0,1-1.184,1.605c-.8.519-1.5.111-1.468-.815C4.364,52.072.564,44.6,1.559,37.07" transform="translate(10.657 238.093)" fill="#C97A1F"/>
      <path id="Path_6236" data-name="Path 6236" d="M30.783,2.416c11.623,3.26,22.028,8.248,32.728,12.4.568.21.971.877,1.456,1.334a16.7,16.7,0,0,1-2.912.716,4.782,4.782,0,0,1-1.989-.556c-5.8-2.358-11.576-4.8-17.4-7.087-4.178-1.63-8.451-3.013-12.641-4.63-.331-.123-.438-1.087-.5-1.692-.024-.148.5-.469.8-.531s.686.086.45.049" transform="translate(319.979 26.689)" fill="#C97A1F"/>
      <path id="Path_6237" data-name="Path 6237" d="M.286,37.167C.286,30.389.25,25.4.345,20.424c.012-.494.84-1.222,1.409-1.371a1.821,1.821,0,0,1,1.681.654c.6,1.259,1.6,2.889,1.267,3.988-2.592,8.52-1.136,17.311-1.846,25.942a5.325,5.325,0,0,1-.13,1.074,4.918,4.918,0,0,1-.544.938c-.414-.4-1.148-.741-1.2-1.173-.627-5.013.533-10.112-.7-13.31" transform="translate(3.028 215.881)" fill="#C97A1F"/>
      <path id="Path_6238" data-name="Path 6238" d="M7.65,39.29c-.095,2.185-.142,4.371-.331,6.544-.036.358-.7.654-1.077.988-.2-.284-.521-.543-.58-.852C4.407,38.845,3.152,31.709,2,24.559a2.116,2.116,0,0,1,.982-1.7,1.792,1.792,0,0,1,2.367,1.408c1.373,4.89,2.77,9.8,2.3,15.027" transform="translate(21.633 257.863)" fill="#C97A1F"/>
      <path id="Path_6239" data-name="Path 6239" d="M40.771,48.239a20.748,20.748,0,0,1-11.1-1.247,91.321,91.321,0,0,0-8.83-2.865c-1.278-.37-3.788-.444-3.468-1.358.651-1.815,2.935-1.235,4.545-.975,3.385.519,6.735,1.272,10.1,1.963,2.651.543,5.35.963,7.93,1.753.994.309,1.089,1.679.769,2.791Z" transform="translate(187.934 470.87)" fill="#C97A1F"/>
      <path id="Path_6240" data-name="Path 6240" d="M54.975,35.833c.521,3.1-1.1,5.223-3.006,7.211-1.633,1.716-3.279,3.42-3.338,6.063l.166-.2a2.616,2.616,0,0,0-2.3,2.383l.178-.2c-1.752,1.531-3.563,3-5.22,4.63-.982.975-1.894,1.889-3.338,1.914l.166.161A7.044,7.044,0,0,1,39.8,52.811c3.871-4.988,7.765-9.977,11.789-14.829.817-.988,2.273-1.42,3.421-2.111Z" transform="translate(413.087 406.611)" fill="#C97A1F"/>
      <path id="Path_6241" data-name="Path 6241" d="M42.906,33.163c.036,1.457.189,2.914.095,4.359a10.19,10.19,0,0,1-7.291,9.285c-.509.16-1.29-.358-1.847-.729a1.75,1.75,0,0,1-.272-2.79c3.243-3.223,5.173-7.828,9.481-9.927Z" transform="translate(357.83 376.314)" fill="#C97A1F"/>
      <path id="Path_6242" data-name="Path 6242" d="M42.213,42.859a6.9,6.9,0,0,1-.935,1.8c-1.953,1.926-4.024,3.717-5.989,5.63-.734.716-1.255,1.642-2.509,1.334-.734-.173-1.6-2.457-1.3-3.717,1.113-4.667,6.569-7.742,10.3-5.791.213.111.3.494.438.741" transform="translate(340.461 471.163)" fill="#C97A1F"/>
      <path id="Path_6243" data-name="Path 6243" d="M11.792,49.227c-1.053-.877-2.426-1.556-3.1-2.679a47.883,47.883,0,0,1-5.741-15.1c-.083-.445.5-1.1.876-1.543.118-.136.829-.012.923.173,2.983,6.05,7.256,11.532,7.421,18.78Z" transform="translate(31.885 338.667)" fill="#C97A1F"/>
      <path id="Path_6244" data-name="Path 6244" d="M3.914,26.431a28.475,28.475,0,0,1,.355-3.186,5.424,5.424,0,0,1,.852-1.494c.225.272.592.506.651.8,1.314,5.865,2.616,11.73,3.811,17.62.083.42-.627,1.321-1.113,1.457a1.813,1.813,0,0,1-1.622-.741A30.827,30.827,0,0,1,3.914,26.431" transform="translate(41.929 246.818)" fill="#C97A1F"/>
      <path id="Path_6245" data-name="Path 6245" d="M22.9,37.709c3.3.556,6.38,1.074,9.457,1.605.876.148,1.29.728,1.006,1.556a3.136,3.136,0,0,1-1.03,1.729c-1.207.617-2.7,1.58-3.8,1.284a54.7,54.7,0,0,1-7.717-3.161c-.852-.37-.947-1.05-.331-1.79a2.058,2.058,0,0,1,.734-.716,12.642,12.642,0,0,1,1.681-.506" transform="translate(217.678 427.899)" fill="#C97A1F"/>
      <path id="Path_6246" data-name="Path 6246" d="M4.07,31.385c4.628,2.087,6.108,6.556,7.575,10.989a1.928,1.928,0,0,1-.911,1.642A1.911,1.911,0,0,1,8.97,43.3c-1.941-3.754-4.758-7.087-5.279-11.545Z" transform="translate(39.998 356.138)" fill="#C97A1F"/>
      <path id="Path_6247" data-name="Path 6247" d="M7.251,36.475a4.106,4.106,0,0,1,3.776,1.074c1.764,1.667,3.515,3.346,5.22,5.075,3.03,3.087,4.344,5.9,2.876,5.927-2.391.037-3.184-2.223-4.344-3.692-2.344-2.963-6.25-4.433-7.421-8.495Z" transform="translate(78.575 412.637)" fill="#C97A1F"/>
      <path id="Path_6248" data-name="Path 6248" d="M43.961,29.373c-.3,1.531-.391,2.247-.568,2.926a5.032,5.032,0,0,1-.509.926c-.249-.222-.616-.407-.722-.691C40.919,29.2,39.594,25.879,40.008,22.2c.071-.63.414-1.556.864-1.729,1.172-.482,1.835-.1,1.61,1.494-.391,2.865,2.616,5.186,1.48,7.408" transform="translate(432.706 230.084)" fill="#C97A1F"/>
      <path id="Path_6249" data-name="Path 6249" d="M43.641,26.78a17.512,17.512,0,0,1-.308,2.074,1.171,1.171,0,0,1-.675.753c-.568.1-1.349.222-1.7-.086-.473-.42-.58-1.272-.947-1.864-1.409-2.284-2.1-4.544.012-6.791A1.274,1.274,0,0,1,41,20.644c1.918.309,2.675,2.087,2.64,6.137" transform="translate(419.19 234.072)" fill="#C97A1F"/>
      <path id="Path_6250" data-name="Path 6250" d="M18.763,47.267c-4.971-.63-7.445-4.655-10.2-8.26-.118-.148.059-.667.237-.926s.627-.617.734-.543a21.513,21.513,0,0,1,9.161,9.8Z" transform="translate(92.346 425.836)" fill="#C97A1F"/>
      <path id="Path_6251" data-name="Path 6251" d="M4.048,26.6c-.237,3.383-.379,5.556-.58,7.7-.024.309-.379.58-.58.877-.4-.358-1.113-.667-1.16-1.062a48.434,48.434,0,0,1-.047-14.027c.047-.309.544-.815.615-.778.462.235,1.184.568,1.231.938.284,2.506.426,5.038.521,6.347" transform="translate(12.854 219.14)" fill="#C97A1F"/>
      <path id="Path_6252" data-name="Path 6252" d="M42.3,32.279c-.568,7.742-1.539,9-8.439,10.915l.166.2c2.864-3.593,3.965-8.668,8.416-10.94Z" transform="translate(366.881 366.283)" fill="#C97A1F"/>
      <path id="Path_6253" data-name="Path 6253" d="M46.637,12.338c-4.462-.815-7.516-4.161-11.043-6.655-.781-.556-.781-1.21-.036-1.556a9.983,9.983,0,0,1,2.864-.568l-.178-.2c2.426,3.383,7.043,4.4,8.664,8.668Z" transform="translate(379.311 38.141)" fill="#C97A1F"/>
      <path id="Path_6254" data-name="Path 6254" d="M40.4,19.279c.26.2.687.358.746.617a11.3,11.3,0,0,0,3.255,5.3c.189.185-.154,1.408-.556,1.7a6.256,6.256,0,0,1-2.675,1.148c-.331.049-1.113-.877-1.148-1.408-.142-2.124-.095-4.26-.059-6.4,0-.321.284-.642.438-.963" transform="translate(432.678 218.768)" fill="#C97A1F"/>
      <path id="Path_6255" data-name="Path 6255" d="M38.883,22.483a9.513,9.513,0,0,1,.166-2.148c.189-.58.615-1.4,1.065-1.494a1.808,1.808,0,0,1,1.562.852,31.008,31.008,0,0,1,1.574,6.149c.083.7-1.006,1.667-1.728,2.3-.189.16-1.243-.358-1.551-.815-.971-1.445-2-2.963-1.089-4.84" transform="translate(417.532 213.65)" fill="#C97A1F"/>
      <path id="Path_6256" data-name="Path 6256" d="M44.129,16.067A7.361,7.361,0,0,1,47.1,24.414a1.369,1.369,0,0,1-.746.642c-.284.123-.852.222-.935.086a15.425,15.425,0,0,1-2.663-8.088,1.455,1.455,0,0,1,.533-.926c.189-.148.556-.049.84-.062" transform="translate(463.325 182.085)" fill="#C97A1F"/>
      <path id="Path_6257" data-name="Path 6257" d="M22.9,39.733c.687.062,1.385.111,2.06.185.994.111,1.3.63.8,1.432s-1.622,1.667-1.527,2.346c.284,1.889-.379,2.741-2.012,2.766s-2.1-.938-2.1-2.729c-.012-3.7-.024-3.951,2.77-4" transform="translate(218.105 450.866)" fill="#C97A1F"/>
      <path id="Path_6258" data-name="Path 6258" d="M48,33.091c-.095,4.2-2.651,7.273-4.486,10.668a1.787,1.787,0,0,1-1.444.407,2.754,2.754,0,0,1-.533-1.9c1.2-3.741,2.533-7.421,6.155-9.458Z" transform="translate(449.63 372.274)" fill="#C97A1F"/>
      <path id="Path_6259" data-name="Path 6259" d="M9.811,11.7C9.4,16.369,6.32,19.444,3.716,22.79l-.178-.161c-.225-5.136,1.7-8.865,6.451-10.742Z" transform="translate(38.15 132.789)" fill="#C97A1F"/>
      <path id="Path_6260" data-name="Path 6260" d="M4.59,32.986c4.451,2.173,5.6,6.4,6.238,10.927l.154-.161c-4.64-2.062-5.244-6.618-6.226-10.94Z" transform="translate(49.74 372.342)" fill="#C97A1F"/>
      <path id="Path_6261" data-name="Path 6261" d="M4.681,30.126c-.071,1.062-.059,1.766-.178,2.445a1.355,1.355,0,0,1-.6.8.764.764,0,0,1-.722-.309C2.113,30.583.929,28.114,1.415,25.249c.047-.284.521-.753.663-.7.58.185,1.48.432,1.61.864.485,1.642.734,3.371.994,4.717" transform="translate(14.115 278.485)" fill="#C97A1F"/>
      <path id="Path_6262" data-name="Path 6262" d="M1.882,28.628s-.2,1.4-.485,2.778c-.059.3-.379.531-.58.79-.189-.3-.556-.58-.568-.889C.13,28.468.036,25.615,0,22.763a1.343,1.343,0,0,1,.58-.8c.462.247,1.207.568,1.243.938.142,1.42.059,2.865.059,5.729" transform="translate(0 249.177)" fill="#C97A1F"/>
      <path id="Path_6263" data-name="Path 6263" d="M28.609,6.35c-.509.136-1.48.457-2.474.642-.213.037-.734-.469-.722-.679.071-.568.284-1.556.544-1.605a52.3,52.3,0,0,1,6.048-.617c.817-.025,1.977-.012,1.906,1.3-.024.309-1.1.667-1.728.766-1.018.161-2.048.123-3.575.2" transform="translate(275.388 46.363)" fill="#C97A1F"/>
      <path id="Path_6264" data-name="Path 6264" d="M35.41,11.336c.308-.025.663-.173.923-.074a9.043,9.043,0,0,1,4.439,4.087.936.936,0,0,1-.036.815c-.166.259-.533.58-.769.543-2.628-.407-3.752-2.692-5.113-4.643-.047-.062.355-.482.556-.728" transform="translate(377.648 127.413)" fill="#C97A1F"/>
      <path id="Path_6265" data-name="Path 6265" d="M33.868,10.521c4.119-.543,5.883,2.581,7.777,5.47a2.344,2.344,0,0,1-.71.654,1.15,1.15,0,0,1-.876.173,10.4,10.4,0,0,1-6.19-6.285Z" transform="translate(367.011 118.684)" fill="#C97A1F"/>
      <path id="Path_6266" data-name="Path 6266" d="M45.835,14.147c-3.255.358-4.865-2.173-6.782-4.173-.7-.728-.627-1.321.284-1.679a1.319,1.319,0,0,1,.994.012c2.569,1.21,4.877,2.7,5.386,5.951Z" transform="translate(418.109 93.092)" fill="#C97A1F"/>
      <path id="Path_6267" data-name="Path 6267" d="M26.376,40.966c-1.018-.173-2.036-.321-3.03-.531a3.88,3.88,0,0,1-.9-.506c.2-.284.355-.766.6-.827A52.848,52.848,0,0,1,28.9,37.9c.414-.062,1.065.753,1.373,1.309.485.864.107,1.383-.864,1.457-1.018.074-2.024.2-3.03.3" transform="translate(243.236 430.075)" fill="#C97A1F"/>
      <path id="Path_6268" data-name="Path 6268" d="M23.349,40.377a6.587,6.587,0,0,1-1.184,2.074c-.793.7-2.58-.877-2.651-2.235-.083-1.506,1.231-3.05,2.308-2.667,1.042.358,1.456,1.222,1.527,2.828" transform="translate(211.428 425.416)" fill="#C97A1F"/>
      <path id="Path_6269" data-name="Path 6269" d="M40.958,37.907a11.767,11.767,0,0,1,1.858-.988,3.63,3.63,0,0,1,1.669,0,1.085,1.085,0,0,1,.2.926,40.578,40.578,0,0,1-3.125,4.248C40.2,43.6,39.727,43.18,39,39.9l-.178.2a3.194,3.194,0,0,0,2.3-2.4Z" transform="translate(420.749 417.823)" fill="#C97A1F"/>
      <path id="Path_6270" data-name="Path 6270" d="M12.4,35.846c2.06,1.185,4.143,2.321,6.143,3.605.45.284.58,1.087.864,1.655-.615.123-1.456.58-1.811.321-2.1-1.506-5.267-2.062-5.031-5.779Z" transform="translate(134.329 404.512)" fill="#C97A1F"/>
      <path id="Path_6271" data-name="Path 6271" d="M7.107,12.748c.426,2.729-1.124,4.655-2.5,6.643a5.14,5.14,0,0,1-.758.691c-.225-.63-.7-1.284-.639-1.877.249-2.544,1.042-4.791,3.717-5.618Z" transform="translate(34.759 142.831)" fill="#C97A1F"/>
      <path id="Path_6272" data-name="Path 6272" d="M38.938,43.326c-.083,1.692-2.734,3.914-4.155,3.433-.26-.086-.663-.469-.639-.642.2-1.161,3.243-3.729,4.261-3.581.213.025.355.519.533.79" transform="translate(369.99 482.599)" fill="#C97A1F"/>
      <path id="Path_6273" data-name="Path 6273" d="M25.693,40.12a8.806,8.806,0,0,1-2.131,1.333,1.975,1.975,0,0,1-1.669-.79,1.622,1.622,0,0,1,.58-2.618,5.929,5.929,0,0,1,2.983-.074c.935.161,1.1.877.237,2.148" transform="translate(232.721 429.142)" fill="#C97A1F"/>
      <path id="Path_6274" data-name="Path 6274" d="M18.675,39.74c-2.64.84-4.545-.753-6.427-2.223a1.773,1.773,0,0,1-.343-1.543,2.575,2.575,0,0,1,1.775-.679c2.663.3,4.19,1.988,4.829,4.643Z" transform="translate(128.216 400.42)" fill="#C97A1F"/>
      <path id="Path_6275" data-name="Path 6275" d="M42.017,40.75c-.059-3.717,1.681-6.421,4.38-8.594l-.047-.049c.024,3.655-.154,7.2-4.024,8.927Z" transform="translate(455.305 364.331)" fill="#C97A1F"/>
      <path id="Path_6276" data-name="Path 6276" d="M32.525,4.31c-1.148,1.568-2.332.445-3.409-.049a2.811,2.811,0,0,1-.971-1.383,2.813,2.813,0,0,1,3.61-.2c.414.259.521,1.074.769,1.63" transform="translate(304.957 24.079)" fill="#C97A1F"/>
      <path id="Path_6277" data-name="Path 6277" d="M42.043,20.8a3.285,3.285,0,0,1-1.539,3.4c-.26.185-.781.42-.876.321-.391-.407-.911-.938-.923-1.445a3.011,3.011,0,0,1,1.989-3.1c.32-.123.9.531,1.349.827" transform="translate(419.415 226.447)" fill="#C97A1F"/>
      <path id="Path_6278" data-name="Path 6278" d="M41.378,21.209c.2-.519-.45-1.815.947-1.716.237.025.462,1.222.556,1.889a7.087,7.087,0,0,1-.035,2.124,11.829,11.829,0,0,1-.722,1.926,10.591,10.591,0,0,1-.722-1.9,14.817,14.817,0,0,1-.024-2.321" transform="translate(448.002 221.134)" fill="#C97A1F"/>
      <path id="Path_6279" data-name="Path 6279" d="M2.955,20.793c-.249.852-.509,1.889-.852,2.9-.107.3-.5.716-.7.679a1.05,1.05,0,0,1-.71-.729,21.861,21.861,0,0,1-.355-4.2c.024-.568.769-1.1,1.2-1.655.391.58.829,1.124,1.172,1.741a4.992,4.992,0,0,1,.249,1.259" transform="translate(3.531 201.905)" fill="#C97A1F"/>
      <path id="Path_6280" data-name="Path 6280" d="M32.192,42.3c1.409.136,2.213.852,2.3,1.889.095,1.3-1.065,1.531-2,1.432-.592-.062-1.136-.617-1.7-.938.5-.84.994-1.679,1.409-2.383" transform="translate(333.591 479.949)" fill="#C97A1F"/>
      <path id="Path_6281" data-name="Path 6281" d="M27.61,41.168a2.087,2.087,0,0,1-1.965,1.938,1.882,1.882,0,0,1-2.249-1.42c-.367-1.543.947-1.42,1.823-1.531a2.051,2.051,0,0,1,2.391,1.013" transform="translate(252.844 455.185)" fill="#C97A1F"/>
      <path id="Path_6282" data-name="Path 6282" d="M8.642,13.124a7.027,7.027,0,0,1-1.373,2.507c-.367.37-1.207.321-1.823.3-.213-.012-.615-.617-.556-.815.473-1.383,1.065-2.729,2.805-2.667.272.012.994.531.947.679" transform="translate(52.92 141.195)" fill="#C97A1F"/>
      <path id="Path_6283" data-name="Path 6283" d="M41.544,8.847a24.641,24.641,0,0,1,3.634,1.568c.746.469,1.775,1.445.9,2.4-.533.58-1.776.432-2.7.605l.142.148-1.918-2-.639-.753a3.054,3.054,0,0,1,.13-1.42Z" transform="translate(443.552 100.392)" fill="#C97A1F"/>
      <path id="Path_6284" data-name="Path 6284" d="M26.166,5.3a17.448,17.448,0,0,1,2.995-.148c.923.086,1.929.37,2.1,1.642.154,1.111-1.775,2.247-3.018,1.741A3.032,3.032,0,0,1,26.06,5.427Z" transform="translate(282.352 58.127)" fill="#C97A1F"/>
      <path id="Path_6285" data-name="Path 6285" d="M36.521,30.583A15.736,15.736,0,0,1,39.2,29.558c.379-.074.935.432,1.278.8a1.072,1.072,0,0,1-.047.963c-.722,1.012-1.468,2.445-2.841,1.766-.58-.284-.616-1.766-.9-2.7Z" transform="translate(395.76 335.321)" fill="#C97A1F"/>
      <path id="Path_6286" data-name="Path 6286" d="M32.713,7.366c-1.042.074-2.1.148-3.137.21-1.385.074-2.805.284-3.918-.877-.154-.161-.272-.605-.189-.7,1.456-1.617,3.255-.975,4.888-.568.9.235,1.645,1.185,2.462,1.815Z" transform="translate(275.699 56.189)" fill="#C97A1F"/>
      <path id="Path_6287" data-name="Path 6287" d="M38.273,31.63c-.083-2.062-.58-4.223,1.125-5.89a1.107,1.107,0,0,1,.935-.086c.284.111.758.531.71.679-.592,1.951-.687,4.223-2.924,5.161Z" transform="translate(413.077 290.403)" fill="#C97A1F"/>
      <path id="Path_6288" data-name="Path 6288" d="M4.133,23.517c-.521.568-1.053,1.63-1.977.617a1.848,1.848,0,0,1,.095-1.679A1.763,1.763,0,0,1,3.778,21.9c.8.173.911.852.355,1.617" transform="translate(21.6 248.226)" fill="#C97A1F"/>
      <path id="Path_6289" data-name="Path 6289" d="M39.606,22.543a12.113,12.113,0,0,1-.509,1.729c-1.184-.2-.935-1.272-.888-2.062.024-.519.5-1.012.781-1.519.2.617.414,1.235.615,1.852" transform="translate(413.471 234.79)" fill="#C97A1F"/>
      <path id="Path_6290" data-name="Path 6290" d="M41.784,20.9c-.189.605-.367,1.222-.556,1.827a8.788,8.788,0,0,1-.935-2.185,3.017,3.017,0,0,1,.473-1.655c1.1.2,1.03,1.136,1.018,2.013" transform="translate(436.494 214.308)" fill="#C97A1F"/>
      <path id="Path_6291" data-name="Path 6291" d="M4.955,19.1c-.237-.222-.675-.457-.675-.679a24.577,24.577,0,0,1,.237-2.951c.012-.062.4-.074.6-.111.154.963.355,1.939.414,2.914.024.259-.379.556-.58.827" transform="translate(46.38 174.297)" fill="#C97A1F"/>
      <path id="Path_6292" data-name="Path 6292" d="M38.89,16.4l-.616.827c-.675-.728-1.338-1.469-2.012-2.2.272-.222.544-.605.829-.617,1.231-.025,1.882.642,1.8,1.988" transform="translate(392.953 163.517)" fill="#C97A1F"/>
      <path id="Path_6293" data-name="Path 6293" d="M5.837,13.026a20.826,20.826,0,0,1,.237,3.186c-.036.432-.592.827-.9,1.247a17.486,17.486,0,0,1-.367-2.8c.012-.432.521-.864,1.03-1.63" transform="translate(52.091 147.813)" fill="#C97A1F"/>
      <path id="Path_6294" data-name="Path 6294" d="M39.186,8.8c1.089.827,2.19,1.63,3.243,2.494a.933.933,0,0,1,.142.877,1.067,1.067,0,0,1-1.8.333A4.081,4.081,0,0,1,39.3,8.685Z" transform="translate(424.639 98.554)" fill="#C97A1F"/>
      <path id="Path_6295" data-name="Path 6295" d="M28.774,2.965c.426-.84,1.042-1.012,1.693-.321a9.65,9.65,0,0,1,1.053,1.7c-.639.136-1.4.556-1.87.321-.45-.21-.6-1.111-.876-1.7" transform="translate(311.809 25.14)" fill="#C97A1F"/>
      <path id="Path_6296" data-name="Path 6296" d="M22.8,39.281c.095-.235.178-.654.284-.654a20.007,20.007,0,0,1,2.722-.074c.154.012.3.445.438.679a4.874,4.874,0,0,1-1.716.753c-.568.012-1.148-.457-1.728-.7" transform="translate(247.04 437.279)" fill="#C97A1F"/>
      <path id="Path_6297" data-name="Path 6297" d="M34.1,37.322a2.271,2.271,0,0,1,1.989,1.963c.047.346-.615,1.1-1.042,1.21-1.184.3-1.87-.506-1.87-1.667.024-.506.6-1.013.923-1.506" transform="translate(359.533 423.507)" fill="#C97A1F"/>
      <path id="Path_6298" data-name="Path 6298" d="M32.078,39.259c-.615,1.074-1.491,1.4-2.391.58-.249-.222-.107-1.3.2-1.679.343-.444,1.077-.556,1.645-.815.178.642.367,1.284.544,1.914" transform="translate(320.33 423.768)" fill="#C97A1F"/>
      <path id="Path_6299" data-name="Path 6299" d="M15.059,36.444c.58.728,1.16,1.457,1.74,2.2-.473.284-.971.827-1.432.8-1.006-.074-1.87-.654-1.669-1.889.071-.383.781-.654,1.361-1.111" transform="translate(148.119 413.544)" fill="#C97A1F"/>
      <path id="Path_6300" data-name="Path 6300" d="M8.072,36.367c-.225.259-.4.63-.663.728A.961.961,0,0,1,6.5,36.96,3.26,3.26,0,0,1,5.7,35.219c.059-1,.722-1.2,1.349-.482a12.267,12.267,0,0,1,1.018,1.63" transform="translate(61.799 389.322)" fill="#C97A1F"/>
      <path id="Path_6301" data-name="Path 6301" d="M34.712,34.805a15.78,15.78,0,0,1,1.574-2.568c.272-.3,1.042-.1,1.6-.123-.166.58-.154,1.494-.509,1.679a13.242,13.242,0,0,1-2.805.84Z" transform="translate(374.618 363.93)" fill="#C97A1F"/>
      <path id="Path_6302" data-name="Path 6302" d="M22.54,3.242l.829.333a13.394,13.394,0,0,1-1.207.7c-.047.025-.272-.4-.414-.617l.793-.42" transform="translate(235.661 36.79)" fill="#C97A1F"/>
      <path id="Path_6303" data-name="Path 6303" d="M39.057,6.846A7.46,7.46,0,0,1,37.01,6.6c-.391-.148-.6-.766-.9-1.173a3.034,3.034,0,0,1,.876-.469c.687-.111,1.385-.111,2.071-.161l-.178-.2V7.031Z" transform="translate(391.306 52.189)" fill="#C97A1F"/>
      <path id="Path_6304" data-name="Path 6304" d="M16.934,5.511a9.77,9.77,0,0,1-1.693.728c-.142.037-.426-.457-.651-.7a10.545,10.545,0,0,1,1.693-.716c.154-.037.426.445.651.691" transform="translate(158.105 54.672)" fill="#C97A1F"/>
      <path id="Path_6305" data-name="Path 6305" d="M39.275,18.74c-.544-.37-1.314-.63-1.562-1.161-.225-.457.118-1.222.213-1.864.414.333,1.042.58,1.172,1a7.9,7.9,0,0,1,.071,2.124Z" transform="translate(407.86 178.326)" fill="#C97A1F"/>
      <path id="Path_6306" data-name="Path 6306" d="M37.766,16.059c.521.309,1.231.482,1.491.938.237.42-.024,1.136-.071,1.716-.379-.259-.959-.457-1.113-.827a7.8,7.8,0,0,1-.2-1.926Z" transform="translate(409.251 181.106)" fill="#C97A1F"/>
      <path id="Path_6307" data-name="Path 6307" d="M39.993,19.538a5.423,5.423,0,0,1-1.6-1.1,1.011,1.011,0,0,1,.556-1.642c.083-.037.462.506.533.827.154.679.213,1.4.308,2.087Z" transform="translate(413.499 190.579)" fill="#C97A1F"/>
      <path id="Path_6308" data-name="Path 6308" d="M38.3,17.19a16.721,16.721,0,0,1,1.432,1.494,1.117,1.117,0,0,1,.154,1c-.545.79-.971.568-1.113-.543l-.284-2.124Z" transform="translate(415.005 193.1)" fill="#C97A1F"/>
      <path id="Path_6309" data-name="Path 6309" d="M44.718,20.321c-.521-.37-1.266-.654-1.5-1.173-.213-.469.118-1.222.213-1.84.355.346.911.642,1.03,1.074a8.863,8.863,0,0,1,.107,2.111Z" transform="translate(467.542 196.402)" fill="#C97A1F"/>
      <path id="Path_6310" data-name="Path 6310" d="M38.415,17.635a10.443,10.443,0,0,1,.533,1.741c.036.173-.4.42-.615.642a9.8,9.8,0,0,1-.521-1.679c-.024-.2.379-.444.6-.7" transform="translate(409.727 200.113)" fill="#C97A1F"/>
      <path id="Path_6311" data-name="Path 6311" d="M44.132,21.5c.272.136.734.235.781.42.154.716-.3,1.05-1.136.8a.831.831,0,0,1-.367-.716c.107-.235.473-.346.722-.506" transform="translate(470.282 244.004)" fill="#C97A1F"/>
      <path id="Path_6312" data-name="Path 6312" d="M43.4,22.348c.284-.111.6-.383.84-.309.9.259.994.778.237,1.247-.2.123-.651-.025-.9-.2-.142-.111-.118-.482-.178-.741" transform="translate(470.261 249.95)" fill="#C97A1F"/>
      <path id="Path_6313" data-name="Path 6313" d="M39.435,26.07a7.83,7.83,0,0,1-.059,2.111c-.118.42-.722.7-1.1,1.05-.095-.63-.426-1.371-.2-1.852.237-.519.994-.79,1.515-1.173Z" transform="translate(411.76 295.827)" fill="#C97A1F"/>
      <path id="Path_6314" data-name="Path 6314" d="M9.2,32.876c-1.645-.938-1.953-2.593-2.154-4.322l-.154.148h2.32l-.166-.148c-.012,1.494-.024,3-.047,4.507Z" transform="translate(74.674 324.014)" fill="#C97A1F"/>
      <path id="Path_6315" data-name="Path 6315" d="M7.069,29.09c.473.383,1.124.679,1.385,1.185.213.42-.024,1.087-.059,1.642a4.492,4.492,0,0,1-.829-1.111,9.933,9.933,0,0,1-.3-1.9Z" transform="translate(76.603 327.997)" fill="#C97A1F"/>
      <path id="Path_6316" data-name="Path 6316" d="M1.881,30.307c.095-.222.189-.63.284-.63a3.45,3.45,0,0,1,.888.259c-.095.222-.189.63-.272.63a3.4,3.4,0,0,1-.9-.259" transform="translate(20.383 336.757)" fill="#C97A1F"/>
      <path id="Path_6317" data-name="Path 6317" d="M7.976,30.288c-.024.2.012.519-.083.568a1.059,1.059,0,0,1-.781.123c-.888-.383-.84-.766.107-.951.225-.037.5.173.758.259" transform="translate(70.18 340.702)" fill="#C97A1F"/>
      <path id="Path_6318" data-name="Path 6318" d="M35.779,33.813c-.213-.21-.663-.482-.627-.654a10.963,10.963,0,0,1,.615-1.679c.225.235.651.506.616.679a10.928,10.928,0,0,1-.6,1.655" transform="translate(380.901 357.205)" fill="#C97A1F"/>
      <path id="Path_6319" data-name="Path 6319" d="M4.893,34.553l-.675.642a11.793,11.793,0,0,1-.651-1.667c-.036-.136.4-.407.627-.617.237.543.462,1.1.7,1.642" transform="translate(38.63 373.454)" fill="#C97A1F"/>
      <path id="Path_6320" data-name="Path 6320" d="M32.8,35.07l-.32.753c-.237-.346-.462-.7-.686-1.062.2-.136.4-.272.615-.407l.391.716" transform="translate(344.492 389.829)" fill="#C97A1F"/>
      <path id="Path_6321" data-name="Path 6321" d="M32.841,36.7a11,11,0,0,1-.722-1.741c-.036-.148.473-.432.722-.667a13.076,13.076,0,0,1,.71,1.766c.036.148-.462.42-.71.642" transform="translate(348.034 389.182)" fill="#C97A1F"/>
      <path id="Path_6322" data-name="Path 6322" d="M33.916,34.59c-.13,1.062-.639,1.926-1.681,2.013-.462.049-.982-.556-1.48-.864.189-.235.367-.63.592-.679.9-.16,1.835-.21,2.746-.309Z" transform="translate(333.287 392.507)" fill="#C97A1F"/>
      <path id="Path_6323" data-name="Path 6323" d="M39.883,38.581a8.091,8.091,0,0,1,.095-2.013c.118-.444.616-.778.947-1.161.083.58.391,1.259.2,1.7-.249.543-.923.877-1.409,1.3Z" transform="translate(430.393 401.789)" fill="#C97A1F"/>
      <path id="Path_6324" data-name="Path 6324" d="M14.522,37.79a7.642,7.642,0,0,1,1.846.074c.414.124.734.593,1.1.914-.521.1-1.16.407-1.562.21-.5-.235-.8-.9-1.207-1.383Z" transform="translate(157.368 426.719)" fill="#C97A1F"/>
      <path id="Path_6325" data-name="Path 6325" d="M32.086,37.776a5.855,5.855,0,0,1,1.811.111c.355.136.533.753.781,1.161-.533.062-1.219.358-1.586.111-.426-.272-.58-1.012-.864-1.556Z" transform="translate(347.7 426.696)" fill="#C97A1F"/>
      <path id="Path_6326" data-name="Path 6326" d="M29.747,39.447c.4-.531.722-1.259,1.243-1.531.426-.222,1.113.111,1.681.2-.355.333-.675.852-1.1.988a8.633,8.633,0,0,1-1.965.173Z" transform="translate(320.815 429.396)" fill="#C97A1F"/>
      <path id="Path_6327" data-name="Path 6327" d="M32.022,37.957c-.3.568-.462,1.358-.911,1.63-.414.247-1.136-.062-1.728-.136.272-.407.473-1.062.84-1.2a6.721,6.721,0,0,1,1.941-.123Z" transform="translate(318.398 430.713)" fill="#C97A1F"/>
      <path id="Path_6328" data-name="Path 6328" d="M16.824,43.421c-.616-.136-1.243-.247-1.858-.407a2.208,2.208,0,0,1-.84-.358c.107-.716.663-.975,1.361-.494a6.5,6.5,0,0,1,1.172,1.469Z" transform="translate(153.066 475.638)" fill="#C97A1F"/>
      <path id="Path_6329" data-name="Path 6329" d="M14.339,42.248a9.736,9.736,0,0,1,2,.136,5.1,5.1,0,0,1,1.278.84c-.249.173-.485.457-.746.494a1.358,1.358,0,0,1-.935-.235A20.183,20.183,0,0,1,14.5,42.038Z" transform="translate(155.385 477.021)" fill="#C97A1F"/>
      <path id="Path_6330" data-name="Path 6330" d="M20.976,43c-.13.309-.189.827-.391.889-.663.21-1.006-.284-.829-1.235.035-.21.473-.346.722-.519l.5.864" transform="translate(213.588 478.156)" fill="#C97A1F"/>
      <path id="Path_6331" data-name="Path 6331" d="M21.8,42.332c-.024.222.024.568-.083.63a1.236,1.236,0,0,1-.888.173c-1.006-.4-.959-.827.107-1.037.26-.049.58.148.864.235" transform="translate(217.909 477.604)" fill="#C97A1F"/>
      <path id="Path_6332" data-name="Path 6332" d="M16.514,42.959c-.26.074-.544.259-.781.21-.888-.2-.971-.556-.249-.852a1.1,1.1,0,0,1,.8.1c.13.062.154.358.225.543" transform="translate(162.525 479.694)" fill="#C97A1F"/>
      <path id="Path_6333" data-name="Path 6333" d="M28.723,42.791c.58.259,1.1.494,1.622.716-.213.235-.485.7-.639.654a8.863,8.863,0,0,1-1.586-.667l.6-.7" transform="translate(304.711 485.566)" fill="#C97A1F"/>
      <path id="Path_6334" data-name="Path 6334" d="M35.455,4.228c.166-.309.331-.617.485-.926-.213.247-.438.494-.663.741Z" transform="translate(382.279 37.471)" fill="#C97A1F"/>
      <path id="Path_6335" data-name="Path 6335" d="M16.075,5.5c-.3-.136-.6-.259-.9-.4.237.2.485.383.734.58Z" transform="translate(164.444 57.897)" fill="#C97A1F"/>
      <path id="Path_6336" data-name="Path 6336" d="M21.746,5.191l.3.7L21.32,5.82Z" transform="translate(231.037 58.901)" fill="#C97A1F"/>
      <path id="Path_6337" data-name="Path 6337" d="M37.779,7.544l-.639.235.071-.617Z" transform="translate(402.461 81.265)" fill="#C97A1F"/>
      <path id="Path_6338" data-name="Path 6338" d="M32.972,11.669c.154-.309.32-.605.473-.914-.225.247-.438.494-.651.728Z" transform="translate(355.372 122.043)" fill="#C97A1F"/>
      <path id="Path_6339" data-name="Path 6339" d="M4.241,12.7c.249-.358.485-.716.746-1.074a1.675,1.675,0,0,1-.26.457,4.875,4.875,0,0,1-.675.432Z" transform="translate(43.909 131.972)" fill="#C97A1F"/>
      <path id="Path_6340" data-name="Path 6340" d="M5.573,12.519l-.2-.741.556.062Z" transform="translate(58.209 133.652)" fill="#C97A1F"/>
      <path id="Path_6341" data-name="Path 6341" d="M3.423,13.867c.154.222.45.469.426.679s-.355.37-.556.556c-.154-.222-.45-.469-.426-.667s.355-.383.556-.568" transform="translate(31.045 157.356)" fill="#C97A1F"/>
      <path id="Path_6342" data-name="Path 6342" d="M3.384,14.215c.2.272.568.543.544.778s-.544.679-.639.617c-.864-.482-.817-.988.095-1.4" transform="translate(28.93 161.305)" fill="#C97A1F"/>
      <path id="Path_6343" data-name="Path 6343" d="M4.462,14.895l.627-.284-.071.691Z" transform="translate(48.349 165.795)" fill="#C97A1F"/>
      <path id="Path_6344" data-name="Path 6344" d="M44.492,15.694c.3-.346.6-.7.911-1.05-.083.21-.095.519-.237.617a2.688,2.688,0,0,1-.84.259Z" transform="translate(480.339 166.173)" fill="#C97A1F"/>
      <path id="Path_6345" data-name="Path 6345" d="M43.264,17.713,44.27,18.8c-.213-.086-.544-.111-.639-.272a3.649,3.649,0,0,1-.213-.975Z" transform="translate(468.83 199.171)" fill="#C97A1F"/>
      <path id="Path_6346" data-name="Path 6346" d="M41.76,18.87l-.544.21.083-.568Z" transform="translate(446.636 210.066)" fill="#C97A1F"/>
      <path id="Path_6347" data-name="Path 6347" d="M41.7,20.627l.166.593-.473-.074Z" transform="translate(448.53 234.062)" fill="#C97A1F"/>
      <path id="Path_6348" data-name="Path 6348" d="M39.66,22.768c-.367-.346-.722-.691-1.089-1.037.225.074.556.062.663.222a3.265,3.265,0,0,1,.32.926Z" transform="translate(417.975 246.591)" fill="#C97A1F"/>
      <path id="Path_6349" data-name="Path 6349" d="M.6,23.495l-.544.222.083-.593Z" transform="translate(0.604 262.404)" fill="#C97A1F"/>
      <path id="Path_6350" data-name="Path 6350" d="M6.957,29.9l-.166-.556.485.074Z" transform="translate(73.596 332.99)" fill="#C97A1F"/>
      <path id="Path_6351" data-name="Path 6351" d="M37.109,30.151c-.237.531-.462,1.074-.7,1.605-1.3-1.482.154-1.235.84-1.457Z" transform="translate(388.898 342.136)" fill="#C97A1F"/>
      <path id="Path_6352" data-name="Path 6352" d="M36.8,31.257l-.639.593c-.166-.235-.5-.482-.473-.7s.379-.4.592-.593l.521.7" transform="translate(386.743 346.697)" fill="#C97A1F"/>
      <path id="Path_6353" data-name="Path 6353" d="M5.536,33.63c-.343-.3-.675-.593-1.018-.889.166.086.4.123.5.259a4.414,4.414,0,0,1,.355.8Z" transform="translate(48.959 371.525)" fill="#C97A1F"/>
      <path id="Path_6354" data-name="Path 6354" d="M41.56,32.911l.544-.2-.095.556Z" transform="translate(450.359 371.206)" fill="#C97A1F"/>
      <path id="Path_6355" data-name="Path 6355" d="M42.512,33.631c-.2.185-.426.519-.616.506s-.367-.383-.544-.593c.213-.185.426-.519.615-.506s.367.383.545.593" transform="translate(448.111 374.895)" fill="#C97A1F"/>
      <path id="Path_6356" data-name="Path 6356" d="M32.979,33.2c.545.284,1.1.568,1.645.852-1.48,1.593-1.314-.111-1.622-.877Z" transform="translate(357.377 376.427)" fill="#C97A1F"/>
      <path id="Path_6357" data-name="Path 6357" d="M11.041,33.594l.556-.173-.083.519Z" transform="translate(119.643 379.238)" fill="#C97A1F"/>
      <path id="Path_6358" data-name="Path 6358" d="M33.6,34.018l-.734.272.071-.7Z" transform="translate(356.208 381.112)" fill="#C97A1F"/>
      <path id="Path_6359" data-name="Path 6359" d="M5.117,33.848l2.1,2.185.189-.185c-.71-.716-1.42-1.432-2.142-2.148Z" transform="translate(55.45 382.407)" fill="#C97A1F"/>
      <path id="Path_6360" data-name="Path 6360" d="M5.294,34.059l1.065.963c-.2-.086-.485-.111-.58-.259a3.257,3.257,0,0,1-.3-.889Z" transform="translate(57.368 384.382)" fill="#C97A1F"/>
      <path id="Path_6361" data-name="Path 6361" d="M31.022,34.589c1.432.691,1.48,1.4.012,2.111l.178.16c.012-.815.012-1.63.012-2.457Z" transform="translate(336.17 390.396)" fill="#C97A1F"/>
      <path id="Path_6362" data-name="Path 6362" d="M14.129,36.4c-.32-.136-.911-.3-.911-.4.059-.716.367-.519.734.568Z" transform="translate(143.237 403.761)" fill="#C97A1F"/>
      <path id="Path_6363" data-name="Path 6363" d="M13.28,35.821c.367.346.734.679,1.089,1.025-.237-.074-.592-.074-.686-.235a3.086,3.086,0,0,1-.225-.963Z" transform="translate(143.909 404.512)" fill="#C97A1F"/>
      <path id="Path_6364" data-name="Path 6364" d="M41.6,35.651a2.149,2.149,0,0,1-2.06,2.247l.036.049c.095-1.42.781-2.173,2.19-2.124Z" transform="translate(428.519 404.546)" fill="#C97A1F"/>
      <path id="Path_6365" data-name="Path 6365" d="M8.257,37.432c-.911-.123-1.267-.519-1.006-1.161.012-.012.58.086.675.259a3.405,3.405,0,0,1,.225,1.012Z" transform="translate(77.676 411.569)" fill="#C97A1F"/>
      <path id="Path_6366" data-name="Path 6366" d="M13.543,36.839l-.189-.58.533.1Z" transform="translate(144.707 411.446)" fill="#C97A1F"/>
      <path id="Path_6367" data-name="Path 6367" d="M15.436,38.49c-.331-.321-.651-.642-.982-.963.2.086.485.111.568.272a2.976,2.976,0,0,1,.237.877Z" transform="translate(156.631 425.834)" fill="#C97A1F"/>
      <path id="Path_6368" data-name="Path 6368" d="M38.5,37.6c-.142.309-.272.63-.414.938.189-.259.379-.519.58-.778Z" transform="translate(412.708 426.662)" fill="#C97A1F"/>
      <path id="Path_6369" data-name="Path 6369" d="M9.381,38.39c.485.247.971.494,1.456.753-1.338,1.334-1.1-.235-1.385-.827Z" transform="translate(101.657 434.787)" fill="#C97A1F"/>
      <path id="Path_6370" data-name="Path 6370" d="M19.851,38.363l.6.617c-.225.173-.544.543-.663.482-.852-.4-.8-.8.059-1.1" transform="translate(207.812 435.32)" fill="#C97A1F"/>
      <path id="Path_6371" data-name="Path 6371" d="M35.42,40.294l-.249-.84.639.062Z" transform="translate(381.138 447.702)" fill="#C97A1F"/>
      <path id="Path_6372" data-name="Path 6372" d="M34.813,40.731l.6-.21-.083.58Z" transform="translate(377.249 459.806)" fill="#C97A1F"/>
      <path id="Path_6373" data-name="Path 6373" d="M14.458,41.564l-.568.173.083-.519Z" transform="translate(150.515 467.721)" fill="#C97A1F"/>
      <path id="Path_6374" data-name="Path 6374" d="M15.876,42.488c-.355-.3-.722-.58-1.077-.877.213.049.509.037.616.173a3.216,3.216,0,0,1,.308.864Z" transform="translate(160.369 472.176)" fill="#C97A1F"/>
      <path id="Path_6375" data-name="Path 6375" d="M14.877,41.843c.391.333.769.667,1.16,1-.249-.062-.6-.025-.722-.185a3.1,3.1,0,0,1-.284-.975Z" transform="translate(161.215 472.982)" fill="#C97A1F"/>
      <path id="Path_6376" data-name="Path 6376" d="M19.317,42.1c.308.161.888.4.864.469-.166.729-.485.531-.8-.531Z" transform="translate(209.329 477.067)" fill="#C97A1F"/>
      <path id="Path_6377" data-name="Path 6377" d="M33.552,43.422l.7-.247-.047.617Z" transform="translate(363.587 489.924)" fill="#C97A1F"/>
      <path id="Path_6378" data-name="Path 6378" d="M9,21.975c.817-1.939,1.622-3.877,2.45-5.8a4.27,4.27,0,0,1,3.871-2.9l-.166-.148a38.24,38.24,0,0,1,.047,5.334c-.5,4.1-1.8,4.729-6.356,3.383Z" transform="translate(95.849 148.902)" fill="#C97A1F"/>
      <path id="Path_6379" data-name="Path 6379" d="M14.2,16.231A8.323,8.323,0,0,1,9.41,22.417c-.272.123-.84.086-.971-.1-.331-.506-.829-1.247-.687-1.7.947-2.852,3.2-4.272,5.764-5.235.107-.037.4.494.687.852" transform="translate(83.743 174.489)" fill="#C97A1F"/>
      <path id="Path_6380" data-name="Path 6380" d="M9.544,20.249c-.272-3.149,1.266-5.371,3.433-7.223a4.57,4.57,0,0,1,1.693-.519c.13.642.521,1.383.343,1.889a9.651,9.651,0,0,1-5.634,5.7Z" transform="translate(101.625 141.923)" fill="#C97A1F"/>
      <path id="Path_6381" data-name="Path 6381" d="M14.866,14.535c-1.4-.605-2.509-1.815-1.965-3.247a4.163,4.163,0,0,1,3.93-2.926c.769,0,1.811,1.766,1.3,2.42C17.079,12.152,15.86,13.4,14.712,14.7Z" transform="translate(138.275 94.877)" fill="#C97A1F"/>
      <path id="Path_6382" data-name="Path 6382" d="M7.082,18.652a8.636,8.636,0,0,1,3.042-7.359c.024-.012.556.407.592.667.544,3.321-1.349,5.1-3.823,6.507Z" transform="translate(74.696 128.148)" fill="#C97A1F"/>
      <path id="Path_6383" data-name="Path 6383" d="M13.637,12.392c.071-2.321.769-4.223,3.2-4.828a4.208,4.208,0,0,1,1.835-.1c.9.2.58,1.815-.58,2.457-1.5.827-3.077,1.531-4.628,2.284Z" transform="translate(145.848 84.006)" fill="#C97A1F"/>
      <path id="Path_6384" data-name="Path 6384" d="M7.181,23.689c-.32-.407-.84-.79-.911-1.247-.142-.9-.107-1.9.971-2.26.107-.037.462.444.568.741a2.438,2.438,0,0,1-.627,2.766" transform="translate(67.294 228.99)" fill="#C97A1F"/>
      <path id="Path_6385" data-name="Path 6385" d="M8.7,21.414c-.5-.074-.911-.062-.935-.148a14.693,14.693,0,0,1-.485-2.84c0-.2.793-.482,1.255-.58.118-.037.521.494.509.741-.047.951-.225,1.889-.343,2.828" transform="translate(78.89 202.482)" fill="#C97A1F"/>
      <path id="Path_6386" data-name="Path 6386" d="M9.594,18.542c-.355.679-.769,1.494-1.2,2.309a11.331,11.331,0,0,1-.769-2.667c-.024-.519.615-1.062.959-1.593.3.568.58,1.136,1.006,1.951" transform="translate(82.671 188.266)" fill="#C97A1F"/>
      <path id="Path_6387" data-name="Path 6387" d="M7.09,18.114c-.154.691.331,1.827-.935,1.79-.189-.012-.5-1.124-.473-1.7a5.9,5.9,0,0,1,.592-1.753c.272.556.544,1.1.817,1.667" transform="translate(61.55 186.632)" fill="#C97A1F"/>
      <path id="Path_6388" data-name="Path 6388" d="M15.235,11.794c.071-.975.118-1.963.249-2.926.047-.3.343-.556.521-.827.3.482.935,1.161.817,1.383a13.09,13.09,0,0,1-1.764,2.161Z" transform="translate(163.165 91.235)" fill="#C97A1F"/>
      <path id="Path_6389" data-name="Path 6389" d="M17.647,8.327c-.355.593-.58,1.4-1.089,1.7-.414.247-1.148-.086-1.74-.173.308-.42.568-1.025.971-1.173a6.91,6.91,0,0,1,2.036-.136Z" transform="translate(160.575 94.492)" fill="#C97A1F"/>
      <path id="Path_6390" data-name="Path 6390" d="M7.6,14.185c0-1.543,0-3.074.012-4.618,2.355,2.581,2.355,2.581-.012,4.618" transform="translate(82.401 108.562)" fill="#C97A1F"/>
      <path id="Path_6391" data-name="Path 6391" d="M10.384,13.828c-.083.975-.13,1.951-.284,2.914-.036.259-.391.457-.592.691-.284-.543-.829-1.1-.8-1.63a1.869,1.869,0,0,1,1.835-1.84Z" transform="translate(94.309 156.913)" fill="#C97A1F"/>
      <path id="Path_6392" data-name="Path 6392" d="M6.007,18.445c.118-.679.2-1.358.355-2.025.083-.321.32-.877.426-.864.769.1,1.018.7.509,1.457A7.031,7.031,0,0,1,5.829,18.26Z" transform="translate(63.166 176.521)" fill="#C97A1F"/>
      <path id="Path_6393" data-name="Path 6393" d="M11.46,8.264c.32-.358.627-.716.935-1.074-.059.222-.071.531-.213.63a3.208,3.208,0,0,1-.852.309Z" transform="translate(122.778 81.59)" fill="#C97A1F"/>
      <path id="Path_6394" data-name="Path 6394" d="M13.892,7.792c-.154.321-.32.642-.473.975l.651-.79Z" transform="translate(145.415 88.421)" fill="#C97A1F"/>
      <path id="Path_6395" data-name="Path 6395" d="M17.349,9.977c-.769,0-1.527.012-2.3.012.758-1.8,1.527-1.42,2.3-.012" transform="translate(163.122 99.583)" fill="#C97A1F"/>
      <path id="Path_6396" data-name="Path 6396" d="M12.925,9.022l1.633.7c-1.515,1.605-1.148-.3-1.48-.864Z" transform="translate(140.062 100.551)" fill="#C97A1F"/>
      <path id="Path_6397" data-name="Path 6397" d="M7.761,11.874c0,.951-.32,1.383-.947,1.272.047-.259.024-.63.178-.741a2.912,2.912,0,0,1,.947-.346Z" transform="translate(73.84 134.741)" fill="#C97A1F"/>
      <path id="Path_6398" data-name="Path 6398" d="M13.469,13.251c-.769,0-1.551,0-2.32.012.769-1.741,1.539-1.185,2.32-.012" transform="translate(120.816 137.932)" fill="#C97A1F"/>
      <path id="Path_6399" data-name="Path 6399" d="M6.165,15.775,5.8,16.75l.544-.79Z" transform="translate(62.83 179.007)" fill="#C97A1F"/>
      <path id="Path_6400" data-name="Path 6400" d="M6.967,23.3l.213.654-.58-.086Z" transform="translate(71.517 264.374)" fill="#C97A1F"/>
      <path id="Path_6401" data-name="Path 6401" d="M36.4,69.4c-1.669-4.482.639-8.421,1.622-12.52a2.057,2.057,0,0,1,2.4-1.556c1.728.358,2.687-.358,2.722-2.148.047-2.9.059-5.742-1.941-8.236-1.361-1.692-1.089-1.864-1.16-7.729a25.879,25.879,0,0,0-1.042-5.3c-.533-2.3-.367-4.2,1.87-5.593a32.2,32.2,0,0,0,3.989-3.457c.7-.605,1.29-.593,1.74.086,1.965,2.9,5.255,4.754,6.155,8.495.379,1.568.308,2.815-1.527,3.26a6.624,6.624,0,0,0-1.918.827c-1.775,1.124-3.113,2.05-2.829,4.988A41.618,41.618,0,0,1,44.96,55.311c-1.326,4.9-2.344,9.816-2,14.99.13,2.111-.545,4.285-.947,6.408-1.089,5.643-3.551,10.952-2.888,17,.331,2.976-1.775,5.4-3.421,7.742-.166.235-.722.457-.888.346-.473-.333-1.266-.9-1.207-1.247,1.361-8.915,2.7-17.842,5.279-26.5l-.154.173c1.077-.8,1.787-1.617,0-2.42l.166.21L36.982,69.98Z" transform="translate(364.169 254.449)" fill="#C97A1F"/>
      <path id="Path_6402" data-name="Path 6402" d="M45.426,43.775c3.717,2.346,4.474,6.013,4.356,10.2-.237,8.088-2.734,15.607-5.137,23.164A1.757,1.757,0,0,1,43,77.853a2,2,0,0,1-.935-1.679c.793-3.877,1.787-7.717,2.616-11.594a16.467,16.467,0,0,0-.994-10.557c-3.172-7.211-4.1-15.311-7.859-22.361-1.574-2.939-.639-6.4-.473-9.643a3.2,3.2,0,0,1,.414-.988c.249.247.7.482.71.753.284,4.322,2.888,7.186,5.682,9.94-2.048,4.136,2.474,5.186,3.35,7.915.414,1.3.083,2.865.083,4.309-.2.2-.391.407-.592.617.142-.272.284-.531.426-.79" transform="translate(378.486 238.648)" fill="#C97A1F"/>
      <path id="Path_6403" data-name="Path 6403" d="M33.495,17.909c5.35,2.284,6.2,8.483,9.789,12.31a2.282,2.282,0,0,1-.095,2.062c-3.3,4.964,2.225,3.4,3.4,5,1.645,2.247,5.539,1.914,5.954,5.63.107.963,1.219,2.469,0,2.753-3.172.716-4.711,2.457-5.078,5.779-.071.593-1.669,1.445-2.5,1.383a3.3,3.3,0,0,1-2.427-1.741c-1.065-3.433-2.415-6.964-2.545-10.5a39.441,39.441,0,0,0-6.072-19.373c-.521-.84-.414-2.1-.592-3.149Z" transform="translate(361.17 203.222)" fill="#C97A1F"/>
      <path id="Path_6404" data-name="Path 6404" d="M43.651,35.926c-.331-.1-.852-.086-.959-.309-2.45-4.68-4.912-9.347-7.173-14.125-.225-.494.758-1.716,1.361-2.445.107-.123,1.468.4,1.61.852,1.775,5.334,5.48,10.014,5.1,16.089Z" transform="translate(384.546 215.925)" fill="#C97A1F"/>
      <path id="Path_6405" data-name="Path 6405" d="M34.512,17.563c1.74,1.63,3.468,3.272,5.232,4.89a1.624,1.624,0,0,1-.024,2.667,2,2,0,0,1-2.746.185c-3.326-2.173-3.5-2.766-2.284-7.927Z" transform="translate(368.414 197.196)" fill="#C97A1F"/>
      <path id="Path_6406" data-name="Path 6406" d="M37.705,37.137c-1.266.173-1.728,1.173-2.107,2.247-2.225-.766-2.06-2.7-2.083-4.568L33.326,35c2.071-1.729,4.166-3.42,6.226-5.186.722-.617,1.3-.667,1.515.185a2.974,2.974,0,0,1-.237,1.889c-.971,1.79-2.071,3.507-3.125,5.248" transform="translate(361.137 333.112)" fill="#C97A1F"/>
      <path id="Path_6407" data-name="Path 6407" d="M39.926,30.882a3.709,3.709,0,0,0-3.918,2.865c-.272.914-.734,2.3-1.775,1.84-.556-.247-.734-1.914-.722-2.939a16.114,16.114,0,0,1,.639-4.26c.462-1.58,1.835-2.025,3.291-2.161l.592.593,1.918,2.037-.178-.222c0,.8,0,1.617.012,2.432Z" transform="translate(363.131 297.609)" fill="#C97A1F"/>
      <path id="Path_6408" data-name="Path 6408" d="M36.592,36.913a9.852,9.852,0,0,1-1.03-.148c-1.148-.284-3.184.21-2.308-2.148a21.3,21.3,0,0,1,2.616-4.581c.331-.469,1.148-.58,1.74-.864.237.617.8,1.309.675,1.815-.509,2.062-1.231,4.075-1.882,6.1Z" transform="translate(358.049 331.015)" fill="#C97A1F"/>
      <path id="Path_6409" data-name="Path 6409" d="M38.274,22.1c-.178.654-.166,1.519-.58,1.877-.284.247-1.361-.012-1.681-.407a6.9,6.9,0,0,1-1.4-2.729,2.04,2.04,0,0,1,.829-1.716A1.6,1.6,0,0,1,37.884,20a9.252,9.252,0,0,1,.391,2.1" transform="translate(374.926 213.869)" fill="#C97A1F"/>
      <path id="Path_6410" data-name="Path 6410" d="M36.615,23.12A5.458,5.458,0,0,1,33.029,18.4c-.036-.259.272-.654.521-.827a.92.92,0,0,1,.8-.037c2.2,1.124,2.569,3.161,2.426,5.42Z" transform="translate(357.884 198.171)" fill="#C97A1F"/>
      <path id="Path_6411" data-name="Path 6411" d="M38.564,30.774a5.37,5.37,0,0,1-1.894-.049c-.473-.2-1.172-1.124-1.1-1.235A17.871,17.871,0,0,1,37.428,27.4c.4.444.971.827,1.148,1.358a6.771,6.771,0,0,1,.035,1.963Z" transform="translate(385.396 310.953)" fill="#C97A1F"/>
      <path id="Path_6412" data-name="Path 6412" d="M35.894,19.2c-.272.1-.568.346-.793.284-.9-.235-1.006-.691-.284-1.124a1.024,1.024,0,0,1,.864.148c.154.1.142.444.213.691" transform="translate(372.146 207.816)" fill="#C97A1F"/>
      <path id="Path_6413" data-name="Path 6413" d="M35.666,22.688,35,23.453a10.727,10.727,0,0,1-.556-1.753c-.036-.2.414-.469.639-.7.2.593.4,1.185.58,1.692" transform="translate(373.261 238.251)" fill="#C97A1F"/>
      <path id="Path_6414" data-name="Path 6414" d="M32.964,16.257,32.68,15.5l.71.074Z" transform="translate(354.136 175.933)" fill="#C97A1F"/>
      <path id="Path_6415" data-name="Path 6415" d="M34.88,17.821c-.3-.161-.592-.321-.9-.482.249.222.485.444.722.667Z" transform="translate(368.224 196.754)" fill="#C97A1F"/>
      <path id="Path_6416" data-name="Path 6416" d="M36.172,20.459c.888.049,1.255.42,1.042,1.074-.012.025-.568-.012-.675-.173a3.042,3.042,0,0,1-.308-.963Z" transform="translate(391.978 231.454)" fill="#C97A1F"/>
      <path id="Path_6417" data-name="Path 6417" d="M33.2,28.55l-.438.975.615-.79Z" transform="translate(355.015 323.969)" fill="#C97A1F"/>
      <path id="Path_6418" data-name="Path 6418" d="M36.285,29.845c-.485-.235-.982-.482-1.468-.716,1.48-1.346.982.42,1.3.9Z" transform="translate(377.294 324.908)" fill="#C97A1F"/>
      <path id="Path_6419" data-name="Path 6419" d="M8.988,25.309c.26-.556.521-1.111.793-1.667,1.42,1.667-.225,1.284-.935,1.519Z" transform="translate(95.86 268.276)" fill="#C97A1F"/>
      <path id="Path_6420" data-name="Path 6420" d="M24.1,36.243c.331-.333.651-.679.982-1.012-.107.185-.154.457-.308.543a3.843,3.843,0,0,1-.852.272Z" transform="translate(259.231 399.769)" fill="#C97A1F"/>
      <path id="Path_6421" data-name="Path 6421" d="M25.833,34.024c.107-.21.213-.617.32-.617,1.03.012,1.266.37.6.84-.189.123-.6-.136-.923-.222" transform="translate(279.939 379.083)" fill="#C97A1F"/>
      <path id="Path_6422" data-name="Path 6422" d="M21.928,34.071a8.919,8.919,0,0,1-1.586.679c-.142.037-.4-.432-.6-.679a9.91,9.91,0,0,1,1.622-.691c.118-.037.379.445.568.691" transform="translate(213.891 378.752)" fill="#C97A1F"/>
      <path id="Path_6423" data-name="Path 6423" d="M18.955,32.989c.769,0,1.551.012,2.32.012-.781,1.161-1.562,1.753-2.32-.012" transform="translate(205.406 374.339)" fill="#C97A1F"/>
    </g>
  </g>
</svg>
