<svg xmlns="http://www.w3.org/2000/svg" xmlns:xlink="http://www.w3.org/1999/xlink" width="407" height="615" viewBox="0 0 407 615">
  <defs>
    <clipPath id="clip-path">
      <rect id="Rectangle_227" data-name="Rectangle 227" width="407" height="615" transform="translate(1513 2675)" fill="#fff" stroke="#707070" stroke-width="1"/>
    </clipPath>
    <clipPath id="clip-path-2">
      <rect id="Rectangle_195" data-name="Rectangle 195" width="508.157" height="661.42" fill="#007775"/>
    </clipPath>
  </defs>
  <g id="Mask_Group_59" data-name="Mask Group 59" transform="translate(-1513 -2675)" clip-path="url(#clip-path)">
    <g id="Group_119" data-name="Group 119" transform="translate(1595.18 2573.91) rotate(9)">
      <g id="Group_118" data-name="Group 118" transform="translate(0 0)" clip-path="url(#clip-path-2)">
        <path id="Path_6424" data-name="Path 6424" d="M116.732,187.975c-.037-.927-.463-2.109-.061-2.756,3.548-5.609,7.755-10.5,14.668-12.046.3.28.6.561.9.841-.378-.2-.756-.4-1.134-.6.366-1.744-.085-4.5,2.243-4.511,2.78-.012,4.67-.61,5.731-3.146.817-1.963-.049-3.731-.853-5.511-.866-1.939-.8-4.048,1.085-5.109,3.39-1.89,6.889-3.585,9.059-6.95,3.365-5.206,6.572-10.522,9.9-15.753,2.841-4.463,4.95-9.84,8.84-13.058,5.145-4.255,7.523-9.9,10.864-15.131,6.767-10.559,14.412-20.52,21.545-30.823,7.742-11.193,16.863-21.118,25.263-31.7,1.585-2.012,3.28-3.5,6.035-3.109l.549.829c-.232-.232-.463-.451-.707-.683,1.719-6.974,1.8-7.084,7.438-7.084,2.182.012,3.536-.561,4.609-2.353,1.951-3.219,3.987-6.389,6.035-9.547a1.217,1.217,0,0,1,1.146-.354c.378.183.866.756.817,1.1-.719,5.1-1.524,10.181-2.3,15.265-.6.634-1.427,1.171-1.707,1.914-.232.61.2,1.475.329,2.219a6.736,6.736,0,0,0,1.024-1.744,13.29,13.29,0,0,0,.073-2.609c2.634.415,4.548-.866,6.23-2.67,1.6-1.719,3.109-3.548,4.853-5.1a2.745,2.745,0,0,1,2.524-.024,2.9,2.9,0,0,1,1.329,2.219,15.766,15.766,0,0,1-1.5,5.365c-2.256,4.17-4.792,8.181-7.218,12.266-5.4,1.585-5.4,1.585-5.889,8.742-1.963-.024-2.719,1.171-2.938,2.914a3.518,3.518,0,0,0-3,2.914c-3.841,1.683-5.292,4.9-5.706,8.8-.988.963-1.975,1.914-2.963,2.877-.268.28-.549.561-.817.841.2-.354.4-.707.6-1.061.988-.963,1.963-1.939,2.951-2.9,3.146-2.122,6.584-4.06,5.718-8.791,2.061.134,2.9-1,3.012-2.89,1.926-.012,2.817-1.073,2.951-2.9a10.228,10.228,0,0,0,5.816-8.815c4.463,1.024,5.657,4.95,7.4,8.376a3.4,3.4,0,0,1-.585,3.938c-3.914,4.926-7.852,9.815-11.681,14.8a19.143,19.143,0,0,0-1.719,3.755c1.39.378,2.792.707,4.17,1.122,4,1.195,4.658,3.036,1.987,5.95-10.547,11.461-21.471,22.581-31.628,34.384-13.327,15.485-27.324,30.372-39.943,46.479-14.387,18.362-29.031,36.493-42.321,55.684-1.292,1.865-3.792,2.9-5.718,4.328-.037-3.987,2.695-7.95.049-11.949,1.4-.573,1.658-1,.732-1.049-.146,0-.329.829-.5,1.28-3.926,3.121-5.67,8.389-10.4,10.766-.219.11-.317.9-.146,1.219.6,1.158,1.268.561,2.28.341a61.891,61.891,0,0,1,8.254-.866c-3.719,10.254-9.888,18.862-17.679,26.385l.061.049c-1.427-4.328-.451-8.5.793-12.68.085-.268-.427-.927-.793-1.061a1.442,1.442,0,0,0-1.353.207c-4.621,6.17-9.474,12.2-13.632,18.691-1.719,2.695-1.9,6.365-2.792,9.6l.256-.28c-.939.2-1.9.341-2.841.6-3.365.89-2.548,6.011-5.011,6.328-4.8.646-3.56,3.536-3.56,6.279,0,2.658-1.658,4.365-3.39,6.145-5.084,5.255-9.8,10.791-12.01,18.009a11.232,11.232,0,0,1-1.926,3.877C61,319.388,55.024,332.727,48.209,345.59c-2.707,5.121-6.255,9.8-9.523,14.607-4.645,6.816-9.388,13.558-12.815,21.13-1.061,2.353-1.475,5.6-4.987,6.1-.439-2.353-.914-4.694-1.329-7.047-.317-1.865-.073-3.865-2.085-5.133a2.78,2.78,0,0,1-1.28-3.646c1.9-4.426,2.951-9.571,5.9-13.132a29.518,29.518,0,0,0,6.889-18.521l-.183.268c4.584-1.6,8.254-3.926,9.949-8.974a49.991,49.991,0,0,1,5.5-11.339c2.317-3.536.573-6.231-.658-9.218l-.244.3a3.545,3.545,0,0,0,3.231-3.219l-.268.293c.927-.2,2.426-.1,2.695-.622,2.658-5.279,8.889-8.23,9.279-15.119.146-2.634,2.28-5.145,3.451-7.73,1.744-3.9,3.438-7.828,5.158-11.754l.049-.061c.951-1,1.9-2,2.853-3.012.939-.146,1.9-.244,2.829-.476.439-.11,1.183-.6,1.146-.732a1.339,1.339,0,0,0-2.195-.841,7.912,7.912,0,0,0-1.536,2.317,6.61,6.61,0,0,1-2.8.159l-.671-.671c-2.414-5.974-.841-8.779,6.365-11.217l-.256-.207c-.073.451-.134.914-.2,1.378-.159,1.207-.89,2.878-.354,3.548.963,1.195,2.426.427,3.512-.549a8.907,8.907,0,0,0,3.109-7.389l-.256.3c4.121-2.414,5.182-7.5,9.388-10.157,3.426-2.17,2.024-6.95,2.585-10.608l-.268.317c3.426-.853,3.134-3.6,3.158-6.194l-.244.28c3.719-4.524,8.059-8.645,9.047-14.839l-.219.256c2.536-1.268,2.792-3.719,3.146-6.121l-.232.268c1.878-1.073,1.963-2.158,0-3.231l.2.2c.183-5.767.171-5.828,6.462-7.145,4.231-.878,4.609-4.3,5.267-7.584l-.207.2c2.475-1.073,1.841-2.146,0-3.219Zm-70.206,143.2a4.785,4.785,0,0,0,.39,1.134c.122.2.463.268.707.39l-1.353-1.28c0-1.061,0-2.122.012-3.182-.171.378,1.524-1.39.293.244-1.561.878-3.243,1.744-.049,2.695m64.183-105.357c.28-.341.573-.683.853-1.024l-.622,1.244c-.268.317-.524.634-.793.951.183-.39.378-.78.561-1.171M151.7,190.73c.244-.317.488-.634.719-.951-.158.4-.3.817-.463,1.219a4,4,0,0,0-3.012,2.987,12.474,12.474,0,0,0-2.646.378c-.536.207-.9.878-1.353,1.341.768.073,1.731.463,2.268.146.671-.4,1-1.378,1.475-2.109,1-1,2.012-2,3.012-3.012M134.094,187.8a3.147,3.147,0,0,0,2.975-2.877c2.8-1.073,2.987-3.4,2.792-5.889,1.878-.1,2.548-1.439,3.048-2.951.268-.317.549-.622.829-.939-.2.4-.378.8-.573,1.195-1.024.988-2.036,1.963-3.048,2.951-2.487,1.207-3.121,3.3-2.829,5.853-1.987-.061-2.658,1.219-2.951,2.89-.6.549-3.109.037-1.134,2.024.293-.756.585-1.5.89-2.256m-17.533,29.238c2.451-1.183,2.8-3.4,2.853-5.767a5.776,5.776,0,0,0,1.073-.5c.2-.146.244-.463.366-.707-.4.488-.793.975-1.183,1.463-2.585,1.11-2.061,3.755-2.865,5.743a7.3,7.3,0,0,0-.963.634c-.171.134-.232.4-.341.61.354-.488.707-.988,1.061-1.475M72.7,290.26c2.768-1.061,2.6-3.572,2.89-5.853,4.011-2.987,6.048-7.279,7.669-11.815.085-.244-.427-.8-.78-1.085s-.988-.646-1.207-.512a11.686,11.686,0,0,0-3.341,2.414c-2.585,3.341-1.853,7.4-2.1,11.242-4.853.975-4.926.988-2.9,5.865-.927.256-2.731-.122-1.3,1.817.354-.683.707-1.378,1.073-2.073m90.921-116.782c-3.78,1.561-5.548,5.084-7.876,8.059a1.631,1.631,0,0,0-.073,1.317c.463,1.292,1.073,1.195,2.085.159,2.719-2.78,5.584-5.438,5.621-9.742.719-.512,1.695-.89,2.061-1.585.317-.585-.085-1.548-.171-2.341-.5.463-1.256.853-1.451,1.427a9.924,9.924,0,0,0-.2,2.707m-8.84-14.668c-4.024,1.256-5.987,4.548-7.8,7.962a1.91,1.91,0,0,0-.024,1.353c.427,1.378,1.012,1.329,1.975.171,2.439-2.914,5.609-5.389,5.633-9.705.914-.329,2.951.037,1.231-1.951-.341.719-.671,1.451-1.012,2.17m-91.4,147.544c-.293-.8-.4-1.6-.622-1.622-.744-.11-1.829-.256-2.256.159-4.78,4.523-6.986,10.339-7.986,16.692a2.824,2.824,0,0,0,.4,1.353c.451,1.1,1.244,1.11,1.963-.146,2.439-4.206,4.828-8.437,7.133-12.7a24.8,24.8,0,0,0,1.366-3.731M45.148,339.8c-.329-.3-.695-.9-1-.878-4.731.451-11.205,6.706-11.169,10.912a3.572,3.572,0,0,0,1.585,2.207c.549.39,1.926.61,2.182.293,2.914-3.67,5.694-7.438,8.45-11.23.207-.28-.024-.866-.049-1.3M25.554,364.867c-2.219.317-2.146,1.792-2.085,3.048.061,1.195-.085,3.133,1.719,2.8a3.931,3.931,0,0,0,2.487-2.841c.037-1.012-1.427-2.1-2.122-3.012m119.83-161.151c-.219-.927-.439-1.829-.658-2.731a13.67,13.67,0,0,0-2.341,1.439,2.219,2.219,0,0,0,0,3.536,1.978,1.978,0,0,0,1.183.658c1.951-.1,1.548-1.731,1.817-2.9" transform="translate(178.284 216.919)" fill="#007775"/>
        <path id="Path_6425" data-name="Path 6425" d="M243.827,65.079c1.049-5.011,4.475-6.3,9.059-5.792l-.232-.207c.927,5.487-.707,9.84-6.243,11.559-3.9,1.219-5.889,3.28-5.267,7.3.793,5.06-2.085,8.645-5.389,11.3-7.279,5.853-11.144,14.546-18.448,20.569-4.536,3.731-7,10.352-9.547,16.046a66.612,66.612,0,0,1-18.045,24.264c-2.768,2.353-3.707,5.365-7.23,1.536-.89-.963-1.622-.378-2.329.695-2.938,4.438-5.487,9.327-9.23,12.961-2.792,2.707-3.658,8.657-9.705,7.3-.451-.1-1.646,1.024-1.695,1.646-.878,11.449-9.315,18.691-14.96,27.519a19.7,19.7,0,0,1-6.913,7c-8.389,4.962-12.632,13.083-13.863,22.41a27.081,27.081,0,0,1-4.158,12.12c-.671,1-2.731,2.219-3.316,1.89-2.914-1.67-4.67-.3-5.962,1.914-2.439,4.182-4.694,8.474-6.913,12.766-3.3,6.377-9.035,11.425-10.1,19.094-.219,1.658-2,4.085-3.463,4.414-6.352,1.451-6.4,5.95-6.608,11-.085,2.243-1.658,4.438-2.621,6.633-1.548,3.536-3.755,6.779-3.475,10.973.134,1.951-.963,4.17-3.024,4.475-5.95.878-6.377,6.706-9.62,9.9-3.451,3.4-4.694,6.925-4.926,11.571-.134,2.743-1.963,5.4-3.024,8.1l.207-.207c-3.012.244-6.218.415-5.206,4.828.756,3.329.549,5.877-3.694,5.8-2.085-.037-2.17,1.5-2.658,2.78-4.8,12.607-13.046,23.678-16.485,36.9a6.8,6.8,0,0,1-1.231,2.634c-1.207,1.475-2.426,3.475-4.024,3.926-1.024.3-2.817-2.707-4.1-2.573-2.548.256-4.316-.341-2.987-2.634,4.28-7.438,4.414-17.009,12.437-22.642,2.426-1.707,3.1-5.913,4.584-8.974,2.89-5.962,5.865-11.876,9.193-17.631,3.158-5.438,5.572-11.3,8.315-16.972l-.146.171c4.243-6.816,8.559-13.607,11.278-21.228a4.552,4.552,0,0,0-.329-2.719c-.317-.878-.89-.451-1.841.463-5.938,5.731-9.388,12.912-12.144,20.508l.244-.256c-2.036.049-3.963.536-4.877,2.512-2.048,4.414-3.841,8.937-5.938,13.314-1.451,3-2.756,6.45-7.145,6.072-2.061-.183-2.036,1.561-2.695,2.756q-4.9,8.907-9.925,17.753c-.171.3-1.049.6-1.207.463-.61-.512-1.512-1.256-1.463-1.841a28.588,28.588,0,0,1,5.5-14.851c2.573-3.511,5.56-6.852,5.877-11.4.2-2.695,1.963-3.1,3.816-3.414,4.036-.683,6.072-3.121,5.913-7.011-.219-5.645,1.731-10.157,5.011-14.778,4.194-5.913,8.3-12.278,10.559-19.069,2.146-6.438,7-11.108,9-17.643,1.646-5.377,6.133-9.84,9.145-14.851,10.486-17.436,19.667-35.639,32.384-51.746,5.377-6.816,9.291-14.765,13.949-22.154,1.28-2.036,2.646-4.133,5.34-4.584-2.146,6.73-2.17,14.156-6.621,20.142-1.341,1.8.561,2.17,1.488,3.1a18.186,18.186,0,0,1,2.17,3.353c-3.536,1.219-7.23,2.122-10.559,3.768-1.963.988-3.365,3.134-4.987,4.792-.866.878-.683,1.609.1,2.439,1.536,1.622,6.145,2,7.242.427,2.707-3.853,5.353-7.742,8.035-11.62,4.767-4.719,4.975-11.4,7.4-17.131,2.036-4.792-.622-7.23-4.56-9.023a11.468,11.468,0,0,1,.3-2.841c3.487-9.657,10.51-16.716,17.594-23.727-.878,2.634-1.829,5.255-2.56,7.925-.2.732.061,2.122.561,2.39,1.427.8,2.475-.354,3.109-1.451a30.878,30.878,0,0,0,2.329-5.036c1.366-3.829-1.695-3.207-3.731-3.572-.854-3.755,1.5-6.438,3.255-9.23,1.487-2.341,3.524-2.926,6.072-1.158,1.4.963,2.658-.012,3.512-1.195,1.292-1.817-.415-2.378-1.439-3.219-.354-.293-.914-.756-.878-1.049.7-4.463,3.755-7.291,7.218-9.62.658-.439,1.512.878,1.231,1.914-.378,1.353-1.024,2.89.549,3.768.354.207,1.634-.744,2.17-1.414,4.182-5.231,8.474-10.388,12.351-15.838,1.866-2.634,1.548-5.462-1.878-7.072l.219.207c2.158-1.817,4.292-3.67,6.487-5.45,6.084-4.938,11.473-10.266,12.193-18.728.061-.756,1.158-1.414,1.78-2.122l-.219-.256c.488,1.341,1.1,2.243,2.39.646a11.306,11.306,0,0,0,1.244-1.292c.232-.28.695-.719.646-.793a15.385,15.385,0,0,0-1.341-1.488l.207.183c.11-4.328,1.756-7.877,6.328-8.511,4.853-.671,6.17-3.036,6.56-7.73.451-5.572,4.56-9.51,8.706-13.01,2.756-2.317,4.414-4.853,4.243-8.742a17.352,17.352,0,0,1,7.1-15.192c3.56-2.768,5.158-7,7.462-10.717,2.012-3.268,4.572-6.194,6.889-9.266.914-1.219,1.573-1.171,1.963.146.134.451.183.939.293,1.4,1.085,4.463-2.207,7.182-4.109,10.474a3.445,3.445,0,0,0-.439,2.731c1.171,2.317,2.158-.232,3.28-.341,6.121-.6,10.644-4.011,14.68-8.315.244-.268.939-.134,1.414-.2l-.134-.134c1.6,4.914-1.073,8.486-3.938,11.839-2.829,3.316-6.035,6.316-8.949,9.571-1.049,1.17-1.341,3.06.159,3.829,3.78,1.963,2.365,4.4,1.341,7.182-1.6,4.341-5.816,6.474-8.059,10.193-.293.488.244,1.951.829,2.414,1.512,1.207-.573-.012,1.341-.378a22.873,22.873,0,0,0,2.78-.866c.268.3.536.622.817.927-.354-.232-.707-.463-1.049-.695M77.091,269.722c1.427-.159,2.865-.268,4.28-.488,4.316-.683,4.365-.854,1.634-5.1-.939-1.487-1.89-1.463-2.841,0a6.293,6.293,0,0,0-2.817,5.8c-3.3.793-2.987,3.414-2.963,5.877-.463.122-1.158.1-1.353.4-4.072,6.34-8.12,12.7-12.083,19.118a4.218,4.218,0,0,0-.536,2.756,7.94,7.94,0,0,0,1.634,3.573c.439.488,1.926.488,2.707.146,1.695-.732,3.768-1.463,4.755-2.853,3.048-4.292,5.718-8.876,4.865-14.534l-.219.207c3.926-2.987,1.292-5.987.024-9,2.768-1.085,2.609-3.609,2.914-5.913m23.386-35.627c-.1-.732-.012-1.292-.244-1.646a5.107,5.107,0,0,0-1.536-1.488c-.171-.11-.951.354-1.1.707-1.853,4.267-3.78,8.511-5.292,12.888-.293.841,1.11,2.28,1.731,3.438,1.158-.658,2.658-1.049,3.39-2.024,2.682-3.572,2.658-7.925,3.048-11.876M87.906,277.282l-.61-.536-.122.878ZM22.48,394.112l.61.5.11-.829Z" transform="translate(165.069 161.362)" fill="#007775"/>
        <path id="Path_6426" data-name="Path 6426" d="M261.536,74.606c-3.877-.122-7.218-.329-9.754,4.17-3.743,6.645-9.437,12.1-11.449,19.874-1,3.889-4.158,6.474-7.73,8.328-3.024,1.548-5.913,3.548-9.108,4.487-3.719,1.085-3.414,6.279-5.828,6.45a35.085,35.085,0,0,0-9.34,1.987c-4.792,1.67-8.73,3.633-11.437,8.145-1.171,1.951-3.512,3.194-5.328,4.755l-.732.841q-9.584,10.827-19.155,21.642c-1.914,2.146-4.219,4.06-4.109,7.328l.256-.268c-9.023,6.133-13.973,15.729-20.4,24.068-4.962,6.45-8.547,14.009-15.887,18.557a9.937,9.937,0,0,0-3.792,5.926c-.853,3.975-4.8,4.572-6.682,7.267a8.54,8.54,0,0,0-.9.707,2.237,2.237,0,0,0-.329.61l.988-1.536c2.353.573,3.024,2.1,2.182,4.231-.341.853-1.061,2.1-1.756,2.207-8.315,1.292-10.8,8.376-14.546,14.266C96.349,254.9,87.167,271.9,75.84,287.54c-1.975,2.731-3.365,5.865-5.182,8.718-1.78,2.8-2.951,6.17-6.548,7.45-.866.3-2.024.927-2.28,1.658-2.475,7.169-8.5,12.924-8.376,21.106l.28-.268c-3.255.939-2.548,3.9-3.158,6.194l.244-.3L47.6,335.311l.268-.268c-4.146-.939-4.121-.927-3.524-4.682.219-1.341.256-2.707.378-4.06a20.8,20.8,0,0,0,3.438-2.231c.427-.4.207-1.487.28-2.256-.78.232-2,.232-2.28.732a19.19,19.19,0,0,0-1.219,3.963c-2.768.439-3.865,2.695-4.816,4.816-2.353,5.206-6.23,9.742-7.108,15.619l.207-.207C27.716,352.613,21.5,357.9,19.961,366.61c-.536,2.987-3.5,4.426-6.791,4.146l-1.012-.927c-.2-4.694,3.085-8.072,4.536-12.12,4.328-12.046,11.351-22.386,18.887-32.542,4.853-6.535,9.852-13.119,10.62-21.8a7.309,7.309,0,0,1,3.036-4.792c10.815-7.06,15.619-18.423,20.484-29.409,2.439-5.487,5.121-10.144,9.352-14.4A54.673,54.673,0,0,0,89.008,240.5a70.784,70.784,0,0,1,8.779-13.388,263.463,263.463,0,0,0,21.4-29.275c2.512-4.121,5.84-7.779,9.047-11.437a56.936,56.936,0,0,0,7.5-10.693,55.144,55.144,0,0,1,6.755-9.449c8.8-10.352,17.838-20.508,26.629-30.872,14.448-17.033,28.665-34.274,43.187-51.246,8.169-9.559,14.973-20.155,23.02-29.787.927-1.1.829-1.792-.463-2.17-.451-.146-1.049-.39-1.4-.207-2.56,1.268-5.06,2.658-7.62,3.95-.28.134-1.036-.037-1.122-.244-.317-.829-.939-2.158-.6-2.536q9.218-10.352,18.667-20.5,11.486-12.217,23.2-24.2c.354-.366,1.67.146,2.5.378.134.037.219.744.11,1.073-.134.451-.536.817-.707,1.268-3.109,8.194-7.413,15.558-14.034,21.5-.89.793-.756,2.731-1.1,4.133-1.719.219-2.987.914-2.975,2.9-1.951.037-2.938.988-2.89,2.963a3.625,3.625,0,0,0-1.231.232c-.219.122-.244.585-.354.9.451-.463.914-.914,1.378-1.366a3.067,3.067,0,0,0,2.914-2.914c1.8-.183,2.6-1.341,2.9-2.987,5.377-3.572,8.742-10.022,16.3-10.669,1.634-.146,3.048-3.329,4.5-5.17,2.951-3.755,5.828-7.6,11.278-7.657l.451.451c-1.963,7.206-3.95,14.424-5.853,21.642a8.656,8.656,0,0,1-4.194,5.426c-1.939,1.146-1.646,3.219-2.061,5l.28-.219L270,45.624c-.878-2.207-1.8-.878-2.719-.037-7.23,7.657-17.448,12.449-21.776,22.861-10.425,5.913-13.314,17.143-18.679,26.617-.159.28.073.878.293,1.244s.866.963.939.9c3.816-2.707,8.328-4.45,10.12-9.608,2.658-7.6,6.962-12.729,14.461-18.826.476.732.8,1.67,1.475,2.122a2.809,2.809,0,0,0,2.378.415,2.238,2.238,0,0,0,.707-3.377,12.918,12.918,0,0,0-1.792-1.963c.8-5.121,4.853-8.084,7.889-11.693,2.207-2.621,4.219-5.243,3.78-8.937h3.17c.28,1.719,1.1,2.938,2.951,3.207l-.256-.207c-.219,5.633.732,11.729-5.853,14.839-.1-.951-.122-1.9-.28-2.841-.232-1.329-.89-1.707-1.792-1.1a8.7,8.7,0,0,0-1.012,1c-1.012.975-.841,1.683.549,2.061.914.256,1.866.415,2.8.622-1.061,4.45-6.023,6.913-6.072,11.888ZM220.483,101.2c-1.548,1.6-3.121,3.17-4.621,4.8a1.329,1.329,0,0,0,.061,1.207c.573.8,1.171.415,2.146-.232,2.317-1.536,2.012-3.841,2.158-6.048a4.948,4.948,0,0,0,1.317-.28c.232-.11.3-.536.463-.829-.512.451-1.024.914-1.524,1.378m8.608,1.817c.39-.219.78-.451,1.171-.683-.329-.293-.61-.8-.975-.866-1.207-.2-1.768.3-1.353,1.158.122.256.756.268,1.158.39" transform="translate(135.984 93.127)" fill="#007775"/>
        <path id="Path_6427" data-name="Path 6427" d="M40.243,98.913c-2.89-.146-5.792-.232-8.681-.451-1.378-.11-1.841-.853-1.134-1.609C35,91.939,39.012,86.22,44.389,82.44A43.043,43.043,0,0,0,56.216,70.126a7.762,7.762,0,0,1,7.413-3.658c.9,2.829,1.841,2.219,2.8.037,1.609-.378,2.829-1.134,2.816-3.024,8.925-1.89,16.058-6.291,20.459-14.534l.9-.829-.658,1.061c-9.108,1.634-13.936,9.266-20.435,14.546-1.512.5-2.878,1.122-2.865,3.048-1.085-.012-2.17-.012-3.255-.024.476-1.841.427-4.146,1.548-5.426,2.853-3.28,5.84-6.718,9.474-8.974,5.072-3.17,8.718-7.755,12.863-11.754,3.329-3.207,5.206-7.913,7.73-11.949,5.414-.439,8.157-4.658,11.742-7.913A124.6,124.6,0,0,1,130.177,3.627c5.243-2.89,7.852-2.012,10.705,3.06,3.524,6.23,3.231,10-1.5,15.765a90.452,90.452,0,0,1-7.816,8.62c-2.9,2.731-5.6,5.633-6.389,9.535-.975,4.828-3.938,7.791-8.047,9.657-5.023,2.28-9.01,6.511-15.509,6.255-3.426-.134-6.633,3.6-9.193,6.669-2.707,3.255-5.706,6.291-8.584,9.425l.244-.293a5.9,5.9,0,0,0-5.06,2.365c-8.291,10.961-18.472,19.984-29.092,28.58C43.913,108.143,39.719,115,33.013,119.177c-1.231.756-2.329,1.744-3.572,2.463-3.67,2.122-6.352-.061-6.682-5.389l-.256.256a41.767,41.767,0,0,0,17.521-17.8c5.633-2.134,10.059-5.511,11.9-11.547,1.049-.317,3.06-.061,1.256-2.1-.463.658-.927,1.3-1.39,1.951-6.791,1.11-10.62,5.1-11.547,11.9M60.52,78.185a4.622,4.622,0,0,0,4.633-2c.317-.5-.232-1.548-.378-2.353a4.545,4.545,0,0,0-1.183.293,5.4,5.4,0,0,0-2.865,4.255c-.61.463-3.012-.171-1.122,1.829.3-.671.61-1.353.914-2.024" transform="translate(251.87 22.244)" fill="#007775"/>
        <path id="Path_6428" data-name="Path 6428" d="M132.087,3.455c1.695.524,4.4.561,4.926,1.646,1.963,4.121,4.6,1.195,6.925,1.171l-.11-.122c1.683,11.79-3.182,20.618-12.1,27.958a252.1,252.1,0,0,0-21.752,19.5c-11.12,11.559-23,22.325-34.335,33.628-7.23,7.206-14.485,13.851-23.142,19.508-7.547,4.938-13.278,12.68-19.643,19.362-1.719,1.8-3.365,3.475-5.828,4.1-.4.1-1.171.11-1.256-.085a4.178,4.178,0,0,1-.744-2.451,6.491,6.491,0,0,1,1.744-2.292c11.851-12.9,23.556-25.934,35.664-38.578,3.268-3.4,3.243-7.633,5.011-11.351,2-4.194,8.5-2.024,10.413-6.767.536-1.341,1.183-2.634,1.768-3.95l-.219.207,3.17-3.207-.171.159a36.842,36.842,0,0,0,4.8-3.182q14.5-13.132,28.848-26.458c3.17-2.963,5.9-6.389,9.01-9.425,5.523-5.426,8.364-11.766,7.267-19.618Z" transform="translate(279.796 35.803)" fill="#007775"/>
        <path id="Path_6429" data-name="Path 6429" d="M58.8,7.477c-.122.39-.11,2.329-1.012,2.938-4.1,2.78-6.133,7.23-9.291,10.754a19.687,19.687,0,0,1-12.559,6.3c-4.389.6-8.23-4.255-6.572-8.571,1.707-4.426,6.084-7.474,6.511-12.68.073-.841,2.061-1.9,3.3-2.183a14.1,14.1,0,0,1,9.84.853c1.744.914,2.5-.2,3.194-1.561.732-1.451.415-4.426,3.463-2.914C58.092,1.612,58.7,3.965,58.8,7.477" transform="translate(324.273 -0.005)" fill="#007775"/>
        <path id="Path_6430" data-name="Path 6430" d="M33.328,40.834c.183,3.585-1.378,6.487-3.341,9.364-1.926,2.8-3.6,5.816-1.853,9.437.658,1.366.793,2.975-.768,3.633-6.23,2.67-7.377,8.376-8.925,14.009-.622,2.28-1.987,4.365-3.012,6.535l-.646.6c-4.182-1.012-6.072-2.646-5.3-4.816,3.012-8.511,5.84-17.094,9.327-25.41,1.427-3.426,3.792-6.865,7.45-8.45,2.951-1.292,3.28-4.645,5.8-6.1.439.378.854.78,1.268,1.195" transform="translate(104.218 443.667)" fill="#007775"/>
        <path id="Path_6431" data-name="Path 6431" d="M30.892,52.006c1.768-4.365,3.426-8.767,5.34-13.071a12.039,12.039,0,0,1,3.121-4.572c6.9-5.523,10.669-13.254,15-20.606l-.256.207c5.475,1.488,6.621,2.89,4.365,6.072-4.731,6.706-9.766,13.2-14.692,19.777-2.609,3.463-5.219,6.913-7.889,10.327-1.329,1.707-3.219,1.926-5.219,1.646Z" transform="translate(343.169 153.976)" fill="#007775"/>
        <path id="Path_6432" data-name="Path 6432" d="M67.763,11.325c-3.707,6.657-6.926,13.631-15.838,15.107-1.89.317-3.463,3.048-5.036,4.8-2.817,3.121-4.426,7.462-9.023,8.742l.122.122c.012-.951-.3-2.085.11-2.829,5.377-9.693,12.181-18.338,19.557-26.58,2.938-3.292,5.877-2.256,8.962-.5.378.39.756.768,1.146,1.134" transform="translate(423.824 95.615)" fill="#007775"/>
        <path id="Path_6433" data-name="Path 6433" d="M43.607,20.567c-.927,1.049-2.183,1.951-2.719,3.17-1.914,4.3-1.817,4.341-6.145,2.585l.2.268a53.973,53.973,0,0,1-.146-5.779c.2-2.353.536-4.341,3.073-5.987,4.389-2.853,8.169-6.669,12.3-9.937a2.668,2.668,0,0,1,2.548-.061c.988.89,2.353,2.329,2.195,3.341a8.583,8.583,0,0,1-2.487,5.048C49.508,15.678,45.656,17.031,43.607,20.567Z" transform="translate(388.869 50.709)" fill="#007775"/>
        <path id="Path_6434" data-name="Path 6434" d="M33.427,50.33c-.244,1.89-.085,3.5-.683,4.731q-6.035,12.29-12.412,24.4a3.73,3.73,0,0,1-2.414,1.463,3.4,3.4,0,0,1-2.536-.634,3.483,3.483,0,0,1-.841-2.268c4.95-3.194,5.475-8.8,7.633-13.534,2.378-5.267,5.011-10.425,7.511-15.631.573-1.207,1.268-2.9,2.621-2.073.878.536.853,2.56,1.122,3.548" transform="translate(162.34 521.153)" fill="#007775"/>
        <path id="Path_6435" data-name="Path 6435" d="M31.439,52.193c-3.487,2.39-4,6.438-5.328,9.949-.853,2.28-1.134,5.011-3.353,6.194s-2.292,5.792-5.194,4.292c-1.488-.768.463-4.353.963-6.682,1.89-8.864,7.462-15.509,12.876-22.264a6.606,6.606,0,0,1,1.89-1.207,19.931,19.931,0,0,1,.658,2.743c.159,1.439.146,2.9.207,4.353l.268-.28A4.444,4.444,0,0,0,31.195,52.5Z" transform="translate(190.433 475.409)" fill="#007775"/>
        <path id="Path_6436" data-name="Path 6436" d="M49.069,16.876c.354,2.39,1.024,4.962-.549,7.011C43.266,30.715,37.84,37.433,32.377,44.115a2.461,2.461,0,0,1-2.4.28c-.6-.439-1.183-1.951-.878-2.4,2.634-3.963,5.45-7.8,8.242-11.644,1.134-1.561,2.487-2.987,3.487-4.621.719-1.17,1.719-2.817,1.39-3.865-2.134-6.633,3.219-3.829,5.645-4.658A6.259,6.259,0,0,1,49.3,17.1Z" transform="translate(324.748 188.886)" fill="#007775"/>
        <path id="Path_6437" data-name="Path 6437" d="M20.846,29.384c.061-6.121,5.109-8.974,8.559-12.8,3.255-3.633,6.791-4.877,6.816-3.219a20.34,20.34,0,0,1-.963,6.8c-1.658,4.743-5.67,7.694-9.571,10.4-.939.646-3.377-.9-5.109-1.427Z" transform="translate(230.324 141.47)" fill="#007775"/>
        <path id="Path_6438" data-name="Path 6438" d="M16.348,49.506c2.048-1.341,2.4-3.475,2.646-5.657l.634-.585c1.28.549,2.78.829,3.768,1.707,1.171,1.049.927,2.6.134,3.987-2.378,4.207-4.524,8.584-7.157,12.632-2.146,3.3-2.378,8.255-7.438,9.218,1.012-4.121,1.768-8.34,3.146-12.339,1.085-3.182,2.926-6.1,4.438-9.132Z" transform="translate(100.007 484.229)" fill="#007775"/>
        <path id="Path_6439" data-name="Path 6439" d="M37.954,19.836c-.037.963.317,2.231-.171,2.853q-6.95,9.126-14.2,18.021a3.927,3.927,0,0,1-2.743.817,4.932,4.932,0,0,1-2.378-.951c-.232-.158-.28-1-.1-1.353a25.581,25.581,0,0,1,2.231-3.731c3.463-4.658,8.23-8.242,10.961-13.571,1.268-2.475,4.024-2.3,6.5-1.987Z" transform="translate(204.255 221.114)" fill="#007775"/>
        <path id="Path_6440" data-name="Path 6440" d="M14.542,60.314c-.1-3.6,2.341-6.182,3.719-9.169,1.207-2.573,3.146-4.828,2.865-7.913l-.268.268a4.719,4.719,0,0,0,3.219-3.219l-.244.3a6.41,6.41,0,0,0,3.158-6.194l-.28.268c1.061.012,2.109.012,3.17.012l-.232-.232c.183,1.427.988,3.219.427,4.243-4.28,7.876-5.913,17.484-14.4,22.678-.39-.341-.768-.695-1.134-1.049" transform="translate(162.729 384.938)" fill="#007775"/>
        <path id="Path_6441" data-name="Path 6441" d="M20.174,40.163c2.365-.146,5.194-.6,4.06,3.268-1.195,4.085-2.731,8.072-4.28,12.046a2.771,2.771,0,0,1-2.024,1.475,3.023,3.023,0,0,1-2.341-1.219A56.325,56.325,0,0,1,11.8,46.8c-.378-1.28.78-2.268,2.67-1.975,3.609.549,4.438-2.682,5.95-4.9Z" transform="translate(131.248 446.801)" fill="#007775"/>
        <path id="Path_6442" data-name="Path 6442" d="M35.628,14.053a11.579,11.579,0,0,1-2.878-2.134c-.354-.451.024-1.987.573-2.56a91.172,91.172,0,0,1,7.1-6.8c1.195-1.012,2.731-.463,3.768.536a3.731,3.731,0,0,1,1.219,2.463c-.28,4.828-4.475,8.584-9.779,8.5" transform="translate(365.026 22.571)" fill="#007775"/>
        <path id="Path_6443" data-name="Path 6443" d="M19.062,44.241C17.855,49.2,17.282,54.4,14.319,58.763A2.829,2.829,0,0,1,11.9,59.787a2.592,2.592,0,0,1-1.366-2.17c1.353-5.389,2.109-11.266,8.742-13.168Z" transform="translate(117.753 495.176)" fill="#007775"/>
        <path id="Path_6444" data-name="Path 6444" d="M32.761,14.713C32.3,10.7,32.347,6.837,36.285,4.374a3.735,3.735,0,0,1,2.67-.561,2.417,2.417,0,0,1,1.073,2.109,35.108,35.108,0,0,1-2.036,6.962c-.9,2.048-3,2.158-5.011,2.048Z" transform="translate(364.466 41.822)" fill="#007775"/>
        <path id="Path_6445" data-name="Path 6445" d="M39.509,25.035c-.049-4.3,1.439-7.657,6.023-8.559,1.183-.232,3.451.415,3.707,1.183.39,1.085-.207,3.438-1.1,3.889a66.033,66.033,0,0,1-8.84,3.28Z" transform="translate(439.897 183.873)" fill="#007775"/>
        <path id="Path_6446" data-name="Path 6446" d="M29.7,19.516c-2.768,3.06-2.219,8.45-6.791,10.571a2.359,2.359,0,0,1-1.329.329c-.39-.134-.963-.7-.939-1.036.39-5.084,2.67-9.01,7.279-11.4a1.31,1.31,0,0,1,1.244.293c.878,1.731,1.256-.768.536,1.244" transform="translate(231.04 200.597)" fill="#007775"/>
        <path id="Path_6447" data-name="Path 6447" d="M45.853,14.251c-1.28,5.328-4.767,8.669-9.669,10.73l.244.244c-.671-2.829,1.536-5.267,1.439-7.681-.146-3.341,1.658-3.536,3.8-4.06.866-.219,1.731-.488,2.6-.732.549.488,1.073.988,1.585,1.5" transform="translate(404.998 142.716)" fill="#007775"/>
        <path id="Path_6448" data-name="Path 6448" d="M21.767,49.938c-.914-4.658.988-8.437,3.914-11.766.853-.975,2.646-2.28,3.4-1.963,2.17.9,1.341,3.17,1.256,5l.244-.268C28,42.22,27.6,44.609,27.424,47.133l.268-.329q-3.018,1.518-6.048,3.036Z" transform="translate(241.047 404.727)" fill="#007775"/>
        <path id="Path_6449" data-name="Path 6449" d="M26.517,17.333c-.719,3.95-3.511,6.657-5.938,9.535a2.4,2.4,0,0,1-2.353.122,2.931,2.931,0,0,1-.988-2.439c1.378-4.4,3.865-7.62,9.071-7.425Z" transform="translate(192.465 191.587)" fill="#007775"/>
        <path id="Path_6450" data-name="Path 6450" d="M16.018,46.273c-.085-4.645,3.012-7.864,5.206-11.461a5.918,5.918,0,0,1,2.219-1.695c.78-.451,1.536,2.536.829,3.755-2.134,3.658-3.67,7.8-7.937,9.718Z" transform="translate(179.261 370.155)" fill="#007775"/>
        <path id="Path_6451" data-name="Path 6451" d="M45.785,20.176c-1.451,3.487-3.682,6.194-7.34,7.486a1.716,1.716,0,0,1-1.231-.268c-.39-.232-.975-.658-.951-.963.256-3.3,3.1-6.352,7.072-7.364.646-.171,1.561.683,2.451,1.11" transform="translate(405.871 213.154)" fill="#007775"/>
        <path id="Path_6452" data-name="Path 6452" d="M15.1,34.569c-1.6-4.926.451-8.315,4.584-10.791a1.963,1.963,0,0,1,1.366-.317c1.256.378,1.609,1.183.9,2.012-2.414,2.9-3.524,6.852-7.108,8.815Z" transform="translate(162.972 262.188)" fill="#007775"/>
        <path id="Path_6453" data-name="Path 6453" d="M22.075,46.747c-1.061-2.512-3.195-4.95.39-7.389,2.951-2,4.255-1.341,5.072,3.048a11.075,11.075,0,0,1,.1,1.427l.268-.293q-3.054,1.5-6.084,3Z" transform="translate(229.132 428.475)" fill="#007775"/>
        <path id="Path_6454" data-name="Path 6454" d="M20.953,39.767c-.159,2.877-.329,5.767-.488,8.645l.256-.244c-3.889-.585-7.377-1.731-8.767-5.974l-.256.329c3.633.878,5.755-2.134,8.584-3.341Z" transform="translate(130.944 438.552)" fill="#007775"/>
        <path id="Path_6455" data-name="Path 6455" d="M22.735,39.955c6.865,2.207,7.633,3.621,4.45,8.181a11.678,11.678,0,0,1-2.146,1.853c-.415-.732-1.353-1.707-1.146-2.158,1.353-2.963.122-5.523-.9-8.157Z" transform="translate(254.467 444.07)" fill="#007775"/>
        <path id="Path_6456" data-name="Path 6456" d="M41.506,7.75c-.1,3.816-1.975,5.828-5.865,5.816l.256.256a24.266,24.266,0,0,0-.975-2.475c-.61-1.183-1.268-2.341-.268-3.621a3.356,3.356,0,0,1,4.67-.988c.793.427,1.585.853,2.365,1.268Z" transform="translate(382.106 69.281)" fill="#007775"/>
        <path id="Path_6457" data-name="Path 6457" d="M36.735,24.195c-.683-5.121,3.012-7.45,6.377-9.961a1.354,1.354,0,0,1,1.061.012c.28.817.853,1.914.536,2.475-1.817,3.28-3.9,6.389-7.718,7.694Z" transform="translate(410.239 158.17)" fill="#007775"/>
        <path id="Path_6458" data-name="Path 6458" d="M43.284,17.393c-1,5.414-3.743,9.449-9.023,11.51l.232.207c.549-5.621,3.573-9.486,8.511-12Z" transform="translate(383.475 191.539)" fill="#007775"/>
        <path id="Path_6459" data-name="Path 6459" d="M17.749,38.855c-.061,2.938-.134,5.889-.2,8.84l.256-.329-5.365,3.743c-.415-.415-.829-.8-1.268-1.195,1.036-4.365,2.634-8.413,6.426-11.193Z" transform="translate(125.101 433.392)" fill="#007775"/>
        <path id="Path_6460" data-name="Path 6460" d="M15.532,57.568c-.219-.415-.683-.841-.646-1.219a5.975,5.975,0,0,1,4.206-5.3,1.872,1.872,0,0,1,1.329.3c.378.232.927.719.878,1.024-.378,2.719-3.963,5.889-5.767,5.194" transform="translate(166.591 570.868)" fill="#007775"/>
        <path id="Path_6461" data-name="Path 6461" d="M20.9,24.316c-.61,1.244-.963,2.78-1.914,3.633-1.036.939-.622,4.536-3.451,2.439a5.2,5.2,0,0,1-1.512-3.731c0-1.609,1.67-1.78,2.975-1.9,1.378-.122,2.768-.11,4.158-.159Z" transform="translate(156.922 272.16)" fill="#007775"/>
        <path id="Path_6462" data-name="Path 6462" d="M16.529,28.332c-.293-.329-.89-.756-.829-.988A8.122,8.122,0,0,1,20.126,22.2a1.334,1.334,0,0,1,1.1-.037,1.652,1.652,0,0,1,.658,1.146c-.171,2.914-3.39,5.889-5.353,5.023" transform="translate(175.677 246.904)" fill="#007775"/>
        <path id="Path_6463" data-name="Path 6463" d="M14.277,48.857c-.732-5.145.768-9.352,5.17-12.339.378.354.756.707,1.134,1.049-.671,4.572-1.829,8.864-6.413,11.193Z" transform="translate(157.812 408.734)" fill="#007775"/>
        <path id="Path_6464" data-name="Path 6464" d="M17.627,55.639a7.6,7.6,0,0,1-.671,2.621,2.838,2.838,0,0,1-2.17,1.134c-1.244-.219-1.317-1.146-.536-2.195.549-.744.866-1.658,1.353-2.451a5.539,5.539,0,0,1,.963-.963c.354.61.707,1.232,1.061,1.853" transform="translate(153.803 602.01)" fill="#007775"/>
        <path id="Path_6465" data-name="Path 6465" d="M36.134,23.163c.988-3.621,2.67-6.718,6.4-8.206l.244.232c.3,4.3-2.085,7.047-5.4,9.23-.415-.415-.829-.829-1.244-1.256" transform="translate(404.439 167.407)" fill="#007775"/>
        <path id="Path_6466" data-name="Path 6466" d="M15.062,25.605a2.312,2.312,0,0,1,2.926,2.1,3.013,3.013,0,0,1-1.28,2.292,2.158,2.158,0,0,1-3.365-1.073c-.549-1.4.329-2.634,1.719-3.316" transform="translate(147.492 285.99)" fill="#007775"/>
        <path id="Path_6467" data-name="Path 6467" d="M44.369,12.094c.78.354,2.048.512,2.3,1.122.927,2.085-.354,3.438-2.182,4.158-1.378.536-3.292.049-3.377-1.268-.122-1.841,1.268-3.377,3.255-4.011" transform="translate(460.093 135.363)" fill="#007775"/>
        <path id="Path_6468" data-name="Path 6468" d="M21.75,47.819c-1.256,1.329-2.487,2.682-3.78,3.987a5.466,5.466,0,0,1-1.183.719,26.681,26.681,0,0,1-.073-5.487c.329-1.744,1.987-1.878,3.329-1.122.695.39,1.024,1.427,1.524,2.17Z" transform="translate(185.527 509.045)" fill="#007775"/>
        <path id="Path_6469" data-name="Path 6469" d="M36.562,11.746c-.28-.817-1.049-1.926-.756-2.378A9.309,9.309,0,0,1,38.745,6.54c.354-.219,1.829.427,1.975.9.549,1.963-2.158,4.645-4.158,4.3" transform="translate(400.036 72.699)" fill="#007775"/>
        <path id="Path_6470" data-name="Path 6470" d="M28.962,24.759a3.5,3.5,0,0,1,.646-4.828,2.959,2.959,0,0,1,2.292-.5c1.024.232,1.024,1.085.28,2.085-.793,1.061-1.463,2.231-2.256,3.292-.11.146-.634-.024-.963-.049" transform="translate(316.556 216.874)" fill="#007775"/>
        <path id="Path_6471" data-name="Path 6471" d="M18.944,37.522c-.024.451-.037.914-.037,1.366.037,3.06-1.341,5.377-4.28,6.145-2.243.585-.256-4.621,3.1-7.047a4.022,4.022,0,0,1,1.329-.366Z" transform="translate(153.046 419.972)" fill="#007775"/>
        <path id="Path_6472" data-name="Path 6472" d="M11.779,47.127c-.561-4.463,1.829-7.169,5.438-9.157l1.012.914c-1.122,3.536-1.634,7.523-6.3,8.376Z" transform="translate(130.925 424.986)" fill="#007775"/>
        <path id="Path_6473" data-name="Path 6473" d="M25.469,46.01c-.719.658-1.634,2.183-2.756,2.353-1.792.268-1.707-1.488-1.536-2.792.171-1.256.073-3.024,1.963-2.841,1.4.134,2.439,1.183,2.329,3.28" transform="translate(236.089 478.117)" fill="#007775"/>
        <path id="Path_6474" data-name="Path 6474" d="M27.534,8.048a19.781,19.781,0,0,1,4.182.28c.61.159,1.061,1.231,1.39,1.975.11.244-.354,1.073-.61,1.1-.793.085-1.9.207-2.341-.232A19.989,19.989,0,0,1,27.79,7.755Z" transform="translate(308.181 86.797)" fill="#007775"/>
        <path id="Path_6475" data-name="Path 6475" d="M36.848,18.124c.744-3.207,2.621-5.267,5.95-5.853.415.427.841.841,1.268,1.256a11.435,11.435,0,0,1-5.633,6.1c-.512-.512-1.049-1.012-1.585-1.5" transform="translate(412.43 137.344)" fill="#007775"/>
        <path id="Path_6476" data-name="Path 6476" d="M39.127,15.952c-.244,1.512-1.085,2.536-2.621,2.426-.524-.037-1.463-1.39-1.378-1.488a32.6,32.6,0,0,1,2.707-2.8c.427.622.866,1.256,1.292,1.865" transform="translate(393.118 157.67)" fill="#007775"/>
        <path id="Path_6477" data-name="Path 6477" d="M35.3,21.7a16.886,16.886,0,0,1,.756-3.9,3.167,3.167,0,0,1,2.158-1.317c1.329-.244,1.646,1.548.293,2.975a17.2,17.2,0,0,1-3.28,2.17Z" transform="translate(394.287 184.232)" fill="#007775"/>
        <path id="Path_6478" data-name="Path 6478" d="M21.031,17.362c-.134,2.158-1.548,3.329-3.3,4.207-.89.451-1.6,0-1.853-1.195A1.821,1.821,0,0,1,16.1,19a4.952,4.952,0,0,1,5.145-1.427Z" transform="translate(177.235 194.326)" fill="#007775"/>
        <path id="Path_6479" data-name="Path 6479" d="M37.577,21.622c-.512-.171-.817-.841-.146-1.695a6.485,6.485,0,0,1,1.841-1.719c.183-.1,1.353.866,1.341,1.317-.049,1.39-.634,2.561-3.036,2.1" transform="translate(414.628 203.721)" fill="#007775"/>
        <path id="Path_6480" data-name="Path 6480" d="M31.2,22.876a17.28,17.28,0,0,1-.756,3.792c-.28.634-1.536,1.4-2.073,1.231-2.036-.658-.927-2.085-.171-2.865a14.7,14.7,0,0,1,3.231-1.951Z" transform="translate(304.586 256.043)" fill="#007775"/>
        <path id="Path_6481" data-name="Path 6481" d="M27.63,27.786c-.354-.719-1.11-1.548-.975-2.17.3-1.427,1.3-2.365,2.951-1.719.329.122.78.732.707.975-.4,1.378-.939,2.731-2.682,2.914" transform="translate(298.16 265.142)" fill="#007775"/>
        <path id="Path_6482" data-name="Path 6482" d="M13.644,30.051l-1.122-.866c.975-.939,1.951-1.878,2.914-2.817.3.341.866.683.878,1.036.037,1.744-1.012,2.524-2.67,2.646" transform="translate(140.156 295.139)" fill="#007775"/>
        <path id="Path_6483" data-name="Path 6483" d="M10.244,40.132l-1.049-.975,2.853-2.963c.28.4.756.793.793,1.219.122,1.78-.817,2.67-2.6,2.719" transform="translate(102.917 405.108)" fill="#007775"/>
        <path id="Path_6484" data-name="Path 6484" d="M9.375,40.234c-.707.488-1.427.975-2.134,1.463-.171-.829-.695-1.841-.4-2.463a2.523,2.523,0,0,1,2.146-1.146c1.207.244,1.28,1.232.39,2.146" transform="translate(75.572 426.112)" fill="#007775"/>
        <path id="Path_6485" data-name="Path 6485" d="M12.4,47.073c.4-3.073-.207-6.547,3.329-8.376l-.219-.219c-.524,3.134,1.536,6.962-2.439,9.181Z" transform="translate(138.835 430.661)" fill="#007775"/>
        <path id="Path_6486" data-name="Path 6486" d="M24.677,42.916c-.4-.366-.744-.671-1.085-.975.963-.963,1.926-1.914,2.878-2.877.28.39.817.8.8,1.171-.1,1.646-.951,2.67-2.6,2.682" transform="translate(264.059 437.22)" fill="#007775"/>
        <path id="Path_6487" data-name="Path 6487" d="M11.106,39.441a17.793,17.793,0,0,1-.354,4.06A2.44,2.44,0,0,1,8.7,44.745c-1.792-.439-1.67-1.9-.683-2.963a16.091,16.091,0,0,1,3.3-2.158Z" transform="translate(81.815 441.45)" fill="#007775"/>
        <path id="Path_6488" data-name="Path 6488" d="M25,43.212c-1.268.634-2.512,1.3-3.816,1.853-.28.122-1.012-.11-1.061-.3-.232-.841-.671-1.963-.317-2.585,1.012-1.8,2.9-2.219,4.865-2.28l.671.671a3.8,3.8,0,0,1-.293,2.585Z" transform="translate(220.174 446.543)" fill="#007775"/>
        <path id="Path_6489" data-name="Path 6489" d="M19.952,44.768a1.43,1.43,0,0,1-.744-1.049c-.11-1.695,1.841-3.426,3.316-2.938.378.122.914.549.939.866.073,1.146-2.548,3.463-3.512,3.121" transform="translate(214.941 455.51)" fill="#007775"/>
        <path id="Path_6490" data-name="Path 6490" d="M14.354,43.062a2.408,2.408,0,0,1-2.439,2.695c-.317.024-.683-.561-1.036-.866.914-.988,1.817-1.975,2.719-2.951l.756,1.122" transform="translate(121.766 469.421)" fill="#007775"/>
        <path id="Path_6491" data-name="Path 6491" d="M21.608,44.619a3.145,3.145,0,0,1,2.768-2.743,2.95,2.95,0,0,1,2.378.939,2.584,2.584,0,0,1-.256,2.439,2.939,2.939,0,0,1-2.365.5,10.437,10.437,0,0,1-2.585-1.183Z" transform="translate(241.17 468.547)" fill="#007775"/>
        <path id="Path_6492" data-name="Path 6492" d="M34.472,7.885a12.585,12.585,0,0,1,.707,2.243c.037.219-.573.549-.878.817a13.692,13.692,0,0,1-.683-2.256c-.037-.219.549-.536.853-.8" transform="translate(376.265 88.252)" fill="#007775"/>
        <path id="Path_6493" data-name="Path 6493" d="M28.926,10.027c-.207-.366-.622-.756-.6-1.1.1-1.28.707-1.622,1.427-.853a1.506,1.506,0,0,1,.073,1.268c-.122.293-.585.463-.9.683" transform="translate(317.067 85.842)" fill="#007775"/>
        <path id="Path_6494" data-name="Path 6494" d="M40.535,6.38c.8.341,1.524.634,2.243.939-.3.3-.683.914-.914.866a11.731,11.731,0,0,1-2.17-.878c.293-.317.573-.634.841-.927" transform="translate(444.285 71.407)" fill="#007775"/>
        <path id="Path_6495" data-name="Path 6495" d="M35.47,5.888a9.364,9.364,0,0,1,2.816.122c.549.183.866,1.073,1.292,1.646-.841.146-1.841.658-2.463.366C36.384,7.68,36.006,6.631,35.47,5.888Z" transform="translate(397.007 65.389)" fill="#007775"/>
        <path id="Path_6496" data-name="Path 6496" d="M32.56,7.327c-.39-.11-.975-.11-1.11-.366-.415-.719.11-1.171,1.28-1.024.341.049.622.512.927.78-.366.207-.732.4-1.1.61" transform="translate(350.439 66.144)" fill="#007775"/>
        <path id="Path_6497" data-name="Path 6497" d="M34.843,5.42c.4-.707.658-1.683,1.268-2.036.512-.3,1.451.11,2.207.207-.354.536-.6,1.366-1.085,1.561a7.986,7.986,0,0,1-2.487.146Z" transform="translate(388.892 36.642)" fill="#007775"/>
        <path id="Path_6498" data-name="Path 6498" d="M15.951,50.979c.146-.317.28-.9.439-.914a4.267,4.267,0,0,1,1.292.354c-.134.317-.268.89-.415.89a4.352,4.352,0,0,1-1.317-.329" transform="translate(178.535 560.351)" fill="#007775"/>
        <path id="Path_6499" data-name="Path 6499" d="M23.423,45.49a13.244,13.244,0,0,1-2.268.975c-.219.049-.61-.6-.914-.914a13.72,13.72,0,0,1,2.292-1.024c.2-.049.585.622.89.963" transform="translate(226.552 498.341)" fill="#007775"/>
        <path id="Path_6500" data-name="Path 6500" d="M16.666,44.739c-.439.159-.866.476-1.268.451s-.78-.439-1.158-.671a3.839,3.839,0,0,1,1.3-.439c.378.037.744.427,1.122.658" transform="translate(159.385 493.361)" fill="#007775"/>
        <path id="Path_6501" data-name="Path 6501" d="M1.209,40.766c.146.427.476.89.39,1.268-.3,1.414-.951,1.585-1.524.451a1.718,1.718,0,0,1,.183-1.341c.122-.232.622-.256.951-.378" transform="translate(-0.002 456.281)" fill="#007775"/>
        <path id="Path_6502" data-name="Path 6502" d="M8,40.564c.11.354.366.732.293,1.036-.268,1.158-.8,1.292-1.268.341a1.452,1.452,0,0,1,.2-1.1c.1-.183.512-.2.78-.28" transform="translate(78.09 454.02)" fill="#007775"/>
        <path id="Path_6503" data-name="Path 6503" d="M7.84,45.052c.012-2.414.28-4.706,2.9-5.84l-.256-.256c-.354,2.268.012,4.865-2.865,5.913Z" transform="translate(85.3 436.022)" fill="#007775"/>
        <path id="Path_6504" data-name="Path 6504" d="M5.524,40.7c-.695-.317-1.39-.634-2.085-.963.329-.256.719-.78.975-.719A10.994,10.994,0,0,1,6.5,39.9c-.329.268-.646.536-.975.8" transform="translate(38.492 436.7)" fill="#007775"/>
        <path id="Path_6505" data-name="Path 6505" d="M8.154,37.762c-.146.927-.268,1.853-.476,2.756-.1.451-.4,1.231-.549,1.207-1.073-.1-1.475-.914-.793-1.963A9.672,9.672,0,0,1,8.4,38.006Z" transform="translate(67.161 422.658)" fill="#007775"/>
        <path id="Path_6506" data-name="Path 6506" d="M24.3,37.282c.207,2.536.354,5.048-2.951,5.8l.2.2c-.378-2.621-.829-5.267,2.878-5.9Z" transform="translate(238.392 417.285)" fill="#007775"/>
        <path id="Path_6507" data-name="Path 6507" d="M9.042,37.471c.3.024.793-.049.866.085a1.758,1.758,0,0,1,.232,1.231c-.536,1.366-1.146,1.317-1.488-.11-.073-.354.256-.8.39-1.207" transform="translate(96.718 419.401)" fill="#007775"/>
        <path id="Path_6508" data-name="Path 6508" d="M7.425,36.909c.293.317.878.719.817.939a13.531,13.531,0,0,1-.975,2.195c-.28-.317-.829-.707-.78-.939a13.818,13.818,0,0,1,.939-2.195" transform="translate(72.56 413.11)" fill="#007775"/>
        <path id="Path_6509" data-name="Path 6509" d="M7.11,41.863c-.146-2.5.122-4.792,2.938-5.8l-.256-.219c-.134,2.341.037,4.853-2.89,5.8Z" transform="translate(77.263 401.145)" fill="#007775"/>
        <path id="Path_6510" data-name="Path 6510" d="M10.065,35.361c.037,2.451.024,4.877-2.926,5.84l.256.219c.012-2.426-.061-4.9,2.926-5.84Z" transform="translate(79.905 395.784)" fill="#007775"/>
        <path id="Path_6511" data-name="Path 6511" d="M22.856,40.889c.037-2.414-.512-5.121,2.938-5.8l-.2-.207c.012,2.036.012,4.072.024,6.109l.219-.256c-1.036.012-2.061.037-3.1.049Z" transform="translate(254.59 390.378)" fill="#007775"/>
        <path id="Path_6512" data-name="Path 6512" d="M7.635,39.018c.134-.927.219-1.853.415-2.768.1-.439.427-1.219.573-1.195,1.049.122,1.463.939.793,1.975A9.011,9.011,0,0,1,7.379,38.8Z" transform="translate(82.591 392.359)" fill="#007775"/>
        <path id="Path_6513" data-name="Path 6513" d="M10.741,34.409c-.146.378-.28.756-.427,1.134a11.9,11.9,0,0,1-.939-1.548c-.037-.085.524-.427.8-.658l.561,1.073" transform="translate(104.919 373.119)" fill="#007775"/>
        <path id="Path_6514" data-name="Path 6514" d="M9.351,33.341c.5.573,1.378,1.146,1.329,1.622-.073.658-.866,1.219-1.353,1.817-.329-.3-1-.695-.951-.927a15.848,15.848,0,0,1,.975-2.512" transform="translate(93.715 373.175)" fill="#007775"/>
        <path id="Path_6515" data-name="Path 6515" d="M13.992,27.2a11.137,11.137,0,0,1-.122,2.792c-.183.585-.951,1-1.463,1.5-.122-.817-.585-1.792-.293-2.414.354-.719,1.353-1.134,2.061-1.683Z" transform="translate(134.528 304.418)" fill="#007775"/>
        <path id="Path_6516" data-name="Path 6516" d="M39.308,22.334c-.146.268-.28.78-.427.78-1.4-.012-1.719-.488-.817-1.073.244-.159.817.183,1.244.293" transform="translate(420.359 246.234)" fill="#007775"/>
        <path id="Path_6517" data-name="Path 6517" d="M27.536,18.53a25.322,25.322,0,0,1,2.719.683c.39.134.683.6,1.012.914-.768.317-1.609.988-2.292.841-.8-.159-1.451-1.036-2.17-1.6Z" transform="translate(300.01 207.399)" fill="#007775"/>
        <path id="Path_6518" data-name="Path 6518" d="M23.157,15.493c-.536.463-1.061,1.244-1.561,1.244-.549-.024-1.085-.756-1.634-1.17.317-.293.671-.841.939-.8a13.067,13.067,0,0,1,2.256.732" transform="translate(223.43 165.201)" fill="#007775"/>
        <path id="Path_6519" data-name="Path 6519" d="M43.63,14.191c-.4.793-.793,1.573-1.195,2.365-.329-.341-1-.78-.927-1.012a14.356,14.356,0,0,1,1.134-2.4c.329.354.658.695.988,1.049" transform="translate(464.527 147.093)" fill="#007775"/>
        <path id="Path_6520" data-name="Path 6520" d="M35.123,4.341c-.488-.415-.963-.829-1.439-1.244.268.11.658.134.78.341a4.488,4.488,0,0,1,.4,1.158Z" transform="translate(377.016 34.661)" fill="#007775"/>
        <path id="Path_6521" data-name="Path 6521" d="M27.751,6.866c.293-.719.573-1.439.866-2.146,2.085,2-.488,1.414-1.073,1.926Z" transform="translate(308.293 52.827)" fill="#007775"/>
        <path id="Path_6522" data-name="Path 6522" d="M34.018,4.856c-.512.439-1.036.878-1.548,1.317.049-.341-.024-.8.171-1A3.625,3.625,0,0,1,33.8,4.637Z" transform="translate(363.428 51.898)" fill="#007775"/>
        <path id="Path_6523" data-name="Path 6523" d="M28.876,4.878c-.488.463-.963.939-1.451,1.4.122-.317.146-.793.366-.927A3.994,3.994,0,0,1,29.083,5.1Z" transform="translate(306.961 54.596)" fill="#007775"/>
        <path id="Path_6524" data-name="Path 6524" d="M32.5,7.247c-.317.256-.658.744-.951.719s-.561-.549-.829-.866c.317-.256.658-.744.951-.719s.549.561.829.866" transform="translate(343.841 71.418)" fill="#007775"/>
        <path id="Path_6525" data-name="Path 6525" d="M34.229,9.941c.11-1.878,1.244-2.695,2.987-2.877l-.256-.268c-.293,1.658-.975,2.938-2.938,2.951Z" transform="translate(380.799 76.052)" fill="#007775"/>
        <path id="Path_6526" data-name="Path 6526" d="M36.641,7.037a3.144,3.144,0,0,1-2.816,3.06l-.037-.024a3.521,3.521,0,0,1,3.06-2.841Z" transform="translate(378.18 78.761)" fill="#007775"/>
        <path id="Path_6527" data-name="Path 6527" d="M35.772,7.322c-.293.707-.6,1.414-.89,2.122-.415-.39-.841-.78-1.268-1.17.707-.329,1.414-.646,2.122-.988Z" transform="translate(376.233 81.537)" fill="#007775"/>
        <path id="Path_6528" data-name="Path 6528" d="M29.7,9.745c.951-2.56,1.878-2.487,2.78.024l.171-.171-3.194-.037Z" transform="translate(329.727 87.916)" fill="#007775"/>
        <path id="Path_6529" data-name="Path 6529" d="M30.477,11.042a14.242,14.242,0,0,1-1.085-2.036c-.049-.134.7-.536,1.085-.817l-.244-.2c0,1.085.012,2.17.024,3.255Z" transform="translate(328.953 89.472)" fill="#007775"/>
        <path id="Path_6530" data-name="Path 6530" d="M34.493,9.77c.536-.39,1.085-.768,1.622-1.158-.39.536-.78,1.061-1.183,1.6Z" transform="translate(386.071 96.389)" fill="#007775"/>
        <path id="Path_6531" data-name="Path 6531" d="M40.224,10.222c.756-1.171,1.451-2.707,2.89-.732.1.134-1.134,1.219-1.744,1.865-.39-.378-.768-.744-1.146-1.134" transform="translate(450.217 95.596)" fill="#007775"/>
        <path id="Path_6532" data-name="Path 6532" d="M40.476,11.165c.475-1.049,1.11-2.658,2.353-1.512C44,10.739,42.61,11.641,41.5,12.165Z" transform="translate(453.037 103.627)" fill="#007775"/>
        <path id="Path_6533" data-name="Path 6533" d="M43.9,10.415c-.671,1.622-1.78,2.512-3.633,2.195l.2.183a3.077,3.077,0,0,1,2.414-3.377Z" transform="translate(450.642 105.377)" fill="#007775"/>
        <path id="Path_6534" data-name="Path 6534" d="M40.266,12.775a3.6,3.6,0,0,1,2.877-2.914l-.183-.183a3.191,3.191,0,0,1-2.938,2.853Z" transform="translate(447.956 108.321)" fill="#007775"/>
        <path id="Path_6535" data-name="Path 6535" d="M40.582,9.912c-.207.415-.4.829-.61,1.231.28-.329.573-.658.854-.988Z" transform="translate(447.396 110.94)" fill="#007775"/>
        <path id="Path_6536" data-name="Path 6536" d="M28.3,11.012c-.293.232-.719.719-.866.646-1.1-.524-1.049-1.1.122-1.427.159-.049.488.5.744.78" transform="translate(298.188 114.485)" fill="#007775"/>
        <path id="Path_6537" data-name="Path 6537" d="M23.625,11.182c-.4-.207-.8-.4-1.207-.6.317.28.634.561.951.853Z" transform="translate(250.919 118.473)" fill="#007775"/>
        <path id="Path_6538" data-name="Path 6538" d="M22.5,10.89c.512.463,1.036.914,1.548,1.378-.293-.11-.707-.146-.841-.354a4.828,4.828,0,0,1-.451-1.28Z" transform="translate(251.792 119.021)" fill="#007775"/>
        <path id="Path_6539" data-name="Path 6539" d="M23.822,12.467c-.476-.4-.939-.8-1.414-1.207.219.134.5.219.634.4a7.8,7.8,0,0,1,.524,1.061Z" transform="translate(250.807 126.028)" fill="#007775"/>
        <path id="Path_6540" data-name="Path 6540" d="M39.678,11.121c-.415.744-.841,1.5-1.256,2.243-1.756-2.158.1-1.951,1.378-2.122Z" transform="translate(422 124.472)" fill="#007775"/>
        <path id="Path_6541" data-name="Path 6541" d="M33.537,11.587c1.207.354,1.622,1.012,1.085,1.878a4.345,4.345,0,0,1-1.073.9l.268.219V11.355Z" transform="translate(375.371 127.091)" fill="#007775"/>
        <path id="Path_6542" data-name="Path 6542" d="M38.085,13.38c.5-.658.927-1.8,1.524-1.9,1.89-.317,1.536.719-1.036,2.39Z" transform="translate(426.276 127.834)" fill="#007775"/>
        <path id="Path_6543" data-name="Path 6543" d="M40.99,12.07c-.293,1.768-1.085,2.951-3.121,2.719l.012.012A2.691,2.691,0,0,1,40.5,11.582Z" transform="translate(423.858 129.632)" fill="#007775"/>
        <path id="Path_6544" data-name="Path 6544" d="M40.634,11.846C40.3,13.5,39.073,14.2,37.622,14.675l.219.232a3.418,3.418,0,0,1,2.8-3.048Z" transform="translate(421.093 132.587)" fill="#007775"/>
        <path id="Path_6545" data-name="Path 6545" d="M22.535,13.231l-.427-1.049,1.036.1Z" transform="translate(247.451 136.355)" fill="#007775"/>
        <path id="Path_6546" data-name="Path 6546" d="M37.335,14.431c.756-1.536,1.841-2.536,3.719-2.134l-.219-.219a3.672,3.672,0,0,1-2.231,3.6c-.427-.4-.853-.817-1.268-1.244" transform="translate(417.881 135.183)" fill="#007775"/>
        <path id="Path_6547" data-name="Path 6547" d="M40.335,15.063c-.244-.28-.5-.561-.744-.854.3-.219.622-.646.9-.622s.5.512.756.8c-.3.219-.61.451-.914.671" transform="translate(443.132 152.072)" fill="#007775"/>
        <path id="Path_6548" data-name="Path 6548" d="M38.894,13.754l-2.951,2.914.256.256c.963-.975,1.951-1.951,2.926-2.926Z" transform="translate(402.301 153.942)" fill="#007775"/>
        <path id="Path_6549" data-name="Path 6549" d="M22.134,13.992c-.3.732-.61,1.475-.927,2.207-2.061-2.146.61-1.414,1.183-1.963Z" transform="translate(228.768 156.606)" fill="#007775"/>
        <path id="Path_6550" data-name="Path 6550" d="M37.095,13.993c-.415.463-.841.914-1.256,1.378.134-.232.232-.524.427-.646a5.42,5.42,0,0,1,1.085-.476Z" transform="translate(401.137 156.618)" fill="#007775"/>
        <path id="Path_6551" data-name="Path 6551" d="M39.547,15.282c.183-.366.366-.744.561-1.122l-.8.878Z" transform="translate(439.908 158.487)" fill="#007775"/>
        <path id="Path_6552" data-name="Path 6552" d="M39.907,14.233l-.658,1.073c.3-.28.6-.561.9-.829Z" transform="translate(439.304 159.304)" fill="#007775"/>
        <path id="Path_6553" data-name="Path 6553" d="M34.9,17.01c.317-.744.658-1.475.988-2.219,2.036,2.024-.341,1.622-1.146,2.085Z" transform="translate(388.869 165.549)" fill="#007775"/>
        <path id="Path_6554" data-name="Path 6554" d="M40.008,16.886c-.939,1.012-1.878,2.036-2.817,3.048-.427-.427-.853-.853-1.292-1.268.963-1.012,1.914-2.024,2.865-3.036.415.427.829.841,1.244,1.256" transform="translate(401.808 174.94)" fill="#007775"/>
        <path id="Path_6555" data-name="Path 6555" d="M40.732,17c.219-.4.524-1.183.622-1.158.853.219.549.6-.853.939Z" transform="translate(453.306 177.279)" fill="#007775"/>
        <path id="Path_6556" data-name="Path 6556" d="M38.774,17.147c-.61,1-1.439,2.451-2.585,1.329-1.158-1.146.268-2,1.3-2.6.427.415.853.841,1.28,1.268" transform="translate(400.226 177.727)" fill="#007775"/>
        <path id="Path_6557" data-name="Path 6557" d="M42.279,15.916c.415,1.122-.476,2.621-.89,2.28-2.475-1.975.073-1.695,1.122-2.061Z" transform="translate(451.527 178.141)" fill="#007775"/>
        <path id="Path_6558" data-name="Path 6558" d="M16.994,17.872c.415-.439.829-.89,1.244-1.329-.11.268-.159.634-.366.768a4.085,4.085,0,0,1-1.134.317Z" transform="translate(187.344 185.159)" fill="#007775"/>
        <path id="Path_6559" data-name="Path 6559" d="M18.808,16.481l.317.9-.854-.122Z" transform="translate(204.505 184.462)" fill="#007775"/>
        <path id="Path_6560" data-name="Path 6560" d="M17.858,16.632c-.4.561-.817,1.11-1.219,1.67.073-.3.037-.744.232-.89a4.977,4.977,0,0,1,1.244-.536Z" transform="translate(186.236 186.155)" fill="#007775"/>
        <path id="Path_6561" data-name="Path 6561" d="M17.943,19.078c.5-.707.988-1.427,1.488-2.134,1.914,2.073-.146,1.951-1.28,2.341Z" transform="translate(200.831 189.647)" fill="#007775"/>
        <path id="Path_6562" data-name="Path 6562" d="M34.977,19.676c.207-1.866,1.171-2.853,3.121-2.719l-.073-.073a2.9,2.9,0,0,1-2.768,3.073Z" transform="translate(391.489 188.976)" fill="#007775"/>
        <path id="Path_6563" data-name="Path 6563" d="M16.48,18.677c.329-.476.671-.939,1-1.414-.085.232-.11.524-.268.658a4.839,4.839,0,0,1-.951.549Z" transform="translate(182.005 193.218)" fill="#007775"/>
        <path id="Path_6564" data-name="Path 6564" d="M42.011,17.117a2.59,2.59,0,0,1-2.951,2.865l.244.219c.219-1.707.988-2.877,2.914-2.877Z" transform="translate(437.189 191.584)" fill="#007775"/>
        <path id="Path_6565" data-name="Path 6565" d="M39.553,17.352c-.183.439-.366.866-.536,1.3.256-.366.512-.719.768-1.073Z" transform="translate(436.696 194.214)" fill="#007775"/>
        <path id="Path_6566" data-name="Path 6566" d="M16.816,18.491l.9-.317-.1.829Z" transform="translate(188.213 203.42)" fill="#007775"/>
        <path id="Path_6567" data-name="Path 6567" d="M15.138,18.768l1-.354-.11.927Z" transform="translate(169.44 206.11)" fill="#007775"/>
        <path id="Path_6568" data-name="Path 6568" d="M19.964,21.775c.378-.732.756-1.463,1.122-2.183,1.939,2.073-.159,1.768-1.219,2.085Z" transform="translate(222.355 219.286)" fill="#007775"/>
        <path id="Path_6569" data-name="Path 6569" d="M29.437,23.657a3.129,3.129,0,0,1,2.926-3l-.207-.183a7.865,7.865,0,0,1,.707,2.28,12.573,12.573,0,0,1-1.256,1.292c-.8-.183-1.6-.4-2.39-.646Z" transform="translate(327.03 229.169)" fill="#007775"/>
        <path id="Path_6570" data-name="Path 6570" d="M40.293,21.4l-.439.829c-.415-.293-.817-.6-1.219-.89.293-.268.573-.536.866-.817.256.293.524.585.793.878" transform="translate(432.432 229.65)" fill="#007775"/>
        <path id="Path_6571" data-name="Path 6571" d="M24.9,21.221c.549.439,1.11.878,1.658,1.317-.293-.1-.707-.122-.866-.329a5.269,5.269,0,0,1-.536-1.256Z" transform="translate(278.655 234.519)" fill="#007775"/>
        <path id="Path_6572" data-name="Path 6572" d="M12.364,29.24c.39-.732.78-1.463,1.158-2.207,1.78,2.17-.122,1.865-1.341,2.012Z" transform="translate(136.339 302.571)" fill="#007775"/>
        <path id="Path_6573" data-name="Path 6573" d="M13.865,28.345c.2-.427.463-1.256.6-1.231.89.158.6.561-.841.988Z" transform="translate(152.456 303.466)" fill="#007775"/>
        <path id="Path_6574" data-name="Path 6574" d="M14.818,27.194c.012,1.268-.427,1.829-1.3,1.683.061-.341.024-.841.232-.988a4.67,4.67,0,0,1,1.317-.451Z" transform="translate(151.248 304.373)" fill="#007775"/>
        <path id="Path_6575" data-name="Path 6575" d="M27.4,28.551l-.232-.768.683.11Z" transform="translate(304.063 310.968)" fill="#007775"/>
        <path id="Path_6576" data-name="Path 6576" d="M25.707,36.218c-2.219-.927-2.146-1.865-.037-2.841l-.171-.183v3.231Z" transform="translate(269.358 371.529)" fill="#007775"/>
        <path id="Path_6577" data-name="Path 6577" d="M22.867,35.945c.268-.732.536-1.463.817-2.195.39.4.78.817,1.183,1.219-.707.28-1.414.573-2.122.866Z" transform="translate(254.579 377.753)" fill="#007775"/>
        <path id="Path_6578" data-name="Path 6578" d="M23.864,33.921c-.4.451-.8.9-1.219,1.353.085-.28.073-.658.256-.8a4.813,4.813,0,0,1,1.085-.439Z" transform="translate(253.46 379.667)" fill="#007775"/>
        <path id="Path_6579" data-name="Path 6579" d="M16.01,37.336c.037-1.78.695-3.048,2.67-3.182l.317.3c-.183,1.963-1.231,2.878-3.219,2.634Z" transform="translate(176.599 382.274)" fill="#007775"/>
        <path id="Path_6580" data-name="Path 6580" d="M23.186,37.816a3.532,3.532,0,0,1,2.926-3l-.2-.183v3.231l.244-.268H22.979Z" transform="translate(257.198 387.647)" fill="#007775"/>
        <path id="Path_6581" data-name="Path 6581" d="M24.525,35.362c-.28.707-.549,1.414-.829,2.122-.366-.39-.732-.793-1.11-1.183.683-.28,1.366-.549,2.048-.829Z" transform="translate(252.799 395.795)" fill="#007775"/>
        <path id="Path_6582" data-name="Path 6582" d="M1.938,36.278l.939-.341-.1.89Z" transform="translate(21.696 402.224)" fill="#007775"/>
        <path id="Path_6583" data-name="Path 6583" d="M13.861,36.282c.524.463,1.049.914,1.573,1.378-.341-.1-.829-.073-.988-.293a3.9,3.9,0,0,1-.378-1.292Z" transform="translate(155.143 403.776)" fill="#007775"/>
        <path id="Path_6584" data-name="Path 6584" d="M8.18,36.317c-.061,1.292-.524,1.829-1.378,1.536a1.572,1.572,0,0,1,.244-1,3.935,3.935,0,0,1,1.341-.317Z" transform="translate(75.974 406.484)" fill="#007775"/>
        <path id="Path_6585" data-name="Path 6585" d="M13.635,38.818c.427-.463.841-.939,1.256-1.4-.11.28-.134.683-.341.817a4.071,4.071,0,0,1-1.171.341Z" transform="translate(149.748 418.785)" fill="#007775"/>
        <path id="Path_6586" data-name="Path 6586" d="M6.422,38.878c.2-.4.39-.8.585-1.195-.28.317-.561.634-.829.951Z" transform="translate(69.149 421.774)" fill="#007775"/>
        <path id="Path_6587" data-name="Path 6587" d="M14.386,37.511c-.366.561-.732,1.11-1.1,1.67.061-.293.049-.671.219-.829a5.288,5.288,0,0,1,1.134-.6Z" transform="translate(148.74 419.848)" fill="#007775"/>
        <path id="Path_6588" data-name="Path 6588" d="M22.557,37.757c-.451.536-.914,1.073-1.366,1.609.073-.354.037-.866.256-1.036a4.287,4.287,0,0,1,1.3-.378Z" transform="translate(237.185 422.602)" fill="#007775"/>
        <path id="Path_6589" data-name="Path 6589" d="M13.12,39.351c.2-.415.451-1.219.561-1.195.9.171.634.561-.78.975Z" transform="translate(144.398 427.067)" fill="#007775"/>
        <path id="Path_6590" data-name="Path 6590" d="M15.61,38.237c.073,2.036-.988,2.951-2.951,2.938l.207.207c.061-1.9.914-3.024,2.963-2.926Z" transform="translate(141.689 427.974)" fill="#007775"/>
        <path id="Path_6591" data-name="Path 6591" d="M8.32,40.111l1.134-1.5c-.073.293-.049.695-.232.841A4.592,4.592,0,0,1,8.1,39.9Z" transform="translate(90.672 432.16)" fill="#007775"/>
        <path id="Path_6592" data-name="Path 6592" d="M26,38.484c-.256.695-.524,1.4-.78,2.1-.4-.354-.793-.719-1.195-1.073.683-.329,1.353-.646,2.036-.963Z" transform="translate(268.906 430.739)" fill="#007775"/>
        <path id="Path_6593" data-name="Path 6593" d="M10.855,38.716c-.061,1.951-1.256,2.719-3,2.926l.256.256c.268-1.707,1.024-2.926,2.963-2.975Z" transform="translate(87.93 433.336)" fill="#007775"/>
        <path id="Path_6594" data-name="Path 6594" d="M13.36,41.305c.378-.756.756-1.524,1.122-2.28,1.841,2.17-.28,1.78-1.341,2.061Z" transform="translate(147.084 436.794)" fill="#007775"/>
        <path id="Path_6595" data-name="Path 6595" d="M14.439,39.2l-1.414,1.6c.1-.3.122-.732.329-.878a5.079,5.079,0,0,1,1.3-.5Z" transform="translate(145.785 438.697)" fill="#007775"/>
        <path id="Path_6596" data-name="Path 6596" d="M20.637,43.2,17.7,40.153l-.244.256A3.445,3.445,0,0,1,20.5,43.384Z" transform="translate(195.369 449.42)" fill="#007775"/>
        <path id="Path_6597" data-name="Path 6597" d="M18.179,41.816c.536.414,1.073.829,1.6,1.244-.3-.061-.756-.024-.9-.219a4.485,4.485,0,0,1-.488-1.244Z" transform="translate(203.473 465.582)" fill="#007775"/>
        <path id="Path_6598" data-name="Path 6598" d="M23.337,42.084c-.378.695-.756,1.39-1.146,2.1-2.1-2.146.488-1.548,1.207-2.048Z" transform="translate(239.38 471.033)" fill="#007775"/>
        <path id="Path_6599" data-name="Path 6599" d="M10.822,45c-.463-.451-.914-.9-1.378-1.353.293.11.695.146.829.341a4.63,4.63,0,0,1,.378,1.183Z" transform="translate(105.704 488.561)" fill="#007775"/>
        <path id="Path_6600" data-name="Path 6600" d="M11.44,45.58c.366-.475.719-.963,1.085-1.439-.085.256-.085.6-.256.732a4.373,4.373,0,0,1-1.049.5Z" transform="translate(125.594 494.056)" fill="#007775"/>
        <path id="Path_6601" data-name="Path 6601" d="M19.7,44.873l.817-.293-.1.768Z" transform="translate(220.475 498.97)" fill="#007775"/>
        <path id="Path_6602" data-name="Path 6602" d="M14.97,45.4l-1.012.378.11-.975Z" transform="translate(156.229 501.465)" fill="#007775"/>
        <path id="Path_6603" data-name="Path 6603" d="M8.161,47.369l1.049-.4-.085.975Z" transform="translate(91.346 525.688)" fill="#007775"/>
        <path id="Path_6604" data-name="Path 6604" d="M15.068,50.847l-.854.354.085-.878Z" transform="translate(159.105 563.244)" fill="#007775"/>
        <path id="Path_6605" data-name="Path 6605" d="M14.5,51.771l-.78.244.122-.719Z" transform="translate(153.563 574.138)" fill="#007775"/>
        <path id="Path_6606" data-name="Path 6606" d="M20.858,37.815c-.439-.451-.89-.9-1.329-1.366.293.122.719.159.841.378a4.075,4.075,0,0,1,.268,1.207Z" transform="translate(218.583 407.962)" fill="#007775"/>
        <path id="Path_6607" data-name="Path 6607" d="M19.158,38.665c.183-.4.366-.817.536-1.231-.256.329-.524.646-.793.975Z" transform="translate(211.565 418.987)" fill="#007775"/>
        <path id="Path_6608" data-name="Path 6608" d="M20.212,37.514c-.476.5-.951,1.012-1.427,1.512.134-.293.183-.707.4-.841a5.43,5.43,0,0,1,1.28-.415Z" transform="translate(210.256 419.882)" fill="#007775"/>
        <path id="Path_6609" data-name="Path 6609" d="M20.1,34.877h3.219c-.171,1.256-.524,2.536-2.122,2.073-.524-.159-.744-1.353-1.1-2.073" transform="translate(224.952 390.367)" fill="#007775"/>
        <path id="Path_6610" data-name="Path 6610" d="M35.066,13.033c-.317,1.829-1.6,2.695-3.207,3.219,1.061-1.073,2.134-2.146,3.207-3.219" transform="translate(356.59 145.873)" fill="#007775"/>
      </g>
    </g>
  </g>
</svg>
