<svg xmlns="http://www.w3.org/2000/svg" xmlns:xlink="http://www.w3.org/1999/xlink" width="1920" height="190" viewBox="0 0 1920 190">
  <defs>
    <clipPath id="clip-path">
      <rect id="Rectangle_22" data-name="Rectangle 22" width="1920" height="190" transform="translate(163.305 -83.851) rotate(90)" fill="#fff"/>
    </clipPath>
    <clipPath id="clip-path-2">
      <rect id="Rectangle_21" data-name="Rectangle 21" width="381.305" height="2321.884" fill="#fff"/>
    </clipPath>
  </defs>
  <g id="Mask_Group_5" data-name="Mask Group 5" transform="translate(83.851 163.305) rotate(-90)" clip-path="url(#clip-path)">
    <g id="Group_12" data-name="Group 12" transform="translate(-27 -189.793)" clip-path="url(#clip-path-2)">
      <path id="Path_5" data-name="Path 5" d="M172.546,0c51.041,0,154.324,27.561,176.2,142.894s-44.988,147.985-46.178,239.838c-1.213,93.9,71.694,155.131,71.694,155.131s-103.289-76.208-97.21-170.106,43.741-174.857-3.644-194.251S207.794,310.27,244.249,409.266s78.977,106.144,110.566,216.371-72.9,207.181-72.9,207.181S353.6,731.781,311.08,697.074c-42.537-34.7-88.709,26.54-75.339,127.577s79.381,126.035,120.292,181.67c56.305,76.543,6.082,160.549-30.376,228.952C287.594,1306.717,329.3,1376.8,329.3,1376.8s-60.755-61.236-38.878-129.617,58.324-152.072,10.933-172.483-75.339,90.834-65.613,178.609,113,157.166,109.356,222.486-71.079,64.813-71.079,64.813,43.137-30.1,22.473-68.9-77.761-12.244-78.977,50.013,80.765,55.531,125.155,167.379c36.452,91.857,2.342,145.308-24.295,206.16-30.385,69.4-6.079,115.331-6.079,115.331s-34.029-24.5-21.875-100.017,40.1-121.458,9.714-189.834-92.342-7.148-89.919,84.712,72.91,162.274,6.079,303.116,32.8,213.308,32.8,213.308-91.132-35.72-109.351-114.308c-18.239-78.59,74.12-150.027,43.738-241.885S80.2,1886.084,61.974,1918.743s6.076,82.667,6.076,82.667-70.479-42.865-41.312-129.61,95.989-88.8,120.3-177.591-35.236-118.387-17.015-205.141,48.607-120.435,25.522-150.03-77.767-4.08-80.2,86.754,27.951,124.514,38.889,176.562-19.446,114.307-19.446,114.307,26.729-74.506-8.507-142.882S12.16,1470.7,15.8,1374.758,96,1278.824,140.96,1180.844s21.869-170.443-24.3-182.689c-46.184-12.244-61.98,30.624-34.029,67.36s-8.507,94.916-8.507,94.916,6.079-48.985-27.953-80.63c-34.012-31.633-47.388-88.792-9.717-150.03S160.4,814.448,165.263,691.976s-81.417-107.165-80.2-65.318S108.146,688.915,87.49,743,0,798.117,0,798.117s52.254-21.436,57.114-68.379S6.079,640.944,3.647,563.38,97.21,448.049,136.1,372.525s13.365-135.741-14.589-152.067-61.965,2.037-60.75,39.8S97.21,325.575,97.21,325.575,9.726,284.041,9.726,149.013C9.726,39.806,111.8,0,172.546,0" transform="translate(0 0.001)" fill="#fff"/>
    </g>
  </g>
</svg>
