<svg xmlns="http://www.w3.org/2000/svg" xmlns:xlink="http://www.w3.org/1999/xlink" width="1920" height="190" viewBox="0 0 1920 190">
  <defs>
    <clipPath id="clip-path">
      <rect id="Rectangle_19" data-name="Rectangle 19" width="1920" height="190" transform="translate(354 76.999) rotate(90)" fill="#fff"/>
    </clipPath>
    <clipPath id="clip-path-2">
      <rect id="Rectangle_5" data-name="Rectangle 5" width="381.305" height="2199.3" fill="#fff"/>
    </clipPath>
  </defs>
  <g id="Mask_Group_3" data-name="Mask Group 3" transform="translate(-76.999 354) rotate(-90)" clip-path="url(#clip-path)">
    <g id="Group_3" data-name="Group 3" transform="translate(-27 -189.793)" clip-path="url(#clip-path-2)">
      <path id="Path_2" data-name="Path 2" d="M172.546,2199.3c51.041,0,154.324-26.106,176.2-135.35s-44.988-140.172-46.178-227.176c-1.213-88.943,71.694-146.941,71.694-146.941s-103.289,72.185-97.21,161.125,43.741,165.626-3.644,184-65.613-129.545-29.158-223.314S323.227,1711.1,354.816,1606.7s-72.9-196.244-72.9-196.244,71.686,95.7,29.166,128.578c-42.537,32.865-88.709-25.138-75.339-120.842s79.381-119.381,120.292-172.079c56.3-72.5,6.082-152.073-30.376-216.865C287.6,961.573,329.3,895.189,329.3,895.189s-60.755,58-38.878,122.774S348.745,1162,301.354,1181.34s-75.339-86.038-65.613-169.18,113-148.868,109.356-210.74-71.079-61.392-71.079-61.392,43.137,28.516,22.473,65.258-77.761,11.6-78.977-47.373,80.765-52.6,125.155-158.543c36.452-87.008,2.342-137.636-24.3-195.276C287.99,338.354,312.3,294.85,312.3,294.85s-34.029,23.2-21.875,94.736,40.1,115.046,9.714,179.812-92.342,6.77-89.919-80.24,72.91-153.707,6.079-287.113S249.1,0,249.1,0,157.969,33.833,139.75,108.272c-18.239,74.441,74.12,142.107,43.738,229.115S80.2,412.79,61.974,381.856s6.076-78.3,6.076-78.3-70.479,40.6-41.312,122.767,95.989,84.109,120.3,168.215S111.8,706.672,130.018,788.846s48.607,114.076,25.522,142.109-77.767,3.864-80.2-82.174,27.951-117.94,38.889-167.241S94.782,573.268,94.782,573.268s26.729,70.572-8.507,135.339S12.16,806.247,15.8,897.121,96,987.991,140.96,1080.8s21.869,161.444-24.3,173.044-61.98-29.007-34.029-63.8-8.507-89.9-8.507-89.9,6.079,46.4-27.953,76.373c-34.012,29.963-47.388,84.1-9.717,142.109S160.4,1427.85,165.263,1543.86s-81.417,101.507-80.2,61.87,23.085-58.97,2.429-110.2S0,1443.32,0,1443.32s52.254,20.3,57.114,64.769S6.079,1592.19,3.647,1665.66,97.21,1774.91,136.1,1846.44s13.365,128.575-14.589,144.039-61.965-1.93-60.75-37.7,36.449-61.87,36.449-61.87S9.726,1930.26,9.726,2058.16c0,103.44,102.074,141.14,162.82,141.14" transform="translate(0 0.001)" fill="#fff"/>
    </g>
  </g>
</svg>
