<svg xmlns="http://www.w3.org/2000/svg" xmlns:xlink="http://www.w3.org/1999/xlink" width="291" height="541" viewBox="0 0 291 541">
  <defs>
    <clipPath id="clip-path">
      <rect id="Rectangle_308" data-name="Rectangle 308" width="291" height="541" transform="translate(0 523)" fill="#fff" stroke="#707070" stroke-width="1"/>
    </clipPath>
    <clipPath id="clip-path-2">
      <rect id="Rectangle_41" data-name="Rectangle 41" width="778.391" height="494.242" fill="#55c0c2"/>
    </clipPath>
  </defs>
  <g id="Mask_Group_58" data-name="Mask Group 58" transform="translate(0 -523)" clip-path="url(#clip-path)">
    <g id="Group_41" data-name="Group 41" transform="translate(236.702 270.029) rotate(86)">
      <g id="Group_25" data-name="Group 25" transform="translate(0 0)" clip-path="url(#clip-path-2)">
        <path id="Path_1889" data-name="Path 1889" d="M345.263,406.518c-3.991,3.35-11.557,3.561-17.543,5.124-2.55.662-5.4,1-8.092,1.492-3.741.662-5.376-.225-5.57-2.013-.166-1.8-2.328-2.59-5.432-2.8a38.526,38.526,0,0,0-13.358,1.225c-4.988,1.45-10.088,2.8-15.215,4.152-4.1,1.084-.471,1.379.61,2.1,2.356,1.577,1.718,2.829-1.691,3.28-5.543.732-10.864,2.041-16.85,1.633a29.123,29.123,0,0,0-12.776,2.013c-5.46,2.041-5.792,1.844-10.115-.225-2.882-1.393-5.016-3.251-9.312-3.786-.388-.042-.97-.647-.887-.676a6.231,6.231,0,0,1,2.328-.887c6.707-.436,13.469,1.267,20.2-.056a9.145,9.145,0,0,0,2.051,1.182c1.192.394,2.106.2,2.245-.38l-1.5-.211-3.1-.422c.915-2.689,5.792-2.886,9.284-3.139,14.189-1.027,25.58-5.18,37.884-8.3a9.046,9.046,0,0,0,3.492-1.886c.388-.338-.111-1.027-.443-1.506a2.319,2.319,0,0,0-1.33-.366c-10.365,3.28-21.921,3.153-33.45,3a54.772,54.772,0,0,0-11.667,1.351c-5.21,1.042-9.118.9-18.707-.1a19.23,19.23,0,0,0-3.048-.3c-2.273.155-4.573.8-6.734.661-12.554-.788-23.723,1.379-34.975,3.73-5.82,1.225-11.917,2.14-18.069,2.857-3.132.352-7.011.577-9.118-1.408l.859-.591-.582.732a142.164,142.164,0,0,0-22.06.661,2.027,2.027,0,0,1-1.247-.521.612.612,0,0,1,.3-.83c1.718-.76,3.741-1.365,5.293-2.21.8-.436,3.1-1.619.055-1.83-7.122-.493-13.912-3.181-21.644-.788-1.358.422-4.24-.549-6.485-.7-3.381-.211-7.7-.985-10.032-.239-7.7,2.505-15.714-.479-23.252.873a2.733,2.733,0,0,1-1.413-.338c.083-.45.139-1.1.693-1.309,4.212-1.534,8.591-2.942,12.831-4.448,1.829-.662,3.963-1.253,4.1-2.6,6.069.141,10.753-1.478,15.353-3.167.388-.141.721-.718.61-.76a6.456,6.456,0,0,0-2.522-.662c-5.182.985-11.2,1.408-13.275,4.687-2.134-.267-4.379-.422-6.4-.816-.859-.169-1.358-.844-2-1.309-1.691-1.211,5.238-1.647,1.109-3.026-2.633-.873-1.774-1.844-.748-2.886,1.441-1.478,2.91-2.956,4.379-4.448,2.882,0,5.321-.422,6.873-1.745.416-.1.831-.169,1.192-.282a1.971,1.971,0,0,0,.527-.324c-.471.253-.942.507-1.413.746-2.577.324-5.681.084-6.984,1.717-1.746,0-3.52-.155-5.182.014-7.677.788-8.286,1.337-6.707,5.292a5.647,5.647,0,0,1,.222,2.449c-.028.2-.8.465-1.3.535a4.265,4.265,0,0,1-1.635-.155c-2.189-.676-2.938-1.745-2.8-2.97.333-2.815-2.965-3.477-7.594-3.477-1.109,0-2.91-.169-3.132-.493-.831-1.14,1.552-.971,2.66-1.365,1.829-.662,3.63-1.351,5.376-2.069.36-.141.582-.563.416-.746a2.616,2.616,0,0,0-1.386-.479,55.625,55.625,0,0,0-16.711,1.675c-4.711,1.112-9.367,2.379-14.882,2.027-4.351-.282-7.594-.662-1.663-2.6-2.577-1.45-2.079-3.336-2.938-5.039-.471-.957-2.965-.141-4.545-.2a11.641,11.641,0,0,1-2.882-.676c-.055-.014.36-.507.637-.732a8.048,8.048,0,0,1,1.053-.69c2.079-1.225,7.289-1.112,6.457-3.5-.582-1.619-3.63-2.111-6.4-2.618-1.607-.3-3.8-.915-2.965-1.788,2.605-2.688-1.746-6.137,4.961-8.572,3.6-1.309,7.815-2.463,10.864-4.223,1.413-.816,3.852-1.6,2.716-2.928-1.081-1.239-3.1-1.225-5.709-.929-9.589,1.126-19.15,2.14-27.326,5.222-4.074,1.534-8.868,1-13.413.338-.443-.07-1.219-.3-1.164-.408a1.194,1.194,0,0,1,.831-.746c2-.577,4.046-1.14,6.152-1.619,1.58-.352,3.575-.366,4.878-.873,3.492-1.351,2.716-4.5,8.674-5a29.29,29.29,0,0,0,11.7-3.378,10.031,10.031,0,0,0,5.958-.873.622.622,0,0,0,.166-.816c-.3-.718-1.109-.985-2.134-.676-1.912.549-3.824,1.112-3.88,2.435l-1.718-.042c-2.827-.028-5.737.113-8.508-.127-3.714-.31-.249-2.731-3.353-3.336-4.794-.929-4.046-2.294-1.33-3.9,2.55-1.492,6.374-2.477,7.51-4.575.388-.69-.222-1.365-1.524-1.323-2.744.1-5.432.45-8.148.69-4.24.366-4.517.282-4.739-2.618-.083-.915-.36-1.619-1.885-2.168-4.822-1.731-4.85-1.774-1.912-2.984,3.076-1.281,6.43-2.421,8.037-4.392.249-.2.527-.38.776-.563-.166.239-.333.464-.471.7-2.771-.845-3.27-2.337-4.1-3.716-.665-1.084-2.411-2.154-.776-3.294,2.494-1.759,4.961-.521,7.427.155a9.339,9.339,0,0,0,3.215.507c8.4-1.07,17.21-.76,25.552-2.294,4.878-.9,4.988-1.239,1.746-3.153-1.219-.718,2.189-1.689,4.129-2.252a28.4,28.4,0,0,0,2.661-1.042c-1.33-.352-2.605-.76-3.991-1.042-1.358-.3-3.908-.1-2.854-1.422,1.247-1.6,6.208-3.1-.028-4.659.776-.366,1.635-.7,2.328-1.112,1.358-.788,2.605-1.619,3.88-2.449-2.467-.718-4.351.155-6.4.605a39.485,39.485,0,0,1-11.889.408l-.471-.225c-1.136-.577-2.245-1.154-3.381-1.745l.3.113C35.9,291.66,37,289.844,40.3,289.056c5.654-1.365,11.7-2.337,17.57-3.463,8.841,2.843,14.605-.619,21.007-2.674,5.792-1.872,13.386-1.858,18.319-4.645a8.129,8.129,0,0,1,3.3-.31c5.515.3,10.337.732,15.381-1.759,3.769-1.858,10.476-2.168,15.769-3.266a5.469,5.469,0,0,0,2.106-1.351c1.607-1.211,1.5-2.069-1.663-2.562-1.746-.253-5.709-.619-2.439-1.928,5.82-2.351,10.7-5.349,17.875-6.827a20.384,20.384,0,0,1,6.651-.253l-.222-.113c.055.605.111,1.2.139,1.8-.97.662-2.383,1.253-2.882,2-.887,1.337-1,2.984,1.552,3.7.915.282,3.741-.915,5.432-1.619,2.383-.971,1.663-1.8-.776-2.548a29.633,29.633,0,0,1-3.686-1.647c3.6.2,8.425-.155,8.286-1.928-.3-3.519,2.605-3.786,7.926-3.251,1.663.169,3.409.07,5.127.1l-.277-.155.333,1.872a9.589,9.589,0,0,0-1.275.282c-.194.084-.222.3-.3.45.416-.282.859-.577,1.275-.873,5.21.324,6.236-1.478,6.9-3.477.333-.183.665-.38,1-.577l-.693.718-3.686-.169.222.1a13.419,13.419,0,0,1,1.025-3.336c.637-1.07,2.522-2.379-.333-2.928a13,13,0,0,0-6.014,1.07,22.758,22.758,0,0,0-5.016,3.406,6.812,6.812,0,0,1-5.654,1.239c-1.5-.225-3.824-.408-4.794,0-13,5.363-28.434,8.15-43.871,10.937-2.106.38-4.323.788-5.21,2.027l.277-.155h-6.928c-.388-.76-.554-1.745-2.688-.633.8.253,1.607.521,2.411.774-2.716,2.041-6.457,2.238-10.7,1.562-1.413-.211-2.162-.732-1.469-1.239,1.607-1.182,3.52-2.266,5.182-3.42.665-.45,1.524-1.056,1.386-1.52-.111-.324-1.718-.69-2.716-.746a59.41,59.41,0,0,0-6.9-.1c-7.788.422-15.021,2.59-23.473,1.323-2.8-.422-6.624.647-9.811,1.281a15.133,15.133,0,0,1-6.6.267,22.366,22.366,0,0,0-11.529.422,31.052,31.052,0,0,1-11.834.563,8,8,0,0,1-3.908-1.506c-1.275-1.337.5-2.14,2.993-2.477,4.878-.662,8.619-2.731,14.522-2.379,2.882.169,6.4-1.028,9.2-1.957,10.5-3.477,21.173-5.9,33.921-2.956,1.774.408,5.46.282,6.485-.338,3.381-2.1,8.536-1.436,12.333-2.534a69.731,69.731,0,0,1,11.307-2.055c5.321-.605,8.841-2.688,13.109-4.18,3.8-1.337,7.51-2.759,11.557-3.871a31.871,31.871,0,0,1,6.651-.605c1.081-.042,2.91.084,3.187.408.8.929-1.219,1.225-2.189,1.788-.665.394-1.469,1.154-1.136,1.506.776.873,2.661,1.126,4.212.577,7.483-2.646,16.545-3.913,23.224-7.39,3.464-1.816,8.757-2.8,13.441-3.9a122.059,122.059,0,0,0,21.672-6.883c3.3-1.478,5.515-2.759,2.8-5.152-1.109-.971.333-2.28,2.633-2.886q15.215-4.054,30.485-8.009a5.5,5.5,0,0,1,2.938.535c.443.3.139,1.056-.333,1.478a5.026,5.026,0,0,1-2.411,1.2c-8.7,1.337-14.661,5.475-24.111,6.137-.859.056-1.663,1.393-1.94,2.182-.333.943,1.94,1.957,3.159,1.562,12.139-3.9,24.249-7.784,36.3-11.753,2.383-.788,4.434-1.872,5.155-3.392l-.333.155c5.349.1,8.924-1.154,10.836-3.674l-.36.169c7.566-.479,12.055-3.392,16.074-6.053,2.8-1.858,5.709-2.66,9.672-3.054,4.185-.422,7.538-1.408,9.395-3.435l-.333.169c1.691-.127,3.8.042,4.933-.422,6.679-2.646,13.136-5.419,19.566-8.22,1.3-.563,1.774-1.45.333-2.2a7.62,7.62,0,0,0-6.014-.633,16.746,16.746,0,0,0-3.436,1.872c-4.046,2.407-4.046,2.421-8.453-1.112,1.164-.591,2.3-1.182,3.464-1.774.416-.127.887-.211,1.247-.352.222-.084.3-.267.443-.408-.471.31-.915.605-1.386.9-1.8.267-2.993.83-3.464,1.774-2.106-.239-4.185-1.408-6.291-.366-6.291,3.069-14.217,4.617-21.672,6.714-17.044,4.8-33.783,9.923-49.3,15.99-3.159,1.239-6.9,2.083-10.254,3.209-7.621,2.548-16.212,4.349-21.921,8.319-3.1,2.182-8.037,3.139-13.718,3.125-3.3-.014-6.984.2-9.312,1.816l.222-.127c-1,.647-2.633,1.211-2.91,1.928-.721,1.957-1.136,3.646-5.432,1.182a2.56,2.56,0,0,0-1.386-.155c-6.707,1.971-13.053,4.068-21.7,3.28-2.494-.225-5.931,1.422-8.508,2.463a22.627,22.627,0,0,1-12.416,1.9l.222.127c1.413-1.239,2.827-2.477,4.185-3.73a.45.45,0,0,0-.166-.662,3.594,3.594,0,0,0-1.469-.225,4.2,4.2,0,0,0-1.524.324,45.349,45.349,0,0,1-21.838,4.181c-2.882-.141-5.626.507-7.316,1.9l.277-.155c-.582-.028-1.136-.028-1.691-.1-7.9-.9-8.009-1.013-5.127-5.011,2.938-.845,3.381-1.464,1.219-1.323-.637.042-1.136.7-1.691,1.084-2.661.422-5.321.873-8.009,1.267-2.467.366-4.323-.1-5.515-1.239l-.3.2c3.88-.549,3.021-2.337,3.769-3.7l-.222.127c2.245-.9,4.323-1.928,6.734-2.7,9.423-3.026,16.656-7,21.672-12.077a11.244,11.244,0,0,1,5.46-3.28c11.307-2.421,18.6-7.46,28.434-10.824,5.515-1.886,11.7-2.238,17.737-2.984l.083.042c-4.711,2.956-9.284,5.968-5.9,10.106,1.8,2.168-.693,3.322-3.631,4.223-2.411.732-5.293,1.07-7.954,1.576-.5-.479.139-1.844-2.356-.76.831.225,1.663.465,2.494.69-4.878,1.942-9.727,3.941-14.688,5.827-1.829.7.942.1-1.3-.2-.3-.042-.665-.507-.527-.7.721-1.07,1.58-2.125,2.411-3.181,1.081-.2,3.714.141,1.552-1.182-.443.436-.887.873-1.33,1.295-3.409-.028-8.314-.718-9.395,1.112a24.372,24.372,0,0,1-10.2,9.966c-.3.155.637.985,1.192,1.436a2.787,2.787,0,0,0,1.441.408,25.867,25.867,0,0,0,3.3-.155c6.1-.662,9.727-2.984,13.552-5.208,2.771-1.591,6.236-3.083,10.559-2.294,8.259,1.52,13.025-.633,17.376-3.6l-.222.113c1.663-.225,3.88-.183,4.933-.718,9.977-5.067,24.554-6.4,34.864-11.176a12.563,12.563,0,0,1,4.739-.873c7.483.028,12.915-2.182,18.734-4.1,4.794-1.576,9.727-4.012,14.827-4.181,6.485-.2,8.314-2.182,11.834-3.983,3.88-1.985,7.012-5,13.663-4.941,7.871.056,12.942-1.717,16.517-5.18,1.275-1.239,4.157-2.013,5.986-3.139,4.573-2.8,12.194-3.491,16.905-5.771,10.947-5.321,24.61-8.7,35.64-13.865,4.185-1.971,10.143-2.886,12.97-5.644,4.822-.183,8.092-1.478,10.088-3.688a7.379,7.379,0,0,0,1.3-.253c.222-.07.3-.282.416-.422-.471.282-.97.549-1.441.83-4.85.042-9.062.647-10.725,3.336-3.6.225-6.54-1.056-9.783-1.225-4.351-.211-6.762,2.013-10.226,3.012-7.012,2.041-13.8,4.293-20.979,6.137-5.57,1.422-9.145,3.491-11.169,6.376l.249-.141a19.449,19.449,0,0,0-11.39.591c-6.291,2.069-12.166,4.476-19.9,5.152-2.716.225-3.381,1.492-3.409,2.688-.055,2.9-3.3,2.731-7.76,2.7-4.434-.042-8.619,1.647-13.441,1.2l.3.141c1.691-.732,3.436-1.45,5.1-2.224,1.275-.591,2.467-1.211,3.63-1.858,1.053-.591,1.164-2.914.388-3.28-1.8-.9-2.938.028-4.1.394-4.85,1.534-9.423,3.35-15.464,3.491l-.333-.211a1.175,1.175,0,0,1,.333-1.7l-.249.141c2.411-.662,3.076-1.309-.028-1.957l.3.127c-3.076-3.392-3.27-3.744.471-5.152,6.928-2.632,14.078-5.109,21.2-7.615,5.21-1.83,10.614-3.561,15.769-5.447,1.275-.465,3.1-1.548,2.8-2.013-3.132-4.5,3.63-3.955,8.425-4.434l-.277-.141a8.289,8.289,0,0,0-1.025,1.619c-.416,1.154-1.885-.127-.443.788a4.786,4.786,0,0,0,2.494.521,31.591,31.591,0,0,0,13.025-6.419v.014c1.58-.267,4.545-.577,4.517-.8-.416-4.18,6.263-5.56,11.335-7.446a9.606,9.606,0,0,1,8.647,1.239,7.814,7.814,0,0,0-1.33.169c-.222.07-.249.31-.36.479.5-.253.97-.521,1.441-.774,3.076-.014,6.374-.31,6.457-2.125.166-3.294,2.827-5.433,8.591-6.925a64.172,64.172,0,0,0,16.212-6.475c3.326-1.914,8.286-3.1,12.526-4.6,6.125-2.182,12.693-4.195,14.827-8.206.831-1.591,3.132-2.393,5.46-3.237,7.067-2.534,14.079-5.1,21.256-7.559,9.09-3.125,18.6-5.982,27.409-9.29,6.43-2.407,12.914-4.941,15.824-9.107.887-1.239,3.714-2.154,5.764-3.153,1.663-.816,4.185-1.379,5.1-2.351,3.769-4.012,8.564-7.221,15.963-9.966a157.715,157.715,0,0,0,17.792-8.277A155.838,155.838,0,0,0,512.4,37.775a100.441,100.441,0,0,1,26.356-13.865,42.935,42.935,0,0,0,11.861-6.193,32.8,32.8,0,0,1,18.707-7.291c3.215-.253,4.822-1.351,6.818-2.435C582.519,4.528,582.6,4.7,592.08,4.909c3.658.084,3.88,1.45,3.464,2.266-2.245,4.152-2.688,8.614-7.538,12.359-1.774,1.379-2.051,2.717,1,3.786l-.277-.141c-4.517,4.5-12.693,7.179-20.286,10.022-4.517,1.689-1.192,2.829-.249,4.237-9.727-.056-10.5.239-13.968,5.25a12.129,12.129,0,0,0-1.358.3c-.194.084-.166.338-.222.507l1.33-.915c2.273-.07,4.6-.042,6.818-.239,5.487-.507,7.566-2.337,7.095-5.053,7.483,1.408,7.649,1.379,8.757-2.013.277-.845.443-1.7.748-2.548a3.141,3.141,0,0,1,.665-.8,6.114,6.114,0,0,1,5.487-1.506c2.494.38,4.046.211,5.709-.9,2.965-1.957,6.928-3.054,12.083-2.674,2.633.183,6.208-.549,7.15,1.351.637,1.295-2.439,1.774-3.769,2.646-6.762,4.363-13.275,8.825-19.871,13.259-3.132,2.111-5.46,4.715-9.423,6.25-10.753,4.166-16.018,10.163-19.788,16.145-3.159,5-7.566,9.656-10.919,14.54-2.245,3.28-5.543,5.644-10.614,7.714-4.434,1.816-4.129,2.548.665,3.322,2.661.436,6.4,1.52,7.871,1.013,4.129-1.436,8.979-2.576,11.446-5.152,2.965-3.139,5.515-6.334,9.589-9.276,5.266-3.772,11.169-7.319,16.074-11.232,1.109-.887,3.769-1.253,5.709-1.858.582.436,1.164.859,1.746,1.295.5-.436,1.025-.859,1.524-1.295a7.868,7.868,0,0,0,1.219-.211c.194-.07.249-.267.388-.408-.471.253-.915.507-1.358.76-1.247,0-2.494,0-3.769.014.637-3.026,3.381-5.546,7.039-7.9,3.547-2.308,6.707-4.772,10.226-7.08,1.552-1.013,2.8-3,6.263-1.788,2.273.8.416,2.055-.776,3.069a1,1,0,0,0-.111,1.52c1.386.929,3.159.338,4.434-.141,1.33-.493,3.159-1.211,3.27-1.886.527-3.167,4.434-5.447,7.871-7.728,2.3-1.534,2.55-5.63,8.286-3.885,4.434,1.337-1.607,3.378-3.132,5.067-.776.83-1.5,1.689.5,2.266a11.671,11.671,0,0,0,3.132.267c5.46-.07,6.042.127,5.4,2.266a4.072,4.072,0,0,1-1.635,2.449c-1.081.718-3.048.788-3.575-.324-.443-.859-.554-1.816-2.66-1.562a8.192,8.192,0,0,0-4.074,1.436c-2.688,2.7-2.661,5.644-1.885,8.586-3.686.76-3.658,4.87-10.337,2.928-1.358-.394-2.3-.211-2.55.465-.3.859-.97,1.759-.693,2.562,2,5.335-3.6,9.5-8.12,13.808-.97.943-3.575,1.408-4.85,2.308-2,1.379-3.714,2.942-3.353,4.744.083.352,1.69.915,2.522.873,4.157-.155,5.46-2.97,10-2.886l-.277-.141.249,5.377a8.643,8.643,0,0,0-2.577.957c-.3.31.582.9.97,1.365.3-.239.776-.465.887-.732a7.576,7.576,0,0,0,.5-1.689c4.129,1.281,5.6,3.477,3.27,5.278-4.185,3.266-7.649,6.475-7.316,10.472.083.774-.8,1.056-2.245.915-4.49-.422-6.125,1.182-7.372,2.843a38.632,38.632,0,0,0-3.63,5.813c-1.746,3.449-3.741,6.785-9.506,9.163-2.3.957-3.714,2.252-3.824,3.786-.222,3.42-3.88,6-7.677,8.6a33.73,33.73,0,0,0-4.878,4.617c-.166.155.194.647.471.676a8.452,8.452,0,0,0,2.827.084c.887-.3,1.247-.957,1.94-1.422,6.513-4.392,11.667-9.318,21.7-12.218,4.462-1.295,7.178-3.885,8.065-6.573.776-2.449,3.215-4.476,6.263-6.123,3.3-1.788,4.794-3.927,7.012-5.94,4.018-3.674,4.545-7.714,6.014-11.725,1.857-5.124,5.681-10.05,6.208-15.328,1.025-.211,3.63.113,1.524-1.154-.388.436-.8.873-1.219,1.309-.5.141-.97.324-1.5.422-1.552.267-3.1.521-4.656.774-.388-.816-1.607-1.83-1.053-2.407,3.741-3.871,2.8-8.53,8.591-12.077,2.605-1.591,2.55-3.7.748-5.743a20.8,20.8,0,0,1-2.383-4.1c2.411.113,4.49-.155,6.042-1.211,3.575-2.393,4.933-2.393,7.011.056.665.8.721,1.717,1.3,2.534.859,1.2,3.215,1.211,5.072.141a25.248,25.248,0,0,0,9.561-9.262c1.33-2.238,2.605-4.476,4.157-6.672.637-.929,2.633-1.239,4.24-.971,1.469.253,3.575.887,3.8,1.52,1.829,4.912,2.217,9.923-1.247,14.653-3.547,4.87-3.159,10.515-11,14.54-.249,2.323-.527,4.645-.721,6.967a5,5,0,0,1-3.048,4.828c-9.866,5.292-14.439,11.7-14.411,18.96a10.223,10.223,0,0,0-1.552.183c-.249.084-.277.366-.388.563l1.663-.887c1.136.577,3.187,1.14,3.242,1.731.055,1.394-.97,2.787-1.33,4.195-.277,1.112-1.164,2.787-.111,3.28,5.487,2.576,2.272,5.94,3.8,8.825a14.321,14.321,0,0,0,1.247,1.6l.277-.2c-3.935-.028-6.152,1-6.54,2.97-.277,1.379-.3,2.787-.471,4.18-3.076-.056-6.291.183-7.455-1.957-.36-.605-2.051-1.028-3.132-1.52-.665-2.9-.527-5.729,2.189-8.417.277-.253-.693-.859-1.247-1.253a4.846,4.846,0,0,0-1.524.282c-5.792,2.477-6.956,5.757-6.1,9.374-2.356-.014-3.215.746-3.547,1.774a8.071,8.071,0,0,0-1.413.31c-.222.084-.166.352-.222.535.443-.324.915-.662,1.386-.985,2.189-.07,3.3-.676,3.547-1.759h7.206c-1.8,3.2-3.6,6.39-5.321,9.614-.083.141.61.45,1.053.605a3.192,3.192,0,0,0,1.441.155c4.3-1.675,8.591-3.364,12.693-5.152.61-.267.277-1.084.388-1.647,3.27,1.267,4.351,3.266,1.663,4.532-6.9,3.209-12.61,6.587-13.774,11.514-.111.45-1.413.915-2.356,1.239-4.462,1.562-6.679,3.913-8.841,6.32a14.887,14.887,0,0,1-3.3,3.054c-8.286,5.011-12.721,10.866-14.854,17.215-1.192,3.533-7.788,5.574-9.339,9.093-.748,1.745-.333,2.731,2.245,3.66l-.277-.141c1.275,1.957,2.55,1.337,3.824.014l-.249.127c5.016-3.815,8.148-8.192,13.441-11.922a15.188,15.188,0,0,1,2.522-1.112c.443.521,1.192,1.028,1.275,1.562a32.784,32.784,0,0,1,.277,4.364c-1.192.183-3.464.07-1.3,1.2.388-.422.8-.845,1.192-1.267a41.713,41.713,0,0,0,4.268-.859c2.854-.873,4.794-.38,6.346.943-2.245.056-2.965.873-3.52,1.8-1.829.239-3.242.69-3.464,1.759a9.526,9.526,0,0,0-2.494.718c-.416.3-.028.859,0,1.295a6.154,6.154,0,0,0,1.8-.633c.416-.45.333-1,.443-1.506,2.106-.127,3.3-.7,3.437-1.788,2.106-.084,3.381-.633,3.575-1.745a13.316,13.316,0,0,0,8.009-4.181,14.62,14.62,0,0,1,9.589-4.532l-.249-.141c-.443,1.112-.333,2.393-1.441,3.28-2.079,1.689-4.49,3.125-5.543,5.222-1.857,3.66-5.182,6.953-13.136,8.417-3.575.647-4.129,2.59-4.129,4.392l.139-.084-3.658,1.858.166-.084c-2.965,1.647-7.593,3.1-8.453,4.983-.942,2.154-7.233,3.266-4.323,6.024.166.141-1.136.985-1.885,1.056-6.54.591-6.236,3.829-8.924,5.884-.859.662-.859,1.774.8,2.323a8.286,8.286,0,0,0,2.938-.352c2.661-.563,4.905-1.394,6.291-2.745a3.9,3.9,0,0,1,1.441-.38c.554.436,1.607,1,1.386,1.351-2.744,4.363.748,9.023-2.716,13.414-1.136,1.478.083,3.42.222,5.152a17.445,17.445,0,0,1-1.774.859c-8.453,5.588-16.933,11.12-21.921,17.848-1.746,2.379-5.654,4.335-8.591,6.489l.277-.141c-7.455,2.266-5.543,7.6-12.637,10.036-.748.253-.915,1.056-1.053,1.619a13.912,13.912,0,0,0-.139,2.632c-1.192.605-2.383,1.2-3.575,1.8-1.164.591-2.3,1.182-3.464,1.774a11.164,11.164,0,0,0-1.386.338c-.222.084-.194.338-.277.521l1.386-1c1.136-.591,2.3-1.2,3.464-1.788,2.078-.127,3.187-.774,3.575-1.788,1.607-.2,3.88-.127,4.684-.633,5.543-3.533,12.166-6.784,13-11.683l-.25.127c3.187-.8,5.931-1.773,7.095-3.632.637-1.013,2.078-1.225,3.409-.31,2.383,1.633,4.711.38,4.434-.45-.831-2.618,1.192-4.363,4.3-6.236a235.771,235.771,0,0,1,22.975-11.88,14.358,14.358,0,0,1,3.215-.436l-.249-.127a6.705,6.705,0,0,0,.721,1.661c.665.873,2.716,1.506,3.547.662,3.852-3.955,10.919-6.32,16.822-9.262l-.277-.141c-.055,2.294.693,4.561-2.466,6.7-7.51,5.138-14.8,10.374-19.982,16.272-.859.971-3.242,1.619-5.016,2.365a3.313,3.313,0,0,1-1.58.211,4.438,4.438,0,0,1-1.829-1.253c-1.386-2.491,4.268-4.152,3.1-6.63,1.718-.732,3.6-1.393,5.127-2.224,1.469-.788.831-2.322-.526-2.041a5.976,5.976,0,0,0-2.661,1.013,15.924,15.924,0,0,0-1.691,3.364c-2.55-.521-4.85-1.492-7.871-.352-3.353,1.253-5.986,2.379-5.764,4.9.3,3.322-4.268,7.038-10.282,8.8-1.358.394-2.993.366-3.3,1.351-.887,2.7-3.409,5.081-7.51,6.728-4.684,1.872.637,5.025-4.656,6.982-4.046,1.492-6.236,4.166-6.18,7l.277-.2c-5.487,1.365-9.256,3.153-7.594,6.7.416.859-1.413,1.577-3.187,1.661-2.189.1-2.633-.887-2.965-1.7-.859-2.21-1.718-4.434-2.356-6.658-.36-1.267-1.774-1.281-3.1-.69a127.685,127.685,0,0,0-22.393,13.161,9.467,9.467,0,0,0-1.413.352c-.222.1-.194.338-.3.521.471-.352.942-.69,1.386-1.028l10.7.169-.249-.113c-2.66,3.632-6.346,6.8-13.69,8.558-2.55.605-4.49,1.83-6.707,2.759-6.152,2.576-11.5,5.49-18.984,7.4-6.291,1.633-10.753,5.053-17.016,7.165-5.182,1.745-8.73,4.842-14.106,6.264-8.536,2.252-13.5,6.179-20.231,9.262-1.58.732-2.023,2.083-3.27,3.054-1.829,1.422-2.383-.014-3.436-.464a7.569,7.569,0,0,0-2.66-.788c-1.053-.014-2.079.521-3.187.619-5.681.577-7.4,3.646-11.945,4.884-4.49,1.225-10.171,1.267-13.691,3.477-.693.436-1.663,1.07-1.469,1.492.416.957,2.245,1.14,3.908.957,2.217-.239,4.379-.788,6.624-.943a18.552,18.552,0,0,1,4.85.45,4.66,4.66,0,0,1,2.051,1.295c.139.113-.249.563-.527.591-8.647,1.084-15.88,3.308-21.783,6.7a2.673,2.673,0,0,1-2.91-.169c-1.607-1.182-3.132-2.745-6.6-1.394-2.938,1.168-7.289,1.872-5.654,4.7,1.413,2.407-1.386,2.6-5.709,2.731-5.21.141-9.561,2.224-15.048,2.646-4.323.352-4.185,1.844.055,4.082a8.445,8.445,0,0,1,.942.732c-2.328,0-3.492.577-3.575,1.745-5.321-.225-8.259,1.351-10.282,3.589-2.439,0-4.905.014-7.372.014.693-.732,1.441-1.45,2.078-2.2.139-.155-.166-.577-.3-.577a8.625,8.625,0,0,0-2.771.084c-2.217,1.112-.665,1.872,1.275,2.52,2.273,1.591,4.545,1.844,6.818-.014,5.238.211,8.647-1.028,10.476-3.477,2.189-.084,3.381-.662,3.437-1.8a29.272,29.272,0,0,0,5.044-.479c12.5-3.561,24.8-7.333,37.441-10.782,5.515-1.52,11.667-2.449,17.57-3.6a2.245,2.245,0,0,1,1.192.577c.194.225.277.662,0,.788-6.956,3.463-12.111,7.882-21.173,10.191-1.5.366-2.965,1.21-4.656.45-4.157-1.872-6.513-1.689-7.871,1.267-1.053,2.294-5.127,2.97-9.229,3.477-2.494.31-3.8,1.309-3.963,2.548-.055.493.887,1.492,1.136,1.464,3.326-.239,6.6-.633,9.866-.985,2.383-3.519,8.951-3.758,14.466-4.912,2-.422,3.27-1.661,5.182-2.308a10.987,10.987,0,0,1,4.628-.662c4.767,1.154,7.76.493,9.395-1.928,1.469-2.2,4.074-3.153,8.868-3.35,2.106-.084,3.6-2.21,5.9-3.054,1.691-.619,4.24-.647,6.4-.943l-.277-.127c1.275,1.253,2.577,1.689,3.824,0l-.277.155c1.524-.394,3.021-.845,4.6-1.182,3.769-.8,8.009-.732,7.871.07-.194,1.281-1.968,2.055-3.8,2.717-6.43,2.28-10.975,6.137-20.009,6.32-9.755,3.533-19.732,6.925-29.21,10.655a104.631,104.631,0,0,1-14.189,4.941,8.229,8.229,0,0,0-3.436,1.858c-.416.366.111,1.042.416,1.548a2.073,2.073,0,0,0,1.219.282c6.624-1.731,13.164-3.5,19.787-5.236,1.524-.394,3.381-.718,4.406.352,1.081,1.126.859,2.266-1.053,3.139a12.514,12.514,0,0,1-3.021.76c-7.455,1.2-12.914,4.575-21.589,4.743-2.688.042-5.349,2.041-7.788,3.266a25.31,25.31,0,0,1-10.476,2.8c-5.1.253-10.781-.014-15.1,1.07-5.46,1.365-9.811,3.9-14.633,5.9-1.8.746-3.686,1.422-5.46,2.168-2.965,1.239.471,1.253,1.386,1.548,1.857.605,3.825,1.309,6.291.535,3.132-.985,6.6-.859,10.06-.577ZM550.731,63.956c-2.078.1-3.409.591-3.464,1.731a7.905,7.905,0,0,0-1.58.225c-.249.1-.166.436-.249.647.527-.324,1.053-.662,1.58-1,2.078-.1,3.049-.774,3.437-1.745l.942-.591-.665.732M522.879,81.621c-.3.141-.582.3-.887.436l.61-.591,3.575-1.816a13,13,0,0,0,2.633-.985c.887-.605.416-1.154-.942-1.309-.166-.028-.721.45-.831.718a13.369,13.369,0,0,0-.582,1.731l-3.575,1.816m62.633,3.533c-.3.2-.61.394-.915.577.194-.239.416-.479.61-.732l3.6-1.788c4.212-1.858,6.291-4.265,6.873-7.038.3-.2.61-.394.914-.605l-.637.746c-6.762,1.225-6.6,4.181-6.845,7.038-1.219.605-2.411,1.2-3.6,1.8M515.923,86.9c-1.192.591-2.356,1.168-3.52,1.759l-.776.633c.166-.267.333-.535.471-.8,2.162-.07,3.242-.718,3.52-1.745a7.887,7.887,0,0,0,1.524-.239c.277-.084.277-.366.388-.563-.527.31-1.081.633-1.607.957m20.924,10.627-1.247.549c.3-.225.637-.45.942-.69l.859-.676c-.166.282-.36.549-.554.816m-212.2,79.5a10.2,10.2,0,0,0-1.386.225c-.249.07-.333.282-.471.422.5-.267,1.025-.535,1.552-.8,1.164-.605,2.356-1.225,3.547-1.83,2.383.014,4.794.028,7.178.056-.166.859-.333,1.7-.471,2.562-.139.746-2.661,1.478-.222,2.168a7.88,7.88,0,0,0,3.132-.239c4.684-1.028,8.009-3.547,13.469-3.561,2.356-.014,4.268.141,6.042-.845,4.24-2.351,9.7-4.152,12.582-7.122,3.824-1.21,7.76-2.294,11.363-3.632,2.854-1.056,3.409-2.956,1.524-4.617a7.932,7.932,0,0,0-3.852-1.506c-2.189-.211-6.845,1.9-7.233,3.209a63.246,63.246,0,0,0-1.441,6.686c-2.439-.591-4.905-1.2-7.344-1.8.055-.282.111-.549.139-.83.139-.859,3.353-1.957-.36-2.52-3.436-.521-5.6.155-6.346,1.647-.859,1.633.915,2.59,3.409,3.364-.36,1.07.61,2.6-1.718,3.069-7.566,1.534-14.023,4.7-23.03,4.124.942-1.759,3.741-2.759,6.208-3.913,2.411-1.126,5.321-2.1,5.792-3.941.277-1.07-5.432-.127-10.42,1.492-4.684,1.534-5.182,4.279-8.092,6.306-1.192.605-2.383,1.211-3.547,1.83m-79.981,61.835c-2.051.127-3.159.746-3.492,1.759l-1.164.507.831-.662,3.547-1.759a11.738,11.738,0,0,0,1.552-.3c.249-.084.249-.338.388-.521-1.109-.113-1.635.211-1.663.971M533.3,242.338a7.1,7.1,0,0,0-1.192.366c-.194.084-.139.31-.194.464.36-.324.748-.647,1.109-.971,2.328.028,3.464-.591,3.575-1.745,1.635-.042,3.27-.042,4.878-.141,1.053-.07,2.079-.31,3.1-.465a18.078,18.078,0,0,0-2.356-1.013c-3.991-1.112-4.018-1.1-5.4,1.731-2.217.056-3.159.774-3.52,1.773m-52.185,26.547c-1.136.591-2.3,1.168-3.437,1.759-1.8.267-3.353.662-3.409,1.788a9.619,9.619,0,0,0-1.358.141c-.249.07-.36.282-.527.436l1.58-.718c1.746-.3,2.993-.83,3.409-1.788,1.164-.591,2.356-1.168,3.52-1.745.665-.253,1.469-.563.222.127m45.256,1.745c-1.691.366-1.968.619-.859.619.194,0,.36-.507.554-.774a8.657,8.657,0,0,0,1.552-.2c.249-.084.249-.38.388-.577-.554.31-1.109.619-1.635.929m-48.665,5.307a9.78,9.78,0,0,0-1.635.155c-.277.084-.3.394-.443.591.97.183,1.58-.113,1.8-.887l3.852-.042c-.055,1.225-.111,2.449-.139,3.674-2.3.014-3.575.549-3.464,1.774-2.356-.042-3.52.549-3.547,1.731a3.683,3.683,0,0,0-3.436,1.83c-.388.113-.8.183-1.164.324-.194.07-.249.239-.36.366.416-.281.8-.563,1.219-.845,1.912-.183,3.353-.619,3.686-1.7,2.189-.07,3.132-.76,3.409-1.788,2.051-.141,3.3-.69,3.492-1.774,3.575-.422,5.6-1.886,7.871-3.125,2.189-1.2,7.316-2.562,5.1-3.885-3.159-1.9-4.711,1.225-7.316,1.858-2,.493-3.8,1.154-5.653,1.745-1.109-.831-2.189-2.083-3.27,0m3.464,12.387c-1.164.591-2.328,1.182-3.492,1.759a42.841,42.841,0,0,0-4.711.647,1.141,1.141,0,0,0-.8,1.323c.3.549,1.469.521,2.411-.07,1.025-.647,1.885-1.351,2.8-2.041l3.492-1.774a10.547,10.547,0,0,0,1.358-.366c.249-.1.333-.281.5-.436-.527.31-1.053.633-1.552.957m-38.245,8.854c-2.134.085-3.52.549-3.437,1.759a10.157,10.157,0,0,0-1.5.1c-.3.056-.416.31-.637.464l1.829-.718c1.8-.253,2.965-.816,3.464-1.745.277-.183.554-.366.859-.535-.194.225-.388.436-.582.676m55.566,7.01c-1.8.239-3.159.7-3.409,1.731a11.176,11.176,0,0,0-1.3.282c-.194.084-.222.3-.333.45.471-.282.915-.563,1.386-.859,2.272-.014,3.409-.591,3.381-1.745l1.219-.535c-.3.225-.61.45-.942.676M300.284,330.706a11.66,11.66,0,0,0-1.164.31c-.194.07-.277.225-.416.352.416-.282.831-.549,1.247-.816a10.759,10.759,0,0,0,1.607-.239c.277-.084.36-.338.527-.521-.61.31-1.192.619-1.8.915m69.589,58.3a8.871,8.871,0,0,0-1.247.2c-.222.07-.3.253-.443.394l1.413-.732a10.767,10.767,0,0,0,1.607-.239c.249-.084.277-.352.416-.535-1.164-.155-1.746.141-1.746.915m72.776-81.47a9.822,9.822,0,0,0,2.494-.9c.388-.352,0-.929-.055-1.408-.554.282-1.358.507-1.607.831a4.421,4.421,0,0,0-.527,1.633c-.333.2-.637.394-.97.605l.665-.76M206.085,251.009c2.771-.141,5.848.042,7.067-1.731,4.49-.38,8.785-.915,10.614-3.406,1.192-.225,3.3-.211,1.192-1.253l-1.413,1.14c-5.626-.366-7.372,2-10.088,3.674-2.688.225-5.4.408-7.039,1.717a14.562,14.562,0,0,0-1.5.38c-.222.084-.3.3-.443.45.554-.324,1.081-.647,1.607-.971m365.32-31.769a12.617,12.617,0,0,0,2.3-1.182c.693-.662.166-1.126-1.053-1.084-.277.014-.554.479-.637.746a11.821,11.821,0,0,0-.3,1.675,10.181,10.181,0,0,0-1.413.183c-.249.07-.333.324-.471.479l1.58-.816m24.277-26.533c3.381-.619,3.52-2.041,3.436-3.533a10.158,10.158,0,0,0,2.633-.8c.416-.31,0-.915-.028-1.394a6.137,6.137,0,0,0-1.746.732,4.192,4.192,0,0,0-.554,1.591c-3.3.662-2.854,2.238-3.409,3.561a10.685,10.685,0,0,0-1.552.338c-.249.1-.222.38-.3.563.5-.352,1.025-.7,1.524-1.056M491.4,109.7a27.311,27.311,0,0,0,2.744-1.042c.333-.169.471-.647.249-.83-.915-.718-1.774-.605-2.162.3a13.911,13.911,0,0,0-.554,1.731,10.6,10.6,0,0,0-1.552.211c-.249.1-.249.394-.36.605.554-.324,1.081-.647,1.635-.971M359.2,378.226c1.358-.493,2.688-.971,4.046-1.478,1.192-.45,1.469-1.042.5-1.168a4.653,4.653,0,0,0-2.577.451,9.331,9.331,0,0,0-1.663,2.351,9.061,9.061,0,0,0-1.358.239c-.249.07-.333.281-.471.436.5-.281,1.025-.549,1.524-.83M578.583,226.475c-2.273.45-3.381,1.267-2.55,2.463a26.618,26.618,0,0,0,2.661,2.857c-2.882.465-4.684,1.534-5.764,2.857-.277.338.582.929.887,1.393.443-.183,1.081-.31,1.275-.549,1.136-1.267,2.162-2.548,3.215-3.843,3.464-2.224,3.464-2.224-.028-5.321a11.3,11.3,0,0,0,2.328-1.042c.776-.605.333-1.1-.859-1.182-.111,0-.443.479-.582.732-.222.549-.388,1.1-.582,1.633m-76.49,42.2c.028,1.253.028,2.52.028,3.772-4.878,1.168-2.827,3.533-3.492,5.405-.693,1.942-2.411,3.167-6.4,3.477-1.663.141-3.3.394-4.933.619-1.386.2-1.94.732-1.219,1.379a4.589,4.589,0,0,0,2.356,1.07c11.141.7,14.3-.436,16.739-5.954a6.924,6.924,0,0,0,.111-2.618c1.58-.38,1.829-.633.776-.619-.194,0-.36.479-.527.746-2.467-.887-4.462-1.914-3.741-3.646,2.716-1.168,3.409-2.337-.028-3.491.166-2.294,4.933-3,6.374-4.856a.626.626,0,0,0,0-.8,1.939,1.939,0,0,0-2.577-.352,38.727,38.727,0,0,0-5.57,3.181c-1.469,1.14-.222,2.111,2.106,2.688M408.173,150.536c-1.691-.183-3.381-.366-5.072-.521-4.739-.45-5.487-.225-7.455,2.111-1.081,1.281-.637,3.083.776,3.111,3.326.07,5.016-1.2,6.956-2.21,1.607-.83,2.993-1.759,4.462-2.646,1.192-.591,2.383-1.2,3.6-1.8,10-2.365,17.986-5.968,24.222-10.571a10.592,10.592,0,0,0,1.192-.324c.222-.07.3-.239.443-.366l-1.33.845c-12.61.845-20.092,4.729-24.249,10.571-2.023.169-3.27.746-3.547,1.8m55.427-26.7c3.353-.338,6.762-.493,8.785-2.28,2.3-2,4.988-3.871,7.289-5.856.333-.3-.36-1.182-1.025-1.408a5.621,5.621,0,0,0-2.91.183c-5.072,2.8-9.339,5.884-11.861,9.515-1.053.141-2.079.324-3.132.394-1.746.113-2.106.394-.859.83a3.025,3.025,0,0,0,1.5-.2,20.806,20.806,0,0,0,2.217-1.182m97.358,84.821c3.1.042,5.709-.394,7.178-1.9A48.328,48.328,0,0,1,583.1,196.1c.721-.324.8-1.056,1.025-1.619a.687.687,0,0,0-.5-.746,7.714,7.714,0,0,0-2.827-.648c-2,.521-4.351,1.084-5.543,1.971-4.462,3.364-8.7,6.827-12.665,10.36-1.081.943-.942,2.238-1.386,3.364a10.859,10.859,0,0,0-1.469.211c-.249.084-.222.366-.333.563.526-.3,1.025-.605,1.552-.9m-6.984,31.966-1.164-.591c.5.141.97.3,1.469.45-1.718,4.392-10.781,5.954-14.439,9.642-2.245,2.266-5.626,2.745-9.339.507a7.646,7.646,0,0,0-2.91-.183c-.416.014-.748.422-1.164.619-6.818,3.322-10.309,7.615-13.5,11.964-.277.394.637,1.013,1.109,1.506a6.891,6.891,0,0,0,1.58-.239c.97-.324,1.8-.732,2.771-1.042a8.394,8.394,0,0,1,2.716-.69c1.885.647.776,1.492.139,2.294-1.275,1.534-5.6,2.2-4.628,4.349.582,1.267,4.157.2,9.118-2.759,1.5-.887,2.744-1.872,4.157-2.8,7.039-4.6,13.358-9.586,21.423-13.7,5.349-2.731,6.984-5.926,9.145-9.191.582-.887-1.441-1.295-3.326-.859l-3.159.718M577.586,90.264c-.776-.3-1.69-.915-2.272-.83-10.531,1.295-16.434,3.941-16.573,8.6-.055,1.942-.554,3.111-2.993,4.476a120.015,120.015,0,0,0-20.231,14.16c-2.577,2.28.028,3.885,1.635,5.687a2.171,2.171,0,0,0,2.771.239c5.681-3.632,11.778-7.108,14.3-11.753.582-1.112,1.053-2.576,2.605-3.153,7.7-2.815,7.039-8.769,16.268-10.909q2.245-3.273,4.49-6.517m30.54,59.414c1-.647,2.688-1.267,2.827-1.985.166-.746-1.053-1.6-1.857-2.351a4.314,4.314,0,0,0-2-1.1c-1.136-.2-5.848,2.266-5.737,3.069.055.422.887.971,1.663,1.225,1.469.45,3.132.718,5.1,1.14M229.78,239.115c-.249-.253-.36-.549-.693-.7a2.777,2.777,0,0,0-1.3-.113c-3.326,1.1-6.651,2.2-9.783,3.392-.416.155.111.985.36,1.478a2.67,2.67,0,0,0,1.3.183c4.185-.915,8.12-2,10.115-4.237M535.877,133.6c2.134-1.309,4.351-2.6,6.4-3.969.831-.577.416-1.267-.915-1.436a5.6,5.6,0,0,0-2.882.408,40.621,40.621,0,0,0-4.046,3.758c-.194.211-.083.549.111.774a5.416,5.416,0,0,0,1.33.465M396.893,308.255a2.81,2.81,0,0,0-.388-.76c-.527-.521-1.247-.436-1.94.253-.471.479-.665,1.07-1.33,1.45-1.053.591-1.136,1.042.3,1.168a5.157,5.157,0,0,0,2.522-.619c.582-.38.582-.985.831-1.492M249.041,232.232a6.157,6.157,0,0,0-1.524-.324,28.529,28.529,0,0,0-4.656.549c-.554.127-.887,1.056-.527,1.408,1.192,1.2,2.744.366,4.046-.014,1.275-.352,2.882-.633,2.661-1.619m-107.03-31.375c-2.079.76-1.857,1.8-1.413,2.871.333.788,1.164.971,2.383.479,1.691-.676,3.52-1.394,1.774-2.6a12.055,12.055,0,0,0-2.744-.746m136.046-41.228a9.1,9.1,0,0,0-1.663-1.028c-1.885.507-3.935,1.042-3.409,2.393.277.732,1.275.9,2.162.45,1.081-.577,1.968-1.225,2.91-1.816m179.861,131.3a10.781,10.781,0,0,0-2.716-.718,12.989,12.989,0,0,0-2.938.662,10.171,10.171,0,0,0,2.744.816,11.7,11.7,0,0,0,2.91-.76m4.933,8.826c1-.577,1.968-1.126,2.938-1.689a4.585,4.585,0,0,0-1.247-.45c-1.857-.07-2.91.422-2.91,1.351,0,.211.61.408,1.219.788m-11.03-169.43a3.269,3.269,0,0,0-.915.183c-.222.183-.443.507-.277.676.554.605,1.192.535,1.524-.211.111-.183-.194-.436-.333-.647m160.628,9.4c-.249-.267-.5-.521-.776-.774-.333.225-.915.422-.97.662-.249.8.36,1.154,1.3.873.333-.1.3-.507.443-.76M411.387,301.091l-1.219.338.693.479c.637-.169,1.192-.394,1.746-.591-.416-.07-.8-.155-1.219-.225m-42.707,17.538c.111-.253.5-.563.333-.732-.665-.619-1.413-.535-1.774.225-.083.2.249.45.36.676l1.081-.169M628.357,126.467l.776.324.166-.521Zm-86.189-56.8-.582.493.831.07Z" transform="translate(94.136 62.939)" fill="#55c0c2"/>
        <path id="Path_1890" data-name="Path 1890" d="M9.207,41.019c3.769-2.59,6.4-5.264,2.411-8.431-.831-.633-.61-1.253.831-1.408a8.137,8.137,0,0,1,3.021.408,11.928,11.928,0,0,1,2.383,1.225c1.552.887,1.635,3.181,5.764,1.562,2.439-.957,1.136-1.886.166-2.984-1.552-1.788-1.025-3.73,3.076-4.18,4.767-.521,6.928-1.689,7.122-4.04.222-2.646,3.547-3.519,8.065-3.378a27.129,27.129,0,0,0,13.746-2.787c2.522-1.253,4.767-.408,5.072,1.717.388,2.7.471,2.759,3.658,1.788,3.409-1.042,6.513-2.407,10.836-2.379L75.138,18c1.136.577,2.3,1.14,3.464,1.717l.333.211c-3.1,2.2-5.182,4.307-2.328,7.179,2.272,2.28,1.663,2.421-5.376,4.744-2.91.957-5.349,2.168-6.457,3.913l.36-.127c-7.012-.69-11.806,1.548-17.072,3.266-4.074,1.337-4.462,1.225-9.007-1.14-3.353-1.745-5.4-1.717-8.37.07-1.912,1.14-2.882,2.2-2.411,3.885.637,2.407-1.3,4.561-6.18,5.616a8.432,8.432,0,0,1-3.021.1c-1.358-.267-.97-.788-.471-1.464A8.038,8.038,0,0,0,19.849,42.6c.222-1.506-1.691-2.027-5.543-1.717-1.663.127-3.353.127-5.044.183Zm50.827-9.712c2.633-.183,6.707-2.111,6.873-3.322,0-.183-.416-.465-.8-.563a9.017,9.017,0,0,0-6.069.436c-1.746.816-2.106,1.9-1.109,3.026a4.3,4.3,0,0,0,1.109.422M49.115,34.614c1.885.324,5.182-1.309,4.933-2.463a1.26,1.26,0,0,0-.915-.605c-2.3-.45-5.182.971-4.85,2.393.055.239.554.45.831.676M36.533,30.166c1.3-.45,2.66-.929,4.046-1.379,1.413-.464,1.58-.873.36-1.182a3.579,3.579,0,0,0-1.58-.07c-1.441.408-2.827.873-4.129,1.379a.462.462,0,0,0-.222.676,6.676,6.676,0,0,0,1.524.577M51.692,22.3a16.293,16.293,0,0,0-2.771,1.957c-.3.352.443.957.693,1.436A5.974,5.974,0,0,0,51,25.24,27.009,27.009,0,0,0,53.743,23.2c.139-.127-.249-.507-.582-.676a6.756,6.756,0,0,0-1.469-.225" transform="translate(245.952 214.712)" fill="#55c0c2"/>
        <path id="Path_1891" data-name="Path 1891" d="M99.7,20.167c-1.025,1.056-3.021,2.125-2.882,3.139C97.209,28.162,86.54,28.542,83.6,32c-.222.267-3.326.225-4.6-.141a15.676,15.676,0,0,0-12.277,1.154c-4.545,2.21-9.617,4.884-15.27,5.532-6.014.69-10.67,2.843-17.127,3-4.933.127-9.811,1.591-14.577,2.59a40.534,40.534,0,0,1-15.242.408c-1.386-.239-3.048-1.1-3.242-1.774-.139-.535,1.718-1.225,2.8-1.816a4.023,4.023,0,0,1,1.469-.45c18.457-1.957,32.924-8.079,49.3-12.2,11.917-3,23.834-6,35.64-9.093,4.046-1.07,6.54.352,9.478,1.1Z" transform="translate(33.599 246.149)" fill="#55c0c2"/>
        <path id="Path_1892" data-name="Path 1892" d="M21.726,44.956c-.416-1.182-.388-2.294,1.3-3.28a14.616,14.616,0,0,0,3.048-2.1c1.524-1.591-2.882-3.322.277-4.912,2.439-1.239,5.016-2.407,7.4-3.674.748-.394.8-1.154,1.58-1.52,3.686-1.788-.776-4.7,3.52-6.376,3.63-1.408,8.092-2.52,10.725-4.321a110.194,110.194,0,0,1,16.1-9.093A116.8,116.8,0,0,1,77.79,4.8c1.663-.549,4.351-.324,6.6-.436l-.277-.127c-1.053,1.816-2.079,3.617-3.132,5.419-2.134.127-3.187.8-3.575,1.8-.36.169-.748.324-1.136.479.277-.211.554-.422.831-.619,1.192-.605,2.383-1.2,3.6-1.8l3.631.127-.222-.113c1,1.957-.776,3.5-3.436,4.659-9.617,4.124-19.206,8.22-24.831,14.146C43.758,32.049,37.578,38.65,27.435,43.309a38.387,38.387,0,0,1-5.9,1.548Z" transform="translate(574.421 55.379)" fill="#55c0c2"/>
        <path id="Path_1893" data-name="Path 1893" d="M81.091,7.653c2.272,0,4.628-.155,6.818.042,1.635.155,3.159.859,1.857,1.83a58.623,58.623,0,0,1-6.208,4.152,8.654,8.654,0,0,1-6.18.915c-4.185-1.225-7.095-1.028-10.06.985-4.794,3.251-10.032,6.334-15.021,9.5-7.871,4.969-17.487,9.149-24.554,14.456-1.136.859-3.769,1.168-5.737,1.745l.222.127C20.842,34.665,28.519,29.865,35.7,24.924c4.434-3.04,11.418-4.631,15.575-8.009,3.852-3.111,10.476-5.349,15.935-7.953,5.4-2.576,10.808-5.152,16.3-7.7a2.837,2.837,0,0,1,2.965.338.541.541,0,0,1,.194.7c-.443.549-1.053,1.042-1.552,1.562C83.863,5.176,82.643,6.485,81.4,7.794c-.416.113-.859.183-1.219.324-.194.084-.222.282-.3.422.388-.3.8-.591,1.219-.887" transform="translate(587.859 13.027)" fill="#55c0c2"/>
        <path id="Path_1894" data-name="Path 1894" d="M34.785,29.393c8.564-2.252,16.49-4.856,20.868-9.5A5.766,5.766,0,0,1,57.62,18.54a8.967,8.967,0,0,1,5.986-.873c2.189.577,2.356,1.816,2.356,2.984l.249-.183c-6.513,4.195-11.5,8.952-19.067,12.767-1.386.7-1.358,2.125-1.968,3.209l.222-.113c-2.245.647-2.577,1.295,0,1.942l-.222-.113c-3.159,1.928-6.346,3.829-9.45,5.785a9.888,9.888,0,0,1-5.9,1.112c-3.714-.183-6.125-1.633-3.963-2.674,6.762-3.237,4.157-7.488,5.57-11.3l-.166.084c1.219-.619,2.467-1.239,3.686-1.858Z" transform="translate(669.029 228.168)" fill="#55c0c2"/>
        <path id="Path_1895" data-name="Path 1895" d="M20.824,49.779a36.028,36.028,0,0,1-4.157-1.45c-.61-.31-.859-1.379-.859-1.379C25.979,45.373,34.238,41.474,45.1,40.8l1.33.465c-.554-.1-1.081-.211-1.607-.324,1.441-.873,2.55-2.055,4.379-2.59,5.958-1.731,12.139-3.252,18.291-4.8,1.413-.352,3.326-.732,4.157.352.249.338-.721,1.056-1.469,1.436-3.215,1.6-8.951,1.365-10.975,3.843-1.053.113-2.106.183-3.132.31a4.961,4.961,0,0,0-1.413.282c.055.605.942.831,2.162.436A11.484,11.484,0,0,0,58.9,39.025c2.272.014,4.545-.056,6.79.084a3.9,3.9,0,0,1,1.94,1.07c.139.141-.36.549-.748.746a6.863,6.863,0,0,1-2.577,1.056c-7.039.31-11.945,3.491-18.18,3.927-7.455.535-11.612,3.547-18.18,4.49-2.91.422-5.4.8-7.372-.746a7.292,7.292,0,0,0,1.469-.239c.222-.084.139-.38.222-.591-.471.324-.97.633-1.441.957" transform="translate(422.288 433.951)" fill="#55c0c2"/>
        <path id="Path_1896" data-name="Path 1896" d="M28.026,24.271c.028-4.068-1.691-8.192,1.69-12.133,1.524-1.774-3.88-1.942-3.187-3.477a15.017,15.017,0,0,1,2.023-3.322,3.648,3.648,0,0,1,2.189-1.013,5.5,5.5,0,0,1,2.91.718,7.7,7.7,0,0,1,1.413,2.477,2.732,2.732,0,0,0,.527.816,1.661,1.661,0,0,0,2.494-.084A33.979,33.979,0,0,1,41,5.1a8.669,8.669,0,0,1,2.91-.7,1.7,1.7,0,0,1,.859.7c.942,2.576,1.774,5.138-.083,7.77a51.1,51.1,0,0,0-4.3,7.545C38.613,24.172,38.225,24.355,28.3,24.4Z" transform="translate(707.049 56.541)" fill="#55c0c2"/>
        <path id="Path_1897" data-name="Path 1897" d="M18.489,22.129c.8-.746,1.275-1.675,2.439-2.224,6.734-3.153,13.524-6.25,20.48-9.276A49.408,49.408,0,0,1,48.614,8.32a6.232,6.232,0,0,1,2.993.549c.693.338,1.5,1.2,1.164,1.45-3.852,2.871-7.787,5.715-11.972,8.46a9.468,9.468,0,0,1-6.236,1c-4.3-.76-6.6.352-8.148,2.041-2.633,2.886-5.432.535-8.176.183Z" transform="translate(487.256 108.244)" fill="#55c0c2"/>
        <path id="Path_1898" data-name="Path 1898" d="M2.425,25.055c7.4.774,14.356-1.168,21.866-.873,3.27.127,6.79-1.816,10.337-2.688a10,10,0,0,1,3.187.31c1.469.239,1.524.7,1.025,1.422-1.192,1.619-1.635,3.463-5.182,4.321-4.1.985-8.286,1.914-12.443,2.857-5.737-2.2-15.048-1.295-18.485-5.5Z" transform="translate(64.78 280.265)" fill="#55c0c2"/>
        <path id="Path_1899" data-name="Path 1899" d="M39.354,29.926c1.663.591,6.762-.169,3.658,2.337-.582.479-1.552.845-2.189,1.323-3.492,2.745-10.448,4.1-11.917,7.7-.3.718-3.132.38-4.185-.141-2.882-1.436-.333-3.308-1.857-4.884-1.718-1.8,1.718-2.224,3.714-3.2,2.827-1.351,4.628-3.237,7.095-4.8.97-.605,2.771-1.281,4.185-.549,1.053.535,1.192,1.534,1.746,2.337-1.663.31-1.968.563-.887.619.166.014.416-.479.637-.746" transform="translate(598.335 358.244)" fill="#55c0c2"/>
        <path id="Path_1900" data-name="Path 1900" d="M42.523,7.164a5.527,5.527,0,0,1,1.275.493.637.637,0,0,1,.139.718c-1.025,2.337-3.27,4.321-6.79,5.926-4.24,1.928-8.508,3.857-12.859,5.715a6.6,6.6,0,0,1-3.159.408c-2.189-.507-.776-1.351-.3-2.111,1.968-3.111,4.3-6,11.557-6.869,4.185-.507,6.346-2.337,8.591-4.012a5.677,5.677,0,0,1,1.552-.267" transform="translate(532.644 93.677)" fill="#55c0c2"/>
        <path id="Path_1901" data-name="Path 1901" d="M39.757,9.166c3.159,2.914.166,5.152-4.794,7.122-2.217.887-4.157,1.971-6.263,2.928a3.8,3.8,0,0,1-1.524.183,6.6,6.6,0,0,1-1.3-1.534.62.62,0,0,1,.166-.83c5.155-3.575,7.677-7.7,9.838-11.908.416-.76.693-1.661,2.688-1.379.637.084,1.053,1,1.136,1.548a28.92,28.92,0,0,1,.055,3.871" transform="translate(688.639 48.308)" fill="#55c0c2"/>
        <path id="Path_1902" data-name="Path 1902" d="M3.848,26.791c.194-.267.249-.69.61-.774,7.788-1.788,15.6-3.561,23.5-5.25.554-.113,2.411.479,2.467.788.111.8.028,2.168-.8,2.351-7.843,1.745-15.686,3.547-24.249,4.237-2.3.183.471.2-1.247-.605-.3-.141-.194-.493-.277-.746" transform="translate(102.794 271.364)" fill="#55c0c2"/>
        <path id="Path_1903" data-name="Path 1903" d="M15.033,25.428c-3.908-.324-7.843-.535-11.667-1.013C1.925,24.232.234,23.556,1.038,22.5a4.207,4.207,0,0,1,2.134-1.182,14.252,14.252,0,0,1,3.353-.253c7.677.127,14.91,2.322,22.891,1.351.083-.014.582.422.582.647a.772.772,0,0,1-.554.718c-4.739.746-9.173,2.182-14.411,1.647" transform="translate(22.186 275.401)" fill="#55c0c2"/>
        <path id="Path_1904" data-name="Path 1904" d="M25.126,35.524c0-.929-.527-1.886.083-2.576,2.938-3.308,8.314-5.49,14.023-7.5a2.392,2.392,0,0,1,1.33.169c.5.493,1.386,1.295,1.025,1.548C37.375,29.879,33,32.54,28.534,35.144c-.5.3-1.857.225-3.409.38" transform="translate(665.552 332.264)" fill="#55c0c2"/>
        <path id="Path_1905" data-name="Path 1905" d="M16.077,39.106c1.164-3.294,9.2-2.984,11.584-5.743.859-1.028,2.882.056,4.406.084,2.8.07,5.57.239,8.342.366l-.222-.127c-5.46,4.9-14.522,5.532-24.333,5.292Z" transform="translate(423.544 430.478)" fill="#55c0c2"/>
        <path id="Path_1906" data-name="Path 1906" d="M26.521,30.941c3.658-3.9,7.206-7.84,11.058-11.683,3.575-3.575,5.016-4.209,5.9-2.956,1.358,1.9-.8,3.336-2.134,4.884-2.771,3.181-8.591,5.419-10.42,8.924-.222.408-3.049.479-4.656.69Z" transform="translate(701.819 205.45)" fill="#55c0c2"/>
        <path id="Path_1907" data-name="Path 1907" d="M36.717,10.3a34.712,34.712,0,0,0-2.993,4.166,34.854,34.854,0,0,0-1.746,5.025,11.291,11.291,0,0,1-2.189-.619c.859-2.731-6.762-5.11-1.192-8.023,1.94-1.013,3.575-2.2,5.376-3.28a6.928,6.928,0,0,1,1.469-.394,16.011,16.011,0,0,1,1.247,1.548c.166.267.028.577.028,1.576" transform="translate(709.056 93.834)" fill="#55c0c2"/>
        <path id="Path_1908" data-name="Path 1908" d="M36.375,21.525c-1.275.408-2.827,1.351-3.963,1.225-6.374-.676-8.591-3.758-4.878-6.419a3.293,3.293,0,0,1,1.219-.577,14.359,14.359,0,0,1,2.91-.408c2.189,1.872,5.931,3.463,4.711,6.179" transform="translate(687.392 200.354)" fill="#55c0c2"/>
        <path id="Path_1909" data-name="Path 1909" d="M34.188,27.146c-1.081,3.6-5.792,5.912-11.5,7.826-3.215-4.715,4.3-6.461,9.533-8.8a2.4,2.4,0,0,1,1.219.183c.36.183.471.479.748.788" transform="translate(585.377 341.908)" fill="#55c0c2"/>
        <path id="Path_1910" data-name="Path 1910" d="M26.122,12.661c-1.136-3.209-.36-6.25,3.326-8.994A4.42,4.42,0,0,1,33.494,2.7c1.109.38,2.217,1.45,1.968,2.055a10.767,10.767,0,0,1-3.242,3.871,69.549,69.549,0,0,1-6.4,3.885Z" transform="translate(684.925 32.919)" fill="#55c0c2"/>
        <path id="Path_1911" data-name="Path 1911" d="M13.581,32.924c-1.635-.169-3.852-.056-4.822-.563a45.717,45.717,0,0,1-7.233-4.744C.112,26.449,2.606,26.2,4.02,26.013a25.14,25.14,0,0,1,5.044-.127c2.467.183,4.49,1.028,4.018,2.28-.637,1.689-2.273,3.28.194,4.912Z" transform="translate(29.541 337.553)" fill="#55c0c2"/>
        <path id="Path_1912" data-name="Path 1912" d="M44.05,20.049C40.863,23.568,34.738,25.665,29.112,28a6.83,6.83,0,0,1-2.965.239c-1.192-.183-1.219-.83-.194-1.365,3.963-2.013,7.787-4.11,12.055-5.926,1.469-.633,4.157-.535,6.291-.774Z" transform="translate(673.621 262.159)" fill="#55c0c2"/>
        <path id="Path_1913" data-name="Path 1913" d="M31.938,21.019c-5.57-.014-11.169-.014-16.739-.042a6.538,6.538,0,0,1-1.5-.394,9.652,9.652,0,0,1,1.524-1.2c4.628-2.393,9.921-1.253,14.938-.507.859.141,1,1.506,1.469,2.308Z" transform="translate(366.056 234.641)" fill="#55c0c2"/>
        <path id="Path_1914" data-name="Path 1914" d="M35.5,28.706c.748,4.673-6.734,5.391-12.748,6.813a4.84,4.84,0,0,1-1.58-.127c-1.441-.282-1.718-.9-.3-1.281,5.376-1.464,7.677-5.166,14.91-5.25Z" transform="translate(532.494 375.355)" fill="#55c0c2"/>
        <path id="Path_1915" data-name="Path 1915" d="M37.7.886A29.908,29.908,0,0,1,26.25,8.022a2.565,2.565,0,0,1-1.275.127c-.388-.127-.887-.493-.776-.662C26.305,4.222,28.439.97,36.338.2c.443.239.887.465,1.358.69" transform="translate(646.026 2.566)" fill="#55c0c2"/>
        <path id="Path_1916" data-name="Path 1916" d="M19.958,24.364c-4.434,1.154-7.538,3.491-13.081,3.7A1.666,1.666,0,0,1,5.685,27.5C5.464,27.01,5.1,26.278,5.6,26.01a25.314,25.314,0,0,1,12.166-2.688,4.6,4.6,0,0,1,1.524.31c.277.113.333.366.665.732" transform="translate(142.942 304.955)" fill="#55c0c2"/>
        <path id="Path_1917" data-name="Path 1917" d="M18.048,23.929c-3.381.859-6.457,2.224-10.7,1.619-1.413-.211-1.968-.633-1.33-1.126a18.524,18.524,0,0,1,11.945-3.857l-.222-.141V24.14Z" transform="translate(153.804 267.062)" fill="#55c0c2"/>
        <path id="Path_1918" data-name="Path 1918" d="M10.042,25.042c.748-2.2,4.545-3.04,7.483-4.237a5.879,5.879,0,0,1,4.434-.042c1.33.563.8,2.28-1.109,2.928a18.77,18.77,0,0,1-4.323,1.126c-2.106.225-4.379.127-6.568.183Z" transform="translate(266.04 266.075)" fill="#55c0c2"/>
        <path id="Path_1919" data-name="Path 1919" d="M36.618,5.868c.249,1.872-1.8,3.336-3.464,4.842-1.968,1.8-3.714,3.6-3.769,5.715l.194-.1c-2.494-.3-3.8-1.126-3.326-2.393,1.219-3.392,3.464-6.5,10.088-8.192Z" transform="translate(698.762 75.071)" fill="#55c0c2"/>
        <path id="Path_1920" data-name="Path 1920" d="M33.9,28.332c-2.522,4.575-4.545,5.447-12.527,5.335A4.515,4.515,0,0,1,19.9,33.3c-.887-.366-.693-.845.471-1.323a51.883,51.883,0,0,1,13.746-3.533Z" transform="translate(516.801 370.465)" fill="#55c0c2"/>
        <path id="Path_1921" data-name="Path 1921" d="M44.375,16.786c-3.3,1.872-6.568,3.758-9.894,5.6a14.673,14.673,0,0,1-7.455,1.45l.249.113c4.018-3.477,8.979-6.362,17.4-7.024Z" transform="translate(721.961 219.492)" fill="#55c0c2"/>
        <path id="Path_1922" data-name="Path 1922" d="M32.212,4.309c-1.8,2.59-5.543,4.237-10.226,5.419l-.222-.141a4.2,4.2,0,0,1-.139-.816c.166-5.49.166-5.49,10.808-4.335Z" transform="translate(577.681 49.998)" fill="#55c0c2"/>
        <path id="Path_1923" data-name="Path 1923" d="M32.148,5.555C31.012,7.736,25.912,7.919,24,9.763a1.56,1.56,0,0,1-2.328-.493c-1.025-1.774-.194-3.941,2.356-4.786,3.048-1.013,5.293.507,7.871.929Z" transform="translate(567.518 54.172)" fill="#55c0c2"/>
        <path id="Path_1924" data-name="Path 1924" d="M22.631,32.825c-.527-3.575,3.963-5.757,8.508-7.925a3.027,3.027,0,0,1,1.192.3c.36.2.831.493.748.718-.388,1.1-.36,2.351-1.5,3.223a19.968,19.968,0,0,1-9.2,3.575Z" transform="translate(597.903 325.462)" fill="#55c0c2"/>
        <path id="Path_1925" data-name="Path 1925" d="M11.772,28.435c-.333.859-.637,1.689-3.048,1.393-.554-.07-1.053-.183-1.607-.282-2.8-.493-5.376-1.154-4.656-3,.194-.422,1.524-.9,2.494-1.013,3.409-.408,5.266.633,6.513,2.055.222.253.194.563.3.845" transform="translate(62.445 332.724)" fill="#55c0c2"/>
        <path id="Path_1926" data-name="Path 1926" d="M13.12,24.612c.97-1.6,3.076-3.153.831-4.927-.166-.127,1.3-1.1,1.774-1.056a6.554,6.554,0,0,1,2.771.943c2.466,1.534,1.524,3.322,1.275,5.053l.333-.169c-2.411,0-4.85.014-7.261.014Z" transform="translate(343.082 243.59)" fill="#55c0c2"/>
        <path id="Path_1927" data-name="Path 1927" d="M11.892,23.5a14.2,14.2,0,0,0-2.245-1.2c-1.275-.465-3.159-.873-2.494-1.788.8-1.112,2.965-1.717,5.293-1.675,2.855.042,3.242,1.253,3.464,2.379.222,1.323-1.247,2.069-3.492,2.534Z" transform="translate(187.396 246.296)" fill="#55c0c2"/>
        <path id="Path_1928" data-name="Path 1928" d="M25.077,35.575c-1.3,1.211-8.037,1.886-10.254,1-.36-.141-.665-.465-.665-.7-.028-.985,1.5-1.3,2.938-1.633,2.744-.633,5.266-.69,7.344.591.333.211.416.493.637.746" transform="translate(378.21 441.976)" fill="#55c0c2"/>
        <path id="Path_1929" data-name="Path 1929" d="M26.064,7.383c-1.053-1.717-.693-3.364,1.58-4.758A12.723,12.723,0,0,1,31.634,1.3c1-.183,2.217,2.041,1.469,3.012-1.219,1.619-2.938,3-6.818,3.181Z" transform="translate(681.159 16.887)" fill="#55c0c2"/>
        <path id="Path_1930" data-name="Path 1930" d="M24.012,10.912c.5-3.491,4.24-5.743,10.42-7.052l-.277-.127c-.416,3.5-4.185,5.757-10.393,7.066Z" transform="translate(634.795 48.814)" fill="#55c0c2"/>
        <path id="Path_1931" data-name="Path 1931" d="M13.7,23.27c-.277.676-3.464,1.309-6.457.732-1.33-.267-1.635-.718-1.164-1.323.915-1.14,2.467-1.872,4.988-1.689,1.718.127,2.965.676,2.633,2.28" transform="translate(156.822 274.097)" fill="#55c0c2"/>
        <path id="Path_1932" data-name="Path 1932" d="M24.987,33.959c-.249-1.408-1.081-2.886,1.275-4.026a5.59,5.59,0,0,1,2.8-.338c.776.2,1.663.985,1.441,1.337-.915,1.408-3.048,2.322-5.792,2.871Z" transform="translate(658.235 386.177)" fill="#55c0c2"/>
        <path id="Path_1933" data-name="Path 1933" d="M32.687,6.224c.748,1.379-2.744,3.449-5.9,3.42A1.763,1.763,0,0,1,25.62,9.1C24.594,7.659,28.031,5.647,31.3,5.773a5.167,5.167,0,0,1,1.386.45" transform="translate(679.469 75.418)" fill="#55c0c2"/>
        <path id="Path_1934" data-name="Path 1934" d="M33.644,9.507c-1.136.028-2.3.07-3.436.056a6.7,6.7,0,0,1-1.5-.282c-1.358-.394-1.3-.83-.083-1.393A16.832,16.832,0,0,1,36.3,6.269a11.6,11.6,0,0,1,1.58.3c-.5.38-1,.746-1.524,1.112-1,.662-2.023,1.295-3.048,1.957Z" transform="translate(740.036 81.862)" fill="#55c0c2"/>
        <path id="Path_1935" data-name="Path 1935" d="M21.95,32.154c-.277-.239-.859-.507-.776-.7.8-1.928,3.575-2.843,7.012-3.35a2.026,2.026,0,0,1,1.275.521c.582,1.2-4.767,3.688-7.51,3.533" transform="translate(565.412 367.389)" fill="#55c0c2"/>
        <path id="Path_1936" data-name="Path 1936" d="M29.128,8.35a9.1,9.1,0,0,1-6.374,2.224,3.063,3.063,0,0,1-1.386-.352c-1.025-.619.693-2.984,2.91-3.35,1.164-.2,2.854.394,4.212.7.36.084.416.493.637.774" transform="translate(562.695 89.339)" fill="#55c0c2"/>
        <path id="Path_1937" data-name="Path 1937" d="M37.025,17.414c.028,1.774-1.386,3.252-3.991,4.378-2.716,1.168-4.878.76-6.291-.845l-.222.183c3.658-1.14,6.014-3.266,10.7-3.617Z" transform="translate(708.497 227.704)" fill="#55c0c2"/>
        <path id="Path_1938" data-name="Path 1938" d="M26.521,15.988c1.386-.8,2.771-1.619,4.213-2.393,1.108-.591,2.162-.493,2.411.267A2.923,2.923,0,0,1,33.2,16.27a4.271,4.271,0,0,1-4.545,1.675c-.97-.169-1.247-1.408-1.857-2.154Z" transform="translate(708.471 172.771)" fill="#55c0c2"/>
        <path id="Path_1939" data-name="Path 1939" d="M16.956,36.372c2.356-3.519,7.982-3.674,13.94-3.491l-.3-.155c-3.714,2.083-7.649,3.969-13.857,3.519Z" transform="translate(447.025 427.92)" fill="#55c0c2"/>
        <path id="Path_1940" data-name="Path 1940" d="M7.319,23.669c2.827-.084,5.626-.239,8.453-.239,1.5.014,3.52.1,3.048,1.267-.166.422-1.413.859-2.356,1.07-4.573.971-7.594.2-8.868-2.252Z" transform="translate(195.517 306.368)" fill="#55c0c2"/>
        <path id="Path_1941" data-name="Path 1941" d="M11.7,25.25c-2.66-.141-5.321-.225-7.926-.493-.582-.07-1.33-.915-1.136-1.295a3.216,3.216,0,0,1,2.189-.971c3.824-.07,5.9,1.056,6.651,2.9Z" transform="translate(69.612 294.047)" fill="#55c0c2"/>
        <path id="Path_1942" data-name="Path 1942" d="M3.24,25.59C3.212,24.52,7.231,22.48,10,22.268a1.668,1.668,0,0,1,1.109.591c.61,1.323-3.132,3.167-6.457,3.2A5.04,5.04,0,0,1,3.24,25.59" transform="translate(86.552 291.159)" fill="#55c0c2"/>
        <path id="Path_1943" data-name="Path 1943" d="M7.736,24.38c-.665.324-1.33.915-1.968.915C3.33,25.28,1.5,24.478,1.03,23.38c-.249-.535,1.3-1.309,2.273-1.858a5.568,5.568,0,0,1,2.356.605A14.254,14.254,0,0,1,7.736,24.38" transform="translate(26.795 281.208)" fill="#55c0c2"/>
        <path id="Path_1944" data-name="Path 1944" d="M25.053,29.058c-.055-.225-.3-.493-.166-.676,1.164-1.464,4.129-2.365,6.319-1.928a3.093,3.093,0,0,1,1.136.577c-1.386.845-2.827,1.675-4.351,2.463a4.206,4.206,0,0,1-1.635,0,8.338,8.338,0,0,1-1.3-.436" transform="translate(663.712 344.459)" fill="#55c0c2"/>
        <path id="Path_1945" data-name="Path 1945" d="M18.807,32.825a6.061,6.061,0,0,1,5.072-1.788c.582.056,1.524.845,1.33,1.112-.776,1.1-2.079,2.069-4.822,1.7-.665-.084-1.053-.676-1.58-1.028" transform="translate(502.402 405.413)" fill="#55c0c2"/>
        <path id="Path_1946" data-name="Path 1946" d="M8.684,23.029a9.014,9.014,0,0,1-2.771.69c-1.691-.281-2.633-1.056-1.33-1.9a5.16,5.16,0,0,1,2.8-.239c.748.253.887.943,1.3,1.45" transform="translate(106.106 280.884)" fill="#55c0c2"/>
        <path id="Path_1947" data-name="Path 1947" d="M7.005,25.963a7.008,7.008,0,0,1-2.273.83c-1.718-.113-2.605-.788-1.552-1.6a4.683,4.683,0,0,1,2.605-.535c.637.141.831.845,1.219,1.309" transform="translate(72.838 321.992)" fill="#55c0c2"/>
        <path id="Path_1948" data-name="Path 1948" d="M23.508,26.085c2.494-.563,4.988-1.14,7.538-1.619.194-.042,1.5.83,1.3,1.042a6.618,6.618,0,0,1-5.072,1.872c-1.774-.028-2.938-.619-3.492-1.492Z" transform="translate(627.983 319.9)" fill="#55c0c2"/>
        <path id="Path_1949" data-name="Path 1949" d="M10.089,21.681c-.443.465-.637,1.1-1.386,1.351a3.355,3.355,0,0,1-3.686-.647c-.249-.338.471-1.1,1.192-1.323a4.044,4.044,0,0,1,3.88.619" transform="translate(132.691 272.392)" fill="#55c0c2"/>
        <path id="Path_1950" data-name="Path 1950" d="M.041,21.854c1.524-.324,2.993-.718,4.573-.929a4.692,4.692,0,0,1,3.88,1.042c.249.211.222.746.139.76a19.9,19.9,0,0,1-4.573.422A14.7,14.7,0,0,1,.346,21.7Z" transform="translate(1.095 272.853)" fill="#55c0c2"/>
        <path id="Path_1951" data-name="Path 1951" d="M9.884,24.281c1.968-2.28,5.1-3.7,10.309-3.561l-.083-.042c-1.413,2.8-5.293,3.646-10.531,3.463Z" transform="translate(255.889 270.383)" fill="#55c0c2"/>
        <path id="Path_1952" data-name="Path 1952" d="M6.432,24.121c.831.507,1.912.873,1.857,1.182a3.525,3.525,0,0,1-1.275,2.238c-.582.464-3.686-.774-3.215-1.436a11.8,11.8,0,0,1,2.633-1.985" transform="translate(100.183 315.403)" fill="#55c0c2"/>
        <path id="Path_1953" data-name="Path 1953" d="M18.47,22.562a24.787,24.787,0,0,1-3.243-.028,16.124,16.124,0,0,1-2.716-.83,12.658,12.658,0,0,1,1.857-1.337,15.756,15.756,0,0,1,7.593-1.182l-.277-.141c-1.164,1.225-2.356,2.449-3.547,3.674Z" transform="translate(334.24 249.004)" fill="#55c0c2"/>
        <path id="Path_1954" data-name="Path 1954" d="M30.2,6.2c.388.394,1.386.915,1.247,1.323-.3.9-1.746,1.534-3.6,1.365-.61-.056-1.413-.957-1.275-1.394.3-.873,1.413-1.548,3.631-1.295" transform="translate(709.471 80.421)" fill="#55c0c2"/>
        <path id="Path_1955" data-name="Path 1955" d="M26.274,6.6c1.053-.028,2.134-.042,3.187-.1,2-.1,2.965.577,3.326,1.337.194.394-.471,1.14-1.192,1.365-2.439.746-3.852-.084-4.739-1.112-.416-.465-.277-1.056-.388-1.591Z" transform="translate(701.872 84.895)" fill="#55c0c2"/>
        <path id="Path_1956" data-name="Path 1956" d="M29.405,6.618a23.243,23.243,0,0,1,3.1.647c1.358.507,2.522,1.309,1.607,2.125-.887.788-2.8.957-4.545.647-2.051-.352-2-1.126-1.247-1.971.443-.535.942-1.056,1.413-1.576Z" transform="translate(743.942 84.877)" fill="#55c0c2"/>
        <path id="Path_1957" data-name="Path 1957" d="M4.608,24.9c.388-.915,1.33-1.619,3.3-1.379.721.084,1.635.816,1.607,1.239-.083.873-1.053,1.661-3.132,1.323-.776-.127-1.192-.774-1.774-1.182" transform="translate(123.096 306.991)" fill="#55c0c2"/>
        <path id="Path_1958" data-name="Path 1958" d="M26.1,29.564a19.614,19.614,0,0,1-2.245,1.225c-1.025.394-1.94.169-2.273-.535a.633.633,0,0,1,.36-.774,9.632,9.632,0,0,1,2.744-.732c.416-.028,1.025.577,1.413.816" transform="translate(575.427 375.891)" fill="#55c0c2"/>
        <path id="Path_1959" data-name="Path 1959" d="M20.46,30.307c.277-1.239,2.079-1.83,3.935-2.393,1.025-.3,1.857-.1,2.162.605a.676.676,0,0,1-.36.774,10.506,10.506,0,0,1-5.82.971Z" transform="translate(544.342 363.268)" fill="#55c0c2"/>
        <path id="Path_1960" data-name="Path 1960" d="M30.328,26.827c-1.219.845-2.328,1.731-3.686,2.505a1.4,1.4,0,0,1-2.051-.535.589.589,0,0,1,.36-.746c1.857-.408,3.769-.732,5.681-1.084Z" transform="translate(655.999 350.786)" fill="#55c0c2"/>
        <path id="Path_1961" data-name="Path 1961" d="M3.878,22.857a10.348,10.348,0,0,1,2.965-.324c.748.183,1.386.957,1.247,1.408-.222.76-1.552.929-2.633.366a6.129,6.129,0,0,1-1.58-1.45" transform="translate(103.595 293.991)" fill="#55c0c2"/>
        <path id="Path_1962" data-name="Path 1962" d="M7.483,21.331c1.413.282,1.746.76.721,1.267a20.222,20.222,0,0,1-2.688.873c-.277-.521-1.025-1.126-.721-1.506.277-.338,1.746-.436,2.688-.633" transform="translate(126.179 278.922)" fill="#55c0c2"/>
        <path id="Path_1963" data-name="Path 1963" d="M26.509,21.026c1.912.408,4.794.465,3.63,2.14a3.474,3.474,0,0,1-2.217,1.14c-3.049-.028-2.661-1.422-3.187-2.421.61-.267,1.219-.549,1.774-.859" transform="translate(660.76 274.934)" fill="#55c0c2"/>
        <path id="Path_1964" data-name="Path 1964" d="M29.4,23.939c.36,1.211-.3,2.238-2.217,3.012a4.1,4.1,0,0,1-1.607.239c-1.469-.2-1.884-.633-1.136-1.154a9.2,9.2,0,0,1,5.182-1.985Z" transform="translate(643.045 313.023)" fill="#55c0c2"/>
        <path id="Path_1965" data-name="Path 1965" d="M12.807,19.419c.055,1.2-.665,2.266-2.854,2.787a8.545,8.545,0,0,1-2.882-.38c-.139-.028-.055-.507.139-.732a7.537,7.537,0,0,1,5.072-1.928Z" transform="translate(187.036 250.613)" fill="#55c0c2"/>
        <path id="Path_1966" data-name="Path 1966" d="M25.6,5.119c-.693.788-1.774,1.168-3.492.774-1.192-.282-1.386-.76-.36-1.253a18.6,18.6,0,0,1,2.577-.83c.416.436.859.873,1.275,1.309" transform="translate(563.123 49.821)" fill="#55c0c2"/>
        <path id="Path_1967" data-name="Path 1967" d="M18.388,35.912a5.652,5.652,0,0,1-4.212.859,10.831,10.831,0,0,1-2.522-.929,28.685,28.685,0,0,1,4.3-.859,7.3,7.3,0,0,1,2.439.929" transform="translate(311.32 457.404)" fill="#55c0c2"/>
        <path id="Path_1968" data-name="Path 1968" d="M18.581,35.334c-1.164.493-2.3.971-3.464,1.45-.3-.225-.887-.45-.859-.676.111-.929,1.025-1.548,3.048-1.436.388.028.693.352,1.275.662" transform="translate(380.854 453.196)" fill="#55c0c2"/>
        <path id="Path_1969" data-name="Path 1969" d="M10.8,27.288a4.986,4.986,0,0,1-5.293.7C3.4,26.908,5.368,26.063,7.252,25.43l-.3-.113c1.136.577,2.273,1.168,3.409,1.745Z" transform="translate(122.835 331.042)" fill="#55c0c2"/>
        <path id="Path_1970" data-name="Path 1970" d="M23.811,32.473c-.277,1.267-1.912,2.027-4.046,2.449a4.67,4.67,0,0,1-2.134-.718c-.249-.127-.083-.619.222-.788,1.691-.929,3.935-.915,6.18-.816Z" transform="translate(467.745 424.612)" fill="#55c0c2"/>
        <path id="Path_1971" data-name="Path 1971" d="M29.556,17.064c-1,.619-1.857,1.168-2.744,1.717-.582-.3-1.663-.591-1.635-.887a1.65,1.65,0,0,1,1.247-1.281,11.847,11.847,0,0,1,3.132.45" transform="translate(672.567 216.765)" fill="#55c0c2"/>
        <path id="Path_1972" data-name="Path 1972" d="M28.19,14.877c1.774.239,2.633.887,2.466,1.745A2.2,2.2,0,0,1,29.1,17.875a4.824,4.824,0,0,1-2.633-.3c-.388-.282.111-.943.443-1.379a11.289,11.289,0,0,1,1.5-1.422Z" transform="translate(703.392 193.236)" fill="#55c0c2"/>
        <path id="Path_1973" data-name="Path 1973" d="M25.829,16.5c.915-.155,1.774-.366,2.66-.436.277-.014.665.338,1.025.507-.887.155-1.718.352-2.605.422-.3.014-.721-.31-1.081-.493" transform="translate(689.985 210.077)" fill="#55c0c2"/>
        <path id="Path_1974" data-name="Path 1974" d="M29.076,17.941a4.881,4.881,0,0,1-1.413.267c-1.552-.2-1.746-.591-.443-.957a3.315,3.315,0,0,1,1.524.084c.249.07.222.394.333.605" transform="translate(704.087 224.84)" fill="#55c0c2"/>
        <path id="Path_1975" data-name="Path 1975" d="M28.1,17.37a3.681,3.681,0,0,1,1,.084c.222.2.388.507.222.69-.637.76-1.3.7-1.607-.113-.083-.2.249-.436.388-.662" transform="translate(739.82 227.129)" fill="#55c0c2"/>
        <path id="Path_1976" data-name="Path 1976" d="M8.793,18.048a5.238,5.238,0,0,1,1.275-.211c1.386.169,1.5.493.333.788a3.335,3.335,0,0,1-1.33-.084c-.194-.056-.194-.324-.277-.493" transform="translate(234.892 233.151)" fill="#55c0c2"/>
        <path id="Path_1977" data-name="Path 1977" d="M30.544,18.507c-.97.211-1.885.479-2.882.605-.277.028-1.053-.38-1.081-.591,0-.2.776-.619,1.053-.577a28.723,28.723,0,0,1,2.91.563" transform="translate(710.073 234.592)" fill="#55c0c2"/>
        <path id="Path_1978" data-name="Path 1978" d="M28.059,20.163c-.5-.352-1.358-.69-1.386-1.056-.028-.239,1.053-.535,1.718-.76.055-.014.915.38.831.493a7.232,7.232,0,0,1-1.164,1.323" transform="translate(712.531 239.903)" fill="#55c0c2"/>
        <path id="Path_1979" data-name="Path 1979" d="M7.567,19.3a5.464,5.464,0,0,1-1.275.211c-1.413-.169-1.524-.479-.333-.774a3.579,3.579,0,0,1,1.33.084c.194.042.194.31.277.479" transform="translate(137.348 244.595)" fill="#55c0c2"/>
        <path id="Path_1980" data-name="Path 1980" d="M12.771,20.292a7.5,7.5,0,0,1,2-1.267c1.219-.422,2.217-.155,2.383.507.028.113-.859.366-1.358.408-1.081.127-2.217.141-3.326.211Z" transform="translate(333.011 246.109)" fill="#55c0c2"/>
        <path id="Path_1981" data-name="Path 1981" d="M11.671,19.565a5.747,5.747,0,0,1,1.3-.225c1.469.155,1.635.479.416.788a3.422,3.422,0,0,1-1.358-.056c-.222-.056-.249-.324-.36-.507" transform="translate(311.774 252.846)" fill="#55c0c2"/>
        <path id="Path_1982" data-name="Path 1982" d="M6.056,21.853c-.36.2-.8.577-1.081.549-.942-.1-1.829-.352-2.744-.535.388-.2.831-.577,1.109-.535a24.562,24.562,0,0,1,2.716.521" transform="translate(59.625 278.892)" fill="#55c0c2"/>
        <path id="Path_1983" data-name="Path 1983" d="M29.2,22.826c-.083.2.028.521-.166.577a3.932,3.932,0,0,1-1.552.141c-1.746-.352-1.691-.746.194-.943a6.051,6.051,0,0,1,1.524.225" transform="translate(700.385 295.401)" fill="#55c0c2"/>
        <path id="Path_1984" data-name="Path 1984" d="M2.926,22.824c1.58.028,3.187.014,4.767.1a4.144,4.144,0,0,1,1.275.493c-.776.267-1.885.83-2.3.718a24.681,24.681,0,0,1-3.52-1.45Z" transform="translate(78.164 296.6)" fill="#55c0c2"/>
        <path id="Path_1985" data-name="Path 1985" d="M27.4,25.882l-.831.633c-.194-.253-.554-.493-.5-.718.028-.225.5-.436.776-.647.194.239.36.493.554.732" transform="translate(696.337 328.858)" fill="#55c0c2"/>
        <path id="Path_1986" data-name="Path 1986" d="M4.995,25.228l1.109.507a26.21,26.21,0,0,1-2.577.549c-.249.028-.693-.338-1.053-.521.831-.183,1.691-.366,2.522-.535" transform="translate(66.063 329.878)" fill="#55c0c2"/>
        <path id="Path_1987" data-name="Path 1987" d="M4.777,25.413a4.24,4.24,0,0,1,1.136.07c.249.211.471.549.3.732-.693.816-1.441.788-1.857-.084-.111-.211.249-.479.416-.718" transform="translate(115.944 332.297)" fill="#55c0c2"/>
        <path id="Path_1988" data-name="Path 1988" d="M24.5,29.264c-.388-.2-1.136-.422-1.081-.563a6.668,6.668,0,0,1,1.053-1.436c.388.183,1.109.422,1.053.577A6.79,6.79,0,0,1,24.5,29.264" transform="translate(625.522 356.513)" fill="#55c0c2"/>
        <path id="Path_1989" data-name="Path 1989" d="M25.87,28.161a4.654,4.654,0,0,1-1.358-.225c-.5-.479.166-.774,1.58-.69a3.307,3.307,0,0,1,1.109.507l-1.33.408" transform="translate(650.397 356.081)" fill="#55c0c2"/>
        <path id="Path_1990" data-name="Path 1990" d="M26.536,28.535l-.942.127c-.222-.2-.5-.45-.388-.647.36-.746,1-.816,1.552-.183.139.183-.139.465-.222.7" transform="translate(672.65 358.297)" fill="#55c0c2"/>
        <path id="Path_1991" data-name="Path 1991" d="M26.376,28.42c-.3.211-.582.436-.887.647-.194-.253-.61-.507-.554-.732s.554-.45.859-.676l.582.76" transform="translate(665.965 361.678)" fill="#55c0c2"/>
        <path id="Path_1992" data-name="Path 1992" d="M24.434,29.709l-1.219.549a6.256,6.256,0,0,1-1.053-1.464c-.055-.127.776-.352,1.219-.535.333.493.693.971,1.053,1.45" transform="translate(591.943 369.51)" fill="#55c0c2"/>
        <path id="Path_1993" data-name="Path 1993" d="M20.772,30.066c.721-.408,1.413-.845,2.217-1.211a3.808,3.808,0,0,1,1.5-.239,5.183,5.183,0,0,1,1.247.352,9.362,9.362,0,0,1-2,.718c-1.025.169-2.162.155-3.242.225Z" transform="translate(547.495 374.164)" fill="#55c0c2"/>
        <path id="Path_1994" data-name="Path 1994" d="M20.594,29.684c-.166.225-.194.591-.527.676-.97.239-1.5-.056-1.219-.76.083-.211.637-.38.97-.563l.776.647" transform="translate(501.53 379.683)" fill="#55c0c2"/>
        <path id="Path_1995" data-name="Path 1995" d="M19.611,31.642A4.012,4.012,0,0,1,20,29.953a1.947,1.947,0,0,1,2.383-.465,1.107,1.107,0,0,1,.72.718c.111.985-.915,1.562-2.771,1.8Z" transform="translate(523.88 382.934)" fill="#55c0c2"/>
        <path id="Path_1996" data-name="Path 1996" d="M21.138,30.888c-1.247-.3-1.607-.774-.721-1.028a9.443,9.443,0,0,1,2.688-.042c.277.028.471.352.748.549-.887.169-1.829.352-2.716.521" transform="translate(532.329 388.924)" fill="#55c0c2"/>
        <path id="Path_1997" data-name="Path 1997" d="M24.693,32.35c-1.413,1.52-4.018,1.8-6.956,1.731l.249.127c.97-2,4.1-1.731,7.012-1.717Z" transform="translate(473.819 423.003)" fill="#55c0c2"/>
        <path id="Path_1998" data-name="Path 1998" d="M15.256,35.643a5.613,5.613,0,0,1,1.885-1.182,10.538,10.538,0,0,1,2.661.155,6.328,6.328,0,0,1-1.718.774,25.1,25.1,0,0,1-3.1.084Z" transform="translate(400.143 449.86)" fill="#55c0c2"/>
        <path id="Path_1999" data-name="Path 1999" d="M19.279,34.481a8.692,8.692,0,0,1-2.106,1.267c-1.219.408-2.217.155-2.356-.493-.028-.113.887-.324,1.413-.38,1.109-.113,2.217-.155,3.326-.225Z" transform="translate(395.814 450.868)" fill="#55c0c2"/>
        <path id="Path_2000" data-name="Path 2000" d="M24.908,1.385c.471-.45.72-1.07,1.441-1.309a10.466,10.466,0,0,1,2.688.084c-.388.352-.637.887-1.219,1.013a17.742,17.742,0,0,1-3.049.141Z" transform="translate(661.668 -0.003)" fill="#55c0c2"/>
        <path id="Path_2001" data-name="Path 2001" d="M25.7,1.935c.139.225.5.479.388.69-.333.76-1,.845-1.607.211-.166-.183.028-.507.249-.718a3.3,3.3,0,0,1,.97-.183" transform="translate(652.419 25.304)" fill="#55c0c2"/>
        <path id="Path_2002" data-name="Path 2002" d="M18.336,9.963c.194.253.582.507.554.746-.055.239-.527.45-.831.676-.194-.253-.582-.521-.527-.76.028-.225.527-.436.8-.662" transform="translate(468.204 130.276)" fill="#55c0c2"/>
        <path id="Path_2003" data-name="Path 2003" d="M17.539,33.508c.471-.282.942-.549,1.386-.831-.139.127-.222.31-.443.394a10.2,10.2,0,0,1-1.247.281Z" transform="translate(460.382 427.279)" fill="#55c0c2"/>
        <path id="Path_2004" data-name="Path 2004" d="M18.32,33.158l1.275-.859c-.166.141-.194.31-.443.394-.333.127-.776.211-1.164.324Z" transform="translate(480.497 422.336)" fill="#55c0c2"/>
        <path id="Path_2005" data-name="Path 2005" d="M19.336,32.178l-.915.141.139-.422Z" transform="translate(492.107 417.079)" fill="#55c0c2"/>
        <path id="Path_2006" data-name="Path 2006" d="M26.085,29.837l-1.5.774c.139-.155.194-.38.443-.45a7.815,7.815,0,0,1,1.33-.169Z" transform="translate(656.86 390.144)" fill="#55c0c2"/>
        <path id="Path_2007" data-name="Path 2007" d="M19.2,29.979c2.023.141,3.132.746,3.464,1.759l.277-.155c-1.275,0-2.55.014-3.824.014l.277.127.083-1.886Z" transform="translate(510.683 390.157)" fill="#55c0c2"/>
        <path id="Path_2008" data-name="Path 2008" d="M20.653,30.178l-1.58-.366,1.3.507Z" transform="translate(509.508 389.817)" fill="#55c0c2"/>
        <path id="Path_2009" data-name="Path 2009" d="M20.85,29.633l.3.479-.859-.07Z" transform="translate(542.181 387.474)" fill="#55c0c2"/>
        <path id="Path_2010" data-name="Path 2010" d="M22.356,29.819c-.61.38-1.219.746-1.857,1.126-2.189-1-.139-1.168,1.136-1.492Z" transform="translate(521.856 385.123)" fill="#55c0c2"/>
        <path id="Path_2011" data-name="Path 2011" d="M20.093,29.543c.416-.436.859-.873,1.3-1.295,1.968,1.211-.333,1.013-1.524,1.182Z" transform="translate(530.825 369.367)" fill="#55c0c2"/>
        <path id="Path_2012" data-name="Path 2012" d="M22.705,27.958c-.471.45-.942.9-1.441,1.365-2.466-1.337.388-1.07,1.524-1.323Z" transform="translate(541.987 365.575)" fill="#55c0c2"/>
        <path id="Path_2013" data-name="Path 2013" d="M21.886,27.37l.333.493-.915-.07Z" transform="translate(569.093 357.884)" fill="#55c0c2"/>
        <path id="Path_2014" data-name="Path 2014" d="M25.069,27.675l1.247-.9c-.111.141-.166.31-.36.408-.36.141-.776.225-1.192.352Z" transform="translate(661.535 350.093)" fill="#55c0c2"/>
        <path id="Path_2015" data-name="Path 2015" d="M24.819,26.73l.471.633-1.108-.042Z" transform="translate(645.98 349.511)" fill="#55c0c2"/>
        <path id="Path_2016" data-name="Path 2016" d="M1.545,26.475a6.708,6.708,0,0,1,1.413.436c-.222.507-.693.3-1.109-.591Z" transform="translate(41.272 344.157)" fill="#55c0c2"/>
        <path id="Path_2017" data-name="Path 2017" d="M27.535,26.074c-.471.267-.97.521-1.441.788.139-.141.222-.352.471-.422a8.051,8.051,0,0,1,1.275-.211Z" transform="translate(697.064 340.94)" fill="#55c0c2"/>
        <path id="Path_2018" data-name="Path 2018" d="M26.451,27.04c.5-.338.97-.69,1.469-1.028-.111.183-.083.436-.3.535a8.686,8.686,0,0,1-1.469.338Z" transform="translate(698.453 340.129)" fill="#55c0c2"/>
        <path id="Path_2019" data-name="Path 2019" d="M24.486,25.045c.443-.394.859-.788,1.3-1.182,1.746,1.2-.443.929-1.524,1.07Z" transform="translate(648.178 312.029)" fill="#55c0c2"/>
        <path id="Path_2020" data-name="Path 2020" d="M3.765,24.276l-.416-.535,1.109.07Z" transform="translate(89.464 310.434)" fill="#55c0c2"/>
        <path id="Path_2021" data-name="Path 2021" d="M23.634,22.947c1.192.605,2.411,1.211,3.6,1.816l.249-.127c-1.192-.619-2.383-1.225-3.575-1.83Z" transform="translate(631.349 298.208)" fill="#55c0c2"/>
        <path id="Path_2022" data-name="Path 2022" d="M9.174,23.768c.527-.3,1.025-.591,1.552-.887-.111.169-.111.408-.36.493a9.689,9.689,0,0,1-1.413.282Z" transform="translate(239.14 299.189)" fill="#55c0c2"/>
        <path id="Path_2023" data-name="Path 2023" d="M3.305,22.843l.388.549-.97-.056Z" transform="translate(72.754 298.696)" fill="#55c0c2"/>
        <path id="Path_2024" data-name="Path 2024" d="M9.981,24.486c.471-.957,1.58-1.576,3.492-1.83l-.222-.1c-1.164.591-2.356,1.182-3.547,1.774Z" transform="translate(259.229 294.966)" fill="#55c0c2"/>
        <path id="Path_2025" data-name="Path 2025" d="M2.776,22.471c.277.169.887.422.8.507-.61.647-1.33.619-1.746-.07-.055-.084.61-.282.942-.436" transform="translate(48.909 293.828)" fill="#55c0c2"/>
        <path id="Path_2026" data-name="Path 2026" d="M1.133,22.625l-.915.127.139-.394Z" transform="translate(5.824 292.348)" fill="#55c0c2"/>
        <path id="Path_2027" data-name="Path 2027" d="M4.2,22.425l-1.829-.8a3.614,3.614,0,0,1,1.053.2,1.928,1.928,0,0,1,.471.76Z" transform="translate(63.311 282.74)" fill="#55c0c2"/>
        <path id="Path_2028" data-name="Path 2028" d="M25.67,22.008l.637-.746c-.3.2-.61.408-.915.619Z" transform="translate(678.338 278.019)" fill="#55c0c2"/>
        <path id="Path_2029" data-name="Path 2029" d="M28.306,21.618l-.97.464c-.277-.183-.8-.366-.776-.535s.582-.31.915-.464l.831.535" transform="translate(709.485 275.679)" fill="#55c0c2"/>
        <path id="Path_2030" data-name="Path 2030" d="M6.942,21.206l2.633.633c-2.688,1.211-1.663-.436-2.356-.788Z" transform="translate(185.446 275.26)" fill="#55c0c2"/>
        <path id="Path_2031" data-name="Path 2031" d="M10.941,20.924l-1.413.9c.111-.155.139-.38.36-.465a10.917,10.917,0,0,1,1.358-.3Z" transform="translate(254.527 273.6)" fill="#55c0c2"/>
        <path id="Path_2032" data-name="Path 2032" d="M9.605,20.926c-.055.774-.61,1.084-1.718.943.111-.2.111-.493.36-.577a12.1,12.1,0,0,1,1.607-.253Z" transform="translate(210.69 273.626)" fill="#55c0c2"/>
        <path id="Path_2033" data-name="Path 2033" d="M1.442,21.528A7.022,7.022,0,0,1,0,21.176c.139-.521.61-.352,1.136.507Z" transform="translate(-0.001 273.038)" fill="#55c0c2"/>
        <path id="Path_2034" data-name="Path 2034" d="M26.422,21.454c.249-.239.527-.464.776-.69-.36.183-.721.366-1.053.549Z" transform="translate(698.426 271.508)" fill="#55c0c2"/>
        <path id="Path_2035" data-name="Path 2035" d="M28.421,20.3c-.333.422-.693.845-1.025,1.267-2.245-1.168.8-.76,1.3-1.126Z" transform="translate(710.062 265.414)" fill="#55c0c2"/>
        <path id="Path_2036" data-name="Path 2036" d="M11.775,20.69l-1.136.253.111-.605Z" transform="translate(284.195 265.936)" fill="#55c0c2"/>
        <path id="Path_2037" data-name="Path 2037" d="M6.411,21.43c1.109-1.042,2.245-1.774,3.353,0l.222-.127c-1.275,0-2.522-.014-3.8-.014Z" transform="translate(165.33 266.183)" fill="#55c0c2"/>
        <path id="Path_2038" data-name="Path 2038" d="M26.924,21.119c.554-.3,1.109-.577,1.635-.873-.139.183-.166.45-.416.535a9.425,9.425,0,0,1-1.5.2Z" transform="translate(711.837 264.734)" fill="#55c0c2"/>
        <path id="Path_2039" data-name="Path 2039" d="M9.83,20.3c.582.239,1.164.479,1.718.718a3.292,3.292,0,0,1-.942-.155,2.226,2.226,0,0,1-.527-.69Z" transform="translate(262.594 263.78)" fill="#55c0c2"/>
        <path id="Path_2040" data-name="Path 2040" d="M26.145,21.823c0-1.168,1.441-1.619,3.464-1.774l-.249-.127c-.194,1.084-1.441,1.619-3.464,1.774Z" transform="translate(691.775 260.511)" fill="#55c0c2"/>
        <path id="Path_2041" data-name="Path 2041" d="M26.27,21.148l1.413-1.309c2.134,1.365-.776.915-1.663,1.182Z" transform="translate(695.114 259.413)" fill="#55c0c2"/>
        <path id="Path_2042" data-name="Path 2042" d="M25.057,20.066l1.109-.225-.139.577Z" transform="translate(669.359 259.439)" fill="#55c0c2"/>
        <path id="Path_2043" data-name="Path 2043" d="M13.749,18.916c-.471.267-.859.549-1.33.816.139-.127.194-.3.416-.38a10.6,10.6,0,0,1,1.192-.3Z" transform="translate(331.756 247.344)" fill="#55c0c2"/>
        <path id="Path_2044" data-name="Path 2044" d="M25.771,18.9l2.328.845c-.776.3-1.552.577-2.328.859l.222.127V18.791Z" transform="translate(688.435 245.709)" fill="#55c0c2"/>
        <path id="Path_2045" data-name="Path 2045" d="M5.087,19.793c.527-.31,1.025-.619,1.552-.929-.139.169-.166.38-.416.464a10.423,10.423,0,0,1-1.413.324Z" transform="translate(128.492 246.664)" fill="#55c0c2"/>
        <path id="Path_2046" data-name="Path 2046" d="M24.791,19.015c1.081-1.858,2.189-1.239,3.326-.014l.222-.127H24.514Z" transform="translate(654.857 233.282)" fill="#55c0c2"/>
        <path id="Path_2047" data-name="Path 2047" d="M30.365,17.286c-.083,1.14-1.358,1.675-3.464,1.788l.194.1c-.083-1.225,1.275-1.717,3.52-1.759Z" transform="translate(718.622 226.03)" fill="#55c0c2"/>
        <path id="Path_2048" data-name="Path 2048" d="M9.437,17.707l-.3-.493.859.07Z" transform="translate(243.964 225.088)" fill="#55c0c2"/>
        <path id="Path_2049" data-name="Path 2049" d="M31.144,16.661c-.443.957-1.691,1.506-3.492,1.759l.3.155c.139-1.112,1.386-1.661,3.464-1.774Z" transform="translate(738.684 217.858)" fill="#55c0c2"/>
        <path id="Path_2050" data-name="Path 2050" d="M28.055,17.9c.36-.436.721-.873,1.081-1.323,2.328,1.225-.8.83-1.358,1.182Z" transform="translate(742.05 216.746)" fill="#55c0c2"/>
        <path id="Path_2051" data-name="Path 2051" d="M26.866,16.535l-.748.662,1.053-.521Z" transform="translate(697.705 216.21)" fill="#55c0c2"/>
        <path id="Path_2052" data-name="Path 2052" d="M26.45,17.239l.748-.746c-.36.2-.693.394-1.053.605Z" transform="translate(698.426 215.661)" fill="#55c0c2"/>
        <path id="Path_2053" data-name="Path 2053" d="M11.808,18.334c1.192-.605,2.411-1.21,3.6-1.8l-.3-.127c.028.647.028,1.295.028,1.942l.277-.141H11.586Z" transform="translate(309.503 214.524)" fill="#55c0c2"/>
        <path id="Path_2054" data-name="Path 2054" d="M13.23,16.244l-.859-.521a2.786,2.786,0,0,1,1.025-.408c.333.014.61.324.887.493-.36.141-.693.3-1.053.436" transform="translate(330.474 200.244)" fill="#55c0c2"/>
        <path id="Path_2055" data-name="Path 2055" d="M12.753,15.26l1.053-.183-.111.479Z" transform="translate(340.689 197.142)" fill="#55c0c2"/>
        <path id="Path_2056" data-name="Path 2056" d="M28.764,16.373c-1.358.155-2.55-.127-2.439-.788.055-.338,1.524-.619,2.328-.929-.028.605-.083,1.211-.111,1.816Z" transform="translate(703.041 191.641)" fill="#55c0c2"/>
        <path id="Path_2057" data-name="Path 2057" d="M26.4,15.949c.5-.464.97-.929,1.441-1.393C30.006,15.738,28.121,15.823,26.4,15.949Z" transform="translate(705.318 190.333)" fill="#55c0c2"/>
        <path id="Path_2058" data-name="Path 2058" d="M13.747,15.538c.5-.31,1-.619,1.5-.943-.111.183-.111.436-.333.521a8.46,8.46,0,0,1-1.441.282Z" transform="translate(359.832 190.843)" fill="#55c0c2"/>
        <path id="Path_2059" data-name="Path 2059" d="M28.008,14.274l-1.413,1.042c.055-.183,0-.45.249-.549a9.051,9.051,0,0,1,1.441-.352Z" transform="translate(710.447 186.646)" fill="#55c0c2"/>
        <path id="Path_2060" data-name="Path 2060" d="M15.526,15.123c-.527-.267-1.081-.521-1.607-.774a3.392,3.392,0,0,1,1.025.127A2.559,2.559,0,0,1,15.526,15.123Z" transform="translate(371.826 187.627)" fill="#55c0c2"/>
        <path id="Path_2061" data-name="Path 2061" d="M26.924,15.083c.5-.282.97-.563,1.469-.859-.139.155-.222.366-.443.45a11.219,11.219,0,0,1-1.3.267Z" transform="translate(711.837 185.992)" fill="#55c0c2"/>
        <path id="Path_2062" data-name="Path 2062" d="M20.037,9.253c-.36.422-.748.83-1.109,1.239-2.079-1.168.721-.8,1.358-1.112Z" transform="translate(485.458 120.993)" fill="#55c0c2"/>
        <path id="Path_2063" data-name="Path 2063" d="M22.974,7.121c-.5.3-1.025.577-1.524.873.083-.183.055-.45.3-.535a7.789,7.789,0,0,1,1.413-.239Z" transform="translate(573.006 93.115)" fill="#55c0c2"/>
        <path id="Path_2064" data-name="Path 2064" d="M28.076,5.99c-1.164.605-2.3,1.2-3.436,1.8l.277.141c1.164-.591,2.3-1.182,3.464-1.788Z" transform="translate(658.222 78.326)" fill="#55c0c2"/>
        <path id="Path_2065" data-name="Path 2065" d="M26.927,6.409l-.222-.493.748.056Z" transform="translate(713.394 77.369)" fill="#55c0c2"/>
        <path id="Path_2066" data-name="Path 2066" d="M25.069,6.864c.582-.31,1.164-.619,1.718-.929-.139.2-.166.479-.416.563a11.387,11.387,0,0,1-1.607.211Z" transform="translate(661.535 77.607)" fill="#55c0c2"/>
        <path id="Path_2067" data-name="Path 2067" d="M23.221,5.865c-.5.31-1.025.619-1.524.929.111-.183.111-.436.333-.521A10.572,10.572,0,0,1,23.5,6.006Z" transform="translate(579.604 76.692)" fill="#55c0c2"/>
        <path id="Path_2068" data-name="Path 2068" d="M22.029,6.634l1.58-.816c-.166.141-.249.352-.471.436a12.916,12.916,0,0,1-1.386.239Z" transform="translate(581.074 76.077)" fill="#55c0c2"/>
        <path id="Path_2069" data-name="Path 2069" d="M21.088,5.491l-.416-.577,1.081.07Z" transform="translate(552.218 64.253)" fill="#55c0c2"/>
        <path id="Path_2070" data-name="Path 2070" d="M24.011,5.757q.624-.612,1.33-1.225c1.912,1.281-.693.873-1.58,1.112Z" transform="translate(634.768 59.262)" fill="#55c0c2"/>
        <path id="Path_2071" data-name="Path 2071" d="M24.415,4.932c.333-.422.693-.859,1.053-1.281,2.189,1.154-.721.816-1.33,1.154Z" transform="translate(644.812 47.742)" fill="#55c0c2"/>
        <path id="Path_2072" data-name="Path 2072" d="M26.982,3.227c-.443.282-.915.563-1.386.845.139-.155.222-.338.443-.422a10.252,10.252,0,0,1,1.247-.267Z" transform="translate(683.761 42.198)" fill="#55c0c2"/>
        <path id="Path_2073" data-name="Path 2073" d="M27.131,1.837c-.554.225-1.108.465-1.663.7.471-.282.942-.549,1.441-.816Z" transform="translate(680.341 22.545)" fill="#55c0c2"/>
        <path id="Path_2074" data-name="Path 2074" d="M28.695.093c.083,1.042-.97,1.7-2.716,2.14l-1.358-.676A5.708,5.708,0,0,1,28.833.163Z" transform="translate(657.715 1.219)" fill="#55c0c2"/>
        <path id="Path_2075" data-name="Path 2075" d="M16.411,19.142c-.222,1.309-2.771,1.351-4.24,1.985-1.164.507-2.245.38-2.494-.338a1.129,1.129,0,0,1,.637-1.379,28.93,28.93,0,0,1,4.6-.591,6.516,6.516,0,0,1,1.5.324" transform="translate(257.149 246.034)" fill="#55c0c2"/>
        <path id="Path_2076" data-name="Path 2076" d="M12.312,17.913c1.025.577,2.494,1.07,2.965,1.745.554.83-.3,1.661-2.411,1.52-.693-.042-1.774-.718-1.691-1.042a8.8,8.8,0,0,1,1.5-2.351Z" transform="translate(298.413 232.568)" fill="#55c0c2"/>
        <path id="Path_2077" data-name="Path 2077" d="M11.624,20.629c-.887-.239-1.774-.479-2.633-.718,2.66-1.14,2.078.183,2.411.83Z" transform="translate(240.182 254.512)" fill="#55c0c2"/>
        <path id="Path_2078" data-name="Path 2078" d="M11.111,18.484l-.97.141.111-.408Z" transform="translate(270.897 238.204)" fill="#55c0c2"/>
        <path id="Path_2079" data-name="Path 2079" d="M13.291,16.907l-1.247.887c.083-.141.111-.338.3-.422.36-.141.831-.211,1.247-.324Z" transform="translate(321.738 221.074)" fill="#55c0c2"/>
        <path id="Path_2080" data-name="Path 2080" d="M14.1,16.172c.776.183,1.552.38,2.356.563-2.356,1.042-1.58-.31-2.106-.7Z" transform="translate(376.581 209.62)" fill="#55c0c2"/>
        <path id="Path_2081" data-name="Path 2081" d="M25.545,11.384l1.164-.929c-.083.155-.055.352-.249.45a8.075,8.075,0,0,1-1.192.338Z" transform="translate(674.999 136.71)" fill="#55c0c2"/>
        <path id="Path_2082" data-name="Path 2082" d="M22.851,23.376l-.416-.507,1.025.056Z" transform="translate(599.316 299.032)" fill="#55c0c2"/>
        <path id="Path_2083" data-name="Path 2083" d="M23.828,22.943l-1.136.239.111-.577Z" transform="translate(606.19 295.585)" fill="#55c0c2"/>
        <path id="Path_2084" data-name="Path 2084" d="M16.355,18.237c.194-1.182,1.441-1.858,3.825-1.957-.166,1.225-1.8,1.675-3.825,1.957" transform="translate(436.9 212.876)" fill="#55c0c2"/>
      </g>
    </g>
  </g>
</svg>
