<svg xmlns="http://www.w3.org/2000/svg" xmlns:xlink="http://www.w3.org/1999/xlink" width="347" height="707" viewBox="0 0 347 707">
  <defs>
    <clipPath id="clip-path">
      <path id="Path_8475" data-name="Path 8475" d="M0,0H347V707H0Z" transform="translate(-1 325)" fill="#fff"/>
    </clipPath>
    <clipPath id="clip-path-2">
      <rect id="Rectangle_41" data-name="Rectangle 41" width="778.391" height="473.638" fill="#c97a1f"/>
    </clipPath>
  </defs>
  <g id="Mask_Group_61" data-name="Mask Group 61" transform="translate(1 -325)" clip-path="url(#clip-path)">
    <g id="Group_41" data-name="Group 41" transform="translate(-138.362 201.421) rotate(41)">
      <g id="Group_25" data-name="Group 25" transform="translate(0 0)" clip-path="url(#clip-path-2)">
        <path id="Path_1889" data-name="Path 1889" d="M345.263,21.712c-3.991-3.21-11.557-3.413-17.543-4.91-2.55-.634-5.4-.958-8.092-1.43-3.741-.634-5.376.216-5.57,1.929-.166,1.727-2.328,2.482-5.432,2.684a40.136,40.136,0,0,1-13.358-1.174c-4.988-1.389-10.088-2.684-15.215-3.979-4.1-1.039-.471-1.322.61-2.01,2.356-1.511,1.718-2.711-1.691-3.143-5.543-.7-10.864-1.956-16.85-1.565a30.268,30.268,0,0,1-12.776-1.929c-5.46-1.956-5.792-1.767-10.115.216-2.882,1.335-5.016,3.116-9.312,3.629-.388.04-.97.62-.887.647a6.4,6.4,0,0,0,2.328.85c6.707.418,13.469-1.214,20.2.054a9.251,9.251,0,0,1,2.051-1.133c1.192-.378,2.106-.189,2.245.364l-1.5.2-3.1.4c.915,2.576,5.792,2.765,9.284,3.008,14.189.985,25.58,4.964,37.884,7.958a9.171,9.171,0,0,1,3.492,1.808c.388.324-.111.985-.443,1.443a2.4,2.4,0,0,1-1.33.351c-10.365-3.143-21.921-3.022-33.45-2.873a57.047,57.047,0,0,1-11.667-1.295c-5.21-1-9.118-.863-18.707.094a20.039,20.039,0,0,1-3.048.283c-2.273-.148-4.573-.769-6.734-.634-12.554.755-23.723-1.322-34.975-3.575-5.82-1.174-11.917-2.05-18.069-2.738-3.132-.337-7.011-.553-9.118,1.349l.859.567-.582-.7a148.316,148.316,0,0,1-22.06-.634,2.072,2.072,0,0,0-1.247.5.576.576,0,0,0,.3.8c1.718.728,3.741,1.308,5.293,2.118.8.418,3.1,1.551.055,1.754-7.122.472-13.912,3.048-21.644.755-1.358-.4-4.24.526-6.485.674-3.381.2-7.7.944-10.032.229-7.7-2.4-15.714.459-23.252-.836a2.827,2.827,0,0,0-1.413.324c.083.432.139,1.052.693,1.254,4.212,1.47,8.591,2.819,12.831,4.263,1.829.634,3.963,1.2,4.1,2.5,6.069-.135,10.753,1.416,15.353,3.035.388.135.721.688.61.728a6.681,6.681,0,0,1-2.522.634c-5.182-.944-11.2-1.349-13.275-4.492-2.134.256-4.379.4-6.4.782a5.242,5.242,0,0,0-2,1.254c-1.691,1.16,5.238,1.578,1.109,2.9-2.633.836-1.774,1.767-.748,2.765,1.441,1.416,2.91,2.833,4.379,4.262,2.882,0,5.321.4,6.873,1.673.416.094.831.162,1.192.27a1.987,1.987,0,0,1,.527.31c-.471-.243-.942-.486-1.413-.715-2.577-.31-5.681-.081-6.984-1.646-1.746,0-3.52.148-5.182-.013-7.677-.755-8.286-1.281-6.707-5.072a5.2,5.2,0,0,0,.222-2.347c-.028-.189-.8-.445-1.3-.513a4.442,4.442,0,0,0-1.635.148c-2.189.647-2.938,1.673-2.8,2.846.333,2.7-2.965,3.332-7.594,3.332-1.109,0-2.91.162-3.132.472-.831,1.093,1.552.931,2.66,1.308,1.829.634,3.63,1.295,5.376,1.983.36.135.582.54.416.715a2.688,2.688,0,0,1-1.386.459,57.945,57.945,0,0,1-16.711-1.605c-4.711-1.066-9.367-2.28-14.882-1.942-4.351.27-7.594.634-1.663,2.5-2.577,1.389-2.079,3.2-2.938,4.829-.471.917-2.965.135-4.545.189a12.068,12.068,0,0,0-2.882.647c-.055.013.36.486.637.7a8.088,8.088,0,0,0,1.053.661c2.079,1.174,7.289,1.066,6.457,3.359-.582,1.551-3.63,2.023-6.4,2.509-1.607.283-3.8.877-2.965,1.713,2.605,2.576-1.746,5.881,4.961,8.215,3.6,1.255,7.815,2.361,10.864,4.047,1.413.782,3.852,1.538,2.716,2.806-1.081,1.187-3.1,1.174-5.709.89-9.589-1.079-19.15-2.05-27.326-5-4.074-1.47-8.868-.958-13.413-.324-.443.067-1.219.283-1.164.391a1.175,1.175,0,0,0,.831.715c2,.553,4.046,1.093,6.152,1.551,1.58.337,3.575.351,4.878.836,3.492,1.295,2.716,4.316,8.674,4.789a30.246,30.246,0,0,1,11.7,3.237,10.419,10.419,0,0,1,5.958.836.58.58,0,0,1,.166.782c-.3.688-1.109.944-2.134.648-1.912-.526-3.824-1.066-3.88-2.334l-1.718.04c-2.827.027-5.737-.108-8.508.121-3.714.3-.249,2.617-3.353,3.2-4.794.89-4.046,2.2-1.33,3.736,2.55,1.43,6.374,2.374,7.51,4.384.388.661-.222,1.308-1.524,1.268-2.744-.094-5.432-.432-8.148-.661-4.24-.351-4.517-.27-4.739,2.509-.083.877-.36,1.551-1.885,2.077-4.822,1.659-4.85,1.7-1.912,2.86,3.076,1.227,6.43,2.32,8.037,4.209.249.189.527.364.776.54-.166-.229-.333-.445-.471-.674-2.771.809-3.27,2.239-4.1,3.561-.665,1.039-2.411,2.064-.776,3.156,2.494,1.686,4.961.5,7.427-.148a9.711,9.711,0,0,1,3.215-.486c8.4,1.025,17.21.728,25.552,2.2,4.878.863,4.988,1.187,1.746,3.022-1.219.688,2.189,1.619,4.129,2.158.97.27,1.774.661,2.661,1-1.33.337-2.605.728-3.991,1-1.358.283-3.908.094-2.854,1.362,1.247,1.538,6.208,2.968-.028,4.465.776.351,1.635.674,2.328,1.066,1.358.755,2.605,1.551,3.88,2.347-2.467.688-4.351-.148-6.4-.58a41.178,41.178,0,0,0-11.889-.391l-.471.216c-1.136.553-2.245,1.106-3.381,1.673l.3-.108c-.055,1.794,1.053,3.534,4.351,4.289,5.654,1.308,11.7,2.239,17.57,3.318,8.841-2.725,14.605.594,21.007,2.563,5.792,1.794,13.386,1.781,18.319,4.451a8.465,8.465,0,0,0,3.3.3c5.515-.283,10.337-.7,15.381,1.686,3.769,1.781,10.476,2.077,15.769,3.129a5.5,5.5,0,0,1,2.106,1.295c1.607,1.16,1.5,1.983-1.663,2.455-1.746.243-5.709.594-2.439,1.848,5.82,2.253,10.7,5.126,17.875,6.542a21.256,21.256,0,0,0,6.651.243l-.222.108c.055-.58.111-1.147.139-1.727-.97-.634-2.383-1.2-2.882-1.915-.887-1.281-1-2.86,1.552-3.548.915-.27,3.741.877,5.432,1.551,2.383.931,1.663,1.727-.776,2.442a30.29,30.29,0,0,0-3.686,1.578c3.6-.189,8.425.148,8.286,1.848-.3,3.372,2.605,3.629,7.926,3.116,1.663-.162,3.409-.067,5.127-.094l-.277.148.333-1.794a9.947,9.947,0,0,1-1.275-.27c-.194-.081-.222-.283-.3-.432.416.27.859.553,1.275.836,5.21-.31,6.236,1.416,6.9,3.332.333.175.665.364,1,.553l-.693-.688-3.686.162.222-.094a12.469,12.469,0,0,0,1.025,3.2c.637,1.025,2.522,2.28-.333,2.806a13.5,13.5,0,0,1-6.014-1.025,22.829,22.829,0,0,1-5.016-3.264,7.037,7.037,0,0,0-5.654-1.187c-1.5.216-3.824.391-4.794,0-13-5.139-28.434-7.81-43.871-10.481-2.106-.364-4.323-.755-5.21-1.942l.277.148h-6.928c-.388.728-.554,1.673-2.688.607.8-.243,1.607-.5,2.411-.742-2.716-1.956-6.457-2.145-10.7-1.5-1.413.2-2.162.7-1.469,1.187,1.607,1.133,3.52,2.172,5.182,3.278.665.432,1.524,1.012,1.386,1.457-.111.31-1.718.661-2.716.715a61.986,61.986,0,0,1-6.9.094c-7.788-.4-15.021-2.482-23.473-1.268-2.8.4-6.624-.62-9.811-1.227a15.773,15.773,0,0,0-6.6-.256,23.3,23.3,0,0,1-11.529-.4,32.369,32.369,0,0,0-11.834-.54,8.2,8.2,0,0,0-3.908,1.443c-1.275,1.281.5,2.05,2.993,2.374,4.878.634,8.619,2.617,14.522,2.28,2.882-.162,6.4.985,9.2,1.875,10.5,3.332,21.173,5.652,33.921,2.833,1.774-.391,5.46-.27,6.485.324,3.381,2.01,8.536,1.376,12.333,2.428a72.468,72.468,0,0,0,11.307,1.969c5.321.58,8.841,2.576,13.109,4.006,3.8,1.281,7.51,2.644,11.557,3.709a33.217,33.217,0,0,0,6.651.58c1.081.04,2.91-.081,3.187-.391.8-.89-1.219-1.174-2.189-1.713-.665-.378-1.469-1.106-1.136-1.443.776-.836,2.661-1.079,4.212-.553,7.483,2.536,16.545,3.75,23.224,7.082,3.464,1.74,8.757,2.684,13.441,3.736a125.915,125.915,0,0,1,21.672,6.6c3.3,1.416,5.515,2.644,2.8,4.937-1.109.931.333,2.185,2.633,2.765q15.215,3.885,30.485,7.675a5.7,5.7,0,0,0,2.938-.513c.443-.283.139-1.012-.333-1.416a5.11,5.11,0,0,0-2.411-1.147c-8.7-1.281-14.661-5.247-24.111-5.881-.859-.054-1.663-1.335-1.94-2.091-.333-.9,1.94-1.875,3.159-1.5,12.139,3.736,24.249,7.459,36.3,11.263,2.383.755,4.434,1.794,5.155,3.251l-.333-.148c5.349-.094,8.924,1.106,10.836,3.521l-.36-.162c7.566.459,12.055,3.251,16.074,5.8,2.8,1.781,5.709,2.549,9.672,2.927,4.185.4,7.538,1.349,9.395,3.291l-.333-.162c1.691.121,3.8-.04,4.933.4,6.679,2.536,13.136,5.193,19.566,7.878,1.3.54,1.774,1.389.333,2.1a7.914,7.914,0,0,1-6.014.607,16.983,16.983,0,0,1-3.436-1.794c-4.046-2.307-4.046-2.32-8.453,1.066,1.164.567,2.3,1.133,3.464,1.7.416.121.887.2,1.247.337.222.081.3.256.443.391-.471-.3-.915-.58-1.386-.863-1.8-.256-2.993-.8-3.464-1.7-2.106.229-4.185,1.349-6.291.351-6.291-2.941-14.217-4.424-21.672-6.434-17.044-4.6-33.783-9.51-49.3-15.323-3.159-1.187-6.9-2-10.254-3.076-7.621-2.441-16.212-4.168-21.921-7.972-3.1-2.091-8.037-3.008-13.718-2.995-3.3.014-6.984-.189-9.312-1.74l.222.121c-1-.62-2.633-1.16-2.91-1.848-.721-1.875-1.136-3.494-5.432-1.133a2.663,2.663,0,0,1-1.386.148c-6.707-1.888-13.053-3.9-21.7-3.143-2.494.216-5.931-1.362-8.508-2.361a23.5,23.5,0,0,0-12.416-1.821l.222-.121c1.413,1.187,2.827,2.374,4.185,3.575a.422.422,0,0,1-.166.634,3.736,3.736,0,0,1-1.469.216,4.356,4.356,0,0,1-1.524-.31,47.051,47.051,0,0,0-21.838-4.006c-2.882.135-5.626-.486-7.316-1.821l.277.148c-.582.027-1.136.027-1.691.094-7.9.863-8.009.971-5.127,4.8,2.938.809,3.381,1.4,1.219,1.268-.637-.04-1.136-.674-1.691-1.039-2.661-.4-5.321-.836-8.009-1.214-2.467-.351-4.323.094-5.515,1.187l-.3-.189c3.88.526,3.021,2.239,3.769,3.548l-.222-.121c2.245.863,4.323,1.848,6.734,2.59,9.423,2.9,16.656,6.7,21.672,11.574a11.337,11.337,0,0,0,5.46,3.143c11.307,2.32,18.6,7.149,28.434,10.373,5.515,1.808,11.7,2.145,17.737,2.86l.083-.04c-4.711-2.833-9.284-5.719-5.9-9.685,1.8-2.077-.693-3.183-3.631-4.047-2.411-.7-5.293-1.025-7.954-1.511-.5.459.139,1.767-2.356.728.831-.216,1.663-.445,2.494-.661-4.878-1.861-9.727-3.777-14.688-5.584-1.829-.674.942-.094-1.3.189-.3.04-.665.486-.527.674.721,1.025,1.58,2.037,2.411,3.049,1.081.189,3.714-.135,1.552,1.133-.443-.418-.887-.836-1.33-1.241-3.409.027-8.314.688-9.395-1.066a23.9,23.9,0,0,0-10.2-9.55c-.3-.148.637-.944,1.192-1.376a2.877,2.877,0,0,1,1.441-.391,26.984,26.984,0,0,1,3.3.148c6.1.634,9.727,2.86,13.552,4.991,2.771,1.524,6.236,2.954,10.559,2.2,8.259-1.457,13.025.607,17.376,3.453l-.222-.108c1.663.216,3.88.175,4.933.688,9.977,4.856,24.554,6.137,34.864,10.71a13.046,13.046,0,0,0,4.739.836c7.483-.027,12.915,2.091,18.734,3.925,4.794,1.511,9.727,3.844,14.827,4.006,6.485.189,8.314,2.091,11.834,3.817,3.88,1.9,7.012,4.789,13.663,4.735,7.871-.054,12.942,1.646,16.517,4.964,1.275,1.187,4.157,1.929,5.986,3.008,4.573,2.684,12.194,3.345,16.905,5.53,10.947,5.1,24.61,8.336,35.64,13.287,4.185,1.888,10.143,2.765,12.97,5.409,4.822.175,8.092,1.416,10.088,3.534a7.664,7.664,0,0,1,1.3.243c.222.067.3.27.416.4-.471-.27-.97-.526-1.441-.8-4.85-.04-9.062-.62-10.725-3.2-3.6-.216-6.54,1.012-9.783,1.174-4.351.2-6.762-1.929-10.226-2.887-7.012-1.956-13.8-4.114-20.979-5.881-5.57-1.362-9.145-3.345-11.169-6.11l.249.135a20.251,20.251,0,0,1-11.39-.567c-6.291-1.983-12.166-4.29-19.9-4.937-2.716-.216-3.381-1.43-3.409-2.576-.055-2.779-3.3-2.617-7.76-2.59-4.434.04-8.619-1.578-13.441-1.147l.3-.135c1.691.7,3.436,1.389,5.1,2.131,1.275.567,2.467,1.16,3.63,1.781,1.053.567,1.164,2.792.388,3.143-1.8.863-2.938-.027-4.1-.378-4.85-1.47-9.423-3.21-15.464-3.345l-.333.2c-.416.567-.277,1.12.333,1.632l-.249-.135c2.411.634,3.076,1.254-.028,1.875l.3-.121c-3.076,3.251-3.27,3.588.471,4.937,6.928,2.522,14.078,4.9,21.2,7.3,5.21,1.754,10.614,3.413,15.769,5.22,1.275.445,3.1,1.484,2.8,1.929-3.132,4.316,3.63,3.79,8.425,4.249l-.277.135a7.9,7.9,0,0,1-1.025-1.551c-.416-1.106-1.885.121-.443-.755a4.962,4.962,0,0,1,2.494-.5,32.137,32.137,0,0,1,13.025,6.151v-.013c1.58.256,4.545.553,4.517.769-.416,4.006,6.263,5.328,11.335,7.136A9.954,9.954,0,0,0,317.715,284a8.136,8.136,0,0,1-1.33-.162c-.222-.067-.249-.3-.36-.459.5.243.97.5,1.441.742,3.076.013,6.374.3,6.457,2.037.166,3.156,2.827,5.207,8.591,6.637a65.808,65.808,0,0,1,16.212,6.2c3.326,1.835,8.286,2.968,12.526,4.411,6.125,2.091,12.693,4.02,14.827,7.864.831,1.524,3.132,2.293,5.46,3.1,7.067,2.428,14.079,4.883,21.256,7.244,9.09,2.995,18.6,5.733,27.409,8.9,6.43,2.307,12.914,4.735,15.824,8.727.887,1.187,3.714,2.064,5.764,3.022,1.663.782,4.185,1.322,5.1,2.253,3.769,3.844,8.564,6.92,15.963,9.55a160.99,160.99,0,0,1,17.792,7.932A157.008,157.008,0,0,1,512.4,375.082a101.986,101.986,0,0,0,26.356,13.287A43.6,43.6,0,0,1,550.62,394.3a33.6,33.6,0,0,0,18.707,6.987c3.215.243,4.822,1.295,6.818,2.334,6.374,3.318,6.457,3.156,15.935,2.954,3.658-.081,3.88-1.389,3.464-2.172-2.245-3.979-2.688-8.255-7.538-11.843-1.774-1.322-2.051-2.6,1-3.629l-.277.135c-4.517-4.316-12.693-6.879-20.286-9.6-4.517-1.619-1.192-2.711-.249-4.06-9.727.054-10.5-.229-13.968-5.031a12.583,12.583,0,0,1-1.358-.283c-.194-.081-.166-.324-.222-.486l1.33.877c2.273.067,4.6.04,6.818.229,5.487.486,7.566,2.239,7.095,4.843,7.483-1.349,7.649-1.322,8.757,1.929.277.809.443,1.632.748,2.442a3.042,3.042,0,0,0,.665.769,6.292,6.292,0,0,0,5.487,1.443c2.494-.364,4.046-.2,5.709.863,2.965,1.875,6.928,2.927,12.083,2.563,2.633-.175,6.208.526,7.15-1.295.637-1.241-2.439-1.7-3.769-2.536-6.762-4.182-13.275-8.458-19.871-12.707-3.132-2.023-5.46-4.519-9.423-5.989-10.753-3.993-16.018-9.739-19.788-15.472-3.159-4.789-7.566-9.253-10.919-13.934-2.245-3.143-5.543-5.409-10.614-7.392-4.434-1.74-4.129-2.441.665-3.183,2.661-.418,6.4-1.457,7.871-.971,4.129,1.376,8.979,2.468,11.446,4.937,2.965,3.008,5.515,6.07,9.589,8.889,5.266,3.615,11.169,7.014,16.074,10.764,1.109.85,3.769,1.2,5.709,1.781.582-.418,1.164-.823,1.746-1.241.5.418,1.025.823,1.524,1.241a8.183,8.183,0,0,1,1.219.2c.194.067.249.256.388.391-.471-.243-.915-.486-1.358-.728-1.247,0-2.494,0-3.769-.014.637,2.9,3.381,5.315,7.039,7.567,3.547,2.212,6.707,4.573,10.226,6.785,1.552.971,2.8,2.873,6.263,1.713,2.273-.769.416-1.969-.776-2.941a.934.934,0,0,1-.111-1.457c1.386-.89,3.159-.324,4.434.135,1.33.472,3.159,1.16,3.27,1.808.527,3.035,4.434,5.22,7.871,7.405,2.3,1.47,2.55,5.4,8.286,3.723,4.434-1.281-1.607-3.237-3.132-4.856-.776-.8-1.5-1.619.5-2.172a12.163,12.163,0,0,1,3.132-.256c5.46.067,6.042-.121,5.4-2.172a3.9,3.9,0,0,0-1.635-2.347c-1.081-.688-3.048-.755-3.575.31-.443.823-.554,1.74-2.66,1.5a8.417,8.417,0,0,1-4.074-1.376c-2.688-2.59-2.661-5.409-1.885-8.228-3.686-.728-3.658-4.667-10.337-2.806-1.358.378-2.3.2-2.55-.445-.3-.823-.97-1.686-.693-2.455,2-5.112-3.6-9.105-8.12-13.233-.97-.9-3.575-1.349-4.85-2.212-2-1.322-3.714-2.819-3.353-4.546.083-.337,1.69-.877,2.522-.836,4.157.148,5.46,2.846,10,2.765l-.277.135.249-5.153a8.877,8.877,0,0,1-2.577-.917c-.3-.3.582-.863.97-1.308.3.229.776.445.887.7a7.034,7.034,0,0,1,.5,1.619c4.129-1.228,5.6-3.332,3.27-5.058-4.185-3.129-7.649-6.2-7.316-10.036.083-.742-.8-1.012-2.245-.877-4.49.4-6.125-1.133-7.372-2.725a36.815,36.815,0,0,1-3.63-5.571c-1.746-3.3-3.741-6.5-9.506-8.781-2.3-.917-3.714-2.158-3.824-3.629-.222-3.278-3.88-5.746-7.677-8.242a33.176,33.176,0,0,1-4.878-4.424c-.166-.148.194-.62.471-.647a8.815,8.815,0,0,1,2.827-.081c.887.283,1.247.917,1.94,1.362,6.513,4.209,11.667,8.93,21.7,11.708,4.462,1.241,7.178,3.723,8.065,6.3.776,2.347,3.215,4.289,6.263,5.868,3.3,1.713,4.794,3.763,7.012,5.692,4.018,3.521,4.545,7.392,6.014,11.236,1.857,4.91,5.681,9.631,6.208,14.689,1.025.2,3.63-.108,1.524,1.106-.388-.418-.8-.836-1.219-1.255-.5-.135-.97-.31-1.5-.4-1.552-.256-3.1-.5-4.656-.742-.388.782-1.607,1.754-1.053,2.307,3.741,3.709,2.8,8.174,8.591,11.574,2.605,1.524,2.55,3.548.748,5.5a19.756,19.756,0,0,0-2.383,3.925,10.18,10.18,0,0,1,6.042,1.16c3.575,2.293,4.933,2.293,7.011-.054.665-.769.721-1.646,1.3-2.428.859-1.147,3.215-1.16,5.072-.135a24.776,24.776,0,0,1,9.561,8.876c1.33,2.145,2.605,4.29,4.157,6.394.637.89,2.633,1.187,4.24.931,1.469-.243,3.575-.85,3.8-1.457,1.829-4.708,2.217-9.51-1.247-14.042-3.547-4.667-3.159-10.076-11-13.934-.249-2.226-.527-4.451-.721-6.677-.138-1.673-.333-3.237-3.048-4.627-9.866-5.072-14.439-11.209-14.411-18.17a10.65,10.65,0,0,1-1.552-.175c-.249-.081-.277-.351-.388-.54l1.663.85c1.136-.553,3.187-1.093,3.242-1.659.055-1.335-.97-2.671-1.33-4.02-.277-1.066-1.164-2.671-.111-3.143,5.487-2.468,2.272-5.692,3.8-8.458a13.821,13.821,0,0,1,1.247-1.538l.277.189c-3.935.027-6.152-.958-6.54-2.846-.277-1.322-.3-2.671-.471-4.006-3.076.054-6.291-.175-7.455,1.875-.36.58-2.051.985-3.132,1.457-.665,2.779-.527,5.49,2.189,8.066.277.243-.693.823-1.247,1.2a5.037,5.037,0,0,1-1.524-.27c-5.792-2.374-6.956-5.517-6.1-8.984-2.356.014-3.215-.715-3.547-1.7a8.373,8.373,0,0,1-1.413-.3c-.222-.081-.166-.337-.222-.513.443.31.915.634,1.386.944,2.189.067,3.3.647,3.547,1.686h7.206c-1.8-3.062-3.6-6.124-5.321-9.213-.083-.135.61-.432,1.053-.58a3.323,3.323,0,0,1,1.441-.148c4.3,1.605,8.591,3.224,12.693,4.937.61.256.277,1.039.388,1.578,3.27-1.214,4.351-3.129,1.663-4.343-6.9-3.076-12.61-6.313-13.774-11.034-.111-.432-1.413-.877-2.356-1.187a19.632,19.632,0,0,1-8.841-6.057,14.659,14.659,0,0,0-3.3-2.927c-8.286-4.8-12.721-10.413-14.854-16.5-1.192-3.386-7.788-5.342-9.339-8.714-.748-1.673-.333-2.617,2.245-3.507l-.277.135c1.275-1.875,2.55-1.281,3.824-.014l-.249-.121c5.016,3.656,8.148,7.851,13.441,11.425a15.529,15.529,0,0,0,2.522,1.066c.443-.5,1.192-.985,1.275-1.5a30.126,30.126,0,0,0,.277-4.182c-1.192-.175-3.464-.067-1.3-1.147.388.4.8.809,1.192,1.214a43.317,43.317,0,0,1,4.268.823c2.854.836,4.794.364,6.346-.9-2.245-.054-2.965-.836-3.52-1.727-1.829-.229-3.242-.661-3.464-1.686a9.842,9.842,0,0,1-2.494-.688c-.416-.283-.028-.823,0-1.241a6.33,6.33,0,0,1,1.8.607c.416.432.333.958.443,1.443,2.106.121,3.3.674,3.437,1.713,2.106.081,3.381.607,3.575,1.673a13.494,13.494,0,0,1,8.009,4.006,14.865,14.865,0,0,0,9.589,4.343l-.249.135c-.443-1.066-.333-2.293-1.441-3.143-2.079-1.619-4.49-2.995-5.543-5-1.857-3.507-5.182-6.664-13.136-8.066-3.575-.62-4.129-2.482-4.129-4.209l.139.081-3.658-1.781.166.081c-2.965-1.578-7.593-2.968-8.453-4.775-.942-2.064-7.233-3.129-4.323-5.773.166-.135-1.136-.944-1.885-1.012-6.54-.567-6.236-3.669-8.924-5.638-.859-.634-.859-1.7.8-2.226a8.627,8.627,0,0,1,2.938.337c2.661.54,4.905,1.335,6.291,2.63a4.041,4.041,0,0,0,1.441.364c.554-.418,1.607-.958,1.386-1.295-2.744-4.182.748-8.646-2.716-12.855-1.136-1.416.083-3.278.222-4.937a17.779,17.779,0,0,0-1.774-.823c-8.453-5.355-16.933-10.656-21.921-17.1-1.746-2.28-5.654-4.155-8.591-6.218l.277.135c-7.455-2.172-5.543-7.284-12.637-9.618-.748-.243-.915-1.012-1.053-1.551a12.784,12.784,0,0,1-.139-2.522c-1.192-.58-2.383-1.147-3.575-1.727-1.164-.567-2.3-1.133-3.464-1.7a11.564,11.564,0,0,1-1.386-.324c-.222-.081-.194-.324-.277-.5l1.386.958c1.136.567,2.3,1.147,3.464,1.713,2.078.121,3.187.742,3.575,1.713,1.607.189,3.88.121,4.684.607,5.543,3.386,12.166,6.5,13,11.2l-.25-.121c3.187.769,5.931,1.7,7.095,3.48.637.971,2.078,1.173,3.409.3,2.383-1.565,4.711-.364,4.434.432-.831,2.509,1.192,4.182,4.3,5.976a239.683,239.683,0,0,0,22.975,11.385,14.945,14.945,0,0,0,3.215.418l-.249.121a6.289,6.289,0,0,1,.721-1.592c.665-.836,2.716-1.443,3.547-.634,3.852,3.79,10.919,6.057,16.822,8.876l-.277.135c-.055-2.2.693-4.37-2.466-6.421-7.51-4.923-14.8-9.941-19.982-15.593-.859-.931-3.242-1.551-5.016-2.266a3.447,3.447,0,0,0-1.58-.2,4.444,4.444,0,0,0-1.829,1.2c-1.386,2.388,4.268,3.979,3.1,6.353,1.718.7,3.6,1.335,5.127,2.131,1.469.755.831,2.226-.526,1.956a6.128,6.128,0,0,1-2.661-.971,15.02,15.02,0,0,1-1.691-3.224c-2.55.5-4.85,1.43-7.871.337-3.353-1.2-5.986-2.28-5.764-4.694.3-3.183-4.268-6.744-10.282-8.431-1.358-.378-2.993-.351-3.3-1.295-.887-2.59-3.409-4.87-7.51-6.448-4.684-1.794.637-4.816-4.656-6.691-4.046-1.43-6.236-3.993-6.18-6.7l.277.189c-5.487-1.308-9.256-3.022-7.594-6.421.416-.823-1.413-1.511-3.187-1.592-2.189-.094-2.633.85-2.965,1.632-.859,2.118-1.718,4.249-2.356,6.38-.36,1.214-1.774,1.227-3.1.661a129.04,129.04,0,0,1-22.393-12.612,9.807,9.807,0,0,1-1.413-.337c-.222-.094-.194-.324-.3-.5.471.337.942.661,1.386.985l10.7-.162-.249.108c-2.66-3.48-6.346-6.515-13.69-8.2-2.55-.58-4.49-1.754-6.707-2.644-6.152-2.468-11.5-5.261-18.984-7.1-6.291-1.565-10.753-4.843-17.016-6.866-5.182-1.673-8.73-4.64-14.106-6-8.536-2.158-13.5-5.922-20.231-8.876-1.58-.7-2.023-2-3.27-2.927-1.829-1.362-2.383.013-3.436.445a7.815,7.815,0,0,1-2.66.755c-1.053.014-2.079-.5-3.187-.593-5.681-.553-7.4-3.494-11.945-4.681-4.49-1.174-10.171-1.214-13.691-3.332-.693-.418-1.663-1.025-1.469-1.43.416-.917,2.245-1.093,3.908-.917,2.217.229,4.379.755,6.624.9a19.331,19.331,0,0,0,4.85-.432,4.689,4.689,0,0,0,2.051-1.241c.139-.108-.249-.54-.527-.567-8.647-1.039-15.88-3.17-21.783-6.421a2.769,2.769,0,0,0-2.91.162c-1.607,1.133-3.132,2.63-6.6,1.335-2.938-1.12-7.289-1.794-5.654-4.505,1.413-2.307-1.386-2.5-5.709-2.617-5.21-.135-9.561-2.131-15.048-2.536-4.323-.337-4.185-1.767.055-3.912a8.407,8.407,0,0,0,.942-.7c-2.328,0-3.492-.553-3.575-1.673-5.321.216-8.259-1.295-10.282-3.44-2.439,0-4.905-.013-7.372-.013.693.7,1.441,1.389,2.078,2.1.139.148-.166.553-.3.553a8.994,8.994,0,0,1-2.771-.081c-2.217-1.066-.665-1.794,1.275-2.415,2.273-1.524,4.545-1.767,6.818.014,5.238-.2,8.647.985,10.476,3.332,2.189.081,3.381.634,3.437,1.727a30.505,30.505,0,0,1,5.044.459c12.5,3.413,24.8,7.028,37.441,10.333,5.515,1.457,11.667,2.347,17.57,3.453a2.287,2.287,0,0,0,1.192-.553c.194-.216.277-.634,0-.755-6.956-3.318-12.111-7.554-21.173-9.766-1.5-.351-2.965-1.16-4.656-.432-4.157,1.794-6.513,1.619-7.871-1.214-1.053-2.2-5.127-2.846-9.229-3.332-2.494-.3-3.8-1.255-3.963-2.442-.055-.472.887-1.43,1.136-1.4,3.326.229,6.6.607,9.866.944,2.383,3.372,8.951,3.6,14.466,4.708,2,.4,3.27,1.592,5.182,2.212a11.428,11.428,0,0,0,4.628.634c4.767-1.106,7.76-.472,9.395,1.848,1.469,2.1,4.074,3.022,8.868,3.21,2.106.081,3.6,2.118,5.9,2.927,1.691.594,4.24.62,6.4.9l-.277.121c1.275-1.2,2.577-1.619,3.824,0l-.277-.148c1.524.378,3.021.809,4.6,1.133,3.769.769,8.009.7,7.871-.067-.194-1.227-1.968-1.969-3.8-2.6-6.43-2.185-10.975-5.881-20.009-6.057-9.755-3.386-19.732-6.637-29.21-10.211a107.724,107.724,0,0,0-14.189-4.735,8.34,8.34,0,0,1-3.436-1.781c-.416-.351.111-1,.416-1.484a2.145,2.145,0,0,1,1.219-.27c6.624,1.659,13.164,3.359,19.787,5.018,1.524.378,3.381.688,4.406-.337,1.081-1.079.859-2.172-1.053-3.008a12.959,12.959,0,0,0-3.021-.728C395.341,41,389.882,37.764,381.207,37.6c-2.688-.04-5.349-1.956-7.788-3.129a26.166,26.166,0,0,0-10.476-2.684c-5.1-.243-10.781.014-15.1-1.025-5.46-1.308-9.811-3.736-14.633-5.652-1.8-.715-3.686-1.362-5.46-2.077-2.965-1.187.471-1.2,1.386-1.484,1.857-.58,3.825-1.255,6.291-.513,3.132.944,6.6.823,10.06.553ZM550.731,349.993c-2.078-.094-3.409-.567-3.464-1.659a8.229,8.229,0,0,1-1.58-.216c-.249-.094-.166-.418-.249-.62.527.31,1.053.634,1.58.958,2.078.094,3.049.742,3.437,1.673l.942.567-.665-.7m-27.852-16.929c-.3-.135-.582-.283-.887-.418l.61.567,3.575,1.74a13.352,13.352,0,0,1,2.633.944c.887.58.416,1.106-.942,1.254-.166.027-.721-.432-.831-.688a12.445,12.445,0,0,1-.582-1.659l-3.575-1.74m62.633-3.386c-.3-.189-.61-.378-.915-.553.194.229.416.459.61.7l3.6,1.713c4.212,1.781,6.291,4.087,6.873,6.745.3.189.61.378.914.58l-.637-.715c-6.762-1.174-6.6-4.006-6.845-6.744-1.219-.58-2.411-1.147-3.6-1.727m-69.589-1.673c-1.192-.567-2.356-1.12-3.52-1.686l-.776-.607c.166.256.333.513.471.769,2.162.067,3.242.688,3.52,1.673a8.2,8.2,0,0,1,1.524.229c.277.081.277.351.388.54-.527-.3-1.081-.607-1.607-.917m20.924-10.184L535.6,317.3c.3.216.637.432.942.661l.859.647c-.166-.27-.36-.526-.554-.782m-212.2-76.186a10.611,10.611,0,0,1-1.386-.216c-.249-.067-.333-.27-.471-.4.5.256,1.025.513,1.552.769,1.164.58,2.356,1.174,3.547,1.754,2.383-.014,4.794-.027,7.178-.054-.166-.823-.333-1.632-.471-2.455-.139-.715-2.661-1.416-.222-2.077a8.211,8.211,0,0,1,3.132.229c4.684.985,8.009,3.4,13.469,3.413,2.356.013,4.268-.135,6.042.809,4.24,2.253,9.7,3.979,12.582,6.825,3.824,1.16,7.76,2.2,11.363,3.48,2.854,1.012,3.409,2.833,1.524,4.424a8.13,8.13,0,0,1-3.852,1.443c-2.189.2-6.845-1.821-7.233-3.075a58.43,58.43,0,0,1-1.441-6.407c-2.439.567-4.905,1.147-7.344,1.727a7.981,7.981,0,0,1,.139.8c.139.823,3.353,1.875-.36,2.414-3.436.5-5.6-.148-6.346-1.578-.859-1.565.915-2.482,3.409-3.224-.36-1.025.61-2.5-1.718-2.941-7.566-1.47-14.023-4.505-23.03-3.952.942,1.686,3.741,2.644,6.208,3.75,2.411,1.079,5.321,2.01,5.792,3.777.277,1.025-5.432.121-10.42-1.43-4.684-1.47-5.182-4.1-8.092-6.043-1.192-.58-2.383-1.16-3.547-1.754m-79.981-59.257c-2.051-.121-3.159-.715-3.492-1.686l-1.164-.486.831.634,3.547,1.686a12.2,12.2,0,0,1,1.552.283c.249.081.249.324.388.5-1.109.108-1.635-.2-1.663-.931M533.3,179.047a7.321,7.321,0,0,1-1.192-.351c-.194-.081-.139-.3-.194-.445.36.31.748.62,1.109.931,2.328-.027,3.464.567,3.575,1.673,1.635.04,3.27.04,4.878.135,1.053.067,2.079.3,3.1.445a18.5,18.5,0,0,1-2.356.971c-3.991,1.066-4.018,1.052-5.4-1.659-2.217-.054-3.159-.742-3.52-1.7m-52.185-25.44c-1.136-.567-2.3-1.12-3.437-1.686-1.8-.256-3.353-.634-3.409-1.713a10.019,10.019,0,0,1-1.358-.135c-.249-.067-.36-.27-.527-.418l1.58.688c1.746.283,2.993.8,3.409,1.713,1.164.567,2.356,1.12,3.52,1.673.665.243,1.469.54.222-.121m45.256-1.673c-1.691-.351-1.968-.594-.859-.594.194,0,.36.486.554.742a9.019,9.019,0,0,1,1.552.189c.249.081.249.364.388.553-.554-.3-1.109-.594-1.635-.89m-48.665-5.085a10.19,10.19,0,0,1-1.635-.148c-.277-.081-.3-.378-.443-.566.97-.175,1.58.108,1.8.85l3.852.04c-.055-1.174-.111-2.347-.139-3.521-2.3-.013-3.575-.526-3.464-1.7-2.356.04-3.52-.526-3.547-1.659a3.714,3.714,0,0,1-3.436-1.754c-.388-.108-.8-.175-1.164-.31-.194-.067-.249-.229-.36-.351.416.27.8.54,1.219.809,1.912.175,3.353.594,3.686,1.632,2.189.067,3.132.728,3.409,1.713,2.051.135,3.3.661,3.492,1.7,3.575.4,5.6,1.808,7.871,2.995,2.189,1.147,7.316,2.455,5.1,3.723-3.159,1.821-4.711-1.174-7.316-1.781-2-.472-3.8-1.106-5.653-1.673-1.109.8-2.189,2-3.27,0m3.464-11.87c-1.164-.567-2.328-1.133-3.492-1.686a44.6,44.6,0,0,1-4.711-.62c-.582-.135-1-.877-.8-1.268.3-.526,1.469-.5,2.411.067,1.025.62,1.885,1.295,2.8,1.956l3.492,1.7a10.914,10.914,0,0,1,1.358.351c.249.094.333.27.5.418-.527-.3-1.053-.607-1.552-.917m-38.245-8.485c-2.134-.081-3.52-.526-3.437-1.686a10.591,10.591,0,0,1-1.5-.094c-.3-.054-.416-.3-.637-.445l1.829.688c1.8.243,2.965.782,3.464,1.673.277.175.554.351.859.513-.194-.216-.388-.418-.582-.647m55.566-6.718c-1.8-.229-3.159-.674-3.409-1.659a11.6,11.6,0,0,1-1.3-.27c-.194-.081-.222-.283-.333-.432.471.27.915.54,1.386.823,2.272.013,3.409.567,3.381,1.673l1.219.513c-.3-.216-.61-.432-.942-.647M300.284,94.364c-.388-.094-.831-.175-1.164-.3-.194-.067-.277-.216-.416-.337.416.27.831.526,1.247.782a11.2,11.2,0,0,1,1.607.229c.277.081.36.324.527.5-.61-.3-1.192-.594-1.8-.877m69.589-55.871a9.224,9.224,0,0,1-1.247-.189c-.222-.067-.3-.243-.443-.378l1.413.7a11.2,11.2,0,0,1,1.607.229c.249.081.277.337.416.513-1.164.148-1.746-.135-1.746-.877m72.776,78.074a10.1,10.1,0,0,1,2.494.863c.388.337,0,.89-.055,1.349a6.213,6.213,0,0,1-1.607-.8,4.114,4.114,0,0,1-.527-1.565c-.333-.189-.637-.378-.97-.58l.665.728M206.085,170.738c2.771.135,5.848-.04,7.067,1.659,4.49.364,8.785.877,10.614,3.264,1.192.216,3.3.2,1.192,1.2l-1.413-1.093c-5.626.351-7.372-1.915-10.088-3.521-2.688-.216-5.4-.391-7.039-1.646a15.08,15.08,0,0,1-1.5-.364c-.222-.081-.3-.283-.443-.432.554.31,1.081.62,1.607.931m365.32,30.445a12.827,12.827,0,0,1,2.3,1.133c.693.634.166,1.079-1.053,1.039-.277-.013-.554-.459-.637-.715a10.9,10.9,0,0,1-.3-1.605,10.6,10.6,0,0,1-1.413-.175c-.249-.067-.333-.31-.471-.459l1.58.782m24.277,25.427c3.381.594,3.52,1.956,3.436,3.386a10.483,10.483,0,0,1,2.633.769c.416.3,0,.877-.028,1.335a6.282,6.282,0,0,1-1.746-.7,3.908,3.908,0,0,1-.554-1.524c-3.3-.634-2.854-2.145-3.409-3.413a11.088,11.088,0,0,1-1.552-.324c-.249-.094-.222-.364-.3-.54.5.337,1.025.674,1.524,1.012M491.4,306.154a28.061,28.061,0,0,1,2.744,1c.333.162.471.621.249.8-.915.688-1.774.58-2.162-.283a12.935,12.935,0,0,1-.554-1.659,11.031,11.031,0,0,1-1.552-.2c-.249-.094-.249-.378-.36-.58.554.31,1.081.62,1.635.931M359.2,48.825c1.358.472,2.688.931,4.046,1.416,1.192.432,1.469,1,.5,1.12a4.828,4.828,0,0,1-2.577-.432,8.953,8.953,0,0,1-1.663-2.253,9.419,9.419,0,0,1-1.358-.229c-.249-.067-.333-.27-.471-.418.5.27,1.025.526,1.524.8M578.583,194.249c-2.273-.432-3.381-1.214-2.55-2.361a25.971,25.971,0,0,1,2.661-2.738c-2.882-.445-4.684-1.47-5.764-2.738-.277-.324.582-.89.887-1.335.443.175,1.081.3,1.275.526,1.136,1.214,2.162,2.441,3.215,3.682,3.464,2.131,3.464,2.131-.028,5.1a11.553,11.553,0,0,1,2.328,1c.776.58.333,1.052-.859,1.133-.111,0-.443-.459-.582-.7-.222-.526-.388-1.052-.582-1.565m-76.49-40.44c.028-1.2.028-2.415.028-3.615-4.878-1.12-2.827-3.386-3.492-5.18-.693-1.861-2.411-3.035-6.4-3.332-1.663-.135-3.3-.378-4.933-.594-1.386-.189-1.94-.7-1.219-1.322a4.682,4.682,0,0,1,2.356-1.025c11.141-.674,14.3.418,16.739,5.706a6.365,6.365,0,0,1,.111,2.509c1.58.364,1.829.607.776.594-.194,0-.36-.459-.527-.715-2.467.85-4.462,1.835-3.741,3.494,2.716,1.12,3.409,2.239-.028,3.345.166,2.2,4.933,2.873,6.374,4.654a.581.581,0,0,1,0,.769,2,2,0,0,1-2.577.337,39.194,39.194,0,0,1-5.57-3.048c-1.469-1.093-.222-2.023,2.106-2.576M408.173,267.022c-1.691.175-3.381.351-5.072.5-4.739.432-5.487.216-7.455-2.023-1.081-1.228-.637-2.954.776-2.981,3.326-.067,5.016,1.147,6.956,2.118,1.607.8,2.993,1.686,4.462,2.536,1.192.567,2.383,1.147,3.6,1.727,10,2.266,17.986,5.719,24.222,10.13a10.961,10.961,0,0,1,1.192.31c.222.067.3.229.443.351l-1.33-.809c-12.61-.809-20.092-4.532-24.249-10.13-2.023-.162-3.27-.715-3.547-1.727M463.6,292.611c3.353.324,6.762.472,8.785,2.185,2.3,1.915,4.988,3.709,7.289,5.611.333.283-.36,1.133-1.025,1.349a5.855,5.855,0,0,1-2.91-.175c-5.072-2.684-9.339-5.638-11.861-9.119-1.053-.135-2.079-.31-3.132-.378-1.746-.108-2.106-.378-.859-.8a3.146,3.146,0,0,1,1.5.189,21.123,21.123,0,0,1,2.217,1.133m97.358-81.285c3.1-.04,5.709.378,7.178,1.821A48.33,48.33,0,0,0,583.1,223.359c.721.31.8,1.012,1.025,1.551.083.229-.139.607-.5.715a8,8,0,0,1-2.827.621c-2-.5-4.351-1.039-5.543-1.888-4.462-3.224-8.7-6.542-12.665-9.928-1.081-.9-.942-2.145-1.386-3.224a11.3,11.3,0,0,1-1.469-.2c-.249-.081-.222-.351-.333-.54.526.283,1.025.58,1.552.863m-6.984-30.633-1.164.567c.5-.135.97-.283,1.469-.432-1.718-4.209-10.781-5.706-14.439-9.24-2.245-2.172-5.626-2.63-9.339-.486a7.968,7.968,0,0,1-2.91.175c-.416-.013-.748-.4-1.164-.594-6.818-3.183-10.309-7.3-13.5-11.466-.277-.378.637-.971,1.109-1.443a7.171,7.171,0,0,1,1.58.229c.97.31,1.8.7,2.771,1a8.694,8.694,0,0,0,2.716.661c1.885-.62.776-1.43.139-2.2-1.275-1.47-5.6-2.1-4.628-4.168.582-1.214,4.157-.189,9.118,2.644,1.5.85,2.744,1.794,4.157,2.684,7.039,4.411,13.358,9.186,21.423,13.125,5.349,2.617,6.984,5.679,9.145,8.808.582.85-1.441,1.241-3.326.823l-3.159-.688m23.612,144.089c-.776.283-1.69.877-2.272.8-10.531-1.241-16.434-3.777-16.573-8.242-.055-1.861-.554-2.981-2.993-4.289a120.2,120.2,0,0,1-20.231-13.57c-2.577-2.185.028-3.723,1.635-5.45a2.241,2.241,0,0,1,2.771-.229c5.681,3.48,11.778,6.812,14.3,11.263.582,1.066,1.053,2.468,2.605,3.022,7.7,2.7,7.039,8.4,16.268,10.454q2.245,3.136,4.49,6.245m30.54-56.937c1,.621,2.688,1.214,2.827,1.9.166.715-1.053,1.538-1.857,2.253a4.369,4.369,0,0,1-2,1.052c-1.136.189-5.848-2.172-5.737-2.941.055-.4.887-.931,1.663-1.174,1.469-.432,3.132-.688,5.1-1.093M229.78,182.136c-.249.243-.36.526-.693.674a2.892,2.892,0,0,1-1.3.108c-3.326-1.052-6.651-2.1-9.783-3.251-.416-.148.111-.944.36-1.416a2.776,2.776,0,0,1,1.3-.175c4.185.877,8.12,1.915,10.115,4.06m306.1,101.113c2.134,1.254,4.351,2.5,6.4,3.8.831.553.416,1.214-.915,1.376a5.824,5.824,0,0,1-2.882-.391,40.009,40.009,0,0,1-4.046-3.6c-.194-.2-.083-.526.111-.742a5.57,5.57,0,0,1,1.33-.445M396.893,115.878c-.139.243-.166.513-.388.728-.527.5-1.247.418-1.94-.243-.471-.459-.665-1.025-1.33-1.389-1.053-.567-1.136-1,.3-1.12a5.336,5.336,0,0,1,2.522.594c.582.364.582.944.831,1.43M249.041,188.732a6.389,6.389,0,0,1-1.524.31,29.716,29.716,0,0,1-4.656-.526c-.554-.121-.887-1.012-.527-1.349,1.192-1.147,2.744-.351,4.046.013,1.275.337,2.882.607,2.661,1.551M142.011,218.8c-2.079-.728-1.857-1.727-1.413-2.752.333-.755,1.164-.931,2.383-.459,1.691.647,3.52,1.335,1.774,2.5a12.468,12.468,0,0,1-2.744.715m136.046,39.509a9.182,9.182,0,0,1-1.663.985c-1.885-.486-3.935-1-3.409-2.293.277-.7,1.275-.863,2.162-.432,1.081.553,1.968,1.174,2.91,1.74M457.918,132.483a11.157,11.157,0,0,1-2.716.688,13.471,13.471,0,0,1-2.938-.634,10.505,10.505,0,0,1,2.744-.782,12.108,12.108,0,0,1,2.91.728m4.933-8.458c1,.553,1.968,1.079,2.938,1.619a4.715,4.715,0,0,1-1.247.432c-1.857.067-2.91-.4-2.91-1.295,0-.2.61-.391,1.219-.755m-11.03,162.367a3.393,3.393,0,0,1-.915-.175c-.222-.175-.443-.486-.277-.647.554-.58,1.192-.513,1.524.2.111.175-.194.418-.333.621m160.628-9.011c-.249.256-.5.5-.776.742-.333-.216-.915-.4-.97-.634-.249-.769.36-1.106,1.3-.836.333.094.3.486.443.728M411.387,122.744l-1.219-.324.693-.459c.637.162,1.192.378,1.746.566-.416.067-.8.148-1.219.216m-42.707-16.807c.111.243.5.54.333.7-.665.594-1.413.513-1.774-.216-.083-.189.249-.432.36-.647l1.081.162M628.357,290.088l.776-.31.166.5Zm-86.189,54.428-.582-.472.831-.067Z" transform="translate(94.136 2.039)" fill="#c97a1f"/>
        <path id="Path_1890" data-name="Path 1890" d="M9.207,22.665c3.769,2.482,6.4,5.045,2.411,8.08-.831.607-.61,1.2.831,1.349A8.466,8.466,0,0,0,15.47,31.7a12.127,12.127,0,0,0,2.383-1.174c1.552-.85,1.635-3.049,5.764-1.5,2.439.917,1.136,1.808.166,2.86-1.552,1.713-1.025,3.575,3.076,4.006,4.767.5,6.928,1.619,7.122,3.871.222,2.536,3.547,3.372,8.065,3.237a28.129,28.129,0,0,1,13.746,2.671c2.522,1.2,4.767.391,5.072-1.646.388-2.59.471-2.644,3.658-1.713,3.409,1,6.513,2.307,10.836,2.28l-.222.121c1.136-.553,2.3-1.093,3.464-1.646l.333-.2c-3.1-2.1-5.182-4.128-2.328-6.879,2.272-2.185,1.663-2.32-5.376-4.546-2.91-.917-5.349-2.077-6.457-3.75l.36.121c-7.012.661-11.806-1.484-17.072-3.129-4.074-1.281-4.462-1.174-9.007,1.093-3.353,1.673-5.4,1.646-8.37-.067-1.912-1.093-2.882-2.1-2.411-3.723.637-2.307-1.3-4.37-6.18-5.382a8.792,8.792,0,0,0-3.021-.094c-1.358.256-.97.755-.471,1.4a7.5,7.5,0,0,1,1.247,3.237c.222,1.443-1.691,1.942-5.543,1.646-1.663-.121-3.353-.121-5.044-.175Zm50.827,9.307c2.633.175,6.707,2.023,6.873,3.183,0,.175-.416.445-.8.54a9.38,9.38,0,0,1-6.069-.418c-1.746-.782-2.106-1.821-1.109-2.9a4.41,4.41,0,0,1,1.109-.4M49.115,28.8c1.885-.31,5.182,1.254,4.933,2.361a1.261,1.261,0,0,1-.915.58c-2.3.432-5.182-.931-4.85-2.293.055-.229.554-.432.831-.647M36.533,33.065c1.3.432,2.66.89,4.046,1.322,1.413.445,1.58.836.36,1.133a3.73,3.73,0,0,1-1.58.067c-1.441-.391-2.827-.836-4.129-1.322a.435.435,0,0,1-.222-.647,6.854,6.854,0,0,1,1.524-.553m15.159,7.54a16.31,16.31,0,0,1-2.771-1.875c-.3-.337.443-.917.693-1.376A6.158,6.158,0,0,1,51,37.786a26.962,26.962,0,0,1,2.744,1.956c.139.121-.249.486-.582.647a7.026,7.026,0,0,1-1.469.216" transform="translate(245.952 205.903)" fill="#c97a1f"/>
        <path id="Path_1891" data-name="Path 1891" d="M99.7,42.705c-1.025-1.012-3.021-2.037-2.882-3.008.388-4.654-10.282-5.018-13.219-8.336-.222-.256-3.326-.216-4.6.135A16.286,16.286,0,0,1,66.725,30.39c-4.545-2.118-9.617-4.681-15.27-5.3-6.014-.661-10.67-2.725-17.127-2.873-4.933-.121-9.811-1.524-14.577-2.482a42.263,42.263,0,0,0-15.242-.391c-1.386.229-3.048,1.052-3.242,1.7-.139.513,1.718,1.174,2.8,1.74a4.15,4.15,0,0,0,1.469.432c18.457,1.875,32.924,7.743,49.3,11.695,11.917,2.873,23.834,5.746,35.64,8.714,4.046,1.025,6.54-.337,9.478-1.052Z" transform="translate(33.599 175.719)" fill="#c97a1f"/>
        <path id="Path_1892" data-name="Path 1892" d="M21.726,4.235c-.416,1.133-.388,2.2,1.3,3.143a14.65,14.65,0,0,1,3.048,2.01c1.524,1.524-2.882,3.183.277,4.708,2.439,1.187,5.016,2.307,7.4,3.521.748.378.8,1.106,1.58,1.457,3.686,1.713-.776,4.505,3.52,6.111,3.63,1.349,8.092,2.415,10.725,4.141a111.581,111.581,0,0,0,16.1,8.714A119.79,119.79,0,0,0,77.79,42.719c1.663.526,4.351.31,6.6.418l-.277.121c-1.053-1.74-2.079-3.467-3.132-5.193-2.134-.121-3.187-.769-3.575-1.727-.36-.162-.748-.31-1.136-.459.277.2.554.4.831.594,1.192.58,2.383,1.147,3.6,1.727l3.631-.121-.222.108c1-1.875-.776-3.359-3.436-4.465-9.617-3.952-19.206-7.878-24.831-13.556C43.758,16.6,37.578,10.278,27.435,5.813a39.734,39.734,0,0,0-5.9-1.484Z" transform="translate(574.421 373.251)" fill="#c97a1f"/>
        <path id="Path_1893" data-name="Path 1893" d="M81.091,33.343c2.272,0,4.628.148,6.818-.04,1.635-.148,3.159-.823,1.857-1.754a58.868,58.868,0,0,0-6.208-3.979,8.982,8.982,0,0,0-6.18-.877c-4.185,1.174-7.095.985-10.06-.944-4.794-3.116-10.032-6.07-15.021-9.105C44.426,11.882,34.81,7.875,27.743,2.79c-1.136-.823-3.769-1.12-5.737-1.673L22.228,1c-1.386,6.461,6.291,11.061,13.469,15.8,4.434,2.914,11.418,4.438,15.575,7.675,3.852,2.981,10.476,5.126,15.935,7.621,5.4,2.468,10.808,4.937,16.3,7.378a2.937,2.937,0,0,0,2.965-.324.506.506,0,0,0,.194-.674c-.443-.526-1.053-1-1.552-1.5-1.247-1.254-2.467-2.509-3.714-3.763-.416-.108-.859-.175-1.219-.31-.194-.081-.222-.27-.3-.4.388.283.8.567,1.219.85" transform="translate(587.859 420.478)" fill="#c97a1f"/>
        <path id="Path_1894" data-name="Path 1894" d="M34.785,32.487c8.564,2.158,16.49,4.654,20.868,9.105a5.777,5.777,0,0,0,1.968,1.295,9.31,9.31,0,0,0,5.986.836c2.189-.553,2.356-1.74,2.356-2.86l.249.175C59.7,37.02,54.711,32.46,47.145,28.8c-1.386-.674-1.358-2.037-1.968-3.075l.222.108c-2.245-.62-2.577-1.241,0-1.861l-.222.108c-3.159-1.848-6.346-3.669-9.45-5.544a10.253,10.253,0,0,0-5.9-1.066c-3.714.175-6.125,1.565-3.963,2.563,6.762,3.1,4.157,7.176,5.57,10.832l-.166-.081c1.219.594,2.467,1.187,3.686,1.781Z" transform="translate(669.029 194.327)" fill="#c97a1f"/>
        <path id="Path_1895" data-name="Path 1895" d="M20.824,34.138a37.093,37.093,0,0,0-4.157,1.389c-.61.3-.859,1.322-.859,1.322C25.979,38.36,34.238,42.1,45.1,42.744l1.33-.445c-.554.094-1.081.2-1.607.31,1.441.836,2.55,1.969,4.379,2.482,5.958,1.659,12.139,3.116,18.291,4.6,1.413.337,3.326.7,4.157-.337.249-.324-.721-1.012-1.469-1.376-3.215-1.538-8.951-1.308-10.975-3.683-1.053-.108-2.106-.175-3.132-.3a5.148,5.148,0,0,1-1.413-.27c.055-.58.942-.8,2.162-.418A11.624,11.624,0,0,1,58.9,44.443c2.272-.013,4.545.054,6.79-.081a3.945,3.945,0,0,0,1.94-1.025c.139-.135-.36-.526-.748-.715a7.032,7.032,0,0,0-2.577-1.012c-7.039-.3-11.945-3.345-18.18-3.763-7.455-.513-11.612-3.4-18.18-4.3-2.91-.4-5.4-.769-7.372.715a7.583,7.583,0,0,1,1.469.229c.222.081.139.364.222.566-.471-.31-.97-.607-1.441-.917" transform="translate(422.288 -24.064)" fill="#c97a1f"/>
        <path id="Path_1896" data-name="Path 1896" d="M28.026,4.445c.028,3.9-1.691,7.851,1.69,11.627,1.524,1.7-3.88,1.861-3.187,3.332a14.292,14.292,0,0,0,2.023,3.183,3.716,3.716,0,0,0,2.189.971,5.683,5.683,0,0,0,2.91-.688A7.309,7.309,0,0,0,35.065,20.5a2.608,2.608,0,0,1,.527-.782,1.709,1.709,0,0,1,2.494.081A33.136,33.136,0,0,0,41,22.817a8.977,8.977,0,0,0,2.91.674,1.685,1.685,0,0,0,.859-.674c.942-2.468,1.774-4.923-.083-7.446a48.472,48.472,0,0,1-4.3-7.23C38.613,4.54,38.225,4.364,28.3,4.324Z" transform="translate(707.049 391.75)" fill="#c97a1f"/>
        <path id="Path_1897" data-name="Path 1897" d="M18.489,9.341c.8.715,1.275,1.605,2.439,2.131,6.734,3.022,13.524,5.989,20.48,8.889a50.963,50.963,0,0,0,7.206,2.212,6.47,6.47,0,0,0,2.993-.526c.693-.324,1.5-1.147,1.164-1.389-3.852-2.752-7.787-5.477-11.972-8.107a9.825,9.825,0,0,0-6.236-.958c-4.3.728-6.6-.337-8.148-1.956-2.633-2.765-5.432-.513-8.176-.175Z" transform="translate(487.256 339.36)" fill="#c97a1f"/>
        <path id="Path_1898" data-name="Path 1898" d="M2.425,26.56c7.4-.742,14.356,1.12,21.866.836,3.27-.121,6.79,1.74,10.337,2.576a10.417,10.417,0,0,0,3.187-.3c1.469-.229,1.524-.674,1.025-1.362-1.192-1.551-1.635-3.318-5.182-4.141-4.1-.944-8.286-1.834-12.443-2.738-5.737,2.1-15.048,1.241-18.485,5.274Z" transform="translate(64.78 154.487)" fill="#c97a1f"/>
        <path id="Path_1899" data-name="Path 1899" d="M39.354,38.677c1.663-.567,6.762.162,3.658-2.239-.582-.459-1.552-.809-2.189-1.268-3.492-2.63-10.448-3.925-11.917-7.378-.3-.688-3.132-.364-4.185.135-2.882,1.376-.333,3.17-1.857,4.681-1.718,1.727,1.718,2.131,3.714,3.062,2.827,1.295,4.628,3.1,7.095,4.6.97.58,2.771,1.228,4.185.526,1.053-.513,1.192-1.47,1.746-2.239-1.663-.3-1.968-.54-.887-.593.166-.014.416.459.637.715" transform="translate(598.335 62.974)" fill="#c97a1f"/>
        <path id="Path_1900" data-name="Path 1900" d="M42.523,19.929a5.673,5.673,0,0,0,1.275-.472.592.592,0,0,0,.139-.688c-1.025-2.239-3.27-4.141-6.79-5.679-4.24-1.848-8.508-3.7-12.859-5.477a6.867,6.867,0,0,0-3.159-.391c-2.189.486-.776,1.295-.3,2.023,1.968,2.981,4.3,5.746,11.557,6.583,4.185.486,6.346,2.239,8.591,3.844a5.9,5.9,0,0,0,1.552.256" transform="translate(532.644 357.071)" fill="#c97a1f"/>
        <path id="Path_1901" data-name="Path 1901" d="M39.757,13.525c3.159-2.792.166-4.937-4.794-6.825-2.217-.85-4.157-1.888-6.263-2.806a3.952,3.952,0,0,0-1.524-.175,6.4,6.4,0,0,0-1.3,1.47.578.578,0,0,0,.166.8c5.155,3.426,7.677,7.378,9.838,11.412.416.728.693,1.592,2.688,1.322.637-.081,1.053-.958,1.136-1.484a26.562,26.562,0,0,0,.055-3.709" transform="translate(688.639 405.035)" fill="#c97a1f"/>
        <path id="Path_1902" data-name="Path 1902" d="M3.848,22.146c.194.256.249.661.61.742,7.788,1.713,15.6,3.413,23.5,5.031a4.219,4.219,0,0,0,2.467-.755c.111-.769.028-2.077-.8-2.253-7.843-1.673-15.686-3.4-24.249-4.06-2.3-.175.471-.189-1.247.58-.3.135-.194.472-.277.715" transform="translate(102.794 165.766)" fill="#c97a1f"/>
        <path id="Path_1903" data-name="Path 1903" d="M15.033,21.174c-3.908.31-7.843.513-11.667.971-1.441.175-3.132.823-2.328,1.834a4.256,4.256,0,0,0,2.134,1.133,14.857,14.857,0,0,0,3.353.243c7.677-.121,14.91-2.226,22.891-1.295.083.014.582-.4.582-.62a.745.745,0,0,0-.554-.688c-4.739-.715-9.173-2.091-14.411-1.578" transform="translate(22.186 164.176)" fill="#c97a1f"/>
        <path id="Path_1904" data-name="Path 1904" d="M25.126,25.411c0,.89-.527,1.807.083,2.468,2.938,3.17,8.314,5.261,14.023,7.19a2.487,2.487,0,0,0,1.33-.162c.5-.472,1.386-1.241,1.025-1.484C37.375,30.82,33,28.27,28.534,25.775a15.162,15.162,0,0,0-3.409-.364" transform="translate(665.552 95.772)" fill="#c97a1f"/>
        <path id="Path_1905" data-name="Path 1905" d="M16.077,32.922c1.164,3.156,9.2,2.86,11.584,5.5.859.985,2.882-.054,4.406-.081,2.8-.067,5.57-.229,8.342-.351l-.222.121c-5.46-4.694-14.522-5.3-24.333-5.072Z" transform="translate(423.544 -9.292)" fill="#c97a1f"/>
        <path id="Path_1906" data-name="Path 1906" d="M26.521,15.712c3.658,3.736,7.206,7.513,11.058,11.2,3.575,3.426,5.016,4.033,5.9,2.833,1.358-1.821-.8-3.2-2.134-4.681-2.771-3.049-8.591-5.193-10.42-8.552-.222-.391-3.049-.459-4.656-.661Z" transform="translate(701.819 231.39)" fill="#c97a1f"/>
        <path id="Path_1907" data-name="Path 1907" d="M36.717,15.984a33.346,33.346,0,0,1-2.993-3.993,32.472,32.472,0,0,1-1.746-4.816,11.667,11.667,0,0,0-2.189.594c.859,2.617-6.762,4.9-1.192,7.689,1.94.971,3.575,2.1,5.376,3.143a7.167,7.167,0,0,0,1.469.378A15.482,15.482,0,0,0,36.689,17.5c.166-.256.028-.553.028-1.511" transform="translate(709.056 357.86)" fill="#c97a1f"/>
        <path id="Path_1908" data-name="Path 1908" d="M36.375,16.507c-1.275-.391-2.827-1.295-3.963-1.174-6.374.647-8.591,3.6-4.878,6.151a3.357,3.357,0,0,0,1.219.553,14.949,14.949,0,0,0,2.91.391c2.189-1.794,5.931-3.318,4.711-5.922" transform="translate(687.392 244.502)" fill="#c97a1f"/>
        <path id="Path_1909" data-name="Path 1909" d="M34.188,33.648c-1.081-3.453-5.792-5.665-11.5-7.5-3.215,4.519,4.3,6.191,9.533,8.431A2.491,2.491,0,0,0,33.44,34.4c.36-.175.471-.459.748-.755" transform="translate(585.377 86.32)" fill="#c97a1f"/>
        <path id="Path_1910" data-name="Path 1910" d="M26.122,2.517c-1.136,3.075-.36,5.989,3.326,8.619a4.559,4.559,0,0,0,4.046.931c1.109-.364,2.217-1.389,1.968-1.969a10.432,10.432,0,0,0-3.242-3.709,70.19,70.19,0,0,0-6.4-3.723Z" transform="translate(684.925 427.441)" fill="#c97a1f"/>
        <path id="Path_1911" data-name="Path 1911" d="M13.581,25.963c-1.635.162-3.852.054-4.822.54a45.95,45.95,0,0,0-7.233,4.546c-1.413,1.12,1.081,1.362,2.494,1.538a26.226,26.226,0,0,0,5.044.121c2.467-.175,4.49-.985,4.018-2.185-.637-1.619-2.273-3.143.194-4.708Z" transform="translate(29.541 92.643)" fill="#c97a1f"/>
        <path id="Path_1912" data-name="Path 1912" d="M44.05,27.961c-3.187-3.372-9.312-5.382-14.938-7.621a7.114,7.114,0,0,0-2.965-.229c-1.192.175-1.219.8-.194,1.308,3.963,1.929,7.787,3.939,12.055,5.679,1.469.607,4.157.513,6.291.742Z" transform="translate(673.621 175.235)" fill="#c97a1f"/>
        <path id="Path_1913" data-name="Path 1913" d="M31.938,18.106c-5.57.013-11.169.013-16.739.04a6.766,6.766,0,0,0-1.5.378,9.6,9.6,0,0,0,1.524,1.147c4.628,2.293,9.921,1.2,14.938.486.859-.135,1-1.443,1.469-2.212Z" transform="translate(366.056 210.529)" fill="#c97a1f"/>
        <path id="Path_1914" data-name="Path 1914" d="M35.5,35.267c.748-4.478-6.734-5.166-12.748-6.529a5.044,5.044,0,0,0-1.58.121c-1.441.27-1.718.863-.3,1.227,5.376,1.4,7.677,4.95,14.91,5.031Z" transform="translate(532.494 51.154)" fill="#c97a1f"/>
        <path id="Path_1915" data-name="Path 1915" d="M37.7,7.195A30.11,30.11,0,0,0,26.25.356,2.671,2.671,0,0,0,24.975.234c-.388.121-.887.472-.776.634C26.305,4,28.439,7.114,36.338,7.856c.443-.229.887-.445,1.358-.661" transform="translate(646.026 463.136)" fill="#c97a1f"/>
        <path id="Path_1916" data-name="Path 1916" d="M19.958,26.87c-4.434-1.106-7.538-3.345-13.081-3.548a1.694,1.694,0,0,0-1.192.54c-.222.472-.582,1.174-.083,1.43a26.227,26.227,0,0,0,12.166,2.576,4.775,4.775,0,0,0,1.524-.3c.277-.108.333-.351.665-.7" transform="translate(142.942 131.178)" fill="#c97a1f"/>
        <path id="Path_1917" data-name="Path 1917" d="M18.048,22.119c-3.381-.823-6.457-2.131-10.7-1.551-1.413.2-1.968.607-1.33,1.079,2.827,2.1,6.4,3.656,11.945,3.7l-.222.135V21.917Z" transform="translate(153.804 172.659)" fill="#c97a1f"/>
        <path id="Path_1918" data-name="Path 1918" d="M10.042,20.349c.748,2.1,4.545,2.914,7.483,4.06a6.116,6.116,0,0,0,4.434.04c1.33-.54.8-2.185-1.109-2.806a19.428,19.428,0,0,0-4.323-1.079c-2.106-.216-4.379-.121-6.568-.175Z" transform="translate(266.04 174.308)" fill="#c97a1f"/>
        <path id="Path_1919" data-name="Path 1919" d="M36.618,15.858c.249-1.794-1.8-3.2-3.464-4.64-1.968-1.727-3.714-3.453-3.769-5.477l.194.094c-2.494.283-3.8,1.079-3.326,2.293,1.219,3.251,3.464,6.232,10.088,7.851Z" transform="translate(698.762 380.216)" fill="#c97a1f"/>
        <path id="Path_1920" data-name="Path 1920" d="M33.9,33.453c-2.522-4.384-4.545-5.22-12.527-5.112a4.675,4.675,0,0,0-1.469.351c-.887.351-.693.809.471,1.268a53.706,53.706,0,0,0,13.746,3.386Z" transform="translate(516.801 58.013)" fill="#c97a1f"/>
        <path id="Path_1921" data-name="Path 1921" d="M44.375,23.652c-3.3-1.794-6.568-3.6-9.894-5.369a15.219,15.219,0,0,0-7.455-1.389l.249-.108c4.018,3.332,8.979,6.1,17.4,6.731Z" transform="translate(721.961 223.558)" fill="#c97a1f"/>
        <path id="Path_1922" data-name="Path 1922" d="M32.212,9.017c-1.8-2.482-5.543-4.06-10.226-5.193l-.222.135a3.869,3.869,0,0,0-.139.782C21.791,10,21.791,10,32.433,8.9Z" transform="translate(577.681 412.578)" fill="#c97a1f"/>
        <path id="Path_1923" data-name="Path 1923" d="M32.148,8.5C31.012,6.412,25.912,6.237,24,4.47a1.6,1.6,0,0,0-2.328.472c-1.025,1.7-.194,3.777,2.356,4.586,3.048.971,5.293-.486,7.871-.89Z" transform="translate(567.518 407.899)" fill="#c97a1f"/>
        <path id="Path_1924" data-name="Path 1924" d="M22.631,24.89c-.527,3.426,3.963,5.517,8.508,7.594a3.136,3.136,0,0,0,1.192-.283c.36-.189.831-.472.748-.688-.388-1.052-.36-2.253-1.5-3.089A20.469,20.469,0,0,0,22.382,25Z" transform="translate(597.903 105.397)" fill="#c97a1f"/>
        <path id="Path_1925" data-name="Path 1925" d="M11.772,26.839c-.333-.823-.637-1.619-3.048-1.335-.554.067-1.053.175-1.607.27-2.8.472-5.376,1.106-4.656,2.873a4.263,4.263,0,0,0,2.494.971c3.409.391,5.266-.607,6.513-1.969.222-.243.194-.54.3-.809" transform="translate(62.445 100.696)" fill="#c97a1f"/>
        <path id="Path_1926" data-name="Path 1926" d="M13.12,18.642c.97,1.538,3.076,3.022.831,4.721-.166.121,1.3,1.052,1.774,1.012a6.745,6.745,0,0,0,2.771-.9c2.466-1.47,1.524-3.183,1.275-4.843l.333.162c-2.411,0-4.85-.014-7.261-.014Z" transform="translate(343.082 197.974)" fill="#c97a1f"/>
        <path id="Path_1927" data-name="Path 1927" d="M11.892,19.079a14.413,14.413,0,0,1-2.245,1.147c-1.275.445-3.159.836-2.494,1.713.8,1.066,2.965,1.646,5.293,1.605,2.855-.04,3.242-1.2,3.464-2.28.222-1.268-1.247-1.983-3.492-2.428Z" transform="translate(187.396 196.014)" fill="#c97a1f"/>
        <path id="Path_1928" data-name="Path 1928" d="M25.077,35.147c-1.3-1.16-8.037-1.808-10.254-.958-.36.135-.665.445-.665.674-.028.944,1.5,1.241,2.938,1.565,2.744.607,5.266.661,7.344-.567.333-.2.416-.472.637-.715" transform="translate(378.21 -19.152)" fill="#c97a1f"/>
        <path id="Path_1929" data-name="Path 1929" d="M26.064,1.4c-1.053,1.646-.693,3.224,1.58,4.559a13.106,13.106,0,0,0,3.991,1.268c1,.175,2.217-1.956,1.469-2.887-1.219-1.551-2.938-2.873-6.818-3.049Z" transform="translate(681.159 448.981)" fill="#c97a1f"/>
        <path id="Path_1930" data-name="Path 1930" d="M24.012,3.733c.5,3.345,4.24,5.5,10.42,6.758l-.277.121C33.74,7.254,29.971,5.1,23.763,3.841Z" transform="translate(634.795 412.669)" fill="#c97a1f"/>
        <path id="Path_1931" data-name="Path 1931" d="M13.7,21.88c-.277-.647-3.464-1.254-6.457-.7-1.33.256-1.635.688-1.164,1.268.915,1.093,2.467,1.794,4.988,1.619,1.718-.121,2.965-.647,2.633-2.185" transform="translate(156.822 166.788)" fill="#c97a1f"/>
        <path id="Path_1932" data-name="Path 1932" d="M24.987,29.534c-.249,1.349-1.081,2.765,1.275,3.858a5.816,5.816,0,0,0,2.8.324c.776-.189,1.663-.944,1.441-1.281-.915-1.349-3.048-2.226-5.792-2.752Z" transform="translate(658.235 41.483)" fill="#c97a1f"/>
        <path id="Path_1933" data-name="Path 1933" d="M32.687,9.046c.748-1.322-2.744-3.3-5.9-3.278a1.794,1.794,0,0,0-1.164.526C24.594,7.67,28.031,9.6,31.3,9.477a5.327,5.327,0,0,0,1.386-.432" transform="translate(679.469 386.354)" fill="#c97a1f"/>
        <path id="Path_1934" data-name="Path 1934" d="M33.644,6.382c-1.136-.027-2.3-.067-3.436-.054a6.958,6.958,0,0,0-1.5.27c-1.358.378-1.3.8-.083,1.335A17.451,17.451,0,0,0,36.3,9.484a12.058,12.058,0,0,0,1.58-.283c-.5-.364-1-.715-1.524-1.066-1-.634-2.023-1.241-3.048-1.875Z" transform="translate(740.036 379.697)" fill="#c97a1f"/>
        <path id="Path_1935" data-name="Path 1935" d="M21.95,28.1c-.277.229-.859.486-.776.674.8,1.848,3.575,2.725,7.012,3.21a2.073,2.073,0,0,0,1.275-.5c.582-1.147-4.767-3.534-7.51-3.386" transform="translate(565.412 62.648)" fill="#c97a1f"/>
        <path id="Path_1936" data-name="Path 1936" d="M29.128,8.964a9.332,9.332,0,0,0-6.374-2.131,3.168,3.168,0,0,0-1.386.337c-1.025.594.693,2.86,2.91,3.21,1.164.189,2.854-.378,4.212-.674.36-.081.416-.472.637-.742" transform="translate(562.695 371.058)" fill="#c97a1f"/>
        <path id="Path_1937" data-name="Path 1937" d="M37.025,22.251c.028-1.7-1.386-3.116-3.991-4.2-2.716-1.12-4.878-.728-6.291.809l-.222-.175c3.658,1.093,6.014,3.129,10.7,3.467Z" transform="translate(708.497 216.487)" fill="#c97a1f"/>
        <path id="Path_1938" data-name="Path 1938" d="M26.521,15.174c1.386.769,2.771,1.551,4.213,2.293,1.108.567,2.162.472,2.411-.256A2.7,2.7,0,0,0,33.2,14.9,4.356,4.356,0,0,0,28.655,13.3c-.97.162-1.247,1.349-1.857,2.064Z" transform="translate(708.471 277.574)" fill="#c97a1f"/>
        <path id="Path_1939" data-name="Path 1939" d="M16.956,32.726c2.356,3.372,7.982,3.521,13.94,3.345l-.3.148c-3.714-2-7.649-3.8-13.857-3.372Z" transform="translate(447.025 -4.024)" fill="#c97a1f"/>
        <path id="Path_1940" data-name="Path 1940" d="M7.319,25.83c2.827.081,5.626.229,8.453.229,1.5-.013,3.52-.094,3.048-1.214-.166-.4-1.413-.823-2.356-1.025-4.573-.931-7.594-.189-8.868,2.158Z" transform="translate(195.517 131.53)" fill="#c97a1f"/>
        <path id="Path_1941" data-name="Path 1941" d="M11.7,22.623c-2.66.135-5.321.216-7.926.472-.582.067-1.33.877-1.136,1.241a3.278,3.278,0,0,0,2.189.931c3.824.067,5.9-1.012,6.651-2.779Z" transform="translate(69.612 145.029)" fill="#c97a1f"/>
        <path id="Path_1942" data-name="Path 1942" d="M3.24,22.712C3.212,23.737,7.231,25.693,10,25.9a1.69,1.69,0,0,0,1.109-.567c.61-1.268-3.132-3.035-6.457-3.062a5.2,5.2,0,0,0-1.413.445" transform="translate(86.552 147.381)" fill="#c97a1f"/>
        <path id="Path_1943" data-name="Path 1943" d="M7.736,22.383c-.665-.31-1.33-.877-1.968-.877-2.439.013-4.268.782-4.739,1.834-.249.513,1.3,1.254,2.273,1.781a5.764,5.764,0,0,0,2.356-.58,13.9,13.9,0,0,0,2.079-2.158" transform="translate(26.795 158.407)" fill="#c97a1f"/>
        <path id="Path_1944" data-name="Path 1944" d="M25.053,26.839c-.055.216-.3.472-.166.647,1.164,1.4,4.129,2.266,6.319,1.848a3.139,3.139,0,0,0,1.136-.553c-1.386-.809-2.827-1.605-4.351-2.361a4.386,4.386,0,0,0-1.635,0,8.592,8.592,0,0,0-1.3.418" transform="translate(663.712 88.853)" fill="#c97a1f"/>
        <path id="Path_1945" data-name="Path 1945" d="M18.807,32.065a6.209,6.209,0,0,0,5.072,1.713c.582-.054,1.524-.809,1.33-1.066-.776-1.052-2.079-1.983-4.822-1.632-.665.081-1.053.647-1.58.985" transform="translate(502.402 21.605)" fill="#c97a1f"/>
        <path id="Path_1946" data-name="Path 1946" d="M8.684,22.156A9.337,9.337,0,0,0,5.912,21.5c-1.691.27-2.633,1.012-1.33,1.821a5.371,5.371,0,0,0,2.8.229c.748-.243.887-.9,1.3-1.389" transform="translate(106.106 160.239)" fill="#c97a1f"/>
        <path id="Path_1947" data-name="Path 1947" d="M7.005,25.423a7.206,7.206,0,0,0-2.273-.8c-1.718.108-2.605.755-1.552,1.538a4.854,4.854,0,0,0,2.605.513c.637-.135.831-.809,1.219-1.254" transform="translate(72.838 114.765)" fill="#c97a1f"/>
        <path id="Path_1948" data-name="Path 1948" d="M23.508,25.707c2.494.54,4.988,1.093,7.538,1.551.194.04,1.5-.8,1.3-1a6.775,6.775,0,0,0-5.072-1.794c-1.774.027-2.938.594-3.492,1.43Z" transform="translate(627.983 116.37)" fill="#c97a1f"/>
        <path id="Path_1949" data-name="Path 1949" d="M10.089,22.371c-.443-.445-.637-1.052-1.386-1.295a3.461,3.461,0,0,0-3.686.62c-.249.324.471,1.052,1.192,1.268a4.185,4.185,0,0,0,3.88-.594" transform="translate(132.691 169.453)" fill="#c97a1f"/>
        <path id="Path_1950" data-name="Path 1950" d="M.041,22.147c1.524.31,2.993.688,4.573.89a4.834,4.834,0,0,0,3.88-1c.249-.2.222-.715.139-.728a20.737,20.737,0,0,0-4.573-.4A15.086,15.086,0,0,0,.346,22.3Z" transform="translate(1.095 169.07)" fill="#c97a1f"/>
        <path id="Path_1951" data-name="Path 1951" d="M9.884,20.678c1.968,2.185,5.1,3.548,10.309,3.413l-.083.04c-1.413-2.684-5.293-3.494-10.531-3.318Z" transform="translate(255.889 170.579)" fill="#c97a1f"/>
        <path id="Path_1952" data-name="Path 1952" d="M6.432,27.5c.831-.486,1.912-.836,1.857-1.133a3.345,3.345,0,0,0-1.275-2.145c-.582-.445-3.686.742-3.215,1.376a11.761,11.761,0,0,0,2.633,1.9" transform="translate(100.183 120.772)" fill="#c97a1f"/>
        <path id="Path_1953" data-name="Path 1953" d="M18.47,19.191a25.863,25.863,0,0,0-3.243.027,16.647,16.647,0,0,0-2.716.8A12.658,12.658,0,0,0,14.369,21.3a16.372,16.372,0,0,0,7.593,1.133l-.277.135c-1.164-1.174-2.356-2.347-3.547-3.521Z" transform="translate(334.24 194.201)" fill="#c97a1f"/>
        <path id="Path_1954" data-name="Path 1954" d="M30.2,8.753c.388-.378,1.386-.877,1.247-1.268-.3-.863-1.746-1.47-3.6-1.308-.61.054-1.413.917-1.275,1.335.3.836,1.413,1.484,3.631,1.241" transform="translate(709.471 381.872)" fill="#c97a1f"/>
        <path id="Path_1955" data-name="Path 1955" d="M26.274,9.262c1.053.027,2.134.04,3.187.094,2,.094,2.965-.553,3.326-1.281.194-.378-.471-1.093-1.192-1.308-2.439-.715-3.852.081-4.739,1.066-.416.445-.277,1.012-.388,1.524Z" transform="translate(701.872 376.695)" fill="#c97a1f"/>
        <path id="Path_1956" data-name="Path 1956" d="M29.405,9.909a24.127,24.127,0,0,0,3.1-.62c1.358-.486,2.522-1.254,1.607-2.037-.887-.755-2.8-.917-4.545-.62-2.051.337-2,1.079-1.247,1.888.443.513.942,1.012,1.413,1.511Z" transform="translate(743.942 376.049)" fill="#c97a1f"/>
        <path id="Path_1957" data-name="Path 1957" d="M4.608,24.687c.388.877,1.33,1.551,3.3,1.322.721-.081,1.635-.782,1.607-1.187-.083-.836-1.053-1.592-3.132-1.268-.776.121-1.192.742-1.774,1.133" transform="translate(123.096 130.892)" fill="#c97a1f"/>
        <path id="Path_1958" data-name="Path 1958" d="M26.1,30.105a19.9,19.9,0,0,0-2.245-1.174c-1.025-.378-1.94-.162-2.273.513a.6.6,0,0,0,.36.742,9.965,9.965,0,0,0,2.744.7c.416.027,1.025-.553,1.413-.782" transform="translate(575.427 54.98)" fill="#c97a1f"/>
        <path id="Path_1959" data-name="Path 1959" d="M20.46,27.782c.277,1.187,2.079,1.754,3.935,2.293,1.025.283,1.857.094,2.162-.58a.639.639,0,0,0-.36-.742,10.907,10.907,0,0,0-5.82-.931Z" transform="translate(544.342 68.689)" fill="#c97a1f"/>
        <path id="Path_1960" data-name="Path 1960" d="M30.328,29.449c-1.219-.809-2.328-1.659-3.686-2.4a1.428,1.428,0,0,0-2.051.513.559.559,0,0,0,.36.715c1.857.391,3.769.7,5.681,1.039Z" transform="translate(655.999 82.318)" fill="#c97a1f"/>
        <path id="Path_1961" data-name="Path 1961" d="M3.878,24.192a10.779,10.779,0,0,0,2.965.31c.748-.175,1.386-.917,1.247-1.349-.222-.728-1.552-.89-2.633-.351a6.039,6.039,0,0,0-1.58,1.389" transform="translate(103.595 145.807)" fill="#c97a1f"/>
        <path id="Path_1962" data-name="Path 1962" d="M7.483,23.381c1.413-.27,1.746-.728.721-1.214a20.852,20.852,0,0,0-2.688-.836c-.277.5-1.025,1.079-.721,1.443.277.324,1.746.418,2.688.607" transform="translate(126.179 162.521)" fill="#c97a1f"/>
        <path id="Path_1963" data-name="Path 1963" d="M26.509,24.169c1.912-.391,4.794-.445,3.63-2.05a3.525,3.525,0,0,0-2.217-1.093c-3.049.027-2.661,1.362-3.187,2.32.61.256,1.219.526,1.774.823" transform="translate(660.76 165.848)" fill="#c97a1f"/>
        <path id="Path_1964" data-name="Path 1964" d="M29.4,27.067c.36-1.16-.3-2.145-2.217-2.887a4.261,4.261,0,0,0-1.607-.229c-1.469.189-1.884.607-1.136,1.106a9.433,9.433,0,0,0,5.182,1.9Z" transform="translate(643.045 123.656)" fill="#c97a1f"/>
        <path id="Path_1965" data-name="Path 1965" d="M12.807,21.88c.055-1.147-.665-2.172-2.854-2.671a8.894,8.894,0,0,0-2.882.364c-.139.027-.055.486.139.7a7.718,7.718,0,0,0,5.072,1.848Z" transform="translate(187.036 192.984)" fill="#c97a1f"/>
        <path id="Path_1966" data-name="Path 1966" d="M25.6,4.7c-.693-.755-1.774-1.12-3.492-.742-1.192.27-1.386.728-.36,1.2a19.186,19.186,0,0,0,2.577.8c.416-.418.859-.836,1.275-1.254" transform="translate(563.123 416.286)" fill="#c97a1f"/>
        <path id="Path_1967" data-name="Path 1967" d="M18.388,35.874a5.85,5.85,0,0,0-4.212-.823,11.134,11.134,0,0,0-2.522.89,29.788,29.788,0,0,0,4.3.823,7.5,7.5,0,0,0,2.439-.89" transform="translate(311.32 -34.986)" fill="#c97a1f"/>
        <path id="Path_1968" data-name="Path 1968" d="M18.581,36.048c-1.164-.472-2.3-.931-3.464-1.389-.3.216-.887.432-.859.647.111.89,1.025,1.484,3.048,1.376.388-.027.693-.337,1.275-.634" transform="translate(380.854 -30.574)" fill="#c97a1f"/>
        <path id="Path_1969" data-name="Path 1969" d="M10.8,26.453a5.159,5.159,0,0,0-5.293-.674c-2.106,1.039-.139,1.848,1.746,2.455l-.3.108c1.136-.553,2.273-1.12,3.409-1.673Z" transform="translate(122.835 103.794)" fill="#c97a1f"/>
        <path id="Path_1970" data-name="Path 1970" d="M23.811,34.832c-.277-1.214-1.912-1.942-4.046-2.347a4.81,4.81,0,0,0-2.134.688c-.249.121-.083.594.222.755,1.691.89,3.935.877,6.18.782Z" transform="translate(467.745 0.776)" fill="#c97a1f"/>
        <path id="Path_1971" data-name="Path 1971" d="M29.556,18.223c-1-.594-1.857-1.12-2.744-1.646-.582.283-1.663.567-1.635.85a1.61,1.61,0,0,0,1.247,1.227,12.331,12.331,0,0,0,3.132-.432" transform="translate(672.567 231.334)" fill="#c97a1f"/>
        <path id="Path_1972" data-name="Path 1972" d="M28.19,17.715c1.774-.229,2.633-.85,2.466-1.673a2.182,2.182,0,0,0-1.552-1.2,5.018,5.018,0,0,0-2.633.283c-.388.27.111.9.443,1.322a11.1,11.1,0,0,0,1.5,1.362Z" transform="translate(703.392 256.486)" fill="#c97a1f"/>
        <path id="Path_1973" data-name="Path 1973" d="M25.829,16.538c.915.148,1.774.351,2.66.418.277.013.665-.324,1.025-.486-.887-.148-1.718-.337-2.605-.4-.3-.013-.721.3-1.081.472" transform="translate(689.985 239.965)" fill="#c97a1f"/>
        <path id="Path_1974" data-name="Path 1974" d="M29.076,17.46a5.07,5.07,0,0,0-1.413-.256c-1.552.189-1.746.567-.443.917a3.455,3.455,0,0,0,1.524-.081c.249-.067.222-.378.333-.58" transform="translate(704.087 223.518)" fill="#c97a1f"/>
        <path id="Path_1975" data-name="Path 1975" d="M28.1,18.626a3.836,3.836,0,0,0,1-.081c.222-.189.388-.486.222-.661-.637-.728-1.3-.674-1.607.108-.083.189.249.418.388.634" transform="translate(739.82 220.706)" fill="#c97a1f"/>
        <path id="Path_1976" data-name="Path 1976" d="M8.793,18.42a5.447,5.447,0,0,0,1.275.2c1.386-.162,1.5-.472.333-.755a3.476,3.476,0,0,0-1.33.081c-.194.054-.194.31-.277.472" transform="translate(234.892 214.492)" fill="#c97a1f"/>
        <path id="Path_1977" data-name="Path 1977" d="M30.544,18.522c-.97-.2-1.885-.459-2.882-.58-.277-.027-1.053.364-1.081.567,0,.189.776.594,1.053.553,1-.094,1.94-.351,2.91-.54" transform="translate(710.073 212.568)" fill="#c97a1f"/>
        <path id="Path_1978" data-name="Path 1978" d="M28.059,18.347c-.5.337-1.358.661-1.386,1.012-.028.229,1.053.513,1.718.728.055.013.915-.364.831-.472a7.03,7.03,0,0,0-1.164-1.268" transform="translate(712.531 206.066)" fill="#c97a1f"/>
        <path id="Path_1979" data-name="Path 1979" d="M7.567,18.914a5.682,5.682,0,0,0-1.275-.2c-1.413.162-1.524.459-.333.742a3.731,3.731,0,0,0,1.33-.081c.194-.04.194-.3.277-.459" transform="translate(137.348 201.83)" fill="#c97a1f"/>
        <path id="Path_1980" data-name="Path 1980" d="M12.771,18.822a7.549,7.549,0,0,0,2,1.214c1.219.4,2.217.148,2.383-.486.028-.108-.859-.351-1.358-.391-1.081-.121-2.217-.135-3.326-.2Z" transform="translate(333.011 199.522)" fill="#c97a1f"/>
        <path id="Path_1981" data-name="Path 1981" d="M11.671,19.92a5.974,5.974,0,0,0,1.3.216c1.469-.148,1.635-.459.416-.755a3.567,3.567,0,0,0-1.358.054c-.222.054-.249.31-.36.486" transform="translate(311.774 192.664)" fill="#c97a1f"/>
        <path id="Path_1982" data-name="Path 1982" d="M6.056,21.856c-.36-.189-.8-.553-1.081-.526-.942.094-1.829.337-2.744.513.388.189.831.553,1.109.513a25.518,25.518,0,0,0,2.716-.5" transform="translate(59.625 163.574)" fill="#c97a1f"/>
        <path id="Path_1983" data-name="Path 1983" d="M29.2,23.309c-.083-.189.028-.5-.166-.553a4.1,4.1,0,0,0-1.552-.135c-1.746.337-1.691.715.194.9a6.3,6.3,0,0,0,1.524-.216" transform="translate(700.385 145.367)" fill="#c97a1f"/>
        <path id="Path_1984" data-name="Path 1984" d="M2.926,23.952c1.58-.027,3.187-.013,4.767-.094a4.254,4.254,0,0,0,1.275-.472,7.714,7.714,0,0,0-2.3-.688,25.3,25.3,0,0,0-3.52,1.389Z" transform="translate(78.164 143.579)" fill="#c97a1f"/>
        <path id="Path_1985" data-name="Path 1985" d="M27.4,25.757l-.831-.607c-.194.243-.554.472-.5.688.028.216.5.418.776.62.194-.229.36-.472.554-.7" transform="translate(696.337 107.93)" fill="#c97a1f"/>
        <path id="Path_1986" data-name="Path 1986" d="M4.995,26.241,6.1,25.756c-.859-.189-1.691-.418-2.577-.526-.249-.027-.693.324-1.053.5.831.175,1.691.351,2.522.513" transform="translate(66.063 107.095)" fill="#c97a1f"/>
        <path id="Path_1987" data-name="Path 1987" d="M4.777,26.749a4.42,4.42,0,0,0,1.136-.067c.249-.2.471-.526.3-.7-.693-.782-1.441-.755-1.857.081-.111.2.249.459.416.688" transform="translate(115.944 104.091)" fill="#c97a1f"/>
        <path id="Path_1988" data-name="Path 1988" d="M24.5,27.265c-.388.189-1.136.4-1.081.54a6.411,6.411,0,0,0,1.053,1.376c.388-.175,1.109-.4,1.053-.553A6.522,6.522,0,0,0,24.5,27.265" transform="translate(625.522 76.678)" fill="#c97a1f"/>
        <path id="Path_1989" data-name="Path 1989" d="M25.87,27.232a4.837,4.837,0,0,0-1.358.216c-.5.459.166.742,1.58.661a3.377,3.377,0,0,0,1.109-.486l-1.33-.391" transform="translate(650.397 78.182)" fill="#c97a1f"/>
        <path id="Path_1990" data-name="Path 1990" d="M26.536,27.523l-.942-.121c-.222.189-.5.432-.388.62.36.715,1,.782,1.552.175.139-.175-.139-.445-.222-.674" transform="translate(672.65 75.409)" fill="#c97a1f"/>
        <path id="Path_1991" data-name="Path 1991" d="M26.376,28.28c-.3-.2-.582-.418-.887-.62-.194.243-.61.486-.554.7s.554.432.859.647l.582-.728" transform="translate(665.965 71.522)" fill="#c97a1f"/>
        <path id="Path_1992" data-name="Path 1992" d="M24.434,28.785l-1.219-.526a6.008,6.008,0,0,0-1.053,1.4c-.055.121.776.337,1.219.513.333-.472.693-.931,1.053-1.389" transform="translate(591.943 62.276)" fill="#c97a1f"/>
        <path id="Path_1993" data-name="Path 1993" d="M20.772,28.615c.721.391,1.413.809,2.217,1.16a3.958,3.958,0,0,0,1.5.229,5.359,5.359,0,0,0,1.247-.337,9.63,9.63,0,0,0-2-.688c-1.025-.162-2.162-.148-3.242-.216Z" transform="translate(547.495 57.644)" fill="#c97a1f"/>
        <path id="Path_1994" data-name="Path 1994" d="M20.594,29.763c-.166-.216-.194-.567-.527-.647-.97-.229-1.5.054-1.219.728.083.2.637.364.97.54l.776-.621" transform="translate(501.53 51.573)" fill="#c97a1f"/>
        <path id="Path_1995" data-name="Path 1995" d="M19.611,29.636A3.712,3.712,0,0,0,20,31.255a2,2,0,0,0,2.383.445c.388-.148.693-.445.72-.688.111-.944-.915-1.5-2.771-1.727Z" transform="translate(523.88 46.709)" fill="#c97a1f"/>
        <path id="Path_1996" data-name="Path 1996" d="M21.138,29.744c-1.247.283-1.607.742-.721.985a9.849,9.849,0,0,0,2.688.04c.277-.027.471-.337.748-.526-.887-.162-1.829-.337-2.716-.5" transform="translate(532.329 41.583)" fill="#c97a1f"/>
        <path id="Path_1997" data-name="Path 1997" d="M24.693,34.131c-1.413-1.457-4.018-1.727-6.956-1.659l.249-.121c.97,1.915,4.1,1.659,7.012,1.646Z" transform="translate(473.819 3.137)" fill="#c97a1f"/>
        <path id="Path_1998" data-name="Path 1998" d="M15.256,34.4a5.652,5.652,0,0,0,1.885,1.133,10.989,10.989,0,0,0,2.661-.148,6.465,6.465,0,0,0-1.718-.742,26.192,26.192,0,0,0-3.1-.081Z" transform="translate(400.143 -26.03)" fill="#c97a1f"/>
        <path id="Path_1999" data-name="Path 1999" d="M19.279,35.884a8.774,8.774,0,0,0-2.106-1.214c-1.219-.391-2.217-.148-2.356.472-.028.108.887.31,1.413.364,1.109.108,2.217.148,3.326.216Z" transform="translate(395.814 -27.362)" fill="#c97a1f"/>
        <path id="Path_2000" data-name="Path 2000" d="M24.908,0c.471.432.72,1.025,1.441,1.254a10.917,10.917,0,0,0,2.688-.081C28.649.836,28.4.323,27.817.2A18.506,18.506,0,0,0,24.769.067Z" transform="translate(661.668 472.314)" fill="#c97a1f"/>
        <path id="Path_2001" data-name="Path 2001" d="M25.7,3.2c.139-.216.5-.459.388-.661-.333-.728-1-.809-1.607-.2-.166.175.028.486.249.688a3.431,3.431,0,0,0,.97.175" transform="translate(652.419 444.331)" fill="#c97a1f"/>
        <path id="Path_2002" data-name="Path 2002" d="M18.336,11.325c.194-.243.582-.486.554-.715-.055-.229-.527-.432-.831-.647-.194.243-.582.5-.527.728.028.216.527.418.8.634" transform="translate(468.204 327.919)" fill="#c97a1f"/>
        <path id="Path_2003" data-name="Path 2003" d="M17.539,32.677c.471.27.942.526,1.386.8-.139-.121-.222-.3-.443-.378a10.582,10.582,0,0,0-1.247-.27Z" transform="translate(460.382 -0.616)" fill="#c97a1f"/>
        <path id="Path_2004" data-name="Path 2004" d="M18.32,32.3l1.275.823c-.166-.135-.194-.3-.443-.378-.333-.121-.776-.2-1.164-.31Z" transform="translate(480.497 4.834)" fill="#c97a1f"/>
        <path id="Path_2005" data-name="Path 2005" d="M19.336,32.032l-.915-.135.139.4Z" transform="translate(492.107 11.078)" fill="#c97a1f"/>
        <path id="Path_2006" data-name="Path 2006" d="M26.085,30.579l-1.5-.742c.139.148.194.364.443.432a8.138,8.138,0,0,0,1.33.162Z" transform="translate(656.86 40.586)" fill="#c97a1f"/>
        <path id="Path_2007" data-name="Path 2007" d="M19.2,31.524c2.023-.135,3.132-.715,3.464-1.686l.277.148c-1.275,0-2.55-.013-3.824-.013l.277-.121.083,1.808Z" transform="translate(510.683 39.493)" fill="#c97a1f"/>
        <path id="Path_2008" data-name="Path 2008" d="M20.653,29.947l-1.58.351,1.3-.486Z" transform="translate(509.508 41.205)" fill="#c97a1f"/>
        <path id="Path_2009" data-name="Path 2009" d="M20.85,30.091l.3-.459L20.3,29.7Z" transform="translate(542.181 43.828)" fill="#c97a1f"/>
        <path id="Path_2010" data-name="Path 2010" d="M22.356,30.532c-.61-.364-1.219-.715-1.857-1.079-2.189.958-.139,1.12,1.136,1.43Z" transform="translate(521.856 45.462)" fill="#c97a1f"/>
        <path id="Path_2011" data-name="Path 2011" d="M20.093,28.248c.416.418.859.836,1.3,1.241,1.968-1.16-.333-.971-1.524-1.133Z" transform="translate(530.825 63.11)" fill="#c97a1f"/>
        <path id="Path_2012" data-name="Path 2012" d="M22.705,29.266c-.471-.432-.942-.863-1.441-1.308-2.466,1.281.388,1.025,1.524,1.268Z" transform="translate(541.987 67.244)" fill="#c97a1f"/>
        <path id="Path_2013" data-name="Path 2013" d="M21.886,27.842l.333-.472-.915.067Z" transform="translate(569.093 76.603)" fill="#c97a1f"/>
        <path id="Path_2014" data-name="Path 2014" d="M25.069,26.774l1.247.863c-.111-.135-.166-.3-.36-.391-.36-.135-.776-.216-1.192-.337Z" transform="translate(661.535 84.845)" fill="#c97a1f"/>
        <path id="Path_2015" data-name="Path 2015" d="M24.819,27.337l.471-.607-1.108.04Z" transform="translate(645.98 85.745)" fill="#c97a1f"/>
        <path id="Path_2016" data-name="Path 2016" d="M1.545,27a6.92,6.92,0,0,0,1.413-.418c-.222-.486-.693-.283-1.109.567Z" transform="translate(41.272 91.46)" fill="#c97a1f"/>
        <path id="Path_2017" data-name="Path 2017" d="M27.535,26.829c-.471-.256-.97-.5-1.441-.755.139.135.222.337.471.4a8.373,8.373,0,0,0,1.275.2Z" transform="translate(697.064 95.095)" fill="#c97a1f"/>
        <path id="Path_2018" data-name="Path 2018" d="M26.451,26.012c.5.324.97.661,1.469.985-.111-.175-.083-.418-.3-.513a9.006,9.006,0,0,0-1.469-.324Z" transform="translate(698.453 95.764)" fill="#c97a1f"/>
        <path id="Path_2019" data-name="Path 2019" d="M24.486,23.863c.443.378.859.755,1.3,1.133,1.746-1.147-.443-.89-1.524-1.025Z" transform="translate(648.178 126.752)" fill="#c97a1f"/>
        <path id="Path_2020" data-name="Path 2020" d="M3.765,23.741l-.416.513,1.109-.067Z" transform="translate(89.464 129.14)" fill="#c97a1f"/>
        <path id="Path_2021" data-name="Path 2021" d="M23.634,24.546c1.192-.58,2.411-1.16,3.6-1.74l.249.121c-1.192.594-2.383,1.174-3.575,1.754Z" transform="translate(631.349 141.325)" fill="#c97a1f"/>
        <path id="Path_2022" data-name="Path 2022" d="M9.174,22.881c.527.283,1.025.567,1.552.85-.111-.162-.111-.391-.36-.472a10.062,10.062,0,0,0-1.413-.27Z" transform="translate(239.14 141.264)" fill="#c97a1f"/>
        <path id="Path_2023" data-name="Path 2023" d="M3.305,23.369l.388-.526-.97.054Z" transform="translate(72.754 142.133)" fill="#c97a1f"/>
        <path id="Path_2024" data-name="Path 2024" d="M9.981,22.558c.471.917,1.58,1.511,3.492,1.754l-.222.094c-1.164-.567-2.356-1.133-3.547-1.7Z" transform="translate(259.229 144.945)" fill="#c97a1f"/>
        <path id="Path_2025" data-name="Path 2025" d="M2.776,23.4c.277-.162.887-.4.8-.486-.61-.62-1.33-.594-1.746.067-.055.081.61.27.942.418" transform="translate(48.909 147.121)" fill="#c97a1f"/>
        <path id="Path_2026" data-name="Path 2026" d="M1.133,22.479l-.915-.121.139.378Z" transform="translate(5.824 149.316)" fill="#c97a1f"/>
        <path id="Path_2027" data-name="Path 2027" d="M4.2,21.771,2.37,22.54a3.753,3.753,0,0,0,1.053-.189,1.837,1.837,0,0,0,.471-.728Z" transform="translate(63.311 159.423)" fill="#c97a1f"/>
        <path id="Path_2028" data-name="Path 2028" d="M25.67,21.262l.637.715c-.3-.189-.61-.391-.915-.594Z" transform="translate(678.338 164.856)" fill="#c97a1f"/>
        <path id="Path_2029" data-name="Path 2029" d="M28.306,21.528l-.97-.445c-.277.175-.8.351-.776.513s.582.3.915.445l.831-.513" transform="translate(709.485 167.207)" fill="#c97a1f"/>
        <path id="Path_2030" data-name="Path 2030" d="M6.942,22.077l2.633-.607c-2.688-1.16-1.663.418-2.356.755Z" transform="translate(185.446 167.453)" fill="#c97a1f"/>
        <path id="Path_2031" data-name="Path 2031" d="M10.941,21.787l-1.413-.863c.111.148.139.364.36.445a11.327,11.327,0,0,0,1.358.283Z" transform="translate(254.527 169.605)" fill="#c97a1f"/>
        <path id="Path_2032" data-name="Path 2032" d="M9.605,21.861c-.055-.742-.61-1.039-1.718-.9.111.189.111.472.36.553a12.585,12.585,0,0,0,1.607.243Z" transform="translate(210.69 169.504)" fill="#c97a1f"/>
        <path id="Path_2033" data-name="Path 2033" d="M1.442,21.029A7.272,7.272,0,0,0,0,21.367c.139.5.61.337,1.136-.486Z" transform="translate(-0.001 170.322)" fill="#c97a1f"/>
        <path id="Path_2034" data-name="Path 2034" d="M26.422,20.764c.249.229.527.445.776.661-.36-.175-.721-.351-1.053-.526Z" transform="translate(698.426 172.126)" fill="#c97a1f"/>
        <path id="Path_2035" data-name="Path 2035" d="M28.421,21.512c-.333-.4-.693-.809-1.025-1.214-2.245,1.12.8.728,1.3,1.079Z" transform="translate(710.062 178.324)" fill="#c97a1f"/>
        <path id="Path_2036" data-name="Path 2036" d="M11.775,20.581l-1.136-.243.111.58Z" transform="translate(284.195 178.38)" fill="#c97a1f"/>
        <path id="Path_2037" data-name="Path 2037" d="M6.411,20.357c1.109,1,2.245,1.7,3.353,0l.222.121c-1.275,0-2.522.013-3.8.013Z" transform="translate(165.33 177.659)" fill="#c97a1f"/>
        <path id="Path_2038" data-name="Path 2038" d="M26.924,20.246c.554.283,1.109.553,1.635.836-.139-.175-.166-.432-.416-.513a9.812,9.812,0,0,0-1.5-.189Z" transform="translate(711.837 179.456)" fill="#c97a1f"/>
        <path id="Path_2039" data-name="Path 2039" d="M9.83,20.861c.582-.229,1.164-.459,1.718-.688a3.422,3.422,0,0,0-.942.148,2.146,2.146,0,0,0-.527.661Z" transform="translate(262.594 180.54)" fill="#c97a1f"/>
        <path id="Path_2040" data-name="Path 2040" d="M26.145,19.923c0,1.12,1.441,1.551,3.464,1.7l-.249.121c-.194-1.039-1.441-1.551-3.464-1.7Z" transform="translate(691.775 183.151)" fill="#c97a1f"/>
        <path id="Path_2041" data-name="Path 2041" d="M26.27,19.839l1.413,1.254c2.134-1.308-.776-.877-1.663-1.133Z" transform="translate(695.114 184.934)" fill="#c97a1f"/>
        <path id="Path_2042" data-name="Path 2042" d="M25.057,20.178l1.109.216-.139-.553Z" transform="translate(669.359 185.607)" fill="#c97a1f"/>
        <path id="Path_2043" data-name="Path 2043" d="M13.749,19.7c-.471-.256-.859-.526-1.33-.782.139.121.194.283.416.364a10.978,10.978,0,0,0,1.192.283Z" transform="translate(331.756 198.78)" fill="#c97a1f"/>
        <path id="Path_2044" data-name="Path 2044" d="M25.771,20.545l2.328-.809c-.776-.283-1.552-.553-2.328-.823l.222-.121v1.861Z" transform="translate(688.435 199.512)" fill="#c97a1f"/>
        <path id="Path_2045" data-name="Path 2045" d="M5.087,18.864c.527.3,1.025.594,1.552.89-.139-.162-.166-.364-.416-.445A10.809,10.809,0,0,0,4.81,19Z" transform="translate(128.492 199.425)" fill="#c97a1f"/>
        <path id="Path_2046" data-name="Path 2046" d="M24.791,17.841c1.081,1.781,2.189,1.187,3.326.013l.222.121H24.514Z" transform="translate(654.857 214.019)" fill="#c97a1f"/>
        <path id="Path_2047" data-name="Path 2047" d="M30.365,19.094C30.282,18,29.007,17.488,26.9,17.38l.194-.094c-.083,1.174,1.275,1.646,3.52,1.686Z" transform="translate(718.622 221.372)" fill="#c97a1f"/>
        <path id="Path_2048" data-name="Path 2048" d="M9.437,17.214l-.3.472.859-.067Z" transform="translate(243.964 223.752)" fill="#c97a1f"/>
        <path id="Path_2049" data-name="Path 2049" d="M31.144,18.5c-.443-.917-1.691-1.443-3.492-1.686l.3-.148c.139,1.066,1.386,1.592,3.464,1.7Z" transform="translate(738.684 230.4)" fill="#c97a1f"/>
        <path id="Path_2050" data-name="Path 2050" d="M28.055,16.576c.36.418.721.836,1.081,1.268,2.328-1.174-.8-.8-1.358-1.133Z" transform="translate(742.05 232.198)" fill="#c97a1f"/>
        <path id="Path_2051" data-name="Path 2051" d="M26.866,17.169l-.748-.634,1.053.5Z" transform="translate(697.705 233.426)" fill="#c97a1f"/>
        <path id="Path_2052" data-name="Path 2052" d="M26.45,16.493l.748.715c-.36-.189-.693-.378-1.053-.58Z" transform="translate(698.426 233.954)" fill="#c97a1f"/>
        <path id="Path_2053" data-name="Path 2053" d="M11.808,16.42c1.192.58,2.411,1.16,3.6,1.727l-.3.121c.028-.62.028-1.241.028-1.861l.277.135H11.586Z" transform="translate(309.503 234.068)" fill="#c97a1f"/>
        <path id="Path_2054" data-name="Path 2054" d="M13.23,15.314l-.859.5A2.858,2.858,0,0,0,13.4,16.2c.333-.013.61-.31.887-.472-.36-.135-.693-.283-1.053-.418" transform="translate(330.474 250.861)" fill="#c97a1f"/>
        <path id="Path_2055" data-name="Path 2055" d="M12.753,15.36l1.053.175-.111-.459Z" transform="translate(340.689 254.731)" fill="#c97a1f"/>
        <path id="Path_2056" data-name="Path 2056" d="M28.764,14.75c-1.358-.148-2.55.121-2.439.755.055.324,1.524.593,2.328.89-.028-.58-.083-1.16-.111-1.74Z" transform="translate(703.041 259.545)" fill="#c97a1f"/>
        <path id="Path_2057" data-name="Path 2057" d="M26.4,14.556c.5.445.97.89,1.441,1.335C30.006,14.758,28.121,14.677,26.4,14.556Z" transform="translate(705.318 261.399)" fill="#c97a1f"/>
        <path id="Path_2058" data-name="Path 2058" d="M13.747,14.6c.5.3,1,.593,1.5.9-.111-.175-.111-.418-.333-.5a8.786,8.786,0,0,0-1.441-.27Z" transform="translate(359.832 261.265)" fill="#c97a1f"/>
        <path id="Path_2059" data-name="Path 2059" d="M28.008,15.272l-1.413-1c.055.175,0,.432.249.526a9.377,9.377,0,0,0,1.441.337Z" transform="translate(710.447 265.822)" fill="#c97a1f"/>
        <path id="Path_2060" data-name="Path 2060" d="M15.526,14.349c-.527.256-1.081.5-1.607.742a3.531,3.531,0,0,0,1.025-.121A2.491,2.491,0,0,0,15.526,14.349Z" transform="translate(371.826 264.991)" fill="#c97a1f"/>
        <path id="Path_2061" data-name="Path 2061" d="M26.924,14.224c.5.27.97.54,1.469.823-.139-.148-.222-.351-.443-.432a11.648,11.648,0,0,0-1.3-.256Z" transform="translate(711.837 266.722)" fill="#c97a1f"/>
        <path id="Path_2062" data-name="Path 2062" d="M20.037,10.44c-.36-.4-.748-.8-1.109-1.187-2.079,1.12.721.769,1.358,1.066Z" transform="translate(485.458 338.382)" fill="#c97a1f"/>
        <path id="Path_2063" data-name="Path 2063" d="M22.974,7.957c-.5-.283-1.025-.553-1.524-.836.083.175.055.432.3.513a8.1,8.1,0,0,0,1.413.229Z" transform="translate(573.006 369.623)" fill="#c97a1f"/>
        <path id="Path_2064" data-name="Path 2064" d="M28.076,7.851c-1.164-.58-2.3-1.147-3.436-1.727l.277-.135c1.164.567,2.3,1.133,3.464,1.713Z" transform="translate(658.222 384.985)" fill="#c97a1f"/>
        <path id="Path_2065" data-name="Path 2065" d="M26.927,5.917l-.222.472.748-.054Z" transform="translate(713.394 387.435)" fill="#c97a1f"/>
        <path id="Path_2066" data-name="Path 2066" d="M25.069,5.935c.582.3,1.164.594,1.718.89-.139-.189-.166-.459-.416-.54a11.856,11.856,0,0,0-1.607-.2Z" transform="translate(661.535 386.753)" fill="#c97a1f"/>
        <path id="Path_2067" data-name="Path 2067" d="M23.221,6.755c-.5-.3-1.025-.594-1.524-.89.111.175.111.418.333.5A10.987,10.987,0,0,0,23.5,6.62Z" transform="translate(579.604 387.767)" fill="#c97a1f"/>
        <path id="Path_2068" data-name="Path 2068" d="M22.029,5.818l1.58.782c-.166-.135-.249-.337-.471-.418a13.429,13.429,0,0,0-1.386-.229Z" transform="translate(581.074 388.556)" fill="#c97a1f"/>
        <path id="Path_2069" data-name="Path 2069" d="M21.088,4.914l-.416.553L21.753,5.4Z" transform="translate(552.218 401.888)" fill="#c97a1f"/>
        <path id="Path_2070" data-name="Path 2070" d="M24.011,4.532q.624.587,1.33,1.174c1.912-1.227-.693-.836-1.58-1.066Z" transform="translate(634.768 406.798)" fill="#c97a1f"/>
        <path id="Path_2071" data-name="Path 2071" d="M24.415,3.651c.333.4.693.823,1.053,1.227,2.189-1.106-.721-.782-1.33-1.106Z" transform="translate(644.812 419.509)" fill="#c97a1f"/>
        <path id="Path_2072" data-name="Path 2072" d="M26.982,4.036c-.443-.27-.915-.54-1.386-.809.139.148.222.324.443.4a10.639,10.639,0,0,0,1.247.256Z" transform="translate(683.761 426.07)" fill="#c97a1f"/>
        <path id="Path_2073" data-name="Path 2073" d="M27.131,2.4c-.554-.216-1.108-.445-1.663-.674.471.27.942.526,1.441.782Z" transform="translate(680.341 447.874)" fill="#c97a1f"/>
        <path id="Path_2074" data-name="Path 2074" d="M28.695,2.143c.083-1-.97-1.632-2.716-2.05L24.621.74a5.862,5.862,0,0,0,4.212,1.335Z" transform="translate(657.715 470.238)" fill="#c97a1f"/>
        <path id="Path_2075" data-name="Path 2075" d="M16.411,21.012c-.222-1.254-2.771-1.295-4.24-1.9-1.164-.486-2.245-.364-2.494.324a1.068,1.068,0,0,0,.637,1.322,30.124,30.124,0,0,0,4.6.567,6.761,6.761,0,0,0,1.5-.31" transform="translate(257.149 198.505)" fill="#c97a1f"/>
        <path id="Path_2076" data-name="Path 2076" d="M12.312,20.93c1.025-.553,2.494-1.025,2.965-1.673.554-.8-.3-1.592-2.411-1.457-.693.04-1.774.688-1.691,1a8.39,8.39,0,0,0,1.5,2.253Z" transform="translate(298.413 212.669)" fill="#c97a1f"/>
        <path id="Path_2077" data-name="Path 2077" d="M11.624,19.572c-.887.229-1.774.459-2.633.688,2.66,1.093,2.078-.175,2.411-.8Z" transform="translate(240.182 190.395)" fill="#c97a1f"/>
        <path id="Path_2078" data-name="Path 2078" d="M11.111,18.352l-.97-.135.111.391Z" transform="translate(270.897 209.299)" fill="#c97a1f"/>
        <path id="Path_2079" data-name="Path 2079" d="M13.291,17.757l-1.247-.85c.083.135.111.324.3.4.36.135.831.2,1.247.31Z" transform="translate(321.738 227.821)" fill="#c97a1f"/>
        <path id="Path_2080" data-name="Path 2080" d="M14.1,16.941c.776-.175,1.552-.364,2.356-.54-2.356-1-1.58.3-2.106.674Z" transform="translate(376.581 240.318)" fill="#c97a1f"/>
        <path id="Path_2081" data-name="Path 2081" d="M25.545,10.455l1.164.89c-.083-.148-.055-.337-.249-.432a8.348,8.348,0,0,0-1.192-.324Z" transform="translate(674.999 321.263)" fill="#c97a1f"/>
        <path id="Path_2082" data-name="Path 2082" d="M22.851,22.869l-.416.486L23.46,23.3Z" transform="translate(599.316 141.802)" fill="#c97a1f"/>
        <path id="Path_2083" data-name="Path 2083" d="M23.828,22.835l-1.136-.229.111.553Z" transform="translate(606.19 145.553)" fill="#c97a1f"/>
        <path id="Path_2084" data-name="Path 2084" d="M16.355,16.28c.194,1.133,1.441,1.781,3.825,1.875-.166-1.174-1.8-1.605-3.825-1.875" transform="translate(436.9 235.88)" fill="#c97a1f"/>
      </g>
    </g>
  </g>
</svg>
