<svg xmlns="http://www.w3.org/2000/svg" xmlns:xlink="http://www.w3.org/1999/xlink" width="419" height="347" viewBox="0 0 419 347">
  <defs>
    <clipPath id="clip-path">
      <rect id="Rectangle_326" data-name="Rectangle 326" width="419" height="347" transform="translate(1501)" fill="#fff" stroke="#707070" stroke-width="1"/>
    </clipPath>
    <clipPath id="clip-path-2">
      <rect id="Rectangle_15" data-name="Rectangle 15" width="493.326" height="467.389" fill="#c97a1f"/>
    </clipPath>
  </defs>
  <g id="Mask_Group_60" data-name="Mask Group 60" transform="translate(-1501)" clip-path="url(#clip-path)">
    <g id="Group_6" data-name="Group 6" transform="matrix(-0.978, 0.208, -0.208, -0.978, 2090.523, 338.698)">
      <g id="Group_5" data-name="Group 5" clip-path="url(#clip-path-2)">
        <path id="Path_1047" data-name="Path 1047" d="M172.786,269.14a63.365,63.365,0,0,0-13.319-10.692l.252.252c-2.287-4.06-6.14-6.61-9.565-9.51-1.291-1.094-3.13-.4-3.809,1.587l.2-.186c-4.52-1.259-9.959-1.3-10.484-7.88l-.219.23c2.867-.952,1.795-1.915.011-2.878l.175.2c-2.419-2.955-4.618-6.14-8.044-8.088l.208.2q-1.477-2.725-2.933-5.45c1.85-.011,3.7-.011,5.549-.022a3.791,3.791,0,0,0,.241,1.193c.109.208.536.241.832.339-.438-.427-.876-.865-1.313-1.3-2.517-2.517-2.517-2.517-5.1.044a88.32,88.32,0,0,1-18.5-10.463c-.9-.908-1.795-1.806-2.692-2.7l-2.638-2.638a4.819,4.819,0,0,0-.471-.952c-.131-.164-.438-.175-.657-.252.449.328.908.657,1.357.985.876.876,1.762,1.751,2.638,2.627a3.531,3.531,0,0,0,2.692,2.692c-.1,2.681-.186,5.363-.285,8.044l.186-.186c-1.806.088-3.6.164-5.406.252-.142-1.62-1.237-2.309-2.627-2.725-1.116-2.244-3.075-2.681-5.33-2.506-.1-.843-.153-1.685-.274-2.517-.2-1.313-.766-1.576-1.466-.657a1.272,1.272,0,0,0,.12,1.193,20.928,20.928,0,0,0,1.828,1.718c1.16,2.178,3.174,2.528,5.352,2.55.055,1.7,1.105,2.43,2.627,2.714,1.521,4.082,5.811,6.348,6.8,10.955.372,1.784,2.67,3.218,4.192,4.706,3.721,3.633,7.5,7.2,11.24,10.813,2.178,2.1,4.049,4.52,7.212,5.373a6.461,6.461,0,0,1,4.64,4.235c1.521,4.881,5.111,7.19,9.478,9.292a33.563,33.563,0,0,1,9.259,7.015c2.178,2.287,7.037,2.2,6.479,6.982,5.647,4.027,11.152,8.285,16.974,12.049,9.456,6.129,19.119,11.94,28.684,17.883a4.637,4.637,0,0,0,.635.865c.142.142.427.109.657.153-.5-.263-1-.525-1.5-.788a11.565,11.565,0,0,1,.558-2.43,7.6,7.6,0,0,1,1.4-1.653c2.616,2.561,7.015,2.8,8.646,6.643l.175-.186c-4.016,1.434-4.016,1.434-2.43,4.4.416.766,1.357,1.85,1.127,2.233-.777,1.28-2.244,1.226-3.4.58-6.446-3.546-13.034-6.873-19.185-10.867-9.467-6.14-18.594-12.8-27.94-19.13a18.882,18.882,0,0,0-5.877-2.714c-7.847-1.926-14.227-6.162-19.995-11.655-16.394-15.617-33.051-30.961-49.226-46.786-6.194-6.063-11.415-13.1-16.941-19.809-.711-.876-.58-2.441-.843-3.677l.252-.274c2.156-1.029,1.762-1.882-.186-2.627l.241.219c-.832-1.488-1.707-1.959-2.714-.142l-.1.088c-5.187-3.053-9.773-6.577-10.419-13.22l-.077.077c2.67,1.685,5.33,3.371,8,5.056.263.285.514.569.777.854-.339-.208-.668-.416-1-.635,0-1.795.011-3.59.022-5.385a3.447,3.447,0,0,0,.908-.328c.153-.109.153-.427.219-.646l-.919,1.182a40.086,40.086,0,0,1-8.394-12.816c-1.434-3.557-2.889-7.223-6.731-9.171a6.069,6.069,0,0,1-2.572-2.769c-4.235-9.5-10.408-17.872-15.552-26.835-.613-1.073-.6-2.5-.876-3.765l-.23.23c.81.241,1.631.471,2.441.722,1.6.492,2.67-.394,2.244-1.729a33.325,33.325,0,0,0-2.933-5.592c-8.1.788-7.453-6.205-9.543-10.758a3.987,3.987,0,0,1-.109-1.27,4.528,4.528,0,0,0,1.073-.46c.175-.142.164-.514.241-.777-.361.482-.722.974-1.083,1.456-.81-.93-2.451-2.09-2.276-2.747,1.127-4.148-1.226-7.179-3.021-10.276-3.666-6.326-8.077-12.225-9.073-19.842-.328-2.506-2.112-4.772-2.911-7.256-1.445-4.531-3.294-8.9-4.542-13.549-1.27-4.717,1.7-9.489-1.073-13.866,3.108-8.525.832-17.007-.208-25.511-.208-1.729-.3.372,1.04-.744.3-.252,1.762.208,2,.679A40.484,40.484,0,0,1,7.4,31.249c1,2.867,1.981,5.746,3.021,8.6a4.436,4.436,0,0,0,.755,1.029,6.991,6.991,0,0,0,.854-1.9,20.43,20.43,0,0,0-.9-9.029C8.625,22.581,6.239,15.172,3.8,7.774c-.274-.821-.689-1.62-.886-2.462C2.6,3.976,2.934,2.685,4.335,2.324a2.412,2.412,0,0,1,2,1.171,26.167,26.167,0,0,1,2.09,6.151c1.171,7.07,4.9,12.87,8.536,18.813,1.762,2.889,2.5,1.51,4.378.35,1.663-1.029,3.294.865,4.006,2.276,1.259,2.473,2.473,3.086,4.7,1.149.919-.81,2.254-1.882,3.239-.186a42.641,42.641,0,0,1,3.4,7c5.5,15.617,14.184,29.91,18.857,45.856,6.949,9.948,8.077,23.1,17.4,31.749,1.215,2.167,2.375,4.378,3.721,6.457a2.048,2.048,0,0,0,1.937.263,2.6,2.6,0,0,0,.383-2.123c-.9-3.075-2.462-5.363-6.26-4.345,1.127-2.616,4.038-5.067.952-8.153-1.6-1.587-2.178-3.655-3.141-5.592-2.025-4.115-1.171-8.876-4.3-12.98-2.747-3.59-3.141-8.908-4.892-13.341-3.021-7.65-6.151-15.278-9.51-22.8-3.4-7.617-4.848-15.727-6.468-23.792a19.962,19.962,0,0,1,.219-6.337c.066-.492,1.116-.952,1.784-1.259.285-.12.8.186,1.16.372,3.863,2.025,2.309,7.453,6.019,9.576a5.422,5.422,0,0,0,.558,1.062c.131.153.482.131.733.186L54.35,32.825a23.885,23.885,0,0,0,.492-3.885c-.109-2.594.744-4.06,3.546-4.213,1.248-.066,2.638-.525,2.134-2.375a57.833,57.833,0,0,1-2.047-7.508c-.8-5.965-.153-6.512,6.7-6.38,1.532.022,3.163-2.342,4.5-.1.591,1.018.252,2.539.6,3.765a23.867,23.867,0,0,0,1.839,4.783c.339.668,1.466,1.477,1.992,1.335.635-.175,1.083-1.259,1.488-2.014s.536-1.663,1-2.375c.591-.9,2.977-.492,3.185.558C82.1,26.138,89.491,35.67,93.683,46.549c4.093,10.6,9.193,20.761,13.4,31.256,6.752,16.843,16.887,31.639,27.087,46.228,10.222,14.621,22.206,28.05,33.949,41.522a111.186,111.186,0,0,0,19.349,17.631c5.658,4.027,10.484,9.248,15.628,14,.908.832,2.386,2.244,2.167,2.911-2.1,6.369,3.436,8.569,6.545,11.655a176.543,176.543,0,0,0,32.92,25.631,383.883,383.883,0,0,1,33.566,22.764c14.205,10.867,29.046,20.936,43.776,31.092,6.873,4.728,13.724,9.259,17.248,17.3a16.8,16.8,0,0,0,8.865,9.149,11.744,11.744,0,0,1,4.126,3.152c6.829,8.044,14.8,14.807,23.158,21.166,1.029.788,2.419,1.751,2.638,2.845,1.839,8.81,9.543,13.2,14.457,19.677a1.973,1.973,0,0,1,.285,1.2,2.044,2.044,0,0,1-.438,1.116c-.23.263-.777.569-.963.46a22.937,22.937,0,0,1-3.294-2.09c-5.461-4.378-10.867-8.81-16.35-13.155-.624-.5-1.861-1.051-2.331-.766-1.609.963-.274,2.211.077,3.316a13.659,13.659,0,0,0,3.677,6.577c5.986,5.625,10.867,12.422,18.572,16.132a8.5,8.5,0,0,1,4.465,6.194c.492,2.517-1.029,5.264.58,7.639.306.46,2.079-.109,2.441.361,3.644,4.728,6.205,10.189,10.955,14.194,8.69,7.322,17.073,15,25.522,22.6,1.937,1.74,3.633,3.732,5.439,5.614-.4.46-.832.908-1.27,1.335a8.272,8.272,0,0,1-2.517-.668c-6.446-4.312-12.8-8.744-20.684-10.112-.416-.066-.985-.219-1.16-.525-3.2-5.45-9.784-6.862-13.593-11.207a35.225,35.225,0,0,0-9.018-7.059c-8.175-4.892-16.044-10.287-24.1-15.366-3.863-2.43-5.8-6.391-8.438-9.795a1.305,1.305,0,0,0-1.237-.153,1.406,1.406,0,0,0-.733,1.029,54.7,54.7,0,0,1,.394,6.38c-.219,2.758-3.075,4.049-5.844,3.042a14.325,14.325,0,0,1-6.348-4.312c-7.114-8.416-16.8-13.527-25.74-19.59-.985-.668-2.517-.547-3.787-.8l.208.252c-.941-3.01-1.926-1.5-2.911-.033l.164-.186c-4.531-.657-4.531-.657-5.417-5.209a5.894,5.894,0,0,0,1.073-.471c.164-.131.2-.46.285-.689-.361.46-.744.93-1.105,1.39-3.874.153-6.14-3.841-9.335-4.224-12.148-1.456-19.732-10.069-28.914-16.547-10.55-7.464-20.542-16.066-33.161-20.345a11.778,11.778,0,0,1-6.129-4.64c-4.148-7.354-12.006-9.839-18.255-14.238-5.286-3.732-11.064-6.818-16.241-10.846-4.1-3.185-8.733-5.691-13.1-8.525-4.345-2.8-9.182-5.056-11.469-10.178l-.2.175c1.817-.077,3.622-.164,5.439-.252a3.28,3.28,0,0,0,2.648,2.714c.9,2.594,3.086,2.517,5.231,2.528.274.274.558.547.843.821-.361-.2-.711-.4-1.073-.6-1.083-2.189-3.021-2.627-5.22-2.528-.186-1.6-1.3-2.265-2.67-2.692-1.2-1.882-3.152-2.419-5.177-2.8Zm102.426,68.1a4.84,4.84,0,0,0,.547,1c.142.164.482.153.733.219l-1.51-.985c-.252-.252-.514-.5-.766-.744.328.164.668.339,1,.514m-128.7-118.2c.886.908,1.762,1.817,2.648,2.725,1.16,2.09,3.185,2.353,5.264,2.5a5.608,5.608,0,0,0,.339,1c.109.2.361.306.547.449-.372-.416-.744-.821-1.116-1.226a5.063,5.063,0,0,0-5.275-2.5c.033-1.784-1.171-2.375-2.627-2.714a2.7,2.7,0,0,0-2.627-2.616c-.044-1.664-.788-2.648-2.55-2.67a2.33,2.33,0,0,0-2.648-2.6,2.393,2.393,0,0,0-2.67-2.6,9.5,9.5,0,0,0-.23-2.255c-.175-.5-.766-.854-1.182-1.27-.044.646-.339,1.434-.077,1.915.317.591,1.105.941,1.7,1.39a2.99,2.99,0,0,0,2.638,2.638,2.665,2.665,0,0,0,2.6,2.659c.131,1.62,1.226,2.265,2.638,2.572a3.376,3.376,0,0,0,2.627,2.616M112.386,182.3c-.044,1.817.832,2.7,2.648,2.638-.285,2.331.876,3.973,2.43,5.538.865.865,1.39,1.073,1.9.044a1.439,1.439,0,0,0-.055-1.182c-1.094-1.817-2.222-3.612-4.454-4.213a2.875,2.875,0,0,0-2.648-2.648c-.274-1.51-.81-2.736-2.681-2.572-.7-4.914-3.743-8.077-7.8-10.484a6.645,6.645,0,0,0-.5-.908c-.12-.153-.372-.208-.569-.317.438.328.865.657,1.3,1,.208,5.264,4.071,7.825,7.77,10.506.339,1.434.81,2.714,2.659,2.6M46.547,121.91a3.744,3.744,0,0,0,.886-.449c.153-.12.142-.416.2-.646-.285.438-.58.876-.865,1.324-.985.011-1.959.033-2.933.044-.033-.832.011-1.685-.1-2.517-.164-1.291-.744-1.554-1.456-.679a1.256,1.256,0,0,0,.011,1.182,15.562,15.562,0,0,0,1.751,1.751c.449,1.335,1.04,2.517,2.681,2.638.164,2.09-.23,4.476,2.67,5.166.033,2.156.536,4.082,2.561,5.264.908.9,1.806,1.795,2.7,2.692.449,1.97.6,4.071,2.539,5.33,1.488,6.4,4.6,11.962,8.416,17.292,8.077,11.272,16.35,22.359,26.113,32.252,1.554,1.576,2.725,3.36,2.342,5.757-2.364.241-3.666-1.7-5.45-2.648-.5-.624-.744-.974.175-.186a15.926,15.926,0,0,0,.755,2.386c1.215,2.517,1.576,2.517,4.334.219,2.889.022,4.772,1.992,6.545,3.776,4.246,4.29,8.241,8.843,12.422,13.21.876.919,2.145,1.554,3.305.4,1.182-1.171.416-2.364-.383-3.36-1.9-2.364-3.754-4.794-5.855-6.971-3.918-4.038-8.941-7.343-11.831-11.995-5.549-8.908-13.133-16.077-19.163-24.515-2.244-3.152-4.848-6.315-6.008-9.883-1.029-3.163-2.145-5.56-5.286-6.621-4.75-1.587-5.363-8.022-10.649-8.93-.131-2.112-.4-4.148-2.561-5.275a3.531,3.531,0,0,0-2.681-2.7c-.471-1.948-.164-4.279-2.55-5.319-.088-2.134-.088-4.312-2.67-5.155l.033-2.835M288.246,340.1c-.175-.241-.361-.482-.536-.733.23.2.471.383.7.58a17.868,17.868,0,0,0,1.718,1.576,1.238,1.238,0,0,0,1.116.1c.865-.624.591-.963-.7-1.04a16.834,16.834,0,0,1-2.3-.482M30.929,90.347c.3.3.591.591.876.886-.35-.23-.711-.46-1.062-.689-.733-1.828-.033-4.367-2.6-5.275-.668-5.592.142-11.666-5.177-15.716a6.1,6.1,0,0,0-.471-.876,1.685,1.685,0,0,0-.525-.317c.394.328.8.657,1.193.985-1.324,6.249,2.342,10.846,5.22,15.7.339,2,.733,3.995,2.55,5.3M22.918,40.672a4.215,4.215,0,0,0-.339-1.127c-.109-.175-.471-.208-.722-.306q-.328,1.215,1.248,1.248c-.044,2.473-.153,4.98,1.642,7a1.238,1.238,0,0,0,1.105.055c.328-.142.843-.733.777-.821-1.28-1.992-.679-5.144-3.71-6.052M51.34,106.019a14.886,14.886,0,0,0-1.27-7.617c-5.286-10.977-10.244-22.1-15.365-33.15-1.105-2.375-2.287-4.717-3.612-6.971a2.141,2.141,0,0,0-1.937-.755,4.832,4.832,0,0,0-1.773,1.828c-1.16,1.62-.9,3.207.2,4.772,1.7,2.43,3.327,4.9,4.99,7.343-1.9,3.25-.011,6.03,1.39,8.613,4.8,8.788,9.839,17.456,14.862,26.113.306.536,1.324.668,2.014.985.175-.4.35-.8.5-1.16m7.748,13.144a36.36,36.36,0,0,0-1.707-3.272c-.646-1.018-1.412-1.04-1.871-.153a1.449,1.449,0,0,0-.131,1.149,33.168,33.168,0,0,0,2.156,3.185c.175.241.777.471.865.383a5.225,5.225,0,0,0,.689-1.291M38.032,100.974,37.616,100c-.219.263-.668.591-.613.766a4.892,4.892,0,0,0,.777,1.16c.088-.317.164-.635.252-.952" transform="translate(24.831 22.924)" fill="#c97a1f"/>
        <path id="Path_1048" data-name="Path 1048" d="M193.412,252.745c-3.108-6.818-10.112-9.445-15.442-13.691q-20.5-16.3-39.825-33.938c-7.42-6.785-15.081-13.374-21.877-20.739-10.058-10.911-19.612-22.315-29.1-33.741A374.586,374.586,0,0,1,44.617,87.818a310.479,310.479,0,0,1-20.093-45.4c-3.688-10.736-7.672-21.363-11.382-32.088a33.034,33.034,0,0,1-1.083-6.348,2.014,2.014,0,0,1,.482-1.171c.5-.711,1.2-.6,1.871.361C15.4,4.61,16.272,6.12,17.3,7.521a6.906,6.906,0,0,0,1.653,1.2c.1-.427.208-.854.285-1.28A4.443,4.443,0,0,1,19.4,6.153C20.43,4.085,18.351.189,22.1,0c2.309-.109,2.572,3.053,3.4,5.023,5.034,11.831,8.963,24.132,15.212,35.459C49.76,56.9,56,74.772,66.56,90.379q12.132,17.894,24.931,35.306c8.81,11.962,18.9,22.9,28.378,34.31,9.215,11.108,19.907,20.772,29.078,31.869l-.788.788c-2.791-.055-4.892-1.576-6.982-3.185-1.729-1.324-3.524-2.561-5.888-2.331-.35-1.631-.252-3.6-1.149-4.826a66.4,66.4,0,0,0-6.183-6.49c-.821-.832-1.7-.9-1.97.011a2.933,2.933,0,0,0,.383,2.254,26.634,26.634,0,0,0,9.171,8.832,34.851,34.851,0,0,0,9.926,13.045c2.156,1.795,3.94.328,5.9.219l-.252-.274c.427,1.642.438,3.59,1.368,4.848a27.614,27.614,0,0,0,5.592,5.472c20.236,15.081,38.972,32.143,60.619,45.385,13.352,8.175,26.649,16.482,38.928,26.288a76.872,76.872,0,0,0,13,8.755c6.03,3.042,11.261,6.183,13.2,13.385.733,2.725,3.59,4.848,5.352,7.333a2.811,2.811,0,0,1,.525,2.3c-1.094,2.079-2.167.219-3-.339-11.513-7.836-22.895-15.869-34.5-23.574-7.234-4.794-14.8-9.105-22.206-13.625l.186.208c-1.16-2.287-3.316-2.616-5.538-2.845l.252.2c-.153-.4-.186-.963-.482-1.193-9.51-7.333-19.032-14.687-29.943-19.929a3.847,3.847,0,0,0-1.291-.077ZM100.027,146.7l.46-.7-.722-.1Z" transform="translate(119.862 -0.003)" fill="#c97a1f"/>
        <path id="Path_1049" data-name="Path 1049" d="M151.069,109.658C133.81,98.791,116.453,88.055,99.3,76.99c-11.294-7.3-22.457-14.829-33.347-22.72-9.478-6.862-18.43-14.446-27.732-21.56-3.415-2.616-7.168-4.772-10.769-7.136l.252.263L24.49,18.319l.788-.788c13.768,10.517,27.4,21.2,41.314,31.519,20.225,15.026,41.73,28.137,62.95,41.664,4.75,3.021,9.675,5.778,14.435,8.788,3.8,2.4,6.742,5.483,6.873,10.375Z" transform="translate(243.53 174.33)" fill="#c97a1f"/>
        <path id="Path_1050" data-name="Path 1050" d="M32.108,37.072c6.5,1.456,12.038,5.034,17.543,8.471A229.86,229.86,0,0,1,88.667,75.9c5.6,5.428,11.634,10.408,17.456,15.628.252.23.274.722.4,1.094-.755.263-1.685.919-2.254.689a14.675,14.675,0,0,1-3.2-2.189c-8.865-7-17.532-14.3-26.638-20.98-9.062-6.643-17.751-13.91-28.5-18.036C39.7,49.723,35.5,44.481,31.189,39.589c-.383-.427-.241-1.4-.175-2.1.011-.175.711-.285,1.094-.416" transform="translate(307.596 368.647)" fill="#c97a1f"/>
        <path id="Path_1051" data-name="Path 1051" d="M25.107,32a22.751,22.751,0,0,1,4.213,1.368c2.692,1.379,5.264,3.01,7.858,4.575,9.182,5.571,17.39,12.87,28.1,15.749a8.3,8.3,0,0,1,4.2,2.736c1.018,1.335-3.951,1.642-1.357,3.546a46.834,46.834,0,0,0,10.2,5.691c5.494,2.211,5.855,6.895,6.369,11.6.022.23-1.718,1.083-2.036.854-9.007-6.785-18.222-13.341-26.78-20.662A109.925,109.925,0,0,0,36.774,44.077c-5.1-2.758-8.711-6.993-13.33-10.123-1.083-.733-1.237-1.237-.317-1.576A18.356,18.356,0,0,1,25.107,32" transform="translate(223.98 318.161)" fill="#c97a1f"/>
        <path id="Path_1052" data-name="Path 1052" d="M18.792,70.487a6.012,6.012,0,0,1-4.509-4.312C8.811,50.163,3.186,34.185.7,17.342.385,15.175.188,13,.045,10.809c-.263-4.115.646-7.157,1.926-6.7,2.473.908,3.01,3.371,3.174,5.308.35,3.995,4.761,5.22,5.374,8.733s4.531,7.07-.055,10.649c-1.193.941-.361,2.375-.153,3.633,1.182,7.343,2.648,14.556,6.041,21.3,2.6,5.177,3.841,10.692,2.692,16.537Z" transform="translate(-0.001 40.421)" fill="#c97a1f"/>
        <path id="Path_1053" data-name="Path 1053" d="M37.425,66.862c-4.148-2.648-5.592-8.153-9.521-10.386-4.553-2.594-4.279-7.814-8.121-10.867-3.447-2.747-4.815-8.055-7.256-12.137-2.878-4.8-6.03-9.456-8.81-14.315-.788-1.368-1.773-3.13-.635-4.892A4.336,4.336,0,0,1,4.79,12.437c.525-.2,1.926.361,1.992.733.766,4.914,5,7.606,7.245,11.557Q17.884,31.507,22,38.112c2.528,4.038,5.264,7.945,7.847,11.94s5.166,8.011,7.606,12.093a15.038,15.038,0,0,1,1.094,3.71c-.361.339-.744.679-1.127,1.007" transform="translate(25.514 123.269)" fill="#c97a1f"/>
        <path id="Path_1054" data-name="Path 1054" d="M18.767,16.563c1.762-.383,3.546-.383,4.826,1.007q12.772,13.79,25.4,27.689a4.884,4.884,0,0,1,.733,2.419,1.42,1.42,0,0,1-.525,1.04c-.219.186-.81.285-.963.142-6.588-6.271-13.188-12.52-19.688-18.868a49.953,49.953,0,0,1-9.718-13.483Z" transform="translate(186.62 162.536)" fill="#c97a1f"/>
        <path id="Path_1055" data-name="Path 1055" d="M15.555,27.268c-.668.438-1.379,1.3-2.014,1.248-1.729-.142-.46,1.423-1.193-.164a25.252,25.252,0,0,1-1.664-4.783C9.492,18.546,8.507,13.478,5.268,9.221c-2.5-3.272-2.441-3.338.186-6.008C6.187,2.469,7.183.367,8.026,2.7c2.769,7.716,5.209,15.541,7.737,23.344.109.35-.131.81-.208,1.226" transform="translate(34.197 16.213)" fill="#c97a1f"/>
        <path id="Path_1056" data-name="Path 1056" d="M9.438,10.581V13.35c.022,3.984-1.171,6.643-2.867,6.337-3.119-.558-3.579-3.5-4.629-5.658-1.423-2.9-.46-6.008.755-8.788a3.742,3.742,0,0,1,2.922-1.97A4.242,4.242,0,0,1,8.4,5.7a23.95,23.95,0,0,1,1.04,4.881" transform="translate(12.254 32.451)" fill="#c97a1f"/>
        <path id="Path_1057" data-name="Path 1057" d="M21.845,29.468C16.2,21.642,11.5,13.434,11.076,3.442l.328-.3A51.955,51.955,0,0,1,21.637,29.654Z" transform="translate(110.141 31.294)" fill="#c97a1f"/>
        <path id="Path_1058" data-name="Path 1058" d="M19.731,21.173a6.222,6.222,0,0,1-4.443-4.323c-.93-4.75-3.25-8.843-5.023-13.2-.241-.591.328-1.521.525-2.287a11.04,11.04,0,0,1,2.189.886c2.189,1.477,4.082,3.316,4.564,6.008.766,4.224,2.966,8.164,2.517,12.619Z" transform="translate(101.486 13.564)" fill="#c97a1f"/>
        <path id="Path_1059" data-name="Path 1059" d="M36.34,31.552C29.643,30.6,26.1,25.424,22.113,20.86a1.3,1.3,0,0,1,.011-.941c.777-.142,1.9-.558,2.309-.2,4.2,3.732,9.029,6.862,11.688,12.071Z" transform="translate(219.04 194.684)" fill="#c97a1f"/>
        <path id="Path_1060" data-name="Path 1060" d="M54.77,38.784c-.1.383-.077.974-.317,1.116-1.51.886.679,1.368-.9.635-3.83-1.773-7.628-3.644-11.349-5.636a2.355,2.355,0,0,1-.908-2.09,2.508,2.508,0,0,1,2.123-1.051c3.874.536,7.519,1.729,10.2,4.826a10.479,10.479,0,0,1,1.149,2.2" transform="translate(410.189 315.694)" fill="#c97a1f"/>
        <path id="Path_1061" data-name="Path 1061" d="M38.078,38.861c-7.267,1.4-12.826-.624-15.781-7.869l-.175.186c5.768,1.6,11.918,2.43,15.76,7.869Z" transform="translate(219.983 308.187)" fill="#c97a1f"/>
        <path id="Path_1062" data-name="Path 1062" d="M13.68,6.865c.306.208.766.361.985.689,2.55,3.83,5.68,7.365,6.457,12.126.044.252-.482.7-.832.9-.306.175-.963.3-1.094.131a37.531,37.531,0,0,1-6.588-11.9,1.624,1.624,0,0,1,.241-1.138,4.187,4.187,0,0,1,.832-.81" transform="translate(125.025 68.266)" fill="#c97a1f"/>
        <path id="Path_1063" data-name="Path 1063" d="M16.646,31.935C12.334,28.127,7.3,24.854,6.523,18.4l.131-.12C11.4,21.56,16.2,24.811,17.6,30.983c-.328.317-.635.635-.952.952" transform="translate(64.865 181.748)" fill="#c97a1f"/>
        <path id="Path_1064" data-name="Path 1064" d="M31.246,26.389c5.417.876,10.222,2.747,13.023,7.913l.208-.241c-5.614-.514-10.222-2.725-13.067-7.869Z" transform="translate(310.713 260.455)" fill="#c97a1f"/>
        <path id="Path_1065" data-name="Path 1065" d="M29.336,41.319l-.066-5.527L29.084,36a6.306,6.306,0,0,1,6.6,2.747,2.8,2.8,0,0,1,.208,3.447c-.93,1.28-2.123.974-3.338.383-1.116-.536-2.3-1.007-3.436-1.51Z" transform="translate(289.214 355.918)" fill="#c97a1f"/>
        <path id="Path_1066" data-name="Path 1066" d="M14.211,28.3C9.5,26.551,7.535,22.512,5.751,18.288c.383-.317.766-.657,1.127-1.007a15.657,15.657,0,0,1,7.464,10.9Z" transform="translate(57.188 171.844)" fill="#c97a1f"/>
        <path id="Path_1067" data-name="Path 1067" d="M33.646,27.829c4.881.733,8.6,3.053,10.627,7.716l-.109.131c-4.706-1.062-8.711-3.042-10.342-8.044Z" transform="translate(334.578 274.775)" fill="#c97a1f"/>
        <path id="Path_1068" data-name="Path 1068" d="M52.055,45.5c-4.662.6-6.8-2.922-9.346-5.746-.142-.164-.044-.876.088-.919.744-.263,1.828-.81,2.265-.5,2.78,1.948,5.724,3.819,6.785,7.365Z" transform="translate(424.002 380.318)" fill="#c97a1f"/>
        <path id="Path_1069" data-name="Path 1069" d="M2.051,10.114c2.353.635,3.546,2.441,4.2,4.553A2.413,2.413,0,0,1,5.422,16.8,2.325,2.325,0,0,1,3.3,16.385c-1.86-1.62-1.642-3.874-1.5-6.052Z" transform="translate(16.992 100.574)" fill="#c97a1f"/>
        <path id="Path_1070" data-name="Path 1070" d="M45.159,39.81c4.137.646,4.137.646,5.155,5.3l.219-.252c-.854-.044-1.718-.077-2.572-.12-4.564-.252-4.564-.252-2.627-5.1Z" transform="translate(438.602 394.133)" fill="#c97a1f"/>
        <path id="Path_1071" data-name="Path 1071" d="M50.608,50.719c-3.294-1.926-6.249-4.213-8.142-7.65.438-.427.865-.876,1.27-1.324a10.458,10.458,0,0,1,7.847,7.989c-.328.317-.657.646-.974.985" transform="translate(422.285 415.115)" fill="#c97a1f"/>
        <path id="Path_1072" data-name="Path 1072" d="M21.529,20.581c-4.181-.985-5.187-4.071-5.177-7.825l-.23.219c3.415,1.488,5.571,3.809,5.209,7.8Z" transform="translate(160.328 126.847)" fill="#c97a1f"/>
        <path id="Path_1073" data-name="Path 1073" d="M22.454,21.7c-1.5-1.5-3.032-2.966-4.476-4.52a1.461,1.461,0,0,1,.011-1.248c.514-1.105,1.182-1.094,2.1-.317a7.9,7.9,0,0,1,2.9,5.6Z" transform="translate(177.429 149.744)" fill="#c97a1f"/>
        <path id="Path_1074" data-name="Path 1074" d="M23.831,23.719c-3.239-1.532-5.713-3.612-5.56-7.617l.536-.482c3.9,1.357,5.22,4.268,4.958,8.153Z" transform="translate(181.622 155.326)" fill="#c97a1f"/>
        <path id="Path_1075" data-name="Path 1075" d="M23.316,20.913a7.83,7.83,0,0,1,6.479,3.1.938.938,0,0,1-.066.9c-.23.274-.689.591-.985.536-2.736-.471-4.17-2.419-5.209-4.772Z" transform="translate(231.856 205.564)" fill="#c97a1f"/>
        <path id="Path_1076" data-name="Path 1076" d="M32.569,26.843c-3.962.3-6.194-2.014-7.825-5.209l-.219.23c3.59.241,6.5,1.521,7.836,5.177Z" transform="translate(243.878 215.13)" fill="#c97a1f"/>
        <path id="Path_1077" data-name="Path 1077" d="M29.8,25.4c3.677.131,6.709,1.27,7.967,5.144l-.033.033c-4.049.339-6.665-1.4-7.77-5.341Z" transform="translate(296.373 250.939)" fill="#c97a1f"/>
        <path id="Path_1078" data-name="Path 1078" d="M35.628,39.365c-2.506-.011-5.286.963-7.037-1.839a1.5,1.5,0,0,1-.055-1.171c.131-.372.635-.974.766-.919,2.386.854,5.209,1.127,6.151,4.126Z" transform="translate(282.845 352.345)" fill="#c97a1f"/>
        <path id="Path_1079" data-name="Path 1079" d="M17.242,10.92c-1,.471-1.74,1.138-2.287,1.007a2.61,2.61,0,0,1-1.609-1.576c-.131-.471.6-1.193.963-1.795.93.755,1.871,1.5,2.933,2.364" transform="translate(132.56 85.082)" fill="#c97a1f"/>
        <path id="Path_1080" data-name="Path 1080" d="M28.078,25.762c-.4.142-.93.482-1.094.35-.569-.438-1.379-1.018-1.4-1.576-.066-1.127.7-1.412,1.434-.613a9.72,9.72,0,0,1,1.062,1.839" transform="translate(254.356 233.372)" fill="#c97a1f"/>
        <path id="Path_1081" data-name="Path 1081" d="M20.659,25.71a9.763,9.763,0,0,1-.241,2.5c-.23.624-.919,1.062-1.4,1.587-.854-.843-1.707-1.7-2.561-2.539A8.378,8.378,0,0,1,18.4,26.082a11.17,11.17,0,0,1,2.506-.12Z" transform="translate(163.64 255.662)" fill="#c97a1f"/>
        <path id="Path_1082" data-name="Path 1082" d="M45.581,37.4a17.81,17.81,0,0,1-3.612-.777,2.121,2.121,0,0,1-.766-1.893c.2-.919,1.073-.908,1.828-.033.81.941,1.543,1.948,2.309,2.922Z" transform="translate(409.485 338.496)" fill="#c97a1f"/>
        <path id="Path_1083" data-name="Path 1083" d="M41.559,34.566c1.007.755,2.014,1.51,3.01,2.276.919.711,1.083,1.565.317,1.762a2.217,2.217,0,0,1-1.97-.7A18.959,18.959,0,0,1,41.8,34.347Z" transform="translate(413.266 341.549)" fill="#c97a1f"/>
        <path id="Path_1084" data-name="Path 1084" d="M12.041,5.737c3.2.58,2.506,3.119,2.627,5.242l.219-.2c-2.572-.886-2.922-2.9-2.638-5.231Z" transform="translate(119.737 55.2)" fill="#c97a1f"/>
        <path id="Path_1085" data-name="Path 1085" d="M12.281,6.216c.646.5,1.543.876,1.85,1.532.274.569-.131,1.445-.23,2.189-.427-.46-1.073-.854-1.226-1.39A10.631,10.631,0,0,1,12.5,6.03Z" transform="translate(122.123 59.963)" fill="#c97a1f"/>
        <path id="Path_1086" data-name="Path 1086" d="M4.3,14.6a8.667,8.667,0,0,1-1.784-1.664c-.547-.974-.142-1.7.8-1.685.186,0,.449.679.514,1.073.142.821.186,1.663.263,2.5Z" transform="translate(22.578 111.841)" fill="#c97a1f"/>
        <path id="Path_1087" data-name="Path 1087" d="M15.644,12.23c2.616.9,2.5,3.108,2.539,5.242l.219-.219c-2.441-.952-2.758-2.966-2.572-5.22Z" transform="translate(155.565 119.657)" fill="#c97a1f"/>
        <path id="Path_1088" data-name="Path 1088" d="M19.329,15.337c-.328.186-.657.547-.974.536-1.116-.044-1.423-.558-.755-1.2a1.279,1.279,0,0,1,1.105-.109c.263.088.416.5.624.777" transform="translate(171.535 144.053)" fill="#c97a1f"/>
        <path id="Path_1089" data-name="Path 1089" d="M31.608,23.071c-.471.668-.81,1.543-1.445,1.948a1.142,1.142,0,0,1-1.86-.8c-.033-.131.635-.525,1.018-.6.832-.164,1.674-.208,2.517-.3Z" transform="translate(281.436 229.42)" fill="#c97a1f"/>
        <path id="Path_1090" data-name="Path 1090" d="M28.525,24.987c-.361-.12-.9-.142-1.051-.394-.4-.668.066-1.094,1.16-.93.328.044.591.471.886.722l-1,.6" transform="translate(271.78 234.956)" fill="#c97a1f"/>
        <path id="Path_1091" data-name="Path 1091" d="M17.774,26.678a7.794,7.794,0,0,1-2.342-.208c-.471-.186-.7-.952-1.04-1.456a3.271,3.271,0,0,1,.963-.6c.788-.131,1.6-.131,2.386-.186l-.175-.2c0,.952,0,1.915-.011,2.878Z" transform="translate(143.115 238.956)" fill="#c97a1f"/>
        <path id="Path_1092" data-name="Path 1092" d="M34.04,27.088c-2.43.536-4.312-.033-5.231-2.572l-.208.2c2.244-.175,4.586-.514,5.264,2.55Z" transform="translate(284.411 243.789)" fill="#c97a1f"/>
        <path id="Path_1093" data-name="Path 1093" d="M36.841,25.23c-1.674,2.32-3.371,2.506-5.1.044l-.263.2,5.549-.033Z" transform="translate(313.02 250.889)" fill="#c97a1f"/>
        <path id="Path_1094" data-name="Path 1094" d="M36.253,28.519c-2.1-.164-4.334-.022-5.286-2.561l-.208.2c2.287-.219,4.235.285,5.33,2.561Z" transform="translate(305.87 258.128)" fill="#c97a1f"/>
        <path id="Path_1095" data-name="Path 1095" d="M32.436,27.152c2.014.372,4.3.142,5.33,2.561l.2-.186c-2.265.131-4.312-.186-5.308-2.616Z" transform="translate(322.546 267.605)" fill="#c97a1f"/>
        <path id="Path_1096" data-name="Path 1096" d="M38.623,30.009c-2.244.12-4.213-.306-5.231-2.616l-.23.241c2.025.317,4.41-.088,5.286,2.572Z" transform="translate(329.765 272.398)" fill="#c97a1f"/>
        <path id="Path_1097" data-name="Path 1097" d="M34.716,28.355a8.337,8.337,0,0,1,2.473.263c.482.2.711,1,1.062,1.521-.744.1-1.631.492-2.2.219-.635-.306-.974-1.226-1.445-1.871Z" transform="translate(344.135 281.964)" fill="#c97a1f"/>
        <path id="Path_1098" data-name="Path 1098" d="M34.6,31.214c.777.1,1.565.164,2.342.306.372.077,1.029.263,1.04.427.044.865-.6,1.215-1.532.679a7.89,7.89,0,0,1-1.62-1.631Z" transform="translate(344.075 308.217)" fill="#c97a1f"/>
        <path id="Path_1099" data-name="Path 1099" d="M44.674,40.364c1.149.131,2.309.219,3.458.416.339.066.635.416.963.635-.591.328-1.434,1.094-1.718.919a15.308,15.308,0,0,1-2.484-2.222Z" transform="translate(444.242 398.877)" fill="#c97a1f"/>
        <path id="Path_1100" data-name="Path 1100" d="M8.305,4.726c-.4-.142-1.149-.3-1.149-.427.022-.854.4-.646.941.624Z" transform="translate(71.16 37.628)" fill="#c97a1f"/>
        <path id="Path_1101" data-name="Path 1101" d="M7.242,4.067c.679.394,1.357.788,2.025,1.193C7.133,6.8,7.614,4.91,7.45,3.87Z" transform="translate(72.015 38.484)" fill="#c97a1f"/>
        <path id="Path_1102" data-name="Path 1102" d="M14.04,10.016l.755-.285-.088.744Z" transform="translate(139.619 96.768)" fill="#c97a1f"/>
        <path id="Path_1103" data-name="Path 1103" d="M2.437,11.772c.635.274,1.27.536,1.9.81-1.86,1.784-1.226-.536-1.7-1.029Z" transform="translate(24.234 114.884)" fill="#c97a1f"/>
        <path id="Path_1104" data-name="Path 1104" d="M16.631,12.935c-.449-.416-.886-.843-1.335-1.259.263.1.657.131.777.317a4.692,4.692,0,0,1,.35,1.149Z" transform="translate(152.105 116.107)" fill="#c97a1f"/>
        <path id="Path_1105" data-name="Path 1105" d="M18.256,14.449c-1.784.011-2.473-1.062-2.648-2.659L15.4,12a2.684,2.684,0,0,1,2.67,2.648Z" transform="translate(153.139 117.241)" fill="#c97a1f"/>
        <path id="Path_1106" data-name="Path 1106" d="M15.876,12.729c.9.9,1.806,1.795,2.7,2.692l.23-.23c-.908-.9-1.817-1.784-2.714-2.681Z" transform="translate(157.872 124.4)" fill="#c97a1f"/>
        <path id="Path_1107" data-name="Path 1107" d="M16.6,13.668l1.226,1.16c-.219-.109-.514-.175-.624-.35a5.1,5.1,0,0,1-.4-1.007Z" transform="translate(165.062 133.957)" fill="#c97a1f"/>
        <path id="Path_1108" data-name="Path 1108" d="M6.4,15.821l-1.16-1.259c.219.131.547.208.657.4a4.816,4.816,0,0,1,.274,1.073Z" transform="translate(52.057 144.806)" fill="#c97a1f"/>
        <path id="Path_1109" data-name="Path 1109" d="M10.578,22.5a2.7,2.7,0,0,1-3.13-2.112l.952-.952a2.8,2.8,0,0,1,2.09,3.152Z" transform="translate(74.063 193.293)" fill="#c97a1f"/>
        <path id="Path_1110" data-name="Path 1110" d="M11.192,23.811a2.96,2.96,0,0,1-2.506-2.736l.1-.088c.9.044,1.806.1,2.7.142l-.23-.219c.066.876.12,1.751.186,2.627Z" transform="translate(86.374 207.941)" fill="#c97a1f"/>
        <path id="Path_1111" data-name="Path 1111" d="M25.669,22.5c-.416-.317-.832-.635-1.237-.952.186.1.427.153.547.306a6.1,6.1,0,0,1,.471.876Z" transform="translate(242.954 214.265)" fill="#c97a1f"/>
        <path id="Path_1112" data-name="Path 1112" d="M25.241,22.307c.624.328,1.248.657,1.882.985-1.839,1.412-1.379-.427-1.674-1.182Z" transform="translate(250.998 219.864)" fill="#c97a1f"/>
        <path id="Path_1113" data-name="Path 1113" d="M12.038,22.778l1.116.558c-.306-.252-.624-.492-.941-.744Z" transform="translate(119.707 224.657)" fill="#c97a1f"/>
        <path id="Path_1114" data-name="Path 1114" d="M14.9,23.309c-.339.438-.689.876-1.029,1.313.1-.2.153-.471.317-.6a6.77,6.77,0,0,1,.919-.5Z" transform="translate(137.914 231.786)" fill="#c97a1f"/>
        <path id="Path_1115" data-name="Path 1115" d="M30.028,23.612c.252.274.5.547.766.821-.306.219-.722.7-.886.624-1.094-.514-1.029-1.051.12-1.445" transform="translate(289.626 234.8)" fill="#c97a1f"/>
        <path id="Path_1116" data-name="Path 1116" d="M30.329,25.858c-.624-.328-1.259-.646-1.882-.974,1.795-1.368,1.379.4,1.674,1.171Z" transform="translate(282.879 242.447)" fill="#c97a1f"/>
        <path id="Path_1117" data-name="Path 1117" d="M29.081,24.926c.416.35.832.711,1.248,1.062-.252-.088-.591-.088-.722-.263a3.8,3.8,0,0,1-.35-.974Z" transform="translate(289.184 246.126)" fill="#c97a1f"/>
        <path id="Path_1118" data-name="Path 1118" d="M15.642,25.178c1.642.12,2.627.876,2.572,2.638l.208-.2c-1.631-.131-2.725-.766-2.594-2.627Z" transform="translate(155.545 248.522)" fill="#c97a1f"/>
        <path id="Path_1119" data-name="Path 1119" d="M31.569,26.584c-.646-.285-1.28-.569-1.926-.865,1.74-1.642,1.324.427,1.762,1.029Z" transform="translate(294.772 249.59)" fill="#c97a1f"/>
        <path id="Path_1120" data-name="Path 1120" d="M32.946,27.671c-1.9-.821-2.32-1.653-.011-2.484l-.241-.2c0,.963-.011,1.915-.011,2.878Z" transform="translate(311.814 248.502)" fill="#c97a1f"/>
        <path id="Path_1121" data-name="Path 1121" d="M15.877,25.439c.449.328.9.646,1.346.974-.219-.088-.5-.109-.635-.263a4.979,4.979,0,0,1-.514-.919Z" transform="translate(157.882 250.899)" fill="#c97a1f"/>
        <path id="Path_1122" data-name="Path 1122" d="M30.552,25.721a2.783,2.783,0,0,1,2.484,2.8l.219-.208L30.53,25.754Z" transform="translate(303.593 255.772)" fill="#c97a1f"/>
        <path id="Path_1123" data-name="Path 1123" d="M36.036,26.168c.886.865,1.762,1.74,2.648,2.6l.23-.219c-.887-.865-1.773-1.74-2.659-2.6Z" transform="translate(358.345 258.039)" fill="#c97a1f"/>
        <path id="Path_1124" data-name="Path 1124" d="M36.278,26.407c.383.383.755.766,1.138,1.149-.2-.131-.449-.23-.558-.4a5.068,5.068,0,0,1-.35-.963Z" transform="translate(360.751 260.415)" fill="#c97a1f"/>
        <path id="Path_1125" data-name="Path 1125" d="M19.948,29.312c-.689-.416-1.39-.821-2.079-1.237.679-.416,1.368-.832,2.057-1.248l-.153-.153c-.011.941-.011,1.882-.022,2.813Z" transform="translate(177.691 265.248)" fill="#c97a1f"/>
        <path id="Path_1126" data-name="Path 1126" d="M35.768,29.809c-1.609-.164-2.791-.744-2.648-2.659l-.2.2a2.682,2.682,0,0,1,2.616,2.692Z" transform="translate(327.389 269.982)" fill="#c97a1f"/>
        <path id="Path_1127" data-name="Path 1127" d="M36.6,29.4l.285.766-.755-.1Z" transform="translate(359.241 292.316)" fill="#c97a1f"/>
        <path id="Path_1128" data-name="Path 1128" d="M35.9,31.852c-.646-.252-1.291-.514-1.937-.766,1.718-1.839,1.28.427,1.762.93Z" transform="translate(337.721 302.084)" fill="#c97a1f"/>
        <path id="Path_1129" data-name="Path 1129" d="M36.9,33.14c-1.795.044-2.758-.744-2.6-2.627l-.175.164c1.609.142,2.659.843,2.616,2.627Z" transform="translate(339.322 303.424)" fill="#c97a1f"/>
        <path id="Path_1130" data-name="Path 1130" d="M37.207,33.4a3.231,3.231,0,0,1-2.681-2.648l-.164.164a2.993,2.993,0,0,1,2.616,2.7Z" transform="translate(341.698 305.81)" fill="#c97a1f"/>
        <path id="Path_1131" data-name="Path 1131" d="M26.353,34.35c-1.773.011-2.769-.733-2.594-2.638l-.2.186c1.609.142,2.7.8,2.616,2.627Z" transform="translate(234.302 315.347)" fill="#c97a1f"/>
        <path id="Path_1132" data-name="Path 1132" d="M23.8,32.128c.4.4.821.8,1.226,1.2-.23-.109-.558-.153-.679-.339a5.077,5.077,0,0,1-.372-1.04Z" transform="translate(236.679 317.743)" fill="#c97a1f"/>
        <path id="Path_1133" data-name="Path 1133" d="M36.619,32.726l.722-.2-.12.635Z" transform="translate(364.145 323.467)" fill="#c97a1f"/>
        <path id="Path_1134" data-name="Path 1134" d="M38.324,33.295l-1.171-.427c.317.219.624.438.93.657Z" transform="translate(369.452 326.842)" fill="#c97a1f"/>
        <path id="Path_1135" data-name="Path 1135" d="M37.238,33.137c.4.383.821.766,1.226,1.149-.241-.109-.569-.164-.679-.339a3.687,3.687,0,0,1-.306-1.04Z" transform="translate(370.297 327.23)" fill="#c97a1f"/>
        <path id="Path_1136" data-name="Path 1136" d="M33.7,35.549c-.821,1.795-1.664,1.893-2.528.033L31,35.768c.974,0,1.937.011,2.911.033Z" transform="translate(308.246 353.502)" fill="#c97a1f"/>
        <path id="Path_1137" data-name="Path 1137" d="M29.822,37.123c-.372-.175-1.083-.4-1.062-.5.153-.766.492-.514.854.733Z" transform="translate(285.991 359.84)" fill="#c97a1f"/>
        <path id="Path_1138" data-name="Path 1138" d="M28.838,36.5c.985.011,1.959.033,2.933.044l-.208-.252c-.854,1.685-1.707,2.539-2.517-.022Z" transform="translate(286.767 360.692)" fill="#c97a1f"/>
        <path id="Path_1139" data-name="Path 1139" d="M29.853,37.8l.241.668-.668-.109Z" transform="translate(292.617 375.892)" fill="#c97a1f"/>
        <path id="Path_1140" data-name="Path 1140" d="M46.25,41.634a2.868,2.868,0,0,1-2.572-2.725l-.2.2a3.272,3.272,0,0,1,2.681,2.616Z" transform="translate(432.378 386.914)" fill="#c97a1f"/>
        <path id="Path_1141" data-name="Path 1141" d="M43.726,39.245c1.762.011,2.67.865,2.572,2.67l.164-.164c-1.674-.055-2.747-.722-2.648-2.594Z" transform="translate(434.815 389.38)" fill="#c97a1f"/>
        <path id="Path_1142" data-name="Path 1142" d="M43.961,39.558A2.5,2.5,0,0,1,46.6,42.207l.175-.175a2.77,2.77,0,0,1-2.648-2.637Z" transform="translate(437.152 391.737)" fill="#c97a1f"/>
        <path id="Path_1143" data-name="Path 1143" d="M44.184,42.474c.876.492,2.222,1.16,1.237,2.167-1.007,1.029-1.718-.263-2.211-1.182.317-.328.646-.668.974-.985" transform="translate(429.684 422.365)" fill="#c97a1f"/>
      </g>
    </g>
  </g>
</svg>
